G04*
G04 #@! TF.GenerationSoftware,Altium Limited,Altium Designer,24.9.1 (31)*
G04*
G04 Layer_Physical_Order=1*
G04 Layer_Color=255*
%FSLAX25Y25*%
%MOIN*%
G70*
G04*
G04 #@! TF.SameCoordinates,A58C8430-A11A-4511-A9C7-D2A71939ADB5*
G04*
G04*
G04 #@! TF.FilePolarity,Positive*
G04*
G01*
G75*
%ADD10C,0.00787*%
%ADD11C,0.01000*%
%ADD12C,0.02000*%
%ADD15C,0.00984*%
%ADD22R,0.02953X0.02165*%
%ADD23R,0.04200X0.06800*%
%ADD24C,0.04724*%
%ADD25R,0.04331X0.07874*%
%ADD26R,0.15400X0.04700*%
%ADD27R,0.03200X0.03200*%
%ADD28R,0.02200X0.05000*%
G04:AMPARAMS|DCode=29|XSize=65.3mil|YSize=24.68mil|CornerRadius=12.34mil|HoleSize=0mil|Usage=FLASHONLY|Rotation=90.000|XOffset=0mil|YOffset=0mil|HoleType=Round|Shape=RoundedRectangle|*
%AMROUNDEDRECTD29*
21,1,0.06530,0.00000,0,0,90.0*
21,1,0.04063,0.02468,0,0,90.0*
1,1,0.02468,0.00000,0.02031*
1,1,0.02468,0.00000,-0.02031*
1,1,0.02468,0.00000,-0.02031*
1,1,0.02468,0.00000,0.02031*
%
%ADD29ROUNDEDRECTD29*%
%ADD30R,0.02468X0.06530*%
%ADD31R,0.05000X0.02400*%
%ADD32R,0.04000X0.02400*%
%ADD33R,0.15000X0.15400*%
%ADD34R,0.04000X0.04500*%
%ADD35R,0.04500X0.04000*%
%ADD36R,0.05000X0.02200*%
%ADD37R,0.13800X0.04100*%
%ADD38R,0.47400X0.42200*%
%ADD39R,0.04700X0.02000*%
%ADD40R,0.02200X0.07800*%
%ADD41R,0.03937X0.08071*%
%ADD42R,0.12795X0.08071*%
G04:AMPARAMS|DCode=43|XSize=74.8mil|YSize=23.62mil|CornerRadius=2.95mil|HoleSize=0mil|Usage=FLASHONLY|Rotation=0.000|XOffset=0mil|YOffset=0mil|HoleType=Round|Shape=RoundedRectangle|*
%AMROUNDEDRECTD43*
21,1,0.07480,0.01772,0,0,0.0*
21,1,0.06890,0.02362,0,0,0.0*
1,1,0.00591,0.03445,-0.00886*
1,1,0.00591,-0.03445,-0.00886*
1,1,0.00591,-0.03445,0.00886*
1,1,0.00591,0.03445,0.00886*
%
%ADD43ROUNDEDRECTD43*%
%ADD44R,0.01968X0.01181*%
%ADD45R,0.04000X0.03000*%
%ADD46R,0.06693X0.02362*%
%ADD47R,0.11024X0.03937*%
%ADD48R,0.03200X0.03200*%
%ADD49R,0.02205X0.02362*%
G04:AMPARAMS|DCode=50|XSize=74.8mil|YSize=70.87mil|CornerRadius=17.72mil|HoleSize=0mil|Usage=FLASHONLY|Rotation=0.000|XOffset=0mil|YOffset=0mil|HoleType=Round|Shape=RoundedRectangle|*
%AMROUNDEDRECTD50*
21,1,0.07480,0.03543,0,0,0.0*
21,1,0.03937,0.07087,0,0,0.0*
1,1,0.03543,0.01968,-0.01772*
1,1,0.03543,-0.01968,-0.01772*
1,1,0.03543,-0.01968,0.01772*
1,1,0.03543,0.01968,0.01772*
%
%ADD50ROUNDEDRECTD50*%
G04:AMPARAMS|DCode=51|XSize=62.99mil|YSize=82.68mil|CornerRadius=15.75mil|HoleSize=0mil|Usage=FLASHONLY|Rotation=90.000|XOffset=0mil|YOffset=0mil|HoleType=Round|Shape=RoundedRectangle|*
%AMROUNDEDRECTD51*
21,1,0.06299,0.05118,0,0,90.0*
21,1,0.03150,0.08268,0,0,90.0*
1,1,0.03150,0.02559,0.01575*
1,1,0.03150,0.02559,-0.01575*
1,1,0.03150,-0.02559,-0.01575*
1,1,0.03150,-0.02559,0.01575*
%
%ADD51ROUNDEDRECTD51*%
G04:AMPARAMS|DCode=52|XSize=15.75mil|YSize=59.06mil|CornerRadius=3.94mil|HoleSize=0mil|Usage=FLASHONLY|Rotation=0.000|XOffset=0mil|YOffset=0mil|HoleType=Round|Shape=RoundedRectangle|*
%AMROUNDEDRECTD52*
21,1,0.01575,0.05118,0,0,0.0*
21,1,0.00787,0.05906,0,0,0.0*
1,1,0.00787,0.00394,-0.02559*
1,1,0.00787,-0.00394,-0.02559*
1,1,0.00787,-0.00394,0.02559*
1,1,0.00787,0.00394,0.02559*
%
%ADD52ROUNDEDRECTD52*%
%ADD53O,0.02362X0.06693*%
%ADD54R,0.02165X0.02953*%
%ADD55R,0.02362X0.02205*%
%ADD56R,0.12598X0.12598*%
%ADD57O,0.03445X0.00787*%
%ADD58O,0.00787X0.03445*%
%ADD59O,0.05709X0.02362*%
G04:AMPARAMS|DCode=60|XSize=55.12mil|YSize=43.31mil|CornerRadius=0mil|HoleSize=0mil|Usage=FLASHONLY|Rotation=90.000|XOffset=0mil|YOffset=0mil|HoleType=Round|Shape=RoundedRectangle|*
%AMROUNDEDRECTD60*
21,1,0.05512,0.04331,0,0,90.0*
21,1,0.05512,0.04331,0,0,90.0*
1,1,0.00000,0.02165,0.02756*
1,1,0.00000,0.02165,-0.02756*
1,1,0.00000,-0.02165,-0.02756*
1,1,0.00000,-0.02165,0.02756*
%
%ADD60ROUNDEDRECTD60*%
%ADD61R,0.04134X0.02559*%
%ADD62C,0.03100*%
G04:AMPARAMS|DCode=63|XSize=39.37mil|YSize=62.99mil|CornerRadius=0mil|HoleSize=0mil|Usage=FLASHONLY|Rotation=270.000|XOffset=0mil|YOffset=0mil|HoleType=Round|Shape=RoundedRectangle|*
%AMROUNDEDRECTD63*
21,1,0.03937,0.06299,0,0,270.0*
21,1,0.03937,0.06299,0,0,270.0*
1,1,0.00000,-0.03150,-0.01968*
1,1,0.00000,-0.03150,0.01968*
1,1,0.00000,0.03150,0.01968*
1,1,0.00000,0.03150,-0.01968*
%
%ADD63ROUNDEDRECTD63*%
%ADD64R,0.04724X0.07165*%
G04:AMPARAMS|DCode=65|XSize=31.5mil|YSize=21.65mil|CornerRadius=0mil|HoleSize=0mil|Usage=FLASHONLY|Rotation=0.000|XOffset=0mil|YOffset=0mil|HoleType=Round|Shape=RoundedRectangle|*
%AMROUNDEDRECTD65*
21,1,0.03150,0.02165,0,0,0.0*
21,1,0.03150,0.02165,0,0,0.0*
1,1,0.00000,0.01575,-0.01083*
1,1,0.00000,-0.01575,-0.01083*
1,1,0.00000,-0.01575,0.01083*
1,1,0.00000,0.01575,0.01083*
%
%ADD65ROUNDEDRECTD65*%
%ADD66R,0.03937X0.10630*%
%ADD67R,0.02362X0.06693*%
%ADD110C,0.07000*%
%ADD117C,0.11811*%
%ADD120C,0.01200*%
%ADD121C,0.06000*%
%ADD122C,0.01800*%
%ADD123C,0.00800*%
%ADD124C,0.01575*%
%ADD125C,0.04000*%
%ADD126C,0.02500*%
%ADD127C,0.01181*%
%ADD128C,0.17700*%
%ADD129R,0.08681X0.08681*%
%ADD130C,0.08681*%
%ADD131C,0.11929*%
G04:AMPARAMS|DCode=132|XSize=196.85mil|YSize=246.06mil|CornerRadius=49.21mil|HoleSize=0mil|Usage=FLASHONLY|Rotation=0.000|XOffset=0mil|YOffset=0mil|HoleType=Round|Shape=RoundedRectangle|*
%AMROUNDEDRECTD132*
21,1,0.19685,0.14764,0,0,0.0*
21,1,0.09843,0.24606,0,0,0.0*
1,1,0.09843,0.04921,-0.07382*
1,1,0.09843,-0.04921,-0.07382*
1,1,0.09843,-0.04921,0.07382*
1,1,0.09843,0.04921,0.07382*
%
%ADD132ROUNDEDRECTD132*%
%ADD133C,0.12000*%
%ADD134C,0.12598*%
%ADD135C,0.06378*%
G04:AMPARAMS|DCode=136|XSize=63.78mil|YSize=63.78mil|CornerRadius=15.95mil|HoleSize=0mil|Usage=FLASHONLY|Rotation=90.000|XOffset=0mil|YOffset=0mil|HoleType=Round|Shape=RoundedRectangle|*
%AMROUNDEDRECTD136*
21,1,0.06378,0.03189,0,0,90.0*
21,1,0.03189,0.06378,0,0,90.0*
1,1,0.03189,0.01595,0.01595*
1,1,0.03189,0.01595,-0.01595*
1,1,0.03189,-0.01595,-0.01595*
1,1,0.03189,-0.01595,0.01595*
%
%ADD136ROUNDEDRECTD136*%
%ADD137C,0.03400*%
%ADD138C,0.09200*%
G04:AMPARAMS|DCode=139|XSize=70mil|YSize=70mil|CornerRadius=17.5mil|HoleSize=0mil|Usage=FLASHONLY|Rotation=90.000|XOffset=0mil|YOffset=0mil|HoleType=Round|Shape=RoundedRectangle|*
%AMROUNDEDRECTD139*
21,1,0.07000,0.03500,0,0,90.0*
21,1,0.03500,0.07000,0,0,90.0*
1,1,0.03500,0.01750,0.01750*
1,1,0.03500,0.01750,-0.01750*
1,1,0.03500,-0.01750,-0.01750*
1,1,0.03500,-0.01750,0.01750*
%
%ADD139ROUNDEDRECTD139*%
%ADD140C,0.02200*%
%ADD141C,0.02756*%
%ADD142C,0.04528*%
%ADD143C,0.02500*%
%ADD144C,0.03000*%
%ADD145C,0.04000*%
%ADD146C,0.05000*%
%ADD147C,0.02700*%
%ADD148C,0.03150*%
G36*
X325000Y432500D02*
Y377500D01*
X315000D01*
Y368000D01*
X323695D01*
Y355000D01*
X319000D01*
X310000Y346000D01*
X274000Y310000D01*
X260000D01*
Y432500D01*
X270000Y442500D01*
X315000D01*
X325000Y432500D01*
D02*
G37*
G36*
X410000Y390500D02*
Y272000D01*
X363500D01*
X353000Y282500D01*
Y336000D01*
X347500Y341500D01*
X335000D01*
X326500Y350000D01*
Y391500D01*
X330500Y395500D01*
X405000D01*
X410000Y390500D01*
D02*
G37*
G36*
X194000Y265000D02*
Y249000D01*
X172000D01*
Y265000D01*
X176000Y269000D01*
X190000D01*
X194000Y265000D01*
D02*
G37*
G36*
X258000Y263000D02*
Y247000D01*
X236000D01*
Y263000D01*
X240000Y267000D01*
X254000D01*
X258000Y263000D01*
D02*
G37*
G36*
X255000Y390000D02*
X250000Y385000D01*
X235000D01*
X220000Y370000D01*
Y327847D01*
X220462Y328038D01*
X246000Y302500D01*
X282800D01*
X313800Y271500D01*
X315497Y269803D01*
Y269803D01*
X315497Y269803D01*
X329285Y256015D01*
Y248782D01*
X329393Y248241D01*
X329700Y247782D01*
X330482Y247000D01*
X337482Y240000D01*
X337941Y239693D01*
X338482Y239585D01*
X345715D01*
X385800Y199500D01*
X562500D01*
X580000Y182000D01*
Y174000D01*
X578000Y172000D01*
X329000D01*
X285500Y215500D01*
X285484D01*
X266242Y234742D01*
Y258758D01*
X253500Y271500D01*
X229000D01*
X220000Y262500D01*
Y232500D01*
X215000Y227500D01*
X202500D01*
X197500Y232500D01*
Y260500D01*
X194803Y263197D01*
Y265000D01*
X194742Y265307D01*
X194568Y265568D01*
X194568Y265568D01*
X190568Y269568D01*
X190307Y269742D01*
X190000Y269803D01*
X176000D01*
X175693Y269742D01*
X175432Y269568D01*
X175432Y269568D01*
X173365Y267500D01*
X162500D01*
X142500Y287500D01*
Y302500D01*
Y375000D01*
X167599Y400099D01*
X168164Y400291D01*
X170667Y401525D01*
X172987Y403075D01*
X175085Y404915D01*
X176925Y407013D01*
X178475Y409334D01*
X179709Y411836D01*
X179901Y412401D01*
X188713Y421213D01*
X193037D01*
Y425537D01*
X200000Y432500D01*
X255000D01*
Y390000D01*
D02*
G37*
G36*
X78000Y155700D02*
X58500D01*
Y161500D01*
X55000Y165000D01*
X46500D01*
X44000Y167500D01*
Y175000D01*
X47000Y178000D01*
X78000D01*
Y155700D01*
D02*
G37*
G36*
X579697Y149303D02*
Y132000D01*
X567000D01*
X560500Y138500D01*
X558500Y140500D01*
X555000D01*
Y170000D01*
X555000Y170000D01*
X559000D01*
X579697Y149303D01*
D02*
G37*
G36*
X555000Y136847D02*
X555462Y137038D01*
X565500Y127000D01*
X572000D01*
X581000Y118000D01*
Y111000D01*
X579500Y109500D01*
X330171D01*
X330087Y109625D01*
Y110375D01*
X329800Y111069D01*
X329269Y111600D01*
X328575Y111887D01*
X327825D01*
X327131Y111600D01*
X326945Y111415D01*
X325602D01*
Y111969D01*
X321823D01*
Y109500D01*
X315000D01*
Y91000D01*
X291882D01*
Y105118D01*
X282882Y114118D01*
Y126882D01*
X293500Y137500D01*
X555000D01*
Y136847D01*
D02*
G37*
G36*
X97000Y170000D02*
X555000D01*
X555000Y140500D01*
X226000D01*
X218000Y132500D01*
Y93000D01*
X197000D01*
Y100000D01*
X188000Y109000D01*
Y143000D01*
X45000D01*
X43250Y144750D01*
Y148250D01*
X49000Y154000D01*
X78000D01*
X80000Y156000D01*
Y170813D01*
X86487D01*
Y171000D01*
X96000D01*
X97000Y170000D01*
D02*
G37*
G36*
X548300Y75848D02*
X545850D01*
X545850Y75848D01*
X545733Y75824D01*
X542374D01*
X542371Y75830D01*
X525048Y93152D01*
X524657Y93413D01*
X524196Y93505D01*
X524196Y93505D01*
X523397D01*
X523253Y93720D01*
X522602Y94155D01*
X521834Y94308D01*
X518488D01*
X517720Y94155D01*
X517068Y93720D01*
X516633Y93069D01*
X516481Y92301D01*
X516633Y91533D01*
X517068Y90882D01*
X517720Y90447D01*
X518488Y90294D01*
X521834D01*
X522602Y90447D01*
X523253Y90882D01*
X523274Y90912D01*
X523840Y90954D01*
X540338Y74456D01*
Y71281D01*
X534389D01*
X533645Y72025D01*
Y75824D01*
X530919D01*
Y79427D01*
X530919Y79427D01*
X530827Y79890D01*
X530564Y80283D01*
X530564Y80283D01*
X523792Y87055D01*
X523841Y87301D01*
X523688Y88069D01*
X523253Y88720D01*
X522602Y89155D01*
X521834Y89308D01*
X518488D01*
X517720Y89155D01*
X517068Y88720D01*
X516633Y88069D01*
X516481Y87301D01*
X516633Y86533D01*
X517068Y85882D01*
X517720Y85447D01*
X518488Y85294D01*
X521834D01*
X522080Y85343D01*
X527108Y80315D01*
X526825Y79891D01*
X526337Y80093D01*
X525475D01*
X524679Y79764D01*
X524070Y79154D01*
X523741Y78359D01*
Y77497D01*
X523750Y77475D01*
X523391Y77116D01*
X522992Y77281D01*
Y77281D01*
X519212D01*
Y74021D01*
X518796Y73743D01*
X518525Y73856D01*
X517663D01*
X516867Y73526D01*
X516258Y72917D01*
X515929Y72121D01*
Y71260D01*
X516258Y70464D01*
X516341Y70381D01*
X516150Y69919D01*
X515956D01*
X515160Y69589D01*
X514551Y68980D01*
X514221Y68184D01*
Y67323D01*
X514551Y66527D01*
X515048Y66030D01*
X514890Y65530D01*
X513964D01*
X512527Y65145D01*
X511239Y64401D01*
X510187Y63349D01*
X509443Y62060D01*
X509058Y60624D01*
Y60157D01*
X508947Y60097D01*
X508947D01*
X508541Y59023D01*
Y55734D01*
X509147Y55129D01*
X510073D01*
X510214Y54869D01*
X510254Y54629D01*
X507793Y52167D01*
X507673Y52217D01*
X506743D01*
X505884Y51861D01*
X505227Y51204D01*
X504979Y50605D01*
X504437D01*
X504190Y51204D01*
X503532Y51861D01*
X502934Y52109D01*
Y52650D01*
X503532Y52898D01*
X504190Y53556D01*
X504545Y54415D01*
Y55345D01*
X504190Y56204D01*
X503772Y56621D01*
X503795Y56760D01*
X504346Y57130D01*
X505070D01*
X505770Y57317D01*
X506397Y57679D01*
X506909Y58191D01*
X507271Y58818D01*
X507458Y59518D01*
Y60242D01*
X507271Y60941D01*
X506909Y61568D01*
X506397Y62080D01*
X505770Y62442D01*
X505070Y62630D01*
X504346D01*
X503647Y62442D01*
X503020Y62080D01*
X502508Y61568D01*
X502456Y61479D01*
X501956Y61613D01*
Y62383D01*
X501956Y62383D01*
X501864Y62844D01*
X501603Y63235D01*
X499712Y65126D01*
X499860Y65685D01*
X500423Y65918D01*
X501032Y66527D01*
X501362Y67323D01*
Y68184D01*
X501032Y68980D01*
X500423Y69589D01*
X500401Y69599D01*
Y70214D01*
X501066D01*
Y74742D01*
X497326D01*
Y70214D01*
X497992D01*
Y69599D01*
X497970Y69589D01*
X497361Y68980D01*
X497351Y68958D01*
X488642D01*
X488181Y68866D01*
X487791Y68605D01*
X487791Y68605D01*
X478989Y59803D01*
X478431Y59952D01*
X478197Y60516D01*
X477588Y61125D01*
X476792Y61454D01*
X475931D01*
X475135Y61125D01*
X474526Y60516D01*
X474196Y59720D01*
Y59509D01*
X461475D01*
X461014Y59417D01*
X460623Y59156D01*
X457826Y56359D01*
X447063D01*
X446759Y56730D01*
X446667Y57191D01*
X446406Y57582D01*
X446034Y57830D01*
X446014Y57847D01*
X445877Y58380D01*
X445914Y58417D01*
X446244Y59213D01*
Y60074D01*
X446068Y60498D01*
X446402Y60998D01*
X457932D01*
X457932Y60998D01*
X458392Y61090D01*
X458783Y61351D01*
X464007Y66574D01*
X464007Y66574D01*
X464267Y66965D01*
X464359Y67426D01*
Y67903D01*
X470697Y74241D01*
X471244Y74132D01*
X474590D01*
X475358Y74285D01*
X476009Y74720D01*
X476444Y75371D01*
X476597Y76139D01*
X476444Y76907D01*
X476009Y77559D01*
X475358Y77994D01*
X474590Y78146D01*
X473440D01*
X473389Y78313D01*
X473354Y78765D01*
X473694Y79132D01*
X474590D01*
X475358Y79285D01*
X476009Y79720D01*
X476444Y80371D01*
X476597Y81139D01*
X476444Y81907D01*
X476009Y82559D01*
X475358Y82994D01*
X474590Y83147D01*
X473017D01*
X472970Y83766D01*
X473310Y84132D01*
X474590D01*
X475358Y84285D01*
X476009Y84720D01*
X476444Y85371D01*
X476597Y86139D01*
X476452Y86867D01*
X476475Y86896D01*
X477013Y87013D01*
X478811Y85216D01*
X478822Y85157D01*
Y82714D01*
X483350D01*
Y86454D01*
X480937D01*
X480855Y86578D01*
X480535Y86898D01*
X480560Y86994D01*
X480780Y87360D01*
X481517D01*
X482313Y87690D01*
X482922Y88299D01*
X483251Y89095D01*
Y89956D01*
X483057Y90424D01*
X483055Y90923D01*
X483055Y90923D01*
X483055Y90923D01*
Y94702D01*
X479118D01*
Y90923D01*
X479118Y90923D01*
X479118D01*
X479115Y90424D01*
X478921Y89956D01*
Y89219D01*
X478555Y88999D01*
X478459Y88974D01*
X476547Y90886D01*
X476597Y91139D01*
X476444Y91908D01*
X476009Y92559D01*
X475358Y92994D01*
X474590Y93147D01*
X472248D01*
X471956Y96950D01*
X472295Y97317D01*
X486751D01*
X487618Y96449D01*
X487618Y96449D01*
X488009Y96188D01*
X488470Y96097D01*
X488470Y96097D01*
X495468D01*
X495612Y95882D01*
X496263Y95447D01*
X497031Y95294D01*
X500377D01*
X501035Y95425D01*
X501535Y95152D01*
Y94450D01*
X501035Y94177D01*
X500377Y94308D01*
X497031D01*
X496263Y94155D01*
X495788Y93838D01*
X495351D01*
X495023Y94166D01*
X494154Y94525D01*
X493215D01*
X492346Y94166D01*
X492216Y94035D01*
X491716Y94191D01*
Y94191D01*
X487779D01*
Y90411D01*
Y86986D01*
X489445D01*
X490539Y85893D01*
X490539Y85892D01*
X490993Y85589D01*
X491061Y85425D01*
X491292Y85195D01*
Y82760D01*
X491291Y82760D01*
X491414Y82146D01*
X491762Y81625D01*
X494819Y78567D01*
X494819Y78567D01*
X495340Y78219D01*
X495955Y78097D01*
X501454D01*
X501454Y78097D01*
X502068Y78219D01*
X502589Y78567D01*
X507435Y83413D01*
X507783Y83934D01*
X507906Y84549D01*
X507906Y84549D01*
Y98092D01*
X516128D01*
X516538Y97592D01*
X516481Y97301D01*
X516633Y96533D01*
X517068Y95882D01*
X517720Y95447D01*
X518488Y95294D01*
X521834D01*
X522602Y95447D01*
X523253Y95882D01*
X523397Y96097D01*
X526165D01*
Y95037D01*
X529405D01*
X529905Y95037D01*
Y95037D01*
X529905Y95037D01*
X530360Y94928D01*
X530571Y94643D01*
X530662Y94183D01*
X530924Y93792D01*
X531020Y93696D01*
X530889Y93381D01*
Y92520D01*
X531219Y91724D01*
X531828Y91115D01*
X532624Y90785D01*
X533485D01*
X534281Y91115D01*
X534890Y91724D01*
X535220Y92520D01*
Y93381D01*
X534890Y94177D01*
X534281Y94786D01*
X533645Y95050D01*
Y98092D01*
X548300D01*
Y75848D01*
D02*
G37*
G36*
X290000Y84000D02*
X272000D01*
Y102000D01*
X290000D01*
Y84000D01*
D02*
G37*
G36*
X191000D02*
X173000D01*
Y102000D01*
X191000D01*
Y84000D01*
D02*
G37*
G36*
X423708Y77588D02*
X423450Y77140D01*
X423415Y77150D01*
X422585D01*
X421784Y76935D01*
X421066Y76520D01*
X420480Y75934D01*
X420065Y75216D01*
X419850Y74415D01*
Y73585D01*
X420065Y72784D01*
X420480Y72066D01*
X421066Y71480D01*
X421784Y71065D01*
X422585Y70850D01*
X423415D01*
X423568Y70891D01*
X423976Y70549D01*
Y62864D01*
X423606Y62560D01*
X423145Y62469D01*
X422818Y62250D01*
X422492Y62469D01*
X422031Y62560D01*
X421570Y62469D01*
X421179Y62208D01*
X420918Y61817D01*
X420827Y61356D01*
Y58698D01*
X420918Y58238D01*
X421179Y57847D01*
X421570Y57586D01*
X422031Y57494D01*
X422492Y57586D01*
X422818Y57804D01*
X423145Y57586D01*
X423260Y57563D01*
X423425Y57020D01*
X422150Y55746D01*
X421600D01*
X420804Y55416D01*
X420195Y54807D01*
X420186Y54785D01*
X415830D01*
X415369Y54693D01*
X414979Y54432D01*
X414718Y54041D01*
X414626Y53580D01*
X414322Y53210D01*
X413118D01*
X409991Y56337D01*
Y58915D01*
X413763D01*
Y62695D01*
X413400D01*
Y63509D01*
X413514Y63556D01*
X414123Y64165D01*
X414294Y64579D01*
X414492Y64998D01*
X418271D01*
Y68935D01*
X414492D01*
Y68594D01*
X413884D01*
X413884Y68594D01*
X413270Y68472D01*
X412749Y68124D01*
X412749Y68124D01*
X412182Y67557D01*
X411856D01*
X411060Y67227D01*
X410451Y66618D01*
X410121Y65822D01*
Y64961D01*
X410218Y64727D01*
X410189Y64580D01*
X410189Y64580D01*
Y63026D01*
X410100Y62944D01*
X409689Y62747D01*
X409395Y62860D01*
X405074Y67181D01*
X404683Y67442D01*
X404222Y67534D01*
X404222Y67534D01*
X403724D01*
Y71107D01*
X400484D01*
X399984Y71107D01*
Y71107D01*
X399984D01*
Y71107D01*
X396244D01*
Y67640D01*
X382661D01*
Y70046D01*
X386250D01*
X386250Y70046D01*
X386711Y70137D01*
X387102Y70398D01*
X394999Y78296D01*
X423001D01*
X423708Y77588D01*
D02*
G37*
G36*
X378400Y106050D02*
Y99550D01*
X379950Y98000D01*
X382661D01*
Y98092D01*
X446054D01*
X446321Y97592D01*
X446312Y97579D01*
X446220Y97118D01*
X446220Y97118D01*
Y93502D01*
X446220Y93502D01*
X446312Y93041D01*
X446573Y92650D01*
X447830Y91393D01*
X447780Y91139D01*
X447933Y90371D01*
X448368Y89720D01*
X449019Y89285D01*
X449787Y89132D01*
X450389D01*
Y88147D01*
X449787D01*
X449019Y87994D01*
X448368Y87559D01*
X447933Y86908D01*
X447780Y86139D01*
X447933Y85371D01*
X448368Y84720D01*
X449019Y84285D01*
X449787Y84132D01*
X450389D01*
Y83147D01*
X449787D01*
X449019Y82994D01*
X448368Y82559D01*
X447933Y81907D01*
X447810Y81292D01*
X433146Y66628D01*
X432684Y66819D01*
Y77423D01*
X433216Y77565D01*
X433934Y77980D01*
X434520Y78566D01*
X434935Y79284D01*
X435150Y80085D01*
Y80915D01*
X434935Y81716D01*
X434520Y82434D01*
X433934Y83020D01*
X433216Y83435D01*
X432415Y83650D01*
X431585D01*
X430784Y83435D01*
X430066Y83020D01*
X429480Y82434D01*
X429065Y81716D01*
X428850Y80915D01*
Y80085D01*
X429065Y79284D01*
X429480Y78566D01*
X430066Y77980D01*
X430276Y77859D01*
Y77085D01*
X429814Y76894D01*
X424939Y81769D01*
X424548Y82030D01*
X424087Y82122D01*
X424087Y82122D01*
X392266D01*
X391806Y82030D01*
X391415Y81769D01*
X384400Y74754D01*
X383850Y74204D01*
X382661D01*
Y74754D01*
X366946D01*
X363400Y78300D01*
Y89050D01*
X369900Y95550D01*
Y106050D01*
X371900Y108050D01*
X376400D01*
X378400Y106050D01*
D02*
G37*
G36*
X443610Y73099D02*
X443819Y72711D01*
X443615Y72261D01*
X443570Y72252D01*
X443179Y71991D01*
X443179Y71991D01*
X435353Y64164D01*
X435092Y63774D01*
X435000Y63313D01*
X435000Y63313D01*
Y58698D01*
X435092Y58238D01*
X435353Y57847D01*
X435743Y57586D01*
X436204Y57494D01*
X436665Y57586D01*
X436992Y57804D01*
X437318Y57586D01*
X437779Y57494D01*
X438240Y57586D01*
X438566Y57804D01*
X438893Y57586D01*
X439354Y57494D01*
X439815Y57586D01*
X440141Y57804D01*
X440468Y57586D01*
X440929Y57494D01*
X441390Y57586D01*
X441494Y57656D01*
X441854Y57295D01*
X441784Y57191D01*
X441693Y56730D01*
X441784Y56269D01*
X442003Y55943D01*
X441784Y55616D01*
X441693Y55155D01*
X441784Y54694D01*
X442003Y54368D01*
X441784Y54041D01*
X441693Y53580D01*
X441784Y53120D01*
X442003Y52793D01*
X441784Y52466D01*
X441693Y52006D01*
X441784Y51545D01*
X442003Y51218D01*
X441784Y50892D01*
X441710Y50516D01*
X441425Y50414D01*
X441216Y50402D01*
X441189Y50466D01*
X440580Y51075D01*
X439784Y51405D01*
X438923D01*
X438279Y51138D01*
X437779Y51380D01*
Y53580D01*
X428889D01*
Y57223D01*
X428889Y57223D01*
X428906Y57344D01*
X429444Y57586D01*
X429905Y57494D01*
X430366Y57586D01*
X430692Y57804D01*
X431019Y57586D01*
X431480Y57494D01*
X431941Y57586D01*
X432267Y57804D01*
X432594Y57586D01*
X433055Y57494D01*
X433515Y57586D01*
X433906Y57847D01*
X434167Y58238D01*
X434259Y58698D01*
Y61356D01*
X434259Y61356D01*
Y64334D01*
X443107Y73183D01*
X443610Y73099D01*
D02*
G37*
G36*
X396244Y59978D02*
X399484D01*
X399984Y59978D01*
Y59978D01*
X399984D01*
Y59978D01*
X403724D01*
Y62245D01*
X404186Y62436D01*
X406007Y60615D01*
Y56183D01*
X405507Y55900D01*
X405177Y55966D01*
X405177Y55966D01*
X397828D01*
X397445Y56283D01*
X397425Y56449D01*
Y57161D01*
X397095Y57957D01*
X396486Y58566D01*
X395690Y58895D01*
X394829D01*
X394033Y58566D01*
X393424Y57957D01*
X393405Y57911D01*
X390082D01*
Y53974D01*
X393862D01*
Y54337D01*
X394472D01*
X394472Y54337D01*
X394693Y54381D01*
X394939Y53920D01*
X393428Y52408D01*
X392779Y52279D01*
X392127Y51844D01*
X391692Y51193D01*
X391540Y50425D01*
Y46094D01*
X391692Y45326D01*
X392127Y44675D01*
X392779Y44240D01*
X393547Y44087D01*
X394315Y44240D01*
X394966Y44675D01*
X395401Y45326D01*
X395554Y46094D01*
Y50425D01*
X395437Y51012D01*
X397983Y53557D01*
X398923D01*
X399114Y53095D01*
X398428Y52408D01*
X397779Y52279D01*
X397128Y51844D01*
X396692Y51193D01*
X396540Y50425D01*
Y46094D01*
X396692Y45326D01*
X397128Y44675D01*
X397779Y44240D01*
X398547Y44087D01*
X399315Y44240D01*
X399966Y44675D01*
X400401Y45326D01*
X400554Y46094D01*
Y50425D01*
X400437Y51012D01*
X401177Y51752D01*
X401443Y51719D01*
X401692Y51194D01*
X401691Y51185D01*
X401540Y50425D01*
Y46094D01*
X401692Y45326D01*
X402128Y44675D01*
X402779Y44240D01*
X403547Y44087D01*
X404315Y44240D01*
X404409Y44303D01*
X408517Y40195D01*
X397695Y29373D01*
X397434Y28982D01*
X397342Y28521D01*
X397342Y28521D01*
Y24035D01*
X397128Y23891D01*
X396692Y23240D01*
X396540Y22472D01*
Y18142D01*
X396585Y17913D01*
X396124Y17666D01*
X395554Y18237D01*
Y22472D01*
X395401Y23240D01*
X394966Y23891D01*
X394315Y24327D01*
X393547Y24479D01*
X392779Y24327D01*
X392127Y23891D01*
X391692Y23240D01*
X391540Y22472D01*
Y18142D01*
X391585Y17913D01*
X391124Y17666D01*
X390554Y18237D01*
Y22472D01*
X390401Y23240D01*
X389966Y23891D01*
X389315Y24327D01*
X388547Y24479D01*
X387779Y24327D01*
X387127Y23891D01*
X386692Y23240D01*
X386540Y22472D01*
Y18142D01*
X386692Y17373D01*
X387127Y16722D01*
X387779Y16287D01*
X388547Y16135D01*
X389133Y16251D01*
X392032Y13353D01*
X392032Y13353D01*
X392422Y13092D01*
X392883Y13000D01*
X405177D01*
X405177Y13000D01*
X405638Y13092D01*
X406029Y13353D01*
X412351Y19675D01*
X412351Y19675D01*
X412612Y20066D01*
X412704Y20527D01*
X412704Y20527D01*
Y22970D01*
X413370D01*
Y27498D01*
X412704D01*
Y31428D01*
X416329Y35053D01*
X419140D01*
X419140Y35053D01*
X419601Y35145D01*
X419991Y35406D01*
X420290Y35705D01*
X421099Y35688D01*
X421246Y35185D01*
X421179Y35141D01*
X420918Y34750D01*
X420827Y34289D01*
Y31632D01*
Y24139D01*
X406892Y10204D01*
X386799D01*
X382661Y14342D01*
Y63444D01*
X396244D01*
Y59978D01*
D02*
G37*
G36*
X433889Y36735D02*
X436862D01*
X437010Y36587D01*
X437806Y36257D01*
X438667D01*
X439463Y36587D01*
X439611Y36735D01*
X441278D01*
X441693Y36257D01*
X441784Y35797D01*
X441854Y35692D01*
X441494Y35332D01*
X441390Y35402D01*
X440929Y35493D01*
X440468Y35402D01*
X440141Y35183D01*
X439815Y35402D01*
X439354Y35493D01*
X438893Y35402D01*
X438566Y35183D01*
X438240Y35402D01*
X437779Y35493D01*
X437318Y35402D01*
X436992Y35183D01*
X436665Y35402D01*
X436204Y35493D01*
X435743Y35402D01*
X435353Y35141D01*
X435092Y34750D01*
X435000Y34289D01*
Y31632D01*
X435092Y31171D01*
X435353Y30780D01*
X435743Y30519D01*
X436204Y30427D01*
X436575Y30123D01*
Y29837D01*
X436575Y29837D01*
X436666Y29376D01*
X436928Y28986D01*
X437396Y28517D01*
Y20400D01*
X437396Y20400D01*
X437487Y19939D01*
X437748Y19548D01*
X446531Y10766D01*
X446339Y10304D01*
X439399D01*
X434259Y15444D01*
Y32960D01*
Y34289D01*
X434167Y34750D01*
X433906Y35141D01*
X433515Y35402D01*
X433055Y35493D01*
X432594Y35402D01*
X432267Y35183D01*
X431941Y35402D01*
X431480Y35493D01*
X431019Y35402D01*
X430692Y35183D01*
X430366Y35402D01*
X429905Y35493D01*
X429444Y35402D01*
X429284Y35295D01*
X428889Y35632D01*
X428889Y36021D01*
Y37219D01*
X433889D01*
Y36735D01*
D02*
G37*
G36*
X525771Y60342D02*
Y56533D01*
X532835D01*
Y53383D01*
X531578D01*
Y50143D01*
X531578Y49643D01*
X531578Y49143D01*
Y45903D01*
X532638D01*
Y44978D01*
X532638Y44978D01*
X532729Y44517D01*
X532991Y44126D01*
X535023Y42094D01*
Y39686D01*
X534112D01*
X534103Y39709D01*
X533494Y40318D01*
X532698Y40647D01*
X531837D01*
X531041Y40318D01*
X530432Y39709D01*
X530102Y38913D01*
Y38051D01*
X530432Y37255D01*
X531041Y36646D01*
X531837Y36317D01*
X532698D01*
X533494Y36646D01*
X534103Y37255D01*
X534112Y37278D01*
X535023D01*
Y36592D01*
X538960D01*
Y40017D01*
Y42094D01*
X540993Y44126D01*
X540993Y44126D01*
X541254Y44517D01*
X541346Y44978D01*
X541345Y44978D01*
Y45903D01*
X542405D01*
Y49143D01*
X542405Y49643D01*
X542405Y50143D01*
Y53059D01*
X542657Y53206D01*
X542905Y53297D01*
X543647Y52990D01*
X544509D01*
X545305Y53320D01*
X545914Y53929D01*
X546244Y54725D01*
Y55586D01*
X546058Y56033D01*
X546392Y56533D01*
X548212D01*
X548300Y56070D01*
Y51887D01*
X547613D01*
Y48113D01*
X548300D01*
Y33403D01*
X539499Y24602D01*
X539037Y24794D01*
Y27281D01*
X540378Y28621D01*
X541069Y28335D01*
X541931D01*
X542727Y28664D01*
X543336Y29273D01*
X543665Y30069D01*
Y30931D01*
X543336Y31727D01*
X542727Y32336D01*
X541931Y32665D01*
X541069D01*
X540273Y32336D01*
X539664Y31727D01*
X539503Y31338D01*
X539136Y31092D01*
X537181Y29137D01*
X532963D01*
Y23563D01*
X537806D01*
X537998Y23101D01*
X537334Y22437D01*
X532963D01*
Y18566D01*
X526601Y12204D01*
X448499D01*
X439804Y20899D01*
Y29016D01*
X439804Y29016D01*
X439713Y29477D01*
X439452Y29868D01*
X439452Y29868D01*
X439365Y29954D01*
X439558Y30468D01*
X439815Y30519D01*
X440141Y30737D01*
X440468Y30519D01*
X440929Y30427D01*
X441390Y30519D01*
X441780Y30780D01*
X442041Y31171D01*
X442133Y31632D01*
Y34289D01*
X442041Y34750D01*
X441971Y34854D01*
X442332Y35215D01*
X442436Y35145D01*
X442897Y35053D01*
X445555D01*
X446015Y35145D01*
X446114Y35211D01*
X446614Y34944D01*
Y20805D01*
X446614Y20805D01*
X446706Y20344D01*
X446967Y19953D01*
X449787Y17133D01*
Y14309D01*
X453027D01*
X453527Y14309D01*
Y14309D01*
X453527D01*
Y14309D01*
X457267D01*
Y15368D01*
X458743D01*
X458744Y15368D01*
X459204Y15460D01*
X459595Y15721D01*
X461529Y17655D01*
X464551D01*
Y21199D01*
Y24103D01*
X465051Y24310D01*
X466125Y23236D01*
Y21199D01*
X470850D01*
Y24939D01*
X467829D01*
X466360Y26407D01*
X466567Y26907D01*
X466913D01*
X467413Y26907D01*
X470653D01*
Y27967D01*
X481086D01*
Y27104D01*
X483491D01*
X483510Y26612D01*
X482714Y26282D01*
X482105Y25673D01*
X481775Y24877D01*
Y24016D01*
X482083Y23273D01*
X481898Y22773D01*
X481086D01*
Y18640D01*
X486795D01*
Y22773D01*
X485983D01*
X485798Y23273D01*
X486106Y24016D01*
Y24877D01*
X485776Y25673D01*
X485167Y26282D01*
X484371Y26612D01*
X484390Y27104D01*
X486795D01*
Y31238D01*
X481086D01*
Y30375D01*
X470653D01*
Y31435D01*
X467413D01*
X466913Y31435D01*
X466413Y31435D01*
X463173D01*
Y30375D01*
X460846D01*
X459477Y31744D01*
X459667Y32206D01*
X478731Y32313D01*
X479848Y33429D01*
X479883Y33465D01*
Y33929D01*
X480258Y34230D01*
X480692D01*
Y37655D01*
Y39723D01*
X481385Y40415D01*
X481443Y40391D01*
X482304D01*
X483100Y40721D01*
X483709Y41330D01*
X484039Y42126D01*
Y42987D01*
X483709Y43783D01*
X483100Y44392D01*
X482304Y44722D01*
X481443D01*
X481385Y44698D01*
X480692Y45391D01*
Y48470D01*
X481192Y48677D01*
X481631Y48238D01*
X481968Y48099D01*
Y47557D01*
X481968Y47557D01*
X482060Y47096D01*
X482321Y46706D01*
X488542Y40484D01*
X488933Y40223D01*
X489394Y40132D01*
X497212D01*
X497212Y40132D01*
X497458Y40181D01*
X497900Y39896D01*
X497958Y39813D01*
Y39518D01*
X498146Y38818D01*
X498508Y38191D01*
X499020Y37679D01*
X499647Y37317D01*
X500346Y37130D01*
X501070D01*
X501770Y37317D01*
X502166Y37546D01*
X502563Y37198D01*
X502354Y36695D01*
Y35755D01*
X502714Y34887D01*
X503379Y34223D01*
X504247Y33863D01*
X505187D01*
X506055Y34223D01*
X506719Y34887D01*
X507079Y35755D01*
Y36695D01*
X506876Y37185D01*
X507273Y37533D01*
X507647Y37317D01*
X508346Y37130D01*
X509070D01*
X509770Y37317D01*
X510397Y37679D01*
X510909Y38191D01*
X511271Y38818D01*
X511458Y39518D01*
Y40242D01*
X511271Y40941D01*
X510909Y41568D01*
X510397Y42080D01*
X509770Y42442D01*
X509070Y42630D01*
X508971D01*
X508764Y43130D01*
X509190Y43556D01*
X509451Y44186D01*
X510007Y44222D01*
X510187Y43910D01*
X511239Y42858D01*
X512527Y42115D01*
X513964Y41730D01*
X515452D01*
X516889Y42115D01*
X518177Y42858D01*
X519229Y43910D01*
X519973Y45199D01*
X520358Y46636D01*
Y48123D01*
X520292Y48369D01*
X520725Y48619D01*
X523976Y45368D01*
Y43147D01*
X522917D01*
Y39907D01*
X522917Y39407D01*
X522917Y38907D01*
Y35667D01*
X523976D01*
Y31238D01*
X521047D01*
Y27104D01*
X523451D01*
X523470Y26612D01*
X522675Y26282D01*
X522065Y25673D01*
X521736Y24877D01*
Y24016D01*
X522043Y23273D01*
X521859Y22773D01*
X521047D01*
Y18640D01*
X526755D01*
Y22773D01*
X525943D01*
X525759Y23273D01*
X526066Y24016D01*
Y24877D01*
X525737Y25673D01*
X525128Y26282D01*
X524332Y26612D01*
X524351Y27104D01*
X526755D01*
Y31238D01*
X526385D01*
Y35667D01*
X527444D01*
Y38907D01*
X527444Y39407D01*
X527444Y39907D01*
Y43147D01*
X526385D01*
Y45867D01*
X526293Y46328D01*
X526032Y46718D01*
X526032Y46718D01*
X518915Y53836D01*
X521603Y56525D01*
X521864Y56915D01*
X521956Y57376D01*
X521956Y57376D01*
Y63450D01*
X522125Y63576D01*
X522435Y63678D01*
X525771Y60342D01*
D02*
G37*
%LPC*%
G36*
X385893Y374071D02*
X384107D01*
X382354Y373722D01*
X380703Y373039D01*
X379218Y372046D01*
X377954Y370782D01*
X376961Y369297D01*
X376278Y367646D01*
X375929Y365893D01*
Y364107D01*
X376278Y362354D01*
X376961Y360703D01*
X377954Y359218D01*
X379218Y357954D01*
X380703Y356961D01*
X382354Y356278D01*
X384107Y355929D01*
X385893D01*
X387646Y356278D01*
X389297Y356961D01*
X390782Y357954D01*
X392046Y359218D01*
X393039Y360703D01*
X393722Y362354D01*
X394071Y364107D01*
Y365893D01*
X393722Y367646D01*
X393039Y369297D01*
X392046Y370782D01*
X390782Y372046D01*
X389297Y373039D01*
X387646Y373722D01*
X385893Y374071D01*
D02*
G37*
G36*
Y309071D02*
X384107D01*
X382354Y308722D01*
X380703Y308038D01*
X379218Y307046D01*
X377954Y305782D01*
X376961Y304297D01*
X376278Y302646D01*
X375929Y300893D01*
Y299107D01*
X376278Y297354D01*
X376961Y295703D01*
X377954Y294218D01*
X379218Y292954D01*
X380703Y291962D01*
X382354Y291278D01*
X384107Y290929D01*
X385893D01*
X387646Y291278D01*
X389297Y291962D01*
X390782Y292954D01*
X392046Y294218D01*
X393039Y295703D01*
X393722Y297354D01*
X394071Y299107D01*
Y300893D01*
X393722Y302646D01*
X393039Y304297D01*
X392046Y305782D01*
X390782Y307046D01*
X389297Y308038D01*
X387646Y308722D01*
X385893Y309071D01*
D02*
G37*
G36*
X274197Y240093D02*
X272858Y239917D01*
X271611Y239401D01*
X270540Y238579D01*
X269718Y237507D01*
X269201Y236260D01*
X269025Y234921D01*
X269201Y233583D01*
X269718Y232335D01*
X270540Y231264D01*
X271611Y230442D01*
X272858Y229925D01*
X274197Y229749D01*
X275535Y229925D01*
X276783Y230442D01*
X277854Y231264D01*
X278676Y232335D01*
X279193Y233583D01*
X279369Y234921D01*
X279193Y236260D01*
X278676Y237507D01*
X277854Y238579D01*
X276783Y239401D01*
X275535Y239917D01*
X274197Y240093D01*
D02*
G37*
G36*
X474590Y73146D02*
X471244D01*
X470475Y72994D01*
X469824Y72559D01*
X469389Y71908D01*
X469237Y71139D01*
X469389Y70371D01*
X469824Y69720D01*
X470475Y69285D01*
X471244Y69132D01*
X474590D01*
X475358Y69285D01*
X475921Y69661D01*
X476060Y69647D01*
X476243Y69133D01*
X476241Y69120D01*
X476101Y68980D01*
X475815Y68290D01*
X475515Y68096D01*
X475271Y68011D01*
X474590Y68147D01*
X471244D01*
X470475Y67994D01*
X469824Y67559D01*
X469389Y66908D01*
X469237Y66139D01*
X469389Y65371D01*
X469824Y64720D01*
X470475Y64285D01*
X471244Y64132D01*
X474590D01*
X475358Y64285D01*
X476009Y64720D01*
X476444Y65371D01*
X476471Y65504D01*
X477036Y65783D01*
X477506Y65588D01*
X478367D01*
X479163Y65918D01*
X479772Y66527D01*
X480102Y67323D01*
Y68184D01*
X480093Y68207D01*
X480855Y68969D01*
X481056Y69269D01*
X483350D01*
Y73010D01*
X478822D01*
Y72344D01*
X476153D01*
X476009Y72559D01*
X475358Y72994D01*
X474590Y73146D01*
D02*
G37*
G36*
X478367Y25175D02*
X477506D01*
X476710Y24845D01*
X476468Y24603D01*
X475968Y24810D01*
Y24899D01*
X472031D01*
Y21120D01*
X475968D01*
Y21209D01*
X476468Y21416D01*
X476710Y21174D01*
X477506Y20844D01*
X478367D01*
X479163Y21174D01*
X479772Y21783D01*
X480102Y22579D01*
Y23440D01*
X479772Y24236D01*
X479163Y24845D01*
X478367Y25175D01*
D02*
G37*
G36*
X510417Y31238D02*
X504708D01*
Y27104D01*
X507113D01*
X507132Y26612D01*
X506336Y26282D01*
X505727Y25673D01*
X505397Y24877D01*
Y24016D01*
X505705Y23273D01*
X505520Y22773D01*
X504708D01*
Y18640D01*
X510417D01*
Y22773D01*
X509605D01*
X509420Y23273D01*
X509728Y24016D01*
Y24877D01*
X509398Y25673D01*
X508789Y26282D01*
X507993Y26612D01*
X508012Y27104D01*
X510417D01*
Y31238D01*
D02*
G37*
G36*
X503133D02*
X497425D01*
Y27104D01*
X499829D01*
X499848Y26612D01*
X499052Y26282D01*
X498443Y25673D01*
X498114Y24877D01*
Y24016D01*
X498421Y23273D01*
X498237Y22773D01*
X497425D01*
Y18640D01*
X503133D01*
Y22773D01*
X502321D01*
X502137Y23273D01*
X502444Y24016D01*
Y24877D01*
X502115Y25673D01*
X501506Y26282D01*
X500710Y26612D01*
X500729Y27104D01*
X503133D01*
Y31238D01*
D02*
G37*
%LPD*%
D10*
X336000Y247000D02*
Y292290D01*
X332050Y296240D02*
X336000Y292290D01*
Y247000D02*
X338500Y244500D01*
X8500Y74500D02*
X27000Y56000D01*
X47000D02*
X84500Y18500D01*
X27000Y56000D02*
X47000D01*
X544078Y55155D02*
Y59092D01*
X544275Y59289D01*
X190000Y424000D02*
Y432500D01*
X355500Y392000D02*
X357000Y393500D01*
Y398650D01*
Y405350D02*
Y418500D01*
X404000Y102000D02*
X414500D01*
X431480Y79980D02*
X432000Y80500D01*
X431480Y60027D02*
Y79980D01*
X433055Y64833D02*
X449361Y81139D01*
X433055Y60273D02*
Y64833D01*
X423000Y73350D02*
Y74000D01*
X425181Y60027D02*
Y71170D01*
X423000Y73350D02*
X425181Y71170D01*
X384349Y73000D02*
X392266Y80917D01*
X429905Y60027D02*
Y75099D01*
X392266Y80917D02*
X424087D01*
X428330Y60027D02*
Y74670D01*
X394500Y79500D02*
X423500D01*
X428330Y74670D01*
X424087Y80917D02*
X429905Y75099D01*
X386250Y71250D02*
X394500Y79500D01*
X633000Y3000D02*
X645066Y15066D01*
X437491Y3000D02*
X633000D01*
X333600Y302000D02*
X338000Y306400D01*
X317000Y299000D02*
X320000Y302000D01*
X333600D01*
X309870Y299000D02*
X310185D01*
X317000D01*
X236326Y8674D02*
X311524D01*
X312500Y9650D01*
X82000Y15000D02*
X230000D01*
X236326Y8674D01*
X645066Y15066D02*
Y72344D01*
X437496Y5000D02*
X548800D01*
X557100Y13300D01*
X438900Y9100D02*
X532900D01*
X437500Y7000D02*
X540800D01*
X557100Y23300D01*
X532900Y9100D02*
X557100Y33300D01*
X428330Y12161D02*
X437491Y3000D01*
X438600Y20400D02*
X448000Y11000D01*
X429905Y12591D02*
X437496Y5000D01*
X433055Y14945D02*
X438900Y9100D01*
X431480Y13020D02*
X437500Y7000D01*
X448000Y11000D02*
X527100D01*
X535750Y19650D01*
X536000D01*
X536250D01*
X431480Y13020D02*
Y14220D01*
X433055Y14945D02*
Y32960D01*
X437779Y29837D02*
X438600Y29016D01*
Y20400D02*
Y29016D01*
X437779Y29837D02*
Y32960D01*
X544275Y73069D02*
X545850Y74643D01*
X549643D01*
X566424Y91424D01*
X596424D01*
X600000Y95000D01*
Y103207D01*
X600325Y103533D01*
X536250Y19650D02*
X550900Y34300D01*
Y50000D01*
X344750Y73000D02*
X384349D01*
X333400Y71250D02*
X386250D01*
X358213Y44740D02*
X379908Y66436D01*
X360310Y21818D02*
Y44310D01*
Y21818D02*
X360704Y21425D01*
X358213Y21493D02*
Y44740D01*
X379908Y66436D02*
X380874D01*
X360310Y44310D02*
X380649Y64649D01*
X358145Y21425D02*
X358213Y21493D01*
X407391Y9000D02*
X422031Y23640D01*
X379300Y16000D02*
X386300Y9000D01*
X407391D01*
X297000Y5650D02*
X297250D01*
X231350D02*
X297000D01*
X297250D02*
X299970Y2930D01*
X407335D01*
X317900Y4500D02*
X406900D01*
X335550Y6000D02*
X406396D01*
X423606Y23210D01*
X327250Y14300D02*
X335550Y6000D01*
X380649Y64649D02*
X397174D01*
X397635Y64187D01*
Y62720D02*
Y64187D01*
Y62720D02*
X398114Y62242D01*
X343500Y74500D02*
X343956Y74044D01*
X343250Y74500D02*
X343500D01*
X343956Y73794D02*
Y74044D01*
Y73794D02*
X344750Y73000D01*
X318050Y70750D02*
X333400D01*
X29500Y74079D02*
X46921D01*
X87300Y33700D02*
X230300D01*
X46921Y74079D02*
X87300Y33700D01*
X428330Y12161D02*
Y12670D01*
X429905Y12591D02*
Y32960D01*
X428330Y12670D02*
Y32960D01*
X407335Y2930D02*
X426755Y22351D01*
X406900Y4500D02*
X425181Y22781D01*
X338900Y16000D02*
X379300D01*
X316500Y24500D02*
X330400D01*
X338900Y16000D01*
X420268Y61356D02*
X420456D01*
X434629Y29743D02*
Y34941D01*
X317600Y78800D02*
X334250D01*
X317300Y74500D02*
X343250D01*
X342100Y75650D02*
X343250Y74500D01*
X229000Y8000D02*
X231350Y5650D01*
X18000Y8000D02*
X229000D01*
X6000Y58000D02*
X12000Y52000D01*
X45000D02*
X82000Y15000D01*
X12000Y52000D02*
X45000D01*
X3500Y22500D02*
Y177500D01*
Y22500D02*
X18000Y8000D01*
X20500Y66000D02*
Y80500D01*
X31309Y91309D02*
X82602D01*
X20500Y80500D02*
X31309Y91309D01*
X262000Y40000D02*
X264000Y38000D01*
X262000Y40000D02*
Y43400D01*
X260900Y44500D02*
X262000Y43400D01*
X264000Y38000D02*
X276800D01*
X317600Y78800D01*
X278800Y36000D02*
X317300Y74500D01*
X271600Y36000D02*
X278800D01*
X267244Y31644D02*
X271600Y36000D01*
X274900Y34000D02*
X277552D01*
X277576Y34024D02*
X281324D01*
X270100Y29200D02*
X274900Y34000D01*
X281324Y34024D02*
X318050Y70750D01*
X277552Y34000D02*
X277576Y34024D01*
X264684Y34205D02*
X267244Y31644D01*
X247005Y34205D02*
X264684D01*
X257213Y32000D02*
X258000Y31213D01*
Y30000D02*
Y31213D01*
Y30000D02*
X263575Y24425D01*
X251236Y32000D02*
X257213D01*
X263575Y24425D02*
X267244D01*
X119500Y85850D02*
Y89500D01*
X105711Y103289D02*
X119500Y89500D01*
X101289Y103289D02*
X105711D01*
X431480Y14220D02*
Y32960D01*
X312750Y9650D02*
X317900Y4500D01*
X455397Y16572D02*
X458744D01*
X461696Y19525D01*
X462188D01*
X523901Y20706D02*
Y24446D01*
X435614Y28384D02*
Y28759D01*
X434629Y29743D02*
X435614Y28759D01*
X426755Y22351D02*
Y32960D01*
X425181Y22781D02*
Y32960D01*
X423606Y23210D02*
Y32960D01*
X422031Y23640D02*
Y32960D01*
X109500Y86350D02*
Y93500D01*
Y86350D02*
X110000Y85850D01*
X380874Y66436D02*
X397174D01*
X258554Y22000D02*
X258577Y21976D01*
X313976D01*
X85900Y22000D02*
X258554D01*
X313976Y21976D02*
X316500Y24500D01*
X327000Y14300D02*
X327250D01*
X312520Y12694D02*
X325394D01*
X327000Y14300D01*
X312500Y12674D02*
X312520Y12694D01*
X305326Y12674D02*
X312500D01*
X299500Y18500D02*
X305326Y12674D01*
X84500Y18500D02*
X299500D01*
X312500Y9650D02*
X312750D01*
X397568Y15779D02*
X404525D01*
X407070Y18325D01*
X392883Y14205D02*
X405177D01*
X411500Y20527D01*
X397174Y66436D02*
X397635Y66897D01*
Y68364D01*
X398114Y68843D01*
X402687Y66330D02*
X404222D01*
X403570Y64755D02*
X407211Y61114D01*
X402687Y64755D02*
X403570D01*
X401854Y68843D02*
X402226Y68471D01*
X401854Y62242D02*
X402226Y62614D01*
Y64294D01*
Y66791D02*
Y68471D01*
Y66791D02*
X402687Y66330D01*
X402226Y64294D02*
X402687Y64755D01*
X404222Y66330D02*
X408786Y61766D01*
X435023Y42163D02*
X435417Y42557D01*
X518488Y92301D02*
X520161D01*
X500340Y82301D02*
X502740Y84701D01*
X498704Y82301D02*
X500340D01*
X502740Y84701D02*
Y98279D01*
X47900Y60000D02*
X85900Y22000D01*
X8500Y74500D02*
Y173500D01*
X23000Y188000D01*
X6000Y175500D02*
X21000Y190500D01*
X6000Y58000D02*
Y175500D01*
X23000Y188000D02*
X100032D01*
X3500Y177500D02*
X18913Y192913D01*
X70107D01*
X77194Y200000D01*
X98500Y190500D02*
X120200Y212200D01*
X21000Y190500D02*
X98500D01*
X100032Y188000D02*
X101712Y186320D01*
X45042Y69157D02*
X86500Y27700D01*
X29500Y69157D02*
X45042D01*
X86500Y27700D02*
X246936D01*
X26500Y60000D02*
X47900D01*
X79650Y177100D02*
X83594Y181044D01*
X75000Y177100D02*
X79650D01*
X83844Y181044D02*
X85450Y182650D01*
X83594Y181044D02*
X83844D01*
X85450Y182650D02*
Y182900D01*
X78550Y182700D02*
X78750Y182900D01*
X70000Y182700D02*
X78550D01*
X84500Y172800D02*
X86600Y174900D01*
X83200Y172800D02*
X84500D01*
X86600Y174900D02*
X98000D01*
X101712Y183138D02*
Y186320D01*
Y183138D02*
X101750Y183100D01*
X20500Y66000D02*
X26500Y60000D01*
X98050Y174850D02*
X110500D01*
X98000Y174900D02*
X98050Y174850D01*
X246936Y27700D02*
X251236Y32000D01*
X102705Y96969D02*
Y98776D01*
X105000Y98000D02*
X109500Y93500D01*
X102705Y98776D02*
X103481Y98000D01*
X102705Y98776D02*
Y99000D01*
X103481Y98000D02*
X105000D01*
X99871Y101872D02*
X101289Y103289D01*
X96340Y101872D02*
X99871D01*
X95500Y99000D02*
Y101031D01*
X96340Y101872D01*
X82602Y91309D02*
X97045D01*
X102705Y96969D01*
X86205Y99000D02*
X95500D01*
X267244Y27575D02*
Y31644D01*
X267638Y24425D02*
X270100Y26887D01*
Y29200D01*
X237000Y32000D02*
X244800D01*
X247005Y34205D01*
X230300Y33700D02*
X232000Y32000D01*
X237000D01*
X239559Y37000D02*
X247059Y44500D01*
X237000Y37000D02*
X239559D01*
X247059Y44500D02*
X260900D01*
X267244Y24425D02*
X267638D01*
X120200Y212200D02*
Y217500D01*
X120700Y218000D02*
X122100D01*
X120200Y217500D02*
X120700Y218000D01*
X330700Y296240D02*
X332050D01*
X421305Y38423D02*
X438237D01*
X439747Y35864D02*
X440796Y36912D01*
X437177Y35864D02*
X439747D01*
X440796Y36912D02*
Y44519D01*
X544275Y73069D02*
X545456D01*
X338000Y306400D02*
Y309200D01*
X310185Y299315D02*
Y307885D01*
X309870Y299000D02*
X310185Y299315D01*
Y307885D02*
X310500Y308200D01*
X502208Y54880D02*
Y57934D01*
X507208Y49880D02*
X511164Y53836D01*
X521102Y75313D02*
X521148Y75359D01*
X523337D01*
X525906Y77928D01*
X522701Y65115D02*
Y67084D01*
X516387Y67754D02*
X516519D01*
X518094Y71691D02*
X522701Y67084D01*
X499196Y67754D02*
Y72478D01*
X534039Y51710D02*
Y63029D01*
X530889Y66179D02*
X534039Y63029D01*
X522701Y65115D02*
X528527Y59289D01*
X529708Y66179D02*
X530889D01*
X528527Y59289D02*
X529708D01*
X537070Y41907D02*
X540141Y44978D01*
X525181Y41277D02*
Y45867D01*
X516519Y67754D02*
X520752Y63521D01*
Y57376D02*
Y63521D01*
X517211Y53836D02*
X520752Y57376D01*
X511164Y53836D02*
X517211D01*
X489394Y41336D02*
X497212D01*
X517211Y53836D02*
X525181Y45867D01*
X497212Y65923D02*
X500752Y62383D01*
Y59390D02*
X502208Y57934D01*
X500752Y59390D02*
Y62383D01*
X498899Y43023D02*
X500202D01*
X498664Y53423D02*
X502208Y49880D01*
X540141Y44978D02*
Y47773D01*
X539944Y51710D02*
X540141Y51513D01*
X539944Y51710D02*
Y63029D01*
X543094Y66179D01*
X544275D01*
X473990Y38620D02*
X476362Y36248D01*
X466716Y34683D02*
X470062Y38029D01*
Y38620D02*
X473990D01*
X470062Y38029D02*
Y38620D01*
X500202Y43023D02*
X502058Y44880D01*
X500279Y20706D02*
Y24446D01*
X507551Y21080D02*
X507562Y21092D01*
Y24446D01*
X533842Y51513D02*
X534039Y51710D01*
X533842Y44978D02*
X536913Y41907D01*
X533842Y44978D02*
Y47773D01*
X467996Y23069D02*
X468488D01*
X468783Y29171D02*
X483940D01*
X465141Y25923D02*
X467996Y23069D01*
X502058Y44880D02*
X502208D01*
X478596Y36248D02*
X478724Y36120D01*
X476362Y36248D02*
X478596D01*
X483940Y20706D02*
Y24446D01*
X532267Y38482D02*
X536992D01*
X536913Y41907D02*
X536992D01*
X537070D01*
X524295Y29171D02*
X525181Y30057D01*
X523901Y29171D02*
X524295D01*
X525181Y30057D02*
Y37537D01*
X463274Y53423D02*
X498664D01*
X497212Y41336D02*
X498899Y43023D01*
X482858Y50074D02*
X483172Y49760D01*
Y47557D02*
Y49760D01*
Y47557D02*
X489394Y41336D01*
X411795Y57380D02*
X411873D01*
X412582Y56592D02*
X414019Y55155D01*
X412582Y56592D02*
Y56671D01*
X411873Y57380D02*
X412582Y56671D01*
X407070Y46376D02*
Y50642D01*
X408694Y47648D02*
X412211Y44132D01*
X407070Y46376D02*
X410889Y42557D01*
X403547Y46868D02*
X409433Y40982D01*
X397484Y54761D02*
X405177D01*
X393547Y50824D02*
X397484Y54761D01*
X393547Y48659D02*
Y50824D01*
X398547Y48659D02*
Y50824D01*
X408786Y55838D02*
X412619Y52006D01*
X408694Y47648D02*
Y51245D01*
X407211Y55186D02*
X411966Y50431D01*
X405177Y54761D02*
X408694Y51245D01*
X398547Y50824D02*
X400909Y53187D01*
X403547Y46868D02*
Y48659D01*
X400909Y53187D02*
X404525D01*
X407070Y50642D01*
X455397Y22872D02*
X455594Y23069D01*
X447818Y20805D02*
Y36221D01*
X450379Y26220D02*
X450671D01*
X451657Y25234D01*
Y22872D02*
Y25234D01*
X449393Y27205D02*
X450379Y26220D01*
X398547Y28521D02*
X409433Y39407D01*
X411500Y25234D02*
Y31927D01*
X407070Y18325D02*
Y29725D01*
X449393Y27205D02*
Y36873D01*
X455397Y28777D02*
X458251Y25923D01*
X411500Y20527D02*
Y25234D01*
X455594Y23069D02*
X462188D01*
X458251Y25923D02*
X465141D01*
X447818Y20805D02*
X451657Y16966D01*
Y16572D02*
Y16966D01*
X489087Y65923D02*
X497212D01*
X488642Y67754D02*
X499196D01*
X410889Y42557D02*
X417159D01*
X409433Y40982D02*
X417159D01*
X407070Y29725D02*
X415178Y37832D01*
X409433Y39407D02*
X417159D01*
X398547Y20706D02*
Y28521D01*
X388547Y18541D02*
Y20706D01*
X393547Y18541D02*
Y20706D01*
X388547Y18541D02*
X392883Y14205D01*
X397563Y15785D02*
X397568Y15779D01*
X393547Y18541D02*
X396303Y15785D01*
X397563D01*
X407211Y55186D02*
Y61114D01*
X408786Y55838D02*
Y61766D01*
X477619Y56730D02*
X488642Y67754D01*
X472917Y71139D02*
X480692D01*
X477937Y67754D02*
X480003Y69821D01*
Y70451D01*
X480692Y71139D01*
X481086D01*
X478161Y54998D02*
X489087Y65923D01*
X461401Y71297D02*
X471244Y81139D01*
X455614Y73777D02*
X464525Y82688D01*
X454032Y68502D02*
X471670Y86139D01*
X463155Y68402D02*
X470892Y76139D01*
X464525Y84421D02*
X471244Y91139D01*
X464525Y82688D02*
Y84421D01*
X471670Y86139D02*
X472917D01*
X471244Y91139D02*
X472917D01*
X449361Y81139D02*
X451460D01*
X472917Y91139D02*
X474590D01*
X437779Y62661D02*
X443620Y68502D01*
X436204Y63313D02*
X444031Y71139D01*
X439354Y60027D02*
Y62008D01*
X440929Y60027D02*
Y61356D01*
X439354Y62008D02*
X441123Y63777D01*
X440929Y61356D02*
X441775Y62202D01*
X434629Y57675D02*
Y60027D01*
X437779D02*
Y62661D01*
X434629Y57675D02*
X437110Y55195D01*
X436204Y60027D02*
Y63313D01*
X420456Y58698D02*
Y60027D01*
Y61356D01*
X463155Y67426D02*
Y68402D01*
X457279Y63777D02*
X461401Y67899D01*
Y71297D01*
X457932Y62202D02*
X463155Y67426D01*
X470892Y76139D02*
X472917D01*
X471244Y81139D02*
X472917D01*
X447425Y93502D02*
X449787Y91139D01*
X451460D01*
X474590D02*
X480003Y85726D01*
X418488Y56730D02*
X420456Y58698D01*
X419807Y61817D02*
Y66966D01*
Y61817D02*
X420268Y61356D01*
X462622Y54998D02*
X478161D01*
X461475Y58305D02*
X474916D01*
X462127Y56730D02*
X477619D01*
X474916Y58305D02*
X475900Y59289D01*
X476362D01*
X458325Y55155D02*
X461475Y58305D01*
X480003Y85273D02*
Y85726D01*
X480692Y84584D02*
X481086D01*
X480003Y85273D02*
X480692Y84584D01*
X444078Y56730D02*
Y59643D01*
X445929Y73777D02*
X455614D01*
X445773Y73933D02*
X445929Y73777D01*
X443620Y68502D02*
X454032D01*
X444031Y71139D02*
X451460D01*
X441123Y63777D02*
X457279D01*
X441775Y62202D02*
X457932D01*
X411873Y57380D02*
X415181D01*
X415830Y56730D01*
X417159D01*
X439354Y49643D02*
X439887D01*
X440141Y45174D02*
Y45706D01*
X418881Y29171D02*
X419170D01*
X420456Y30457D02*
Y32960D01*
X417159Y36258D02*
X419140D01*
X419170Y29171D02*
X420456Y30457D01*
X419140Y36258D02*
X421305Y38423D01*
X415178Y37832D02*
X417159D01*
X412211Y44132D02*
X417159D01*
X412681Y47281D02*
X417159D01*
X412681D02*
X414255Y48856D01*
X417159Y45706D02*
X422031D01*
Y53580D01*
X411500Y31927D02*
X415830Y36258D01*
X417159Y53580D02*
X422031D01*
X417159Y55155D02*
Y56730D01*
X411966Y50431D02*
X417159D01*
X412619Y52006D02*
X417159D01*
X414255Y48856D02*
X417159D01*
X414019Y55155D02*
X417159D01*
X444226Y37832D02*
X446207D01*
X460347Y29171D02*
X465043D01*
X455397Y28777D02*
Y29171D01*
X459039Y36052D02*
X460408Y34683D01*
X457027Y32491D02*
X460347Y29171D01*
X460408Y34683D02*
X466716D01*
X457027Y32491D02*
Y34332D01*
X454314Y37045D02*
X457027Y34332D01*
X455889Y44132D02*
X459039Y40982D01*
X440141Y45706D02*
X441716Y47281D01*
X437177Y35864D02*
X437177Y35864D01*
X435552Y35864D02*
X437177D01*
X434629Y34941D02*
X435552Y35864D01*
X440141Y45174D02*
X440796Y44519D01*
X451657Y29171D02*
Y36836D01*
X446207Y37832D02*
X447818Y36221D01*
X444226Y40982D02*
X447511D01*
X444226Y39407D02*
X446859D01*
X449393Y36873D01*
X447511Y40982D02*
X451657Y36836D01*
X459039Y36052D02*
Y40982D01*
X444226Y42557D02*
X453527D01*
X455102Y40982D01*
X459630Y52006D02*
X462622Y54998D01*
X444226Y55155D02*
X458325D01*
X444226Y53580D02*
X458977D01*
X462127Y56730D01*
X460282Y50431D02*
X463274Y53423D01*
X444226Y52006D02*
X459630D01*
X444226Y45706D02*
X450370D01*
X451551Y46887D01*
Y47281D01*
X444226Y50431D02*
X460282D01*
X444226Y44132D02*
X455889D01*
X440674Y48856D02*
X444226D01*
X444078Y56730D02*
X444226D01*
X439887Y49643D02*
X440674Y48856D01*
X441716Y47281D02*
X444226D01*
X541519Y74643D02*
Y74978D01*
X524196Y92301D02*
X541519Y74978D01*
X543094Y73069D02*
X544275D01*
X541519Y74643D02*
X543094Y73069D01*
X450403Y100096D02*
X500923D01*
X533055Y92950D02*
Y93364D01*
X531775Y94643D02*
Y97301D01*
Y94643D02*
X533055Y93364D01*
X520161Y92301D02*
X524196D01*
X520161Y97301D02*
X528035D01*
X500923Y100096D02*
X502740Y98279D01*
X487249Y98521D02*
X488470Y97301D01*
X467903Y96139D02*
X470285Y98521D01*
X451460Y96139D02*
X467903D01*
X447425Y93502D02*
Y97118D01*
X470285Y98521D02*
X487249D01*
X488470Y97301D02*
X498704D01*
X447425Y97118D02*
X450403Y100096D01*
X481037Y96189D02*
X481086Y96238D01*
D11*
X282906Y310094D02*
Y317595D01*
X276602Y323898D02*
X282906Y317595D01*
Y310094D02*
X316000Y277000D01*
X322650D01*
X548000Y54000D02*
X548250Y53750D01*
X559100D01*
X566250Y46250D02*
X570000Y50000D01*
X577100D01*
X580850Y46250D01*
X587130Y48870D02*
X592000D01*
X559100Y53750D02*
X582250D01*
X587130Y48870D01*
X580850Y46000D02*
X581720Y45130D01*
X592000D01*
X559100Y46250D02*
X566250D01*
X580850Y46000D02*
Y46250D01*
X334398Y299000D02*
X340230Y304832D01*
X328512Y299000D02*
X334398D01*
X322392Y292880D02*
X328512Y299000D01*
X335712Y318086D02*
X340230Y313568D01*
Y304832D02*
Y313568D01*
X333000Y318086D02*
X335712D01*
X319300Y292500D02*
X319680Y292880D01*
X322392D01*
X306130Y294870D02*
X311740Y289260D01*
X318800D01*
X306130Y294870D02*
Y299000D01*
X318800Y289260D02*
X319300Y288760D01*
X296400Y304700D02*
X296900D01*
X302600Y299000D01*
X306130D01*
X348499Y20933D02*
X349000Y21433D01*
Y27000D01*
X345743Y10893D02*
X345850Y11000D01*
X352000D01*
X369000Y10500D02*
X375271D01*
X375664Y10893D01*
X372000Y26025D02*
X372908Y25116D01*
Y20933D02*
Y25116D01*
X372000Y26025D02*
Y26500D01*
X365822Y21425D02*
X365911Y21514D01*
Y27411D01*
X366000Y27500D01*
X540064Y30164D02*
X541164D01*
X541500Y30500D01*
X536000Y26350D02*
X536250D01*
X540064Y30164D01*
X355500Y93906D02*
X356000Y93406D01*
Y93000D02*
Y93406D01*
X355500Y93906D02*
Y98000D01*
X383055Y104000D02*
X388000D01*
X390000Y102000D01*
X394000D01*
X334250Y78800D02*
X334450Y79000D01*
X333400Y77950D02*
X334250Y78800D01*
X334450Y79000D02*
X366400D01*
X22500Y78500D02*
X26500Y82500D01*
X220300D01*
X22500Y67000D02*
Y78500D01*
X567894Y25500D02*
X572000D01*
X567295Y24902D02*
X567894Y25500D01*
X586185D02*
X586784Y24902D01*
X581500Y25500D02*
X586185D01*
X579500Y31000D02*
Y37500D01*
X566795Y22902D02*
X567294Y23400D01*
X574079Y44429D02*
X574150Y44500D01*
X574079Y35500D02*
Y44429D01*
X119500Y79150D02*
X181250D01*
X110000D02*
X119500D01*
X181250D02*
X215750Y44650D01*
X220300Y82500D02*
X229600Y91800D01*
X322000Y21000D02*
X327000D01*
X22500Y67000D02*
X24654Y64846D01*
X28890D01*
X29500Y64236D01*
X215750Y44650D02*
X216000D01*
X249700Y91800D02*
X264000Y77500D01*
X224250Y77000D02*
X224650Y76600D01*
Y66350D02*
Y76600D01*
X224000Y65700D02*
X224650Y66350D01*
X229600Y91800D02*
X249700D01*
X224650Y52000D02*
X237000D01*
X224000Y51350D02*
X224650Y52000D01*
X216000Y51350D02*
X224000D01*
X234441Y62000D02*
X237000D01*
X230741Y65700D02*
X234441Y62000D01*
X224000Y65700D02*
X230741D01*
X272756Y24425D02*
X279925D01*
X280000Y24500D01*
X217500Y43150D02*
X217850D01*
X223500Y37500D02*
X224000D01*
X217850Y43150D02*
X223500Y37500D01*
X216000Y44650D02*
X217500Y43150D01*
X224000Y37500D02*
X224500Y37000D01*
X237000D01*
X299000Y340000D02*
Y345000D01*
X474000Y19314D02*
Y19527D01*
D12*
X329350Y423000D02*
X332500D01*
X336500Y419000D01*
X345000D01*
X341637Y83000D02*
X368000D01*
X359550Y69000D02*
X385913D01*
X356550Y66000D02*
X359550Y69000D01*
X330500Y66000D02*
X356550D01*
X130750Y91000D02*
X131000D01*
X115059Y106691D02*
X130750Y91000D01*
X291500Y27000D02*
X330500Y66000D01*
X288466Y24507D02*
X290959Y27000D01*
X280007Y24507D02*
X288466D01*
X290959Y27000D02*
X291500D01*
X307538Y16038D02*
X312188D01*
X307500Y16000D02*
X307538Y16038D01*
X312188D02*
X312500Y16350D01*
X292054Y12500D02*
X292204Y12350D01*
X292000Y12500D02*
X292054D01*
X292204Y12350D02*
X297000D01*
X79000Y100905D02*
Y101031D01*
Y99000D02*
Y100905D01*
X78784Y101121D02*
X79000Y100905D01*
X76879Y101121D02*
X78784D01*
X70811Y107189D02*
X76879Y101121D01*
X48311Y107189D02*
X70811D01*
X48241Y158618D02*
X48311Y158689D01*
X99102Y106691D02*
X115059D01*
X78784Y98547D02*
X79000Y98763D01*
Y99000D01*
X84659Y106691D02*
X99102D01*
X79000Y101031D02*
X84659Y106691D01*
X266650Y57000D02*
X267000Y56650D01*
X256331Y57000D02*
X266650D01*
X268350Y81650D02*
Y107000D01*
X284000Y53172D02*
Y66000D01*
X275000Y49350D02*
X275072Y49422D01*
X280250D01*
X284000Y53172D01*
X268350Y81650D02*
X284000Y66000D01*
X280000Y24500D02*
X280007Y24507D01*
X214600Y111800D02*
X216300Y110100D01*
X221088D01*
X312200Y109700D02*
X312500Y110000D01*
X320287D01*
X265750Y43650D02*
Y43900D01*
X256331Y47000D02*
X262650D01*
X265750Y43900D01*
Y43650D02*
X266750Y42650D01*
X267000D01*
Y56650D02*
X275000D01*
X254000Y107000D02*
X261650D01*
X277000D02*
X286000Y116000D01*
X268350Y107000D02*
X277000D01*
X153500Y108000D02*
X161650D01*
X168350D02*
X174000D01*
X178000Y112000D01*
X190000Y113172D02*
Y119113D01*
X188828Y112000D02*
X190000Y113172D01*
X178000Y112000D02*
X188828D01*
X190000Y119113D02*
X194158Y123271D01*
Y125079D01*
D15*
X190000Y439500D02*
X190500Y440000D01*
X194000D01*
X319180Y296120D02*
X319300Y296240D01*
X315120Y296120D02*
X319180D01*
X315000Y296000D02*
X315120Y296120D01*
X327000Y293000D02*
X330200D01*
X348000Y309200D02*
Y315000D01*
X471293Y96189D02*
X472966D01*
X473759Y19555D02*
X474000Y19314D01*
X330200Y293000D02*
X330700Y292500D01*
X320767Y321233D02*
X321000Y321000D01*
X320767Y321233D02*
Y326533D01*
X320500Y326800D02*
X320767Y326533D01*
X348000Y322000D02*
Y327800D01*
X320500Y308200D02*
Y313500D01*
X321000Y314000D01*
X322100Y375000D02*
X325000Y372100D01*
Y343600D02*
Y372100D01*
X320800Y375000D02*
X322100D01*
X320500Y348500D02*
Y351500D01*
X315500Y326800D02*
Y343500D01*
X320500Y348500D01*
X325000Y343600D02*
X338000Y330600D01*
X310500Y326800D02*
X315500D01*
X338000Y327800D02*
X343000D01*
X338000D02*
Y330600D01*
X463704Y88600D02*
X471293Y96189D01*
X474000Y23009D02*
X477937D01*
X468488Y19525D02*
X468517Y19555D01*
X473759D01*
X388547Y40982D02*
Y48260D01*
X441177Y88600D02*
X463704D01*
X440889Y88313D02*
X441177Y88600D01*
D22*
X592000Y45130D02*
D03*
Y48870D02*
D03*
X525181Y41277D02*
D03*
Y37537D02*
D03*
X481086Y71139D02*
D03*
Y74880D02*
D03*
Y84584D02*
D03*
Y80844D02*
D03*
X533842Y47773D02*
D03*
Y51513D02*
D03*
X540141Y47773D02*
D03*
Y51513D02*
D03*
D23*
X589516Y178000D02*
D03*
X577616D02*
D03*
X577616Y135844D02*
D03*
X589516D02*
D03*
X590016Y115344D02*
D03*
X578116D02*
D03*
D24*
X432000Y80500D02*
D03*
X423000Y74000D02*
D03*
D25*
X589184Y83344D02*
D03*
X578948D02*
D03*
D26*
X247400Y263000D02*
D03*
X272600D02*
D03*
X207600Y96000D02*
D03*
X182400D02*
D03*
X207600Y264000D02*
D03*
X182400D02*
D03*
X306600Y96000D02*
D03*
X281400D02*
D03*
D27*
X345000Y419000D02*
D03*
Y426000D02*
D03*
X190000Y439500D02*
D03*
Y432500D02*
D03*
X357000Y418500D02*
D03*
Y425500D02*
D03*
D28*
X94250Y183100D02*
D03*
X101750D02*
D03*
X98000Y174900D02*
D03*
D29*
X99102Y106691D02*
D03*
X102705Y99000D02*
D03*
X82602Y91309D02*
D03*
X79000Y99000D02*
D03*
D30*
X95500D02*
D03*
X86205D02*
D03*
D31*
X83200Y157800D02*
D03*
Y162800D02*
D03*
Y167800D02*
D03*
Y172800D02*
D03*
X320800Y351500D02*
D03*
Y356500D02*
D03*
Y361500D02*
D03*
Y366500D02*
D03*
Y375000D02*
D03*
Y380000D02*
D03*
Y385000D02*
D03*
Y390000D02*
D03*
D32*
X61700Y172800D02*
D03*
Y167800D02*
D03*
Y162800D02*
D03*
Y157800D02*
D03*
X342300Y366500D02*
D03*
Y361500D02*
D03*
Y356500D02*
D03*
Y351500D02*
D03*
Y390000D02*
D03*
Y385000D02*
D03*
Y380000D02*
D03*
Y375000D02*
D03*
D33*
X70000Y165300D02*
D03*
X334000Y359000D02*
D03*
Y382500D02*
D03*
D34*
X85450Y182900D02*
D03*
X78750D02*
D03*
X98650Y224000D02*
D03*
X105350D02*
D03*
X168350Y108000D02*
D03*
X161650D02*
D03*
X224250Y77000D02*
D03*
X230950D02*
D03*
X329350Y277000D02*
D03*
X322650D02*
D03*
Y423000D02*
D03*
X329350D02*
D03*
X261650Y107000D02*
D03*
X268350D02*
D03*
X574150Y46000D02*
D03*
X580850D02*
D03*
D35*
X110000Y85850D02*
D03*
Y79150D02*
D03*
X110500Y168150D02*
D03*
Y174850D02*
D03*
X119500Y85850D02*
D03*
Y79150D02*
D03*
X131000Y91000D02*
D03*
Y84300D02*
D03*
X216000Y51350D02*
D03*
Y44650D02*
D03*
X224000D02*
D03*
Y51350D02*
D03*
Y59000D02*
D03*
Y65700D02*
D03*
X327000Y14300D02*
D03*
Y21000D02*
D03*
X357000Y405350D02*
D03*
Y398650D02*
D03*
X333400Y71250D02*
D03*
Y77950D02*
D03*
X342100Y75650D02*
D03*
Y82350D02*
D03*
X267000Y49350D02*
D03*
Y42650D02*
D03*
Y63350D02*
D03*
Y56650D02*
D03*
X275000Y42650D02*
D03*
Y49350D02*
D03*
Y56650D02*
D03*
Y63350D02*
D03*
X297000Y5650D02*
D03*
Y12350D02*
D03*
X312500Y9650D02*
D03*
Y16350D02*
D03*
X190000Y424000D02*
D03*
Y417300D02*
D03*
X404000Y102000D02*
D03*
Y95300D02*
D03*
X536000Y26350D02*
D03*
Y19650D02*
D03*
D36*
X122100Y218000D02*
D03*
X113900Y221750D02*
D03*
Y214250D02*
D03*
X550900Y50000D02*
D03*
X559100Y46250D02*
D03*
Y53750D02*
D03*
D37*
X266500Y401000D02*
D03*
Y421000D02*
D03*
D38*
X231800Y411000D02*
D03*
D39*
X319300Y288760D02*
D03*
Y292500D02*
D03*
Y296240D02*
D03*
X330700D02*
D03*
Y292500D02*
D03*
Y288760D02*
D03*
D40*
X333000Y309200D02*
D03*
X338000D02*
D03*
X343000D02*
D03*
X348000D02*
D03*
Y327800D02*
D03*
X343000D02*
D03*
X338000D02*
D03*
X333000D02*
D03*
X305500Y326800D02*
D03*
X310500D02*
D03*
X315500D02*
D03*
X320500D02*
D03*
Y308200D02*
D03*
X315500D02*
D03*
X310500D02*
D03*
X305500D02*
D03*
D41*
X383055Y104000D02*
D03*
X374000D02*
D03*
X364945D02*
D03*
D42*
X374000Y79000D02*
D03*
D43*
X237000Y62000D02*
D03*
Y57000D02*
D03*
Y52000D02*
D03*
Y47000D02*
D03*
Y42000D02*
D03*
Y37000D02*
D03*
Y32000D02*
D03*
X256331D02*
D03*
Y37000D02*
D03*
Y42000D02*
D03*
Y47000D02*
D03*
Y52000D02*
D03*
Y57000D02*
D03*
Y62000D02*
D03*
D44*
X272756Y27575D02*
D03*
Y24425D02*
D03*
X267244D02*
D03*
Y27575D02*
D03*
D45*
X296400Y304700D02*
D03*
Y311700D02*
D03*
X355500Y105000D02*
D03*
Y98000D02*
D03*
X394000Y95000D02*
D03*
Y102000D02*
D03*
X224000Y37500D02*
D03*
Y30500D02*
D03*
X280000Y24500D02*
D03*
Y31500D02*
D03*
D46*
X29500Y79000D02*
D03*
Y74079D02*
D03*
Y69157D02*
D03*
Y64236D02*
D03*
D47*
X16311Y56953D02*
D03*
Y86283D02*
D03*
D48*
X63000Y182700D02*
D03*
X70000D02*
D03*
X153500Y108000D02*
D03*
X146500D02*
D03*
X414500Y102000D02*
D03*
X421500D02*
D03*
X254000Y107000D02*
D03*
X247000D02*
D03*
D49*
X221088Y110100D02*
D03*
X224514D02*
D03*
X320287Y110000D02*
D03*
X323713D02*
D03*
X388547Y55943D02*
D03*
X391972D02*
D03*
X416381Y66966D02*
D03*
X419807D02*
D03*
X517677Y75313D02*
D03*
X521102D02*
D03*
D50*
X345743Y10893D02*
D03*
X375664D02*
D03*
D51*
X372908Y20933D02*
D03*
X348499D02*
D03*
D52*
X365822Y21818D02*
D03*
X363263D02*
D03*
X360704D02*
D03*
X358145D02*
D03*
X355586D02*
D03*
D53*
X403547Y48260D02*
D03*
X398547D02*
D03*
X393547D02*
D03*
X388547D02*
D03*
X403547Y20307D02*
D03*
X398547D02*
D03*
X393547D02*
D03*
X388547D02*
D03*
D54*
X398114Y62242D02*
D03*
X401854D02*
D03*
X398114Y68843D02*
D03*
X401854D02*
D03*
X411500Y25234D02*
D03*
X415240D02*
D03*
X451551Y47281D02*
D03*
X455291D02*
D03*
X455397Y29171D02*
D03*
X451657D02*
D03*
X465043D02*
D03*
X468783D02*
D03*
X495456Y72478D02*
D03*
X499196D02*
D03*
X451657Y16572D02*
D03*
X455397D02*
D03*
Y22872D02*
D03*
X451657D02*
D03*
X531775Y97301D02*
D03*
X528035D02*
D03*
X306130Y299000D02*
D03*
X309870D02*
D03*
D55*
X411795Y57380D02*
D03*
Y60805D02*
D03*
X474000Y23009D02*
D03*
Y19584D02*
D03*
X478724Y36120D02*
D03*
Y39545D02*
D03*
Y48994D02*
D03*
Y45569D02*
D03*
X489747Y88876D02*
D03*
Y92301D02*
D03*
X481086Y92813D02*
D03*
Y96238D02*
D03*
X536992Y41907D02*
D03*
Y38482D02*
D03*
D56*
X430692Y46494D02*
D03*
D57*
X417159Y52006D02*
D03*
Y42557D02*
D03*
Y40982D02*
D03*
Y44132D02*
D03*
Y36258D02*
D03*
Y47281D02*
D03*
Y50431D02*
D03*
Y53580D02*
D03*
Y39407D02*
D03*
Y37832D02*
D03*
Y48856D02*
D03*
Y45706D02*
D03*
Y56730D02*
D03*
Y55155D02*
D03*
X444226Y36258D02*
D03*
Y37832D02*
D03*
Y39407D02*
D03*
Y40982D02*
D03*
Y42557D02*
D03*
Y44132D02*
D03*
Y45706D02*
D03*
Y47281D02*
D03*
Y48856D02*
D03*
Y50431D02*
D03*
Y52006D02*
D03*
Y53580D02*
D03*
Y55155D02*
D03*
Y56730D02*
D03*
D58*
X440929Y32960D02*
D03*
Y60027D02*
D03*
X439354D02*
D03*
X437779D02*
D03*
X436204D02*
D03*
X434629D02*
D03*
X433055D02*
D03*
X431480D02*
D03*
X429905D02*
D03*
X428330D02*
D03*
X426755D02*
D03*
X425181D02*
D03*
X423606D02*
D03*
X422031D02*
D03*
X420456D02*
D03*
X437779Y32960D02*
D03*
X436204D02*
D03*
X434629D02*
D03*
X433055D02*
D03*
X431480D02*
D03*
X429905D02*
D03*
X428330D02*
D03*
X426755D02*
D03*
X425181D02*
D03*
X423606D02*
D03*
X422031D02*
D03*
X420456D02*
D03*
X439354D02*
D03*
D59*
X451460Y96139D02*
D03*
Y91139D02*
D03*
Y86139D02*
D03*
Y81139D02*
D03*
Y76139D02*
D03*
Y71139D02*
D03*
Y66139D02*
D03*
X472917Y96139D02*
D03*
Y91139D02*
D03*
Y86139D02*
D03*
Y81139D02*
D03*
Y76139D02*
D03*
Y71139D02*
D03*
Y66139D02*
D03*
X498704Y97301D02*
D03*
Y92301D02*
D03*
Y87301D02*
D03*
Y82301D02*
D03*
X520161Y97301D02*
D03*
Y92301D02*
D03*
Y87301D02*
D03*
Y82301D02*
D03*
D60*
X470062Y38620D02*
D03*
Y46620D02*
D03*
X463062D02*
D03*
Y38620D02*
D03*
D61*
X500279Y20706D02*
D03*
X483940D02*
D03*
X500279Y29171D02*
D03*
X483940D02*
D03*
X507562D02*
D03*
X523901D02*
D03*
X507562Y20706D02*
D03*
X523901D02*
D03*
D62*
X507208Y49880D02*
D03*
X502208Y44880D02*
D03*
X507208D02*
D03*
X502208Y49880D02*
D03*
X507208Y54880D02*
D03*
X502208D02*
D03*
D63*
X544275Y73069D02*
D03*
Y66179D02*
D03*
Y59289D02*
D03*
X529708D02*
D03*
Y66179D02*
D03*
Y73069D02*
D03*
D64*
X342748Y268000D02*
D03*
X331252D02*
D03*
D65*
X468488Y19525D02*
D03*
X462188D02*
D03*
Y23069D02*
D03*
X468488D02*
D03*
D66*
X586784Y24902D02*
D03*
X567295D02*
D03*
D67*
X574579Y37500D02*
D03*
X579500D02*
D03*
D110*
X48311Y119000D02*
D03*
Y107189D02*
D03*
X36500Y119000D02*
D03*
Y107189D02*
D03*
X48311Y170500D02*
D03*
Y158689D02*
D03*
Y146878D02*
D03*
X36500Y170500D02*
D03*
Y158689D02*
D03*
Y146878D02*
D03*
X612136Y127155D02*
D03*
Y115344D02*
D03*
Y103533D02*
D03*
X600325Y127155D02*
D03*
Y115344D02*
D03*
Y103533D02*
D03*
X557100Y23300D02*
D03*
Y33300D02*
D03*
D117*
X571672Y65844D02*
D03*
X593326D02*
D03*
X622066D02*
D03*
X26800Y208268D02*
D03*
X55540Y200000D02*
D03*
X77194Y216535D02*
D03*
Y200000D02*
D03*
X55540Y216535D02*
D03*
D120*
X150000Y445000D02*
X393000D01*
X136000Y431000D02*
X150000Y445000D01*
X136000Y242450D02*
Y431000D01*
X330700Y281300D02*
X330700Y281300D01*
Y268000D02*
Y277000D01*
Y248782D02*
Y268000D01*
Y277000D02*
Y281300D01*
Y288760D01*
Y248782D02*
X338482Y241000D01*
X342748Y268000D02*
X348000D01*
X412000Y268500D02*
Y426000D01*
X393000Y445000D02*
X412000Y426000D01*
X338482Y241000D02*
X384500D01*
X412000Y268500D01*
X345000Y426000D02*
X350000D01*
X84658Y224000D02*
X98650D01*
X77194Y216535D02*
X84658Y224000D01*
X107350Y221750D02*
X113900D01*
X105350Y223750D02*
X107350Y221750D01*
X105350Y223750D02*
Y224000D01*
X350000Y426000D02*
X356000D01*
X229800Y131300D02*
X235000Y136500D01*
X229800Y99137D02*
Y131300D01*
X15500Y57764D02*
Y61500D01*
Y57764D02*
X16311Y56953D01*
X57100Y182700D02*
X63000D01*
X94750Y185000D02*
X98000D01*
X94250Y183100D02*
Y184500D01*
X94750Y185000D01*
X16000Y86594D02*
X16311Y86283D01*
X16000Y86594D02*
Y91000D01*
X29500Y79000D02*
X36000D01*
X208400Y95200D02*
X250300D01*
X275000Y70500D01*
Y63350D02*
Y70500D01*
X230100Y77000D02*
Y87400D01*
X207600Y96000D02*
X208400Y95200D01*
X224514Y110100D02*
Y114686D01*
X224500Y114700D02*
X224514Y114686D01*
X230000Y58000D02*
X233441D01*
X225000D02*
X230000D01*
X224000Y59000D02*
X225000Y58000D01*
X234441Y57000D02*
X237000D01*
X233441Y58000D02*
X234441Y57000D01*
X237000Y42000D02*
Y47000D01*
X230271Y46000D02*
X231271Y47000D01*
X230000Y46000D02*
X230271D01*
X231271Y47000D02*
X237000D01*
X228379Y44650D02*
X229729Y46000D01*
X224000Y44650D02*
X228379D01*
X229729Y46000D02*
X230000D01*
X220300Y30600D02*
X220350Y30550D01*
X223950D02*
X224000Y30500D01*
X220350Y30550D02*
X223950D01*
X273949Y30309D02*
X275409D01*
X273140Y29500D02*
X273949Y30309D01*
X273140Y27584D02*
Y29500D01*
X141500Y108000D02*
X146500D01*
X242000Y107000D02*
X247000D01*
X323713Y110000D02*
X328200D01*
X262000Y52000D02*
X264100D01*
X256331D02*
X262000D01*
X275765Y30500D02*
X276765Y31500D01*
X280000D01*
X275600Y30500D02*
X275765D01*
X275409Y30309D02*
X275600Y30500D01*
X250000Y42000D02*
X256331D01*
Y37000D02*
Y42000D01*
X258890Y62000D02*
X260698Y63809D01*
X261809D01*
X262000Y64000D01*
X266350D01*
X267000Y63350D01*
X256331Y62000D02*
X258890D01*
X267000Y42650D02*
X275000D01*
X264100Y52000D02*
X266750Y49350D01*
X267000D01*
X108000Y214000D02*
X108250Y214250D01*
X113900D01*
X115300Y221750D02*
X136000Y242450D01*
X113900Y221750D02*
X115300D01*
X421500Y102000D02*
X426000D01*
D121*
X590416Y178000D02*
X605500D01*
X612136Y127155D02*
Y171364D01*
X605500Y178000D02*
X612136Y171364D01*
X48241Y119000D02*
Y158618D01*
X571672Y65844D02*
X571917D01*
X578116Y72043D01*
Y83344D01*
X596005Y135444D02*
X600134Y131314D01*
X591516Y135444D02*
X596005D01*
X600134Y127346D02*
X600325Y127155D01*
X600134Y127346D02*
Y131314D01*
X592016Y83344D02*
X631566D01*
X573000Y150344D02*
X604066D01*
X639066Y151344D02*
Y171344D01*
Y90844D02*
Y151344D01*
X629255Y151033D02*
X638755D01*
X639066Y151344D01*
X629066Y150844D02*
X629255Y151033D01*
X629066Y181344D02*
X639066Y171344D01*
X591066Y115344D02*
X600325D01*
X631566Y83344D02*
X639066Y90844D01*
D122*
X296400Y311700D02*
X296900D01*
X300400Y308200D02*
X305500D01*
X296900Y311700D02*
X300400Y308200D01*
X305500Y326800D02*
Y333500D01*
X299000Y340000D02*
X305500Y333500D01*
Y318086D02*
X333000D01*
X305500D02*
Y326800D01*
Y308200D02*
Y318086D01*
X333000D02*
Y327800D01*
Y309200D02*
Y318086D01*
D123*
X567781Y90000D02*
X598604D01*
X547851Y70070D02*
X567781Y90000D01*
X598604D02*
X612136Y103533D01*
X507551Y21080D02*
X507818Y20813D01*
X518488Y87301D02*
X520161D01*
X533888Y70070D02*
X547851D01*
X530889Y73069D02*
X533888Y70070D01*
X529708Y73069D02*
X530889D01*
X521834Y87301D02*
X529708Y79427D01*
X520161Y87301D02*
X521834D01*
X529708Y73069D02*
Y79427D01*
X466415Y50563D02*
X477076D01*
X466415Y42563D02*
X475627D01*
X478645Y39545D02*
X478724D01*
X478803D02*
X481814Y42557D01*
X478724Y39545D02*
X478803D01*
X475627Y42563D02*
X478645Y39545D01*
X478724Y45569D02*
X478803D01*
X478645Y48994D02*
X478724D01*
X470062Y46620D02*
X471114Y45569D01*
X481814Y42557D02*
X481874D01*
X471114Y45569D02*
X478724D01*
X477076Y50563D02*
X478645Y48994D01*
X478803Y45569D02*
X481814Y42557D01*
X481086Y89525D02*
Y92813D01*
Y93025D01*
X463062Y47210D02*
X466415Y50563D01*
X463062Y39210D02*
X466415Y42563D01*
X463062Y38620D02*
Y39210D01*
Y46620D02*
Y47210D01*
X455291Y47281D02*
X462401D01*
X463062Y46620D01*
D124*
X506300Y115300D02*
X509000Y118000D01*
X506300Y84549D02*
Y115300D01*
X355500Y105000D02*
X363945D01*
X501454Y79702D02*
X506300Y84549D01*
X495955Y79702D02*
X501454D01*
X492897Y82760D02*
X495955Y79702D01*
X492897Y82760D02*
Y86651D01*
X411795Y60805D02*
Y64580D01*
X412287Y65072D01*
Y65391D01*
X412287D02*
X413884Y66989D01*
X498403Y86999D02*
X498704Y87301D01*
X493245Y86999D02*
X498403D01*
X391972Y55943D02*
X394472D01*
X395259Y56730D01*
X388547Y48260D02*
Y55943D01*
X403547Y20307D02*
Y25834D01*
X498635Y92232D02*
X498704Y92301D01*
X493753Y92232D02*
X498635D01*
X387858Y94840D02*
X390535Y92163D01*
X493684D02*
X493753Y92232D01*
X493616D02*
X493684Y92163D01*
X492897Y86651D02*
X493245Y86999D01*
X492521Y87028D02*
X492897Y86651D01*
X489747Y92301D02*
X489816Y92232D01*
X493616D01*
X455744Y66139D02*
X458198Y68594D01*
X491674Y87028D02*
X492521D01*
X489747Y88876D02*
X489826D01*
X491674Y87028D01*
X413884Y66989D02*
X416359D01*
X416381Y66966D01*
X451460Y66139D02*
X455744D01*
X472966Y96189D02*
X481037D01*
D125*
X364945Y104000D02*
Y117445D01*
X394945D02*
X395500Y118000D01*
D126*
X209118Y200382D02*
Y234921D01*
Y200382D02*
X234500Y175000D01*
D127*
X507575Y55247D02*
Y58022D01*
X507208Y54880D02*
X507575Y55247D01*
Y58022D02*
X508049Y58496D01*
X507858Y63817D02*
X508049Y63626D01*
Y58496D02*
Y63626D01*
X504717Y42388D02*
X507208Y44880D01*
X504717Y36225D02*
Y42388D01*
D128*
X160000Y420000D02*
D03*
X75000D02*
D03*
X620000Y30000D02*
D03*
X30000D02*
D03*
X620000Y230000D02*
D03*
X385000Y420000D02*
D03*
D129*
X304118Y234921D02*
D03*
X209118D02*
D03*
D130*
X274197D02*
D03*
X244276D02*
D03*
X274197Y125079D02*
D03*
X289158D02*
D03*
X194158D02*
D03*
X179197D02*
D03*
X149276Y234921D02*
D03*
X179197D02*
D03*
D131*
X244276Y125079D02*
D03*
X304118D02*
D03*
X209118D02*
D03*
X149276D02*
D03*
D132*
X245500Y323898D02*
D03*
Y355000D02*
D03*
X276602Y323898D02*
D03*
Y355000D02*
D03*
D133*
X19570Y113094D02*
D03*
Y158689D02*
D03*
X629066Y115344D02*
D03*
D134*
X385000Y300000D02*
D03*
Y282539D02*
D03*
X367539D02*
D03*
X402461D02*
D03*
Y300000D02*
D03*
X367539D02*
D03*
Y317461D02*
D03*
X385000D02*
D03*
X402461D02*
D03*
Y382461D02*
D03*
X385000D02*
D03*
X367539D02*
D03*
Y365000D02*
D03*
X402461D02*
D03*
Y347539D02*
D03*
X367539D02*
D03*
X385000D02*
D03*
Y365000D02*
D03*
X475000Y232500D02*
D03*
Y215039D02*
D03*
X457539D02*
D03*
X492461D02*
D03*
Y232500D02*
D03*
X457539D02*
D03*
Y249961D02*
D03*
X475000D02*
D03*
X492461D02*
D03*
X540000Y232500D02*
D03*
Y215039D02*
D03*
X522539D02*
D03*
X557461D02*
D03*
Y232500D02*
D03*
X522539D02*
D03*
Y249961D02*
D03*
X540000D02*
D03*
X557461D02*
D03*
D135*
X629066Y160844D02*
D03*
Y191344D02*
D03*
D136*
Y150844D02*
D03*
Y181344D02*
D03*
D137*
X504708Y59880D02*
D03*
X508708Y39880D02*
D03*
X500708D02*
D03*
D138*
X494708Y59880D02*
D03*
X514708D02*
D03*
Y47380D02*
D03*
X494708D02*
D03*
D139*
X557100Y13300D02*
D03*
D140*
X348000Y268000D02*
D03*
X194000Y440000D02*
D03*
X338500Y244500D02*
D03*
X250000Y254000D02*
D03*
X254000Y258000D02*
D03*
Y250000D02*
D03*
X246000D02*
D03*
X242000Y254000D02*
D03*
X246000Y258000D02*
D03*
X238000Y250000D02*
D03*
Y258000D02*
D03*
X315000Y296000D02*
D03*
X327000Y293000D02*
D03*
X348000Y315000D02*
D03*
X350000Y426000D02*
D03*
X292000Y12500D02*
D03*
X307500Y16000D02*
D03*
X185000Y88000D02*
D03*
X181000D02*
D03*
X177000D02*
D03*
X224514Y114686D02*
D03*
X230000Y58000D02*
D03*
Y46000D02*
D03*
X220300Y30600D02*
D03*
X175000Y92000D02*
D03*
X179000D02*
D03*
X183000D02*
D03*
X187000D02*
D03*
X645066Y72344D02*
D03*
X141500Y108000D02*
D03*
X242000Y107000D02*
D03*
X328200Y110000D02*
D03*
X275600Y30500D02*
D03*
X250000Y42000D02*
D03*
X262000Y52000D02*
D03*
Y64000D02*
D03*
X286000Y92000D02*
D03*
X284000Y88000D02*
D03*
X282000Y92000D02*
D03*
X280000Y88000D02*
D03*
X278000Y92000D02*
D03*
X276000Y88000D02*
D03*
X274000Y92000D02*
D03*
X108250Y214250D02*
D03*
X174000Y252000D02*
D03*
X182000D02*
D03*
X190000D02*
D03*
Y260000D02*
D03*
X186000Y256000D02*
D03*
X182000Y260000D02*
D03*
X178000Y256000D02*
D03*
X174000Y260000D02*
D03*
X426000Y102000D02*
D03*
X321000Y321000D02*
D03*
X348000Y322000D02*
D03*
X321000Y314000D02*
D03*
D141*
X544078Y55155D02*
D03*
X366000Y27500D02*
D03*
X369000Y10500D02*
D03*
X372000Y26500D02*
D03*
X349000Y27000D02*
D03*
X352000Y11000D02*
D03*
X541500Y30500D02*
D03*
X523901Y24446D02*
D03*
X435614Y28384D02*
D03*
X412287Y65391D02*
D03*
X438237Y38423D02*
D03*
X507562Y24446D02*
D03*
X500279D02*
D03*
X477937Y23009D02*
D03*
X483940Y24446D02*
D03*
X444866Y25234D02*
D03*
X440141Y45706D02*
D03*
X437110Y55195D02*
D03*
X439354Y49239D02*
D03*
X455102Y40982D02*
D03*
X444078Y59643D02*
D03*
X454314Y37045D02*
D03*
X422031Y53580D02*
D03*
X395259Y56730D02*
D03*
X422031Y45706D02*
D03*
X412681Y47281D02*
D03*
X418881Y29171D02*
D03*
X516387Y67754D02*
D03*
X499196D02*
D03*
X518094Y71691D02*
D03*
X532267Y38482D02*
D03*
X476362Y59289D02*
D03*
X482858Y50074D02*
D03*
X481874Y42557D02*
D03*
X477937Y67754D02*
D03*
X525906Y77928D02*
D03*
X492897Y86651D02*
D03*
X481086Y89525D02*
D03*
X445773Y73933D02*
D03*
X533055Y92950D02*
D03*
D142*
X407500Y85000D02*
D03*
X407800Y70700D02*
D03*
X388547Y40982D02*
D03*
X519889Y41313D02*
D03*
X512582Y78777D02*
D03*
D143*
X388000Y104000D02*
D03*
X356000Y93000D02*
D03*
D144*
X572000Y25500D02*
D03*
X581500D02*
D03*
X579500Y31000D02*
D03*
D145*
X291500Y27000D02*
D03*
X322000Y21000D02*
D03*
D146*
X604066Y150344D02*
D03*
D147*
X234500Y175000D02*
D03*
X235000Y136500D02*
D03*
X57100Y182700D02*
D03*
X98000Y185000D02*
D03*
X15500Y61500D02*
D03*
X36000Y79000D02*
D03*
X16000Y91000D02*
D03*
X264000Y77500D02*
D03*
X268350Y81650D02*
D03*
X229800Y99137D02*
D03*
X230100Y87400D02*
D03*
D148*
X448803Y59092D02*
D03*
X435023Y50824D02*
D03*
Y42163D02*
D03*
X426362D02*
D03*
X403547Y25834D02*
D03*
X426362Y50824D02*
D03*
X504717Y36225D02*
D03*
X493684Y92163D02*
D03*
X434629Y70903D02*
D03*
X458198Y68594D02*
D03*
M02*
