G04*
G04 #@! TF.GenerationSoftware,Altium Limited,Altium Designer,24.9.1 (31)*
G04*
G04 Layer_Physical_Order=2*
G04 Layer_Color=16711680*
%FSLAX25Y25*%
%MOIN*%
G70*
G04*
G04 #@! TF.SameCoordinates,A58C8430-A11A-4511-A9C7-D2A71939ADB5*
G04*
G04*
G04 #@! TF.FilePolarity,Positive*
G04*
G01*
G75*
%ADD10C,0.00787*%
%ADD12C,0.02000*%
%ADD14C,0.02362*%
%ADD34R,0.04000X0.04500*%
%ADD49R,0.02205X0.02362*%
%ADD54R,0.02165X0.02953*%
%ADD55R,0.02362X0.02205*%
%ADD110C,0.07000*%
%ADD117C,0.11811*%
%ADD120C,0.01200*%
%ADD121C,0.06000*%
%ADD124C,0.01575*%
%ADD126C,0.02500*%
%ADD128C,0.17700*%
%ADD129R,0.08681X0.08681*%
%ADD130C,0.08681*%
%ADD131C,0.11929*%
G04:AMPARAMS|DCode=132|XSize=196.85mil|YSize=246.06mil|CornerRadius=49.21mil|HoleSize=0mil|Usage=FLASHONLY|Rotation=0.000|XOffset=0mil|YOffset=0mil|HoleType=Round|Shape=RoundedRectangle|*
%AMROUNDEDRECTD132*
21,1,0.19685,0.14764,0,0,0.0*
21,1,0.09843,0.24606,0,0,0.0*
1,1,0.09843,0.04921,-0.07382*
1,1,0.09843,-0.04921,-0.07382*
1,1,0.09843,-0.04921,0.07382*
1,1,0.09843,0.04921,0.07382*
%
%ADD132ROUNDEDRECTD132*%
%ADD133C,0.12000*%
%ADD134C,0.12598*%
%ADD135C,0.06378*%
G04:AMPARAMS|DCode=136|XSize=63.78mil|YSize=63.78mil|CornerRadius=15.95mil|HoleSize=0mil|Usage=FLASHONLY|Rotation=90.000|XOffset=0mil|YOffset=0mil|HoleType=Round|Shape=RoundedRectangle|*
%AMROUNDEDRECTD136*
21,1,0.06378,0.03189,0,0,90.0*
21,1,0.03189,0.06378,0,0,90.0*
1,1,0.03189,0.01595,0.01595*
1,1,0.03189,0.01595,-0.01595*
1,1,0.03189,-0.01595,-0.01595*
1,1,0.03189,-0.01595,0.01595*
%
%ADD136ROUNDEDRECTD136*%
%ADD137C,0.03400*%
%ADD138C,0.09200*%
G04:AMPARAMS|DCode=139|XSize=70mil|YSize=70mil|CornerRadius=17.5mil|HoleSize=0mil|Usage=FLASHONLY|Rotation=90.000|XOffset=0mil|YOffset=0mil|HoleType=Round|Shape=RoundedRectangle|*
%AMROUNDEDRECTD139*
21,1,0.07000,0.03500,0,0,90.0*
21,1,0.03500,0.07000,0,0,90.0*
1,1,0.03500,0.01750,0.01750*
1,1,0.03500,0.01750,-0.01750*
1,1,0.03500,-0.01750,-0.01750*
1,1,0.03500,-0.01750,0.01750*
%
%ADD139ROUNDEDRECTD139*%
%ADD140C,0.02200*%
%ADD141C,0.02756*%
%ADD142C,0.04528*%
%ADD143C,0.02500*%
%ADD144C,0.03000*%
%ADD145C,0.04000*%
%ADD146C,0.05000*%
%ADD147C,0.02700*%
%ADD148C,0.03150*%
%ADD149R,0.01968X0.02362*%
%ADD150C,0.04528*%
%ADD151O,0.06693X0.07000*%
G36*
X393555Y448964D02*
X395886Y448500D01*
X398162Y447810D01*
X400358Y446900D01*
X402455Y445780D01*
X404432Y444459D01*
X406269Y442951D01*
X407950Y441269D01*
X409459Y439432D01*
X410780Y437455D01*
X411900Y435358D01*
X412810Y433162D01*
X413500Y430887D01*
X413964Y428555D01*
X414197Y426189D01*
Y425000D01*
Y285000D01*
X414199Y284990D01*
X414197Y284980D01*
X414228Y283754D01*
X414234Y283724D01*
X414231Y283695D01*
X414472Y281253D01*
X414483Y281215D01*
Y281175D01*
X414962Y278769D01*
X414977Y278732D01*
X414981Y278693D01*
X415000Y278630D01*
Y272000D01*
X427000Y260000D01*
X433630D01*
X433693Y259981D01*
X433732Y259977D01*
X433769Y259962D01*
X436175Y259483D01*
X436215D01*
X436253Y259472D01*
X438695Y259231D01*
X438724Y259234D01*
X438754Y259228D01*
X439980Y259197D01*
X439990Y259199D01*
X440000Y259197D01*
X572325D01*
X572677Y258842D01*
X572199Y205313D01*
X572000D01*
X368000Y205313D01*
X367498Y205213D01*
X367072Y204928D01*
X366787Y204502D01*
X366687Y204000D01*
X366756Y203654D01*
X366295Y203408D01*
X339704Y229999D01*
Y243035D01*
X340100Y243431D01*
X340387Y244125D01*
Y244875D01*
X340100Y245569D01*
X339569Y246100D01*
X338875Y246387D01*
X338125D01*
X337431Y246100D01*
X336900Y245569D01*
X336613Y244875D01*
Y244125D01*
X336900Y243431D01*
X337296Y243035D01*
Y230214D01*
X336834Y230023D01*
X307318Y259538D01*
X306000Y260856D01*
D01*
X263428Y303428D01*
X263002Y303713D01*
X262500Y303813D01*
X249044D01*
X243428Y309428D01*
X243002Y309713D01*
X242500Y309813D01*
X241998Y309713D01*
X241572Y309428D01*
X241287Y309002D01*
X241187Y308500D01*
X241287Y307998D01*
X241572Y307572D01*
X247572Y301572D01*
X247998Y301287D01*
X248500Y301187D01*
X261956D01*
X303144Y260000D01*
X366072Y197072D01*
X366498Y196787D01*
X367000Y196687D01*
X594000D01*
X594502Y196787D01*
X594928Y197072D01*
X595213Y197498D01*
X595313Y198000D01*
X595213Y198502D01*
X594928Y198928D01*
X594502Y199213D01*
X594085Y199296D01*
X594134Y199796D01*
X628911D01*
X644885Y183821D01*
Y92448D01*
X644818Y92110D01*
X644818Y92110D01*
Y84381D01*
X641628D01*
Y78306D01*
X643861D01*
Y73809D01*
X643466Y73413D01*
X643178Y72719D01*
Y71968D01*
X643466Y71275D01*
X643997Y70744D01*
X644690Y70456D01*
X645266D01*
X645490Y70404D01*
X645808Y70067D01*
X645853Y69841D01*
X646138Y69415D01*
X646563Y69131D01*
X647066Y69031D01*
X647566D01*
X648068Y69131D01*
X648494Y69415D01*
X648697Y69720D01*
X649197Y69579D01*
Y25000D01*
Y23811D01*
X648964Y21445D01*
X648500Y19114D01*
X647810Y16838D01*
X646900Y14642D01*
X645780Y12545D01*
X644459Y10568D01*
X642950Y8731D01*
X641269Y7049D01*
X639432Y5541D01*
X637455Y4220D01*
X635358Y3100D01*
X633162Y2190D01*
X630887Y1500D01*
X628555Y1036D01*
X626189Y803D01*
X23811D01*
X21445Y1036D01*
X19114Y1500D01*
X16838Y2190D01*
X14642Y3100D01*
X12545Y4220D01*
X10568Y5541D01*
X8731Y7050D01*
X7049Y8731D01*
X5541Y10568D01*
X4220Y12545D01*
X3100Y14642D01*
X2190Y16838D01*
X1500Y19114D01*
X1036Y21445D01*
X803Y23811D01*
Y25000D01*
Y229197D01*
X105000D01*
X105010Y229199D01*
X105020Y229198D01*
X106246Y229228D01*
X106276Y229234D01*
X106305Y229231D01*
X108747Y229472D01*
X108785Y229483D01*
X108825D01*
X111231Y229962D01*
X111268Y229977D01*
X111308Y229981D01*
X113655Y230693D01*
X113690Y230712D01*
X113729Y230720D01*
X115996Y231659D01*
X116029Y231681D01*
X116067Y231692D01*
X118231Y232849D01*
X118262Y232874D01*
X118299Y232889D01*
X120338Y234252D01*
X120367Y234280D01*
X120402Y234299D01*
X122298Y235856D01*
X122324Y235886D01*
X122357Y235909D01*
X124091Y237643D01*
X124114Y237677D01*
X124144Y237702D01*
X125701Y239598D01*
X125719Y239633D01*
X125748Y239662D01*
X127111Y241701D01*
X127126Y241738D01*
X127151Y241769D01*
X128308Y243933D01*
X128319Y243971D01*
X128341Y244004D01*
X129280Y246270D01*
X129288Y246310D01*
X129307Y246345D01*
X130019Y248692D01*
X130023Y248732D01*
X130038Y248769D01*
X130517Y251175D01*
Y251215D01*
X130528Y251253D01*
X130769Y253695D01*
X130766Y253724D01*
X130772Y253754D01*
X130803Y254980D01*
X130801Y254990D01*
X130803Y255000D01*
Y257500D01*
Y365000D01*
X130801Y365010D01*
X130803Y365020D01*
X130772Y366246D01*
X130766Y366276D01*
X130769Y366305D01*
X130528Y368747D01*
X130517Y368785D01*
Y368825D01*
X130038Y371231D01*
X130023Y371268D01*
X130019Y371307D01*
X130000Y371370D01*
Y449197D01*
X391189D01*
X393555Y448964D01*
D02*
G37*
%LPC*%
G36*
X385000Y441333D02*
X382215Y441151D01*
X379479Y440606D01*
X376836Y439709D01*
X374334Y438475D01*
X372013Y436925D01*
X369915Y435085D01*
X368075Y432987D01*
X366525Y430666D01*
X365291Y428164D01*
X364394Y425521D01*
X363849Y422785D01*
X363667Y420000D01*
X363849Y417215D01*
X364394Y414479D01*
X365291Y411836D01*
X366525Y409334D01*
X368075Y407013D01*
X369915Y404915D01*
X372013Y403075D01*
X374334Y401525D01*
X376836Y400291D01*
X379479Y399394D01*
X382215Y398849D01*
X385000Y398667D01*
X387785Y398849D01*
X390521Y399394D01*
X393164Y400291D01*
X395667Y401525D01*
X397987Y403075D01*
X400085Y404915D01*
X401925Y407013D01*
X403475Y409334D01*
X404709Y411836D01*
X405606Y414479D01*
X406151Y417215D01*
X406333Y420000D01*
X406151Y422785D01*
X405606Y425521D01*
X404709Y428164D01*
X403475Y430666D01*
X401925Y432987D01*
X400085Y435085D01*
X397987Y436925D01*
X395667Y438475D01*
X393164Y439709D01*
X390521Y440606D01*
X387785Y441151D01*
X385000Y441333D01*
D02*
G37*
G36*
X160000D02*
X157215Y441151D01*
X154479Y440606D01*
X151836Y439709D01*
X149334Y438475D01*
X147013Y436925D01*
X144915Y435085D01*
X143075Y432987D01*
X141525Y430666D01*
X140291Y428164D01*
X139394Y425521D01*
X138849Y422785D01*
X138667Y420000D01*
X138849Y417215D01*
X139394Y414479D01*
X140291Y411836D01*
X141525Y409334D01*
X143075Y407013D01*
X144915Y404915D01*
X147013Y403075D01*
X149334Y401525D01*
X151836Y400291D01*
X154479Y399394D01*
X157215Y398849D01*
X160000Y398667D01*
X162785Y398849D01*
X165521Y399394D01*
X168164Y400291D01*
X170667Y401525D01*
X172987Y403075D01*
X175085Y404915D01*
X176925Y407013D01*
X178475Y409334D01*
X179709Y411836D01*
X180606Y414479D01*
X181151Y417215D01*
X181333Y420000D01*
X181151Y422785D01*
X180606Y425521D01*
X179709Y428164D01*
X178475Y430666D01*
X176925Y432987D01*
X175085Y435085D01*
X172987Y436925D01*
X170667Y438475D01*
X168164Y439709D01*
X165521Y440606D01*
X162785Y441151D01*
X160000Y441333D01*
D02*
G37*
G36*
X403159Y389547D02*
X401763D01*
X400393Y389275D01*
X399104Y388741D01*
X397943Y387965D01*
X396956Y386978D01*
X396181Y385817D01*
X395646Y384528D01*
X395374Y383159D01*
Y381763D01*
X395646Y380394D01*
X396181Y379104D01*
X396956Y377943D01*
X397943Y376956D01*
X399104Y376181D01*
X400393Y375646D01*
X401763Y375374D01*
X403159D01*
X404528Y375646D01*
X405817Y376181D01*
X406978Y376956D01*
X407965Y377943D01*
X408741Y379104D01*
X409275Y380394D01*
X409547Y381763D01*
Y383159D01*
X409275Y384528D01*
X408741Y385817D01*
X407965Y386978D01*
X406978Y387965D01*
X405817Y388741D01*
X404528Y389275D01*
X403159Y389547D01*
D02*
G37*
G36*
X385698D02*
X384302D01*
X382933Y389275D01*
X381643Y388741D01*
X380483Y387965D01*
X379496Y386978D01*
X378720Y385817D01*
X378186Y384528D01*
X377913Y383159D01*
Y381763D01*
X378186Y380394D01*
X378720Y379104D01*
X379496Y377943D01*
X380483Y376956D01*
X381643Y376181D01*
X382933Y375646D01*
X384302Y375374D01*
X385698D01*
X387067Y375646D01*
X388357Y376181D01*
X389517Y376956D01*
X390505Y377943D01*
X391280Y379104D01*
X391814Y380394D01*
X392087Y381763D01*
Y383159D01*
X391814Y384528D01*
X391280Y385817D01*
X390505Y386978D01*
X389517Y387965D01*
X388357Y388741D01*
X387067Y389275D01*
X385698Y389547D01*
D02*
G37*
G36*
X368237D02*
X366841D01*
X365472Y389275D01*
X364183Y388741D01*
X363022Y387965D01*
X362035Y386978D01*
X361259Y385817D01*
X360725Y384528D01*
X360453Y383159D01*
Y381763D01*
X360725Y380394D01*
X361259Y379104D01*
X362035Y377943D01*
X363022Y376956D01*
X364183Y376181D01*
X365472Y375646D01*
X366841Y375374D01*
X368237D01*
X369606Y375646D01*
X370896Y376181D01*
X372057Y376956D01*
X373044Y377943D01*
X373819Y379104D01*
X374354Y380394D01*
X374626Y381763D01*
Y383159D01*
X374354Y384528D01*
X373819Y385817D01*
X373044Y386978D01*
X372057Y387965D01*
X370896Y388741D01*
X369606Y389275D01*
X368237Y389547D01*
D02*
G37*
G36*
X403159Y372087D02*
X401763D01*
X400393Y371814D01*
X399104Y371280D01*
X397943Y370504D01*
X396956Y369517D01*
X396181Y368357D01*
X395646Y367067D01*
X395374Y365698D01*
Y364302D01*
X395646Y362933D01*
X396181Y361643D01*
X396956Y360483D01*
X397943Y359495D01*
X399104Y358720D01*
X400393Y358186D01*
X401763Y357913D01*
X403159D01*
X404528Y358186D01*
X405817Y358720D01*
X406978Y359495D01*
X407965Y360483D01*
X408741Y361643D01*
X409275Y362933D01*
X409547Y364302D01*
Y365698D01*
X409275Y367067D01*
X408741Y368357D01*
X407965Y369517D01*
X406978Y370504D01*
X405817Y371280D01*
X404528Y371814D01*
X403159Y372087D01*
D02*
G37*
G36*
X368237D02*
X366841D01*
X365472Y371814D01*
X364183Y371280D01*
X363022Y370504D01*
X362035Y369517D01*
X361259Y368357D01*
X360725Y367067D01*
X360453Y365698D01*
Y364302D01*
X360725Y362933D01*
X361259Y361643D01*
X362035Y360483D01*
X363022Y359495D01*
X364183Y358720D01*
X365472Y358186D01*
X366841Y357913D01*
X368237D01*
X369606Y358186D01*
X370896Y358720D01*
X372057Y359495D01*
X373044Y360483D01*
X373819Y361643D01*
X374354Y362933D01*
X374626Y364302D01*
Y365698D01*
X374354Y367067D01*
X373819Y368357D01*
X373044Y369517D01*
X372057Y370504D01*
X370896Y371280D01*
X369606Y371814D01*
X368237Y372087D01*
D02*
G37*
G36*
X385893Y374071D02*
X384107D01*
X382354Y373722D01*
X380703Y373039D01*
X379218Y372046D01*
X377954Y370782D01*
X376961Y369297D01*
X376278Y367646D01*
X375929Y365893D01*
Y364107D01*
X376278Y362354D01*
X376961Y360703D01*
X377954Y359218D01*
X379218Y357954D01*
X380703Y356961D01*
X382354Y356278D01*
X384107Y355929D01*
X385893D01*
X387646Y356278D01*
X389297Y356961D01*
X390782Y357954D01*
X392046Y359218D01*
X393039Y360703D01*
X393722Y362354D01*
X394071Y364107D01*
Y365893D01*
X393722Y367646D01*
X393039Y369297D01*
X392046Y370782D01*
X390782Y372046D01*
X389297Y373039D01*
X387646Y373722D01*
X385893Y374071D01*
D02*
G37*
G36*
X281524Y368140D02*
X271681D01*
X270191Y367944D01*
X268802Y367368D01*
X267610Y366453D01*
X266695Y365261D01*
X266119Y363872D01*
X265923Y362382D01*
Y347618D01*
X266119Y346128D01*
X266695Y344739D01*
X267610Y343547D01*
X268802Y342632D01*
X270191Y342056D01*
X271681Y341860D01*
X281524D01*
X283014Y342056D01*
X284403Y342632D01*
X285595Y343547D01*
X286510Y344739D01*
X287085Y346128D01*
X287281Y347618D01*
Y362382D01*
X287085Y363872D01*
X286510Y365261D01*
X285595Y366453D01*
X284403Y367368D01*
X283014Y367944D01*
X281524Y368140D01*
D02*
G37*
G36*
X403159Y354626D02*
X401763D01*
X400393Y354354D01*
X399104Y353819D01*
X397943Y353044D01*
X396956Y352057D01*
X396181Y350896D01*
X395646Y349606D01*
X395374Y348237D01*
Y346841D01*
X395646Y345472D01*
X396181Y344183D01*
X396956Y343022D01*
X397943Y342035D01*
X399104Y341259D01*
X400393Y340725D01*
X401763Y340453D01*
X403159D01*
X404528Y340725D01*
X405817Y341259D01*
X406978Y342035D01*
X407965Y343022D01*
X408741Y344183D01*
X409275Y345472D01*
X409547Y346841D01*
Y348237D01*
X409275Y349606D01*
X408741Y350896D01*
X407965Y352057D01*
X406978Y353044D01*
X405817Y353819D01*
X404528Y354354D01*
X403159Y354626D01*
D02*
G37*
G36*
X385698D02*
X384302D01*
X382933Y354354D01*
X381643Y353819D01*
X380483Y353044D01*
X379496Y352057D01*
X378720Y350896D01*
X378186Y349606D01*
X377913Y348237D01*
Y346841D01*
X378186Y345472D01*
X378720Y344183D01*
X379496Y343022D01*
X380483Y342035D01*
X381643Y341259D01*
X382933Y340725D01*
X384302Y340453D01*
X385698D01*
X387067Y340725D01*
X388357Y341259D01*
X389517Y342035D01*
X390505Y343022D01*
X391280Y344183D01*
X391814Y345472D01*
X392087Y346841D01*
Y348237D01*
X391814Y349606D01*
X391280Y350896D01*
X390505Y352057D01*
X389517Y353044D01*
X388357Y353819D01*
X387067Y354354D01*
X385698Y354626D01*
D02*
G37*
G36*
X368237D02*
X366841D01*
X365472Y354354D01*
X364183Y353819D01*
X363022Y353044D01*
X362035Y352057D01*
X361259Y350896D01*
X360725Y349606D01*
X360453Y348237D01*
Y346841D01*
X360725Y345472D01*
X361259Y344183D01*
X362035Y343022D01*
X363022Y342035D01*
X364183Y341259D01*
X365472Y340725D01*
X366841Y340453D01*
X368237D01*
X369606Y340725D01*
X370896Y341259D01*
X372057Y342035D01*
X373044Y343022D01*
X373819Y344183D01*
X374354Y345472D01*
X374626Y346841D01*
Y348237D01*
X374354Y349606D01*
X373819Y350896D01*
X373044Y352057D01*
X372057Y353044D01*
X370896Y353819D01*
X369606Y354354D01*
X368237Y354626D01*
D02*
G37*
G36*
X281524Y337037D02*
X271681D01*
X270191Y336841D01*
X268802Y336266D01*
X267610Y335351D01*
X266695Y334158D01*
X266119Y332770D01*
X265923Y331279D01*
Y316516D01*
X266119Y315025D01*
X266695Y313637D01*
X267610Y312444D01*
X268802Y311529D01*
X270191Y310954D01*
X271681Y310758D01*
X281524D01*
X283014Y310954D01*
X284403Y311529D01*
X285595Y312444D01*
X286510Y313637D01*
X287085Y315025D01*
X287281Y316516D01*
Y331279D01*
X287085Y332770D01*
X286510Y334158D01*
X285595Y335351D01*
X284403Y336266D01*
X283014Y336841D01*
X281524Y337037D01*
D02*
G37*
G36*
X403159Y324547D02*
X401763D01*
X400393Y324275D01*
X399104Y323741D01*
X397943Y322965D01*
X396956Y321978D01*
X396181Y320817D01*
X395646Y319528D01*
X395374Y318159D01*
Y316763D01*
X395646Y315393D01*
X396181Y314104D01*
X396956Y312943D01*
X397943Y311956D01*
X399104Y311181D01*
X400393Y310646D01*
X401763Y310374D01*
X403159D01*
X404528Y310646D01*
X405817Y311181D01*
X406978Y311956D01*
X407965Y312943D01*
X408741Y314104D01*
X409275Y315393D01*
X409547Y316763D01*
Y318159D01*
X409275Y319528D01*
X408741Y320817D01*
X407965Y321978D01*
X406978Y322965D01*
X405817Y323741D01*
X404528Y324275D01*
X403159Y324547D01*
D02*
G37*
G36*
X385698D02*
X384302D01*
X382933Y324275D01*
X381643Y323741D01*
X380483Y322965D01*
X379496Y321978D01*
X378720Y320817D01*
X378186Y319528D01*
X377913Y318159D01*
Y316763D01*
X378186Y315393D01*
X378720Y314104D01*
X379496Y312943D01*
X380483Y311956D01*
X381643Y311181D01*
X382933Y310646D01*
X384302Y310374D01*
X385698D01*
X387067Y310646D01*
X388357Y311181D01*
X389517Y311956D01*
X390505Y312943D01*
X391280Y314104D01*
X391814Y315393D01*
X392087Y316763D01*
Y318159D01*
X391814Y319528D01*
X391280Y320817D01*
X390505Y321978D01*
X389517Y322965D01*
X388357Y323741D01*
X387067Y324275D01*
X385698Y324547D01*
D02*
G37*
G36*
X368237D02*
X366841D01*
X365472Y324275D01*
X364183Y323741D01*
X363022Y322965D01*
X362035Y321978D01*
X361259Y320817D01*
X360725Y319528D01*
X360453Y318159D01*
Y316763D01*
X360725Y315393D01*
X361259Y314104D01*
X362035Y312943D01*
X363022Y311956D01*
X364183Y311181D01*
X365472Y310646D01*
X366841Y310374D01*
X368237D01*
X369606Y310646D01*
X370896Y311181D01*
X372057Y311956D01*
X373044Y312943D01*
X373819Y314104D01*
X374354Y315393D01*
X374626Y316763D01*
Y318159D01*
X374354Y319528D01*
X373819Y320817D01*
X373044Y321978D01*
X372057Y322965D01*
X370896Y323741D01*
X369606Y324275D01*
X368237Y324547D01*
D02*
G37*
G36*
X403159Y307087D02*
X401763D01*
X400393Y306814D01*
X399104Y306280D01*
X397943Y305504D01*
X396956Y304518D01*
X396181Y303357D01*
X395646Y302067D01*
X395374Y300698D01*
Y299302D01*
X395646Y297933D01*
X396181Y296643D01*
X396956Y295482D01*
X397943Y294496D01*
X399104Y293720D01*
X400393Y293186D01*
X401763Y292913D01*
X403159D01*
X404528Y293186D01*
X405817Y293720D01*
X406978Y294496D01*
X407965Y295482D01*
X408741Y296643D01*
X409275Y297933D01*
X409547Y299302D01*
Y300698D01*
X409275Y302067D01*
X408741Y303357D01*
X407965Y304518D01*
X406978Y305504D01*
X405817Y306280D01*
X404528Y306814D01*
X403159Y307087D01*
D02*
G37*
G36*
X368237D02*
X366841D01*
X365472Y306814D01*
X364183Y306280D01*
X363022Y305504D01*
X362035Y304518D01*
X361259Y303357D01*
X360725Y302067D01*
X360453Y300698D01*
Y299302D01*
X360725Y297933D01*
X361259Y296643D01*
X362035Y295482D01*
X363022Y294496D01*
X364183Y293720D01*
X365472Y293186D01*
X366841Y292913D01*
X368237D01*
X369606Y293186D01*
X370896Y293720D01*
X372057Y294496D01*
X373044Y295482D01*
X373819Y296643D01*
X374354Y297933D01*
X374626Y299302D01*
Y300698D01*
X374354Y302067D01*
X373819Y303357D01*
X373044Y304518D01*
X372057Y305504D01*
X370896Y306280D01*
X369606Y306814D01*
X368237Y307087D01*
D02*
G37*
G36*
X385893Y309071D02*
X384107D01*
X382354Y308722D01*
X380703Y308038D01*
X379218Y307046D01*
X377954Y305782D01*
X376961Y304297D01*
X376278Y302646D01*
X375929Y300893D01*
Y299107D01*
X376278Y297354D01*
X376961Y295703D01*
X377954Y294218D01*
X379218Y292954D01*
X380703Y291962D01*
X382354Y291278D01*
X384107Y290929D01*
X385893D01*
X387646Y291278D01*
X389297Y291962D01*
X390782Y292954D01*
X392046Y294218D01*
X393039Y295703D01*
X393722Y297354D01*
X394071Y299107D01*
Y300893D01*
X393722Y302646D01*
X393039Y304297D01*
X392046Y305782D01*
X390782Y307046D01*
X389297Y308038D01*
X387646Y308722D01*
X385893Y309071D01*
D02*
G37*
G36*
X403159Y289626D02*
X401763D01*
X400393Y289354D01*
X399104Y288819D01*
X397943Y288044D01*
X396956Y287057D01*
X396181Y285896D01*
X395646Y284607D01*
X395374Y283237D01*
Y281841D01*
X395646Y280472D01*
X396181Y279183D01*
X396956Y278022D01*
X397943Y277035D01*
X399104Y276259D01*
X400393Y275725D01*
X401763Y275453D01*
X403159D01*
X404528Y275725D01*
X405817Y276259D01*
X406978Y277035D01*
X407965Y278022D01*
X408741Y279183D01*
X409275Y280472D01*
X409547Y281841D01*
Y283237D01*
X409275Y284607D01*
X408741Y285896D01*
X407965Y287057D01*
X406978Y288044D01*
X405817Y288819D01*
X404528Y289354D01*
X403159Y289626D01*
D02*
G37*
G36*
X385698D02*
X384302D01*
X382933Y289354D01*
X381643Y288819D01*
X380483Y288044D01*
X379496Y287057D01*
X378720Y285896D01*
X378186Y284607D01*
X377913Y283237D01*
Y281841D01*
X378186Y280472D01*
X378720Y279183D01*
X379496Y278022D01*
X380483Y277035D01*
X381643Y276259D01*
X382933Y275725D01*
X384302Y275453D01*
X385698D01*
X387067Y275725D01*
X388357Y276259D01*
X389517Y277035D01*
X390505Y278022D01*
X391280Y279183D01*
X391814Y280472D01*
X392087Y281841D01*
Y283237D01*
X391814Y284607D01*
X391280Y285896D01*
X390505Y287057D01*
X389517Y288044D01*
X388357Y288819D01*
X387067Y289354D01*
X385698Y289626D01*
D02*
G37*
G36*
X368237D02*
X366841D01*
X365472Y289354D01*
X364183Y288819D01*
X363022Y288044D01*
X362035Y287057D01*
X361259Y285896D01*
X360725Y284607D01*
X360453Y283237D01*
Y281841D01*
X360725Y280472D01*
X361259Y279183D01*
X362035Y278022D01*
X363022Y277035D01*
X364183Y276259D01*
X365472Y275725D01*
X366841Y275453D01*
X368237D01*
X369606Y275725D01*
X370896Y276259D01*
X372057Y277035D01*
X373044Y278022D01*
X373819Y279183D01*
X374354Y280472D01*
X374626Y281841D01*
Y283237D01*
X374354Y284607D01*
X373819Y285896D01*
X373044Y287057D01*
X372057Y288044D01*
X370896Y288819D01*
X369606Y289354D01*
X368237Y289626D01*
D02*
G37*
G36*
X309246Y240049D02*
X298990D01*
Y229793D01*
X309246D01*
Y240049D01*
D02*
G37*
G36*
X214246D02*
X203990D01*
Y229793D01*
X214246D01*
Y240049D01*
D02*
G37*
G36*
X540893Y241571D02*
X539107D01*
X537354Y241222D01*
X535703Y240539D01*
X534218Y239546D01*
X532954Y238282D01*
X531961Y236797D01*
X531278Y235146D01*
X530929Y233393D01*
Y231607D01*
X531278Y229854D01*
X531961Y228203D01*
X532954Y226718D01*
X534218Y225454D01*
X535703Y224462D01*
X537354Y223778D01*
X539107Y223429D01*
X540893D01*
X542646Y223778D01*
X544297Y224462D01*
X545782Y225454D01*
X547046Y226718D01*
X548038Y228203D01*
X548722Y229854D01*
X549071Y231607D01*
Y233393D01*
X548722Y235146D01*
X548038Y236797D01*
X547046Y238282D01*
X545782Y239546D01*
X544297Y240539D01*
X542646Y241222D01*
X540893Y241571D01*
D02*
G37*
G36*
X475893D02*
X474107D01*
X472354Y241222D01*
X470703Y240539D01*
X469218Y239546D01*
X467954Y238282D01*
X466961Y236797D01*
X466278Y235146D01*
X465929Y233393D01*
Y231607D01*
X466278Y229854D01*
X466961Y228203D01*
X467954Y226718D01*
X469218Y225454D01*
X470703Y224462D01*
X472354Y223778D01*
X474107Y223429D01*
X475893D01*
X477646Y223778D01*
X479297Y224462D01*
X480782Y225454D01*
X482046Y226718D01*
X483039Y228203D01*
X483722Y229854D01*
X484071Y231607D01*
Y233393D01*
X483722Y235146D01*
X483039Y236797D01*
X482046Y238282D01*
X480782Y239546D01*
X479297Y240539D01*
X477646Y241222D01*
X475893Y241571D01*
D02*
G37*
G36*
X77853Y223228D02*
X76534D01*
X75241Y222971D01*
X74023Y222467D01*
X72927Y221734D01*
X71995Y220802D01*
X71263Y219706D01*
X70758Y218488D01*
X70501Y217195D01*
Y215876D01*
X70758Y214583D01*
X71263Y213365D01*
X71995Y212269D01*
X72927Y211337D01*
X74023Y210604D01*
X75241Y210100D01*
X76534Y209842D01*
X77853D01*
X79146Y210100D01*
X80364Y210604D01*
X81460Y211337D01*
X82392Y212269D01*
X83125Y213365D01*
X83629Y214583D01*
X83887Y215876D01*
Y217195D01*
X83629Y218488D01*
X83125Y219706D01*
X82392Y220802D01*
X81460Y221734D01*
X80364Y222467D01*
X79146Y222971D01*
X77853Y223228D01*
D02*
G37*
G36*
X27480Y215173D02*
X26120D01*
X24786Y214908D01*
X23529Y214387D01*
X22398Y213632D01*
X21436Y212670D01*
X20680Y211539D01*
X20160Y210282D01*
X19895Y208948D01*
Y207588D01*
X20160Y206254D01*
X20680Y204997D01*
X21436Y203866D01*
X22398Y202904D01*
X23529Y202148D01*
X24786Y201628D01*
X26120Y201362D01*
X27480D01*
X28814Y201628D01*
X30071Y202148D01*
X31202Y202904D01*
X32164Y203866D01*
X32920Y204997D01*
X33440Y206254D01*
X33705Y207588D01*
Y208948D01*
X33440Y210282D01*
X32920Y211539D01*
X32164Y212670D01*
X31202Y213632D01*
X30071Y214387D01*
X28814Y214908D01*
X27480Y215173D01*
D02*
G37*
G36*
X77853Y206693D02*
X76534D01*
X75241Y206436D01*
X74023Y205931D01*
X72927Y205199D01*
X71995Y204267D01*
X71263Y203170D01*
X70758Y201952D01*
X70501Y200659D01*
Y199341D01*
X70758Y198048D01*
X71263Y196830D01*
X71995Y195733D01*
X72927Y194801D01*
X74023Y194069D01*
X75241Y193564D01*
X76534Y193307D01*
X77853D01*
X79146Y193564D01*
X80364Y194069D01*
X81460Y194801D01*
X82392Y195733D01*
X83125Y196830D01*
X83629Y198048D01*
X83887Y199341D01*
Y200659D01*
X83629Y201952D01*
X83125Y203170D01*
X82392Y204267D01*
X81460Y205199D01*
X80364Y205931D01*
X79146Y206436D01*
X77853Y206693D01*
D02*
G37*
G36*
X630660Y185367D02*
X627471D01*
X626542Y185182D01*
X625754Y184655D01*
X625228Y183868D01*
X625043Y182938D01*
Y179749D01*
X625228Y178820D01*
X625754Y178032D01*
X626542Y177506D01*
X627471Y177321D01*
X630660D01*
X631590Y177506D01*
X632377Y178032D01*
X632904Y178820D01*
X633089Y179749D01*
Y182938D01*
X632904Y183868D01*
X632377Y184655D01*
X631590Y185182D01*
X630660Y185367D01*
D02*
G37*
G36*
X48311Y174823D02*
X47232Y174681D01*
X46226Y174265D01*
X45363Y173602D01*
X44700Y172738D01*
X44284Y171733D01*
X44142Y170653D01*
Y170346D01*
X44284Y169267D01*
X44700Y168262D01*
X45363Y167398D01*
X46226Y166735D01*
X47232Y166319D01*
X48311Y166177D01*
X49390Y166319D01*
X50396Y166735D01*
X51259Y167398D01*
X51922Y168262D01*
X52338Y169267D01*
X52481Y170346D01*
Y170653D01*
X52338Y171733D01*
X51922Y172738D01*
X51259Y173602D01*
X50396Y174265D01*
X49390Y174681D01*
X48311Y174823D01*
D02*
G37*
G36*
Y163012D02*
X47232Y162870D01*
X46226Y162453D01*
X45363Y161791D01*
X44700Y160927D01*
X44284Y159922D01*
X44142Y158843D01*
Y158535D01*
X44284Y157456D01*
X44700Y156451D01*
X45363Y155587D01*
X46226Y154924D01*
X47232Y154508D01*
X48311Y154366D01*
X49390Y154508D01*
X50396Y154924D01*
X51259Y155587D01*
X51922Y156451D01*
X52338Y157456D01*
X52481Y158535D01*
Y158843D01*
X52338Y159922D01*
X51922Y160927D01*
X51259Y161791D01*
X50396Y162453D01*
X49390Y162870D01*
X48311Y163012D01*
D02*
G37*
G36*
X20260Y165689D02*
X18881D01*
X17529Y165420D01*
X16255Y164892D01*
X15108Y164126D01*
X14133Y163151D01*
X13367Y162005D01*
X12840Y160731D01*
X12571Y159378D01*
Y158000D01*
X12840Y156647D01*
X13367Y155373D01*
X14133Y154227D01*
X15108Y153252D01*
X16255Y152486D01*
X17529Y151958D01*
X18881Y151689D01*
X20260D01*
X21612Y151958D01*
X22886Y152486D01*
X24033Y153252D01*
X25008Y154227D01*
X25774Y155373D01*
X26302Y156647D01*
X26570Y158000D01*
Y159378D01*
X26302Y160731D01*
X25774Y162005D01*
X25008Y163151D01*
X24033Y164126D01*
X22886Y164892D01*
X21612Y165420D01*
X20260Y165689D01*
D02*
G37*
G36*
X630660Y154867D02*
X627471D01*
X626542Y154682D01*
X626515Y154664D01*
X604566D01*
X603577Y154534D01*
X602656Y154152D01*
X601864Y153545D01*
X601365Y153045D01*
X600757Y152254D01*
X600376Y151332D01*
X600246Y150344D01*
X600376Y149355D01*
X600757Y148434D01*
X601365Y147643D01*
X602156Y147035D01*
X603077Y146654D01*
X604066Y146524D01*
X605054Y146654D01*
X605947Y147024D01*
X626515D01*
X626542Y147005D01*
X627471Y146821D01*
X630660D01*
X631590Y147005D01*
X632377Y147532D01*
X632904Y148320D01*
X633089Y149249D01*
Y152438D01*
X632904Y153367D01*
X632377Y154155D01*
X631590Y154682D01*
X630660Y154867D01*
D02*
G37*
G36*
X48311Y151201D02*
X47232Y151059D01*
X46226Y150643D01*
X45363Y149980D01*
X44700Y149116D01*
X44284Y148111D01*
X44142Y147031D01*
Y146724D01*
X44284Y145645D01*
X44700Y144640D01*
X45363Y143776D01*
X46226Y143114D01*
X47232Y142697D01*
X48311Y142555D01*
X49390Y142697D01*
X50396Y143114D01*
X51259Y143776D01*
X51922Y144640D01*
X52338Y145645D01*
X52481Y146724D01*
Y147031D01*
X52338Y148111D01*
X51922Y149116D01*
X51259Y149980D01*
X50396Y150643D01*
X49390Y151059D01*
X48311Y151201D01*
D02*
G37*
G36*
X234925Y177137D02*
X234075D01*
X233289Y176812D01*
X232688Y176211D01*
X232363Y175425D01*
Y174575D01*
X232688Y173789D01*
X232923Y173555D01*
Y137070D01*
X232863Y136925D01*
Y136075D01*
X233188Y135289D01*
X233789Y134688D01*
X234575Y134363D01*
X235425D01*
X236211Y134688D01*
X236812Y135289D01*
X237137Y136075D01*
Y136925D01*
X237077Y137070D01*
Y174446D01*
X237077Y174446D01*
X236919Y175241D01*
X236469Y175915D01*
X236469Y175915D01*
X236410Y175973D01*
X236312Y176211D01*
X235711Y176812D01*
X234925Y177137D01*
D02*
G37*
G36*
X162313Y134181D02*
X161079D01*
Y132750D01*
X162313D01*
Y134181D01*
D02*
G37*
G36*
X258380Y134476D02*
X257047D01*
Y132750D01*
X258380D01*
Y134476D01*
D02*
G37*
G36*
X162313Y131250D02*
X161079D01*
Y129819D01*
X162313D01*
Y131250D01*
D02*
G37*
G36*
X258380D02*
X257047D01*
Y129524D01*
X258380D01*
Y131250D01*
D02*
G37*
G36*
X612136Y131478D02*
X611057Y131336D01*
X610051Y130919D01*
X609188Y130256D01*
X608525Y129393D01*
X608109Y128387D01*
X607967Y127308D01*
Y127001D01*
X608109Y125922D01*
X608525Y124916D01*
X609188Y124053D01*
X610051Y123390D01*
X611057Y122974D01*
X612136Y122832D01*
X613215Y122974D01*
X614221Y123390D01*
X615085Y124053D01*
X615747Y124916D01*
X616164Y125922D01*
X616306Y127001D01*
Y127308D01*
X616164Y128387D01*
X615747Y129393D01*
X615085Y130256D01*
X614221Y130919D01*
X613215Y131336D01*
X612136Y131478D01*
D02*
G37*
G36*
X600325D02*
X599246Y131336D01*
X598241Y130919D01*
X597377Y130256D01*
X596714Y129393D01*
X596298Y128387D01*
X596156Y127308D01*
Y127001D01*
X596298Y125922D01*
X596714Y124916D01*
X597377Y124053D01*
X598241Y123390D01*
X599246Y122974D01*
X600325Y122832D01*
X601404Y122974D01*
X602410Y123390D01*
X603273Y124053D01*
X603936Y124916D01*
X604353Y125922D01*
X604495Y127001D01*
Y127308D01*
X604353Y128387D01*
X603936Y129393D01*
X603273Y130256D01*
X602410Y130919D01*
X601404Y131336D01*
X600325Y131478D01*
D02*
G37*
G36*
X289833Y130207D02*
X288482D01*
X287178Y129857D01*
X286009Y129182D01*
X285054Y128227D01*
X284379Y127058D01*
X284030Y125754D01*
Y124404D01*
X284379Y123099D01*
X285054Y121930D01*
X286009Y120975D01*
X287178Y120300D01*
X288482Y119951D01*
X289833D01*
X291137Y120300D01*
X292306Y120975D01*
X293261Y121930D01*
X293936Y123099D01*
X294285Y124404D01*
Y125754D01*
X293936Y127058D01*
X293261Y128227D01*
X292306Y129182D01*
X291137Y129857D01*
X289833Y130207D01*
D02*
G37*
G36*
X261213Y134476D02*
X259880D01*
Y132000D01*
Y129524D01*
X261213D01*
Y129736D01*
X264740D01*
Y130796D01*
X266777D01*
X269820Y127753D01*
X269418Y127058D01*
X269069Y125754D01*
Y124404D01*
X269418Y123099D01*
X270093Y121930D01*
X271048Y120975D01*
X272217Y120300D01*
X273522Y119951D01*
X274872D01*
X276176Y120300D01*
X277345Y120975D01*
X278300Y121930D01*
X278975Y123099D01*
X279325Y124404D01*
Y125754D01*
X278975Y127058D01*
X278300Y128227D01*
X277345Y129182D01*
X276176Y129857D01*
X274872Y130207D01*
X273522D01*
X272217Y129857D01*
X271523Y129456D01*
X268127Y132852D01*
X267736Y133113D01*
X267276Y133204D01*
X267276Y133204D01*
X264740D01*
Y134264D01*
X261213D01*
Y134476D01*
D02*
G37*
G36*
X194833Y130207D02*
X193482D01*
X192178Y129857D01*
X191009Y129182D01*
X190054Y128227D01*
X189379Y127058D01*
X189030Y125754D01*
Y124404D01*
X189379Y123099D01*
X190054Y121930D01*
X191009Y120975D01*
X192178Y120300D01*
X193482Y119951D01*
X194833D01*
X196137Y120300D01*
X197306Y120975D01*
X198261Y121930D01*
X198936Y123099D01*
X199285Y124404D01*
Y125754D01*
X198936Y127058D01*
X198261Y128227D01*
X197306Y129182D01*
X196137Y129857D01*
X194833Y130207D01*
D02*
G37*
G36*
X165047Y134181D02*
X164816Y134181D01*
X163813D01*
Y132000D01*
Y129819D01*
X165047D01*
X165459Y130032D01*
X168772Y130032D01*
Y130796D01*
X171777D01*
X174820Y127753D01*
X174418Y127058D01*
X174069Y125754D01*
Y124404D01*
X174418Y123099D01*
X175093Y121930D01*
X176048Y120975D01*
X177217Y120300D01*
X178522Y119951D01*
X179872D01*
X181176Y120300D01*
X182345Y120975D01*
X183300Y121930D01*
X183975Y123099D01*
X184325Y124404D01*
Y125754D01*
X183975Y127058D01*
X183300Y128227D01*
X182345Y129182D01*
X181176Y129857D01*
X179872Y130207D01*
X178522D01*
X177217Y129857D01*
X176523Y129456D01*
X173127Y132852D01*
X172736Y133113D01*
X172276Y133204D01*
X172275Y133204D01*
X168772D01*
Y133968D01*
X165459Y133968D01*
X165047Y134181D01*
D02*
G37*
G36*
X304783Y131831D02*
X303453D01*
X302149Y131571D01*
X300920Y131062D01*
X299814Y130323D01*
X298873Y129383D01*
X298135Y128277D01*
X297626Y127048D01*
X297366Y125744D01*
Y124414D01*
X297626Y123109D01*
X298135Y121880D01*
X298873Y120775D01*
X299814Y119834D01*
X300920Y119095D01*
X302149Y118586D01*
X303453Y118327D01*
X304783D01*
X306088Y118586D01*
X307316Y119095D01*
X308422Y119834D01*
X309363Y120775D01*
X310102Y121880D01*
X310611Y123109D01*
X310870Y124414D01*
Y125744D01*
X310611Y127048D01*
X310102Y128277D01*
X309363Y129383D01*
X308422Y130323D01*
X307316Y131062D01*
X306088Y131571D01*
X304783Y131831D01*
D02*
G37*
G36*
X209783D02*
X208453D01*
X207149Y131571D01*
X205920Y131062D01*
X204814Y130323D01*
X203873Y129383D01*
X203135Y128277D01*
X202626Y127048D01*
X202366Y125744D01*
Y124414D01*
X202626Y123109D01*
X203135Y121880D01*
X203873Y120775D01*
X204814Y119834D01*
X205920Y119095D01*
X207149Y118586D01*
X208453Y118327D01*
X209783D01*
X211088Y118586D01*
X212316Y119095D01*
X213422Y119834D01*
X214363Y120775D01*
X215102Y121880D01*
X215611Y123109D01*
X215870Y124414D01*
Y125744D01*
X215611Y127048D01*
X215102Y128277D01*
X214363Y129383D01*
X213422Y130323D01*
X212316Y131062D01*
X211088Y131571D01*
X209783Y131831D01*
D02*
G37*
G36*
X48875Y123287D02*
X47747D01*
X46656Y122995D01*
X45678Y122431D01*
X44880Y121633D01*
X44316Y120655D01*
X44024Y119564D01*
Y118436D01*
X44316Y117345D01*
X44880Y116367D01*
X45678Y115569D01*
X46656Y115005D01*
X47747Y114713D01*
X48875D01*
X49966Y115005D01*
X50943Y115569D01*
X51742Y116367D01*
X52306Y117345D01*
X52598Y118436D01*
Y119564D01*
X52306Y120655D01*
X51742Y121633D01*
X50943Y122431D01*
X49966Y122995D01*
X48875Y123287D01*
D02*
G37*
G36*
X600325Y119667D02*
X599246Y119525D01*
X598241Y119108D01*
X597377Y118446D01*
X596714Y117582D01*
X596298Y116576D01*
X596156Y115497D01*
Y115190D01*
X596298Y114111D01*
X596714Y113105D01*
X597377Y112242D01*
X598241Y111579D01*
X599246Y111163D01*
X600325Y111021D01*
X601404Y111163D01*
X602410Y111579D01*
X603273Y112242D01*
X603936Y113105D01*
X604353Y114111D01*
X604495Y115190D01*
Y115497D01*
X604353Y116576D01*
X603936Y117582D01*
X603273Y118446D01*
X602410Y119108D01*
X601404Y119525D01*
X600325Y119667D01*
D02*
G37*
G36*
X629755Y122344D02*
X628376D01*
X627024Y122075D01*
X625750Y121547D01*
X624604Y120781D01*
X623629Y119806D01*
X622862Y118659D01*
X622335Y117385D01*
X622066Y116033D01*
Y114654D01*
X622335Y113302D01*
X622862Y112028D01*
X623629Y110881D01*
X624604Y109906D01*
X625750Y109140D01*
X627024Y108613D01*
X628376Y108344D01*
X629755D01*
X631108Y108613D01*
X632381Y109140D01*
X633528Y109906D01*
X634503Y110881D01*
X635269Y112028D01*
X635797Y113302D01*
X636066Y114654D01*
Y116033D01*
X635797Y117385D01*
X635269Y118659D01*
X634503Y119806D01*
X633528Y120781D01*
X632381Y121547D01*
X631108Y122075D01*
X629755Y122344D01*
D02*
G37*
G36*
X20260Y120095D02*
X18881D01*
X17529Y119825D01*
X16255Y119298D01*
X15108Y118532D01*
X14133Y117557D01*
X13367Y116410D01*
X12840Y115136D01*
X12571Y113784D01*
Y112405D01*
X12840Y111053D01*
X13367Y109779D01*
X14133Y108632D01*
X15108Y107657D01*
X16255Y106891D01*
X17529Y106363D01*
X18881Y106095D01*
X20260D01*
X21612Y106363D01*
X22886Y106891D01*
X24033Y107657D01*
X25008Y108632D01*
X25774Y109779D01*
X26302Y111053D01*
X26570Y112405D01*
Y113784D01*
X26302Y115136D01*
X25774Y116410D01*
X25008Y117557D01*
X24033Y118532D01*
X22886Y119298D01*
X21612Y119825D01*
X20260Y120095D01*
D02*
G37*
G36*
X48875Y111476D02*
X47747D01*
X46656Y111184D01*
X45678Y110620D01*
X44880Y109821D01*
X44316Y108844D01*
X44024Y107753D01*
Y106624D01*
X44316Y105534D01*
X44880Y104557D01*
X45678Y103758D01*
X46656Y103194D01*
X47747Y102902D01*
X48875D01*
X49966Y103194D01*
X50943Y103758D01*
X51742Y104557D01*
X52306Y105534D01*
X52598Y106624D01*
Y107753D01*
X52306Y108844D01*
X51742Y109821D01*
X50943Y110620D01*
X49966Y111184D01*
X48875Y111476D01*
D02*
G37*
G36*
X612136Y107856D02*
X611057Y107714D01*
X610051Y107297D01*
X609188Y106634D01*
X608525Y105771D01*
X608109Y104765D01*
X607967Y103686D01*
Y103379D01*
X608109Y102300D01*
X608525Y101294D01*
X609188Y100431D01*
X610051Y99768D01*
X611057Y99352D01*
X612136Y99210D01*
X613215Y99352D01*
X614221Y99768D01*
X615085Y100431D01*
X615747Y101294D01*
X616164Y102300D01*
X616306Y103379D01*
Y103686D01*
X616164Y104765D01*
X615747Y105771D01*
X615085Y106634D01*
X614221Y107297D01*
X613215Y107714D01*
X612136Y107856D01*
D02*
G37*
G36*
X600325D02*
X599246Y107714D01*
X598241Y107297D01*
X597377Y106634D01*
X596714Y105771D01*
X596298Y104765D01*
X596156Y103686D01*
Y103379D01*
X596298Y102300D01*
X596714Y101294D01*
X597377Y100431D01*
X598241Y99768D01*
X599246Y99352D01*
X600325Y99210D01*
X601404Y99352D01*
X602410Y99768D01*
X603273Y100431D01*
X603936Y101294D01*
X604353Y102300D01*
X604495Y103379D01*
Y103686D01*
X604353Y104765D01*
X603936Y105771D01*
X603273Y106634D01*
X602410Y107297D01*
X601404Y107714D01*
X600325Y107856D01*
D02*
G37*
G36*
X230225Y101275D02*
X229375D01*
X228589Y100949D01*
X227988Y100348D01*
X227663Y99563D01*
Y98712D01*
X227988Y97927D01*
X228535Y97379D01*
Y88858D01*
X228288Y88611D01*
X227963Y87825D01*
Y86975D01*
X228288Y86189D01*
X228889Y85588D01*
X229675Y85263D01*
X230525D01*
X231311Y85588D01*
X231912Y86189D01*
X232237Y86975D01*
Y87825D01*
X231912Y88611D01*
X231365Y89158D01*
Y97679D01*
X231612Y97927D01*
X231937Y98712D01*
Y99563D01*
X231612Y100348D01*
X231011Y100949D01*
X230225Y101275D01*
D02*
G37*
G36*
X493328Y88817D02*
X492466D01*
X491671Y88487D01*
X491061Y87878D01*
X490732Y87082D01*
Y86221D01*
X491061Y85425D01*
X491671Y84816D01*
X492466Y84486D01*
X493328D01*
X494124Y84816D01*
X494733Y85425D01*
X495062Y86221D01*
Y87082D01*
X494733Y87878D01*
X494124Y88487D01*
X493328Y88817D01*
D02*
G37*
G36*
X640716Y84594D02*
X638466D01*
Y82094D01*
X640716D01*
Y84594D01*
D02*
G37*
G36*
X636966D02*
X634716D01*
Y82094D01*
X636966D01*
Y84594D01*
D02*
G37*
G36*
X640716Y80594D02*
X638466D01*
Y78094D01*
X640716D01*
Y80594D01*
D02*
G37*
G36*
X636966D02*
X634716D01*
Y78094D01*
X636966D01*
Y80594D01*
D02*
G37*
G36*
X268775Y83787D02*
X267925D01*
X267139Y83462D01*
X266538Y82861D01*
X266294Y82271D01*
X263660Y79637D01*
X263575D01*
X262789Y79312D01*
X262188Y78711D01*
X261863Y77925D01*
Y77075D01*
X262188Y76289D01*
X262789Y75688D01*
X263575Y75363D01*
X264425D01*
X265211Y75688D01*
X265812Y76289D01*
X266056Y76879D01*
X268690Y79513D01*
X268775D01*
X269561Y79838D01*
X270162Y80439D01*
X270487Y81225D01*
Y82075D01*
X270162Y82861D01*
X269561Y83462D01*
X268775Y83787D01*
D02*
G37*
G36*
X512582Y81855D02*
X512382Y81828D01*
X512181D01*
X511986Y81776D01*
X511786Y81750D01*
X511599Y81673D01*
X511404Y81621D01*
X511230Y81520D01*
X511043Y81442D01*
X510883Y81320D01*
X510709Y81219D01*
X510566Y81076D01*
X510406Y80953D01*
X510283Y80793D01*
X510141Y80651D01*
X510040Y80476D01*
X509917Y80316D01*
X509840Y80130D01*
X509739Y79955D01*
X509687Y79760D01*
X509610Y79574D01*
X509583Y79374D01*
X509531Y79179D01*
Y78977D01*
X509505Y78777D01*
X509531Y78577D01*
Y78376D01*
X509583Y78181D01*
X509610Y77981D01*
X509687Y77794D01*
X509739Y77600D01*
X509840Y77425D01*
X509917Y77239D01*
X510040Y77078D01*
X510141Y76904D01*
X510283Y76761D01*
X510406Y76601D01*
X512788Y74219D01*
X513425Y73730D01*
X514167Y73423D01*
X514379Y73395D01*
X514346Y72895D01*
X497621D01*
X497161Y72803D01*
X496770Y72542D01*
X496770Y72542D01*
X493186Y68958D01*
X479781D01*
X479772Y68980D01*
X479163Y69589D01*
X478367Y69919D01*
X477506D01*
X476710Y69589D01*
X476101Y68980D01*
X475771Y68184D01*
Y67323D01*
X476101Y66527D01*
X476710Y65918D01*
X477506Y65588D01*
X478367D01*
X479163Y65918D01*
X479772Y66527D01*
X479781Y66549D01*
X493684D01*
X493684Y66549D01*
X494145Y66641D01*
X494536Y66902D01*
X498120Y70486D01*
X515844D01*
X515904Y70397D01*
X515907Y70363D01*
X515694Y69810D01*
X515160Y69589D01*
X514551Y68980D01*
X514542Y68958D01*
X501041D01*
X501032Y68980D01*
X500423Y69589D01*
X499627Y69919D01*
X498766D01*
X497970Y69589D01*
X497361Y68980D01*
X497031Y68184D01*
Y67323D01*
X497361Y66527D01*
X497970Y65918D01*
X498766Y65588D01*
X499627D01*
X500423Y65918D01*
X501032Y66527D01*
X501041Y66549D01*
X514542D01*
X514551Y66527D01*
X515048Y66030D01*
X514890Y65530D01*
X513964D01*
X512527Y65145D01*
X511239Y64401D01*
X510187Y63349D01*
X509443Y62060D01*
X509058Y60624D01*
Y59136D01*
X509443Y57699D01*
X510187Y56410D01*
X511239Y55358D01*
X512527Y54615D01*
X513964Y54230D01*
X515452D01*
X516889Y54615D01*
X518177Y55358D01*
X519044Y56226D01*
X519544Y56019D01*
Y51241D01*
X519044Y51034D01*
X518177Y51901D01*
X516889Y52645D01*
X515452Y53030D01*
X513964D01*
X512527Y52645D01*
X511239Y51901D01*
X510187Y50849D01*
X509443Y49560D01*
X509058Y48123D01*
Y46636D01*
X509443Y45199D01*
X510187Y43910D01*
X511239Y42858D01*
X512527Y42115D01*
X513964Y41730D01*
X515452D01*
X516388Y41980D01*
X516398Y41978D01*
X516569Y41875D01*
X516838Y41583D01*
Y41569D01*
X516812Y41369D01*
Y41313D01*
X516838Y41113D01*
Y40911D01*
X516890Y40716D01*
X516917Y40516D01*
X516994Y40330D01*
X517046Y40135D01*
X517147Y39960D01*
X517224Y39774D01*
X517347Y39614D01*
X517448Y39439D01*
X517590Y39297D01*
X517713Y39136D01*
X517873Y39014D01*
X518016Y38871D01*
X518190Y38770D01*
X518351Y38647D01*
X518537Y38570D01*
X518712Y38469D01*
X518906Y38417D01*
X519093Y38340D01*
X519293Y38314D01*
X519487Y38262D01*
X519689D01*
X519889Y38235D01*
X520089Y38262D01*
X520291D01*
X520486Y38314D01*
X520686Y38340D01*
X520872Y38417D01*
X521067Y38469D01*
X521242Y38570D01*
X521428Y38647D01*
X521588Y38770D01*
X521763Y38871D01*
X521905Y39014D01*
X522065Y39136D01*
X522188Y39297D01*
X522331Y39439D01*
X522357Y39484D01*
X524798Y41925D01*
X525287Y42563D01*
X525595Y43305D01*
X525699Y44102D01*
Y73702D01*
X525699Y73702D01*
X525647Y74100D01*
X525595Y74498D01*
X525287Y75241D01*
X524798Y75878D01*
X522105Y78571D01*
X521467Y79061D01*
X520725Y79368D01*
X519929Y79473D01*
X516239D01*
X514758Y80953D01*
X514598Y81076D01*
X514456Y81219D01*
X514281Y81320D01*
X514121Y81442D01*
X513935Y81520D01*
X513760Y81621D01*
X513565Y81673D01*
X513379Y81750D01*
X513179Y81776D01*
X512984Y81828D01*
X512782D01*
X512582Y81855D01*
D02*
G37*
G36*
X433742Y62454D02*
X432389D01*
Y61023D01*
X433742D01*
Y62454D01*
D02*
G37*
G36*
X572331Y72537D02*
X571013D01*
X569720Y72279D01*
X568502Y71775D01*
X567406Y71042D01*
X566473Y70110D01*
X565741Y69014D01*
X565236Y67796D01*
X564979Y66503D01*
Y65184D01*
X565236Y63891D01*
X565741Y62673D01*
X566473Y61577D01*
X567406Y60645D01*
X568502Y59913D01*
X569720Y59408D01*
X571013Y59151D01*
X572331D01*
X573624Y59408D01*
X574842Y59913D01*
X575939Y60645D01*
X576871Y61577D01*
X577603Y62673D01*
X578108Y63891D01*
X578365Y65184D01*
Y66503D01*
X578108Y67796D01*
X577603Y69014D01*
X576871Y70110D01*
X575939Y71042D01*
X574842Y71775D01*
X573624Y72279D01*
X572331Y72537D01*
D02*
G37*
G36*
X622746Y72749D02*
X621386D01*
X620051Y72484D01*
X618795Y71963D01*
X617664Y71207D01*
X616702Y70246D01*
X615946Y69115D01*
X615426Y67858D01*
X615160Y66524D01*
Y65163D01*
X615426Y63829D01*
X615946Y62573D01*
X616702Y61442D01*
X617664Y60480D01*
X618795Y59724D01*
X620051Y59203D01*
X621386Y58938D01*
X622746D01*
X624080Y59203D01*
X625337Y59724D01*
X626468Y60480D01*
X627430Y61442D01*
X628185Y62573D01*
X628706Y63829D01*
X628971Y65163D01*
Y66524D01*
X628706Y67858D01*
X628185Y69115D01*
X627430Y70246D01*
X626468Y71207D01*
X625337Y71963D01*
X624080Y72484D01*
X622746Y72749D01*
D02*
G37*
G36*
X433742Y59523D02*
X432389D01*
Y58092D01*
X433742D01*
Y59523D01*
D02*
G37*
G36*
X446204Y76098D02*
X445342D01*
X444547Y75768D01*
X443937Y75159D01*
X443608Y74363D01*
Y73502D01*
X443684Y73318D01*
X443227Y72860D01*
X442966Y72469D01*
X442874Y72009D01*
X442874Y72009D01*
Y61488D01*
X442852Y61479D01*
X442242Y60870D01*
X441913Y60074D01*
Y59213D01*
X442141Y58663D01*
X442203Y58357D01*
X441963Y57989D01*
X441720Y57826D01*
X441432Y57538D01*
X439454D01*
Y58305D01*
X439807D01*
Y62242D01*
X439523D01*
Y67616D01*
X439523Y67616D01*
X439400Y68230D01*
X439052Y68751D01*
X439052Y68751D01*
X436992Y70812D01*
Y71373D01*
X436632Y72241D01*
X435967Y72906D01*
X435099Y73265D01*
X434160D01*
X433291Y72906D01*
X432627Y72241D01*
X432267Y71373D01*
Y70433D01*
X432627Y69565D01*
X433291Y68901D01*
X434160Y68541D01*
X434721D01*
X436311Y66951D01*
Y62454D01*
X435242D01*
Y60273D01*
Y58092D01*
X436242D01*
Y57179D01*
X435883Y57030D01*
X435274Y56421D01*
X434944Y55625D01*
Y54764D01*
X435274Y53968D01*
X435883Y53359D01*
X436679Y53029D01*
X437540D01*
X438336Y53359D01*
X438945Y53968D01*
X439094Y54327D01*
X442097D01*
X442097Y54327D01*
X442712Y54449D01*
X443233Y54797D01*
X443520Y55085D01*
X446401D01*
X446401Y55085D01*
X447015Y55207D01*
X447536Y55555D01*
X448711Y56730D01*
X449272D01*
X450141Y57090D01*
X450805Y57754D01*
X451165Y58622D01*
Y59562D01*
X450805Y60430D01*
X450141Y61095D01*
X449272Y61454D01*
X448333D01*
X447465Y61095D01*
X446800Y60430D01*
X446705Y60202D01*
X446177Y60234D01*
X445914Y60870D01*
X445305Y61479D01*
X445283Y61488D01*
Y71510D01*
X445540Y71767D01*
X446204D01*
X447000Y72097D01*
X447609Y72706D01*
X447938Y73502D01*
Y74363D01*
X447609Y75159D01*
X447000Y75768D01*
X446204Y76098D01*
D02*
G37*
G36*
X505070Y62630D02*
X504346D01*
X503647Y62442D01*
X503020Y62080D01*
X502508Y61568D01*
X502146Y60941D01*
X501958Y60242D01*
Y59518D01*
X502146Y58818D01*
X502508Y58191D01*
X503020Y57679D01*
X503647Y57317D01*
X504346Y57130D01*
X505070D01*
X505770Y57317D01*
X506397Y57679D01*
X506909Y58191D01*
X507271Y58818D01*
X507458Y59518D01*
Y60242D01*
X507271Y60941D01*
X506909Y61568D01*
X506397Y62080D01*
X505770Y62442D01*
X505070Y62630D01*
D02*
G37*
G36*
X413269Y55761D02*
X411917D01*
Y54330D01*
X413269D01*
Y55761D01*
D02*
G37*
G36*
X495452Y65530D02*
X493964D01*
X492527Y65145D01*
X491239Y64401D01*
X490187Y63349D01*
X489443Y62060D01*
X489058Y60624D01*
Y59136D01*
X489443Y57699D01*
X490187Y56410D01*
X491239Y55358D01*
X492527Y54615D01*
X493964Y54230D01*
X495452D01*
X496889Y54615D01*
X498177Y55358D01*
X499229Y56410D01*
X499973Y57699D01*
X500358Y59136D01*
Y60624D01*
X499973Y62060D01*
X499229Y63349D01*
X498177Y64401D01*
X496889Y65145D01*
X495452Y65530D01*
D02*
G37*
G36*
X416121Y55761D02*
X414769D01*
Y53580D01*
Y51399D01*
X416121D01*
Y51612D01*
X419334D01*
Y51975D01*
X420574D01*
X420804Y51745D01*
X421600Y51415D01*
X422462D01*
X423257Y51745D01*
X423867Y52354D01*
X424196Y53150D01*
Y54011D01*
X423867Y54807D01*
X423257Y55416D01*
X422462Y55746D01*
X421600D01*
X420804Y55416D01*
X420574Y55186D01*
X419334D01*
Y55549D01*
X416121D01*
Y55761D01*
D02*
G37*
G36*
X413269Y52830D02*
X411917D01*
Y51399D01*
X413269D01*
Y52830D01*
D02*
G37*
G36*
X450255Y52612D02*
X448903D01*
Y51181D01*
X450255D01*
Y52612D01*
D02*
G37*
G36*
X447403D02*
X446051D01*
Y52399D01*
X442838D01*
Y50845D01*
X440810D01*
X440580Y51075D01*
X439784Y51405D01*
X438923D01*
X438127Y51075D01*
X437518Y50466D01*
X437188Y49670D01*
Y49345D01*
X435156Y47312D01*
X423488D01*
X423257Y47542D01*
X422462Y47872D01*
X421600D01*
X420804Y47542D01*
X420195Y46933D01*
X419866Y46137D01*
Y45276D01*
X420195Y44480D01*
X420425Y44250D01*
Y43009D01*
X420062D01*
Y39797D01*
X419850D01*
Y38445D01*
X422031D01*
X424212D01*
Y39797D01*
X424000D01*
Y43009D01*
X423637D01*
Y44101D01*
X435821D01*
X435821Y44101D01*
X436435Y44223D01*
X436956Y44571D01*
X437514Y45129D01*
X438091Y44998D01*
X438306Y44480D01*
X438915Y43871D01*
X439711Y43541D01*
X440568D01*
X440730Y43380D01*
X440730Y43380D01*
X441251Y43031D01*
X441865Y42909D01*
X442838D01*
Y42546D01*
X446051D01*
Y42334D01*
X447403D01*
Y44515D01*
Y46696D01*
X446051D01*
Y46483D01*
X442838D01*
Y46483D01*
X442338Y46313D01*
X442160Y46491D01*
X441977Y46933D01*
X441776Y47134D01*
X441983Y47634D01*
X443536D01*
X443536Y47634D01*
X444151Y47756D01*
X444672Y48104D01*
X444917Y48349D01*
X445086Y48462D01*
X446051D01*
Y48250D01*
X447403D01*
Y50431D01*
Y52612D01*
D02*
G37*
G36*
X450255Y49681D02*
X448903D01*
Y48250D01*
X450255D01*
Y49681D01*
D02*
G37*
G36*
X403820Y49462D02*
X402468D01*
Y48031D01*
X403820D01*
Y49462D01*
D02*
G37*
G36*
X476792Y61454D02*
X475931D01*
X475135Y61125D01*
X474526Y60516D01*
X474196Y59720D01*
Y58858D01*
X474526Y58062D01*
X475135Y57453D01*
X475530Y57290D01*
Y56197D01*
X475530Y56197D01*
X475622Y55737D01*
X475883Y55346D01*
X480702Y50527D01*
X480692Y50505D01*
Y49643D01*
X481022Y48847D01*
X481631Y48238D01*
X482427Y47909D01*
X483288D01*
X484084Y48238D01*
X484693Y48847D01*
X485023Y49643D01*
Y50505D01*
X484693Y51301D01*
X484084Y51910D01*
X483288Y52239D01*
X482427D01*
X482405Y52230D01*
X477939Y56696D01*
Y57804D01*
X478197Y58062D01*
X478527Y58858D01*
Y59720D01*
X478197Y60516D01*
X477588Y61125D01*
X476792Y61454D01*
D02*
G37*
G36*
X450255Y46696D02*
X448903D01*
Y45265D01*
X450255D01*
Y46696D01*
D02*
G37*
G36*
X407500Y88077D02*
X407300Y88051D01*
X407098D01*
X406904Y87999D01*
X406704Y87973D01*
X406517Y87896D01*
X406322Y87843D01*
X406148Y87742D01*
X405961Y87665D01*
X405801Y87542D01*
X405626Y87441D01*
X405484Y87299D01*
X405324Y87176D01*
X405201Y87016D01*
X405058Y86874D01*
X404958Y86699D01*
X404835Y86539D01*
X404758Y86352D01*
X404657Y86178D01*
X404605Y85983D01*
X404527Y85796D01*
X404501Y85597D01*
X404449Y85402D01*
Y85200D01*
X404423Y85000D01*
X404449Y84800D01*
Y84598D01*
X404501Y84404D01*
X404527Y84203D01*
X404605Y84017D01*
X404657Y83822D01*
X404722Y83708D01*
Y70700D01*
Y61510D01*
X401932Y58719D01*
X386371Y43158D01*
X386248Y42998D01*
X386105Y42855D01*
X386004Y42681D01*
X385881Y42521D01*
X385804Y42334D01*
X385703Y42160D01*
X385651Y41965D01*
X385574Y41778D01*
X385548Y41579D01*
X385495Y41384D01*
Y41182D01*
X385469Y40982D01*
X385495Y40782D01*
Y40580D01*
X385548Y40385D01*
X385574Y40185D01*
X385651Y39999D01*
X385703Y39804D01*
X385804Y39630D01*
X385881Y39443D01*
X386004Y39283D01*
X386105Y39108D01*
X386248Y38966D01*
X386371Y38806D01*
X386531Y38683D01*
X386673Y38540D01*
X386848Y38440D01*
X387008Y38317D01*
X387194Y38240D01*
X387369Y38139D01*
X387564Y38087D01*
X387750Y38009D01*
X387950Y37983D01*
X388145Y37931D01*
X388347D01*
X388547Y37905D01*
X388747Y37931D01*
X388948D01*
X389143Y37983D01*
X389343Y38009D01*
X389530Y38087D01*
X389724Y38139D01*
X389899Y38240D01*
X390086Y38317D01*
X390246Y38440D01*
X390420Y38540D01*
X390563Y38683D01*
X390723Y38806D01*
X404865Y52948D01*
X405989Y51824D01*
Y49462D01*
X405320D01*
Y47281D01*
Y45100D01*
X406673D01*
Y45313D01*
X407802D01*
X407996Y45274D01*
X411868D01*
X412250Y45116D01*
X413111D01*
X413907Y45445D01*
X414516Y46055D01*
X414846Y46850D01*
Y47712D01*
X414516Y48508D01*
X413907Y49117D01*
X413111Y49446D01*
X412250D01*
X411868Y49288D01*
X410003D01*
Y52655D01*
X409850Y53423D01*
X409415Y54074D01*
X407703Y55786D01*
X409976Y58059D01*
X410465Y58697D01*
X410773Y59439D01*
X410878Y60235D01*
Y70700D01*
Y84700D01*
X410773Y85496D01*
X410465Y86239D01*
X409976Y86876D01*
X409676Y87176D01*
X409516Y87299D01*
X409374Y87441D01*
X409199Y87542D01*
X409039Y87665D01*
X408852Y87742D01*
X408678Y87843D01*
X408483Y87896D01*
X408296Y87973D01*
X408097Y87999D01*
X407902Y88051D01*
X407700D01*
X407500Y88077D01*
D02*
G37*
G36*
X403820Y46531D02*
X402468D01*
Y45100D01*
X403820D01*
Y46531D01*
D02*
G37*
G36*
X450255Y43765D02*
X448903D01*
Y42334D01*
X450255D01*
Y43765D01*
D02*
G37*
G36*
X495452Y53030D02*
X493964D01*
X492527Y52645D01*
X491239Y51901D01*
X490187Y50849D01*
X489443Y49560D01*
X489058Y48123D01*
Y46636D01*
X489443Y45199D01*
X490187Y43910D01*
X491239Y42858D01*
X492527Y42115D01*
X493964Y41730D01*
X495452D01*
X496889Y42115D01*
X498177Y42858D01*
X499229Y43910D01*
X499973Y45199D01*
X500358Y46636D01*
Y48123D01*
X499973Y49560D01*
X499229Y50849D01*
X498177Y51901D01*
X496889Y52645D01*
X495452Y53030D01*
D02*
G37*
G36*
X509070Y42630D02*
X508346D01*
X507647Y42442D01*
X507020Y42080D01*
X506508Y41568D01*
X506146Y40941D01*
X505958Y40242D01*
Y39518D01*
X506146Y38818D01*
X506508Y38191D01*
X507020Y37679D01*
X507647Y37317D01*
X508346Y37130D01*
X509070D01*
X509770Y37317D01*
X510397Y37679D01*
X510909Y38191D01*
X511271Y38818D01*
X511458Y39518D01*
Y40242D01*
X511271Y40941D01*
X510909Y41568D01*
X510397Y42080D01*
X509770Y42442D01*
X509070Y42630D01*
D02*
G37*
G36*
X501070D02*
X500346D01*
X499647Y42442D01*
X499020Y42080D01*
X498508Y41568D01*
X498146Y40941D01*
X497958Y40242D01*
Y39518D01*
X498146Y38818D01*
X498508Y38191D01*
X499020Y37679D01*
X499647Y37317D01*
X500346Y37130D01*
X501070D01*
X501770Y37317D01*
X502397Y37679D01*
X502909Y38191D01*
X503271Y38818D01*
X503458Y39518D01*
Y40242D01*
X503271Y40941D01*
X502909Y41568D01*
X502397Y42080D01*
X501770Y42442D01*
X501070Y42630D01*
D02*
G37*
G36*
X424212Y36945D02*
X422781D01*
Y35592D01*
X424212D01*
Y36945D01*
D02*
G37*
G36*
X421281D02*
X419850D01*
Y35592D01*
X421281D01*
Y36945D01*
D02*
G37*
G36*
X438667Y40588D02*
X437806D01*
X437010Y40259D01*
X436401Y39650D01*
X436071Y38854D01*
Y37992D01*
X436401Y37196D01*
X437010Y36587D01*
X437806Y36257D01*
X438667D01*
X438737Y36287D01*
X438831Y36193D01*
X438831Y36193D01*
X439221Y35932D01*
X439682Y35841D01*
X452469D01*
X452479Y35818D01*
X453088Y35209D01*
X453884Y34880D01*
X454745D01*
X455541Y35209D01*
X456150Y35818D01*
X456480Y36614D01*
Y37476D01*
X456150Y38271D01*
X455541Y38881D01*
X454745Y39210D01*
X453884D01*
X453088Y38881D01*
X452479Y38271D01*
X452469Y38249D01*
X440402D01*
Y38854D01*
X440072Y39650D01*
X439463Y40259D01*
X438667Y40588D01*
D02*
G37*
G36*
X557664Y37587D02*
X556535D01*
X555445Y37295D01*
X554467Y36731D01*
X553669Y35932D01*
X553105Y34955D01*
X552813Y33864D01*
Y32736D01*
X553105Y31645D01*
X553669Y30667D01*
X554467Y29869D01*
X555445Y29305D01*
X556535Y29013D01*
X557664D01*
X558755Y29305D01*
X559732Y29869D01*
X560531Y30667D01*
X561095Y31645D01*
X561387Y32736D01*
Y33864D01*
X561095Y34955D01*
X560531Y35932D01*
X559732Y36731D01*
X558755Y37295D01*
X557664Y37587D01*
D02*
G37*
G36*
X436044Y30549D02*
X435183D01*
X434387Y30219D01*
X434040Y29872D01*
X434015Y29867D01*
X433494Y29519D01*
X433146Y28998D01*
X433024Y28384D01*
Y25687D01*
X432661D01*
Y22474D01*
X432448D01*
Y21122D01*
X434629D01*
X436810D01*
Y22474D01*
X436598D01*
Y25687D01*
X436235D01*
Y26297D01*
X436840Y26548D01*
X437070Y26778D01*
X441051D01*
X442700Y25129D01*
Y24803D01*
X443030Y24007D01*
X443639Y23398D01*
X444435Y23069D01*
X445296D01*
X446092Y23398D01*
X446701Y24007D01*
X447031Y24803D01*
Y25665D01*
X446701Y26460D01*
X446092Y27070D01*
X445296Y27399D01*
X444971D01*
X442851Y29519D01*
X442331Y29867D01*
X441716Y29989D01*
X441716Y29989D01*
X437070D01*
X436840Y30219D01*
X436044Y30549D01*
D02*
G37*
G36*
X419312Y31336D02*
X418451D01*
X417655Y31007D01*
X417046Y30397D01*
X416716Y29602D01*
Y28740D01*
X417046Y27944D01*
X417229Y27762D01*
X417162Y27261D01*
X416913D01*
Y24049D01*
X416700D01*
Y22696D01*
X418881D01*
X421063D01*
Y24049D01*
X420850D01*
Y27261D01*
X420601D01*
X420534Y27762D01*
X420717Y27944D01*
X421047Y28740D01*
Y29602D01*
X420717Y30397D01*
X420108Y31007D01*
X419312Y31336D01*
D02*
G37*
G36*
X421063Y21196D02*
X419631D01*
Y19844D01*
X421063D01*
Y21196D01*
D02*
G37*
G36*
X418131D02*
X416700D01*
Y19844D01*
X418131D01*
Y21196D01*
D02*
G37*
G36*
X557664Y27587D02*
X556535D01*
X555445Y27295D01*
X554467Y26731D01*
X553669Y25932D01*
X553105Y24955D01*
X552813Y23864D01*
Y22736D01*
X553105Y21645D01*
X553669Y20667D01*
X554467Y19869D01*
X555445Y19305D01*
X556535Y19013D01*
X557664D01*
X558755Y19305D01*
X559732Y19869D01*
X560531Y20667D01*
X561095Y21645D01*
X561387Y22736D01*
Y23864D01*
X561095Y24955D01*
X560531Y25932D01*
X559732Y26731D01*
X558755Y27295D01*
X557664Y27587D01*
D02*
G37*
G36*
X436810Y19622D02*
X435379D01*
Y18269D01*
X436810D01*
Y19622D01*
D02*
G37*
G36*
X433879D02*
X432448D01*
Y18269D01*
X433879D01*
Y19622D01*
D02*
G37*
G36*
X291867Y29787D02*
X291133D01*
X290424Y29597D01*
X289789Y29230D01*
X289269Y28712D01*
X288903Y28076D01*
X288713Y27367D01*
Y26633D01*
X288903Y25924D01*
X289269Y25289D01*
X289789Y24769D01*
X290178Y24545D01*
Y13032D01*
X290113Y12875D01*
Y12125D01*
X290400Y11431D01*
X290931Y10900D01*
X291625Y10613D01*
X292375D01*
X292440Y10639D01*
X293338D01*
X293822Y10316D01*
X294519Y10178D01*
X294519Y10178D01*
X303500D01*
X303500Y10178D01*
X304197Y10316D01*
X304789Y10711D01*
X308412Y14335D01*
X308569Y14400D01*
X309100Y14931D01*
X309387Y15625D01*
Y16375D01*
X309100Y17069D01*
X308569Y17600D01*
X307875Y17887D01*
X307125D01*
X306431Y17600D01*
X305900Y17069D01*
X305835Y16912D01*
X302745Y13822D01*
X295238D01*
X294755Y14145D01*
X294057Y14284D01*
X293822Y14683D01*
Y25448D01*
X294097Y25924D01*
X294287Y26633D01*
Y27367D01*
X294097Y28076D01*
X293730Y28712D01*
X293212Y29230D01*
X292576Y29597D01*
X291867Y29787D01*
D02*
G37*
G36*
X558850Y17637D02*
X555350D01*
X554360Y17440D01*
X553521Y16879D01*
X552960Y16040D01*
X552763Y15050D01*
Y11550D01*
X552960Y10560D01*
X553521Y9721D01*
X554360Y9160D01*
X555350Y8963D01*
X558850D01*
X559840Y9160D01*
X560679Y9721D01*
X561240Y10560D01*
X561437Y11550D01*
Y15050D01*
X561240Y16040D01*
X560679Y16879D01*
X559840Y17440D01*
X558850Y17637D01*
D02*
G37*
G36*
X620000Y51333D02*
X617215Y51151D01*
X614479Y50606D01*
X611836Y49709D01*
X609334Y48475D01*
X607013Y46925D01*
X604915Y45085D01*
X603075Y42987D01*
X601525Y40666D01*
X600291Y38164D01*
X599394Y35521D01*
X598849Y32785D01*
X598667Y30000D01*
X598849Y27215D01*
X599394Y24479D01*
X600291Y21836D01*
X601525Y19333D01*
X603075Y17013D01*
X604915Y14915D01*
X607013Y13075D01*
X609334Y11525D01*
X611836Y10291D01*
X614479Y9394D01*
X617215Y8849D01*
X620000Y8667D01*
X622785Y8849D01*
X625521Y9394D01*
X628164Y10291D01*
X630666Y11525D01*
X632987Y13075D01*
X635085Y14915D01*
X636925Y17013D01*
X638475Y19333D01*
X639709Y21836D01*
X640606Y24479D01*
X641151Y27215D01*
X641333Y30000D01*
X641151Y32785D01*
X640606Y35521D01*
X639709Y38164D01*
X638475Y40666D01*
X636925Y42987D01*
X635085Y45085D01*
X632987Y46925D01*
X630666Y48475D01*
X628164Y49709D01*
X625521Y50606D01*
X622785Y51151D01*
X620000Y51333D01*
D02*
G37*
G36*
X30000D02*
X27215Y51151D01*
X24479Y50606D01*
X21836Y49709D01*
X19333Y48475D01*
X17013Y46925D01*
X14915Y45085D01*
X13075Y42987D01*
X11525Y40666D01*
X10291Y38164D01*
X9394Y35521D01*
X8849Y32785D01*
X8667Y30000D01*
X8849Y27215D01*
X9394Y24479D01*
X10291Y21836D01*
X11525Y19333D01*
X13075Y17013D01*
X14915Y14915D01*
X17013Y13075D01*
X19333Y11525D01*
X21836Y10291D01*
X24479Y9394D01*
X27215Y8849D01*
X30000Y8667D01*
X32785Y8849D01*
X35521Y9394D01*
X38164Y10291D01*
X40666Y11525D01*
X42987Y13075D01*
X45085Y14915D01*
X46925Y17013D01*
X48475Y19333D01*
X49709Y21836D01*
X50606Y24479D01*
X51151Y27215D01*
X51333Y30000D01*
X51151Y32785D01*
X50606Y35521D01*
X49709Y38164D01*
X48475Y40666D01*
X46925Y42987D01*
X45085Y45085D01*
X42987Y46925D01*
X40666Y48475D01*
X38164Y49709D01*
X35521Y50606D01*
X32785Y51151D01*
X30000Y51333D01*
D02*
G37*
%LPD*%
D10*
X338500Y229500D02*
Y244500D01*
Y229500D02*
X367000Y201000D01*
X645066Y72344D02*
Y81344D01*
X367000Y201000D02*
X629409D01*
X646089Y92177D02*
Y184320D01*
X646022Y82300D02*
Y92110D01*
X646089Y92177D01*
X645066Y81344D02*
X646022Y82300D01*
X629409Y201000D02*
X646089Y184320D01*
X438237Y38423D02*
X438304D01*
X167000Y132000D02*
X172276D01*
X179197Y125079D01*
X262870Y132000D02*
X267276D01*
X274197Y125079D01*
X445773Y73703D02*
Y73933D01*
X444078Y72009D02*
X445773Y73703D01*
X438304Y38423D02*
X439682Y37045D01*
X444078Y59643D02*
Y72009D01*
X439682Y37045D02*
X454314D01*
X476734Y56197D02*
X482858Y50074D01*
X476734Y56197D02*
Y58916D01*
X476362Y59289D02*
X476734Y58916D01*
X477937Y67754D02*
X493684D01*
X497621Y71691D02*
X518094D01*
X493684Y67754D02*
X497621Y71691D01*
X499196Y67754D02*
X516387D01*
D12*
X292000Y12500D02*
Y25959D01*
X291500Y26459D02*
Y27000D01*
Y26459D02*
X292000Y25959D01*
X294057Y12462D02*
X294519Y12000D01*
X292000Y12500D02*
X292038Y12462D01*
X294057D01*
X294519Y12000D02*
X303500D01*
X307500Y16000D01*
X264100Y77500D02*
X268250Y81650D01*
X264000Y77500D02*
X264100D01*
X268250Y81650D02*
X268350D01*
D14*
X404108Y56543D02*
X407996Y52655D01*
Y47281D02*
Y52655D01*
Y47281D02*
X412681D01*
D34*
X644416Y81344D02*
D03*
X637716D02*
D03*
D49*
X448153Y44515D02*
D03*
X444728D02*
D03*
X448153Y50431D02*
D03*
X444728D02*
D03*
X434492Y60273D02*
D03*
X437917D02*
D03*
X417444Y53580D02*
D03*
X414019D02*
D03*
X407996Y47281D02*
D03*
X404570D02*
D03*
D54*
X262870Y132000D02*
D03*
X259130D02*
D03*
D55*
X434629Y23797D02*
D03*
Y20372D02*
D03*
X422031Y37695D02*
D03*
Y41120D02*
D03*
X418881Y25372D02*
D03*
Y21947D02*
D03*
D110*
X48311Y119000D02*
D03*
Y107189D02*
D03*
X36500Y119000D02*
D03*
Y107189D02*
D03*
X557100Y23300D02*
D03*
Y33300D02*
D03*
D117*
X571672Y65844D02*
D03*
X593326D02*
D03*
X622066D02*
D03*
X26800Y208268D02*
D03*
X55540Y200000D02*
D03*
X77194Y216535D02*
D03*
Y200000D02*
D03*
X55540Y216535D02*
D03*
D120*
X229950Y87550D02*
Y98987D01*
Y87550D02*
X230100Y87400D01*
X229800Y99137D02*
X229950Y98987D01*
D121*
X604066Y150344D02*
X604566Y150844D01*
X629066D01*
D124*
X434629Y28384D02*
X441716D01*
X434629Y23797D02*
Y28384D01*
X422031Y45706D02*
X435821D01*
X422031Y41120D02*
Y45706D01*
X417444Y53580D02*
X422031D01*
X437848Y55933D02*
Y60204D01*
X437917Y60273D01*
X434629Y70903D02*
X437917Y67616D01*
X446401Y56691D02*
X448803Y59092D01*
X437848Y55933D02*
X442097D01*
X437110Y55195D02*
X437848Y55933D01*
X442855Y56691D02*
X446401D01*
X442097Y55933D02*
X442855Y56691D01*
X435821Y45706D02*
X439354Y49239D01*
X440141Y45706D02*
X440674D01*
X439354Y49239D02*
X443536D01*
X443940Y49643D01*
X444019D01*
X444728Y50352D01*
Y50431D01*
X437917Y60273D02*
Y67616D01*
X441865Y44515D02*
X444728D01*
X440674Y45706D02*
X441865Y44515D01*
X441716Y28384D02*
X444866Y25234D01*
X418881Y25372D02*
Y29171D01*
D126*
X235000Y136500D02*
Y174446D01*
X234500Y174946D02*
X235000Y174446D01*
X234500Y174946D02*
Y175000D01*
D128*
X160000Y420000D02*
D03*
X75000D02*
D03*
X620000Y30000D02*
D03*
X30000D02*
D03*
X620000Y230000D02*
D03*
X385000Y420000D02*
D03*
D129*
X304118Y234921D02*
D03*
X209118D02*
D03*
D130*
X274197D02*
D03*
X244276D02*
D03*
X274197Y125079D02*
D03*
X289158D02*
D03*
X194158D02*
D03*
X179197D02*
D03*
X149276Y234921D02*
D03*
X179197D02*
D03*
D131*
X244276Y125079D02*
D03*
X304118D02*
D03*
X209118D02*
D03*
X149276D02*
D03*
D132*
X245500Y323898D02*
D03*
Y355000D02*
D03*
X276602Y323898D02*
D03*
Y355000D02*
D03*
D133*
X19570Y113094D02*
D03*
Y158689D02*
D03*
X629066Y115344D02*
D03*
D134*
X385000Y300000D02*
D03*
Y282539D02*
D03*
X367539D02*
D03*
X402461D02*
D03*
Y300000D02*
D03*
X367539D02*
D03*
Y317461D02*
D03*
X385000D02*
D03*
X402461D02*
D03*
Y382461D02*
D03*
X385000D02*
D03*
X367539D02*
D03*
Y365000D02*
D03*
X402461D02*
D03*
Y347539D02*
D03*
X367539D02*
D03*
X385000D02*
D03*
Y365000D02*
D03*
X475000Y232500D02*
D03*
Y215039D02*
D03*
X457539D02*
D03*
X492461D02*
D03*
Y232500D02*
D03*
X457539D02*
D03*
Y249961D02*
D03*
X475000D02*
D03*
X492461D02*
D03*
X540000Y232500D02*
D03*
Y215039D02*
D03*
X522539D02*
D03*
X557461D02*
D03*
Y232500D02*
D03*
X522539D02*
D03*
Y249961D02*
D03*
X540000D02*
D03*
X557461D02*
D03*
D135*
X629066Y160844D02*
D03*
Y191344D02*
D03*
D136*
Y150844D02*
D03*
Y181344D02*
D03*
D137*
X504708Y59880D02*
D03*
X508708Y39880D02*
D03*
X500708D02*
D03*
D138*
X494708Y59880D02*
D03*
X514708D02*
D03*
Y47380D02*
D03*
X494708D02*
D03*
D139*
X557100Y13300D02*
D03*
D140*
X348000Y268000D02*
D03*
X194000Y440000D02*
D03*
X338500Y244500D02*
D03*
X250000Y254000D02*
D03*
X254000Y258000D02*
D03*
Y250000D02*
D03*
X246000D02*
D03*
X242000Y254000D02*
D03*
X246000Y258000D02*
D03*
X238000Y250000D02*
D03*
Y258000D02*
D03*
X315000Y296000D02*
D03*
X327000Y293000D02*
D03*
X348000Y315000D02*
D03*
X350000Y426000D02*
D03*
X292000Y12500D02*
D03*
X307500Y16000D02*
D03*
X185000Y88000D02*
D03*
X181000D02*
D03*
X177000D02*
D03*
X224514Y114686D02*
D03*
X230000Y58000D02*
D03*
Y46000D02*
D03*
X220300Y30600D02*
D03*
X175000Y92000D02*
D03*
X179000D02*
D03*
X183000D02*
D03*
X187000D02*
D03*
X645066Y72344D02*
D03*
X141500Y108000D02*
D03*
X242000Y107000D02*
D03*
X328200Y110000D02*
D03*
X275600Y30500D02*
D03*
X250000Y42000D02*
D03*
X262000Y52000D02*
D03*
Y64000D02*
D03*
X286000Y92000D02*
D03*
X284000Y88000D02*
D03*
X282000Y92000D02*
D03*
X280000Y88000D02*
D03*
X278000Y92000D02*
D03*
X276000Y88000D02*
D03*
X274000Y92000D02*
D03*
X108250Y214250D02*
D03*
X174000Y252000D02*
D03*
X182000D02*
D03*
X190000D02*
D03*
Y260000D02*
D03*
X186000Y256000D02*
D03*
X182000Y260000D02*
D03*
X178000Y256000D02*
D03*
X174000Y260000D02*
D03*
X426000Y102000D02*
D03*
X321000Y321000D02*
D03*
X348000Y322000D02*
D03*
X321000Y314000D02*
D03*
D141*
X544078Y55155D02*
D03*
X366000Y27500D02*
D03*
X369000Y10500D02*
D03*
X372000Y26500D02*
D03*
X349000Y27000D02*
D03*
X352000Y11000D02*
D03*
X541500Y30500D02*
D03*
X523901Y24446D02*
D03*
X435614Y28384D02*
D03*
X412287Y65391D02*
D03*
X438237Y38423D02*
D03*
X507562Y24446D02*
D03*
X500279D02*
D03*
X477937Y23009D02*
D03*
X483940Y24446D02*
D03*
X444866Y25234D02*
D03*
X440141Y45706D02*
D03*
X437110Y55195D02*
D03*
X439354Y49239D02*
D03*
X455102Y40982D02*
D03*
X444078Y59643D02*
D03*
X454314Y37045D02*
D03*
X422031Y53580D02*
D03*
X395259Y56730D02*
D03*
X422031Y45706D02*
D03*
X412681Y47281D02*
D03*
X418881Y29171D02*
D03*
X516387Y67754D02*
D03*
X499196D02*
D03*
X518094Y71691D02*
D03*
X532267Y38482D02*
D03*
X476362Y59289D02*
D03*
X482858Y50074D02*
D03*
X481874Y42557D02*
D03*
X477937Y67754D02*
D03*
X525906Y77928D02*
D03*
X492897Y86651D02*
D03*
X481086Y89525D02*
D03*
X445773Y73933D02*
D03*
X533055Y92950D02*
D03*
D142*
X407500Y85000D02*
D03*
X407800Y70700D02*
D03*
X388547Y40982D02*
D03*
X519889Y41313D02*
D03*
X512582Y78777D02*
D03*
D143*
X388000Y104000D02*
D03*
X356000Y93000D02*
D03*
D144*
X572000Y25500D02*
D03*
X581500D02*
D03*
X579500Y31000D02*
D03*
D145*
X291500Y27000D02*
D03*
X322000Y21000D02*
D03*
D146*
X604066Y150344D02*
D03*
D147*
X234500Y175000D02*
D03*
X235000Y136500D02*
D03*
X57100Y182700D02*
D03*
X98000Y185000D02*
D03*
X15500Y61500D02*
D03*
X36000Y79000D02*
D03*
X16000Y91000D02*
D03*
X264000Y77500D02*
D03*
X268350Y81650D02*
D03*
X229800Y99137D02*
D03*
X230100Y87400D02*
D03*
D148*
X448803Y59092D02*
D03*
X435023Y50824D02*
D03*
Y42163D02*
D03*
X426362D02*
D03*
X403547Y25834D02*
D03*
X426362Y50824D02*
D03*
X504717Y36225D02*
D03*
X493684Y92163D02*
D03*
X434629Y70903D02*
D03*
X458198Y68594D02*
D03*
D149*
X167000Y132000D02*
D03*
X163063D02*
D03*
D150*
X407800Y70700D02*
Y84700D01*
X407500Y85000D02*
X407800Y84700D01*
Y60235D02*
Y70700D01*
X404108Y56543D02*
X407800Y60235D01*
X388547Y40982D02*
X404108Y56543D01*
X519889Y41313D02*
Y41369D01*
X519929Y76395D02*
X522622Y73702D01*
X519889Y41369D02*
X522622Y44102D01*
Y73702D01*
X512582Y78777D02*
X514964Y76395D01*
X519929D01*
D151*
X48311Y170500D02*
D03*
Y158689D02*
D03*
Y146878D02*
D03*
X36500Y170500D02*
D03*
Y158689D02*
D03*
Y146878D02*
D03*
X612136Y127155D02*
D03*
Y115344D02*
D03*
Y103533D02*
D03*
X600325Y127155D02*
D03*
Y115344D02*
D03*
Y103533D02*
D03*
M02*
