M48
;Layer_Color=9474304
;FILE_FORMAT=2:5
INCH,LZ
;TYPE=PLATED
T01F00S00C0.01000
T02F00S00C0.01181
T03F00S00C0.01200
T04F00S00C0.01300
T05F00S00C0.01500
T06F00S00C0.01575
T07F00S00C0.02000
T08F00S00C0.02756
T09F00S00C0.04000
T10F00S00C0.04016
T11F00S00C0.04331
T12F00S00C0.05787
T13F00S00C0.07087
T14F00S00C0.07283
T16F00S00C0.07953
%
T01
X01415Y0108
X0175Y0092
X0179
X0183
X0187
X0185Y0088
X0181
X0177
X0224514Y0114686
X0242Y0107
X0274Y0092
X0278
X0282
X0286
X0284Y0088
X028
X0276
X0262Y0064
Y0052
X025Y0042
X023Y0046
Y0058
X02203Y00306
X02756Y00305
X0292Y00125
X03075Y0016
X03282Y011
X0426Y0102
X0645066Y0072344
X03385Y02445
X0348Y0268
X0327Y0293
X0315Y0296
X0254Y0258
X025Y0254
X0254Y025
X0246
X0242Y0254
X0246Y0258
X0238
Y025
X019Y0252
X0182
X0174
X0178Y0256
X0186
X019Y026
X0182
X0174
X010825Y021425
X0194Y044
X035Y0426
X0348Y0322
Y0315
X0321Y0314
Y0321
T02
X0352Y0011
X0369Y00105
X0372Y00265
X0366Y00275
X0349Y0027
X0418881Y0029171
X0435614Y0028384
X0444866Y0025234
X0438237Y0038423
X0440141Y0045706
X0439354Y0049239
X043711Y0055195
X0444078Y0059643
X0445773Y0073933
X0412287Y0065391
X0412681Y0047281
X0422031Y0045706
Y005358
X0395259Y005673
X0455102Y0040982
X0454314Y0037045
X0481874Y0042557
X0482858Y0050074
X0476362Y0059289
X0477937Y0067754
X0499196
X0516387
X0518094Y0071691
X0525906Y0077928
X0533055Y009295
X0492897Y0086651
X0481086Y0089525
X048394Y0024446
X0477937Y0023009
X0500279Y0024446
X0507562
X0523901
X0532267Y0038482
X05415Y00305
X0544078Y0055155
T03
X0356Y0093
X0388Y0104
T04
X00155Y00615
X0016Y0091
X0036Y0079
X02301Y00874
X02298Y0099137
X0235Y01365
X0264Y00775
X026835Y008165
X02345Y0175
X0098Y0185
X00571Y01827
T05
X0572Y00255
X05815
X05795Y0031
T06
X0403547Y0025834
X0426362Y0042163
X0435023
Y0050824
X0426362
X0434629Y0070903
X0458198Y0068594
X0448803Y0059092
X0493684Y0092163
X0504717Y0036225
T07
X02915Y0027
X0322Y0021
X0604066Y0150344
T08
X0388547Y0040982
X04078Y00707
X04075Y0085
X0512582Y0078777
X0519889Y0041313
T09
X00365Y0107189
Y0119
X0048311
Y0107189
Y0146878
X00365
X0600325Y0127155
Y0115344
Y0103533
X0612136
Y0115344
Y0127155
X0048311Y0158689
Y01705
X00365
Y0158689
T10
X0629066Y0150844
Y0160844
Y0181344
Y0191344
T11
X05571Y00133
Y00233
Y00333
T12
X0179197Y0125079
X0194158
X0274197
X0289158
X0304118Y0234921
X0274197
X0244276
X0209118
X0179197
X0149276
T13
X0571672Y0065844
X0593326
X0077194Y02
Y0216535
X005554
Y02
T14
X0475Y0215039
X0492461
Y02325
Y0249961
X0475
X0522539
Y02325
Y0215039
X054
X0557461
Y02325
Y0249961
X054
X0457539
Y02325
Y0215039
X0402461Y0282539
X0385
X0367539
Y03
X0402461
Y0317461
X0385
X0367539
Y0347539
Y0365
Y0382461
X0385
X0402461
Y0365
Y0347539
X0385
T16
X0149276Y0125079
X0209118
X0244276
X0304118
M30
