M48
;Layer_Color=9474304
;FILE_FORMAT=4:4
METRIC,LZ
;TYPE=PLATED
T01F00S00C0.2540
T02F00S00C0.3000
T03F00S00C0.3048
T04F00S00C0.3302
T05F00S00C0.3810
T06F00S00C0.4000
T07F00S00C0.5080
T08F00S00C0.7000
T09F00S00C1.0160
T10F00S00C1.0200
T11F00S00C1.1000
T12F00S00C1.4700
T13F00S00C1.8000
T14F00S00C1.8500
T16F00S00C2.0200
%
T01
X0035941Y0027432
X004445Y0023368
X0045466
X0046482
X0047498
X004699Y0022352
X0045974
X0044958
X00570265Y00291304
X0061468Y0027178
X0069596Y0023368
X0070612
X0071628
X0072644
X0072136Y0022352
X007112
X0070104
X0066548Y0016256
Y0013208
X00635Y0010668
X005842Y0011684
Y0014732
X00559562Y00077724
X00700024Y0007747
X0074168Y0003175
X0078105Y0004064
X00833628Y002794
X0108204Y0025908
X01638467Y00183753
X0085979Y0062103
X0088392Y0068072
X0083058Y0074422
X008001Y0075184
X0064516Y0065532
X00635Y0064516
X0064516Y00635
X0062484
X0061468Y0064516
X0062484Y0065532
X0060452
Y00635
X004826Y0064008
X0046228
X0044196
X0045212Y0065024
X0047244
X004826Y006604
X0046228
X0044196
X00274955Y00544195
X0049276Y011176
X00889Y0108204
X0088392Y0081788
Y008001
X0081534Y0079756
Y0081534
T02
X0089408Y0002794
X0093726Y0002667
X0094488Y0006731
X0092964Y0006985
X0088646Y0006858
X01063959Y00074094
X01106459Y00072094
X01129959Y00064094
X01113121Y00097594
X01117959Y00116094
X01115959Y00125068
X01110259Y00140194
X01127959Y00151494
X01132264Y00187789
X01047209Y00166094
X01048209Y00120094
X01071959Y00116094
Y00136094
X01003959Y00144094
X01155959Y00104094
X01153959Y00094094
X01223959Y00108094
X01226459Y00127188
X01209959Y00150594
X01213959Y00172094
X01267959
X01311622
X01315959Y00182094
X01335801Y00197937
X01353959Y00236094
X01251959Y00220094
X01221959Y00227394
X01229209Y00062094
X01213959Y00058444
X01270709Y00062094
X01289209
X01330709
X01351959Y00097744
X0137541Y0007747
X01381959Y00140094
T03
X0090424Y0023622
X0098552Y0026416
T04
X0003937Y0015621
X0004064Y0023114
X0009144Y0020066
X00584454Y00221996
X00583692Y00251809
X005969Y0034671
X0067056Y0019685
X00681609Y00207391
X0059563Y004445
X0024892Y004699
X00145034Y00464058
T05
X0145288Y0006477
X0147701
X0147193Y0007874
T06
X01025009Y00065619
X01082959Y00107094
X01104959
Y00129094
X01082959
X01103959Y00180094
X01163824Y00174229
X01139959Y00150094
X01253959Y00234094
X0128198Y00092012
T07
X0074041Y0006858
X0081788Y0005334
X01534327Y00381873
T08
X00986909Y00104094
X01035812Y00179578
X0103505Y002159
X01301959Y00200094
X01320519Y00104934
T09
X0009271Y0027226
Y0030226
X0012271
Y0027226
Y0037307
X0009271
X01524826Y00322973
Y00292973
Y00262973
X01554826
Y00292973
Y00322973
X0012271Y0040307
Y0043307
X0009271
Y0040307
T10
X01597827Y00383143
Y00408543
Y00460613
Y00486013
T11
X01415034Y00033782
Y00059182
Y00084582
T12
X0045516Y003177
X0049316
X0069646
X0073446
X0077246Y005967
X0069646
X0062046
X0053116
X0045516
X0037916
T13
X01452047Y00167243
X01507047
X00196072Y00508
Y0055
X00141072
Y00508
T14
X012065Y005462
X0125085
Y0059055
Y006349
X012065
X0132725
Y0059055
Y005462
X013716
X0141595
Y0059055
Y006349
X013716
X0116215
Y0059055
Y005462
X0102225Y0071765
X009779
X0093355
Y00762
X0102225
Y0080635
X009779
X0093355
Y0088275
Y009271
Y0097145
X009779
X0102225
Y009271
Y0088275
X009779
T16
X0037916Y003177
X0053116
X0062046
X0077246
M30
