G04*
G04 #@! TF.GenerationSoftware,Altium Limited,Altium Designer,24.9.1 (31)*
G04*
G04 Layer_Color=8388736*
%FSLAX44Y44*%
%MOMM*%
G71*
G04*
G04 #@! TF.SameCoordinates,4ABB4C66-9582-4CFB-BBB6-2869B120E9C7*
G04*
G04*
G04 #@! TF.FilePolarity,Negative*
G04*
G01*
G75*
%ADD23R,1.0668X1.7272*%
%ADD25R,1.1000X2.0000*%
%ADD26R,3.9116X1.1938*%
G04:AMPARAMS|DCode=29|XSize=1.6587mm|YSize=0.6268mm|CornerRadius=0.3134mm|HoleSize=0mm|Usage=FLASHONLY|Rotation=90.000|XOffset=0mm|YOffset=0mm|HoleType=Round|Shape=RoundedRectangle|*
%AMROUNDEDRECTD29*
21,1,1.6587,0.0000,0,0,90.0*
21,1,1.0319,0.6268,0,0,90.0*
1,1,0.6268,0.0000,0.5159*
1,1,0.6268,0.0000,-0.5159*
1,1,0.6268,0.0000,-0.5159*
1,1,0.6268,0.0000,0.5159*
%
%ADD29ROUNDEDRECTD29*%
%ADD30R,0.6268X1.6587*%
%ADD37R,3.5052X1.0414*%
%ADD38R,12.0396X10.7188*%
%ADD39R,1.1938X0.5080*%
%ADD40R,0.5588X1.9812*%
%ADD68C,2.2479*%
%ADD69R,0.8500X0.6500*%
%ADD70C,1.3000*%
%ADD71R,0.9128X0.9128*%
%ADD72R,0.7620X1.4732*%
%ADD73R,1.3700X0.7096*%
%ADD74R,1.1160X0.7096*%
%ADD75R,3.9100X4.0116*%
%ADD76R,1.1160X1.2430*%
%ADD77R,1.2430X1.1160*%
%ADD78R,1.4732X0.7620*%
%ADD79R,1.2032X2.2532*%
%ADD80R,3.4532X2.2532*%
G04:AMPARAMS|DCode=81|XSize=2mm|YSize=0.7mm|CornerRadius=0.125mm|HoleSize=0mm|Usage=FLASHONLY|Rotation=0.000|XOffset=0mm|YOffset=0mm|HoleType=Round|Shape=RoundedRectangle|*
%AMROUNDEDRECTD81*
21,1,2.0000,0.4500,0,0,0.0*
21,1,1.7500,0.7000,0,0,0.0*
1,1,0.2500,0.8750,-0.2250*
1,1,0.2500,-0.8750,-0.2250*
1,1,0.2500,-0.8750,0.2250*
1,1,0.2500,0.8750,0.2250*
%
%ADD81ROUNDEDRECTD81*%
%ADD82R,0.6000X0.4000*%
%ADD83R,1.1160X0.8620*%
%ADD84R,1.8000X0.7000*%
%ADD85R,2.9000X1.1000*%
%ADD86R,0.9128X0.9128*%
%ADD87R,0.6600X0.7000*%
G04:AMPARAMS|DCode=88|XSize=2mm|YSize=1.9mm|CornerRadius=0.5mm|HoleSize=0mm|Usage=FLASHONLY|Rotation=0.000|XOffset=0mm|YOffset=0mm|HoleType=Round|Shape=RoundedRectangle|*
%AMROUNDEDRECTD88*
21,1,2.0000,0.9000,0,0,0.0*
21,1,1.0000,1.9000,0,0,0.0*
1,1,1.0000,0.5000,-0.4500*
1,1,1.0000,-0.5000,-0.4500*
1,1,1.0000,-0.5000,0.4500*
1,1,1.0000,0.5000,0.4500*
%
%ADD88ROUNDEDRECTD88*%
G04:AMPARAMS|DCode=89|XSize=1.7mm|YSize=2.2mm|CornerRadius=0.45mm|HoleSize=0mm|Usage=FLASHONLY|Rotation=90.000|XOffset=0mm|YOffset=0mm|HoleType=Round|Shape=RoundedRectangle|*
%AMROUNDEDRECTD89*
21,1,1.7000,1.3000,0,0,90.0*
21,1,0.8000,2.2000,0,0,90.0*
1,1,0.9000,0.6500,0.4000*
1,1,0.9000,0.6500,-0.4000*
1,1,0.9000,-0.6500,-0.4000*
1,1,0.9000,-0.6500,0.4000*
%
%ADD89ROUNDEDRECTD89*%
G04:AMPARAMS|DCode=90|XSize=0.5mm|YSize=1.6mm|CornerRadius=0.15mm|HoleSize=0mm|Usage=FLASHONLY|Rotation=0.000|XOffset=0mm|YOffset=0mm|HoleType=Round|Shape=RoundedRectangle|*
%AMROUNDEDRECTD90*
21,1,0.5000,1.3000,0,0,0.0*
21,1,0.2000,1.6000,0,0,0.0*
1,1,0.3000,0.1000,-0.6500*
1,1,0.3000,-0.1000,-0.6500*
1,1,0.3000,-0.1000,0.6500*
1,1,0.3000,0.1000,0.6500*
%
%ADD90ROUNDEDRECTD90*%
%ADD91O,0.7000X1.8000*%
%ADD92R,0.6500X0.8500*%
%ADD93R,0.7000X0.6600*%
%ADD94R,3.3000X3.3000*%
%ADD95O,0.9750X0.3000*%
%ADD96O,0.3000X0.9750*%
%ADD97O,1.5500X0.7000*%
G04:AMPARAMS|DCode=98|XSize=1.5mm|YSize=1.2mm|CornerRadius=0mm|HoleSize=0mm|Usage=FLASHONLY|Rotation=90.000|XOffset=0mm|YOffset=0mm|HoleType=Round|Shape=RoundedRectangle|*
%AMROUNDEDRECTD98*
21,1,1.5000,1.2000,0,0,90.0*
21,1,1.5000,1.2000,0,0,90.0*
1,1,0.0000,0.6000,0.7500*
1,1,0.0000,0.6000,-0.7500*
1,1,0.0000,-0.6000,-0.7500*
1,1,0.0000,-0.6000,0.7500*
%
%ADD98ROUNDEDRECTD98*%
%ADD99R,1.1500X0.7500*%
%ADD100C,0.8874*%
G04:AMPARAMS|DCode=101|XSize=1.1mm|YSize=1.7mm|CornerRadius=0mm|HoleSize=0mm|Usage=FLASHONLY|Rotation=270.000|XOffset=0mm|YOffset=0mm|HoleType=Round|Shape=RoundedRectangle|*
%AMROUNDEDRECTD101*
21,1,1.1000,1.7000,0,0,270.0*
21,1,1.1000,1.7000,0,0,270.0*
1,1,0.0000,-0.8500,-0.5500*
1,1,0.0000,-0.8500,0.5500*
1,1,0.0000,0.8500,0.5500*
1,1,0.0000,0.8500,-0.5500*
%
%ADD101ROUNDEDRECTD101*%
%ADD102R,1.3000X1.9200*%
G04:AMPARAMS|DCode=103|XSize=0.9mm|YSize=0.65mm|CornerRadius=0mm|HoleSize=0mm|Usage=FLASHONLY|Rotation=0.000|XOffset=0mm|YOffset=0mm|HoleType=Round|Shape=RoundedRectangle|*
%AMROUNDEDRECTD103*
21,1,0.9000,0.6500,0,0,0.0*
21,1,0.9000,0.6500,0,0,0.0*
1,1,0.0000,0.4500,-0.3250*
1,1,0.0000,-0.4500,-0.3250*
1,1,0.0000,-0.4500,0.3250*
1,1,0.0000,0.4500,0.3250*
%
%ADD103ROUNDEDRECTD103*%
%ADD104R,1.1000X2.8000*%
%ADD105R,0.7000X1.8000*%
%ADD106R,2.3050X2.3050*%
%ADD107C,2.3050*%
%ADD108C,3.1300*%
G04:AMPARAMS|DCode=109|XSize=5.1mm|YSize=6.35mm|CornerRadius=1.3mm|HoleSize=0mm|Usage=FLASHONLY|Rotation=0.000|XOffset=0mm|YOffset=0mm|HoleType=Round|Shape=RoundedRectangle|*
%AMROUNDEDRECTD109*
21,1,5.1000,3.7500,0,0,0.0*
21,1,2.5000,6.3500,0,0,0.0*
1,1,2.6000,1.2500,-1.8750*
1,1,2.6000,-1.2500,-1.8750*
1,1,2.6000,-1.2500,1.8750*
1,1,2.6000,1.2500,1.8750*
%
%ADD109ROUNDEDRECTD109*%
%ADD110C,1.7780*%
%ADD111C,3.3000*%
%ADD112C,1.7200*%
G04:AMPARAMS|DCode=113|XSize=1.72mm|YSize=1.72mm|CornerRadius=0.455mm|HoleSize=0mm|Usage=FLASHONLY|Rotation=90.000|XOffset=0mm|YOffset=0mm|HoleType=Round|Shape=RoundedRectangle|*
%AMROUNDEDRECTD113*
21,1,1.7200,0.8100,0,0,90.0*
21,1,0.8100,1.7200,0,0,90.0*
1,1,0.9100,0.4050,0.4050*
1,1,0.9100,0.4050,-0.4050*
1,1,0.9100,-0.4050,-0.4050*
1,1,0.9100,-0.4050,0.4050*
%
%ADD113ROUNDEDRECTD113*%
%ADD114C,0.9636*%
%ADD115C,2.4368*%
%ADD116C,3.1000*%
%ADD117C,3.0000*%
G04:AMPARAMS|DCode=118|XSize=1.878mm|YSize=1.878mm|CornerRadius=0.4945mm|HoleSize=0mm|Usage=FLASHONLY|Rotation=90.000|XOffset=0mm|YOffset=0mm|HoleType=Round|Shape=RoundedRectangle|*
%AMROUNDEDRECTD118*
21,1,1.8780,0.8890,0,0,90.0*
21,1,0.8890,1.8780,0,0,90.0*
1,1,0.9890,0.4445,0.4445*
1,1,0.9890,0.4445,-0.4445*
1,1,0.9890,-0.4445,-0.4445*
1,1,0.9890,-0.4445,0.4445*
%
%ADD118ROUNDEDRECTD118*%
%ADD119C,1.8780*%
D23*
X1497370Y452120D02*
D03*
X1467144D02*
D03*
X1467144Y345043D02*
D03*
X1497370D02*
D03*
X1498640Y292973D02*
D03*
X1468414D02*
D03*
D25*
X1496527Y211693D02*
D03*
X1470527D02*
D03*
D26*
X628396Y668020D02*
D03*
X692404D02*
D03*
X527304Y243840D02*
D03*
X463296D02*
D03*
X527304Y670560D02*
D03*
X463296D02*
D03*
X778764Y243840D02*
D03*
X714756D02*
D03*
D29*
X251720Y270994D02*
D03*
X260870Y251460D02*
D03*
X209810Y231926D02*
D03*
X200660Y251460D02*
D03*
D30*
X242570D02*
D03*
X218960D02*
D03*
D37*
X676910Y1018540D02*
D03*
Y1069340D02*
D03*
D38*
X588772Y1043940D02*
D03*
D39*
X811022Y733450D02*
D03*
Y742950D02*
D03*
Y752450D02*
D03*
X839978D02*
D03*
Y742950D02*
D03*
Y733450D02*
D03*
D40*
X845820Y785368D02*
D03*
X858520D02*
D03*
X871220D02*
D03*
X883920D02*
D03*
Y832612D02*
D03*
X871220D02*
D03*
X858520D02*
D03*
X845820D02*
D03*
X775970Y830072D02*
D03*
X788670D02*
D03*
X801370D02*
D03*
X814070D02*
D03*
Y782828D02*
D03*
X801370D02*
D03*
X788670D02*
D03*
X775970D02*
D03*
D68*
X417640Y1066800D02*
G03*
X417640Y1066800I-11240J0D01*
G01*
X201740D02*
G03*
X201740Y1066800I-11240J0D01*
G01*
X1586039Y76200D02*
G03*
X1586039Y76200I-11240J0D01*
G01*
X87439D02*
G03*
X87439Y76200I-11240J0D01*
G01*
X1586039Y584200D02*
G03*
X1586039Y584200I-11240J0D01*
G01*
X989139Y1066800D02*
G03*
X989139Y1066800I-11240J0D01*
G01*
D69*
X1503680Y114630D02*
D03*
Y124130D02*
D03*
X1333959Y104844D02*
D03*
Y95344D02*
D03*
X1221959Y180694D02*
D03*
Y190194D02*
D03*
Y214844D02*
D03*
Y205344D02*
D03*
X1355959Y121344D02*
D03*
Y130844D02*
D03*
X1371959Y121344D02*
D03*
Y130844D02*
D03*
D70*
X1097280Y204470D02*
D03*
X1074420Y187960D02*
D03*
D71*
X876300Y1064260D02*
D03*
Y1082040D02*
D03*
X482600Y1116330D02*
D03*
Y1098550D02*
D03*
X906780Y1062990D02*
D03*
Y1080770D02*
D03*
D72*
X239395Y465074D02*
D03*
X258445D02*
D03*
X248920Y444246D02*
D03*
D73*
X211328Y400812D02*
D03*
Y413512D02*
D03*
Y426212D02*
D03*
Y438912D02*
D03*
X814832Y892810D02*
D03*
Y905510D02*
D03*
Y918210D02*
D03*
Y930910D02*
D03*
Y952500D02*
D03*
Y965200D02*
D03*
Y977900D02*
D03*
Y990600D02*
D03*
D74*
X156718Y438912D02*
D03*
Y426212D02*
D03*
Y413512D02*
D03*
Y400812D02*
D03*
X869442Y930910D02*
D03*
Y918210D02*
D03*
Y905510D02*
D03*
Y892810D02*
D03*
Y990600D02*
D03*
Y977900D02*
D03*
Y965200D02*
D03*
Y952500D02*
D03*
D75*
X177800Y419862D02*
D03*
X848360Y911860D02*
D03*
Y971550D02*
D03*
D76*
X217043Y464566D02*
D03*
X200025D02*
D03*
X250571Y568960D02*
D03*
X267589D02*
D03*
X427609Y274320D02*
D03*
X410591D02*
D03*
X569595Y195580D02*
D03*
X586613D02*
D03*
X836549Y703580D02*
D03*
X819531D02*
D03*
Y1074420D02*
D03*
X836549D02*
D03*
X664591Y271780D02*
D03*
X681609D02*
D03*
X1458341Y116840D02*
D03*
X1475359D02*
D03*
D77*
X279400Y218059D02*
D03*
Y201041D02*
D03*
X280670Y427101D02*
D03*
Y444119D02*
D03*
X303530Y218059D02*
D03*
Y201041D02*
D03*
X332740Y231140D02*
D03*
Y214122D02*
D03*
X548640Y130429D02*
D03*
Y113411D02*
D03*
X568960D02*
D03*
Y130429D02*
D03*
Y149860D02*
D03*
Y166878D02*
D03*
X830580Y36322D02*
D03*
Y53340D02*
D03*
X906780Y1029589D02*
D03*
Y1012571D02*
D03*
X846836Y180975D02*
D03*
Y197993D02*
D03*
X868934Y192151D02*
D03*
Y209169D02*
D03*
X678180Y125349D02*
D03*
Y108331D02*
D03*
Y160909D02*
D03*
Y143891D02*
D03*
X698500Y108331D02*
D03*
Y125349D02*
D03*
Y143891D02*
D03*
Y160909D02*
D03*
X754380Y14351D02*
D03*
Y31369D02*
D03*
X793750Y24511D02*
D03*
Y41529D02*
D03*
X482600Y1076960D02*
D03*
Y1059942D02*
D03*
X1026160Y259080D02*
D03*
Y242062D02*
D03*
X1361440Y66929D02*
D03*
Y49911D02*
D03*
D78*
X310134Y553720D02*
D03*
X289306Y563245D02*
D03*
Y544195D02*
D03*
X1399286Y127000D02*
D03*
X1420114Y117475D02*
D03*
Y136525D02*
D03*
D79*
X972960Y264160D02*
D03*
X949960D02*
D03*
X926960D02*
D03*
D80*
X949960Y200660D02*
D03*
D81*
X601980Y157480D02*
D03*
Y144780D02*
D03*
Y132080D02*
D03*
Y119380D02*
D03*
Y106680D02*
D03*
Y93980D02*
D03*
Y81280D02*
D03*
X651080D02*
D03*
Y93980D02*
D03*
Y106680D02*
D03*
Y119380D02*
D03*
Y132080D02*
D03*
Y144780D02*
D03*
Y157480D02*
D03*
D82*
X692800Y70040D02*
D03*
Y62040D02*
D03*
X678800D02*
D03*
Y70040D02*
D03*
D83*
X752856Y773938D02*
D03*
Y791718D02*
D03*
X902970Y266700D02*
D03*
Y248920D02*
D03*
X1000760Y241300D02*
D03*
Y259080D02*
D03*
X568960Y95250D02*
D03*
Y77470D02*
D03*
X711200Y62230D02*
D03*
Y80010D02*
D03*
D84*
X74930Y200660D02*
D03*
Y188160D02*
D03*
Y175660D02*
D03*
Y163160D02*
D03*
D85*
X41430Y144660D02*
D03*
Y219160D02*
D03*
D86*
X160020Y464058D02*
D03*
X177800D02*
D03*
X389890Y274320D02*
D03*
X372110D02*
D03*
X1052830Y259080D02*
D03*
X1070610D02*
D03*
X645160Y271780D02*
D03*
X627380D02*
D03*
D87*
X561564Y279654D02*
D03*
X570265D02*
D03*
X813530Y279400D02*
D03*
X822230D02*
D03*
X986909Y142094D02*
D03*
X995609D02*
D03*
X1057609Y170094D02*
D03*
X1066309D02*
D03*
X1314899Y191294D02*
D03*
X1323599D02*
D03*
D88*
X878188Y27669D02*
D03*
X954188D02*
D03*
D89*
X947188Y53169D02*
D03*
X885188D02*
D03*
D90*
X929188Y55419D02*
D03*
X922688D02*
D03*
X916188D02*
D03*
X909688D02*
D03*
X903188D02*
D03*
D91*
X1025009Y122580D02*
D03*
X1012309D02*
D03*
X999609D02*
D03*
X986909D02*
D03*
X1025009Y51580D02*
D03*
X1012309D02*
D03*
X999609D02*
D03*
X986909D02*
D03*
D92*
X1011209Y158094D02*
D03*
X1020709D02*
D03*
X1011209Y174861D02*
D03*
X1020709D02*
D03*
X1045209Y64094D02*
D03*
X1054709D02*
D03*
X1146939Y120094D02*
D03*
X1156439D02*
D03*
X1156709Y74094D02*
D03*
X1147209D02*
D03*
X1181209D02*
D03*
X1190709D02*
D03*
X1258459Y184094D02*
D03*
X1267959D02*
D03*
X1147209Y42094D02*
D03*
X1156709D02*
D03*
Y58094D02*
D03*
X1147209D02*
D03*
X1350709Y247144D02*
D03*
X1341209D02*
D03*
X777570Y759460D02*
D03*
X787070D02*
D03*
D93*
X1045959Y145744D02*
D03*
Y154444D02*
D03*
X1203959Y58444D02*
D03*
Y49744D02*
D03*
X1215959Y91744D02*
D03*
Y100444D02*
D03*
Y124444D02*
D03*
Y115744D02*
D03*
X1243959Y225744D02*
D03*
Y234444D02*
D03*
X1221959Y235744D02*
D03*
Y244444D02*
D03*
X1363959Y106444D02*
D03*
Y97744D02*
D03*
D94*
X1093959Y118094D02*
D03*
D95*
X1059584Y132094D02*
D03*
Y108094D02*
D03*
Y104094D02*
D03*
Y112094D02*
D03*
Y92094D02*
D03*
Y120094D02*
D03*
Y128094D02*
D03*
Y136094D02*
D03*
Y100094D02*
D03*
Y96094D02*
D03*
Y124094D02*
D03*
Y116094D02*
D03*
Y144094D02*
D03*
Y140094D02*
D03*
X1128334Y92094D02*
D03*
Y96094D02*
D03*
Y100094D02*
D03*
Y104094D02*
D03*
Y108094D02*
D03*
Y112094D02*
D03*
Y116094D02*
D03*
Y120094D02*
D03*
Y124094D02*
D03*
Y128094D02*
D03*
Y132094D02*
D03*
Y136094D02*
D03*
Y140094D02*
D03*
Y144094D02*
D03*
D96*
X1119959Y83719D02*
D03*
Y152469D02*
D03*
X1115959D02*
D03*
X1111959D02*
D03*
X1107959D02*
D03*
X1103959D02*
D03*
X1099959D02*
D03*
X1095959D02*
D03*
X1091959D02*
D03*
X1087959D02*
D03*
X1083959D02*
D03*
X1079959D02*
D03*
X1075959D02*
D03*
X1071959D02*
D03*
X1067959D02*
D03*
X1111959Y83719D02*
D03*
X1107959D02*
D03*
X1103959D02*
D03*
X1099959D02*
D03*
X1095959D02*
D03*
X1091959D02*
D03*
X1087959D02*
D03*
X1083959D02*
D03*
X1079959D02*
D03*
X1075959D02*
D03*
X1071959D02*
D03*
X1067959D02*
D03*
X1115959D02*
D03*
D97*
X1146709Y244194D02*
D03*
Y231494D02*
D03*
Y218794D02*
D03*
Y206094D02*
D03*
Y193394D02*
D03*
Y180694D02*
D03*
Y167994D02*
D03*
X1201209Y244194D02*
D03*
Y231494D02*
D03*
Y218794D02*
D03*
Y206094D02*
D03*
Y193394D02*
D03*
Y180694D02*
D03*
Y167994D02*
D03*
X1266709Y247144D02*
D03*
Y234444D02*
D03*
Y221744D02*
D03*
Y209044D02*
D03*
X1321209Y247144D02*
D03*
Y234444D02*
D03*
Y221744D02*
D03*
Y209044D02*
D03*
D98*
X1193959Y98094D02*
D03*
Y118414D02*
D03*
X1176179D02*
D03*
Y98094D02*
D03*
D99*
X1270709Y52594D02*
D03*
X1229209D02*
D03*
X1270709Y74094D02*
D03*
X1229209D02*
D03*
X1289209D02*
D03*
X1330709D02*
D03*
X1289209Y52594D02*
D03*
X1330709D02*
D03*
D100*
X1288309Y126694D02*
D03*
X1275609Y113994D02*
D03*
X1288309D02*
D03*
X1275609Y126694D02*
D03*
X1288309Y139394D02*
D03*
X1275609D02*
D03*
D101*
X1382459Y185594D02*
D03*
Y168094D02*
D03*
Y150594D02*
D03*
X1345459D02*
D03*
Y168094D02*
D03*
Y185594D02*
D03*
D102*
X870580Y680720D02*
D03*
X841380D02*
D03*
D103*
X1189959Y49594D02*
D03*
X1173959D02*
D03*
Y58594D02*
D03*
X1189959D02*
D03*
D104*
X1490430Y63250D02*
D03*
X1440930D02*
D03*
D105*
X1459430Y95250D02*
D03*
X1471930D02*
D03*
D106*
X772460Y596700D02*
D03*
X531160D02*
D03*
D107*
X696460D02*
D03*
X620460D02*
D03*
X696460Y317700D02*
D03*
X734460D02*
D03*
X493160D02*
D03*
X455160D02*
D03*
X379160Y596700D02*
D03*
X455160D02*
D03*
D108*
X620460Y317700D02*
D03*
X772460D02*
D03*
X531160D02*
D03*
X379160D02*
D03*
D109*
X623570Y822700D02*
D03*
Y901700D02*
D03*
X702570Y822700D02*
D03*
Y901700D02*
D03*
D110*
X122710Y302260D02*
D03*
Y272260D02*
D03*
X92710Y302260D02*
D03*
Y272260D02*
D03*
X122710Y433070D02*
D03*
Y403070D02*
D03*
Y373070D02*
D03*
X92710Y433070D02*
D03*
Y403070D02*
D03*
Y373070D02*
D03*
X1554826Y322973D02*
D03*
Y292973D02*
D03*
Y262973D02*
D03*
X1524826Y322973D02*
D03*
Y292973D02*
D03*
Y262973D02*
D03*
D111*
X977900Y762000D02*
D03*
Y717650D02*
D03*
X933550D02*
D03*
X1022250D02*
D03*
Y762000D02*
D03*
X933550D02*
D03*
Y806350D02*
D03*
X977900D02*
D03*
X1022250D02*
D03*
Y971450D02*
D03*
X977900D02*
D03*
X933550D02*
D03*
Y927100D02*
D03*
X1022250D02*
D03*
Y882750D02*
D03*
X933550D02*
D03*
X977900D02*
D03*
Y927100D02*
D03*
X1206500Y590550D02*
D03*
Y546200D02*
D03*
X1162150D02*
D03*
X1250850D02*
D03*
Y590550D02*
D03*
X1162150D02*
D03*
Y634900D02*
D03*
X1206500D02*
D03*
X1250850D02*
D03*
X1371600Y590550D02*
D03*
Y546200D02*
D03*
X1327250D02*
D03*
X1415950D02*
D03*
Y590550D02*
D03*
X1327250D02*
D03*
Y634900D02*
D03*
X1371600D02*
D03*
X1415950D02*
D03*
D112*
X1597827Y408543D02*
D03*
Y486013D02*
D03*
D113*
Y383143D02*
D03*
Y460613D02*
D03*
D114*
X1281959Y152094D02*
D03*
X1292119Y101294D02*
D03*
X1271799D02*
D03*
D115*
X1256559Y152094D02*
D03*
X1307359D02*
D03*
Y120344D02*
D03*
X1256559D02*
D03*
D116*
X1452047Y167243D02*
D03*
X1507047D02*
D03*
X141072Y508000D02*
D03*
X196072Y550000D02*
D03*
Y508000D02*
D03*
X141072Y550000D02*
D03*
D117*
X1580047Y167243D02*
D03*
X68072Y529000D02*
D03*
D118*
X1415034Y33782D02*
D03*
D119*
Y59182D02*
D03*
Y84582D02*
D03*
M02*
