G04*
G04 #@! TF.GenerationSoftware,Altium Limited,Altium Designer,24.9.1 (31)*
G04*
G04 Layer_Color=16711935*
%FSLAX25Y25*%
%MOIN*%
G70*
G04*
G04 #@! TF.SameCoordinates,A58C8430-A11A-4511-A9C7-D2A71939ADB5*
G04*
G04*
G04 #@! TF.FilePolarity,Negative*
G04*
G01*
G75*
%ADD68C,0.08850*%
%ADD76R,0.04394X0.04894*%
%ADD87R,0.02598X0.02756*%
%ADD92R,0.02559X0.03347*%
%ADD93R,0.02756X0.02598*%
%ADD106R,0.09075X0.09075*%
%ADD107C,0.09075*%
%ADD108C,0.12323*%
G04:AMPARAMS|DCode=109|XSize=200.79mil|YSize=250mil|CornerRadius=51.18mil|HoleSize=0mil|Usage=FLASHONLY|Rotation=0.000|XOffset=0mil|YOffset=0mil|HoleType=Round|Shape=RoundedRectangle|*
%AMROUNDEDRECTD109*
21,1,0.20079,0.14764,0,0,0.0*
21,1,0.09843,0.25000,0,0,0.0*
1,1,0.10236,0.04921,-0.07382*
1,1,0.10236,-0.04921,-0.07382*
1,1,0.10236,-0.04921,0.07382*
1,1,0.10236,0.04921,0.07382*
%
%ADD109ROUNDEDRECTD109*%
%ADD110C,0.07000*%
%ADD111C,0.12992*%
%ADD112C,0.06772*%
G04:AMPARAMS|DCode=113|XSize=67.72mil|YSize=67.72mil|CornerRadius=17.91mil|HoleSize=0mil|Usage=FLASHONLY|Rotation=90.000|XOffset=0mil|YOffset=0mil|HoleType=Round|Shape=RoundedRectangle|*
%AMROUNDEDRECTD113*
21,1,0.06772,0.03189,0,0,90.0*
21,1,0.03189,0.06772,0,0,90.0*
1,1,0.03583,0.01595,0.01595*
1,1,0.03583,0.01595,-0.01595*
1,1,0.03583,-0.01595,-0.01595*
1,1,0.03583,-0.01595,0.01595*
%
%ADD113ROUNDEDRECTD113*%
%ADD114C,0.03794*%
%ADD115C,0.09594*%
%ADD116C,0.12205*%
%ADD117C,0.11811*%
G04:AMPARAMS|DCode=118|XSize=73.94mil|YSize=73.94mil|CornerRadius=19.47mil|HoleSize=0mil|Usage=FLASHONLY|Rotation=90.000|XOffset=0mil|YOffset=0mil|HoleType=Round|Shape=RoundedRectangle|*
%AMROUNDEDRECTD118*
21,1,0.07394,0.03500,0,0,90.0*
21,1,0.03500,0.07394,0,0,90.0*
1,1,0.03894,0.01750,0.01750*
1,1,0.03894,0.01750,-0.01750*
1,1,0.03894,-0.01750,-0.01750*
1,1,0.03894,-0.01750,0.01750*
%
%ADD118ROUNDEDRECTD118*%
%ADD119C,0.07394*%
%ADD149R,0.01968X0.02362*%
%ADD151O,0.06693X0.07000*%
D68*
X164425Y420000D02*
G03*
X164425Y420000I-4425J0D01*
G01*
X79425D02*
G03*
X79425Y420000I-4425J0D01*
G01*
X624425Y30000D02*
G03*
X624425Y30000I-4425J0D01*
G01*
X34425D02*
G03*
X34425Y30000I-4425J0D01*
G01*
X624425Y230000D02*
G03*
X624425Y230000I-4425J0D01*
G01*
X389425Y420000D02*
G03*
X389425Y420000I-4425J0D01*
G01*
D76*
X644416Y81344D02*
D03*
X637716D02*
D03*
D87*
X448153Y44515D02*
D03*
X444728D02*
D03*
X448153Y50431D02*
D03*
X444728D02*
D03*
X434492Y60273D02*
D03*
X437917D02*
D03*
X417444Y53580D02*
D03*
X414019D02*
D03*
X407996Y47281D02*
D03*
X404570D02*
D03*
D92*
X262870Y132000D02*
D03*
X259130D02*
D03*
D93*
X434629Y23797D02*
D03*
Y20372D02*
D03*
X422031Y37695D02*
D03*
Y41120D02*
D03*
X418881Y25372D02*
D03*
Y21947D02*
D03*
D106*
X304118Y234921D02*
D03*
X209118D02*
D03*
D107*
X274197D02*
D03*
X244276D02*
D03*
X274197Y125079D02*
D03*
X289158D02*
D03*
X194158D02*
D03*
X179197D02*
D03*
X149276Y234921D02*
D03*
X179197D02*
D03*
D108*
X244276Y125079D02*
D03*
X304118D02*
D03*
X209118D02*
D03*
X149276D02*
D03*
D109*
X245500Y323898D02*
D03*
Y355000D02*
D03*
X276602Y323898D02*
D03*
Y355000D02*
D03*
D110*
X48311Y119000D02*
D03*
Y107189D02*
D03*
X36500Y119000D02*
D03*
Y107189D02*
D03*
D111*
X385000Y300000D02*
D03*
Y282539D02*
D03*
X367539D02*
D03*
X402461D02*
D03*
Y300000D02*
D03*
X367539D02*
D03*
Y317461D02*
D03*
X385000D02*
D03*
X402461D02*
D03*
Y382461D02*
D03*
X385000D02*
D03*
X367539D02*
D03*
Y365000D02*
D03*
X402461D02*
D03*
Y347539D02*
D03*
X367539D02*
D03*
X385000D02*
D03*
Y365000D02*
D03*
X475000Y232500D02*
D03*
Y215039D02*
D03*
X457539D02*
D03*
X492461D02*
D03*
Y232500D02*
D03*
X457539D02*
D03*
Y249961D02*
D03*
X475000D02*
D03*
X492461D02*
D03*
X540000Y232500D02*
D03*
Y215039D02*
D03*
X522539D02*
D03*
X557461D02*
D03*
Y232500D02*
D03*
X522539D02*
D03*
Y249961D02*
D03*
X540000D02*
D03*
X557461D02*
D03*
D112*
X629066Y160844D02*
D03*
Y191344D02*
D03*
D113*
Y150844D02*
D03*
Y181344D02*
D03*
D114*
X504708Y59880D02*
D03*
X508708Y39880D02*
D03*
X500708D02*
D03*
D115*
X494708Y59880D02*
D03*
X514708D02*
D03*
Y47380D02*
D03*
X494708D02*
D03*
D116*
X571672Y65844D02*
D03*
X593326D02*
D03*
X55540Y200000D02*
D03*
X77194Y216535D02*
D03*
Y200000D02*
D03*
X55540Y216535D02*
D03*
D117*
X622066Y65844D02*
D03*
X26800Y208268D02*
D03*
D118*
X557100Y13300D02*
D03*
D119*
Y23300D02*
D03*
Y33300D02*
D03*
D149*
X167000Y132000D02*
D03*
X163063D02*
D03*
D151*
X48311Y170500D02*
D03*
Y158689D02*
D03*
Y146878D02*
D03*
X36500Y170500D02*
D03*
Y158689D02*
D03*
Y146878D02*
D03*
X612136Y127155D02*
D03*
Y115344D02*
D03*
Y103533D02*
D03*
X600325Y127155D02*
D03*
Y115344D02*
D03*
Y103533D02*
D03*
M02*
