M48
;Layer_Color=9474304
;FILE_FORMAT=4:4
METRIC,LZ
;TYPE=NON_PLATED
T17F00S00C0.8890
T18F00S00C2.3622
T19F00S00C3.0000
T20F00S00C3.0480
T21F00S00C4.1000
T22F00S00C4.4958
%
T17
X01271799Y00101294
X01292119
X01281959Y00152094
T18
X01256559Y00120344
Y00152094
X01307359
Y00120344
T19
X01580047Y00167243
X00068072Y00529
T20
X00049709Y0028726
X01597827Y00292973
X00049709Y0040307
T21
X012065Y0059055
X013716
X009779Y00762
Y009271
T22
X000762Y000762
X015748
Y005842
X001905Y010668
X004064
X009779
M30
