M48
;Layer_Color=9474304
;FILE_FORMAT=2:5
INCH,LZ
;TYPE=NON_PLATED
T17F00S00C0.03500
T18F00S00C0.09300
T19F00S00C0.11811
T20F00S00C0.12000
T21F00S00C0.16142
T22F00S00C0.17700
%
T17
X0500708Y003988
X0508708
X0504708Y005988
T18
X0494708Y004738
Y005988
X0514708
Y004738
T19
X0622066Y0065844
X00268Y0208268
T20
X001957Y0113094
X0629066Y0115344
X001957Y0158689
T21
X0475Y02325
X054
X0385Y03
Y0365
T22
X003Y003
X062
Y023
X0075Y042
X016
X0385
M30
