G04*
G04 #@! TF.GenerationSoftware,Altium Limited,Altium Designer,23.0.1 (38)*
G04*
G04 Layer_Physical_Order=2*
G04 Layer_Color=16711680*
%FSLAX44Y44*%
%MOMM*%
G71*
G04*
G04 #@! TF.SameCoordinates,8AFF7610-CFF1-491F-A99F-289BE66ABFEC*
G04*
G04*
G04 #@! TF.FilePolarity,Positive*
G04*
G01*
G75*
%ADD11C,0.2000*%
%ADD15R,1.0160X1.1430*%
%ADD20R,0.6000X0.5600*%
%ADD34C,1.0000*%
%ADD35C,0.6000*%
%ADD37C,1.3000*%
G04:AMPARAMS|DCode=38|XSize=1.3mm|YSize=1.3mm|CornerRadius=0.325mm|HoleSize=0mm|Usage=FLASHONLY|Rotation=90.000|XOffset=0mm|YOffset=0mm|HoleType=Round|Shape=RoundedRectangle|*
%AMROUNDEDRECTD38*
21,1,1.3000,0.6500,0,0,90.0*
21,1,0.6500,1.3000,0,0,90.0*
1,1,0.6500,0.3250,0.3250*
1,1,0.6500,0.3250,-0.3250*
1,1,0.6500,-0.3250,-0.3250*
1,1,0.6500,-0.3250,0.3250*
%
%ADD38ROUNDEDRECTD38*%
G04:AMPARAMS|DCode=39|XSize=1.62mm|YSize=1.62mm|CornerRadius=0.405mm|HoleSize=0mm|Usage=FLASHONLY|Rotation=270.000|XOffset=0mm|YOffset=0mm|HoleType=Round|Shape=RoundedRectangle|*
%AMROUNDEDRECTD39*
21,1,1.6200,0.8100,0,0,270.0*
21,1,0.8100,1.6200,0,0,270.0*
1,1,0.8100,-0.4050,-0.4050*
1,1,0.8100,-0.4050,0.4050*
1,1,0.8100,0.4050,0.4050*
1,1,0.8100,0.4050,-0.4050*
%
%ADD39ROUNDEDRECTD39*%
%ADD40C,1.6200*%
%ADD41C,3.2000*%
%ADD42C,3.0000*%
%ADD43C,3.0000*%
%ADD44C,3.1750*%
%ADD45C,0.7000*%
%ADD46C,1.0000*%
%ADD47C,1.5000*%
%ADD48R,1.2700X0.5588*%
G04:AMPARAMS|DCode=49|XSize=0.55mm|YSize=0.75mm|CornerRadius=0mm|HoleSize=0mm|Usage=FLASHONLY|Rotation=135.000|XOffset=0mm|YOffset=0mm|HoleType=Round|Shape=Rectangle|*
%AMROTATEDRECTD49*
4,1,4,0.4596,0.0707,-0.0707,-0.4596,-0.4596,-0.0707,0.0707,0.4596,0.4596,0.0707,0.0*
%
%ADD49ROTATEDRECTD49*%

%ADD50R,0.7500X0.5500*%
G04:AMPARAMS|DCode=51|XSize=0.2mm|YSize=0.6mm|CornerRadius=0.05mm|HoleSize=0mm|Usage=FLASHONLY|Rotation=270.000|XOffset=0mm|YOffset=0mm|HoleType=Round|Shape=RoundedRectangle|*
%AMROUNDEDRECTD51*
21,1,0.2000,0.5000,0,0,270.0*
21,1,0.1000,0.6000,0,0,270.0*
1,1,0.1000,-0.2500,-0.0500*
1,1,0.1000,-0.2500,0.0500*
1,1,0.1000,0.2500,0.0500*
1,1,0.1000,0.2500,-0.0500*
%
%ADD51ROUNDEDRECTD51*%
G04:AMPARAMS|DCode=52|XSize=0.2mm|YSize=0.6mm|CornerRadius=0.05mm|HoleSize=0mm|Usage=FLASHONLY|Rotation=0.000|XOffset=0mm|YOffset=0mm|HoleType=Round|Shape=RoundedRectangle|*
%AMROUNDEDRECTD52*
21,1,0.2000,0.5000,0,0,0.0*
21,1,0.1000,0.6000,0,0,0.0*
1,1,0.1000,0.0500,-0.2500*
1,1,0.1000,-0.0500,-0.2500*
1,1,0.1000,-0.0500,0.2500*
1,1,0.1000,0.0500,0.2500*
%
%ADD52ROUNDEDRECTD52*%
%ADD53R,1.4000X1.4000*%
%ADD54R,0.5080X1.2192*%
%ADD55R,1.1430X1.0160*%
%ADD56R,0.5500X0.7500*%
%ADD57R,0.5588X1.2700*%
%ADD58R,8.8900X11.4300*%
%ADD59R,3.8100X2.0828*%
%ADD60R,11.4300X8.8900*%
%ADD61R,2.0828X3.8100*%
G04:AMPARAMS|DCode=62|XSize=1mm|YSize=1mm|CornerRadius=0.25mm|HoleSize=0mm|Usage=FLASHONLY|Rotation=180.000|XOffset=0mm|YOffset=0mm|HoleType=Round|Shape=RoundedRectangle|*
%AMROUNDEDRECTD62*
21,1,1.0000,0.5000,0,0,180.0*
21,1,0.5000,1.0000,0,0,180.0*
1,1,0.5000,-0.2500,0.2500*
1,1,0.5000,0.2500,0.2500*
1,1,0.5000,0.2500,-0.2500*
1,1,0.5000,-0.2500,-0.2500*
%
%ADD62ROUNDEDRECTD62*%
G04:AMPARAMS|DCode=63|XSize=7.6mm|YSize=2.5mm|CornerRadius=0.625mm|HoleSize=0mm|Usage=FLASHONLY|Rotation=90.000|XOffset=0mm|YOffset=0mm|HoleType=Round|Shape=RoundedRectangle|*
%AMROUNDEDRECTD63*
21,1,7.6000,1.2500,0,0,90.0*
21,1,6.3500,2.5000,0,0,90.0*
1,1,1.2500,0.6250,3.1750*
1,1,1.2500,0.6250,-3.1750*
1,1,1.2500,-0.6250,-3.1750*
1,1,1.2500,-0.6250,3.1750*
%
%ADD63ROUNDEDRECTD63*%
G04:AMPARAMS|DCode=64|XSize=1.2mm|YSize=1.22mm|CornerRadius=0.3mm|HoleSize=0mm|Usage=FLASHONLY|Rotation=90.000|XOffset=0mm|YOffset=0mm|HoleType=Round|Shape=RoundedRectangle|*
%AMROUNDEDRECTD64*
21,1,1.2000,0.6200,0,0,90.0*
21,1,0.6000,1.2200,0,0,90.0*
1,1,0.6000,0.3100,0.3000*
1,1,0.6000,0.3100,-0.3000*
1,1,0.6000,-0.3100,-0.3000*
1,1,0.6000,-0.3100,0.3000*
%
%ADD64ROUNDEDRECTD64*%
G04:AMPARAMS|DCode=65|XSize=1.2mm|YSize=1.22mm|CornerRadius=0.3mm|HoleSize=0mm|Usage=FLASHONLY|Rotation=0.000|XOffset=0mm|YOffset=0mm|HoleType=Round|Shape=RoundedRectangle|*
%AMROUNDEDRECTD65*
21,1,1.2000,0.6200,0,0,0.0*
21,1,0.6000,1.2200,0,0,0.0*
1,1,0.6000,0.3000,-0.3100*
1,1,0.6000,-0.3000,-0.3100*
1,1,0.6000,-0.3000,0.3100*
1,1,0.6000,0.3000,0.3100*
%
%ADD65ROUNDEDRECTD65*%
%ADD66R,0.5600X0.6000*%
%ADD67C,0.4000*%
G36*
X-676730Y131570D02*
Y83310D01*
X-681810Y78230D01*
X-744040D01*
X-761820Y60450D01*
X-767440D01*
Y60545D01*
X-781600D01*
Y49560D01*
X-783410Y47750D01*
X-806270D01*
X-846910Y7110D01*
X-939040D01*
X-939800Y6350D01*
X-999490D01*
X-1035050Y-29210D01*
Y-146050D01*
X-1041400Y-152400D01*
X-1079500D01*
X-1085850Y-146050D01*
Y130810D01*
X-1078230Y138430D01*
X-683260D01*
X-676730Y131570D01*
D02*
G37*
G36*
X-754555Y45655D02*
X-752901Y44550D01*
X-751928Y44357D01*
Y31850D01*
X-753600D01*
Y23620D01*
X-753600Y22350D01*
X-753600D01*
Y22350D01*
X-753600D01*
Y14617D01*
X-754582Y13811D01*
X-755470Y13988D01*
X-756358Y13811D01*
X-757340Y14617D01*
Y22350D01*
X-768840D01*
Y12850D01*
X-766149D01*
Y8377D01*
X-769294Y5232D01*
X-770973Y5349D01*
X-775271Y9647D01*
Y12850D01*
X-772580D01*
Y22350D01*
X-784080D01*
Y12850D01*
X-782080D01*
X-781878Y12045D01*
X-782222Y11738D01*
X-782968Y11236D01*
X-783987Y11439D01*
X-783987Y11439D01*
X-787455D01*
X-787608Y11668D01*
X-787820Y12850D01*
X-787820D01*
Y22350D01*
X-799320D01*
Y14845D01*
X-805927D01*
X-806295Y15395D01*
X-808114Y16611D01*
X-810260Y17038D01*
X-812406Y16611D01*
X-814225Y15395D01*
X-815441Y13576D01*
X-815868Y11430D01*
X-815441Y9284D01*
X-814225Y7465D01*
X-812406Y6249D01*
X-810260Y5822D01*
X-809425Y4987D01*
X-809488Y4672D01*
X-809061Y2526D01*
X-807845Y706D01*
X-806026Y-509D01*
X-803880Y-936D01*
X-801734Y-509D01*
X-799914Y706D01*
X-799675Y1064D01*
X-798199Y1179D01*
X-795237Y-1783D01*
X-795237Y-1783D01*
X-794244Y-2446D01*
X-793564Y-2581D01*
X-793689Y-3851D01*
X-816053D01*
X-824607Y4703D01*
X-825599Y5366D01*
X-826770Y5599D01*
X-826770Y5599D01*
X-843741D01*
X-844267Y6869D01*
X-805425Y45711D01*
X-798618D01*
Y45115D01*
X-784458D01*
Y45115D01*
X-783410Y45711D01*
X-782870Y45818D01*
X-782631Y45691D01*
X-781600Y45115D01*
X-781600Y45115D01*
X-781600Y45115D01*
X-767440D01*
Y47162D01*
X-755562D01*
X-754555Y45655D01*
D02*
G37*
G36*
X-640510Y1360D02*
X-632789D01*
X-631779Y760D01*
X-631624Y-20D01*
X-631182Y-682D01*
X-626619Y-5245D01*
X-626622Y-5269D01*
X-627194Y-6466D01*
X-651034D01*
Y-4731D01*
X-667734D01*
Y-14319D01*
X-656441D01*
X-655812Y-15589D01*
X-656691Y-16904D01*
X-657118Y-19050D01*
X-656691Y-21196D01*
X-655812Y-22511D01*
X-656441Y-23781D01*
X-667734D01*
Y-27261D01*
X-669004Y-27386D01*
X-669038Y-27215D01*
X-669996Y-25781D01*
X-669890Y-25249D01*
Y-21011D01*
X-670123Y-19841D01*
X-670786Y-18848D01*
X-670786Y-18848D01*
X-679530Y-10104D01*
Y-6913D01*
X-678260Y-6234D01*
X-677936Y-6451D01*
X-675790Y-6878D01*
X-673644Y-6451D01*
X-671825Y-5235D01*
X-670609Y-3416D01*
X-670182Y-1270D01*
X-670609Y876D01*
X-671825Y2695D01*
X-671953Y2781D01*
X-671568Y4051D01*
X-640510D01*
Y1360D01*
D02*
G37*
G36*
X-689530Y-14230D02*
X-684056D01*
X-676008Y-22278D01*
Y-24109D01*
X-676365Y-24180D01*
X-678184Y-25396D01*
X-679400Y-27215D01*
X-679827Y-29361D01*
X-679400Y-31507D01*
X-678184Y-33326D01*
X-676365Y-34542D01*
X-674219Y-34969D01*
X-672073Y-34542D01*
X-670254Y-33326D01*
X-669038Y-31507D01*
X-669004Y-31337D01*
X-667734Y-31462D01*
Y-33369D01*
X-655360D01*
X-652918Y-35811D01*
Y-39275D01*
X-656939D01*
Y-42661D01*
X-679453D01*
X-688350Y-33765D01*
X-686447Y-31862D01*
X-693164Y-25144D01*
Y-25144D01*
X-693164Y-25144D01*
X-699882Y-18427D01*
X-703055Y-21600D01*
X-704557Y-20097D01*
X-705549Y-19434D01*
X-706720Y-19201D01*
X-706720Y-19201D01*
X-731497D01*
X-732667Y-19434D01*
X-733660Y-20097D01*
X-733660Y-20097D01*
X-734414Y-20851D01*
X-738766D01*
X-739252Y-19678D01*
X-735707Y-16133D01*
X-735044Y-15141D01*
X-734811Y-13970D01*
X-735044Y-12800D01*
X-735707Y-11807D01*
X-736700Y-11144D01*
X-737870Y-10911D01*
X-738793Y-11095D01*
X-739402Y-10353D01*
X-739542Y-10047D01*
X-738251Y-8757D01*
X-736886Y-8850D01*
X-736755Y-9045D01*
X-734936Y-10261D01*
X-732790Y-10688D01*
X-730644Y-10261D01*
X-728825Y-9045D01*
X-727609Y-7226D01*
X-727202Y-5181D01*
X-726968Y-4925D01*
X-726050Y-4260D01*
X-723145D01*
X-722824Y-5530D01*
X-723523Y-5997D01*
X-724186Y-6989D01*
X-724419Y-8160D01*
X-724186Y-9330D01*
X-723523Y-10323D01*
X-722531Y-10986D01*
X-721360Y-11219D01*
X-717090D01*
X-714716Y-13593D01*
X-713724Y-14256D01*
X-712553Y-14489D01*
X-712553Y-14489D01*
X-711200D01*
X-710030Y-14256D01*
X-709037Y-13593D01*
X-708374Y-12601D01*
X-708141Y-11430D01*
X-708374Y-10259D01*
X-709037Y-9267D01*
X-710030Y-8604D01*
X-710116Y-8587D01*
X-710274Y-8290D01*
X-709513Y-7020D01*
X-702310D01*
Y-7020D01*
X-702310Y-7020D01*
X-701040Y-7020D01*
X-692810D01*
Y-4169D01*
X-689530D01*
Y-14230D01*
D02*
G37*
G36*
X-274320Y129540D02*
Y-8890D01*
X-284990Y-19560D01*
X-504792D01*
X-504917Y-18290D01*
X-502592Y-17828D01*
X-499218Y-16430D01*
X-496181Y-14401D01*
X-493599Y-11819D01*
X-491570Y-8782D01*
X-490173Y-5408D01*
X-489460Y-1826D01*
Y1826D01*
X-490173Y5408D01*
X-491570Y8782D01*
X-493599Y11819D01*
X-496181Y14401D01*
X-499218Y16430D01*
X-502592Y17828D01*
X-506174Y18540D01*
X-509826D01*
X-513408Y17828D01*
X-516782Y16430D01*
X-519819Y14401D01*
X-522401Y11819D01*
X-524430Y8782D01*
X-525827Y5408D01*
X-526540Y1826D01*
Y-1826D01*
X-525827Y-5408D01*
X-524430Y-8782D01*
X-522401Y-11819D01*
X-519819Y-14401D01*
X-516782Y-16430D01*
X-513408Y-17828D01*
X-511083Y-18290D01*
X-511208Y-19560D01*
X-609420D01*
X-629740Y760D01*
Y12860D01*
X-647860D01*
X-657860Y22860D01*
Y132080D01*
X-649480Y140460D01*
X-285240D01*
X-274320Y129540D01*
D02*
G37*
G36*
X-796445Y-11239D02*
X-796579Y-11910D01*
Y-20851D01*
X-798113D01*
X-801567Y-17397D01*
X-802560Y-16734D01*
X-803730Y-16501D01*
X-804901Y-16734D01*
X-805893Y-17397D01*
X-806556Y-18390D01*
X-806789Y-19560D01*
X-806556Y-20731D01*
X-805893Y-21723D01*
X-803938Y-23678D01*
X-804424Y-24851D01*
X-811610D01*
Y-14980D01*
X-813551D01*
Y-13970D01*
X-813784Y-12799D01*
X-814447Y-11807D01*
X-814447Y-11807D01*
X-815112Y-11142D01*
X-814626Y-9969D01*
X-797242D01*
X-796445Y-11239D01*
D02*
G37*
G36*
X568562Y362158D02*
X580233Y360309D01*
X591721Y357551D01*
X602958Y353900D01*
X613875Y349378D01*
X624402Y344014D01*
X634477Y337841D01*
X644035Y330896D01*
X653020Y323223D01*
X661374Y314868D01*
X669048Y305883D01*
X675993Y296325D01*
X682166Y286250D01*
X687531Y275722D01*
X692052Y264806D01*
X695703Y253569D01*
X698462Y242080D01*
X700310Y230410D01*
X701237Y218631D01*
Y212724D01*
Y-212726D01*
Y-218634D01*
X700310Y-230413D01*
X698462Y-242083D01*
X695703Y-253572D01*
X692052Y-264809D01*
X687531Y-275725D01*
X682167Y-286252D01*
X675993Y-296327D01*
X669048Y-305886D01*
X661375Y-314870D01*
X653020Y-323225D01*
X644035Y-330898D01*
X634477Y-337843D01*
X624402Y-344017D01*
X613875Y-349381D01*
X602959Y-353902D01*
X591721Y-357553D01*
X580233Y-360312D01*
X568563Y-362160D01*
X556783Y-363087D01*
X-974494D01*
X-974980Y-361914D01*
X-967568Y-354502D01*
X-967126Y-353840D01*
X-966971Y-353060D01*
Y-333259D01*
X-876300D01*
X-876300Y-333259D01*
X-875129Y-333026D01*
X-874137Y-332363D01*
X-857923Y-316149D01*
X-857260Y-315156D01*
X-857027Y-313986D01*
X-857027Y-313986D01*
Y-253501D01*
X-854336D01*
Y-245271D01*
X-854336Y-244001D01*
X-854336Y-242725D01*
X-853438Y-241827D01*
X-848370D01*
Y-243080D01*
X-845305D01*
Y-250351D01*
X-845305Y-250351D01*
X-845072Y-251521D01*
X-844409Y-252514D01*
X-842916Y-254007D01*
Y-261181D01*
X-834686D01*
X-833416Y-261181D01*
X-832146Y-261181D01*
X-823916D01*
Y-259101D01*
X-822960Y-258329D01*
X-821789Y-258096D01*
X-820797Y-257433D01*
X-817029Y-253665D01*
X-817029Y-253665D01*
X-816366Y-252673D01*
X-816133Y-251502D01*
Y-233555D01*
X-810842D01*
Y-223967D01*
X-827542D01*
Y-225702D01*
X-868841D01*
X-870012Y-225935D01*
X-871004Y-226598D01*
X-871004Y-226598D01*
X-874608Y-230202D01*
X-875781Y-229716D01*
Y-218437D01*
X-869174Y-211830D01*
X-866734D01*
X-865836Y-212728D01*
Y-213521D01*
X-865836Y-214791D01*
Y-223021D01*
X-854336D01*
Y-221812D01*
X-848370D01*
Y-224030D01*
X-831670D01*
Y-214442D01*
X-834167D01*
Y-207680D01*
X-831850D01*
Y-207680D01*
X-831850Y-207680D01*
X-830580Y-207680D01*
X-822350D01*
Y-204816D01*
X-813897D01*
X-813897Y-204816D01*
X-812727Y-204583D01*
X-811734Y-203920D01*
X-809054Y-201240D01*
X-809054Y-201240D01*
X-808829Y-200903D01*
X-808114Y-200761D01*
X-806295Y-199545D01*
X-805079Y-197726D01*
X-804652Y-195580D01*
X-805079Y-193434D01*
X-805664Y-192558D01*
X-804986Y-191288D01*
X-797830D01*
X-797829Y-191288D01*
X-796659Y-191055D01*
X-795667Y-190392D01*
X-793683Y-188409D01*
X-793683Y-188409D01*
X-793020Y-187416D01*
X-792858Y-186600D01*
X-791324Y-185575D01*
X-790108Y-183756D01*
X-789682Y-181610D01*
X-790108Y-179464D01*
X-791324Y-177645D01*
X-793085Y-176468D01*
X-793102Y-176374D01*
X-792662Y-175198D01*
X-766559D01*
X-758534Y-183224D01*
X-758534Y-183224D01*
X-757211Y-184108D01*
X-755650Y-184418D01*
X-754380D01*
Y-189230D01*
X-751840Y-191770D01*
X-730839D01*
Y-279910D01*
X-730684Y-280690D01*
X-730242Y-281352D01*
X-726432Y-285162D01*
X-725770Y-285604D01*
X-724990Y-285759D01*
X-455616Y-285759D01*
X-455460Y-285728D01*
X-455301Y-285735D01*
X-455073Y-285651D01*
X-454836Y-285604D01*
X-454703Y-285516D01*
X-454554Y-285461D01*
X-454376Y-285297D01*
X-454174Y-285162D01*
X-454086Y-285030D01*
X-453969Y-284922D01*
X-449203Y-278392D01*
X-449101Y-278172D01*
X-448966Y-277970D01*
X-448935Y-277814D01*
X-448868Y-277670D01*
X-448858Y-277427D01*
X-448811Y-277190D01*
Y-152400D01*
X-448866Y-152122D01*
X-448890Y-151839D01*
X-448943Y-151735D01*
X-448966Y-151620D01*
X-449124Y-151384D01*
X-449253Y-151131D01*
X-457967Y-140164D01*
X-456985Y-139359D01*
X-450105Y-147479D01*
X-450038Y-147532D01*
X-449992Y-147602D01*
X-449988Y-147604D01*
X-449985Y-147609D01*
X-449981Y-147612D01*
X-449980Y-147614D01*
X-449763Y-147756D01*
X-449726Y-147781D01*
X-449482Y-147974D01*
X-449399Y-147998D01*
X-449330Y-148044D01*
X-449327Y-148045D01*
X-449322Y-148048D01*
X-449316Y-148050D01*
X-449314Y-148051D01*
X-449160Y-148080D01*
X-449016Y-148108D01*
X-448717Y-148193D01*
X-448629Y-148183D01*
X-448550Y-148199D01*
X-448546D01*
X-448540Y-148200D01*
X-448535Y-148199D01*
X-441653D01*
X-441250Y-148745D01*
X-441087Y-149292D01*
X-441101Y-149511D01*
X-443514Y-152349D01*
X-443668Y-152626D01*
X-443844Y-152890D01*
X-443860Y-152971D01*
X-443901Y-153044D01*
X-443937Y-153359D01*
X-443999Y-153670D01*
Y-226060D01*
X-443999Y-226060D01*
X-443844Y-226840D01*
X-443402Y-227502D01*
X-443402Y-227502D01*
X-434512Y-236392D01*
X-433850Y-236834D01*
X-433070Y-236989D01*
X-331470D01*
X-331470Y-236989D01*
X-330690Y-236834D01*
X-330028Y-236392D01*
X-323678Y-230042D01*
X-323236Y-229380D01*
X-323081Y-228600D01*
Y-146145D01*
X-309150D01*
Y-130715D01*
X-313171D01*
Y-123768D01*
X-312500D01*
X-310549Y-123380D01*
X-308895Y-122275D01*
X-307790Y-120621D01*
X-307402Y-118670D01*
Y-112470D01*
X-307790Y-110519D01*
X-308895Y-108865D01*
X-309984Y-108138D01*
X-310263Y-106621D01*
X-310077Y-106435D01*
X-309414Y-105443D01*
X-309181Y-104272D01*
X-309181Y-104272D01*
Y-99790D01*
X-300006D01*
Y-57690D01*
X-310680D01*
Y-52022D01*
X-310912Y-50851D01*
X-311576Y-49859D01*
X-311576Y-49859D01*
X-319907Y-41527D01*
X-320900Y-40864D01*
X-322070Y-40631D01*
X-322070Y-40631D01*
X-562000Y-40631D01*
Y-38700D01*
X-570230D01*
X-571500Y-38700D01*
X-572770Y-38700D01*
X-581000D01*
Y-41391D01*
X-584589D01*
X-585864Y-40539D01*
X-588010Y-40112D01*
X-590156Y-40539D01*
X-591975Y-41755D01*
X-593191Y-43574D01*
X-593618Y-45720D01*
X-593191Y-47866D01*
X-591975Y-49685D01*
X-590156Y-50901D01*
X-588010Y-51328D01*
X-585864Y-50901D01*
X-584045Y-49685D01*
X-582829Y-47866D01*
X-582758Y-47509D01*
X-581000D01*
Y-50200D01*
X-572770D01*
X-571500Y-50200D01*
X-570230Y-50200D01*
X-562000D01*
Y-46749D01*
X-417511Y-46749D01*
X-417079Y-47943D01*
X-421675Y-51774D01*
X-421734Y-51846D01*
X-421812Y-51898D01*
X-421983Y-52154D01*
X-422176Y-52392D01*
X-422202Y-52482D01*
X-422254Y-52560D01*
X-422314Y-52861D01*
X-422401Y-53155D01*
X-422391Y-53248D01*
X-422409Y-53340D01*
Y-66031D01*
X-607890D01*
Y-64090D01*
X-609631D01*
Y-52790D01*
X-609864Y-51620D01*
X-610527Y-50627D01*
X-616701Y-44453D01*
Y-36170D01*
X-614010D01*
Y-27940D01*
X-614010Y-26670D01*
X-614010Y-25400D01*
Y-19513D01*
X-612837Y-19027D01*
X-610862Y-21002D01*
X-610200Y-21444D01*
X-609420Y-21599D01*
X-511208D01*
X-510914Y-21541D01*
X-510616Y-21511D01*
X-510527Y-21464D01*
X-510428Y-21444D01*
X-510178Y-21277D01*
X-509914Y-21136D01*
X-509850Y-21058D01*
X-509766Y-21002D01*
X-509599Y-20753D01*
X-509409Y-20521D01*
X-509380Y-20424D01*
X-509324Y-20340D01*
X-509266Y-20047D01*
X-509179Y-19760D01*
X-509057Y-18526D01*
X-508000Y-18630D01*
X-506943Y-18526D01*
X-506821Y-19760D01*
X-506735Y-20047D01*
X-506676Y-20340D01*
X-506620Y-20424D01*
X-506590Y-20521D01*
X-506400Y-20753D01*
X-506234Y-21002D01*
X-506150Y-21058D01*
X-506086Y-21136D01*
X-505822Y-21277D01*
X-505572Y-21444D01*
X-505473Y-21464D01*
X-505384Y-21511D01*
X-505086Y-21541D01*
X-504792Y-21599D01*
X-284990D01*
X-284210Y-21444D01*
X-283548Y-21002D01*
X-283548Y-21002D01*
X-272878Y-10332D01*
X-272436Y-9670D01*
X-272281Y-8890D01*
Y129540D01*
X-272436Y130320D01*
X-272878Y130982D01*
X-283798Y141902D01*
X-284460Y142344D01*
X-285240Y142499D01*
X-649480D01*
X-650260Y142344D01*
X-650922Y141902D01*
X-650922Y141902D01*
X-659302Y133522D01*
X-659744Y132860D01*
X-659899Y132080D01*
Y22860D01*
X-659744Y22080D01*
X-659302Y21418D01*
X-649323Y11439D01*
X-649325Y11350D01*
X-649718Y10169D01*
X-743460D01*
X-744631Y9936D01*
X-745623Y9273D01*
X-745623Y9273D01*
X-749200Y5696D01*
X-749708Y5947D01*
X-750247Y6445D01*
X-749862Y8380D01*
X-750289Y10526D01*
X-750993Y11580D01*
X-750315Y12850D01*
X-742100D01*
Y13421D01*
X-740830Y13806D01*
X-740715Y13635D01*
X-738896Y12419D01*
X-736750Y11992D01*
X-734604Y12419D01*
X-732785Y13635D01*
X-731569Y15454D01*
X-731142Y17600D01*
X-731569Y19746D01*
X-732785Y21565D01*
X-734604Y22781D01*
X-736750Y23208D01*
X-738896Y22781D01*
X-740715Y21565D01*
X-741864Y22132D01*
X-742100Y22350D01*
Y22350D01*
X-742100D01*
Y31850D01*
X-743772D01*
Y44357D01*
X-742799Y44550D01*
X-741145Y45655D01*
X-740138Y47162D01*
X-730800D01*
Y37876D01*
X-688700D01*
Y62704D01*
X-730800D01*
Y57358D01*
X-740138D01*
X-741145Y58865D01*
X-742799Y59970D01*
X-744750Y60358D01*
X-750950D01*
X-752901Y59970D01*
X-754555Y58865D01*
X-755562Y57358D01*
X-760185D01*
X-760958Y58536D01*
X-760947Y58628D01*
X-760378Y59008D01*
X-760378Y59008D01*
X-743195Y76191D01*
X-681810D01*
X-681810Y76191D01*
X-681030Y76346D01*
X-680368Y76788D01*
X-680368Y76788D01*
X-675288Y81868D01*
X-674846Y82530D01*
X-674691Y83310D01*
Y131570D01*
X-674763Y131936D01*
X-674827Y132304D01*
X-674841Y132325D01*
X-674846Y132350D01*
X-675053Y132661D01*
X-675253Y132976D01*
X-681783Y139836D01*
X-681804Y139851D01*
X-681818Y139872D01*
X-682128Y140079D01*
X-682433Y140294D01*
X-682458Y140300D01*
X-682480Y140314D01*
X-682845Y140387D01*
X-683210Y140469D01*
X-683235Y140464D01*
X-683260Y140469D01*
X-720591D01*
Y363085D01*
X556783D01*
X568562Y362158D01*
D02*
G37*
G36*
X-821099Y-13807D02*
X-821585Y-14980D01*
X-821610D01*
Y-25421D01*
X-823500D01*
X-823500Y-25421D01*
X-824670Y-25654D01*
X-825663Y-26317D01*
X-825663Y-26317D01*
X-831623Y-32277D01*
X-832286Y-33270D01*
X-832519Y-34440D01*
X-832519Y-34440D01*
Y-35139D01*
X-833425Y-35745D01*
X-834641Y-37564D01*
X-835068Y-39710D01*
X-834641Y-41856D01*
X-833425Y-43675D01*
X-831606Y-44891D01*
X-829460Y-45318D01*
X-827314Y-44891D01*
X-825495Y-43675D01*
X-824279Y-41856D01*
X-823852Y-39710D01*
X-824279Y-37564D01*
X-825495Y-35745D01*
X-825579Y-34885D01*
X-822880Y-32186D01*
X-821610Y-32712D01*
Y-33280D01*
X-811610D01*
Y-30969D01*
X-809007D01*
X-808409Y-32089D01*
X-808715Y-32546D01*
X-809141Y-34692D01*
X-808715Y-36838D01*
X-807499Y-38657D01*
X-805680Y-39873D01*
X-805441Y-39921D01*
X-805072Y-41136D01*
X-807343Y-43407D01*
X-808006Y-44399D01*
X-808239Y-45570D01*
X-808239Y-45570D01*
Y-45720D01*
X-808006Y-46891D01*
X-807343Y-47883D01*
X-806350Y-48546D01*
X-805180Y-48779D01*
X-804009Y-48546D01*
X-803017Y-47883D01*
X-802715Y-47430D01*
X-798253Y-42969D01*
X-793670D01*
X-792499Y-42736D01*
X-791782Y-42256D01*
X-790867Y-43172D01*
X-791346Y-43889D01*
X-791579Y-45060D01*
X-791346Y-46231D01*
X-790683Y-47223D01*
X-789690Y-47886D01*
X-788588Y-48105D01*
X-788454Y-48307D01*
X-788075Y-49389D01*
X-790238Y-51551D01*
X-792480D01*
X-793651Y-51784D01*
X-794643Y-52447D01*
X-794643Y-52447D01*
X-797183Y-54987D01*
X-797846Y-55979D01*
X-798079Y-57150D01*
X-798079Y-57150D01*
Y-63500D01*
X-797846Y-64671D01*
X-797183Y-65663D01*
X-796190Y-66326D01*
X-795020Y-66559D01*
X-793849Y-66326D01*
X-792857Y-65663D01*
X-792194Y-64671D01*
X-791961Y-63500D01*
Y-58417D01*
X-791213Y-57669D01*
X-788971D01*
X-788970Y-57669D01*
X-787881Y-57452D01*
X-787629Y-57714D01*
X-787144Y-58502D01*
X-788201Y-60084D01*
X-788628Y-62230D01*
X-788201Y-64376D01*
X-786985Y-66195D01*
X-785166Y-67411D01*
X-783020Y-67838D01*
X-780874Y-67411D01*
X-780699Y-67294D01*
X-779579Y-67892D01*
Y-76173D01*
X-785997Y-82591D01*
X-827281D01*
Y-79580D01*
X-828202D01*
Y-75020D01*
X-827281D01*
Y-65420D01*
X-837281D01*
Y-66342D01*
X-839426D01*
X-840500Y-65870D01*
Y-56370D01*
X-844501D01*
X-846251Y-56022D01*
X-866738D01*
X-871245Y-51515D01*
X-872899Y-50410D01*
X-874850Y-50022D01*
X-906391D01*
X-908007Y-47917D01*
X-910116Y-46298D01*
X-912573Y-45280D01*
X-915210Y-44933D01*
X-917847Y-45280D01*
X-920303Y-46298D01*
X-922413Y-47917D01*
X-924032Y-50026D01*
X-925050Y-52483D01*
X-925397Y-55120D01*
X-925050Y-57757D01*
X-924032Y-60214D01*
X-922413Y-62323D01*
X-920303Y-63942D01*
X-917847Y-64960D01*
X-915210Y-65307D01*
X-912573Y-64960D01*
X-910116Y-63942D01*
X-908007Y-62323D01*
X-906391Y-60218D01*
X-876962D01*
X-872455Y-64725D01*
X-870801Y-65830D01*
X-868850Y-66218D01*
X-852001D01*
Y-75370D01*
X-840500D01*
Y-74498D01*
X-837281D01*
Y-75020D01*
X-836359D01*
Y-79580D01*
X-837281D01*
Y-89202D01*
X-839426D01*
X-840500Y-88730D01*
Y-79230D01*
X-844501D01*
X-846251Y-78882D01*
X-860388D01*
X-862355Y-76915D01*
X-864009Y-75810D01*
X-865960Y-75422D01*
X-906391D01*
X-908007Y-73317D01*
X-910116Y-71698D01*
X-912573Y-70680D01*
X-915210Y-70333D01*
X-917847Y-70680D01*
X-920303Y-71698D01*
X-922413Y-73317D01*
X-924032Y-75426D01*
X-925050Y-77883D01*
X-925397Y-80520D01*
X-925050Y-83157D01*
X-924032Y-85614D01*
X-922413Y-87723D01*
X-920303Y-89342D01*
X-917847Y-90360D01*
X-915210Y-90707D01*
X-912573Y-90360D01*
X-910116Y-89342D01*
X-908007Y-87723D01*
X-906391Y-85618D01*
X-868072D01*
X-866105Y-87585D01*
X-864451Y-88690D01*
X-862500Y-89078D01*
X-852001D01*
Y-98230D01*
X-840500D01*
Y-97358D01*
X-837281D01*
Y-97880D01*
X-836359D01*
Y-102440D01*
X-837281D01*
Y-112062D01*
X-839426D01*
X-840500Y-111590D01*
Y-102090D01*
X-844501D01*
X-846251Y-101742D01*
X-906008D01*
X-906388Y-100826D01*
X-908007Y-98717D01*
X-910116Y-97098D01*
X-912573Y-96080D01*
X-915210Y-95733D01*
X-917847Y-96080D01*
X-920303Y-97098D01*
X-922413Y-98717D01*
X-924032Y-100826D01*
X-925050Y-103283D01*
X-925397Y-105920D01*
X-925050Y-108557D01*
X-924032Y-111014D01*
X-922413Y-113123D01*
X-920303Y-114742D01*
X-917847Y-115760D01*
X-915210Y-116107D01*
X-912573Y-115760D01*
X-910116Y-114742D01*
X-908007Y-113123D01*
X-907097Y-111938D01*
X-852001D01*
Y-121090D01*
X-840500D01*
Y-120218D01*
X-837281D01*
Y-120740D01*
X-836359D01*
Y-125300D01*
X-837281D01*
Y-135941D01*
X-840500D01*
Y-134450D01*
X-840500D01*
X-840500Y-134450D01*
X-840500Y-133180D01*
Y-124950D01*
X-844501D01*
X-846251Y-124602D01*
X-848000Y-124950D01*
X-852001D01*
Y-125352D01*
X-907059D01*
X-908007Y-124117D01*
X-910116Y-122498D01*
X-912573Y-121480D01*
X-915210Y-121133D01*
X-917847Y-121480D01*
X-920303Y-122498D01*
X-922413Y-124117D01*
X-924032Y-126226D01*
X-925050Y-128683D01*
X-925397Y-131320D01*
X-925050Y-133957D01*
X-924032Y-136414D01*
X-922413Y-138523D01*
X-920303Y-140142D01*
X-917847Y-141160D01*
X-915210Y-141507D01*
X-912573Y-141160D01*
X-910116Y-140142D01*
X-908007Y-138523D01*
X-906388Y-136414D01*
X-906029Y-135548D01*
X-852001D01*
Y-143950D01*
X-840500D01*
Y-142059D01*
X-837281D01*
Y-143600D01*
X-835339D01*
Y-148160D01*
X-837281D01*
Y-158801D01*
X-841340D01*
Y-156870D01*
X-852840D01*
Y-165100D01*
X-852840Y-166370D01*
X-853832Y-167042D01*
X-857250D01*
Y-143510D01*
X-858520Y-142240D01*
X-877570D01*
Y-146413D01*
X-885589D01*
X-887540Y-146801D01*
X-889194Y-147906D01*
X-892910Y-151622D01*
X-905200D01*
X-905461Y-150309D01*
X-906798Y-148308D01*
X-908799Y-146971D01*
X-911160Y-146502D01*
X-919260D01*
X-921621Y-146971D01*
X-923622Y-148308D01*
X-924959Y-150309D01*
X-925428Y-152670D01*
Y-160770D01*
X-924959Y-163131D01*
X-923622Y-165132D01*
X-921621Y-166469D01*
X-919260Y-166938D01*
X-911160D01*
X-908799Y-166469D01*
X-906798Y-165132D01*
X-905461Y-163131D01*
X-905200Y-161818D01*
X-890798D01*
X-888847Y-161430D01*
X-887193Y-160325D01*
X-883477Y-156609D01*
X-877570D01*
Y-177800D01*
X-876300Y-179070D01*
X-859790D01*
X-857250Y-176530D01*
Y-175198D01*
X-852840D01*
Y-175870D01*
X-841340D01*
Y-175198D01*
X-797917D01*
X-797477Y-176374D01*
X-797494Y-176468D01*
X-799255Y-177645D01*
X-800470Y-179464D01*
X-800897Y-181610D01*
X-800470Y-183756D01*
X-800273Y-184051D01*
X-800872Y-185171D01*
X-832854D01*
X-836037Y-181987D01*
X-837029Y-181324D01*
X-838200Y-181091D01*
X-838200Y-181091D01*
X-897890D01*
X-897890Y-181091D01*
X-899061Y-181324D01*
X-900053Y-181987D01*
X-900053Y-181987D01*
X-909753Y-191687D01*
X-910416Y-192679D01*
X-910649Y-193850D01*
X-910649Y-193850D01*
Y-215082D01*
X-911640D01*
X-914001Y-215551D01*
X-916002Y-216888D01*
X-917339Y-218889D01*
X-917809Y-221250D01*
Y-229350D01*
X-917339Y-231711D01*
X-916002Y-233712D01*
X-914001Y-235049D01*
X-911640Y-235518D01*
X-903540D01*
X-901179Y-235049D01*
X-899178Y-233712D01*
X-897841Y-231711D01*
X-897372Y-229350D01*
Y-221250D01*
X-897841Y-218889D01*
X-899178Y-216888D01*
X-901179Y-215551D01*
X-903540Y-215082D01*
X-904531D01*
Y-195117D01*
X-896623Y-187209D01*
X-839467D01*
X-836706Y-189969D01*
X-837232Y-191239D01*
X-846776D01*
Y-188721D01*
X-855006D01*
X-856276Y-188721D01*
X-857546Y-188721D01*
X-865776D01*
Y-200221D01*
X-864085D01*
Y-204021D01*
X-865836D01*
Y-205712D01*
X-870441D01*
X-870441Y-205712D01*
X-871611Y-205945D01*
X-872604Y-206608D01*
X-872604Y-206608D01*
X-881003Y-215007D01*
X-881666Y-216000D01*
X-881899Y-217170D01*
X-881899Y-217170D01*
Y-287023D01*
X-890267Y-295391D01*
X-966971D01*
Y-45295D01*
X-926195Y-4519D01*
X-830387D01*
X-821099Y-13807D01*
D02*
G37*
G36*
X-624599Y-15997D02*
X-625085Y-17170D01*
X-625510D01*
Y-25400D01*
X-625510Y-26670D01*
X-625510Y-27940D01*
Y-36170D01*
X-622819D01*
Y-45720D01*
X-622819Y-45720D01*
X-622586Y-46891D01*
X-621923Y-47883D01*
X-615749Y-54057D01*
Y-64090D01*
X-626190D01*
Y-65165D01*
X-626606Y-65455D01*
X-627460Y-65728D01*
X-629044Y-64669D01*
X-631190Y-64242D01*
X-633336Y-64669D01*
X-635155Y-65885D01*
X-636371Y-67704D01*
X-636798Y-69850D01*
X-636371Y-71996D01*
X-635155Y-73815D01*
X-633500Y-74921D01*
X-633508Y-75564D01*
X-633711Y-76191D01*
X-699263D01*
X-703844Y-71610D01*
Y-58421D01*
X-702937Y-57815D01*
X-701722Y-55996D01*
X-701295Y-53850D01*
X-701722Y-51704D01*
X-702937Y-49885D01*
X-704757Y-48669D01*
X-706903Y-48242D01*
X-709049Y-48669D01*
X-710868Y-49885D01*
X-712084Y-51704D01*
X-712510Y-53850D01*
X-712084Y-55996D01*
X-710868Y-57815D01*
X-709961Y-58421D01*
Y-72877D01*
X-709961Y-72877D01*
X-709729Y-74048D01*
X-709066Y-75040D01*
X-702693Y-81413D01*
X-702693Y-81413D01*
X-701701Y-82076D01*
X-700530Y-82309D01*
X-700530Y-82309D01*
X-537640D01*
Y-85000D01*
X-527499Y-85000D01*
X-526613Y-85886D01*
X-526630Y-87156D01*
X-528489D01*
Y-103856D01*
X-518901D01*
Y-87156D01*
X-520484D01*
Y-85000D01*
X-518640D01*
Y-73500D01*
X-526870D01*
X-528140Y-73500D01*
X-529410Y-73500D01*
X-537640D01*
Y-76191D01*
X-628669D01*
X-628871Y-75564D01*
X-628880Y-74921D01*
X-627460Y-73973D01*
X-626190Y-74090D01*
X-626190Y-74090D01*
X-626190Y-74090D01*
X-607890D01*
Y-72149D01*
X-422409D01*
Y-127520D01*
X-426104Y-131867D01*
X-426215Y-131891D01*
X-426829Y-131816D01*
X-427463Y-131505D01*
X-427476Y-131440D01*
X-427526Y-131365D01*
X-427551Y-131279D01*
X-427746Y-131036D01*
X-427918Y-130778D01*
X-428058Y-130638D01*
X-428720Y-130196D01*
X-429500Y-130041D01*
X-439762D01*
Y-122830D01*
X-440150Y-120879D01*
X-441255Y-119225D01*
X-454025Y-106455D01*
X-455679Y-105350D01*
X-457630Y-104962D01*
X-486230D01*
X-487979Y-105310D01*
X-491980D01*
Y-114462D01*
X-509376D01*
Y-107984D01*
X-518964D01*
Y-114806D01*
X-519268Y-116334D01*
Y-117766D01*
X-518964Y-119294D01*
Y-124684D01*
X-509376D01*
Y-124658D01*
X-486230D01*
X-484481Y-124310D01*
X-480480D01*
Y-115158D01*
X-459742D01*
X-449958Y-124942D01*
Y-130119D01*
X-460372Y-130181D01*
X-460675Y-130243D01*
X-460982Y-130278D01*
X-461062Y-130322D01*
X-461152Y-130341D01*
X-461408Y-130514D01*
X-461678Y-130664D01*
X-461735Y-130736D01*
X-461810Y-130787D01*
X-461981Y-131045D01*
X-462173Y-131287D01*
X-462198Y-131375D01*
X-462249Y-131451D01*
X-462307Y-131754D01*
X-462392Y-132052D01*
X-463152Y-132488D01*
X-463611Y-132644D01*
X-463956Y-132625D01*
X-463983Y-132591D01*
X-464073Y-132516D01*
X-464138Y-132418D01*
X-464374Y-132260D01*
X-464590Y-132077D01*
X-464702Y-132041D01*
X-464800Y-131976D01*
X-465078Y-131921D01*
X-465348Y-131834D01*
X-465465Y-131844D01*
X-465580Y-131821D01*
X-724990D01*
X-725770Y-131976D01*
X-726432Y-132418D01*
X-730242Y-136228D01*
X-730684Y-136890D01*
X-730839Y-137670D01*
Y-167640D01*
X-753110D01*
X-754380Y-168910D01*
Y-174183D01*
X-755553Y-174669D01*
X-761986Y-168236D01*
X-763309Y-167352D01*
X-764870Y-167042D01*
X-764870Y-167042D01*
X-766813D01*
X-766938Y-165772D01*
X-766860Y-165756D01*
X-765867Y-165093D01*
X-758357Y-157583D01*
X-758357Y-157583D01*
X-757694Y-156591D01*
X-757461Y-155420D01*
X-757461Y-155420D01*
Y-45411D01*
X-757461Y-45410D01*
X-757461Y-45410D01*
Y-42969D01*
X-755020D01*
X-754969Y-42959D01*
X-752870D01*
X-751895Y-42765D01*
X-751068Y-42212D01*
X-750515Y-41385D01*
X-750321Y-40410D01*
Y-39410D01*
X-749959Y-38969D01*
X-747677D01*
X-745829Y-40817D01*
Y-42920D01*
X-747950D01*
Y-51976D01*
X-747950Y-52520D01*
X-748919Y-53246D01*
X-751636D01*
X-752214Y-53131D01*
X-753384Y-53364D01*
X-754377Y-54027D01*
X-755040Y-55019D01*
X-755273Y-56190D01*
X-755040Y-57361D01*
X-754377Y-58353D01*
X-754262Y-58468D01*
X-753269Y-59131D01*
X-752099Y-59364D01*
X-747200D01*
X-746757Y-60027D01*
X-745764Y-60690D01*
X-744594Y-60923D01*
X-743423Y-60690D01*
X-742431Y-60027D01*
X-741768Y-59034D01*
X-741535Y-57864D01*
Y-56661D01*
X-741535Y-56661D01*
X-741768Y-55491D01*
X-742431Y-54498D01*
X-742787Y-54142D01*
X-743314Y-53790D01*
X-742929Y-52520D01*
X-737950D01*
Y-43442D01*
X-737032Y-43048D01*
X-736680Y-43016D01*
X-734140Y-45556D01*
Y-51230D01*
X-732599D01*
Y-55720D01*
X-734490D01*
Y-67220D01*
X-724990D01*
Y-67220D01*
X-724990Y-67220D01*
X-723642Y-67220D01*
X-722468Y-68394D01*
Y-101482D01*
X-724075Y-102555D01*
X-725180Y-104209D01*
X-725568Y-106160D01*
Y-112160D01*
X-725180Y-114111D01*
X-724075Y-115765D01*
X-722421Y-116870D01*
X-720470Y-117258D01*
X-714270D01*
X-712319Y-116870D01*
X-710665Y-115765D01*
X-709560Y-114111D01*
X-709172Y-112160D01*
Y-106160D01*
X-709560Y-104209D01*
X-710665Y-102555D01*
X-712272Y-101482D01*
Y-65340D01*
X-712660Y-63389D01*
X-713765Y-61735D01*
X-715418Y-60082D01*
X-715490Y-59721D01*
Y-55720D01*
X-723720D01*
X-724990Y-55720D01*
Y-55720D01*
X-724990D01*
Y-55720D01*
X-726481D01*
Y-51230D01*
X-724540D01*
Y-41230D01*
X-729495D01*
X-730048Y-40523D01*
X-729800Y-39290D01*
X-729800D01*
Y-30389D01*
X-729327Y-30073D01*
X-728573Y-29319D01*
X-715417D01*
X-682883Y-61853D01*
X-682883Y-61853D01*
X-681891Y-62516D01*
X-680720Y-62749D01*
X-654811D01*
X-654205Y-63655D01*
X-652386Y-64871D01*
X-650240Y-65298D01*
X-648094Y-64871D01*
X-646275Y-63655D01*
X-645059Y-61836D01*
X-644632Y-59690D01*
X-645059Y-57544D01*
X-646107Y-55975D01*
X-645689Y-54705D01*
X-642779D01*
Y-39275D01*
X-646800D01*
Y-34544D01*
X-647033Y-33373D01*
X-647696Y-32381D01*
X-647696Y-32381D01*
X-651034Y-29043D01*
Y-24563D01*
X-649364Y-24231D01*
X-648176Y-23437D01*
X-646906Y-23844D01*
Y-23844D01*
X-641615D01*
Y-26767D01*
X-641615Y-26767D01*
X-641382Y-27938D01*
X-640719Y-28930D01*
X-635900Y-33749D01*
Y-39275D01*
X-639921D01*
Y-54705D01*
X-625761D01*
Y-39275D01*
X-629782D01*
Y-32483D01*
X-630015Y-31312D01*
X-630678Y-30320D01*
X-635497Y-25501D01*
Y-23844D01*
X-630206D01*
Y-14256D01*
X-646906D01*
X-646906Y-14256D01*
X-648176Y-14663D01*
X-649364Y-13869D01*
X-649441Y-13854D01*
X-649316Y-12584D01*
X-628012D01*
X-624599Y-15997D01*
D02*
G37*
G36*
X-682883Y-47883D02*
X-682883Y-47883D01*
X-681890Y-48546D01*
X-680720Y-48779D01*
X-656939D01*
Y-54705D01*
X-655517D01*
X-654892Y-55975D01*
X-655356Y-56631D01*
X-679453D01*
X-694992Y-41092D01*
X-694578Y-39993D01*
X-692675Y-38090D01*
X-682883Y-47883D01*
D02*
G37*
G36*
X-771579Y-91184D02*
Y-107543D01*
X-778187Y-114151D01*
X-827281D01*
Y-102440D01*
X-828202D01*
Y-97880D01*
X-827281D01*
Y-97390D01*
X-780711D01*
X-780711Y-97390D01*
X-779541Y-97157D01*
X-778548Y-96494D01*
X-772752Y-90698D01*
X-771579Y-91184D01*
D02*
G37*
G36*
X-767579Y-113854D02*
Y-130213D01*
X-774377Y-137011D01*
X-827281D01*
Y-125300D01*
X-828202D01*
Y-120740D01*
X-827281D01*
Y-120269D01*
X-776920D01*
X-776920Y-120269D01*
X-775750Y-120036D01*
X-774757Y-119373D01*
X-768752Y-113368D01*
X-767579Y-113854D01*
D02*
G37*
G36*
X-763579Y-136524D02*
Y-154153D01*
X-769297Y-159871D01*
X-827281D01*
Y-148160D01*
X-829222D01*
Y-143600D01*
X-827281D01*
Y-143129D01*
X-773110D01*
X-773110Y-143129D01*
X-771939Y-142896D01*
X-770947Y-142233D01*
X-764752Y-136038D01*
X-763579Y-136524D01*
D02*
G37*
G36*
X-429360Y-132220D02*
X-441050Y-146149D01*
Y-146160D01*
X-441110Y-146220D01*
X-441060Y-146160D01*
X-448549D01*
Y-146161D01*
X-460360Y-132220D01*
X-448670Y-132150D01*
Y-132150D01*
X-441050Y-132083D01*
Y-132080D01*
X-429500D01*
X-429360Y-132220D01*
D02*
G37*
G36*
X-841350Y-207680D02*
X-840285D01*
Y-214442D01*
X-848370D01*
Y-215695D01*
X-853438D01*
X-854336Y-214797D01*
X-854336Y-213521D01*
X-854336Y-212251D01*
Y-204021D01*
X-857967D01*
Y-201119D01*
X-857069Y-200221D01*
X-856276D01*
X-855006Y-200221D01*
X-846776D01*
Y-197357D01*
X-841350D01*
Y-207680D01*
D02*
G37*
G36*
X-325120Y-55880D02*
Y-228600D01*
X-331470Y-234950D01*
X-433070D01*
X-441960Y-226060D01*
Y-153670D01*
X-420370Y-128270D01*
Y-53340D01*
X-414274Y-48260D01*
X-332740D01*
X-325120Y-55880D01*
D02*
G37*
G36*
X-827542Y-233555D02*
X-822251D01*
Y-249559D01*
X-822646Y-249853D01*
X-823916Y-249681D01*
Y-249681D01*
X-832146D01*
X-833416Y-249681D01*
X-834686Y-249681D01*
X-838590D01*
X-839187Y-249084D01*
Y-243080D01*
X-831670D01*
Y-233492D01*
X-848370D01*
Y-235710D01*
X-854336D01*
Y-234501D01*
X-865836D01*
Y-242731D01*
X-865836Y-244001D01*
X-865836Y-245271D01*
Y-253501D01*
X-863145D01*
Y-312719D01*
X-877567Y-327141D01*
X-966971D01*
Y-301509D01*
X-889000D01*
X-889000Y-301509D01*
X-887830Y-301276D01*
X-886837Y-300613D01*
X-885565Y-299341D01*
X-884187Y-299759D01*
X-884021Y-300596D01*
X-882805Y-302415D01*
X-880986Y-303631D01*
X-878840Y-304058D01*
X-876694Y-303631D01*
X-874875Y-302415D01*
X-873659Y-300596D01*
X-873232Y-298450D01*
X-873643Y-296386D01*
X-872677Y-295420D01*
X-872677Y-295420D01*
X-872014Y-294428D01*
X-871781Y-293258D01*
Y-236027D01*
X-867574Y-231820D01*
X-827542D01*
Y-233555D01*
D02*
G37*
G36*
X-450850Y-152400D02*
Y-277190D01*
X-455616Y-283720D01*
X-724990Y-283720D01*
X-728800Y-279910D01*
Y-191770D01*
X-716280D01*
X-715010Y-190500D01*
Y-171450D01*
X-718820Y-167640D01*
X-728800D01*
Y-137670D01*
X-724990Y-133860D01*
X-465580D01*
X-450850Y-152400D01*
D02*
G37*
G36*
X-722630Y140469D02*
X-1078230D01*
X-1079010Y140314D01*
X-1079672Y139872D01*
X-1087292Y132252D01*
X-1087734Y131590D01*
X-1087889Y130810D01*
Y-146050D01*
X-1087734Y-146830D01*
X-1087292Y-147492D01*
X-1087292Y-147492D01*
X-1080942Y-153842D01*
X-1080280Y-154284D01*
X-1079500Y-154439D01*
X-1041400D01*
X-1040620Y-154284D01*
X-1039958Y-153842D01*
X-1039958Y-153842D01*
X-1033608Y-147492D01*
X-1033166Y-146830D01*
X-1033011Y-146050D01*
Y-30055D01*
X-998645Y4311D01*
X-994814D01*
X-994328Y3137D01*
X-1008703Y-11237D01*
X-1009366Y-12230D01*
X-1009599Y-13400D01*
X-1009599Y-13400D01*
Y-114415D01*
X-1011499Y-114793D01*
X-1014593Y-116075D01*
X-1017377Y-117935D01*
X-1019745Y-120303D01*
X-1021605Y-123088D01*
X-1022887Y-126181D01*
X-1023540Y-129466D01*
Y-132814D01*
X-1022887Y-136099D01*
X-1021605Y-139192D01*
X-1019745Y-141977D01*
X-1017377Y-144345D01*
X-1014593Y-146205D01*
X-1011499Y-147487D01*
X-1008214Y-148140D01*
X-1004866D01*
X-1001581Y-147487D01*
X-998488Y-146205D01*
X-995703Y-144345D01*
X-993335Y-141977D01*
X-991475Y-139192D01*
X-990193Y-136099D01*
X-989540Y-132814D01*
Y-129466D01*
X-990193Y-126181D01*
X-991475Y-123088D01*
X-993335Y-120303D01*
X-995703Y-117935D01*
X-998488Y-116075D01*
X-1001581Y-114793D01*
X-1003481Y-114415D01*
Y-14667D01*
X-989333Y-519D01*
X-926875D01*
X-926349Y-1789D01*
X-969010Y-44450D01*
Y-327141D01*
X-1030364D01*
X-1030387Y-327085D01*
X-1031935Y-325537D01*
X-1033956Y-324700D01*
X-1036144D01*
X-1038166Y-325537D01*
X-1039713Y-327085D01*
X-1040550Y-329106D01*
Y-331294D01*
X-1039713Y-333316D01*
X-1038166Y-334863D01*
X-1036144Y-335700D01*
X-1033956D01*
X-1031935Y-334863D01*
X-1030387Y-333316D01*
X-1030364Y-333259D01*
X-969010D01*
Y-353060D01*
X-979037Y-363087D01*
X-1058873D01*
X-1064781Y-363087D01*
X-1076559Y-362160D01*
X-1088230Y-360312D01*
X-1099718Y-357553D01*
X-1110956Y-353902D01*
X-1121872Y-349381D01*
X-1132399Y-344017D01*
X-1142474Y-337843D01*
X-1152032Y-330898D01*
X-1161017Y-323225D01*
X-1169371Y-314870D01*
X-1177045Y-305886D01*
X-1183990Y-296327D01*
X-1190163Y-286253D01*
X-1195528Y-275725D01*
X-1200049Y-264809D01*
X-1203700Y-253572D01*
X-1206459Y-242083D01*
X-1208307Y-230413D01*
X-1209234Y-218634D01*
Y-212726D01*
Y212724D01*
X-1209234Y218631D01*
X-1208307Y230410D01*
X-1206459Y242080D01*
X-1203700Y253569D01*
X-1200049Y264806D01*
X-1195528Y275722D01*
X-1190164Y286250D01*
X-1183990Y296324D01*
X-1177045Y305883D01*
X-1169372Y314867D01*
X-1161017Y323222D01*
X-1152032Y330896D01*
X-1142474Y337841D01*
X-1132399Y344014D01*
X-1121872Y349378D01*
X-1110956Y353900D01*
X-1099718Y357551D01*
X-1088230Y360309D01*
X-1076560Y362158D01*
X-1064781Y363085D01*
X-722630D01*
Y140469D01*
D02*
G37*
%LPC*%
G36*
X-909131Y96190D02*
X-913669D01*
X-918120Y95305D01*
X-922314Y93568D01*
X-926087Y91046D01*
X-929296Y87837D01*
X-931818Y84064D01*
X-933555Y79871D01*
X-934440Y75419D01*
Y70881D01*
X-933555Y66430D01*
X-931818Y62236D01*
X-929296Y58463D01*
X-926087Y55254D01*
X-922314Y52732D01*
X-918120Y50995D01*
X-913669Y50110D01*
X-909131D01*
X-904679Y50995D01*
X-900487Y52732D01*
X-896713Y55254D01*
X-893504Y58463D01*
X-890982Y62236D01*
X-889245Y66430D01*
X-888360Y70881D01*
Y75419D01*
X-889245Y79871D01*
X-890982Y84064D01*
X-893504Y87837D01*
X-896713Y91046D01*
X-900487Y93568D01*
X-904679Y95305D01*
X-909131Y96190D01*
D02*
G37*
G36*
X-763090Y41919D02*
X-764260Y41686D01*
X-765253Y41023D01*
X-765916Y40030D01*
X-766149Y38860D01*
Y30159D01*
X-792906D01*
X-793735Y30324D01*
X-793735Y30324D01*
X-804171D01*
X-805000Y30489D01*
X-806171Y30256D01*
X-807163Y29593D01*
X-807826Y28600D01*
X-808059Y27430D01*
X-807826Y26260D01*
X-807163Y25267D01*
X-806998Y25102D01*
X-806998Y25102D01*
X-806005Y24439D01*
X-804835Y24206D01*
X-804835Y24206D01*
X-794399D01*
X-793570Y24041D01*
X-793570Y24041D01*
X-763090D01*
X-761919Y24274D01*
X-760927Y24937D01*
X-760264Y25930D01*
X-760031Y27100D01*
Y38860D01*
X-760264Y40030D01*
X-760927Y41023D01*
X-761919Y41686D01*
X-763090Y41919D01*
D02*
G37*
G36*
X425150Y358967D02*
X374850D01*
X372529Y358661D01*
X370367Y357765D01*
X368510Y356340D01*
X367085Y354483D01*
X366189Y352321D01*
X365883Y350000D01*
X366189Y347679D01*
X367085Y345517D01*
X368510Y343660D01*
X370367Y342235D01*
X372529Y341339D01*
X374850Y341033D01*
X425150D01*
X427471Y341339D01*
X429633Y342235D01*
X431490Y343660D01*
X432915Y345517D01*
X433811Y347679D01*
X434117Y350000D01*
X433811Y352321D01*
X432915Y354483D01*
X431490Y356340D01*
X429633Y357765D01*
X427471Y358661D01*
X425150Y358967D01*
D02*
G37*
G36*
X-474850D02*
X-525150D01*
X-527471Y358661D01*
X-529633Y357765D01*
X-531490Y356340D01*
X-532915Y354483D01*
X-533811Y352321D01*
X-534117Y350000D01*
X-533811Y347679D01*
X-532915Y345517D01*
X-531490Y343660D01*
X-529633Y342235D01*
X-527471Y341339D01*
X-525150Y341033D01*
X-474850D01*
X-472529Y341339D01*
X-470367Y342235D01*
X-468510Y343660D01*
X-467085Y345517D01*
X-466189Y347679D01*
X-465883Y350000D01*
X-466189Y352321D01*
X-467085Y354483D01*
X-468510Y356340D01*
X-470367Y357765D01*
X-472529Y358661D01*
X-474850Y358967D01*
D02*
G37*
G36*
X655320Y243294D02*
X651710Y242939D01*
X648239Y241886D01*
X645040Y240176D01*
X642236Y237874D01*
X639934Y235070D01*
X638224Y231871D01*
X637171Y228400D01*
X636816Y224790D01*
X637171Y221180D01*
X638224Y217709D01*
X639934Y214510D01*
X642236Y211706D01*
X645040Y209404D01*
X648239Y207694D01*
X651710Y206641D01*
X655320Y206286D01*
X658930Y206641D01*
X662401Y207694D01*
X665600Y209404D01*
X668404Y211706D01*
X670706Y214510D01*
X672416Y217709D01*
X673469Y221180D01*
X673824Y224790D01*
X673469Y228400D01*
X672416Y231871D01*
X670706Y235070D01*
X668404Y237874D01*
X665600Y240176D01*
X662401Y241886D01*
X658930Y242939D01*
X655320Y243294D01*
D02*
G37*
G36*
X-561400Y235872D02*
X-565917Y235427D01*
X-570260Y234109D01*
X-574262Y231970D01*
X-577771Y229091D01*
X-580650Y225582D01*
X-582789Y221580D01*
X-584107Y217237D01*
X-584552Y212720D01*
X-584107Y208203D01*
X-582789Y203860D01*
X-580650Y199858D01*
X-577771Y196349D01*
X-574262Y193470D01*
X-570260Y191331D01*
X-565917Y190013D01*
X-561400Y189569D01*
X-556883Y190013D01*
X-552540Y191331D01*
X-548538Y193470D01*
X-545029Y196349D01*
X-542150Y199858D01*
X-540011Y203860D01*
X-538693Y208203D01*
X-538248Y212720D01*
X-538693Y217237D01*
X-540011Y221580D01*
X-542150Y225582D01*
X-545029Y229091D01*
X-548538Y231970D01*
X-552540Y234109D01*
X-556883Y235427D01*
X-561400Y235872D01*
D02*
G37*
G36*
X675150Y55320D02*
X659130D01*
X657303Y55080D01*
X655600Y54374D01*
X654138Y53252D01*
X643978Y43092D01*
X642856Y41630D01*
X642150Y39927D01*
X641910Y38100D01*
Y16895D01*
X640168Y15152D01*
X639045Y13690D01*
X638340Y11987D01*
X638100Y10160D01*
X638340Y8333D01*
X639045Y6630D01*
X640168Y5168D01*
X641630Y4045D01*
X643333Y3340D01*
X645160Y3100D01*
X646987Y3340D01*
X648690Y4045D01*
X650152Y5168D01*
X653962Y8978D01*
X655085Y10440D01*
X655790Y12143D01*
X656030Y13970D01*
Y35175D01*
X662055Y41200D01*
X672225D01*
X679773Y33653D01*
X679179Y32219D01*
X678887Y30000D01*
X679179Y27781D01*
X680035Y25713D01*
X681398Y23938D01*
X683173Y22575D01*
X685241Y21719D01*
X687460Y21427D01*
X689679Y21719D01*
X691747Y22575D01*
X693522Y23938D01*
X694885Y25713D01*
X695741Y27781D01*
X696033Y30000D01*
X695741Y32219D01*
X694885Y34287D01*
X693946Y35510D01*
Y36524D01*
X693706Y38351D01*
X693000Y40054D01*
X691878Y41516D01*
X680143Y53252D01*
X678680Y54374D01*
X676977Y55080D01*
X675150Y55320D01*
D02*
G37*
G36*
X667460Y38573D02*
X665241Y38281D01*
X663173Y37425D01*
X661398Y36062D01*
X660035Y34287D01*
X659179Y32219D01*
X658887Y30000D01*
X659179Y27781D01*
X660035Y25713D01*
X661398Y23938D01*
X663173Y22575D01*
X665241Y21719D01*
X667460Y21427D01*
X669679Y21719D01*
X671747Y22575D01*
X673522Y23938D01*
X674885Y25713D01*
X675741Y27781D01*
X676033Y30000D01*
X675741Y32219D01*
X674885Y34287D01*
X673522Y36062D01*
X671747Y37425D01*
X669679Y38281D01*
X667460Y38573D01*
D02*
G37*
G36*
X598780Y26588D02*
X596634Y26161D01*
X594815Y24945D01*
X593599Y23126D01*
X593172Y20980D01*
X593289Y20395D01*
X592835Y19954D01*
X592166Y19528D01*
X590210Y19917D01*
X589141Y19705D01*
X588903Y19943D01*
X587910Y20606D01*
X586740Y20839D01*
X586740Y20839D01*
X583730D01*
Y22780D01*
X574130D01*
Y12780D01*
X575871D01*
Y8810D01*
X574130D01*
Y-1190D01*
X583730D01*
Y-572D01*
X585000Y-46D01*
X586221Y-1267D01*
Y-3334D01*
X584740D01*
Y-19526D01*
X587095D01*
X587761Y-20590D01*
X587994Y-21760D01*
X588657Y-22753D01*
X594181Y-28277D01*
Y-32750D01*
X594181Y-32750D01*
X594240Y-33046D01*
Y-42386D01*
X603320D01*
Y-26194D01*
X600136D01*
X600066Y-25839D01*
X599403Y-24847D01*
X595352Y-20796D01*
X595878Y-19526D01*
X603320D01*
Y-3334D01*
X601839D01*
Y16409D01*
X602745Y17015D01*
X603961Y18834D01*
X604388Y20980D01*
X603961Y23126D01*
X602745Y24945D01*
X600926Y26161D01*
X598780Y26588D01*
D02*
G37*
G36*
X667460Y18573D02*
X665241Y18281D01*
X663173Y17425D01*
X661398Y16062D01*
X660035Y14287D01*
X659179Y12219D01*
X658887Y10000D01*
X659179Y7781D01*
X659687Y6553D01*
X648077Y-5057D01*
X647414Y-6050D01*
X647181Y-7220D01*
X647181Y-7220D01*
Y-22863D01*
X643163Y-26881D01*
X638730D01*
Y-25140D01*
X628730D01*
Y-26881D01*
X626650D01*
X625480Y-27114D01*
X624935Y-27478D01*
X623736Y-26928D01*
X623665Y-26848D01*
Y-24289D01*
X608235D01*
Y-38449D01*
X612891D01*
Y-44453D01*
X612143Y-45201D01*
X584197D01*
X582839Y-43843D01*
Y-42386D01*
X584320D01*
Y-26194D01*
X575240D01*
Y-42386D01*
X576721D01*
Y-45110D01*
X576721Y-45110D01*
X576954Y-46280D01*
X577617Y-47273D01*
X580767Y-50423D01*
X581759Y-51086D01*
X582930Y-51319D01*
X613410D01*
X613410Y-51319D01*
X614580Y-51086D01*
X615573Y-50423D01*
X618113Y-47883D01*
X618113Y-47883D01*
X618776Y-46891D01*
X619009Y-45720D01*
Y-38449D01*
X623665D01*
Y-34428D01*
X625221D01*
X625221Y-34428D01*
X626391Y-34195D01*
X627384Y-33532D01*
X627460Y-33456D01*
X628730Y-33982D01*
Y-34740D01*
X638730D01*
Y-32999D01*
X644430D01*
X644430Y-32999D01*
X645601Y-32766D01*
X646593Y-32103D01*
X652403Y-26293D01*
X652403Y-26293D01*
X653066Y-25301D01*
X653299Y-24130D01*
Y-8487D01*
X664013Y2227D01*
X665241Y1719D01*
X667460Y1427D01*
X669679Y1719D01*
X671747Y2575D01*
X673522Y3938D01*
X674885Y5713D01*
X675741Y7781D01*
X676033Y10000D01*
X675741Y12219D01*
X674885Y14287D01*
X673522Y16062D01*
X671747Y17425D01*
X669679Y18281D01*
X667460Y18573D01*
D02*
G37*
G36*
X687460Y-1427D02*
X685241Y-1719D01*
X683173Y-2575D01*
X681398Y-3938D01*
X680035Y-5713D01*
X679179Y-7781D01*
X678887Y-10000D01*
X679179Y-12219D01*
X680035Y-14287D01*
X681398Y-16062D01*
X683173Y-17425D01*
X685241Y-18281D01*
X687460Y-18573D01*
X689679Y-18281D01*
X691747Y-17425D01*
X693522Y-16062D01*
X694885Y-14287D01*
X695741Y-12219D01*
X696033Y-10000D01*
X695741Y-7781D01*
X694885Y-5713D01*
X693522Y-3938D01*
X691747Y-2575D01*
X689679Y-1719D01*
X687460Y-1427D01*
D02*
G37*
G36*
X667460D02*
X665241Y-1719D01*
X663173Y-2575D01*
X661398Y-3938D01*
X660035Y-5713D01*
X659179Y-7781D01*
X658887Y-10000D01*
X659179Y-12219D01*
X660035Y-14287D01*
X661398Y-16062D01*
X663173Y-17425D01*
X665241Y-18281D01*
X667460Y-18573D01*
X669679Y-18281D01*
X671747Y-17425D01*
X673522Y-16062D01*
X674885Y-14287D01*
X675741Y-12219D01*
X676033Y-10000D01*
X675741Y-7781D01*
X674885Y-5713D01*
X673522Y-3938D01*
X671747Y-2575D01*
X669679Y-1719D01*
X667460Y-1427D01*
D02*
G37*
G36*
X0Y18630D02*
X-3634Y18272D01*
X-7129Y17212D01*
X-10350Y15490D01*
X-13173Y13173D01*
X-15490Y10350D01*
X-17212Y7129D01*
X-18272Y3634D01*
X-18630Y0D01*
X-18272Y-3634D01*
X-17212Y-7129D01*
X-15490Y-10350D01*
X-13173Y-13173D01*
X-10350Y-15490D01*
X-7129Y-17212D01*
X-3634Y-18272D01*
X0Y-18630D01*
X3634Y-18272D01*
X7129Y-17212D01*
X10350Y-15490D01*
X13173Y-13173D01*
X15490Y-10350D01*
X17212Y-7129D01*
X18272Y-3634D01*
X18630Y0D01*
X18272Y3634D01*
X17212Y7129D01*
X15490Y10350D01*
X13173Y13173D01*
X10350Y15490D01*
X7129Y17212D01*
X3634Y18272D01*
X0Y18630D01*
D02*
G37*
G36*
X687460Y-21427D02*
X685241Y-21719D01*
X683173Y-22575D01*
X681398Y-23938D01*
X680035Y-25713D01*
X679179Y-27781D01*
X678887Y-30000D01*
X679179Y-32219D01*
X680035Y-34287D01*
X681398Y-36062D01*
X683173Y-37425D01*
X685241Y-38281D01*
X687460Y-38573D01*
X689679Y-38281D01*
X691747Y-37425D01*
X693522Y-36062D01*
X694885Y-34287D01*
X695741Y-32219D01*
X696033Y-30000D01*
X695741Y-27781D01*
X694885Y-25713D01*
X693522Y-23938D01*
X691747Y-22575D01*
X689679Y-21719D01*
X687460Y-21427D01*
D02*
G37*
G36*
X670710Y-21397D02*
X664210D01*
X662162Y-21805D01*
X660425Y-22965D01*
X659265Y-24702D01*
X658857Y-26750D01*
Y-33250D01*
X659265Y-35298D01*
X660425Y-37035D01*
X662162Y-38195D01*
X664210Y-38603D01*
X670710D01*
X672758Y-38195D01*
X674495Y-37035D01*
X675655Y-35298D01*
X676063Y-33250D01*
Y-26750D01*
X675655Y-24702D01*
X674495Y-22965D01*
X672758Y-21805D01*
X670710Y-21397D01*
D02*
G37*
G36*
X577850Y-116130D02*
X576023Y-116370D01*
X574320Y-117076D01*
X572858Y-118198D01*
X571735Y-119660D01*
X571030Y-121363D01*
X570790Y-123190D01*
X571030Y-125017D01*
X571735Y-126720D01*
X572752Y-128045D01*
Y-230095D01*
X571735Y-231420D01*
X571030Y-233123D01*
X570790Y-234950D01*
X571030Y-236777D01*
X571735Y-238480D01*
X572858Y-239942D01*
X574320Y-241064D01*
X576023Y-241770D01*
X577850Y-242010D01*
X579677Y-241770D01*
X581380Y-241064D01*
X582842Y-239942D01*
X583965Y-238480D01*
X584670Y-236777D01*
X584910Y-234950D01*
X584670Y-233123D01*
X583965Y-231420D01*
X582948Y-230095D01*
Y-128045D01*
X583965Y-126720D01*
X584670Y-125017D01*
X584910Y-123190D01*
X584670Y-121363D01*
X583965Y-119660D01*
X582842Y-118198D01*
X581380Y-117076D01*
X579677Y-116370D01*
X577850Y-116130D01*
D02*
G37*
G36*
X655320Y-206286D02*
X651710Y-206641D01*
X648239Y-207694D01*
X645040Y-209404D01*
X642236Y-211706D01*
X639934Y-214510D01*
X638224Y-217709D01*
X637171Y-221180D01*
X636816Y-224790D01*
X637171Y-228400D01*
X638224Y-231871D01*
X639934Y-235070D01*
X642236Y-237874D01*
X645040Y-240176D01*
X648239Y-241886D01*
X651710Y-242939D01*
X655320Y-243294D01*
X658930Y-242939D01*
X662401Y-241886D01*
X665600Y-240176D01*
X668404Y-237874D01*
X670706Y-235070D01*
X672416Y-231871D01*
X673469Y-228400D01*
X673824Y-224790D01*
X673469Y-221180D01*
X672416Y-217709D01*
X670706Y-214510D01*
X668404Y-211706D01*
X665600Y-209404D01*
X662401Y-207694D01*
X658930Y-206641D01*
X655320Y-206286D01*
D02*
G37*
G36*
X425150Y-341033D02*
X374850D01*
X372529Y-341339D01*
X370367Y-342235D01*
X368510Y-343660D01*
X367085Y-345517D01*
X366189Y-347679D01*
X365883Y-350000D01*
X366189Y-352321D01*
X367085Y-354483D01*
X368510Y-356340D01*
X370367Y-357765D01*
X372529Y-358661D01*
X374850Y-358967D01*
X425150D01*
X427471Y-358661D01*
X429633Y-357765D01*
X431490Y-356340D01*
X432915Y-354483D01*
X433811Y-352321D01*
X434117Y-350000D01*
X433811Y-347679D01*
X432915Y-345517D01*
X431490Y-343660D01*
X429633Y-342235D01*
X427471Y-341339D01*
X425150Y-341033D01*
D02*
G37*
G36*
X-474850D02*
X-525150D01*
X-527471Y-341339D01*
X-529633Y-342235D01*
X-531490Y-343660D01*
X-532915Y-345517D01*
X-533811Y-347679D01*
X-534117Y-350000D01*
X-533811Y-352321D01*
X-532915Y-354483D01*
X-531490Y-356340D01*
X-529633Y-357765D01*
X-527471Y-358661D01*
X-525150Y-358967D01*
X-474850D01*
X-472529Y-358661D01*
X-470367Y-357765D01*
X-468510Y-356340D01*
X-467085Y-354483D01*
X-466189Y-352321D01*
X-465883Y-350000D01*
X-466189Y-347679D01*
X-467085Y-345517D01*
X-468510Y-343660D01*
X-470367Y-342235D01*
X-472529Y-341339D01*
X-474850Y-341033D01*
D02*
G37*
G36*
X-850900Y-6332D02*
X-852851Y-6720D01*
X-854505Y-7825D01*
X-854886Y-8206D01*
X-855991Y-9860D01*
X-856379Y-11811D01*
Y-19050D01*
X-878840D01*
Y-24622D01*
X-906391D01*
X-908007Y-22517D01*
X-910116Y-20898D01*
X-912573Y-19880D01*
X-915210Y-19533D01*
X-917847Y-19880D01*
X-920303Y-20898D01*
X-922413Y-22517D01*
X-924032Y-24626D01*
X-925050Y-27083D01*
X-925397Y-29720D01*
X-925050Y-32357D01*
X-924032Y-34814D01*
X-922413Y-36923D01*
X-920303Y-38542D01*
X-917847Y-39560D01*
X-915210Y-39907D01*
X-912573Y-39560D01*
X-910116Y-38542D01*
X-908007Y-36923D01*
X-906391Y-34818D01*
X-878840D01*
Y-40640D01*
X-877570Y-41910D01*
X-842010D01*
X-840740Y-40640D01*
Y-19050D01*
X-846183D01*
Y-13345D01*
X-845802Y-11430D01*
X-846190Y-9479D01*
X-847295Y-7825D01*
X-848949Y-6720D01*
X-850900Y-6332D01*
D02*
G37*
G36*
X-504328Y-74469D02*
X-506278Y-74858D01*
X-507932Y-75963D01*
X-509037Y-77617D01*
X-509425Y-79567D01*
Y-95189D01*
X-509037Y-97139D01*
X-507932Y-98793D01*
X-506278Y-99898D01*
X-504328Y-100287D01*
X-502377Y-99898D01*
X-500723Y-98793D01*
X-499618Y-97139D01*
X-499230Y-95189D01*
Y-79567D01*
X-499618Y-77617D01*
X-500723Y-75963D01*
X-502377Y-74858D01*
X-504328Y-74469D01*
D02*
G37*
G36*
X-559131Y-189690D02*
X-563669D01*
X-568120Y-190575D01*
X-572313Y-192312D01*
X-576087Y-194834D01*
X-579296Y-198043D01*
X-581818Y-201817D01*
X-583555Y-206010D01*
X-584440Y-210461D01*
Y-214999D01*
X-583555Y-219450D01*
X-581818Y-223643D01*
X-579296Y-227417D01*
X-576087Y-230626D01*
X-572313Y-233148D01*
X-568120Y-234885D01*
X-563669Y-235770D01*
X-559131D01*
X-554679Y-234885D01*
X-550486Y-233148D01*
X-546713Y-230626D01*
X-543504Y-227417D01*
X-540982Y-223643D01*
X-539245Y-219450D01*
X-538360Y-214999D01*
Y-210461D01*
X-539245Y-206010D01*
X-540982Y-201817D01*
X-543504Y-198043D01*
X-546713Y-194834D01*
X-550486Y-192312D01*
X-554679Y-190575D01*
X-559131Y-189690D01*
D02*
G37*
G36*
X-909131Y235760D02*
X-913669D01*
X-918120Y234875D01*
X-922314Y233138D01*
X-926087Y230616D01*
X-929296Y227407D01*
X-931818Y223633D01*
X-933555Y219440D01*
X-934440Y214989D01*
Y210451D01*
X-933555Y206000D01*
X-931818Y201807D01*
X-929296Y198033D01*
X-926087Y194824D01*
X-922314Y192302D01*
X-918120Y190565D01*
X-913669Y189680D01*
X-909131D01*
X-904679Y190565D01*
X-900487Y192302D01*
X-896713Y194824D01*
X-893504Y198033D01*
X-890982Y201807D01*
X-889245Y206000D01*
X-888360Y210451D01*
Y214989D01*
X-889245Y219440D01*
X-890982Y223633D01*
X-893504Y227407D01*
X-896713Y230616D01*
X-900487Y233138D01*
X-904679Y234875D01*
X-909131Y235760D01*
D02*
G37*
G36*
X-1004866Y-198140D02*
X-1008214D01*
X-1011499Y-198793D01*
X-1014593Y-200075D01*
X-1017377Y-201935D01*
X-1019745Y-204303D01*
X-1021605Y-207087D01*
X-1022887Y-210181D01*
X-1023540Y-213466D01*
Y-216814D01*
X-1022887Y-220099D01*
X-1021605Y-223193D01*
X-1019745Y-225977D01*
X-1017377Y-228345D01*
X-1014593Y-230205D01*
X-1011499Y-231487D01*
X-1008214Y-232140D01*
X-1004866D01*
X-1001581Y-231487D01*
X-998487Y-230205D01*
X-995703Y-228345D01*
X-993335Y-225977D01*
X-991475Y-223193D01*
X-990193Y-220099D01*
X-989540Y-216814D01*
Y-213466D01*
X-990193Y-210181D01*
X-991475Y-207087D01*
X-993335Y-204303D01*
X-995703Y-201935D01*
X-998487Y-200075D01*
X-1001581Y-198793D01*
X-1004866Y-198140D01*
D02*
G37*
G36*
X-1059866D02*
X-1063214D01*
X-1066499Y-198793D01*
X-1069593Y-200075D01*
X-1072377Y-201935D01*
X-1074745Y-204303D01*
X-1076605Y-207087D01*
X-1077887Y-210181D01*
X-1078540Y-213466D01*
Y-216814D01*
X-1077887Y-220099D01*
X-1076605Y-223193D01*
X-1074745Y-225977D01*
X-1072377Y-228345D01*
X-1069593Y-230205D01*
X-1066499Y-231487D01*
X-1063214Y-232140D01*
X-1059866D01*
X-1056581Y-231487D01*
X-1053487Y-230205D01*
X-1050703Y-228345D01*
X-1048335Y-225977D01*
X-1046475Y-223193D01*
X-1045193Y-220099D01*
X-1044540Y-216814D01*
Y-213466D01*
X-1045193Y-210181D01*
X-1046475Y-207087D01*
X-1048335Y-204303D01*
X-1050703Y-201935D01*
X-1053487Y-200075D01*
X-1056581Y-198793D01*
X-1059866Y-198140D01*
D02*
G37*
%LPD*%
D11*
X-752099Y-56305D02*
X-744950D01*
X-744594Y-56661D01*
Y-57864D02*
Y-56661D01*
X-752214Y-56190D02*
X-752099Y-56305D01*
X-676330Y-730D02*
X-675790Y-1270D01*
X-684530Y-730D02*
X-676330D01*
X-829120Y-1460D02*
X-816610Y-13970D01*
Y-19780D02*
Y-13970D01*
X-928560Y-1460D02*
X-829120D01*
X-651510Y-19050D02*
X-638556D01*
X-588010Y-45720D02*
X-586657D01*
X-585387Y-44450D02*
X-576250D01*
X-586657Y-45720D02*
X-585387Y-44450D01*
X-680720Y-59690D02*
X-650240D01*
X-714150Y-26260D02*
X-680720Y-59690D01*
X-673262Y-28405D02*
Y-25562D01*
X-674219Y-29361D02*
X-673262Y-28405D01*
X-672949Y-25249D02*
Y-21011D01*
X-673262Y-25562D02*
X-672949Y-25249D01*
X-682530Y-11430D02*
X-672949Y-21011D01*
X-612690Y-69090D02*
Y-52790D01*
X-619760Y-45720D02*
X-612690Y-52790D01*
X-619760Y-45720D02*
Y-31420D01*
X-626745Y-9525D02*
X-619760Y-16510D01*
Y-21920D02*
Y-16510D01*
X-659384Y-9525D02*
X-626745D01*
X-655828Y-28575D02*
X-649859Y-34544D01*
X-659384Y-28575D02*
X-655828D01*
X-649859Y-46990D02*
Y-34544D01*
X-659384Y-28575D02*
X-659130Y-28829D01*
X-638556Y-26767D02*
X-632841Y-32483D01*
X-638556Y-26767D02*
Y-19050D01*
X-632841Y-46990D02*
Y-32483D01*
X-651129Y-45720D02*
X-649859Y-46990D01*
X-680720Y-45720D02*
X-651129D01*
X-693871Y-32569D02*
X-680720Y-45720D01*
X-693871Y-32569D02*
X-693871D01*
X-631190Y-69850D02*
X-622150D01*
X-703096Y-25884D02*
X-700621D01*
X-706720Y-22260D02*
X-703096Y-25884D01*
X-700621D02*
X-700589Y-25851D01*
X-731497Y-22260D02*
X-706720D01*
X-729840Y-26260D02*
X-714150D01*
X-312240Y-104272D02*
Y-72900D01*
X-316230Y-138430D02*
Y-111160D01*
X-684330Y-9430D02*
X-682530Y-11230D01*
Y-11430D02*
Y-11230D01*
X-684530Y-9430D02*
X-684330D01*
X-733147Y-23910D02*
X-731497Y-22260D01*
X-743810Y-23910D02*
X-733147D01*
X-743810Y-23910D02*
Y-23910D01*
X-731490Y-27910D02*
X-729840Y-26260D01*
X-755370Y-27910D02*
X-731490D01*
X-755370Y-23910D02*
X-743810D01*
X-755370D02*
Y-23910D01*
X-743810Y-19910D02*
X-737870Y-13970D01*
X-755370Y-19910D02*
X-743810D01*
X-729540Y-61270D02*
Y-46430D01*
X-729340Y-46230D01*
X-729740Y-61470D02*
X-729540Y-61270D01*
X-729340Y-46230D02*
Y-46030D01*
X-734600Y-40770D02*
Y-34290D01*
Y-40770D02*
X-729340Y-46030D01*
X-755370Y-31910D02*
X-736780D01*
X-734600Y-34090D01*
Y-34290D02*
Y-34090D01*
X-686480Y-1110D02*
X-685620Y-1970D01*
X-699920Y-1110D02*
X-686480D01*
X650240Y-24130D02*
Y-7220D01*
X667460Y10000D01*
X-810260Y11430D02*
X-809904Y11786D01*
X-798823D01*
X-803880Y4672D02*
X-797365D01*
X-793074Y380D01*
X-787360D01*
X-795020Y-63500D02*
Y-57150D01*
X-792480Y-54610D01*
X-788970D01*
X-784520Y-50160D02*
Y-45060D01*
X-788970Y-54610D02*
X-784520Y-50160D01*
X-788520Y-45060D02*
X-784520D01*
X-799380Y-23910D02*
X-793520D01*
X-803730Y-19560D02*
X-799380Y-23910D01*
X-793520D02*
Y-11910D01*
X-805180Y-45720D02*
Y-45570D01*
X-799520Y-39910D01*
X-793670D01*
X-782633Y-56926D02*
X-780520Y-54812D01*
Y-45060D01*
X-782633Y-61843D02*
Y-56926D01*
X-783020Y-62230D02*
X-782633Y-61843D01*
X-706903Y-72877D02*
Y-53850D01*
Y-72877D02*
X-700530Y-79250D01*
X-532890D01*
X-622150Y-69850D02*
X-621390Y-69090D01*
X-826770Y2540D02*
X-817320Y-6910D01*
X-990600Y2540D02*
X-826770D01*
X-817320Y-6910D02*
X-788520D01*
X-930910Y-3810D02*
X-928560Y-1460D01*
X-972820Y-298450D02*
X-889000D01*
X-878840Y-288290D01*
Y-217170D01*
X-907590Y-193850D02*
X-897890Y-184150D01*
X-907590Y-225300D02*
Y-193850D01*
X-897890Y-184150D02*
X-838200D01*
X-874840Y-234760D02*
X-868841Y-228761D01*
X-878840Y-298450D02*
Y-297258D01*
X-874840Y-293258D01*
Y-234760D01*
X-868841Y-228761D02*
X-819192D01*
X-878840Y-217170D02*
X-870441Y-208771D01*
X-860086D01*
X-861026Y-207831D02*
X-860086Y-208771D01*
X-861026Y-207831D02*
Y-194471D01*
X-780520Y-45060D02*
X-780520D01*
X-715823Y-8160D02*
X-712553Y-11430D01*
X-711200D01*
X-721360Y-8160D02*
X-715823D01*
X-722240Y1420D02*
X-719710Y-1110D01*
X-742040Y1420D02*
X-722240D01*
X-755370Y-11910D02*
X-742040Y1420D01*
X-739290Y-5470D02*
X-733180D01*
X-749730Y-15910D02*
X-739290Y-5470D01*
X-733180D02*
X-732790Y-5080D01*
X-743460Y7110D02*
X-635760D01*
X-749810Y760D02*
X-743460Y7110D01*
X-757433Y760D02*
X-749810D01*
X-719710Y-1110D02*
X-709420D01*
X-784860Y-36830D02*
X-774520Y-26490D01*
Y-25910D01*
X-763868Y-15258D01*
X-316147Y-111160D02*
X-315609Y-110622D01*
Y-107642D01*
X-312240Y-104272D01*
X-760520Y-45410D02*
X-760520Y-45410D01*
X-760520Y-155420D02*
Y-45410D01*
X-764520Y-131480D02*
Y-45410D01*
X-760520D02*
Y-41700D01*
X-758730Y-39910D02*
X-755020D01*
X-760520Y-41700D02*
X-758730Y-39910D01*
X-755020Y-35910D02*
X-746410D01*
X-755020Y-35910D02*
X-755020Y-35910D01*
X-755520Y-15910D02*
X-749730D01*
X-784520Y-6860D02*
Y-2460D01*
X-787360Y380D02*
X-784520Y-2460D01*
X-785644Y4380D02*
X-780520Y-744D01*
X-791417Y4380D02*
X-785644D01*
X-798823Y11786D02*
X-791417Y4380D01*
X-764520Y-45410D02*
X-764520D01*
X-742770Y-45690D02*
Y-39550D01*
X-746410Y-35910D02*
X-742770Y-39550D01*
X-755020Y-35910D02*
Y-35910D01*
X-822960Y-255270D02*
X-819192Y-251502D01*
Y-228761D01*
X-828505Y-255270D02*
X-822960D01*
X-828666Y-255431D02*
X-828505Y-255270D01*
X578930Y3810D02*
Y17780D01*
X633730Y-29940D02*
X644430D01*
X650240Y-24130D01*
X-380820Y-55120D02*
X-363040Y-72900D01*
X-612690Y-69090D02*
X-380820D01*
X-313738Y-71402D02*
Y-52022D01*
X-322070Y-43690D02*
X-313738Y-52022D01*
X-566420Y-43690D02*
X-322070Y-43690D01*
X-313738Y-71402D02*
X-312240Y-72900D01*
X579780Y-45110D02*
X582930Y-48260D01*
X613410D02*
X615950Y-45720D01*
X582930Y-48260D02*
X613410D01*
X586740Y17780D02*
X590210Y14310D01*
X580200Y17780D02*
X586740D01*
X585470Y3810D02*
X589280Y0D01*
X579660Y3810D02*
X585470D01*
X589280Y-11430D02*
Y0D01*
X597240Y-32750D02*
X598780Y-34290D01*
X597240Y-32750D02*
Y-27010D01*
X590820Y-20590D02*
Y-12970D01*
Y-20590D02*
X597240Y-27010D01*
X589280Y-11430D02*
X590820Y-12970D01*
X598780Y-11430D02*
Y20980D01*
X-826927Y-201757D02*
X-813897D01*
X-811217Y-199077D02*
Y-196537D01*
X-810260Y-195580D01*
X-813897Y-201757D02*
X-811217Y-199077D01*
X-797829Y-188229D02*
X-795846Y-186246D01*
X-834121Y-188229D02*
X-797829D01*
X-795846Y-182167D02*
X-795289Y-181610D01*
X-795846Y-186246D02*
Y-182167D01*
X-838200Y-184150D02*
X-834121Y-188229D01*
X-828827Y-200203D02*
X-827100Y-201930D01*
X-831444Y-194298D02*
X-828827Y-196915D01*
X-827100Y-201930D02*
X-826927Y-201757D01*
X-851353Y-194298D02*
X-831444D01*
X-828827Y-200203D02*
Y-196915D01*
X-851526Y-194471D02*
X-851353Y-194298D01*
X-803560Y-35910D02*
X-793520D01*
X-803560Y-34719D02*
X-803534Y-34692D01*
X-803560Y-35910D02*
Y-34719D01*
X-1006540Y-13400D02*
X-990600Y2540D01*
X-1006540Y-131140D02*
Y-13400D01*
X-876300Y-330200D02*
X-860086Y-313986D01*
Y-248751D01*
X-1035050Y-330200D02*
X-876300D01*
X-823500Y-28480D02*
X-816810D01*
X-829460Y-34440D02*
X-823500Y-28480D01*
X-829460Y-39710D02*
Y-34440D01*
X-816040Y-27910D02*
X-793520D01*
X-816610Y-28480D02*
X-816040Y-27910D01*
X625221Y-31369D02*
X626650Y-29940D01*
X633730D01*
X615950Y-31369D02*
X625221D01*
X615950Y-45720D02*
Y-31369D01*
X579780Y-45110D02*
Y-34290D01*
X-831011Y-85650D02*
X-784730D01*
X-831030Y-94331D02*
X-780711D01*
X-831011Y-117210D02*
X-776920D01*
X-831411Y-140070D02*
X-773110D01*
X-831011Y-162930D02*
X-768030D01*
X-747850Y17600D02*
X-736750D01*
X-504645Y-95506D02*
X-504328Y-95189D01*
Y-79567D02*
X-504010Y-79250D01*
X-760520Y-2327D02*
X-757433Y760D01*
X-763090Y27100D02*
Y38860D01*
X-778330Y27100D02*
X-763090D01*
X-760520Y-6910D02*
Y-2327D01*
X-764520Y-670D02*
X-755470Y8380D01*
X-764520Y-6860D02*
Y-670D01*
X-768520Y-6860D02*
Y1680D01*
X-763090Y7110D01*
Y17600D01*
X-780520Y-6860D02*
Y-744D01*
X-789122Y-23910D02*
X-787220Y-25812D01*
Y-30738D02*
Y-25812D01*
X-793520Y-23910D02*
X-789122D01*
X-788392Y-31910D02*
X-787220Y-30738D01*
X-793520Y-31910D02*
X-788392D01*
X-832281Y-84380D02*
X-831011Y-85650D01*
X-832281Y-93080D02*
X-831030Y-94331D01*
X-832281Y-115940D02*
X-831011Y-117210D01*
X-832281Y-152960D02*
Y-139200D01*
X-831411Y-140070D01*
X-832480Y-139000D02*
X-832281Y-139200D01*
Y-161660D02*
X-831011Y-162930D01*
X-793735Y27265D02*
X-793570Y27100D01*
X-804835Y27265D02*
X-793735D01*
X-805000Y27430D02*
X-804835Y27265D01*
X-793570Y27100D02*
X-778330D01*
X-776520Y-6860D02*
Y913D01*
X-783987Y8380D02*
X-776520Y913D01*
X-789760Y8380D02*
X-783987D01*
X-793570Y12190D02*
X-789760Y8380D01*
X-793570Y12190D02*
Y17600D01*
X-772520Y-6860D02*
Y2570D01*
X-778330Y8380D02*
X-772520Y2570D01*
X-778330Y8380D02*
Y17600D01*
X-523543Y-95353D02*
Y-79402D01*
X-523390Y-79250D01*
X-523695Y-95506D02*
X-523543Y-95353D01*
X-768030Y-162930D02*
X-760520Y-155420D01*
X-784730Y-85650D02*
X-776520Y-77440D01*
Y-44910D01*
X-780711Y-94331D02*
X-772520Y-86140D01*
Y-48860D01*
X-768520Y-108810D02*
Y-44910D01*
X-776920Y-117210D02*
X-768520Y-108810D01*
X-773110Y-140070D02*
X-764520Y-131480D01*
X-772520Y-48860D02*
X-772520Y-48860D01*
X-772520Y-44910D02*
X-772520D01*
Y-48860D02*
Y-44910D01*
X-859604Y-218754D02*
X-838538D01*
X-837226Y-217442D02*
Y-203031D01*
X-838538Y-218754D02*
X-837226Y-217442D01*
X-860086Y-218271D02*
X-859604Y-218754D01*
X-840935Y-238769D02*
X-840502D01*
X-859604D02*
X-840935D01*
X-842246Y-240080D02*
X-840935Y-238769D01*
X-860086Y-239251D02*
X-859604Y-238769D01*
X-840502D02*
X-840020Y-238286D01*
X-842246Y-250351D02*
Y-240080D01*
Y-250351D02*
X-838166Y-254431D01*
Y-255431D02*
Y-254431D01*
X-832480Y-70420D02*
X-832281D01*
X-776520Y-44910D02*
X-776520D01*
X-772520D02*
X-772520D01*
X-846251Y-162060D02*
X-846050Y-161860D01*
X-832480D01*
X-832281Y-161660D01*
X-846050Y-139000D02*
X-832480D01*
X-846251Y-139200D02*
X-846050Y-139000D01*
D15*
X-649859Y-46990D02*
D03*
X-632841D02*
D03*
X-851281Y-30480D02*
D03*
X-868299D02*
D03*
X-725551Y-180340D02*
D03*
X-742569D02*
D03*
X-791538Y52830D02*
D03*
X-774520D02*
D03*
X-333248Y-138430D02*
D03*
X-316230D02*
D03*
D20*
X-816610Y-19780D02*
D03*
Y-28480D02*
D03*
X-721360Y-8160D02*
D03*
Y540D02*
D03*
X633730Y-21240D02*
D03*
Y-29940D02*
D03*
X-742950Y-47720D02*
D03*
Y-56420D02*
D03*
X-832281Y-61520D02*
D03*
Y-70220D02*
D03*
Y-84380D02*
D03*
Y-93080D02*
D03*
Y-107240D02*
D03*
Y-115940D02*
D03*
Y-130100D02*
D03*
Y-138800D02*
D03*
Y-152960D02*
D03*
Y-161660D02*
D03*
X-684530Y-9430D02*
D03*
Y-730D02*
D03*
D34*
X659130Y48260D02*
X675150D01*
X686886Y30574D02*
Y36524D01*
X675150Y48260D02*
X686886Y36524D01*
Y30574D02*
X687460Y30000D01*
X648970Y38100D02*
X659130Y48260D01*
X648970Y13970D02*
Y38100D01*
X645160Y10160D02*
X648970Y13970D01*
D35*
X-890798Y-156720D02*
X-885589Y-151511D01*
X-915210Y-156720D02*
X-890798D01*
X-885589Y-151511D02*
X-867410D01*
X-716810Y-180340D02*
X-704850Y-168380D01*
X-725551Y-180340D02*
X-716810D01*
X-851281Y-30480D02*
Y-11811D01*
X-850900Y-11430D01*
X-457630Y-110060D02*
X-444860Y-122830D01*
Y-139720D02*
Y-132220D01*
X-486230Y-110060D02*
X-457630D01*
X-444860Y-132220D02*
Y-122830D01*
X577850Y-234950D02*
Y-123190D01*
X-915210Y-29720D02*
X-874139D01*
X-873379Y-30480D01*
X-868299D01*
X-915210Y-131320D02*
X-914340Y-130450D01*
X-847001D01*
X-914290Y-106840D02*
X-846251D01*
X-915210Y-105920D02*
X-914290Y-106840D01*
X-862500Y-83980D02*
X-846251D01*
X-865960Y-80520D02*
X-862500Y-83980D01*
X-915210Y-80520D02*
X-865960D01*
X-868850Y-61120D02*
X-846251D01*
X-874850Y-55120D02*
X-868850Y-61120D01*
X-504328Y-95189D02*
Y-79567D01*
X-770010Y52260D02*
X-749850D01*
X-717370Y-111160D02*
Y-65340D01*
X-720240Y-62470D02*
X-717370Y-65340D01*
X-720240Y-62470D02*
Y-61470D01*
X-514170Y-117766D02*
X-512376Y-119560D01*
X-514170Y-117766D02*
Y-116334D01*
X-512376Y-119560D02*
X-486230D01*
X-711720Y52260D02*
X-710735Y51275D01*
X-710781D02*
X-710735D01*
X-749850Y52260D02*
X-747850Y54260D01*
X-745850Y52260D02*
X-711720D01*
X-747850Y54260D02*
X-745850Y52260D01*
X-915210Y-55120D02*
X-874850D01*
X-847001Y-130450D02*
X-846251Y-129700D01*
D37*
X667460Y30000D02*
D03*
Y10000D02*
D03*
X687460Y30000D02*
D03*
Y-30000D02*
D03*
Y-10000D02*
D03*
X667460D02*
D03*
X687460Y10000D02*
D03*
D38*
X667460Y-30000D02*
D03*
D39*
X-907590Y-225300D02*
D03*
X-915210Y-156720D02*
D03*
D40*
X-907590Y-250700D02*
D03*
X-915210Y-55120D02*
D03*
Y-80520D02*
D03*
Y-105920D02*
D03*
Y-131320D02*
D03*
Y-29720D02*
D03*
D41*
X-911400Y212720D02*
D03*
Y168370D02*
D03*
X-955750D02*
D03*
X-867050D02*
D03*
Y212720D02*
D03*
X-955750D02*
D03*
Y257070D02*
D03*
X-911400D02*
D03*
X-867050D02*
D03*
X-561400Y212720D02*
D03*
Y168370D02*
D03*
X-605750D02*
D03*
X-517050D02*
D03*
Y212720D02*
D03*
X-605750D02*
D03*
Y257070D02*
D03*
X-561400D02*
D03*
X-517050D02*
D03*
X-911400Y73150D02*
D03*
Y28800D02*
D03*
X-955750D02*
D03*
X-867050D02*
D03*
Y73150D02*
D03*
X-955750D02*
D03*
Y117500D02*
D03*
X-911400D02*
D03*
X-867050D02*
D03*
X-561400Y-212730D02*
D03*
Y-257080D02*
D03*
X-605750D02*
D03*
X-517050D02*
D03*
Y-212730D02*
D03*
X-605750D02*
D03*
Y-168380D02*
D03*
X-561400D02*
D03*
X-517050D02*
D03*
X0Y0D02*
D03*
X-508000D02*
D03*
D42*
X-1061540Y-173140D02*
D03*
X-1006540D02*
D03*
X-1061540Y-215140D02*
D03*
X-1006540D02*
D03*
D43*
X-1061540Y-131140D02*
D03*
X-1006540Y-131140D02*
D03*
D44*
X655320Y-224790D02*
D03*
Y224790D02*
D03*
D45*
X-806450Y-72390D02*
D03*
X-752214Y-56190D02*
D03*
X-675790Y-1270D02*
D03*
X-806450Y-57150D02*
D03*
X-736600Y36830D02*
D03*
X-723900Y15240D02*
D03*
X-791210Y38100D02*
D03*
X-819150Y21590D02*
D03*
X-829310Y11430D02*
D03*
X-773430Y39370D02*
D03*
X-715010Y-35560D02*
D03*
X-697230Y-12700D02*
D03*
X-727710Y-13970D02*
D03*
X-651510Y-19050D02*
D03*
X-588010Y-45720D02*
D03*
X-650240Y-59690D02*
D03*
X-674219Y-29361D02*
D03*
X-631190Y-69850D02*
D03*
X-737870Y-13970D02*
D03*
X-810260Y11430D02*
D03*
X-803880Y4672D02*
D03*
X-795020Y-63500D02*
D03*
X-803730Y-19560D02*
D03*
X-805180Y-45720D02*
D03*
X-783020Y-62230D02*
D03*
X-1034962Y332079D02*
D03*
X-1018540Y313690D02*
D03*
X-1018218Y339239D02*
D03*
X-1065241Y-318115D02*
D03*
X-1017270Y-337820D02*
D03*
Y-311150D02*
D03*
X-732790Y-5080D02*
D03*
X-784860Y-36830D02*
D03*
X-763868Y-15258D02*
D03*
X-878840Y-298450D02*
D03*
X-706903Y-53850D02*
D03*
X590210Y14310D02*
D03*
X598780Y20980D02*
D03*
X-810260Y-195580D02*
D03*
X-795289Y-181610D02*
D03*
X-803534Y-34692D02*
D03*
X-1035050Y-330200D02*
D03*
X-829460Y-39710D02*
D03*
X-736750Y17600D02*
D03*
X-711200Y-11430D02*
D03*
X-763090Y38860D02*
D03*
X-755470Y8380D02*
D03*
X-805000Y27430D02*
D03*
D46*
X645160Y10160D02*
D03*
X-850900Y-11430D02*
D03*
X577850Y-234950D02*
D03*
Y-123190D02*
D03*
X-504010Y-79250D02*
D03*
D47*
X-824230Y257710D02*
D03*
X-793750D02*
D03*
Y213360D02*
D03*
X-824230D02*
D03*
X-793750Y169010D02*
D03*
X-824230D02*
D03*
X-748030Y114300D02*
D03*
X-1061720Y-14070D02*
D03*
Y-58420D02*
D03*
Y28040D02*
D03*
X-1031240D02*
D03*
X-1000760D02*
D03*
X-1061720Y72390D02*
D03*
X-1031240D02*
D03*
X-1000760D02*
D03*
Y116740D02*
D03*
X-1031240D02*
D03*
X-1061720D02*
D03*
X-822960Y52070D02*
D03*
Y83820D02*
D03*
Y114300D02*
D03*
X-784860D02*
D03*
Y83820D02*
D03*
X-385980Y93980D02*
D03*
X-341630D02*
D03*
X-549910Y-1270D02*
D03*
X-426820D02*
D03*
X-471170D02*
D03*
X-593090D02*
D03*
X-297280Y93980D02*
D03*
Y124460D02*
D03*
X-341630D02*
D03*
X-385980D02*
D03*
X-426820Y93980D02*
D03*
Y124460D02*
D03*
X-471170Y93980D02*
D03*
Y124460D02*
D03*
X-515520D02*
D03*
Y93980D02*
D03*
X-426820Y33020D02*
D03*
Y63500D02*
D03*
X-471170Y33020D02*
D03*
Y63500D02*
D03*
X-515520D02*
D03*
Y33020D02*
D03*
X-396240Y-78740D02*
D03*
X-382270Y-209450D02*
D03*
X-351790D02*
D03*
X-382270Y-165100D02*
D03*
X-351790D02*
D03*
X-382270Y-120750D02*
D03*
X-704850Y-168380D02*
D03*
X-674370D02*
D03*
X-643890D02*
D03*
Y-212730D02*
D03*
X-674370D02*
D03*
X-704850D02*
D03*
X-643890Y-257080D02*
D03*
X-674370D02*
D03*
X-704850D02*
D03*
D48*
X-659384Y-9525D02*
D03*
Y-28575D02*
D03*
X-638556Y-19050D02*
D03*
X-840020Y-219236D02*
D03*
Y-238286D02*
D03*
X-819192Y-228761D02*
D03*
D49*
X-693871Y-32569D02*
D03*
X-700589Y-25851D02*
D03*
D50*
X-619760Y-31420D02*
D03*
Y-21920D02*
D03*
X-486230Y-110060D02*
D03*
Y-119560D02*
D03*
X-763090Y17600D02*
D03*
Y27100D02*
D03*
X-778330Y17600D02*
D03*
Y27100D02*
D03*
X-793570Y17600D02*
D03*
Y27100D02*
D03*
X-860086Y-218271D02*
D03*
Y-208771D02*
D03*
Y-239251D02*
D03*
Y-248751D02*
D03*
X-846251Y-70620D02*
D03*
Y-61120D02*
D03*
Y-93480D02*
D03*
Y-83980D02*
D03*
Y-116340D02*
D03*
Y-106840D02*
D03*
Y-139200D02*
D03*
Y-129700D02*
D03*
X-747850Y27100D02*
D03*
Y17600D02*
D03*
X-847090Y-161620D02*
D03*
Y-171120D02*
D03*
D51*
X-793670Y-11910D02*
D03*
Y-23910D02*
D03*
Y-15910D02*
D03*
Y-19910D02*
D03*
Y-27910D02*
D03*
Y-31910D02*
D03*
Y-35910D02*
D03*
Y-39910D02*
D03*
X-755370Y-11910D02*
D03*
Y-23910D02*
D03*
Y-15910D02*
D03*
Y-19910D02*
D03*
Y-27910D02*
D03*
Y-31910D02*
D03*
Y-35910D02*
D03*
Y-39910D02*
D03*
D52*
X-788520Y-6760D02*
D03*
X-776520D02*
D03*
X-784520D02*
D03*
X-780520D02*
D03*
X-772520D02*
D03*
X-768520D02*
D03*
X-764520D02*
D03*
X-760520D02*
D03*
X-788520Y-45060D02*
D03*
X-776520D02*
D03*
X-784520D02*
D03*
X-780520D02*
D03*
X-772520D02*
D03*
X-768520D02*
D03*
X-764520D02*
D03*
X-760520D02*
D03*
D53*
X-774520Y-25910D02*
D03*
D54*
X598780Y-34290D02*
D03*
X589280D02*
D03*
X579780D02*
D03*
Y-11430D02*
D03*
X589280D02*
D03*
X598780D02*
D03*
D55*
X-867410Y-168529D02*
D03*
Y-151511D02*
D03*
X615950Y-31369D02*
D03*
Y-14351D02*
D03*
D56*
X-851526Y-194471D02*
D03*
X-861026D02*
D03*
X-827100Y-201930D02*
D03*
X-836600D02*
D03*
X-828666Y-255431D02*
D03*
X-838166D02*
D03*
X-729740Y-61470D02*
D03*
X-720240D02*
D03*
X-532890Y-79250D02*
D03*
X-523390D02*
D03*
X-697560Y-1270D02*
D03*
X-707060D02*
D03*
X-626260Y7110D02*
D03*
X-635760D02*
D03*
X-566750Y-44450D02*
D03*
X-576250D02*
D03*
D57*
X-504645Y-95506D02*
D03*
X-523695D02*
D03*
X-514170Y-116334D02*
D03*
D58*
X-595450Y75690D02*
D03*
D59*
X-709750Y101090D02*
D03*
Y50290D02*
D03*
D60*
X-337820Y35560D02*
D03*
D61*
X-363220Y-78740D02*
D03*
X-312420D02*
D03*
D62*
X-444860Y-139720D02*
D03*
D63*
X-467360Y-185420D02*
D03*
X-422360D02*
D03*
D64*
X-717370Y-109160D02*
D03*
Y-145860D02*
D03*
X-747850Y52260D02*
D03*
Y88960D02*
D03*
D65*
X-315500Y-115570D02*
D03*
X-352200D02*
D03*
D66*
X-734600Y-34290D02*
D03*
X-725900D02*
D03*
X-729340Y-46230D02*
D03*
X-720640D02*
D03*
X570230Y3810D02*
D03*
X578930D02*
D03*
X570230Y17780D02*
D03*
X578930D02*
D03*
X-612690Y-69090D02*
D03*
X-621390D02*
D03*
D67*
X-867410Y-168529D02*
X-864819Y-171120D01*
X-847090D01*
X-764870D02*
X-755650Y-180340D01*
X-847090Y-171120D02*
X-764870D01*
X-755650Y-180340D02*
X-742569D01*
X-747850Y27100D02*
Y54260D01*
X-832281Y-84380D02*
Y-70420D01*
Y-130100D02*
Y-115940D01*
X-832480Y-116140D02*
X-832281Y-115940D01*
X-846251Y-116340D02*
X-846050Y-116140D01*
X-832480D01*
X-832281Y-107240D02*
Y-93080D01*
X-832480Y-93280D02*
X-832281Y-93080D01*
X-846251Y-93480D02*
X-846050Y-93280D01*
X-832480D01*
X-846050Y-70420D02*
X-832480D01*
X-846251Y-70620D02*
X-846050Y-70420D01*
M02*
