G04*
G04 #@! TF.GenerationSoftware,Altium Limited,Altium Designer,23.0.1 (38)*
G04*
G04 Layer_Physical_Order=1*
G04 Layer_Color=255*
%FSLAX44Y44*%
%MOMM*%
G71*
G04*
G04 #@! TF.SameCoordinates,8AFF7610-CFF1-491F-A99F-289BE66ABFEC*
G04*
G04*
G04 #@! TF.FilePolarity,Positive*
G04*
G01*
G75*
%ADD11C,0.2000*%
%ADD15R,1.0160X1.1430*%
%ADD16R,2.7000X6.2000*%
%ADD17R,2.7000X1.0000*%
%ADD18R,1.7000X0.6000*%
%ADD19R,0.6500X1.0000*%
%ADD20R,0.6000X0.5600*%
%ADD34C,1.0000*%
%ADD35C,0.6000*%
%ADD36C,0.2032*%
%ADD37C,1.3000*%
G04:AMPARAMS|DCode=38|XSize=1.3mm|YSize=1.3mm|CornerRadius=0.325mm|HoleSize=0mm|Usage=FLASHONLY|Rotation=90.000|XOffset=0mm|YOffset=0mm|HoleType=Round|Shape=RoundedRectangle|*
%AMROUNDEDRECTD38*
21,1,1.3000,0.6500,0,0,90.0*
21,1,0.6500,1.3000,0,0,90.0*
1,1,0.6500,0.3250,0.3250*
1,1,0.6500,0.3250,-0.3250*
1,1,0.6500,-0.3250,-0.3250*
1,1,0.6500,-0.3250,0.3250*
%
%ADD38ROUNDEDRECTD38*%
G04:AMPARAMS|DCode=39|XSize=1.62mm|YSize=1.62mm|CornerRadius=0.405mm|HoleSize=0mm|Usage=FLASHONLY|Rotation=270.000|XOffset=0mm|YOffset=0mm|HoleType=Round|Shape=RoundedRectangle|*
%AMROUNDEDRECTD39*
21,1,1.6200,0.8100,0,0,270.0*
21,1,0.8100,1.6200,0,0,270.0*
1,1,0.8100,-0.4050,-0.4050*
1,1,0.8100,-0.4050,0.4050*
1,1,0.8100,0.4050,0.4050*
1,1,0.8100,0.4050,-0.4050*
%
%ADD39ROUNDEDRECTD39*%
%ADD40C,1.6200*%
%ADD41C,3.2000*%
%ADD42C,3.0000*%
%ADD43C,3.0000*%
%ADD44C,3.1750*%
%ADD45C,0.7000*%
%ADD46C,1.0000*%
%ADD47C,1.5000*%
G36*
X568562Y362158D02*
X580233Y360309D01*
X591721Y357551D01*
X602958Y353900D01*
X613875Y349378D01*
X624402Y344014D01*
X634477Y337841D01*
X644035Y330896D01*
X653020Y323223D01*
X661374Y314868D01*
X669048Y305883D01*
X675993Y296325D01*
X682166Y286250D01*
X687531Y275722D01*
X692052Y264806D01*
X695703Y253569D01*
X698462Y242080D01*
X700310Y230410D01*
X701237Y218631D01*
Y212724D01*
Y-212726D01*
Y-218634D01*
X700310Y-230413D01*
X698462Y-242083D01*
X695703Y-253572D01*
X692052Y-264809D01*
X687531Y-275725D01*
X682167Y-286252D01*
X675993Y-296327D01*
X669048Y-305886D01*
X661375Y-314870D01*
X653020Y-323225D01*
X644035Y-330898D01*
X634477Y-337843D01*
X624402Y-344017D01*
X613875Y-349381D01*
X602959Y-353902D01*
X591721Y-357553D01*
X580233Y-360312D01*
X568563Y-362160D01*
X556783Y-363087D01*
X-1058873D01*
X-1064781Y-363087D01*
X-1076559Y-362160D01*
X-1088230Y-360312D01*
X-1099718Y-357553D01*
X-1110956Y-353902D01*
X-1121872Y-349381D01*
X-1132399Y-344017D01*
X-1142474Y-337843D01*
X-1152032Y-330898D01*
X-1161017Y-323225D01*
X-1169371Y-314870D01*
X-1177045Y-305886D01*
X-1183990Y-296327D01*
X-1190163Y-286253D01*
X-1195528Y-275725D01*
X-1200049Y-264809D01*
X-1203700Y-253572D01*
X-1206459Y-242083D01*
X-1208307Y-230413D01*
X-1209234Y-218634D01*
Y-212726D01*
Y212724D01*
X-1209234Y218631D01*
X-1208307Y230410D01*
X-1206459Y242080D01*
X-1203700Y253569D01*
X-1200049Y264806D01*
X-1195528Y275722D01*
X-1190164Y286250D01*
X-1183990Y296324D01*
X-1177045Y305883D01*
X-1169372Y314867D01*
X-1161017Y323222D01*
X-1152032Y330896D01*
X-1142474Y337841D01*
X-1132399Y344014D01*
X-1121872Y349378D01*
X-1110956Y353900D01*
X-1099718Y357551D01*
X-1088230Y360309D01*
X-1076560Y362158D01*
X-1064781Y363085D01*
X556783D01*
X568562Y362158D01*
D02*
G37*
%LPC*%
G36*
X425150Y358967D02*
X374850D01*
X372529Y358661D01*
X370367Y357765D01*
X368510Y356340D01*
X367085Y354483D01*
X366189Y352321D01*
X365883Y350000D01*
X366189Y347679D01*
X367085Y345517D01*
X368510Y343660D01*
X370367Y342235D01*
X372529Y341339D01*
X374850Y341033D01*
X425150D01*
X427471Y341339D01*
X429633Y342235D01*
X431490Y343660D01*
X432915Y345517D01*
X433811Y347679D01*
X434117Y350000D01*
X433811Y352321D01*
X432915Y354483D01*
X431490Y356340D01*
X429633Y357765D01*
X427471Y358661D01*
X425150Y358967D01*
D02*
G37*
G36*
X-474850D02*
X-525150D01*
X-527471Y358661D01*
X-529633Y357765D01*
X-531490Y356340D01*
X-532915Y354483D01*
X-533811Y352321D01*
X-534117Y350000D01*
X-533811Y347679D01*
X-532915Y345517D01*
X-531490Y343660D01*
X-529633Y342235D01*
X-527471Y341339D01*
X-525150Y341033D01*
X-474850D01*
X-472529Y341339D01*
X-470367Y342235D01*
X-468510Y343660D01*
X-467085Y345517D01*
X-466189Y347679D01*
X-465883Y350000D01*
X-466189Y352321D01*
X-467085Y354483D01*
X-468510Y356340D01*
X-470367Y357765D01*
X-472529Y358661D01*
X-474850Y358967D01*
D02*
G37*
G36*
X-1034962Y337686D02*
X-1037108Y337259D01*
X-1038230Y336510D01*
X-1039500Y337189D01*
Y337500D01*
X-1060500D01*
Y327500D01*
X-1039500D01*
X-1039500Y327500D01*
Y327500D01*
X-1038230Y327647D01*
X-1037108Y326898D01*
X-1034962Y326471D01*
X-1032816Y326898D01*
X-1030997Y328113D01*
X-1029781Y329933D01*
X-1029354Y332079D01*
X-1029781Y334225D01*
X-1030997Y336044D01*
X-1032816Y337259D01*
X-1034962Y337686D01*
D02*
G37*
G36*
X-1002500Y358000D02*
X-1033500D01*
Y344000D01*
X-1023104D01*
X-1022500Y342730D01*
X-1023399Y341385D01*
X-1023826Y339239D01*
X-1023399Y337093D01*
X-1022184Y335274D01*
X-1020364Y334058D01*
X-1018218Y333631D01*
X-1016072Y334058D01*
X-1014253Y335274D01*
X-1013037Y337093D01*
X-1012610Y339239D01*
X-1013037Y341385D01*
X-1013936Y342730D01*
X-1013332Y344000D01*
X-1002500D01*
Y358000D01*
D02*
G37*
G36*
X-1039500Y325000D02*
X-1060500D01*
Y323059D01*
X-1080810D01*
X-1080810Y323059D01*
X-1081981Y322826D01*
X-1082973Y322163D01*
X-1082973Y322163D01*
X-1101983Y303153D01*
X-1102646Y302160D01*
X-1102879Y300990D01*
X-1102879Y300990D01*
Y-306070D01*
X-1102879Y-306070D01*
X-1102646Y-307241D01*
X-1101983Y-308233D01*
X-1078053Y-332163D01*
X-1078053Y-332163D01*
X-1077060Y-332826D01*
X-1075890Y-333059D01*
X-1075890Y-333059D01*
X-1060500D01*
Y-335000D01*
X-1039500D01*
X-1039500Y-335000D01*
Y-335000D01*
X-1038230Y-334690D01*
X-1037196Y-335381D01*
X-1035050Y-335808D01*
X-1032904Y-335381D01*
X-1031085Y-334165D01*
X-1029869Y-332346D01*
X-1029442Y-330200D01*
X-1029869Y-328054D01*
X-1031085Y-326235D01*
X-1032904Y-325019D01*
X-1035050Y-324592D01*
X-1037196Y-325019D01*
X-1038230Y-325710D01*
X-1039500Y-325031D01*
Y-325000D01*
X-1060500D01*
Y-326941D01*
X-1074623D01*
X-1096761Y-304803D01*
Y299723D01*
X-1079543Y316941D01*
X-1060500D01*
Y315000D01*
X-1039500D01*
Y325000D01*
D02*
G37*
G36*
X-1018540Y319298D02*
X-1020686Y318871D01*
X-1022505Y317655D01*
X-1023721Y315836D01*
X-1024148Y313690D01*
X-1023721Y311544D01*
X-1022535Y309770D01*
X-1022588Y309500D01*
X-1022958Y308500D01*
X-1033500D01*
Y294500D01*
X-1002500D01*
Y308500D01*
X-1014122D01*
X-1014492Y309500D01*
X-1014545Y309770D01*
X-1013359Y311544D01*
X-1012932Y313690D01*
X-1013359Y315836D01*
X-1014575Y317655D01*
X-1016394Y318871D01*
X-1018540Y319298D01*
D02*
G37*
G36*
X-977604Y294139D02*
X-977760Y294108D01*
X-977918Y294115D01*
X-978146Y294031D01*
X-978384Y293984D01*
X-978516Y293896D01*
X-978666Y293841D01*
X-978844Y293677D01*
X-979046Y293542D01*
X-979134Y293410D01*
X-979251Y293302D01*
X-990745Y277552D01*
X-990847Y277332D01*
X-990982Y277130D01*
X-991013Y276975D01*
X-991080Y276830D01*
X-991090Y276588D01*
X-991137Y276350D01*
Y160429D01*
X-991082Y160151D01*
X-991059Y159868D01*
X-991005Y159764D01*
X-990982Y159649D01*
X-990824Y159413D01*
X-990695Y159160D01*
X-976853Y141739D01*
X-977467Y140469D01*
X-1078230D01*
X-1079010Y140314D01*
X-1079672Y139872D01*
X-1087292Y132252D01*
X-1087734Y131590D01*
X-1087889Y130810D01*
Y-146050D01*
X-1087734Y-146830D01*
X-1087292Y-147492D01*
X-1087292Y-147492D01*
X-1086197Y-148587D01*
X-1090725Y-153115D01*
X-1091830Y-154769D01*
X-1092218Y-156720D01*
Y-264160D01*
X-1091830Y-266111D01*
X-1090725Y-267765D01*
X-1070405Y-288085D01*
X-1068751Y-289190D01*
X-1066800Y-289578D01*
X-897139D01*
Y-294640D01*
X-897139Y-294640D01*
X-896906Y-295811D01*
X-896243Y-296803D01*
X-892433Y-300613D01*
X-891441Y-301276D01*
X-890270Y-301509D01*
X-890270Y-301509D01*
X-883411D01*
X-882805Y-302415D01*
X-880986Y-303631D01*
X-878840Y-304058D01*
X-876694Y-303631D01*
X-874875Y-302415D01*
X-873659Y-300596D01*
X-873232Y-298450D01*
X-873659Y-296304D01*
X-874875Y-294485D01*
X-876694Y-293269D01*
X-878840Y-292842D01*
X-880986Y-293269D01*
X-882805Y-294485D01*
X-883411Y-295391D01*
X-889003D01*
X-891021Y-293373D01*
Y-289578D01*
X-847932D01*
X-799895Y-337615D01*
X-798241Y-338720D01*
X-796290Y-339108D01*
X490318D01*
X492269Y-338720D01*
X493923Y-337615D01*
X581264Y-250275D01*
X582369Y-248621D01*
X582757Y-246670D01*
Y-240008D01*
X582842Y-239942D01*
X583965Y-238480D01*
X584670Y-236777D01*
X584910Y-234950D01*
X584670Y-233123D01*
X583965Y-231420D01*
X582842Y-229958D01*
X581380Y-228836D01*
X579677Y-228130D01*
X577850Y-227890D01*
X576023Y-228130D01*
X574320Y-228836D01*
X572858Y-229958D01*
X571735Y-231420D01*
X571030Y-233123D01*
X570790Y-234950D01*
X571030Y-236777D01*
X571735Y-238480D01*
X572561Y-239556D01*
Y-244558D01*
X488207Y-328912D01*
X-794178D01*
X-842215Y-280875D01*
X-843869Y-279770D01*
X-845820Y-279382D01*
X-1064688D01*
X-1082022Y-262048D01*
Y-158832D01*
X-1077630Y-154439D01*
X-1041400D01*
X-1040620Y-154284D01*
X-1039958Y-153842D01*
X-1039958Y-153842D01*
X-1033608Y-147492D01*
X-1033166Y-146830D01*
X-1033011Y-146050D01*
Y-30055D01*
X-998645Y4311D01*
X-939800D01*
X-939020Y4466D01*
X-938358Y4908D01*
X-938358Y4908D01*
X-938195Y5071D01*
X-846910D01*
X-846910Y5071D01*
X-846130Y5226D01*
X-845468Y5668D01*
X-845468Y5668D01*
X-805425Y45711D01*
X-783410D01*
X-782630Y45866D01*
X-781968Y46308D01*
X-778158Y50118D01*
X-777716Y50780D01*
X-777561Y51560D01*
Y58411D01*
X-761820D01*
X-761040Y58566D01*
X-760378Y59008D01*
X-760378Y59008D01*
X-743195Y76191D01*
X-681810D01*
X-681810Y76191D01*
X-681030Y76346D01*
X-680368Y76788D01*
X-679245Y76419D01*
X-676349Y73523D01*
Y4227D01*
X-677936Y3911D01*
X-679755Y2695D01*
X-680201Y2028D01*
X-681471Y2413D01*
Y19050D01*
X-681471Y19050D01*
X-681704Y20220D01*
X-682367Y21213D01*
X-682367Y21213D01*
X-691257Y30103D01*
X-692250Y30766D01*
X-693420Y30999D01*
X-693420Y30999D01*
X-746760D01*
X-747931Y30766D01*
X-748923Y30103D01*
X-748923Y30103D01*
X-757633Y21393D01*
X-758296Y20401D01*
X-758529Y19230D01*
X-758529Y19230D01*
Y12951D01*
X-759435Y12345D01*
X-760651Y10526D01*
X-761078Y8380D01*
X-760651Y6234D01*
X-759435Y4415D01*
X-757616Y3199D01*
X-755470Y2772D01*
X-753324Y3199D01*
X-751505Y4415D01*
X-750289Y6234D01*
X-749862Y8380D01*
X-750289Y10526D01*
X-751505Y12345D01*
X-752411Y12951D01*
Y17963D01*
X-745493Y24881D01*
X-694687D01*
X-687589Y17783D01*
Y-17571D01*
X-709066Y-39048D01*
X-709729Y-40040D01*
X-709961Y-41211D01*
X-709961Y-41211D01*
Y-49279D01*
X-710868Y-49885D01*
X-712084Y-51704D01*
X-712510Y-53850D01*
X-712084Y-55996D01*
X-710868Y-57815D01*
X-709049Y-59031D01*
X-706903Y-59458D01*
X-704757Y-59031D01*
X-702937Y-57815D01*
X-701722Y-55996D01*
X-701295Y-53850D01*
X-701722Y-51704D01*
X-702937Y-49885D01*
X-703844Y-49279D01*
Y-42478D01*
X-691492Y-30126D01*
X-690319Y-30612D01*
Y-54803D01*
X-701187Y-65671D01*
X-775253D01*
X-777625Y-63299D01*
X-777412Y-62230D01*
X-777839Y-60084D01*
X-779055Y-58265D01*
X-780874Y-57049D01*
X-783020Y-56622D01*
X-785166Y-57049D01*
X-786985Y-58265D01*
X-788201Y-60084D01*
X-788628Y-62230D01*
X-788201Y-64376D01*
X-786985Y-66195D01*
X-785166Y-67411D01*
X-783020Y-67838D01*
X-781951Y-67625D01*
X-780421Y-69155D01*
X-780907Y-70329D01*
X-789349D01*
X-791961Y-67716D01*
Y-63500D01*
X-792194Y-62330D01*
X-792857Y-61337D01*
X-793849Y-60674D01*
X-795020Y-60441D01*
X-796190Y-60674D01*
X-797183Y-61337D01*
X-797846Y-62330D01*
X-798079Y-63500D01*
Y-68983D01*
X-798079Y-68983D01*
X-797846Y-70154D01*
X-797183Y-71146D01*
X-792779Y-75550D01*
X-791786Y-76213D01*
X-790616Y-76446D01*
X-698921D01*
X-698921Y-76446D01*
X-697750Y-76213D01*
X-696758Y-75550D01*
X-681097Y-59890D01*
X-681088Y-59875D01*
X-679818Y-60261D01*
Y-61865D01*
X-679818Y-61865D01*
X-679585Y-63036D01*
X-678922Y-64028D01*
X-670937Y-72013D01*
X-669945Y-72676D01*
X-668774Y-72909D01*
X-635761D01*
X-635155Y-73815D01*
X-633336Y-75031D01*
X-631190Y-75458D01*
X-629044Y-75031D01*
X-627225Y-73815D01*
X-626009Y-71996D01*
X-625582Y-69850D01*
X-626009Y-67704D01*
X-627225Y-65885D01*
X-629044Y-64669D01*
X-631190Y-64242D01*
X-633336Y-64669D01*
X-635155Y-65885D01*
X-635761Y-66791D01*
X-667507D01*
X-673700Y-60598D01*
Y-39216D01*
X-672056Y-37572D01*
X-672056Y-37572D01*
X-671393Y-36579D01*
X-671160Y-35409D01*
Y-33932D01*
X-670254Y-33326D01*
X-669038Y-31507D01*
X-668611Y-29361D01*
X-669038Y-27215D01*
X-670254Y-25396D01*
X-672073Y-24180D01*
X-672280Y-24139D01*
X-672648Y-22924D01*
X-663127Y-13403D01*
X-663127Y-13403D01*
X-661624Y-13262D01*
X-656905Y-17981D01*
X-657118Y-19050D01*
X-656691Y-21196D01*
X-655475Y-23015D01*
X-653656Y-24231D01*
X-651510Y-24658D01*
X-649364Y-24231D01*
X-647545Y-23015D01*
X-646329Y-21196D01*
X-645902Y-19050D01*
X-646329Y-16904D01*
X-647545Y-15085D01*
X-649364Y-13869D01*
X-651510Y-13442D01*
X-652579Y-13655D01*
X-658231Y-8003D01*
Y18551D01*
X-657046Y19065D01*
X-656949D01*
X-649302Y11418D01*
X-649302Y11418D01*
X-648640Y10976D01*
X-647860Y10821D01*
X-631779D01*
Y760D01*
X-631779Y760D01*
X-631624Y-20D01*
X-631182Y-682D01*
X-610862Y-21002D01*
X-610200Y-21444D01*
X-609420Y-21599D01*
X-511208D01*
X-510914Y-21541D01*
X-510616Y-21511D01*
X-510527Y-21464D01*
X-510428Y-21444D01*
X-510178Y-21277D01*
X-509914Y-21136D01*
X-509850Y-21058D01*
X-509766Y-21002D01*
X-509599Y-20753D01*
X-509409Y-20521D01*
X-509380Y-20424D01*
X-509324Y-20340D01*
X-509266Y-20047D01*
X-509179Y-19760D01*
X-509057Y-18526D01*
X-508000Y-18630D01*
X-506943Y-18526D01*
X-506821Y-19760D01*
X-506735Y-20047D01*
X-506676Y-20340D01*
X-506620Y-20424D01*
X-506590Y-20521D01*
X-506400Y-20753D01*
X-506234Y-21002D01*
X-506150Y-21058D01*
X-506086Y-21136D01*
X-505822Y-21277D01*
X-505572Y-21444D01*
X-505473Y-21464D01*
X-505384Y-21511D01*
X-505086Y-21541D01*
X-504792Y-21599D01*
X-284990D01*
X-284210Y-21444D01*
X-283548Y-21002D01*
X-283548Y-21002D01*
X-272878Y-10332D01*
X-272436Y-9670D01*
X-272281Y-8890D01*
Y129540D01*
X-272436Y130320D01*
X-272878Y130982D01*
X-283798Y141902D01*
X-284460Y142344D01*
X-285240Y142499D01*
X-649480D01*
X-650260Y142344D01*
X-650922Y141902D01*
X-650922Y141902D01*
X-659302Y133522D01*
X-659744Y132860D01*
X-659899Y132080D01*
Y26037D01*
X-661058Y24878D01*
X-662231Y25364D01*
Y131197D01*
X-662464Y132367D01*
X-663127Y133360D01*
X-663127Y133360D01*
X-677980Y148213D01*
X-678973Y148876D01*
X-680143Y149109D01*
X-680143Y149109D01*
X-712473D01*
X-715571Y152207D01*
Y198313D01*
X-703583Y210301D01*
X-678590D01*
X-677420Y210534D01*
X-676427Y211197D01*
X-675764Y212190D01*
X-675531Y213360D01*
X-675764Y214531D01*
X-676427Y215523D01*
X-677420Y216186D01*
X-678590Y216419D01*
X-704850D01*
X-706021Y216186D01*
X-707013Y215523D01*
X-719348Y203188D01*
X-720988Y203344D01*
X-733167Y215523D01*
X-734159Y216186D01*
X-735330Y216419D01*
X-735330Y216419D01*
X-742129D01*
Y274268D01*
X-742129Y274268D01*
X-742284Y275048D01*
X-742726Y275710D01*
X-742726Y275710D01*
X-760558Y293542D01*
X-761220Y293984D01*
X-762000Y294139D01*
X-977604Y294139D01*
D02*
G37*
G36*
X655320Y243294D02*
X651710Y242939D01*
X648239Y241886D01*
X645040Y240176D01*
X642236Y237874D01*
X639934Y235070D01*
X638224Y231871D01*
X637171Y228400D01*
X636816Y224790D01*
X637171Y221180D01*
X638224Y217709D01*
X639934Y214510D01*
X642236Y211706D01*
X645040Y209404D01*
X648239Y207694D01*
X651710Y206641D01*
X655320Y206286D01*
X658930Y206641D01*
X662401Y207694D01*
X665600Y209404D01*
X668404Y211706D01*
X670706Y214510D01*
X672416Y217709D01*
X673469Y221180D01*
X673824Y224790D01*
X673469Y228400D01*
X672416Y231871D01*
X670706Y235070D01*
X668404Y237874D01*
X665600Y240176D01*
X662401Y241886D01*
X658930Y242939D01*
X655320Y243294D01*
D02*
G37*
G36*
X-561400Y235872D02*
X-565917Y235427D01*
X-570260Y234109D01*
X-574262Y231970D01*
X-577771Y229091D01*
X-580650Y225582D01*
X-582789Y221580D01*
X-584107Y217237D01*
X-584552Y212720D01*
X-584107Y208203D01*
X-582789Y203860D01*
X-580650Y199858D01*
X-577771Y196349D01*
X-574262Y193470D01*
X-570260Y191331D01*
X-565917Y190013D01*
X-561400Y189569D01*
X-556883Y190013D01*
X-552540Y191331D01*
X-548538Y193470D01*
X-545029Y196349D01*
X-542150Y199858D01*
X-540011Y203860D01*
X-538693Y208203D01*
X-538248Y212720D01*
X-538693Y217237D01*
X-540011Y221580D01*
X-542150Y225582D01*
X-545029Y229091D01*
X-548538Y231970D01*
X-552540Y234109D01*
X-556883Y235427D01*
X-561400Y235872D01*
D02*
G37*
G36*
X619601Y39465D02*
X605441D01*
Y36848D01*
X598780D01*
X598475Y36787D01*
X598170Y36848D01*
X595630D01*
X593679Y36460D01*
X592025Y35355D01*
X587580Y30910D01*
X587580Y30910D01*
X574245Y17575D01*
X573140Y15921D01*
X572752Y13970D01*
Y-118335D01*
X571735Y-119660D01*
X571030Y-121363D01*
X570790Y-123190D01*
X571030Y-125017D01*
X571735Y-126720D01*
X572858Y-128182D01*
X574320Y-129305D01*
X576023Y-130010D01*
X577850Y-130250D01*
X579677Y-130010D01*
X581380Y-129305D01*
X582842Y-128182D01*
X583965Y-126720D01*
X584670Y-125017D01*
X584910Y-123190D01*
X584670Y-121363D01*
X583965Y-119660D01*
X582948Y-118335D01*
Y11858D01*
X583782Y12693D01*
X584998Y12324D01*
X585029Y12164D01*
X586245Y10344D01*
X588064Y9129D01*
X590210Y8702D01*
X591280Y8915D01*
X592402Y7792D01*
X588215Y3605D01*
X587110Y1951D01*
X586722Y0D01*
Y-135048D01*
X447468Y-274302D01*
X-448811D01*
Y-152400D01*
X-448866Y-152122D01*
X-448890Y-151839D01*
X-448943Y-151735D01*
X-448966Y-151620D01*
X-449124Y-151384D01*
X-449253Y-151131D01*
X-463983Y-132591D01*
X-464073Y-132516D01*
X-464138Y-132418D01*
X-464374Y-132260D01*
X-464590Y-132077D01*
X-464702Y-132041D01*
X-464800Y-131976D01*
X-465078Y-131921D01*
X-465348Y-131834D01*
X-465465Y-131844D01*
X-465580Y-131821D01*
X-724990D01*
X-725770Y-131976D01*
X-726432Y-132418D01*
X-730242Y-136228D01*
X-730684Y-136890D01*
X-730839Y-137670D01*
Y-279910D01*
X-730684Y-280690D01*
X-730242Y-281352D01*
X-726432Y-285162D01*
X-725770Y-285604D01*
X-724990Y-285759D01*
X-455616Y-285759D01*
X-455460Y-285728D01*
X-455301Y-285735D01*
X-455073Y-285651D01*
X-454836Y-285604D01*
X-454703Y-285516D01*
X-454554Y-285461D01*
X-454376Y-285297D01*
X-454174Y-285162D01*
X-454086Y-285030D01*
X-453969Y-284922D01*
X-453659Y-284498D01*
X449580D01*
X451531Y-284110D01*
X453185Y-283005D01*
X595425Y-140765D01*
X596530Y-139111D01*
X596918Y-137160D01*
Y-2112D01*
X604092Y5062D01*
X608030D01*
Y3160D01*
X618530D01*
Y17160D01*
X608030D01*
Y15258D01*
X602402D01*
X602017Y16528D01*
X602745Y17015D01*
X603961Y18834D01*
X604388Y20980D01*
X603961Y23126D01*
X602745Y24945D01*
X602092Y25382D01*
X602477Y26652D01*
X605441D01*
Y24035D01*
X619601D01*
Y39465D01*
D02*
G37*
G36*
X687460Y38573D02*
X685241Y38281D01*
X683173Y37425D01*
X681398Y36062D01*
X680035Y34287D01*
X679179Y32219D01*
X678887Y30000D01*
X679179Y27781D01*
X680035Y25713D01*
X681398Y23938D01*
X683173Y22575D01*
X685241Y21719D01*
X687460Y21427D01*
X689679Y21719D01*
X691747Y22575D01*
X693522Y23938D01*
X694885Y25713D01*
X695741Y27781D01*
X696033Y30000D01*
X695741Y32219D01*
X694885Y34287D01*
X693522Y36062D01*
X691747Y37425D01*
X689679Y38281D01*
X687460Y38573D01*
D02*
G37*
G36*
X636619Y39465D02*
X622459D01*
Y24035D01*
X636619D01*
Y26652D01*
X645588D01*
X645845Y26395D01*
X647499Y25290D01*
X649450Y24902D01*
X660658D01*
X661398Y23938D01*
X663173Y22575D01*
X665241Y21719D01*
X667460Y21427D01*
X669679Y21719D01*
X671747Y22575D01*
X673522Y23938D01*
X674885Y25713D01*
X675741Y27781D01*
X676033Y30000D01*
X675741Y32219D01*
X674885Y34287D01*
X673522Y36062D01*
X671747Y37425D01*
X669679Y38281D01*
X667460Y38573D01*
X665241Y38281D01*
X663173Y37425D01*
X661398Y36062D01*
X660658Y35098D01*
X651562D01*
X651305Y35355D01*
X649651Y36460D01*
X647700Y36848D01*
X636619D01*
Y39465D01*
D02*
G37*
G36*
X687230Y13289D02*
X686059Y13056D01*
X685067Y12393D01*
X684404Y11401D01*
X684171Y10230D01*
Y10000D01*
X684404Y8830D01*
X685067Y7837D01*
X686059Y7174D01*
X687230Y6941D01*
X687460D01*
X688631Y7174D01*
X689623Y7837D01*
X690286Y8830D01*
X690519Y10000D01*
X690286Y11171D01*
X689623Y12163D01*
X689485Y12255D01*
X689393Y12393D01*
X688400Y13056D01*
X687230Y13289D01*
D02*
G37*
G36*
X645160Y17220D02*
X628780D01*
X628321Y17160D01*
X623530D01*
Y14817D01*
X622665Y13690D01*
X621960Y11987D01*
X621720Y10160D01*
X621960Y8333D01*
X622665Y6630D01*
X623530Y5503D01*
Y3160D01*
X628321D01*
X628780Y3100D01*
X645160D01*
X646987Y3340D01*
X648690Y4045D01*
X650152Y5168D01*
X651274Y6630D01*
X651980Y8333D01*
X652220Y10160D01*
X651980Y11987D01*
X651274Y13690D01*
X650152Y15152D01*
X648690Y16274D01*
X646987Y16980D01*
X645160Y17220D01*
D02*
G37*
G36*
X667460Y18573D02*
X665241Y18281D01*
X663173Y17425D01*
X661398Y16062D01*
X660035Y14287D01*
X659179Y12219D01*
X658887Y10000D01*
X659179Y7781D01*
X660035Y5713D01*
X661398Y3938D01*
X663173Y2575D01*
X665241Y1719D01*
X667460Y1427D01*
X669679Y1719D01*
X671747Y2575D01*
X673522Y3938D01*
X674885Y5713D01*
X675741Y7781D01*
X676033Y10000D01*
X675741Y12219D01*
X674885Y14287D01*
X673522Y16062D01*
X671747Y17425D01*
X669679Y18281D01*
X667460Y18573D01*
D02*
G37*
G36*
X-810260Y17038D02*
X-812406Y16611D01*
X-814225Y15395D01*
X-815441Y13576D01*
X-815868Y11430D01*
X-815655Y10361D01*
X-816752Y9264D01*
X-817415Y8272D01*
X-817648Y7101D01*
X-817647Y7101D01*
Y748D01*
X-823703Y-5307D01*
X-824366Y-6299D01*
X-824599Y-7470D01*
X-824599Y-7470D01*
Y-32989D01*
X-825123Y-33513D01*
X-825563Y-34172D01*
X-827025Y-34722D01*
X-827314Y-34529D01*
X-829460Y-34102D01*
X-831606Y-34529D01*
X-833425Y-35745D01*
X-834641Y-37564D01*
X-835068Y-39710D01*
X-834641Y-41856D01*
X-833425Y-43675D01*
X-832519Y-44281D01*
Y-176380D01*
X-832519Y-176380D01*
X-832286Y-177551D01*
X-831623Y-178543D01*
X-815655Y-194511D01*
X-815868Y-195580D01*
X-815441Y-197726D01*
X-814225Y-199545D01*
X-812406Y-200761D01*
X-810260Y-201188D01*
X-808114Y-200761D01*
X-806969Y-199996D01*
X-805699Y-200674D01*
Y-281940D01*
X-805699Y-281940D01*
X-805466Y-283111D01*
X-804803Y-284103D01*
X-780673Y-308233D01*
X-779680Y-308896D01*
X-778510Y-309129D01*
X-778510Y-309129D01*
X457200D01*
X457200Y-309129D01*
X458371Y-308896D01*
X459363Y-308233D01*
X656403Y-111193D01*
X656403Y-111193D01*
X657066Y-110201D01*
X657299Y-109030D01*
Y-27308D01*
X657587Y-27135D01*
X658857Y-27855D01*
Y-33250D01*
X659265Y-35298D01*
X660425Y-37035D01*
X662162Y-38195D01*
X664210Y-38603D01*
X670710D01*
X671547Y-38436D01*
X673464Y-40353D01*
Y-73574D01*
X673464Y-73574D01*
X673464Y-73575D01*
Y-110880D01*
X471173Y-313171D01*
X-788673D01*
X-836051Y-265793D01*
X-837044Y-265130D01*
X-838214Y-264897D01*
X-838214Y-264897D01*
X-1007127D01*
X-1030721Y-241303D01*
Y-223517D01*
X-1025403Y-218199D01*
X-1023321D01*
X-1023294Y-218473D01*
X-1022322Y-221677D01*
X-1020743Y-224630D01*
X-1018619Y-227219D01*
X-1016030Y-229343D01*
X-1013077Y-230922D01*
X-1009873Y-231894D01*
X-1006540Y-232222D01*
X-1003207Y-231894D01*
X-1000003Y-230922D01*
X-997050Y-229343D01*
X-994461Y-227219D01*
X-992337Y-224630D01*
X-990758Y-221677D01*
X-989786Y-218473D01*
X-989458Y-215140D01*
X-989786Y-211807D01*
X-990758Y-208603D01*
X-992337Y-205650D01*
X-994461Y-203061D01*
X-997050Y-200937D01*
X-1000003Y-199358D01*
X-1003207Y-198386D01*
X-1006540Y-198058D01*
X-1009873Y-198386D01*
X-1013077Y-199358D01*
X-1016030Y-200937D01*
X-1018619Y-203061D01*
X-1020743Y-205650D01*
X-1022322Y-208603D01*
X-1023294Y-211807D01*
X-1023321Y-212081D01*
X-1026670D01*
X-1026670Y-212081D01*
X-1027840Y-212314D01*
X-1028833Y-212977D01*
X-1028833Y-212977D01*
X-1034905Y-219049D01*
X-1036416Y-218764D01*
X-1036711Y-218323D01*
X-1042057Y-212977D01*
X-1043049Y-212314D01*
X-1044220Y-212081D01*
X-1044786Y-211807D01*
X-1045758Y-208603D01*
X-1047337Y-205650D01*
X-1049461Y-203061D01*
X-1052050Y-200937D01*
X-1055003Y-199358D01*
X-1058207Y-198386D01*
X-1061540Y-198058D01*
X-1064873Y-198386D01*
X-1068077Y-199358D01*
X-1071030Y-200937D01*
X-1073619Y-203061D01*
X-1075743Y-205650D01*
X-1077322Y-208603D01*
X-1078294Y-211807D01*
X-1078622Y-215140D01*
X-1078294Y-218473D01*
X-1077322Y-221677D01*
X-1075743Y-224630D01*
X-1073619Y-227219D01*
X-1071030Y-229343D01*
X-1068077Y-230922D01*
X-1064873Y-231894D01*
X-1061540Y-232222D01*
X-1058207Y-231894D01*
X-1055003Y-230922D01*
X-1052050Y-229343D01*
X-1049461Y-227219D01*
X-1047337Y-224630D01*
X-1045758Y-221677D01*
X-1045244Y-219982D01*
X-1044012Y-219674D01*
X-1041933Y-221752D01*
Y-244680D01*
X-1041933Y-244680D01*
X-1041700Y-245851D01*
X-1041037Y-246843D01*
X-1012667Y-275213D01*
X-1012667Y-275213D01*
X-1011675Y-275876D01*
X-1010504Y-276109D01*
X-841591D01*
X-794213Y-323487D01*
X-793221Y-324150D01*
X-792050Y-324383D01*
X474550D01*
X474550Y-324383D01*
X475721Y-324150D01*
X476713Y-323487D01*
X682883Y-117317D01*
X683546Y-116325D01*
X683759Y-115252D01*
X683816Y-115168D01*
X684049Y-113997D01*
Y-70837D01*
X684049Y-70837D01*
Y-38930D01*
X684975Y-38311D01*
X685319Y-38291D01*
X687460Y-38573D01*
X689679Y-38281D01*
X691747Y-37425D01*
X693522Y-36062D01*
X694885Y-34287D01*
X695741Y-32219D01*
X696033Y-30000D01*
X695741Y-27781D01*
X694885Y-25713D01*
X693522Y-23938D01*
X691747Y-22575D01*
X689679Y-21719D01*
X687460Y-21427D01*
X685241Y-21719D01*
X683173Y-22575D01*
X681398Y-23938D01*
X680035Y-25713D01*
X679179Y-27781D01*
X678887Y-30000D01*
X679179Y-32219D01*
X679681Y-33431D01*
X678816Y-34296D01*
X678449Y-34844D01*
X676977Y-35169D01*
X675896Y-34087D01*
X676063Y-33250D01*
Y-26750D01*
X675655Y-24702D01*
X675520Y-24499D01*
X676119Y-23379D01*
X677301D01*
X677301Y-23379D01*
X678472Y-23146D01*
X679464Y-22483D01*
X684127Y-17820D01*
X685241Y-18281D01*
X687460Y-18573D01*
X689679Y-18281D01*
X691747Y-17425D01*
X693522Y-16062D01*
X694885Y-14287D01*
X695741Y-12219D01*
X696033Y-10000D01*
X695741Y-7781D01*
X694885Y-5713D01*
X693522Y-3938D01*
X691747Y-2575D01*
X689679Y-1719D01*
X687460Y-1427D01*
X685241Y-1719D01*
X683173Y-2575D01*
X681398Y-3938D01*
X680035Y-5713D01*
X679179Y-7781D01*
X678887Y-10000D01*
X679179Y-12219D01*
X679735Y-13561D01*
X676034Y-17261D01*
X673929D01*
X673655Y-16454D01*
X673577Y-15991D01*
X674885Y-14287D01*
X675741Y-12219D01*
X676033Y-10000D01*
X675741Y-7781D01*
X674885Y-5713D01*
X673522Y-3938D01*
X671747Y-2575D01*
X669679Y-1719D01*
X667460Y-1427D01*
X665241Y-1719D01*
X663173Y-2575D01*
X661398Y-3938D01*
X660035Y-5713D01*
X659527Y-6941D01*
X655480D01*
X654309Y-7174D01*
X653317Y-7837D01*
X653317Y-7837D01*
X648077Y-13077D01*
X647414Y-14069D01*
X647181Y-15240D01*
X647181Y-15240D01*
Y-106106D01*
X454276Y-299011D01*
X-775586D01*
X-795581Y-279016D01*
Y-190113D01*
X-795581Y-190113D01*
X-795814Y-188943D01*
X-796226Y-188326D01*
X-795539Y-187177D01*
X-795530Y-187170D01*
X-795289Y-187218D01*
X-793143Y-186791D01*
X-791324Y-185575D01*
X-790108Y-183756D01*
X-789682Y-181610D01*
X-790108Y-179464D01*
X-791324Y-177645D01*
X-793143Y-176429D01*
X-795289Y-176002D01*
X-796359Y-176215D01*
X-811901Y-160672D01*
Y-40257D01*
X-809395Y-37751D01*
X-808105D01*
X-807499Y-38657D01*
X-805680Y-39873D01*
X-803534Y-40300D01*
X-801388Y-39873D01*
X-799568Y-38657D01*
X-798353Y-36838D01*
X-797926Y-34692D01*
X-798353Y-32546D01*
X-799568Y-30727D01*
X-801388Y-29511D01*
X-803534Y-29084D01*
X-805680Y-29511D01*
X-807499Y-30727D01*
X-808105Y-31633D01*
X-810662D01*
X-810662Y-31633D01*
X-811833Y-31866D01*
X-812825Y-32529D01*
X-813308Y-33012D01*
X-814481Y-32526D01*
Y-10394D01*
X-804834Y-746D01*
X-803880Y-936D01*
X-801734Y-509D01*
X-799914Y706D01*
X-798699Y2526D01*
X-798272Y4672D01*
X-798699Y6817D01*
X-799914Y8637D01*
X-801734Y9852D01*
X-803880Y10279D01*
X-804715Y11114D01*
X-804652Y11430D01*
X-805079Y13576D01*
X-806295Y15395D01*
X-808114Y16611D01*
X-810260Y17038D01*
D02*
G37*
G36*
X-736750Y23208D02*
X-738896Y22781D01*
X-740715Y21565D01*
X-741931Y19746D01*
X-742358Y17600D01*
X-741931Y15454D01*
X-740715Y13635D01*
X-738896Y12419D01*
X-736750Y11992D01*
X-736442Y12054D01*
X-733129Y8741D01*
Y460D01*
X-734936Y101D01*
X-736755Y-1115D01*
X-737971Y-2934D01*
X-738398Y-5080D01*
X-737971Y-7226D01*
X-736755Y-9045D01*
X-734936Y-10261D01*
X-732790Y-10688D01*
X-730644Y-10261D01*
X-728825Y-9045D01*
X-727609Y-7226D01*
X-727182Y-5080D01*
X-727580Y-3081D01*
X-727244Y-2579D01*
X-727011Y-1408D01*
X-727011Y-1408D01*
Y10007D01*
X-727011Y10008D01*
X-727244Y11178D01*
X-727907Y12170D01*
X-731506Y15770D01*
X-731142Y17600D01*
X-731569Y19746D01*
X-732785Y21565D01*
X-734604Y22781D01*
X-736750Y23208D01*
D02*
G37*
G36*
X0Y18630D02*
X-3634Y18272D01*
X-7129Y17212D01*
X-10350Y15490D01*
X-13173Y13173D01*
X-15490Y10350D01*
X-17212Y7129D01*
X-18272Y3634D01*
X-18630Y0D01*
X-18272Y-3634D01*
X-17212Y-7129D01*
X-15490Y-10350D01*
X-13173Y-13173D01*
X-10350Y-15490D01*
X-7129Y-17212D01*
X-3634Y-18272D01*
X0Y-18630D01*
X3634Y-18272D01*
X7129Y-17212D01*
X10350Y-15490D01*
X13173Y-13173D01*
X15490Y-10350D01*
X17212Y-7129D01*
X18272Y-3634D01*
X18630Y0D01*
X18272Y3634D01*
X17212Y7129D01*
X15490Y10350D01*
X13173Y13173D01*
X10350Y15490D01*
X7129Y17212D01*
X3634Y18272D01*
X0Y18630D01*
D02*
G37*
G36*
X-915210Y-19533D02*
X-917847Y-19880D01*
X-920303Y-20898D01*
X-922413Y-22517D01*
X-924032Y-24626D01*
X-925050Y-27083D01*
X-925397Y-29720D01*
X-925050Y-32357D01*
X-924032Y-34814D01*
X-922413Y-36923D01*
X-920303Y-38542D01*
X-917847Y-39560D01*
X-915210Y-39907D01*
X-912573Y-39560D01*
X-910116Y-38542D01*
X-908007Y-36923D01*
X-906388Y-34814D01*
X-905370Y-32357D01*
X-905023Y-29720D01*
X-905370Y-27083D01*
X-906388Y-24626D01*
X-908007Y-22517D01*
X-910116Y-20898D01*
X-912573Y-19880D01*
X-915210Y-19533D01*
D02*
G37*
G36*
X-588010Y-40112D02*
X-590156Y-40539D01*
X-591975Y-41755D01*
X-593191Y-43574D01*
X-593618Y-45720D01*
X-593405Y-46789D01*
X-603247Y-56631D01*
X-645669D01*
X-646275Y-55725D01*
X-648094Y-54509D01*
X-650240Y-54082D01*
X-652386Y-54509D01*
X-654205Y-55725D01*
X-655421Y-57544D01*
X-655848Y-59690D01*
X-655421Y-61836D01*
X-654205Y-63655D01*
X-652386Y-64871D01*
X-650240Y-65298D01*
X-648094Y-64871D01*
X-646275Y-63655D01*
X-645669Y-62749D01*
X-601980D01*
X-601980Y-62749D01*
X-600810Y-62516D01*
X-599817Y-61853D01*
X-589079Y-51115D01*
X-588010Y-51328D01*
X-585864Y-50901D01*
X-584045Y-49685D01*
X-582829Y-47866D01*
X-582402Y-45720D01*
X-582829Y-43574D01*
X-584045Y-41755D01*
X-585864Y-40539D01*
X-588010Y-40112D01*
D02*
G37*
G36*
X-915210Y-44933D02*
X-917847Y-45280D01*
X-920303Y-46298D01*
X-922413Y-47917D01*
X-924032Y-50026D01*
X-925050Y-52483D01*
X-925397Y-55120D01*
X-925050Y-57757D01*
X-924032Y-60214D01*
X-922413Y-62323D01*
X-920303Y-63942D01*
X-917847Y-64960D01*
X-915210Y-65307D01*
X-912573Y-64960D01*
X-910116Y-63942D01*
X-908007Y-62323D01*
X-906388Y-60214D01*
X-905370Y-57757D01*
X-905023Y-55120D01*
X-905370Y-52483D01*
X-906388Y-50026D01*
X-908007Y-47917D01*
X-910116Y-46298D01*
X-912573Y-45280D01*
X-915210Y-44933D01*
D02*
G37*
G36*
Y-70333D02*
X-917847Y-70680D01*
X-920303Y-71698D01*
X-922413Y-73317D01*
X-924032Y-75426D01*
X-925050Y-77883D01*
X-925397Y-80520D01*
X-925050Y-83157D01*
X-924032Y-85614D01*
X-922413Y-87723D01*
X-920303Y-89342D01*
X-917847Y-90360D01*
X-915210Y-90707D01*
X-912573Y-90360D01*
X-910116Y-89342D01*
X-908007Y-87723D01*
X-906388Y-85614D01*
X-905370Y-83157D01*
X-905023Y-80520D01*
X-905370Y-77883D01*
X-906388Y-75426D01*
X-908007Y-73317D01*
X-910116Y-71698D01*
X-912573Y-70680D01*
X-915210Y-70333D01*
D02*
G37*
G36*
Y-95733D02*
X-917847Y-96080D01*
X-920303Y-97098D01*
X-922413Y-98717D01*
X-924032Y-100826D01*
X-925050Y-103283D01*
X-925397Y-105920D01*
X-925050Y-108557D01*
X-924032Y-111014D01*
X-922413Y-113123D01*
X-920303Y-114742D01*
X-917847Y-115760D01*
X-915210Y-116107D01*
X-912573Y-115760D01*
X-910116Y-114742D01*
X-908007Y-113123D01*
X-906388Y-111014D01*
X-905370Y-108557D01*
X-905023Y-105920D01*
X-905370Y-103283D01*
X-906388Y-100826D01*
X-908007Y-98717D01*
X-910116Y-97098D01*
X-912573Y-96080D01*
X-915210Y-95733D01*
D02*
G37*
G36*
Y-121133D02*
X-917847Y-121480D01*
X-920303Y-122498D01*
X-922413Y-124117D01*
X-924032Y-126226D01*
X-925050Y-128683D01*
X-925397Y-131320D01*
X-925050Y-133957D01*
X-924032Y-136414D01*
X-922413Y-138523D01*
X-920303Y-140142D01*
X-917847Y-141160D01*
X-915210Y-141507D01*
X-912573Y-141160D01*
X-910116Y-140142D01*
X-908007Y-138523D01*
X-906388Y-136414D01*
X-905370Y-133957D01*
X-905023Y-131320D01*
X-905370Y-128683D01*
X-906388Y-126226D01*
X-908007Y-124117D01*
X-910116Y-122498D01*
X-912573Y-121480D01*
X-915210Y-121133D01*
D02*
G37*
G36*
X-1006540Y-114058D02*
X-1009873Y-114386D01*
X-1013077Y-115358D01*
X-1016031Y-116937D01*
X-1018619Y-119061D01*
X-1020743Y-121650D01*
X-1022322Y-124603D01*
X-1023294Y-127807D01*
X-1023622Y-131140D01*
X-1023294Y-134473D01*
X-1022322Y-137677D01*
X-1020743Y-140630D01*
X-1018619Y-143219D01*
X-1016031Y-145343D01*
X-1013077Y-146922D01*
X-1009873Y-147894D01*
X-1006540Y-148222D01*
X-1003207Y-147894D01*
X-1000003Y-146922D01*
X-997050Y-145343D01*
X-994461Y-143219D01*
X-992337Y-140630D01*
X-990758Y-137677D01*
X-989786Y-134473D01*
X-989458Y-131140D01*
X-989786Y-127807D01*
X-990758Y-124603D01*
X-992337Y-121650D01*
X-994461Y-119061D01*
X-997050Y-116937D01*
X-1000003Y-115358D01*
X-1003207Y-114386D01*
X-1006540Y-114058D01*
D02*
G37*
G36*
X-911160Y-146502D02*
X-919260D01*
X-921621Y-146971D01*
X-923622Y-148308D01*
X-924959Y-150309D01*
X-925428Y-152670D01*
Y-160770D01*
X-924959Y-163131D01*
X-923622Y-165132D01*
X-921621Y-166469D01*
X-919260Y-166938D01*
X-911160D01*
X-908799Y-166469D01*
X-906798Y-165132D01*
X-905461Y-163131D01*
X-904992Y-160770D01*
Y-152670D01*
X-905461Y-150309D01*
X-906798Y-148308D01*
X-908799Y-146971D01*
X-911160Y-146502D01*
D02*
G37*
G36*
X-1006540Y-156058D02*
X-1009873Y-156386D01*
X-1013077Y-157358D01*
X-1016030Y-158937D01*
X-1018619Y-161061D01*
X-1020743Y-163650D01*
X-1022322Y-166603D01*
X-1023294Y-169807D01*
X-1023622Y-173140D01*
X-1023294Y-176473D01*
X-1022322Y-179677D01*
X-1020743Y-182630D01*
X-1018619Y-185219D01*
X-1016030Y-187343D01*
X-1013077Y-188922D01*
X-1009873Y-189894D01*
X-1006540Y-190222D01*
X-1003207Y-189894D01*
X-1000003Y-188922D01*
X-997050Y-187343D01*
X-994461Y-185219D01*
X-992337Y-182630D01*
X-990758Y-179677D01*
X-989786Y-176473D01*
X-989458Y-173140D01*
X-989786Y-169807D01*
X-990758Y-166603D01*
X-992337Y-163650D01*
X-994461Y-161061D01*
X-997050Y-158937D01*
X-1000003Y-157358D01*
X-1003207Y-156386D01*
X-1006540Y-156058D01*
D02*
G37*
G36*
X-1061540D02*
X-1064873Y-156386D01*
X-1068077Y-157358D01*
X-1071030Y-158937D01*
X-1073619Y-161061D01*
X-1075743Y-163650D01*
X-1077322Y-166603D01*
X-1078294Y-169807D01*
X-1078622Y-173140D01*
X-1078294Y-176473D01*
X-1077322Y-179677D01*
X-1075743Y-182630D01*
X-1073619Y-185219D01*
X-1071030Y-187343D01*
X-1068077Y-188922D01*
X-1064873Y-189894D01*
X-1061540Y-190222D01*
X-1058207Y-189894D01*
X-1055003Y-188922D01*
X-1052050Y-187343D01*
X-1049461Y-185219D01*
X-1047337Y-182630D01*
X-1045758Y-179677D01*
X-1044786Y-176473D01*
X-1044458Y-173140D01*
X-1044786Y-169807D01*
X-1045758Y-166603D01*
X-1047337Y-163650D01*
X-1049461Y-161061D01*
X-1052050Y-158937D01*
X-1055003Y-157358D01*
X-1058207Y-156386D01*
X-1061540Y-156058D01*
D02*
G37*
G36*
X-903540Y-215082D02*
X-911640D01*
X-914001Y-215551D01*
X-916002Y-216888D01*
X-917339Y-218889D01*
X-917809Y-221250D01*
Y-229350D01*
X-917339Y-231711D01*
X-916002Y-233712D01*
X-914001Y-235049D01*
X-911640Y-235518D01*
X-903540D01*
X-901179Y-235049D01*
X-899178Y-233712D01*
X-897841Y-231711D01*
X-897372Y-229350D01*
Y-221250D01*
X-897841Y-218889D01*
X-899178Y-216888D01*
X-901179Y-215551D01*
X-903540Y-215082D01*
D02*
G37*
G36*
X-332740Y-46221D02*
X-414274D01*
X-414575Y-46281D01*
X-414881Y-46313D01*
X-414963Y-46358D01*
X-415055Y-46376D01*
X-415310Y-46547D01*
X-415580Y-46694D01*
X-421675Y-51774D01*
X-421734Y-51846D01*
X-421812Y-51898D01*
X-421983Y-52154D01*
X-422176Y-52392D01*
X-422202Y-52482D01*
X-422254Y-52560D01*
X-422314Y-52861D01*
X-422401Y-53155D01*
X-422391Y-53248D01*
X-422409Y-53340D01*
Y-127520D01*
X-443514Y-152349D01*
X-443668Y-152626D01*
X-443844Y-152890D01*
X-443860Y-152971D01*
X-443901Y-153044D01*
X-443937Y-153359D01*
X-443999Y-153670D01*
Y-226060D01*
X-443999Y-226060D01*
X-443844Y-226840D01*
X-443402Y-227502D01*
X-443402Y-227502D01*
X-434512Y-236392D01*
X-433850Y-236834D01*
X-433070Y-236989D01*
X-331470D01*
X-331470Y-236989D01*
X-330690Y-236834D01*
X-330028Y-236392D01*
X-323678Y-230042D01*
X-323236Y-229380D01*
X-323081Y-228600D01*
Y-55880D01*
X-323236Y-55100D01*
X-323678Y-54438D01*
X-323678Y-54438D01*
X-331298Y-46818D01*
X-331298Y-46818D01*
X-331960Y-46376D01*
X-332740Y-46221D01*
D02*
G37*
G36*
X655320Y-206286D02*
X651710Y-206641D01*
X648239Y-207694D01*
X645040Y-209404D01*
X642236Y-211706D01*
X639934Y-214510D01*
X638224Y-217709D01*
X637171Y-221180D01*
X636816Y-224790D01*
X637171Y-228400D01*
X638224Y-231871D01*
X639934Y-235070D01*
X642236Y-237874D01*
X645040Y-240176D01*
X648239Y-241886D01*
X651710Y-242939D01*
X655320Y-243294D01*
X658930Y-242939D01*
X662401Y-241886D01*
X665600Y-240176D01*
X668404Y-237874D01*
X670706Y-235070D01*
X672416Y-231871D01*
X673469Y-228400D01*
X673824Y-224790D01*
X673469Y-221180D01*
X672416Y-217709D01*
X670706Y-214510D01*
X668404Y-211706D01*
X665600Y-209404D01*
X662401Y-207694D01*
X658930Y-206641D01*
X655320Y-206286D01*
D02*
G37*
G36*
X-1039500Y-312500D02*
X-1060500D01*
Y-313199D01*
X-1061770Y-313819D01*
X-1063095Y-312934D01*
X-1065241Y-312507D01*
X-1067387Y-312934D01*
X-1069206Y-314149D01*
X-1070422Y-315969D01*
X-1070849Y-318115D01*
X-1070422Y-320261D01*
X-1069206Y-322080D01*
X-1067387Y-323296D01*
X-1065241Y-323722D01*
X-1063095Y-323296D01*
X-1061770Y-322410D01*
X-1060500Y-322500D01*
X-1060500Y-322500D01*
X-1060500Y-322500D01*
X-1039500D01*
Y-312500D01*
D02*
G37*
G36*
X-1002500Y-292000D02*
X-1033500D01*
Y-306000D01*
X-1021710D01*
X-1021405Y-306760D01*
X-1021292Y-307270D01*
X-1022451Y-309004D01*
X-1022878Y-311150D01*
X-1022451Y-313296D01*
X-1021235Y-315115D01*
X-1019416Y-316331D01*
X-1017270Y-316758D01*
X-1015124Y-316331D01*
X-1013305Y-315115D01*
X-1012089Y-313296D01*
X-1011662Y-311150D01*
X-1012089Y-309004D01*
X-1013248Y-307270D01*
X-1013149Y-306825D01*
X-1012792Y-306000D01*
X-1002500D01*
Y-292000D01*
D02*
G37*
G36*
X-1017270Y-332212D02*
X-1019416Y-332639D01*
X-1021235Y-333855D01*
X-1022451Y-335674D01*
X-1022878Y-337820D01*
X-1022451Y-339966D01*
X-1022174Y-340380D01*
X-1022773Y-341500D01*
X-1033500D01*
Y-355500D01*
X-1002500D01*
Y-341500D01*
X-1011767D01*
X-1012366Y-340380D01*
X-1012089Y-339966D01*
X-1011662Y-337820D01*
X-1012089Y-335674D01*
X-1013305Y-333855D01*
X-1015124Y-332639D01*
X-1017270Y-332212D01*
D02*
G37*
G36*
X425150Y-341033D02*
X374850D01*
X372529Y-341339D01*
X370367Y-342235D01*
X368510Y-343660D01*
X367085Y-345517D01*
X366189Y-347679D01*
X365883Y-350000D01*
X366189Y-352321D01*
X367085Y-354483D01*
X368510Y-356340D01*
X370367Y-357765D01*
X372529Y-358661D01*
X374850Y-358967D01*
X425150D01*
X427471Y-358661D01*
X429633Y-357765D01*
X431490Y-356340D01*
X432915Y-354483D01*
X433811Y-352321D01*
X434117Y-350000D01*
X433811Y-347679D01*
X432915Y-345517D01*
X431490Y-343660D01*
X429633Y-342235D01*
X427471Y-341339D01*
X425150Y-341033D01*
D02*
G37*
G36*
X-474850D02*
X-525150D01*
X-527471Y-341339D01*
X-529633Y-342235D01*
X-531490Y-343660D01*
X-532915Y-345517D01*
X-533811Y-347679D01*
X-534117Y-350000D01*
X-533811Y-352321D01*
X-532915Y-354483D01*
X-531490Y-356340D01*
X-529633Y-357765D01*
X-527471Y-358661D01*
X-525150Y-358967D01*
X-474850D01*
X-472529Y-358661D01*
X-470367Y-357765D01*
X-468510Y-356340D01*
X-467085Y-354483D01*
X-466189Y-352321D01*
X-465883Y-350000D01*
X-466189Y-347679D01*
X-467085Y-345517D01*
X-468510Y-343660D01*
X-470367Y-342235D01*
X-472529Y-341339D01*
X-474850Y-341033D01*
D02*
G37*
%LPD*%
G36*
X-762000Y292100D02*
X-744168Y274268D01*
Y156262D01*
X-758190Y142240D01*
X-801450D01*
Y142690D01*
X-811450D01*
Y142240D01*
X-817998D01*
Y142910D01*
X-827998D01*
Y142240D01*
X-974647D01*
X-989098Y160429D01*
Y276350D01*
X-977604Y292100D01*
X-762000Y292100D01*
D02*
G37*
G36*
X-725689Y199393D02*
Y149283D01*
X-725689Y149283D01*
X-725456Y148113D01*
X-724793Y147120D01*
X-719315Y141643D01*
X-719801Y140469D01*
X-755281D01*
X-755807Y141739D01*
X-742726Y154820D01*
X-742284Y155482D01*
X-742129Y156262D01*
Y210301D01*
X-736597D01*
X-725689Y199393D01*
D02*
G37*
G36*
X-274320Y129540D02*
Y-8890D01*
X-284990Y-19560D01*
X-504792D01*
X-504917Y-18290D01*
X-502592Y-17828D01*
X-499218Y-16430D01*
X-496181Y-14401D01*
X-493599Y-11819D01*
X-491570Y-8782D01*
X-490173Y-5408D01*
X-489460Y-1826D01*
Y1826D01*
X-490173Y5408D01*
X-491570Y8782D01*
X-493599Y11819D01*
X-496181Y14401D01*
X-499218Y16430D01*
X-502592Y17828D01*
X-506174Y18540D01*
X-509826D01*
X-513408Y17828D01*
X-516782Y16430D01*
X-519819Y14401D01*
X-522401Y11819D01*
X-524430Y8782D01*
X-525827Y5408D01*
X-526540Y1826D01*
Y-1826D01*
X-525827Y-5408D01*
X-524430Y-8782D01*
X-522401Y-11819D01*
X-519819Y-14401D01*
X-516782Y-16430D01*
X-513408Y-17828D01*
X-511083Y-18290D01*
X-511208Y-19560D01*
X-609420D01*
X-629740Y760D01*
Y12860D01*
X-647860D01*
X-657860Y22860D01*
Y132080D01*
X-649480Y140460D01*
X-285240D01*
X-274320Y129540D01*
D02*
G37*
G36*
X-676730Y131570D02*
Y83310D01*
X-681810Y78230D01*
X-744040D01*
X-761820Y60450D01*
X-779600D01*
Y51560D01*
X-783410Y47750D01*
X-806270D01*
X-846910Y7110D01*
X-939040D01*
X-939800Y6350D01*
X-999490D01*
X-1035050Y-29210D01*
Y-146050D01*
X-1041400Y-152400D01*
X-1079500D01*
X-1085850Y-146050D01*
Y130810D01*
X-1078230Y138430D01*
X-683260D01*
X-676730Y131570D01*
D02*
G37*
%LPC*%
G36*
X-909131Y235760D02*
X-913669D01*
X-918120Y234875D01*
X-922314Y233138D01*
X-926087Y230616D01*
X-929296Y227407D01*
X-931818Y223633D01*
X-933555Y219440D01*
X-934440Y214989D01*
Y210451D01*
X-933555Y206000D01*
X-931818Y201807D01*
X-929296Y198033D01*
X-926087Y194824D01*
X-922314Y192302D01*
X-918120Y190565D01*
X-913669Y189680D01*
X-909131D01*
X-904679Y190565D01*
X-900487Y192302D01*
X-896713Y194824D01*
X-893504Y198033D01*
X-890982Y201807D01*
X-889245Y206000D01*
X-888360Y210451D01*
Y214989D01*
X-889245Y219440D01*
X-890982Y223633D01*
X-893504Y227407D01*
X-896713Y230616D01*
X-900487Y233138D01*
X-904679Y234875D01*
X-909131Y235760D01*
D02*
G37*
G36*
Y96190D02*
X-913669D01*
X-918120Y95305D01*
X-922314Y93568D01*
X-926087Y91046D01*
X-929296Y87837D01*
X-931818Y84064D01*
X-933555Y79871D01*
X-934440Y75419D01*
Y70881D01*
X-933555Y66430D01*
X-931818Y62236D01*
X-929296Y58463D01*
X-926087Y55254D01*
X-922314Y52732D01*
X-918120Y50995D01*
X-913669Y50110D01*
X-909131D01*
X-904679Y50995D01*
X-900487Y52732D01*
X-896713Y55254D01*
X-893504Y58463D01*
X-890982Y62236D01*
X-889245Y66430D01*
X-888360Y70881D01*
Y75419D01*
X-889245Y79871D01*
X-890982Y84064D01*
X-893504Y87837D01*
X-896713Y91046D01*
X-900487Y93568D01*
X-904679Y95305D01*
X-909131Y96190D01*
D02*
G37*
%LPD*%
G36*
X-450850Y-152400D02*
Y-277190D01*
X-455616Y-283720D01*
X-724990Y-283720D01*
X-728800Y-279910D01*
Y-137670D01*
X-724990Y-133860D01*
X-465580D01*
X-450850Y-152400D01*
D02*
G37*
%LPC*%
G36*
X-559131Y-189690D02*
X-563669D01*
X-568120Y-190575D01*
X-572313Y-192312D01*
X-576087Y-194834D01*
X-579296Y-198043D01*
X-581818Y-201817D01*
X-583555Y-206010D01*
X-584440Y-210461D01*
Y-214999D01*
X-583555Y-219450D01*
X-581818Y-223643D01*
X-579296Y-227417D01*
X-576087Y-230626D01*
X-572313Y-233148D01*
X-568120Y-234885D01*
X-563669Y-235770D01*
X-559131D01*
X-554679Y-234885D01*
X-550486Y-233148D01*
X-546713Y-230626D01*
X-543504Y-227417D01*
X-540982Y-223643D01*
X-539245Y-219450D01*
X-538360Y-214999D01*
Y-210461D01*
X-539245Y-206010D01*
X-540982Y-201817D01*
X-543504Y-198043D01*
X-546713Y-194834D01*
X-550486Y-192312D01*
X-554679Y-190575D01*
X-559131Y-189690D01*
D02*
G37*
%LPD*%
G36*
X-325120Y-55880D02*
Y-228600D01*
X-331470Y-234950D01*
X-433070D01*
X-441960Y-226060D01*
Y-153670D01*
X-420370Y-128270D01*
Y-53340D01*
X-414274Y-48260D01*
X-332740D01*
X-325120Y-55880D01*
D02*
G37*
D11*
X-673290Y2402D02*
Y74790D01*
X-675790Y-1270D02*
Y-98D01*
X-673290Y2402D01*
X-661290Y20320D02*
X-656210Y25400D01*
X-661290Y-9270D02*
Y20320D01*
Y-9270D02*
X-651510Y-19050D01*
X-650240Y-59690D02*
X-601980D01*
X-588010Y-45720D01*
X-676759Y-37949D02*
X-674219Y-35409D01*
X-676759Y-61865D02*
Y-37949D01*
X-674219Y-35409D02*
Y-29361D01*
X-676759Y-61865D02*
X-668774Y-69850D01*
X-631190D01*
X655480Y-10000D02*
X667460D01*
X659130Y-20320D02*
X677301D01*
X687460Y-10161D02*
Y-10000D01*
X677301Y-20320D02*
X687460Y-10161D01*
X-814589Y7101D02*
X-810260Y11430D01*
X-821540Y-7470D02*
X-814589Y-519D01*
Y7101D01*
X-810260Y11430D02*
Y11430D01*
X-817540Y-9127D02*
X-803880Y4533D01*
Y4672D01*
X-817540Y-35913D02*
Y-9127D01*
X680990Y-70837D02*
X680990Y-70837D01*
Y-113997D02*
Y-70837D01*
X680720Y-114267D02*
X680990Y-113997D01*
X680720Y-115154D02*
Y-114267D01*
X474550Y-321324D02*
X680720Y-115154D01*
X-1044220Y-215140D02*
X-1038874Y-220485D01*
Y-244680D02*
Y-220485D01*
X-1061540Y-215140D02*
X-1044220D01*
X-840324Y-273050D02*
X-792050Y-321324D01*
X474550D01*
X-1038874Y-244680D02*
X-1010504Y-273050D01*
X-840324D01*
X676523Y-73574D02*
Y-39063D01*
X676523Y-112147D02*
Y-73574D01*
X472440Y-316230D02*
X676523Y-112147D01*
X676523Y-73574D02*
X676523Y-73574D01*
X-789940Y-316230D02*
X472440D01*
X-1026670Y-215140D02*
X-1006540D01*
X-1033780Y-222250D02*
X-1026670Y-215140D01*
X-1033780Y-242570D02*
Y-222250D01*
X-1008394Y-267956D02*
X-838214D01*
X-789940Y-316230D01*
X-1033780Y-242570D02*
X-1008394Y-267956D01*
X680990Y-70837D02*
Y-36470D01*
X-790616Y-73387D02*
X-698921D01*
X-795020Y-68983D02*
Y-63500D01*
Y-68983D02*
X-790616Y-73387D01*
X-698921D02*
X-683260Y-57727D01*
X-699920Y-68730D02*
X-687260Y-56070D01*
X-776520Y-68730D02*
X-699920D01*
X-783020Y-62230D02*
X-776520Y-68730D01*
X-732790Y-4128D02*
X-730070Y-1408D01*
X-732790Y-5080D02*
Y-4128D01*
X-730070Y-1408D02*
Y10008D01*
X-736750Y16688D02*
X-730070Y10008D01*
X-736750Y16688D02*
Y17600D01*
X-746760Y27940D02*
X-693420D01*
X-684530Y-18838D02*
Y19050D01*
X-693420Y27940D02*
X-684530Y19050D01*
X-706903Y-41211D02*
X-684530Y-18838D01*
X-706903Y-53850D02*
Y-41211D01*
X-680720Y82220D02*
X-673290Y74790D01*
X-683260Y-57727D02*
Y-29210D01*
X-687260Y-56070D02*
Y-27553D01*
X-683260Y-29210D02*
X-665290Y-11240D01*
X-687260Y-27553D02*
X-669290Y-9583D01*
X-665290Y-11240D02*
Y131197D01*
X-669290Y-9583D02*
Y129540D01*
X-681800Y142050D02*
X-669290Y129540D01*
X-680143Y146050D02*
X-665290Y131197D01*
X-821540Y-34256D02*
Y-7470D01*
X-822960Y-35676D02*
X-821540Y-34256D01*
X-818960Y-37333D02*
X-817540Y-35913D01*
X-818960Y-169793D02*
X-798640Y-190113D01*
X-822960Y-171450D02*
Y-35676D01*
X-818960Y-169793D02*
Y-37333D01*
X-822960Y-171450D02*
X-802640Y-191770D01*
X-1035384Y332500D02*
X-1034962Y332079D01*
X-1050000Y332500D02*
X-1035384D01*
X-1018000Y301500D02*
Y313150D01*
X-1018540Y313690D02*
X-1018000Y313150D01*
X-1018218Y339239D02*
X-1018000Y339457D01*
Y351000D01*
X-1065241Y-318115D02*
X-1064626Y-317500D01*
X-1050000D01*
X-1018000Y-348500D02*
Y-338550D01*
X-1017270Y-337820D01*
X-1018000Y-310420D02*
X-1017270Y-311150D01*
X-1018000Y-310420D02*
Y-299000D01*
X-755470Y8380D02*
Y19230D01*
X-746760Y27940D01*
X-722630Y149283D02*
X-715397Y142050D01*
X-681800D01*
X-722630Y149283D02*
Y200660D01*
X-761590Y213360D02*
X-735330D01*
X-722630Y200660D01*
X-704850Y213360D02*
X-678590D01*
X-718630Y199580D02*
X-704850Y213360D01*
X-718630Y150940D02*
Y199580D01*
Y150940D02*
X-713740Y146050D01*
X-680143D01*
X-894080Y-294640D02*
Y-284480D01*
Y-294640D02*
X-890270Y-298450D01*
X-878840D01*
X596900Y5080D02*
Y7620D01*
X590210Y14310D02*
X596900Y7620D01*
X591185Y27305D02*
X597510Y20980D01*
X598780D01*
X607527Y31076D02*
X608202Y31750D01*
Y30401D02*
X611931D01*
X613280Y31750D01*
X-814960Y-161939D02*
X-795289Y-181610D01*
X-814960Y-161939D02*
Y-38990D01*
X-829460Y-176380D02*
X-810260Y-195580D01*
X-829460Y-176380D02*
Y-39710D01*
X-810662Y-34692D02*
X-803534D01*
X-814960Y-38990D02*
X-810662Y-34692D01*
X-1041300Y-330200D02*
X-1035050D01*
X-1041500Y-330000D02*
X-1041300Y-330200D01*
X-1050000Y-330000D02*
X-1041500D01*
X-1099820Y-306070D02*
Y300990D01*
X-1075890Y-330000D02*
X-1050000D01*
X-1099820Y-306070D02*
X-1075890Y-330000D01*
X-1099820Y300990D02*
X-1080810Y320000D01*
X-1050000D01*
X-798640Y-280283D02*
Y-190113D01*
Y-280283D02*
X-776853Y-302070D01*
X455543D01*
X650240Y-107373D01*
Y-15240D01*
X-802640Y-281940D02*
Y-191770D01*
Y-281940D02*
X-778510Y-306070D01*
X457200D01*
X654240Y-109030D01*
Y-25210D01*
X659130Y-20320D01*
X650240Y-15240D02*
X655480Y-10000D01*
X687230Y10000D02*
Y10230D01*
Y10000D02*
X687460D01*
D15*
X612521Y31750D02*
D03*
X629539D02*
D03*
D16*
X-678590Y213360D02*
D03*
X-761590D02*
D03*
D17*
X-1018000Y-299000D02*
D03*
Y-348500D02*
D03*
Y351000D02*
D03*
Y301500D02*
D03*
D18*
X-1050000Y-330000D02*
D03*
Y-317500D02*
D03*
Y320000D02*
D03*
Y332500D02*
D03*
D19*
X613280Y10160D02*
D03*
X628780D02*
D03*
D20*
X-806450Y146590D02*
D03*
Y137890D02*
D03*
X-822998Y146810D02*
D03*
Y138110D02*
D03*
D34*
X628780Y10160D02*
X645160D01*
D35*
X630809Y33020D02*
X632079Y31750D01*
X649450Y30000D02*
X667460D01*
X647700Y31750D02*
X649450Y30000D01*
X632079Y31750D02*
X647700D01*
X629539D02*
X630809Y33020D01*
X-894080Y-284480D02*
X-845820D01*
X-1066800D02*
X-894080D01*
X-494730Y-279400D02*
X449580D01*
X-517050Y-257080D02*
X-494730Y-279400D01*
X449580D02*
X591820Y-137160D01*
X596900Y5080D02*
X601980Y10160D01*
X591820Y0D02*
X596900Y5080D01*
X591185Y27305D02*
X595630Y31750D01*
X577850Y13970D02*
X591185Y27305D01*
X598780Y31750D02*
X613280D01*
X577850Y-123190D02*
Y13970D01*
X595630Y31750D02*
X598170D01*
X577659Y-235141D02*
X577850Y-234950D01*
X577659Y-246670D02*
Y-235141D01*
X490318Y-334010D02*
X577659Y-246670D01*
X-1087120Y-264160D02*
X-1066800Y-284480D01*
X-1087120Y-264160D02*
Y-156720D01*
X-796290Y-334010D02*
X490318D01*
X-845820Y-284480D02*
X-796290Y-334010D01*
X-1087120Y-156720D02*
X-1061540Y-131140D01*
X591820Y-137160D02*
Y0D01*
X601980Y10160D02*
X613280D01*
D36*
X680990Y-36470D02*
X687460Y-30000D01*
X667460D02*
X676523Y-39063D01*
D37*
X667460Y30000D02*
D03*
Y10000D02*
D03*
X687460Y30000D02*
D03*
Y-30000D02*
D03*
Y-10000D02*
D03*
X667460D02*
D03*
X687460Y10000D02*
D03*
D38*
X667460Y-30000D02*
D03*
D39*
X-907590Y-225300D02*
D03*
X-915210Y-156720D02*
D03*
D40*
X-907590Y-250700D02*
D03*
X-915210Y-55120D02*
D03*
Y-80520D02*
D03*
Y-105920D02*
D03*
Y-131320D02*
D03*
Y-29720D02*
D03*
D41*
X-911400Y212720D02*
D03*
Y168370D02*
D03*
X-955750D02*
D03*
X-867050D02*
D03*
Y212720D02*
D03*
X-955750D02*
D03*
Y257070D02*
D03*
X-911400D02*
D03*
X-867050D02*
D03*
X-561400Y212720D02*
D03*
Y168370D02*
D03*
X-605750D02*
D03*
X-517050D02*
D03*
Y212720D02*
D03*
X-605750D02*
D03*
Y257070D02*
D03*
X-561400D02*
D03*
X-517050D02*
D03*
X-911400Y73150D02*
D03*
Y28800D02*
D03*
X-955750D02*
D03*
X-867050D02*
D03*
Y73150D02*
D03*
X-955750D02*
D03*
Y117500D02*
D03*
X-911400D02*
D03*
X-867050D02*
D03*
X-561400Y-212730D02*
D03*
Y-257080D02*
D03*
X-605750D02*
D03*
X-517050D02*
D03*
Y-212730D02*
D03*
X-605750D02*
D03*
Y-168380D02*
D03*
X-561400D02*
D03*
X-517050D02*
D03*
X0Y0D02*
D03*
X-508000D02*
D03*
D42*
X-1061540Y-173140D02*
D03*
X-1006540D02*
D03*
X-1061540Y-215140D02*
D03*
X-1006540D02*
D03*
D43*
X-1061540Y-131140D02*
D03*
X-1006540Y-131140D02*
D03*
D44*
X655320Y-224790D02*
D03*
Y224790D02*
D03*
D45*
X-806450Y-72390D02*
D03*
X-752214Y-56190D02*
D03*
X-675790Y-1270D02*
D03*
X-806450Y-57150D02*
D03*
X-736600Y36830D02*
D03*
X-723900Y15240D02*
D03*
X-791210Y38100D02*
D03*
X-819150Y21590D02*
D03*
X-829310Y11430D02*
D03*
X-773430Y39370D02*
D03*
X-715010Y-35560D02*
D03*
X-697230Y-12700D02*
D03*
X-727710Y-13970D02*
D03*
X-651510Y-19050D02*
D03*
X-588010Y-45720D02*
D03*
X-650240Y-59690D02*
D03*
X-674219Y-29361D02*
D03*
X-631190Y-69850D02*
D03*
X-737870Y-13970D02*
D03*
X-810260Y11430D02*
D03*
X-803880Y4672D02*
D03*
X-795020Y-63500D02*
D03*
X-803730Y-19560D02*
D03*
X-805180Y-45720D02*
D03*
X-783020Y-62230D02*
D03*
X-1034962Y332079D02*
D03*
X-1018540Y313690D02*
D03*
X-1018218Y339239D02*
D03*
X-1065241Y-318115D02*
D03*
X-1017270Y-337820D02*
D03*
Y-311150D02*
D03*
X-732790Y-5080D02*
D03*
X-784860Y-36830D02*
D03*
X-763868Y-15258D02*
D03*
X-878840Y-298450D02*
D03*
X-706903Y-53850D02*
D03*
X590210Y14310D02*
D03*
X598780Y20980D02*
D03*
X-810260Y-195580D02*
D03*
X-795289Y-181610D02*
D03*
X-803534Y-34692D02*
D03*
X-1035050Y-330200D02*
D03*
X-829460Y-39710D02*
D03*
X-736750Y17600D02*
D03*
X-711200Y-11430D02*
D03*
X-763090Y38860D02*
D03*
X-755470Y8380D02*
D03*
X-805000Y27430D02*
D03*
D46*
X645160Y10160D02*
D03*
X-850900Y-11430D02*
D03*
X577850Y-234950D02*
D03*
Y-123190D02*
D03*
X-504010Y-79250D02*
D03*
D47*
X-824230Y257710D02*
D03*
X-793750D02*
D03*
Y213360D02*
D03*
X-824230D02*
D03*
X-793750Y169010D02*
D03*
X-824230D02*
D03*
X-748030Y114300D02*
D03*
X-1061720Y-14070D02*
D03*
Y-58420D02*
D03*
Y28040D02*
D03*
X-1031240D02*
D03*
X-1000760D02*
D03*
X-1061720Y72390D02*
D03*
X-1031240D02*
D03*
X-1000760D02*
D03*
Y116740D02*
D03*
X-1031240D02*
D03*
X-1061720D02*
D03*
X-822960Y52070D02*
D03*
Y83820D02*
D03*
Y114300D02*
D03*
X-784860D02*
D03*
Y83820D02*
D03*
X-385980Y93980D02*
D03*
X-341630D02*
D03*
X-549910Y-1270D02*
D03*
X-426820D02*
D03*
X-471170D02*
D03*
X-593090D02*
D03*
X-297280Y93980D02*
D03*
Y124460D02*
D03*
X-341630D02*
D03*
X-385980D02*
D03*
X-426820Y93980D02*
D03*
Y124460D02*
D03*
X-471170Y93980D02*
D03*
Y124460D02*
D03*
X-515520D02*
D03*
Y93980D02*
D03*
X-426820Y33020D02*
D03*
Y63500D02*
D03*
X-471170Y33020D02*
D03*
Y63500D02*
D03*
X-515520D02*
D03*
Y33020D02*
D03*
X-396240Y-78740D02*
D03*
X-382270Y-209450D02*
D03*
X-351790D02*
D03*
X-382270Y-165100D02*
D03*
X-351790D02*
D03*
X-382270Y-120750D02*
D03*
X-704850Y-168380D02*
D03*
X-674370D02*
D03*
X-643890D02*
D03*
Y-212730D02*
D03*
X-674370D02*
D03*
X-704850D02*
D03*
X-643890Y-257080D02*
D03*
X-674370D02*
D03*
X-704850D02*
D03*
M02*
