G04*
G04 #@! TF.GenerationSoftware,Altium Limited,Altium Designer,23.0.1 (38)*
G04*
G04 Layer_Color=6684774*
%FSLAX44Y44*%
%MOMM*%
G71*
G04*
G04 #@! TF.SameCoordinates,8AFF7610-CFF1-491F-A99F-289BE66ABFEC*
G04*
G04*
G04 #@! TF.FilePolarity,Positive*
G04*
G01*
G75*
%ADD12C,0.2540*%
%ADD13C,0.1524*%
%ADD88C,1.2000*%
%ADD89C,0.0127*%
D12*
X698410Y-40950D02*
Y40950D01*
X656510Y-40950D02*
Y40950D01*
X698410D01*
X656510Y-40950D02*
X698410D01*
D13*
X-793520Y-44910D02*
Y-6910D01*
X-755520D01*
X-793520Y-44910D02*
X-755520D01*
Y-6910D01*
D88*
X550876Y-365126D02*
G03*
X703276Y-212726I0J152400D01*
G01*
Y212724D02*
G03*
X550876Y365124I-152400J0D01*
G01*
X-1058873D02*
G03*
X-1211273Y212724I0J-152400D01*
G01*
Y-212726D02*
G03*
X-1058873Y-365126I152400J0D01*
G01*
X550876D01*
X703276Y-212726D02*
Y212724D01*
X-1058873Y365124D02*
X550876D01*
X-1211273Y-212726D02*
Y212724D01*
D89*
X15876Y-1D02*
G03*
X15876Y-1I-15875J0D01*
G01*
X703276Y212724D02*
G03*
X550876Y365124I-152400J0D01*
G01*
X-1058873D02*
G03*
X-1211273Y212724I0J-152400D01*
G01*
Y-212726D02*
G03*
X-1058873Y-365126I152400J0D01*
G01*
X550876D02*
G03*
X703276Y-212726I0J152400D01*
G01*
X-492123Y-1D02*
G03*
X-492123Y-1I-15875J0D01*
G01*
X-1058873Y365124D02*
X550876D01*
X-1211273Y-212726D02*
Y212724D01*
X-1058873Y-365126D02*
X550876D01*
X703276Y-212726D02*
Y212724D01*
M02*
