G04*
G04 #@! TF.GenerationSoftware,Altium Limited,Altium Designer,23.0.1 (38)*
G04*
G04 Layer_Color=8388736*
%FSLAX44Y44*%
%MOMM*%
G71*
G04*
G04 #@! TF.SameCoordinates,8AFF7610-CFF1-491F-A99F-289BE66ABFEC*
G04*
G04*
G04 #@! TF.FilePolarity,Negative*
G04*
G01*
G75*
%ADD16R,2.7000X6.2000*%
%ADD19R,0.6500X1.0000*%
%ADD21R,1.1160X1.2430*%
%ADD22R,2.8000X1.1000*%
%ADD23R,1.8000X0.7000*%
%ADD24R,0.7000X0.6600*%
%ADD25C,1.4000*%
G04:AMPARAMS|DCode=26|XSize=1.4mm|YSize=1.4mm|CornerRadius=0.375mm|HoleSize=0mm|Usage=FLASHONLY|Rotation=90.000|XOffset=0mm|YOffset=0mm|HoleType=Round|Shape=RoundedRectangle|*
%AMROUNDEDRECTD26*
21,1,1.4000,0.6500,0,0,90.0*
21,1,0.6500,1.4000,0,0,90.0*
1,1,0.7500,0.3250,0.3250*
1,1,0.7500,0.3250,-0.3250*
1,1,0.7500,-0.3250,-0.3250*
1,1,0.7500,-0.3250,0.3250*
%
%ADD26ROUNDEDRECTD26*%
G04:AMPARAMS|DCode=27|XSize=1.72mm|YSize=1.72mm|CornerRadius=0.455mm|HoleSize=0mm|Usage=FLASHONLY|Rotation=270.000|XOffset=0mm|YOffset=0mm|HoleType=Round|Shape=RoundedRectangle|*
%AMROUNDEDRECTD27*
21,1,1.7200,0.8100,0,0,270.0*
21,1,0.8100,1.7200,0,0,270.0*
1,1,0.9100,-0.4050,-0.4050*
1,1,0.9100,-0.4050,0.4050*
1,1,0.9100,0.4050,0.4050*
1,1,0.9100,0.4050,-0.4050*
%
%ADD27ROUNDEDRECTD27*%
%ADD28C,1.7200*%
%ADD29C,3.3000*%
%ADD30C,3.1000*%
%ADD31C,3.1000*%
G04:AMPARAMS|DCode=32|XSize=0.1mm|YSize=0.1mm|CornerRadius=0mm|HoleSize=0mm|Usage=FLASHONLY|Rotation=90.000|XOffset=0mm|YOffset=0mm|HoleType=Round|Shape=RoundedRectangle|*
%AMROUNDEDRECTD32*
21,1,0.1000,0.1000,0,0,90.0*
21,1,0.1000,0.1000,0,0,90.0*
1,1,0.0000,0.0500,0.0500*
1,1,0.0000,0.0500,-0.0500*
1,1,0.0000,-0.0500,-0.0500*
1,1,0.0000,-0.0500,0.0500*
%
%ADD32ROUNDEDRECTD32*%
%ADD33C,3.2750*%
D16*
X-678590Y213360D02*
D03*
X-761590D02*
D03*
D19*
X613280Y10160D02*
D03*
X628780D02*
D03*
D21*
X612521Y31750D02*
D03*
X629539D02*
D03*
D22*
X-1018000Y-299000D02*
D03*
Y-348500D02*
D03*
Y351000D02*
D03*
Y301500D02*
D03*
D23*
X-1050000Y-330000D02*
D03*
Y-317500D02*
D03*
Y320000D02*
D03*
Y332500D02*
D03*
D24*
X-806450Y146590D02*
D03*
Y137890D02*
D03*
X-822998Y146810D02*
D03*
Y138110D02*
D03*
D25*
X667460Y30000D02*
D03*
Y10000D02*
D03*
X687460Y30000D02*
D03*
Y-30000D02*
D03*
Y-10000D02*
D03*
X667460D02*
D03*
X687460Y10000D02*
D03*
D26*
X667460Y-30000D02*
D03*
D27*
X-907590Y-225300D02*
D03*
X-915210Y-156720D02*
D03*
D28*
X-907590Y-250700D02*
D03*
X-915210Y-55120D02*
D03*
Y-80520D02*
D03*
Y-105920D02*
D03*
Y-131320D02*
D03*
Y-29720D02*
D03*
D29*
X-911400Y212720D02*
D03*
Y168370D02*
D03*
X-955750D02*
D03*
X-867050D02*
D03*
Y212720D02*
D03*
X-955750D02*
D03*
Y257070D02*
D03*
X-911400D02*
D03*
X-867050D02*
D03*
X-561400Y212720D02*
D03*
Y168370D02*
D03*
X-605750D02*
D03*
X-517050D02*
D03*
Y212720D02*
D03*
X-605750D02*
D03*
Y257070D02*
D03*
X-561400D02*
D03*
X-517050D02*
D03*
X-911400Y73150D02*
D03*
Y28800D02*
D03*
X-955750D02*
D03*
X-867050D02*
D03*
Y73150D02*
D03*
X-955750D02*
D03*
Y117500D02*
D03*
X-911400D02*
D03*
X-867050D02*
D03*
X-561400Y-212730D02*
D03*
Y-257080D02*
D03*
X-605750D02*
D03*
X-517050D02*
D03*
Y-212730D02*
D03*
X-605750D02*
D03*
Y-168380D02*
D03*
X-561400D02*
D03*
X-517050D02*
D03*
X0Y0D02*
D03*
X-508000D02*
D03*
D30*
X-1061540Y-173140D02*
D03*
X-1006540D02*
D03*
X-1061540Y-215140D02*
D03*
X-1006540D02*
D03*
D31*
X-1061540Y-131140D02*
D03*
X-1006540Y-131140D02*
D03*
D32*
X-500000Y-350000D02*
D03*
X400000D02*
D03*
Y350000D02*
D03*
X-500000D02*
D03*
D33*
X655320Y-224790D02*
D03*
Y224790D02*
D03*
M02*
