G04*
G04 #@! TF.GenerationSoftware,Altium Limited,Altium Designer,23.0.1 (38)*
G04*
G04 Layer_Color=2752767*
%FSLAX44Y44*%
%MOMM*%
G71*
G04*
G04 #@! TF.SameCoordinates,8AFF7610-CFF1-491F-A99F-289BE66ABFEC*
G04*
G04*
G04 #@! TF.FilePolarity,Positive*
G04*
G01*
G75*
%ADD14C,0.1270*%
%ADD90C,0.1693*%
D14*
X667460Y24920D02*
X670000Y27460D01*
X672540D01*
X670000Y30000D01*
X672540Y32540D01*
X670000D01*
X667460Y35080D01*
X664920Y32540D01*
X662380D01*
X664920Y30000D01*
X662380Y27460D01*
X664920D01*
X667460Y24920D01*
Y26952D02*
X668984Y28476D01*
X670508D01*
X668984Y30000D01*
X670508Y31524D01*
X668984D01*
X667460Y33048D01*
X665936Y31524D01*
X664412D01*
X665936Y30000D01*
X664412Y28476D01*
X665936D01*
X667460Y26952D01*
Y4920D02*
X670000Y7460D01*
X672540D01*
X670000Y10000D01*
X672540Y12540D01*
X670000D01*
X667460Y15080D01*
X664920Y12540D01*
X662380D01*
X664920Y10000D01*
X662380Y7460D01*
X664920D01*
X667460Y4920D01*
Y6952D02*
X668984Y8476D01*
X670508D01*
X668984Y10000D01*
X670508Y11524D01*
X668984D01*
X667460Y13048D01*
X665936Y11524D01*
X664412D01*
X665936Y10000D01*
X664412Y8476D01*
X665936D01*
X667460Y6952D01*
X687460Y24920D02*
X690000Y27460D01*
X692540D01*
X690000Y30000D01*
X692540Y32540D01*
X690000D01*
X687460Y35080D01*
X684920Y32540D01*
X682380D01*
X684920Y30000D01*
X682380Y27460D01*
X684920D01*
X687460Y24920D01*
Y26952D02*
X688984Y28476D01*
X690508D01*
X688984Y30000D01*
X690508Y31524D01*
X688984D01*
X687460Y33048D01*
X685936Y31524D01*
X684412D01*
X685936Y30000D01*
X684412Y28476D01*
X685936D01*
X687460Y26952D01*
Y-35080D02*
X690000Y-32540D01*
X692540D01*
X690000Y-30000D01*
X692540Y-27460D01*
X690000D01*
X687460Y-24920D01*
X684920Y-27460D01*
X682380D01*
X684920Y-30000D01*
X682380Y-32540D01*
X684920D01*
X687460Y-35080D01*
Y-33048D02*
X688984Y-31524D01*
X690508D01*
X688984Y-30000D01*
X690508Y-28476D01*
X688984D01*
X687460Y-26952D01*
X685936Y-28476D01*
X684412D01*
X685936Y-30000D01*
X684412Y-31524D01*
X685936D01*
X687460Y-33048D01*
Y-15080D02*
X690000Y-12540D01*
X692540D01*
X690000Y-10000D01*
X692540Y-7460D01*
X690000D01*
X687460Y-4920D01*
X684920Y-7460D01*
X682380D01*
X684920Y-10000D01*
X682380Y-12540D01*
X684920D01*
X687460Y-15080D01*
Y-13048D02*
X688984Y-11524D01*
X690508D01*
X688984Y-10000D01*
X690508Y-8476D01*
X688984D01*
X687460Y-6952D01*
X685936Y-8476D01*
X684412D01*
X685936Y-10000D01*
X684412Y-11524D01*
X685936D01*
X687460Y-13048D01*
X667460Y-15080D02*
X670000Y-12540D01*
X672540D01*
X670000Y-10000D01*
X672540Y-7460D01*
X670000D01*
X667460Y-4920D01*
X664920Y-7460D01*
X662380D01*
X664920Y-10000D01*
X662380Y-12540D01*
X664920D01*
X667460Y-15080D01*
Y-13048D02*
X668984Y-11524D01*
X670508D01*
X668984Y-10000D01*
X670508Y-8476D01*
X668984D01*
X667460Y-6952D01*
X665936Y-8476D01*
X664412D01*
X665936Y-10000D01*
X664412Y-11524D01*
X665936D01*
X667460Y-13048D01*
X687460Y4920D02*
X690000Y7460D01*
X692540D01*
X690000Y10000D01*
X692540Y12540D01*
X690000D01*
X687460Y15080D01*
X684920Y12540D01*
X682380D01*
X684920Y10000D01*
X682380Y7460D01*
X684920D01*
X687460Y4920D01*
Y6952D02*
X688984Y8476D01*
X690508D01*
X688984Y10000D01*
X690508Y11524D01*
X688984D01*
X687460Y13048D01*
X685936Y11524D01*
X684412D01*
X685936Y10000D01*
X684412Y8476D01*
X685936D01*
X687460Y6952D01*
X667460Y-35080D02*
X670000Y-32540D01*
X672540D01*
X670000Y-30000D01*
X672540Y-27460D01*
X670000D01*
X667460Y-24920D01*
X664920Y-27460D01*
X662380D01*
X664920Y-30000D01*
X662380Y-32540D01*
X664920D01*
X667460Y-35080D01*
Y-33048D02*
X668984Y-31524D01*
X670508D01*
X668984Y-30000D01*
X670508Y-28476D01*
X668984D01*
X667460Y-26952D01*
X665936Y-28476D01*
X664412D01*
X665936Y-30000D01*
X664412Y-31524D01*
X665936D01*
X667460Y-33048D01*
X-912670Y-230380D02*
X-910130D01*
X-907590Y-227840D01*
X-905050Y-230380D01*
X-902510D01*
Y-227840D01*
X-905050Y-225300D01*
X-902510Y-222760D01*
Y-220220D01*
X-905050D01*
X-907590Y-222760D01*
X-910130Y-220220D01*
X-912670D01*
Y-222760D01*
X-910130Y-225300D01*
X-912670Y-227840D01*
Y-230380D01*
Y-255780D02*
X-910130D01*
X-907590Y-253240D01*
X-905050Y-255780D01*
X-902510D01*
Y-253240D01*
X-905050Y-250700D01*
X-902510Y-248160D01*
Y-245620D01*
X-905050D01*
X-907590Y-248160D01*
X-910130Y-245620D01*
X-912670D01*
Y-248160D01*
X-910130Y-250700D01*
X-912670Y-253240D01*
Y-255780D01*
X-920290Y-60200D02*
X-917750D01*
X-915210Y-57660D01*
X-912670Y-60200D01*
X-910130D01*
Y-57660D01*
X-912670Y-55120D01*
X-910130Y-52580D01*
Y-50040D01*
X-912670D01*
X-915210Y-52580D01*
X-917750Y-50040D01*
X-920290D01*
Y-52580D01*
X-917750Y-55120D01*
X-920290Y-57660D01*
Y-60200D01*
Y-85600D02*
X-917750D01*
X-915210Y-83060D01*
X-912670Y-85600D01*
X-910130D01*
Y-83060D01*
X-912670Y-80520D01*
X-910130Y-77980D01*
Y-75440D01*
X-912670D01*
X-915210Y-77980D01*
X-917750Y-75440D01*
X-920290D01*
Y-77980D01*
X-917750Y-80520D01*
X-920290Y-83060D01*
Y-85600D01*
Y-111000D02*
X-917750D01*
X-915210Y-108460D01*
X-912670Y-111000D01*
X-910130D01*
Y-108460D01*
X-912670Y-105920D01*
X-910130Y-103380D01*
Y-100840D01*
X-912670D01*
X-915210Y-103380D01*
X-917750Y-100840D01*
X-920290D01*
Y-103380D01*
X-917750Y-105920D01*
X-920290Y-108460D01*
Y-111000D01*
Y-161800D02*
X-917750D01*
X-915210Y-159260D01*
X-912670Y-161800D01*
X-910130D01*
Y-159260D01*
X-912670Y-156720D01*
X-910130Y-154180D01*
Y-151640D01*
X-912670D01*
X-915210Y-154180D01*
X-917750Y-151640D01*
X-920290D01*
Y-154180D01*
X-917750Y-156720D01*
X-920290Y-159260D01*
Y-161800D01*
Y-136400D02*
X-917750D01*
X-915210Y-133860D01*
X-912670Y-136400D01*
X-910130D01*
Y-133860D01*
X-912670Y-131320D01*
X-910130Y-128780D01*
Y-126240D01*
X-912670D01*
X-915210Y-128780D01*
X-917750Y-126240D01*
X-920290D01*
Y-128780D01*
X-917750Y-131320D01*
X-920290Y-133860D01*
Y-136400D01*
Y-34800D02*
X-917750D01*
X-915210Y-32260D01*
X-912670Y-34800D01*
X-910130D01*
Y-32260D01*
X-912670Y-29720D01*
X-910130Y-27180D01*
Y-24640D01*
X-912670D01*
X-915210Y-27180D01*
X-917750Y-24640D01*
X-920290D01*
Y-27180D01*
X-917750Y-29720D01*
X-920290Y-32260D01*
Y-34800D01*
X-913940Y210180D02*
Y207640D01*
X-908860D01*
Y210180D01*
X-906320D01*
Y215260D01*
X-908860D01*
Y217800D01*
X-913940D01*
Y215260D01*
X-916480D01*
Y210180D01*
X-913940D01*
X-916480Y163290D02*
X-913940Y168370D01*
X-916480Y173450D01*
X-911400Y170910D01*
X-906320Y173450D01*
X-908860Y168370D01*
X-906320Y163290D01*
X-911400Y165830D01*
X-916480Y163290D01*
X-960830D02*
X-958290Y168370D01*
X-960830Y173450D01*
X-955750Y170910D01*
X-950670Y173450D01*
X-953210Y168370D01*
X-950670Y163290D01*
X-955750Y165830D01*
X-960830Y163290D01*
X-872130D02*
X-869590Y168370D01*
X-872130Y173450D01*
X-867050Y170910D01*
X-861970Y173450D01*
X-864510Y168370D01*
X-861970Y163290D01*
X-867050Y165830D01*
X-872130Y163290D01*
Y207640D02*
X-869590Y212720D01*
X-872130Y217800D01*
X-867050Y215260D01*
X-861970Y217800D01*
X-864510Y212720D01*
X-861970Y207640D01*
X-867050Y210180D01*
X-872130Y207640D01*
X-960830D02*
X-958290Y212720D01*
X-960830Y217800D01*
X-955750Y215260D01*
X-950670Y217800D01*
X-953210Y212720D01*
X-950670Y207640D01*
X-955750Y210180D01*
X-960830Y207640D01*
Y251990D02*
X-958290Y257070D01*
X-960830Y262150D01*
X-955750Y259610D01*
X-950670Y262150D01*
X-953210Y257070D01*
X-950670Y251990D01*
X-955750Y254530D01*
X-960830Y251990D01*
X-916480D02*
X-913940Y257070D01*
X-916480Y262150D01*
X-911400Y259610D01*
X-906320Y262150D01*
X-908860Y257070D01*
X-906320Y251990D01*
X-911400Y254530D01*
X-916480Y251990D01*
X-872130D02*
X-869590Y257070D01*
X-872130Y262150D01*
X-867050Y259610D01*
X-861970Y262150D01*
X-864510Y257070D01*
X-861970Y251990D01*
X-867050Y254530D01*
X-872130Y251990D01*
X-563940Y210180D02*
Y207640D01*
X-558860D01*
Y210180D01*
X-556320D01*
Y215260D01*
X-558860D01*
Y217800D01*
X-563940D01*
Y215260D01*
X-566480D01*
Y210180D01*
X-563940D01*
X-566480Y163290D02*
X-563940Y168370D01*
X-566480Y173450D01*
X-561400Y170910D01*
X-556320Y173450D01*
X-558860Y168370D01*
X-556320Y163290D01*
X-561400Y165830D01*
X-566480Y163290D01*
X-610830D02*
X-608290Y168370D01*
X-610830Y173450D01*
X-605750Y170910D01*
X-600670Y173450D01*
X-603210Y168370D01*
X-600670Y163290D01*
X-605750Y165830D01*
X-610830Y163290D01*
X-522130D02*
X-519590Y168370D01*
X-522130Y173450D01*
X-517050Y170910D01*
X-511970Y173450D01*
X-514510Y168370D01*
X-511970Y163290D01*
X-517050Y165830D01*
X-522130Y163290D01*
Y207640D02*
X-519590Y212720D01*
X-522130Y217800D01*
X-517050Y215260D01*
X-511970Y217800D01*
X-514510Y212720D01*
X-511970Y207640D01*
X-517050Y210180D01*
X-522130Y207640D01*
X-610830D02*
X-608290Y212720D01*
X-610830Y217800D01*
X-605750Y215260D01*
X-600670Y217800D01*
X-603210Y212720D01*
X-600670Y207640D01*
X-605750Y210180D01*
X-610830Y207640D01*
Y251990D02*
X-608290Y257070D01*
X-610830Y262150D01*
X-605750Y259610D01*
X-600670Y262150D01*
X-603210Y257070D01*
X-600670Y251990D01*
X-605750Y254530D01*
X-610830Y251990D01*
X-566480D02*
X-563940Y257070D01*
X-566480Y262150D01*
X-561400Y259610D01*
X-556320Y262150D01*
X-558860Y257070D01*
X-556320Y251990D01*
X-561400Y254530D01*
X-566480Y251990D01*
X-522130D02*
X-519590Y257070D01*
X-522130Y262150D01*
X-517050Y259610D01*
X-511970Y262150D01*
X-514510Y257070D01*
X-511970Y251990D01*
X-517050Y254530D01*
X-522130Y251990D01*
X-913940Y70610D02*
Y68070D01*
X-908860D01*
Y70610D01*
X-906320D01*
Y75690D01*
X-908860D01*
Y78230D01*
X-913940D01*
Y75690D01*
X-916480D01*
Y70610D01*
X-913940D01*
X-916480Y23720D02*
X-913940Y28800D01*
X-916480Y33880D01*
X-911400Y31340D01*
X-906320Y33880D01*
X-908860Y28800D01*
X-906320Y23720D01*
X-911400Y26260D01*
X-916480Y23720D01*
X-960830D02*
X-958290Y28800D01*
X-960830Y33880D01*
X-955750Y31340D01*
X-950670Y33880D01*
X-953210Y28800D01*
X-950670Y23720D01*
X-955750Y26260D01*
X-960830Y23720D01*
X-872130D02*
X-869590Y28800D01*
X-872130Y33880D01*
X-867050Y31340D01*
X-861970Y33880D01*
X-864510Y28800D01*
X-861970Y23720D01*
X-867050Y26260D01*
X-872130Y23720D01*
Y68070D02*
X-869590Y73150D01*
X-872130Y78230D01*
X-867050Y75690D01*
X-861970Y78230D01*
X-864510Y73150D01*
X-861970Y68070D01*
X-867050Y70610D01*
X-872130Y68070D01*
X-960830D02*
X-958290Y73150D01*
X-960830Y78230D01*
X-955750Y75690D01*
X-950670Y78230D01*
X-953210Y73150D01*
X-950670Y68070D01*
X-955750Y70610D01*
X-960830Y68070D01*
Y112420D02*
X-958290Y117500D01*
X-960830Y122580D01*
X-955750Y120040D01*
X-950670Y122580D01*
X-953210Y117500D01*
X-950670Y112420D01*
X-955750Y114960D01*
X-960830Y112420D01*
X-916480D02*
X-913940Y117500D01*
X-916480Y122580D01*
X-911400Y120040D01*
X-906320Y122580D01*
X-908860Y117500D01*
X-906320Y112420D01*
X-911400Y114960D01*
X-916480Y112420D01*
X-872130D02*
X-869590Y117500D01*
X-872130Y122580D01*
X-867050Y120040D01*
X-861970Y122580D01*
X-864510Y117500D01*
X-861970Y112420D01*
X-867050Y114960D01*
X-872130Y112420D01*
X-563940Y-215270D02*
Y-217810D01*
X-558860D01*
Y-215270D01*
X-556320D01*
Y-210190D01*
X-558860D01*
Y-207650D01*
X-563940D01*
Y-210190D01*
X-566480D01*
Y-215270D01*
X-563940D01*
X-566480Y-262160D02*
X-563940Y-257080D01*
X-566480Y-252000D01*
X-561400Y-254540D01*
X-556320Y-252000D01*
X-558860Y-257080D01*
X-556320Y-262160D01*
X-561400Y-259620D01*
X-566480Y-262160D01*
X-610830D02*
X-608290Y-257080D01*
X-610830Y-252000D01*
X-605750Y-254540D01*
X-600670Y-252000D01*
X-603210Y-257080D01*
X-600670Y-262160D01*
X-605750Y-259620D01*
X-610830Y-262160D01*
X-522130D02*
X-519590Y-257080D01*
X-522130Y-252000D01*
X-517050Y-254540D01*
X-511970Y-252000D01*
X-514510Y-257080D01*
X-511970Y-262160D01*
X-517050Y-259620D01*
X-522130Y-262160D01*
Y-217810D02*
X-519590Y-212730D01*
X-522130Y-207650D01*
X-517050Y-210190D01*
X-511970Y-207650D01*
X-514510Y-212730D01*
X-511970Y-217810D01*
X-517050Y-215270D01*
X-522130Y-217810D01*
X-610830D02*
X-608290Y-212730D01*
X-610830Y-207650D01*
X-605750Y-210190D01*
X-600670Y-207650D01*
X-603210Y-212730D01*
X-600670Y-217810D01*
X-605750Y-215270D01*
X-610830Y-217810D01*
Y-173460D02*
X-608290Y-168380D01*
X-610830Y-163300D01*
X-605750Y-165840D01*
X-600670Y-163300D01*
X-603210Y-168380D01*
X-600670Y-173460D01*
X-605750Y-170920D01*
X-610830Y-173460D01*
X-566480D02*
X-563940Y-168380D01*
X-566480Y-163300D01*
X-561400Y-165840D01*
X-556320Y-163300D01*
X-558860Y-168380D01*
X-556320Y-173460D01*
X-561400Y-170920D01*
X-566480Y-173460D01*
X-522130D02*
X-519590Y-168380D01*
X-522130Y-163300D01*
X-517050Y-165840D01*
X-511970Y-163300D01*
X-514510Y-168380D01*
X-511970Y-173460D01*
X-517050Y-170920D01*
X-522130Y-173460D01*
X-1061540Y-178220D02*
X-1066620Y-168060D01*
X-1056460D01*
X-1061540Y-178220D01*
X-1006540D02*
X-1011620Y-168060D01*
X-1001460D01*
X-1006540Y-178220D01*
X-1061540Y-136220D02*
X-1059000Y-133680D01*
X-1056460D01*
X-1059000Y-131140D01*
X-1056460Y-128600D01*
X-1059000D01*
X-1061540Y-126060D01*
X-1064080Y-128600D01*
X-1066620D01*
X-1064080Y-131140D01*
X-1066620Y-133680D01*
X-1064080D01*
X-1061540Y-136220D01*
X-1006540Y-136220D02*
X-1004000Y-133680D01*
X-1001460D01*
X-1004000Y-131140D01*
X-1001460Y-128600D01*
X-1004000D01*
X-1006540Y-126060D01*
X-1009080Y-128600D01*
X-1011620D01*
X-1009080Y-131140D01*
X-1011620Y-133680D01*
X-1009080D01*
X-1006540Y-136220D01*
X-1061540Y-220220D02*
X-1066620Y-210060D01*
X-1056460D01*
X-1061540Y-220220D01*
X-1006540D02*
X-1011620Y-210060D01*
X-1001460D01*
X-1006540Y-220220D01*
X-505080Y-355080D02*
X-502540Y-350000D01*
X-505080Y-344920D01*
X-500000Y-347460D01*
X-494920Y-344920D01*
X-497460Y-350000D01*
X-494920Y-355080D01*
X-500000Y-352540D01*
X-505080Y-355080D01*
X-503048Y-353048D02*
X-501524Y-350000D01*
X-503048Y-346952D01*
X-500000Y-348476D01*
X-496952Y-346952D01*
X-498476Y-350000D01*
X-496952Y-353048D01*
X-500000Y-351524D01*
X-503048Y-353048D01*
X394920Y-355080D02*
X397460Y-350000D01*
X394920Y-344920D01*
X400000Y-347460D01*
X405080Y-344920D01*
X402540Y-350000D01*
X405080Y-355080D01*
X400000Y-352540D01*
X394920Y-355080D01*
X396952Y-353048D02*
X398476Y-350000D01*
X396952Y-346952D01*
X400000Y-348476D01*
X403048Y-346952D01*
X401524Y-350000D01*
X403048Y-353048D01*
X400000Y-351524D01*
X396952Y-353048D01*
X394920Y344920D02*
X397460Y350000D01*
X394920Y355080D01*
X400000Y352540D01*
X405080Y355080D01*
X402540Y350000D01*
X405080Y344920D01*
X400000Y347460D01*
X394920Y344920D01*
X396952Y346952D02*
X398476Y350000D01*
X396952Y353048D01*
X400000Y351524D01*
X403048Y353048D01*
X401524Y350000D01*
X403048Y346952D01*
X400000Y348476D01*
X396952Y346952D01*
X-505080Y344920D02*
X-502540Y350000D01*
X-505080Y355080D01*
X-500000Y352540D01*
X-494920Y355080D01*
X-497460Y350000D01*
X-494920Y344920D01*
X-500000Y347460D01*
X-505080Y344920D01*
X-503048Y346952D02*
X-501524Y350000D01*
X-503048Y353048D01*
X-500000Y351524D01*
X-496952Y353048D01*
X-498476Y350000D01*
X-496952Y346952D01*
X-500000Y348476D01*
X-503048Y346952D01*
X650240Y-229870D02*
Y-219710D01*
X660400D01*
Y-229870D01*
X650240D01*
Y219710D02*
Y229870D01*
X660400D01*
Y219710D01*
X650240D01*
X-5080Y-5080D02*
Y5080D01*
X5080D01*
Y-5080D01*
X-5080D01*
X-3048Y-3048D02*
Y3048D01*
X3048D01*
Y-3048D01*
X-3048D01*
X-513080Y-5080D02*
Y5080D01*
X-502920D01*
Y-5080D01*
X-513080D01*
X-511048Y-3048D02*
Y3048D01*
X-504952D01*
Y-3048D01*
X-511048D01*
X640080Y10160D02*
X645160Y15240D01*
X650240Y10160D01*
X645160Y5080D01*
X640080Y10160D01*
X-824230Y252630D02*
X-829310Y262790D01*
X-819150D01*
X-824230Y252630D01*
Y254662D02*
X-827278Y260758D01*
X-821182D01*
X-824230Y254662D01*
X-793750Y252630D02*
X-798830Y262790D01*
X-788670D01*
X-793750Y252630D01*
Y254662D02*
X-796798Y260758D01*
X-790702D01*
X-793750Y254662D01*
Y208280D02*
X-798830Y218440D01*
X-788670D01*
X-793750Y208280D01*
Y210312D02*
X-796798Y216408D01*
X-790702D01*
X-793750Y210312D01*
X-824230Y208280D02*
X-829310Y218440D01*
X-819150D01*
X-824230Y208280D01*
Y210312D02*
X-827278Y216408D01*
X-821182D01*
X-824230Y210312D01*
X-793750Y163930D02*
X-798830Y174090D01*
X-788670D01*
X-793750Y163930D01*
Y165962D02*
X-796798Y172058D01*
X-790702D01*
X-793750Y165962D01*
X-824230Y163930D02*
X-829310Y174090D01*
X-819150D01*
X-824230Y163930D01*
Y165962D02*
X-827278Y172058D01*
X-821182D01*
X-824230Y165962D01*
X-855980Y-11430D02*
X-850900Y-6350D01*
X-845820Y-11430D01*
X-850900Y-16510D01*
X-855980Y-11430D01*
X-748030Y109220D02*
X-753110Y119380D01*
X-742950D01*
X-748030Y109220D01*
Y111252D02*
X-751078Y117348D01*
X-744982D01*
X-748030Y111252D01*
X-1061720Y-19150D02*
X-1066800Y-8990D01*
X-1056640D01*
X-1061720Y-19150D01*
Y-17118D02*
X-1064768Y-11022D01*
X-1058672D01*
X-1061720Y-17118D01*
Y-63500D02*
X-1066800Y-53340D01*
X-1056640D01*
X-1061720Y-63500D01*
Y-61468D02*
X-1064768Y-55372D01*
X-1058672D01*
X-1061720Y-61468D01*
Y22960D02*
X-1066800Y33120D01*
X-1056640D01*
X-1061720Y22960D01*
Y24992D02*
X-1064768Y31088D01*
X-1058672D01*
X-1061720Y24992D01*
X-1031240Y22960D02*
X-1036320Y33120D01*
X-1026160D01*
X-1031240Y22960D01*
Y24992D02*
X-1034288Y31088D01*
X-1028192D01*
X-1031240Y24992D01*
X-1000760Y22960D02*
X-1005840Y33120D01*
X-995680D01*
X-1000760Y22960D01*
Y24992D02*
X-1003808Y31088D01*
X-997712D01*
X-1000760Y24992D01*
X-1061720Y67310D02*
X-1066800Y77470D01*
X-1056640D01*
X-1061720Y67310D01*
Y69342D02*
X-1064768Y75438D01*
X-1058672D01*
X-1061720Y69342D01*
X-1031240Y67310D02*
X-1036320Y77470D01*
X-1026160D01*
X-1031240Y67310D01*
Y69342D02*
X-1034288Y75438D01*
X-1028192D01*
X-1031240Y69342D01*
X-1000760Y67310D02*
X-1005840Y77470D01*
X-995680D01*
X-1000760Y67310D01*
Y69342D02*
X-1003808Y75438D01*
X-997712D01*
X-1000760Y69342D01*
Y111660D02*
X-1005840Y121820D01*
X-995680D01*
X-1000760Y111660D01*
Y113692D02*
X-1003808Y119788D01*
X-997712D01*
X-1000760Y113692D01*
X-1031240Y111660D02*
X-1036320Y121820D01*
X-1026160D01*
X-1031240Y111660D01*
Y113692D02*
X-1034288Y119788D01*
X-1028192D01*
X-1031240Y113692D01*
X-1061720Y111660D02*
X-1066800Y121820D01*
X-1056640D01*
X-1061720Y111660D01*
Y113692D02*
X-1064768Y119788D01*
X-1058672D01*
X-1061720Y113692D01*
X-822960Y46990D02*
X-828040Y57150D01*
X-817880D01*
X-822960Y46990D01*
Y49022D02*
X-826008Y55118D01*
X-819912D01*
X-822960Y49022D01*
Y78740D02*
X-828040Y88900D01*
X-817880D01*
X-822960Y78740D01*
Y80772D02*
X-826008Y86868D01*
X-819912D01*
X-822960Y80772D01*
Y109220D02*
X-828040Y119380D01*
X-817880D01*
X-822960Y109220D01*
Y111252D02*
X-826008Y117348D01*
X-819912D01*
X-822960Y111252D01*
X-784860Y109220D02*
X-789940Y119380D01*
X-779780D01*
X-784860Y109220D01*
Y111252D02*
X-787908Y117348D01*
X-781812D01*
X-784860Y111252D01*
Y78740D02*
X-789940Y88900D01*
X-779780D01*
X-784860Y78740D01*
Y80772D02*
X-787908Y86868D01*
X-781812D01*
X-784860Y80772D01*
X-385980Y88900D02*
X-391060Y99060D01*
X-380900D01*
X-385980Y88900D01*
Y90932D02*
X-389028Y97028D01*
X-382932D01*
X-385980Y90932D01*
X-341630Y88900D02*
X-346710Y99060D01*
X-336550D01*
X-341630Y88900D01*
Y90932D02*
X-344678Y97028D01*
X-338582D01*
X-341630Y90932D01*
X-549910Y-6350D02*
X-554990Y3810D01*
X-544830D01*
X-549910Y-6350D01*
Y-4318D02*
X-552958Y1778D01*
X-546862D01*
X-549910Y-4318D01*
X-426820Y-6350D02*
X-431900Y3810D01*
X-421740D01*
X-426820Y-6350D01*
Y-4318D02*
X-429868Y1778D01*
X-423772D01*
X-426820Y-4318D01*
X-471170Y-6350D02*
X-476250Y3810D01*
X-466090D01*
X-471170Y-6350D01*
Y-4318D02*
X-474218Y1778D01*
X-468122D01*
X-471170Y-4318D01*
X-593090Y-6350D02*
X-598170Y3810D01*
X-588010D01*
X-593090Y-6350D01*
Y-4318D02*
X-596138Y1778D01*
X-590042D01*
X-593090Y-4318D01*
X-297280Y88900D02*
X-302360Y99060D01*
X-292200D01*
X-297280Y88900D01*
Y90932D02*
X-300328Y97028D01*
X-294232D01*
X-297280Y90932D01*
Y119380D02*
X-302360Y129540D01*
X-292200D01*
X-297280Y119380D01*
Y121412D02*
X-300328Y127508D01*
X-294232D01*
X-297280Y121412D01*
X-341630Y119380D02*
X-346710Y129540D01*
X-336550D01*
X-341630Y119380D01*
Y121412D02*
X-344678Y127508D01*
X-338582D01*
X-341630Y121412D01*
X-385980Y119380D02*
X-391060Y129540D01*
X-380900D01*
X-385980Y119380D01*
Y121412D02*
X-389028Y127508D01*
X-382932D01*
X-385980Y121412D01*
X-426820Y88900D02*
X-431900Y99060D01*
X-421740D01*
X-426820Y88900D01*
Y90932D02*
X-429868Y97028D01*
X-423772D01*
X-426820Y90932D01*
Y119380D02*
X-431900Y129540D01*
X-421740D01*
X-426820Y119380D01*
Y121412D02*
X-429868Y127508D01*
X-423772D01*
X-426820Y121412D01*
X-471170Y88900D02*
X-476250Y99060D01*
X-466090D01*
X-471170Y88900D01*
Y90932D02*
X-474218Y97028D01*
X-468122D01*
X-471170Y90932D01*
Y119380D02*
X-476250Y129540D01*
X-466090D01*
X-471170Y119380D01*
Y121412D02*
X-474218Y127508D01*
X-468122D01*
X-471170Y121412D01*
X-515520Y119380D02*
X-520600Y129540D01*
X-510440D01*
X-515520Y119380D01*
Y121412D02*
X-518568Y127508D01*
X-512472D01*
X-515520Y121412D01*
Y88900D02*
X-520600Y99060D01*
X-510440D01*
X-515520Y88900D01*
Y90932D02*
X-518568Y97028D01*
X-512472D01*
X-515520Y90932D01*
X-426820Y27940D02*
X-431900Y38100D01*
X-421740D01*
X-426820Y27940D01*
Y29972D02*
X-429868Y36068D01*
X-423772D01*
X-426820Y29972D01*
Y58420D02*
X-431900Y68580D01*
X-421740D01*
X-426820Y58420D01*
Y60452D02*
X-429868Y66548D01*
X-423772D01*
X-426820Y60452D01*
X-471170Y27940D02*
X-476250Y38100D01*
X-466090D01*
X-471170Y27940D01*
Y29972D02*
X-474218Y36068D01*
X-468122D01*
X-471170Y29972D01*
Y58420D02*
X-476250Y68580D01*
X-466090D01*
X-471170Y58420D01*
Y60452D02*
X-474218Y66548D01*
X-468122D01*
X-471170Y60452D01*
X-515520Y58420D02*
X-520600Y68580D01*
X-510440D01*
X-515520Y58420D01*
Y60452D02*
X-518568Y66548D01*
X-512472D01*
X-515520Y60452D01*
Y27940D02*
X-520600Y38100D01*
X-510440D01*
X-515520Y27940D01*
Y29972D02*
X-518568Y36068D01*
X-512472D01*
X-515520Y29972D01*
X-396240Y-83820D02*
X-401320Y-73660D01*
X-391160D01*
X-396240Y-83820D01*
Y-81788D02*
X-399288Y-75692D01*
X-393192D01*
X-396240Y-81788D01*
X-382270Y-214530D02*
X-387350Y-204370D01*
X-377190D01*
X-382270Y-214530D01*
Y-212498D02*
X-385318Y-206402D01*
X-379222D01*
X-382270Y-212498D01*
X-351790Y-214530D02*
X-356870Y-204370D01*
X-346710D01*
X-351790Y-214530D01*
Y-212498D02*
X-354838Y-206402D01*
X-348742D01*
X-351790Y-212498D01*
X-382270Y-170180D02*
X-387350Y-160020D01*
X-377190D01*
X-382270Y-170180D01*
Y-168148D02*
X-385318Y-162052D01*
X-379222D01*
X-382270Y-168148D01*
X-351790Y-170180D02*
X-356870Y-160020D01*
X-346710D01*
X-351790Y-170180D01*
Y-168148D02*
X-354838Y-162052D01*
X-348742D01*
X-351790Y-168148D01*
X-382270Y-125830D02*
X-387350Y-115670D01*
X-377190D01*
X-382270Y-125830D01*
Y-123798D02*
X-385318Y-117702D01*
X-379222D01*
X-382270Y-123798D01*
X-704850Y-173460D02*
X-709930Y-163300D01*
X-699770D01*
X-704850Y-173460D01*
Y-171428D02*
X-707898Y-165332D01*
X-701802D01*
X-704850Y-171428D01*
X-674370Y-173460D02*
X-679450Y-163300D01*
X-669290D01*
X-674370Y-173460D01*
Y-171428D02*
X-677418Y-165332D01*
X-671322D01*
X-674370Y-171428D01*
X-643890Y-173460D02*
X-648970Y-163300D01*
X-638810D01*
X-643890Y-173460D01*
Y-171428D02*
X-646938Y-165332D01*
X-640842D01*
X-643890Y-171428D01*
Y-217810D02*
X-648970Y-207650D01*
X-638810D01*
X-643890Y-217810D01*
Y-215778D02*
X-646938Y-209682D01*
X-640842D01*
X-643890Y-215778D01*
X-674370Y-217810D02*
X-679450Y-207650D01*
X-669290D01*
X-674370Y-217810D01*
Y-215778D02*
X-677418Y-209682D01*
X-671322D01*
X-674370Y-215778D01*
X-704850Y-217810D02*
X-709930Y-207650D01*
X-699770D01*
X-704850Y-217810D01*
Y-215778D02*
X-707898Y-209682D01*
X-701802D01*
X-704850Y-215778D01*
X-643890Y-262160D02*
X-648970Y-252000D01*
X-638810D01*
X-643890Y-262160D01*
Y-260128D02*
X-646938Y-254032D01*
X-640842D01*
X-643890Y-260128D01*
X-674370Y-262160D02*
X-679450Y-252000D01*
X-669290D01*
X-674370Y-262160D01*
Y-260128D02*
X-677418Y-254032D01*
X-671322D01*
X-674370Y-260128D01*
X-704850Y-262160D02*
X-709930Y-252000D01*
X-699770D01*
X-704850Y-262160D01*
Y-260128D02*
X-707898Y-254032D01*
X-701802D01*
X-704850Y-260128D01*
X572770Y-234950D02*
X577850Y-229870D01*
X582930Y-234950D01*
X577850Y-240030D01*
X572770Y-234950D01*
Y-123190D02*
X577850Y-118110D01*
X582930Y-123190D01*
X577850Y-128270D01*
X572770Y-123190D01*
X-509090Y-79250D02*
X-504010Y-74170D01*
X-498930Y-79250D01*
X-504010Y-84330D01*
X-509090Y-79250D01*
D90*
X-801370Y-72390D02*
G03*
X-801370Y-72390I-5080J0D01*
G01*
X-747134Y-56190D02*
G03*
X-747134Y-56190I-5080J0D01*
G01*
X-670710Y-1270D02*
G03*
X-670710Y-1270I-5080J0D01*
G01*
X-801370Y-57150D02*
G03*
X-801370Y-57150I-5080J0D01*
G01*
X-731520Y36830D02*
G03*
X-731520Y36830I-5080J0D01*
G01*
X-718820Y15240D02*
G03*
X-718820Y15240I-5080J0D01*
G01*
X-786130Y38100D02*
G03*
X-786130Y38100I-5080J0D01*
G01*
X-814070Y21590D02*
G03*
X-814070Y21590I-5080J0D01*
G01*
X-824230Y11430D02*
G03*
X-824230Y11430I-5080J0D01*
G01*
X-768350Y39370D02*
G03*
X-768350Y39370I-5080J0D01*
G01*
X-709930Y-35560D02*
G03*
X-709930Y-35560I-5080J0D01*
G01*
X-692150Y-12700D02*
G03*
X-692150Y-12700I-5080J0D01*
G01*
X-722630Y-13970D02*
G03*
X-722630Y-13970I-5080J0D01*
G01*
X-646430Y-19050D02*
G03*
X-646430Y-19050I-5080J0D01*
G01*
X-582930Y-45720D02*
G03*
X-582930Y-45720I-5080J0D01*
G01*
X-645160Y-59690D02*
G03*
X-645160Y-59690I-5080J0D01*
G01*
X-669139Y-29361D02*
G03*
X-669139Y-29361I-5080J0D01*
G01*
X-626110Y-69850D02*
G03*
X-626110Y-69850I-5080J0D01*
G01*
X-732790Y-13970D02*
G03*
X-732790Y-13970I-5080J0D01*
G01*
X-805180Y11430D02*
G03*
X-805180Y11430I-5080J0D01*
G01*
X-798800Y4672D02*
G03*
X-798800Y4672I-5080J0D01*
G01*
X-789940Y-63500D02*
G03*
X-789940Y-63500I-5080J0D01*
G01*
X-798650Y-19560D02*
G03*
X-798650Y-19560I-5080J0D01*
G01*
X-800100Y-45720D02*
G03*
X-800100Y-45720I-5080J0D01*
G01*
X-777940Y-62230D02*
G03*
X-777940Y-62230I-5080J0D01*
G01*
X-1029882Y332079D02*
G03*
X-1029882Y332079I-5080J0D01*
G01*
X-1013460Y313690D02*
G03*
X-1013460Y313690I-5080J0D01*
G01*
X-1013138Y339239D02*
G03*
X-1013138Y339239I-5080J0D01*
G01*
X-1060161Y-318115D02*
G03*
X-1060161Y-318115I-5080J0D01*
G01*
X-1012190Y-337820D02*
G03*
X-1012190Y-337820I-5080J0D01*
G01*
Y-311150D02*
G03*
X-1012190Y-311150I-5080J0D01*
G01*
X-727710Y-5080D02*
G03*
X-727710Y-5080I-5080J0D01*
G01*
X-779780Y-36830D02*
G03*
X-779780Y-36830I-5080J0D01*
G01*
X-758788Y-15258D02*
G03*
X-758788Y-15258I-5080J0D01*
G01*
X-873760Y-298450D02*
G03*
X-873760Y-298450I-5080J0D01*
G01*
X-701823Y-53850D02*
G03*
X-701823Y-53850I-5080J0D01*
G01*
X595290Y14310D02*
G03*
X595290Y14310I-5080J0D01*
G01*
X603860Y20980D02*
G03*
X603860Y20980I-5080J0D01*
G01*
X-805180Y-195580D02*
G03*
X-805180Y-195580I-5080J0D01*
G01*
X-790209Y-181610D02*
G03*
X-790209Y-181610I-5080J0D01*
G01*
X-798454Y-34692D02*
G03*
X-798454Y-34692I-5080J0D01*
G01*
X-1029970Y-330200D02*
G03*
X-1029970Y-330200I-5080J0D01*
G01*
X-824380Y-39710D02*
G03*
X-824380Y-39710I-5080J0D01*
G01*
X-731670Y17600D02*
G03*
X-731670Y17600I-5080J0D01*
G01*
X-706120Y-11430D02*
G03*
X-706120Y-11430I-5080J0D01*
G01*
X-758010Y38860D02*
G03*
X-758010Y38860I-5080J0D01*
G01*
X-750390Y8380D02*
G03*
X-750390Y8380I-5080J0D01*
G01*
X-799920Y27430D02*
G03*
X-799920Y27430I-5080J0D01*
G01*
M02*
