M48
;Layer_Color=9474304
;FILE_FORMAT=4:4
METRIC,LZ
;TYPE=PLATED
T1F00S00C0.3000
T2F00S00C0.6000
T3F00S00C0.7000
T4F00S00C1.0000
T5F00S00C1.0200
T6F00S00C1.8000
T7F00S00C1.8005
T8F00S00C1.8500
;TYPE=NON_PLATED
T10F00S00C3.1750
T11F00S00C3.2000
T12F00S00C4.1000
%
T01
X-01065241Y-00318115
X-0103505Y-003302
X-0101727Y-0033782
Y-0031115
X-0087884Y-0029845
X-0081026Y-0019558
X-00795289Y-0018161
X-0080645Y-0007239
X-0063119Y-0006985
X0059021Y0001431
X0059878Y0002098
X-0058801Y-0004572
X-0065024Y-0005969
X-0065151Y-0001905
X-00674219Y-00029361
X-0067579Y-0000127
X-0069723Y-000127
X-007112Y-0001143
X-0072771Y-0001397
X-0073787
X-0073279Y-0000508
X-0073675Y000176
X-007239Y0001524
X-007366Y0003683
X-0076309Y0003886
X-0077343Y0003937
X-0079121Y000381
X-00805Y0002743
X-0081026Y0001143
X-0080388Y00004672
X-0080373Y-0001956
X-00803534Y-00034692
X-0080518Y-0004572
X-0080645Y-0005715
X-0079502Y-000635
X-0078302Y-0006223
X-0078486Y-0003683
X-00763868Y-00015258
X-0075547Y0000838
X-00752214Y-0005619
X-00706903Y-0005385
X-0071501Y-0003556
X-0082946Y-0003971
X-0082931Y0001143
X-0081915Y0002159
X-0101854Y0031369
X-01018218Y00339239
X-01034962Y00332079
T02
X-0050401Y-0007925
X0057785Y-0012319
Y-0023495
X0064516Y0001016
X-008509Y-0001143
T03
X0066746Y-0003
X0068746
Y-0001
Y0001
X0066746
Y-0001
Y0003
X0068746
T04
X-0070485Y-0025708
X-0067437
X-0064389
Y-0021273
X-0067437
X-0070485
Y-0016838
X-0067437
X-0064389
X-0038227Y-001651
X-0035179
Y-0020945
X-0038227
Y-0012075
X-0039624Y-0007874
X-0038598Y0009398
Y0012446
X-0034163
Y0009398
X-0029728
Y0012446
X-0042682
Y0009398
Y000635
Y0003302
Y-0000127
X-0047117
Y0003302
Y000635
Y0009398
Y0012446
X-0051552
Y0009398
Y000635
Y0003302
X-0054991Y-0000127
X-0059309
X-0074803Y001143
X-0078486
Y0008382
X-0079375Y0016901
Y0021336
Y0025771
X-0082423
Y0021336
Y0016901
X-0082296Y001143
Y0008382
Y0005207
X-0100076Y0007239
X-0103124
X-0106172
Y0002804
X-0103124
X-0100076
Y0011674
X-0103124
X-0106172
Y-0001407
Y-0005842
T05
X-0090759Y-002507
Y-002253
X-0091521Y-0015672
Y-0013132
Y-0010592
Y-0008052
Y-0005512
Y-0002972
T06
X-0106154Y-0021514
Y-0017314
X-0100654
Y-0021514
T07
X-0106154Y-0013114
X-0100654Y-0013114
T08
X-0060575Y-0025708
X-005614
X-0051705
Y-0021273
Y-0016838
X-005614
X-0060575
Y-0021273
Y0016837
X-005614
X-0051705
Y0021272
Y0025707
X-005614
X-0060575
Y0021272
X-0086705
Y0016837
X-009114
X-0095575
Y0021272
Y0025707
X-009114
X-0086705
Y001175
Y0007315
Y000288
X-009114
X-0095575
Y0007315
Y001175
X-009114
T10
X0065532Y-0022479
Y0022479
T11
X0Y0
X-00508
T12
X-005614Y-0021273
Y0021272
X-009114
Y0007315
M30
