G04*
G04 #@! TF.GenerationSoftware,Altium Limited,Altium Designer,24.9.1 (31)*
G04*
G04 Layer_Color=8388736*
%FSLAX25Y25*%
%MOIN*%
G70*
G04*
G04 #@! TF.SameCoordinates,BA677FBB-0452-431E-8DC5-A1704F135117*
G04*
G04*
G04 #@! TF.FilePolarity,Negative*
G04*
G01*
G75*
%ADD35R,0.02029X0.01860*%
G04:AMPARAMS|DCode=44|XSize=42.36mil|YSize=58.9mil|CornerRadius=6.42mil|HoleSize=0mil|Usage=FLASHONLY|Rotation=0.000|XOffset=0mil|YOffset=0mil|HoleType=Round|Shape=RoundedRectangle|*
%AMROUNDEDRECTD44*
21,1,0.04236,0.04606,0,0,0.0*
21,1,0.02953,0.05890,0,0,0.0*
1,1,0.01284,0.01476,-0.02303*
1,1,0.01284,-0.01476,-0.02303*
1,1,0.01284,-0.01476,0.02303*
1,1,0.01284,0.01476,0.02303*
%
%ADD44ROUNDEDRECTD44*%
%ADD45C,0.05024*%
%ADD46R,0.02858X0.04433*%
%ADD47R,0.04299X0.03299*%
%ADD48C,0.03399*%
%ADD49R,0.02661X0.02504*%
%ADD50R,0.03252X0.02465*%
G04:AMPARAMS|DCode=51|XSize=42.36mil|YSize=65.98mil|CornerRadius=0mil|HoleSize=0mil|Usage=FLASHONLY|Rotation=270.000|XOffset=0mil|YOffset=0mil|HoleType=Round|Shape=RoundedRectangle|*
%AMROUNDEDRECTD51*
21,1,0.04236,0.06598,0,0,270.0*
21,1,0.04236,0.06598,0,0,270.0*
1,1,0.00000,-0.03299,-0.02118*
1,1,0.00000,-0.03299,0.02118*
1,1,0.00000,0.03299,0.02118*
1,1,0.00000,0.03299,-0.02118*
%
%ADD51ROUNDEDRECTD51*%
%ADD52O,0.06008X0.02661*%
%ADD53O,0.02661X0.06008*%
%ADD54R,0.03299X0.04299*%
%ADD55R,0.04799X0.04299*%
%ADD56R,0.13685X0.13685*%
%ADD57R,0.02917X0.01165*%
%ADD58R,0.01165X0.02917*%
%ADD59R,0.06598X0.04236*%
%ADD60R,0.02465X0.03252*%
%ADD61R,0.02504X0.02661*%
%ADD62O,0.06992X0.02661*%
G04:AMPARAMS|DCode=63|XSize=34.49mil|YSize=24.65mil|CornerRadius=0mil|HoleSize=0mil|Usage=FLASHONLY|Rotation=270.000|XOffset=0mil|YOffset=0mil|HoleType=Round|Shape=RoundedRectangle|*
%AMROUNDEDRECTD63*
21,1,0.03449,0.02465,0,0,270.0*
21,1,0.03449,0.02465,0,0,270.0*
1,1,0.00000,-0.01232,-0.01724*
1,1,0.00000,-0.01232,0.01724*
1,1,0.00000,0.01232,0.01724*
1,1,0.00000,0.01232,-0.01724*
%
%ADD63ROUNDEDRECTD63*%
G04:AMPARAMS|DCode=64|XSize=58.11mil|YSize=46.3mil|CornerRadius=0mil|HoleSize=0mil|Usage=FLASHONLY|Rotation=180.000|XOffset=0mil|YOffset=0mil|HoleType=Round|Shape=RoundedRectangle|*
%AMROUNDEDRECTD64*
21,1,0.05811,0.04630,0,0,180.0*
21,1,0.05811,0.04630,0,0,180.0*
1,1,0.00000,-0.02906,0.02315*
1,1,0.00000,0.02906,0.02315*
1,1,0.00000,0.02906,-0.02315*
1,1,0.00000,-0.02906,-0.02315*
%
%ADD64ROUNDEDRECTD64*%
%ADD65R,0.08871X0.04737*%
%ADD66R,0.08871X0.13595*%
%ADD67C,0.06299*%
%ADD68O,0.09748X0.03842*%
%ADD69O,0.06992X0.03842*%
%ADD70C,0.02858*%
%ADD71C,0.06284*%
G04:AMPARAMS|DCode=72|XSize=62.84mil|YSize=62.84mil|CornerRadius=16.46mil|HoleSize=0mil|Usage=FLASHONLY|Rotation=90.000|XOffset=0mil|YOffset=0mil|HoleType=Round|Shape=RoundedRectangle|*
%AMROUNDEDRECTD72*
21,1,0.06284,0.02992,0,0,90.0*
21,1,0.02992,0.06284,0,0,90.0*
1,1,0.03291,0.01496,0.01496*
1,1,0.03291,0.01496,-0.01496*
1,1,0.03291,-0.01496,-0.01496*
1,1,0.03291,-0.01496,0.01496*
%
%ADD72ROUNDEDRECTD72*%
%ADD73C,0.03699*%
%ADD74C,0.09499*%
%ADD75C,0.09543*%
%ADD76C,0.11811*%
%ADD77C,0.12110*%
%ADD78C,0.12110*%
%ADD79C,0.05299*%
%ADD80C,0.02599*%
%ADD81C,0.03449*%
D35*
X221481Y187000D02*
D03*
X218500D02*
D03*
D44*
X288281Y110600D02*
D03*
X280919D02*
D03*
X261100Y68100D02*
D03*
X253738D02*
D03*
D45*
X235500Y108500D02*
D03*
X209500Y320500D02*
D03*
X242500Y193500D02*
D03*
Y199500D02*
D03*
X211500Y290500D02*
D03*
X79000Y275500D02*
D03*
X67000Y111500D02*
D03*
X73000D02*
D03*
X102000Y113500D02*
D03*
X165500Y45500D02*
D03*
X179500Y56500D02*
D03*
X184000Y109500D02*
D03*
D46*
X234232Y348169D02*
D03*
Y331831D02*
D03*
X225768Y348169D02*
D03*
Y331831D02*
D03*
X209232Y348169D02*
D03*
Y331831D02*
D03*
X200768Y348169D02*
D03*
Y331831D02*
D03*
D47*
X191000Y297000D02*
D03*
Y290000D02*
D03*
X205300Y196000D02*
D03*
Y203000D02*
D03*
X215000D02*
D03*
Y196000D02*
D03*
X136500Y166500D02*
D03*
Y173500D02*
D03*
X176000Y108500D02*
D03*
Y101500D02*
D03*
X187000Y70500D02*
D03*
Y77500D02*
D03*
D48*
X98200Y176000D02*
D03*
X103200Y171000D02*
D03*
Y176000D02*
D03*
X98200Y171000D02*
D03*
X93200Y176000D02*
D03*
Y171000D02*
D03*
D49*
X81500Y325500D02*
D03*
Y322075D02*
D03*
X190500Y251213D02*
D03*
Y247787D02*
D03*
X179000Y251425D02*
D03*
Y248000D02*
D03*
X209500Y240500D02*
D03*
Y237075D02*
D03*
X268000Y241075D02*
D03*
Y244500D02*
D03*
X274500Y241287D02*
D03*
Y244713D02*
D03*
X172900Y179700D02*
D03*
Y176275D02*
D03*
X178900D02*
D03*
Y179700D02*
D03*
X106500Y197075D02*
D03*
Y200500D02*
D03*
X118000Y220787D02*
D03*
Y224213D02*
D03*
X165500Y253213D02*
D03*
Y249787D02*
D03*
D50*
X81500Y307870D02*
D03*
Y304130D02*
D03*
X126500Y301740D02*
D03*
Y298000D02*
D03*
D51*
X112784Y298390D02*
D03*
Y291500D02*
D03*
Y284610D02*
D03*
X98216D02*
D03*
Y291500D02*
D03*
Y298390D02*
D03*
D52*
X138228Y320500D02*
D03*
Y325500D02*
D03*
Y330500D02*
D03*
X116772Y320500D02*
D03*
Y325500D02*
D03*
Y330500D02*
D03*
Y335500D02*
D03*
X138228D02*
D03*
D53*
X177000Y304228D02*
D03*
X167000D02*
D03*
X162000D02*
D03*
X157000D02*
D03*
X152000D02*
D03*
X147000D02*
D03*
X177000Y282772D02*
D03*
X172000D02*
D03*
X167000D02*
D03*
X162000D02*
D03*
X157000D02*
D03*
X152000D02*
D03*
X147000D02*
D03*
X172000Y304228D02*
D03*
D54*
X161000Y325500D02*
D03*
X154000D02*
D03*
X204000Y187000D02*
D03*
X211000D02*
D03*
X100500Y335500D02*
D03*
X107500D02*
D03*
D55*
X201000Y324700D02*
D03*
Y318000D02*
D03*
X226000Y322500D02*
D03*
Y315800D02*
D03*
X224000Y297500D02*
D03*
Y290800D02*
D03*
D56*
X175321Y213012D02*
D03*
D57*
X194642Y227973D02*
D03*
Y226398D02*
D03*
Y224823D02*
D03*
Y223248D02*
D03*
Y221673D02*
D03*
Y220099D02*
D03*
Y218524D02*
D03*
Y216949D02*
D03*
Y215374D02*
D03*
Y213799D02*
D03*
Y212225D02*
D03*
Y210650D02*
D03*
Y209075D02*
D03*
Y207500D02*
D03*
Y205925D02*
D03*
Y204351D02*
D03*
Y202776D02*
D03*
Y201201D02*
D03*
Y199626D02*
D03*
Y198051D02*
D03*
X156000D02*
D03*
Y199626D02*
D03*
Y201201D02*
D03*
Y202776D02*
D03*
Y204351D02*
D03*
Y205925D02*
D03*
Y207500D02*
D03*
Y209075D02*
D03*
Y210650D02*
D03*
Y212225D02*
D03*
Y213799D02*
D03*
Y215374D02*
D03*
Y216949D02*
D03*
Y218524D02*
D03*
Y220099D02*
D03*
Y221673D02*
D03*
Y223248D02*
D03*
Y224823D02*
D03*
Y226398D02*
D03*
Y227973D02*
D03*
D58*
X190282Y193691D02*
D03*
X188707D02*
D03*
X187132D02*
D03*
X185557D02*
D03*
X183982D02*
D03*
X182408D02*
D03*
X180833D02*
D03*
X179258D02*
D03*
X177683D02*
D03*
X176108D02*
D03*
X174534D02*
D03*
X172959D02*
D03*
X171384D02*
D03*
X169809D02*
D03*
X168234D02*
D03*
X166660D02*
D03*
X165085D02*
D03*
X163510D02*
D03*
X161935D02*
D03*
X160360D02*
D03*
Y232333D02*
D03*
X161935D02*
D03*
X163510D02*
D03*
X165085D02*
D03*
X166660D02*
D03*
X168234D02*
D03*
X169809D02*
D03*
X171384D02*
D03*
X172959D02*
D03*
X174534D02*
D03*
X176108D02*
D03*
X177683D02*
D03*
X179258D02*
D03*
X180833D02*
D03*
X182408D02*
D03*
X183982D02*
D03*
X185557D02*
D03*
X187132D02*
D03*
X188707D02*
D03*
X190282D02*
D03*
D59*
X224100Y195226D02*
D03*
Y203100D02*
D03*
D60*
X244500Y212500D02*
D03*
X240760D02*
D03*
Y206500D02*
D03*
X244500D02*
D03*
X128260Y210500D02*
D03*
X132000D02*
D03*
X79000Y284500D02*
D03*
X82740D02*
D03*
X104760Y320500D02*
D03*
X108500D02*
D03*
D61*
X223513Y214600D02*
D03*
X220087D02*
D03*
X223500Y220200D02*
D03*
X220075D02*
D03*
X150575Y189000D02*
D03*
X154000D02*
D03*
X115287Y196000D02*
D03*
X118713D02*
D03*
X128500Y217500D02*
D03*
X131925D02*
D03*
X135075Y235000D02*
D03*
X138500D02*
D03*
D62*
X224524Y252000D02*
D03*
Y247000D02*
D03*
Y242000D02*
D03*
Y237000D02*
D03*
X252476Y252000D02*
D03*
Y247000D02*
D03*
Y242000D02*
D03*
Y237000D02*
D03*
D63*
X136457Y182701D02*
D03*
Y189000D02*
D03*
X140000D02*
D03*
Y182701D02*
D03*
D64*
X111000Y209400D02*
D03*
X103000D02*
D03*
Y216400D02*
D03*
X111000D02*
D03*
D65*
X197500Y104555D02*
D03*
Y95500D02*
D03*
Y86445D02*
D03*
D66*
X222500Y95500D02*
D03*
D67*
X285000Y335000D02*
D03*
X35000Y25000D02*
D03*
D68*
X279100Y92100D02*
D03*
Y58045D02*
D03*
D69*
X292407Y92100D02*
D03*
Y58045D02*
D03*
D70*
X280557Y63360D02*
D03*
Y66706D02*
D03*
Y70053D02*
D03*
Y73399D02*
D03*
Y76746D02*
D03*
Y80092D02*
D03*
Y83439D02*
D03*
Y86785D02*
D03*
X275242D02*
D03*
Y83439D02*
D03*
Y80092D02*
D03*
Y76746D02*
D03*
Y73399D02*
D03*
Y70053D02*
D03*
Y66706D02*
D03*
Y63360D02*
D03*
D71*
X300000Y320000D02*
D03*
Y310000D02*
D03*
Y300000D02*
D03*
Y290000D02*
D03*
Y270000D02*
D03*
Y250000D02*
D03*
Y240000D02*
D03*
Y220000D02*
D03*
Y210000D02*
D03*
Y200000D02*
D03*
Y180000D02*
D03*
Y190000D02*
D03*
Y230000D02*
D03*
Y260000D02*
D03*
Y280000D02*
D03*
X20000Y86000D02*
D03*
Y96000D02*
D03*
Y106000D02*
D03*
Y126000D02*
D03*
Y116000D02*
D03*
Y76000D02*
D03*
Y66000D02*
D03*
Y175000D02*
D03*
Y185000D02*
D03*
Y195000D02*
D03*
Y205000D02*
D03*
Y225000D02*
D03*
Y245000D02*
D03*
Y255000D02*
D03*
Y275000D02*
D03*
Y285000D02*
D03*
Y295000D02*
D03*
Y315000D02*
D03*
Y305000D02*
D03*
Y265000D02*
D03*
Y235000D02*
D03*
Y215000D02*
D03*
D72*
X300000Y170000D02*
D03*
X20000Y136000D02*
D03*
Y325000D02*
D03*
D73*
X88200Y173500D02*
D03*
X108200Y177500D02*
D03*
Y169500D02*
D03*
D74*
X88200Y163500D02*
D03*
Y183500D02*
D03*
X100700D02*
D03*
Y163500D02*
D03*
D75*
X136000Y105008D02*
D03*
Y68000D02*
D03*
X155016D02*
D03*
Y86504D02*
D03*
X136000D02*
D03*
X155016Y105008D02*
D03*
D76*
X68000Y29260D02*
D03*
X101071D02*
D03*
D77*
X84535Y79654D02*
D03*
Y58000D02*
D03*
X68000Y79654D02*
D03*
Y58000D02*
D03*
D78*
X101071Y79654D02*
D03*
X101071Y58000D02*
D03*
D79*
X269600Y83600D02*
D03*
X256863Y82251D02*
D03*
X179500Y27500D02*
D03*
X84500Y91000D02*
D03*
Y106000D02*
D03*
X187000Y64500D02*
D03*
D80*
X102000Y194089D02*
D03*
X128500Y172500D02*
D03*
X175000Y183000D02*
D03*
X211000Y284000D02*
D03*
X247100Y67600D02*
D03*
X288100Y80100D02*
D03*
X272600Y110600D02*
D03*
X162500Y349500D02*
D03*
X67500Y119000D02*
D03*
X73000D02*
D03*
X67500Y154000D02*
D03*
X73000Y154500D02*
D03*
X72500Y195500D02*
D03*
Y185000D02*
D03*
X59500Y258000D02*
D03*
X54000D02*
D03*
X179000Y170800D02*
D03*
X173100D02*
D03*
X148000Y182500D02*
D03*
X136500Y160500D02*
D03*
X120350Y172850D02*
D03*
X113400Y178700D02*
D03*
X136000Y182500D02*
D03*
X147000Y188500D02*
D03*
X111000Y192000D02*
D03*
X128261Y192139D02*
D03*
X111000Y196000D02*
D03*
X132500Y206500D02*
D03*
X117000Y209500D02*
D03*
X124500Y217500D02*
D03*
X103000Y225000D02*
D03*
X118000Y228500D02*
D03*
X130500Y235124D02*
D03*
X135010Y252510D02*
D03*
X70500Y256000D02*
D03*
X65990Y256564D02*
D03*
X140989Y273500D02*
D03*
X128000D02*
D03*
X65955Y274000D02*
D03*
X70500D02*
D03*
X94000Y335500D02*
D03*
X121390Y284610D02*
D03*
X91000Y295000D02*
D03*
X121500Y296000D02*
D03*
X147000Y309500D02*
D03*
X87500Y314000D02*
D03*
X99000D02*
D03*
X100500Y320500D02*
D03*
X144500Y325500D02*
D03*
X81500Y330000D02*
D03*
X176800Y243600D02*
D03*
X179000Y256625D02*
D03*
X150000Y258500D02*
D03*
X153132Y265132D02*
D03*
X155000Y330500D02*
D03*
X162000Y275000D02*
D03*
X165457Y240457D02*
D03*
X165500Y258413D02*
D03*
X167000Y275000D02*
D03*
X168000Y325500D02*
D03*
X172000Y325000D02*
D03*
Y314000D02*
D03*
X201000Y311500D02*
D03*
X228500Y220000D02*
D03*
X209000Y231500D02*
D03*
X219000Y231575D02*
D03*
X268000Y235700D02*
D03*
X274700Y236013D02*
D03*
X218000Y237000D02*
D03*
X209500Y246075D02*
D03*
X211033Y256006D02*
D03*
X190400Y256587D02*
D03*
X191000Y302000D02*
D03*
X226000Y309500D02*
D03*
X230500Y203000D02*
D03*
X228500Y214500D02*
D03*
X215500Y191500D02*
D03*
X199749Y204511D02*
D03*
X198000Y187000D02*
D03*
X176000Y114500D02*
D03*
X184000Y116000D02*
D03*
X179500Y51500D02*
D03*
X26500Y175000D02*
D03*
D81*
X61500Y334000D02*
D03*
X75000D02*
D03*
X171000Y217500D02*
D03*
X180000D02*
D03*
X171000Y208500D02*
D03*
X180000D02*
D03*
M02*
