G04*
G04 #@! TF.GenerationSoftware,Altium Limited,Altium Designer,24.9.1 (31)*
G04*
G04 Layer_Physical_Order=1*
G04 Layer_Color=255*
%FSLAX25Y25*%
%MOIN*%
G70*
G04*
G04 #@! TF.SameCoordinates,BA677FBB-0452-431E-8DC5-A1704F135117*
G04*
G04*
G04 #@! TF.FilePolarity,Positive*
G04*
G01*
G75*
%ADD10C,0.00787*%
%ADD11C,0.00984*%
%ADD12C,0.01000*%
%ADD17C,0.02000*%
G04:AMPARAMS|DCode=20|XSize=39.37mil|YSize=55.91mil|CornerRadius=4.92mil|HoleSize=0mil|Usage=FLASHONLY|Rotation=0.000|XOffset=0mil|YOffset=0mil|HoleType=Round|Shape=RoundedRectangle|*
%AMROUNDEDRECTD20*
21,1,0.03937,0.04606,0,0,0.0*
21,1,0.02953,0.05591,0,0,0.0*
1,1,0.00984,0.01476,-0.02303*
1,1,0.00984,-0.01476,-0.02303*
1,1,0.00984,-0.01476,0.02303*
1,1,0.00984,0.01476,0.02303*
%
%ADD20ROUNDEDRECTD20*%
%ADD21C,0.04724*%
%ADD22R,0.02559X0.04134*%
%ADD23R,0.04000X0.03000*%
%ADD24C,0.03100*%
%ADD25R,0.02362X0.02205*%
%ADD26R,0.02953X0.02165*%
G04:AMPARAMS|DCode=27|XSize=39.37mil|YSize=62.99mil|CornerRadius=0mil|HoleSize=0mil|Usage=FLASHONLY|Rotation=270.000|XOffset=0mil|YOffset=0mil|HoleType=Round|Shape=RoundedRectangle|*
%AMROUNDEDRECTD27*
21,1,0.03937,0.06299,0,0,270.0*
21,1,0.03937,0.06299,0,0,270.0*
1,1,0.00000,-0.03150,-0.01968*
1,1,0.00000,-0.03150,0.01968*
1,1,0.00000,0.03150,0.01968*
1,1,0.00000,0.03150,-0.01968*
%
%ADD27ROUNDEDRECTD27*%
%ADD28O,0.05709X0.02362*%
%ADD29O,0.02362X0.05709*%
%ADD30R,0.03000X0.04000*%
%ADD31R,0.04500X0.04000*%
%ADD32R,0.13386X0.13386*%
%ADD33R,0.02618X0.00866*%
%ADD34R,0.00866X0.02618*%
%ADD35R,0.02029X0.01860*%
%ADD36R,0.06299X0.03937*%
%ADD37R,0.02165X0.02953*%
%ADD38R,0.02205X0.02362*%
%ADD39O,0.06693X0.02362*%
G04:AMPARAMS|DCode=40|XSize=31.5mil|YSize=21.65mil|CornerRadius=0mil|HoleSize=0mil|Usage=FLASHONLY|Rotation=270.000|XOffset=0mil|YOffset=0mil|HoleType=Round|Shape=RoundedRectangle|*
%AMROUNDEDRECTD40*
21,1,0.03150,0.02165,0,0,270.0*
21,1,0.03150,0.02165,0,0,270.0*
1,1,0.00000,-0.01083,-0.01575*
1,1,0.00000,-0.01083,0.01575*
1,1,0.00000,0.01083,0.01575*
1,1,0.00000,0.01083,-0.01575*
%
%ADD40ROUNDEDRECTD40*%
G04:AMPARAMS|DCode=41|XSize=55.12mil|YSize=43.31mil|CornerRadius=0mil|HoleSize=0mil|Usage=FLASHONLY|Rotation=180.000|XOffset=0mil|YOffset=0mil|HoleType=Round|Shape=RoundedRectangle|*
%AMROUNDEDRECTD41*
21,1,0.05512,0.04331,0,0,180.0*
21,1,0.05512,0.04331,0,0,180.0*
1,1,0.00000,-0.02756,0.02165*
1,1,0.00000,0.02756,0.02165*
1,1,0.00000,0.02756,-0.02165*
1,1,0.00000,-0.02756,-0.02165*
%
%ADD41ROUNDEDRECTD41*%
%ADD42R,0.08071X0.03937*%
%ADD43R,0.08071X0.12795*%
%ADD75C,0.09543*%
%ADD76C,0.11811*%
%ADD82C,0.00775*%
%ADD83C,0.01500*%
%ADD84C,0.00778*%
%ADD85C,0.03000*%
%ADD86C,0.06000*%
%ADD87O,0.09449X0.03543*%
%ADD88O,0.06693X0.03543*%
%ADD89C,0.02559*%
%ADD90C,0.05984*%
G04:AMPARAMS|DCode=91|XSize=59.84mil|YSize=59.84mil|CornerRadius=14.96mil|HoleSize=0mil|Usage=FLASHONLY|Rotation=90.000|XOffset=0mil|YOffset=0mil|HoleType=Round|Shape=RoundedRectangle|*
%AMROUNDEDRECTD91*
21,1,0.05984,0.02992,0,0,90.0*
21,1,0.02992,0.05984,0,0,90.0*
1,1,0.02992,0.01496,0.01496*
1,1,0.02992,0.01496,-0.01496*
1,1,0.02992,-0.01496,-0.01496*
1,1,0.02992,-0.01496,0.01496*
%
%ADD91ROUNDEDRECTD91*%
%ADD92C,0.03400*%
%ADD93C,0.09200*%
%ADD94C,0.11811*%
%ADD95C,0.05000*%
%ADD96C,0.02300*%
%ADD97C,0.03150*%
G36*
X231571Y229200D02*
X217070D01*
X216680Y229700D01*
X216700Y229800D01*
Y234907D01*
X217200Y235234D01*
X217615Y235063D01*
X218385D01*
X219097Y235357D01*
X219427Y235687D01*
X220868D01*
X220939Y235581D01*
X221590Y235146D01*
X222358Y234993D01*
X226689D01*
X227457Y235146D01*
X228108Y235581D01*
X228543Y236232D01*
X228696Y237000D01*
X228543Y237768D01*
X228108Y238419D01*
X227457Y238854D01*
X226689Y239007D01*
X222358D01*
X221590Y238854D01*
X220939Y238419D01*
X220868Y238313D01*
X219427D01*
X219097Y238643D01*
X218385Y238937D01*
X217615D01*
X217200Y238766D01*
X216700Y239093D01*
Y240800D01*
X220792D01*
X220939Y240581D01*
X221590Y240146D01*
X222358Y239993D01*
X226689D01*
X227457Y240146D01*
X228108Y240581D01*
X228543Y241232D01*
X228696Y242000D01*
X228543Y242768D01*
X228108Y243419D01*
X227457Y243854D01*
X226689Y244007D01*
X222358D01*
X221590Y243854D01*
X220939Y243419D01*
X220792Y243200D01*
X215956D01*
X215700Y243149D01*
X215200Y243465D01*
Y245503D01*
X215497Y245800D01*
X220792D01*
X220939Y245581D01*
X221590Y245146D01*
X222358Y244993D01*
X226689D01*
X227457Y245146D01*
X228108Y245581D01*
X228543Y246232D01*
X228696Y247000D01*
X228543Y247768D01*
X228108Y248419D01*
X227457Y248854D01*
X226689Y249007D01*
X222358D01*
X221590Y248854D01*
X220939Y248419D01*
X220792Y248200D01*
X215000D01*
X214541Y248108D01*
X214200Y247880D01*
X213892Y247956D01*
X213700Y248036D01*
Y250503D01*
X213997Y250800D01*
X220792D01*
X220939Y250581D01*
X221590Y250146D01*
X222358Y249993D01*
X226689D01*
X227457Y250146D01*
X228108Y250581D01*
X228543Y251232D01*
X228696Y252000D01*
X228543Y252768D01*
X228108Y253419D01*
X227457Y253854D01*
X226689Y254007D01*
X222358D01*
X221590Y253854D01*
X220939Y253419D01*
X220792Y253200D01*
X213500D01*
X213041Y253108D01*
X212652Y252848D01*
X212629Y252825D01*
X212200Y253103D01*
Y254433D01*
X212675Y254909D01*
X212970Y255621D01*
Y256392D01*
X212803Y256796D01*
X213137Y257296D01*
X231571D01*
Y229200D01*
D02*
G37*
G36*
X194300Y247486D02*
X188539Y241724D01*
X188377Y241801D01*
X188126Y242019D01*
X188200Y242388D01*
Y248960D01*
X188531Y249323D01*
X192469D01*
Y253102D01*
X191763D01*
Y255210D01*
X192043Y255490D01*
X192337Y256202D01*
Y256973D01*
X192272Y257130D01*
X192550Y257546D01*
X194300D01*
Y247486D01*
D02*
G37*
G36*
X160747Y241890D02*
X160285Y241699D01*
X158200Y243785D01*
Y257546D01*
X160747D01*
Y241890D01*
D02*
G37*
G36*
X146800Y251503D02*
Y238549D01*
X146338Y238358D01*
X134623Y250073D01*
X134831Y250573D01*
X135396D01*
X136108Y250868D01*
X136653Y251413D01*
X136948Y252125D01*
Y252895D01*
X136653Y253608D01*
X136200Y254061D01*
Y257546D01*
X140757D01*
X146800Y251503D01*
D02*
G37*
G36*
X168609Y234429D02*
X168589D01*
Y230237D01*
X183628D01*
Y234429D01*
X183608D01*
Y237299D01*
X184018Y237709D01*
X184180Y237633D01*
X184431Y237415D01*
X184357Y237046D01*
Y234429D01*
X184337D01*
Y230237D01*
X191502D01*
Y234429D01*
X191482D01*
Y235408D01*
X199834Y243760D01*
X200296Y243569D01*
Y232799D01*
X196690Y229193D01*
X192546D01*
Y226753D01*
Y222028D01*
X196738D01*
Y222044D01*
X200047D01*
X200047Y222044D01*
X200508Y222135D01*
X200899Y222396D01*
X206458Y227955D01*
X206719Y228346D01*
X206810Y228807D01*
Y253608D01*
X208634Y255431D01*
X209223Y255313D01*
X209390Y254909D01*
X209800Y254499D01*
Y252500D01*
X209892Y252041D01*
X210152Y251652D01*
X211300Y250503D01*
Y247722D01*
X210800Y247514D01*
X210597Y247717D01*
X209885Y248012D01*
X209115D01*
X208403Y247717D01*
X207857Y247172D01*
X207563Y246460D01*
Y245689D01*
X207857Y244977D01*
X208187Y244648D01*
Y242390D01*
X207531D01*
Y238610D01*
X211300D01*
Y230704D01*
X201895Y221299D01*
X196738D01*
Y221320D01*
X192546D01*
Y218879D01*
Y215728D01*
Y211005D01*
X196738D01*
Y211025D01*
X205725D01*
X206184Y211117D01*
X206573Y211377D01*
X218997Y223800D01*
X231571D01*
Y211700D01*
X213500D01*
X213041Y211608D01*
X212652Y211348D01*
X210903Y209600D01*
X197400D01*
X196941Y209508D01*
X196552Y209248D01*
X196045Y208742D01*
X194684D01*
X194578Y208720D01*
X192546D01*
Y206280D01*
Y203131D01*
X194147D01*
X194149Y203129D01*
X194651Y203029D01*
X195153Y203129D01*
X195155Y203131D01*
X196738D01*
Y203151D01*
X197927D01*
X197960Y203129D01*
X198462Y203029D01*
X198463Y203029D01*
X198490D01*
X198651Y202868D01*
X199363Y202573D01*
X200134D01*
X200846Y202868D01*
X201391Y203413D01*
X201686Y204125D01*
Y204896D01*
X201519Y205300D01*
X201852Y205800D01*
X212116D01*
X212575Y205892D01*
X212964Y206152D01*
X214613Y207800D01*
X231571D01*
Y205104D01*
X231155Y204826D01*
X230885Y204937D01*
X230115D01*
X229403Y204643D01*
X229073Y204313D01*
X228037D01*
Y205856D01*
X220163D01*
Y204313D01*
X217787D01*
Y205287D01*
X212213D01*
Y200713D01*
X211718Y200700D01*
X199446D01*
X198097Y202049D01*
X197707Y202309D01*
X197248Y202401D01*
X196738D01*
Y202421D01*
X192546D01*
Y199980D01*
Y196830D01*
X195973D01*
X202152Y190652D01*
X202541Y190392D01*
X203000Y190300D01*
X208980D01*
X208989Y190287D01*
X208722Y189787D01*
X208713D01*
Y184213D01*
X213287D01*
Y185800D01*
X216698D01*
Y185283D01*
X220302D01*
Y188717D01*
X216698D01*
Y188200D01*
X213287D01*
Y189787D01*
X212663D01*
X212659Y189800D01*
X213011Y190300D01*
X213960D01*
X214403Y189857D01*
X215115Y189563D01*
X215885D01*
X216597Y189857D01*
X217143Y190402D01*
X217437Y191115D01*
Y191885D01*
X217143Y192597D01*
X216597Y193142D01*
X216428Y193213D01*
X216528Y193713D01*
X217787D01*
Y197964D01*
X218287Y198161D01*
X220163Y196285D01*
Y192470D01*
X228037D01*
Y193913D01*
X231571D01*
Y170046D01*
X193200D01*
Y186212D01*
X193108Y186671D01*
X192848Y187060D01*
X188679Y191230D01*
X188352Y191595D01*
Y195787D01*
X174888D01*
Y191595D01*
X174908D01*
Y185990D01*
X174443Y185524D01*
X174183Y185135D01*
X174101Y184725D01*
X173902Y184643D01*
X173357Y184098D01*
X173063Y183385D01*
Y182615D01*
X173357Y181903D01*
X173902Y181358D01*
X174615Y181063D01*
X175385D01*
X176098Y181358D01*
X176504Y181764D01*
X176932Y181484D01*
Y177810D01*
Y174385D01*
X177687D01*
Y172227D01*
X177357Y171897D01*
X177063Y171185D01*
Y170415D01*
X176816Y170046D01*
X175284D01*
X175037Y170415D01*
Y171185D01*
X174742Y171897D01*
X174313Y172327D01*
Y174385D01*
X174869D01*
Y178165D01*
X173686D01*
X173502Y178287D01*
X173000Y178387D01*
X172498Y178287D01*
X172314Y178165D01*
X170931D01*
Y174385D01*
X171687D01*
Y172127D01*
X171458Y171897D01*
X171163Y171185D01*
Y170415D01*
X170916Y170046D01*
X158749D01*
X158557Y170508D01*
X173848Y185799D01*
X174108Y186188D01*
X174200Y186647D01*
Y192341D01*
X174179Y192443D01*
Y195787D01*
X160715D01*
Y191595D01*
X160800D01*
Y189997D01*
X146166Y175363D01*
X145704Y175554D01*
Y186403D01*
X146204Y186733D01*
X146615Y186563D01*
X147385D01*
X148098Y186857D01*
X148210Y186970D01*
X148685Y187031D01*
X148685Y187031D01*
X148685Y187031D01*
X152465D01*
Y188129D01*
X152528Y188172D01*
X152813Y188598D01*
X152913Y189100D01*
X152813Y189602D01*
X152528Y190028D01*
X152465Y190071D01*
Y190969D01*
X148685D01*
Y190413D01*
X147925D01*
X147601Y190348D01*
X147385Y190437D01*
X146810D01*
X146594Y190929D01*
X152512Y196847D01*
X153903D01*
Y196830D01*
X158097D01*
Y201555D01*
Y206280D01*
Y211005D01*
Y215019D01*
X153903D01*
Y215004D01*
X125837D01*
X125507Y215383D01*
X125598Y215858D01*
X125927Y216187D01*
X126610D01*
Y215531D01*
X130390D01*
Y219468D01*
X126610D01*
Y218813D01*
X125927D01*
X125598Y219143D01*
X125071Y219361D01*
Y226545D01*
X125532Y226737D01*
X129117Y223152D01*
X129507Y222892D01*
X129966Y222800D01*
X137054D01*
X143753Y216101D01*
X144143Y215841D01*
X144602Y215749D01*
X153903D01*
Y215728D01*
X158097D01*
Y218879D01*
Y222893D01*
X153903D01*
Y222873D01*
X146223D01*
X140112Y228983D01*
X139723Y229243D01*
X139263Y229335D01*
X131966D01*
X125071Y236230D01*
Y253630D01*
X125532Y253822D01*
X143800Y235554D01*
Y230842D01*
X143892Y230383D01*
X144152Y229994D01*
X150171Y223975D01*
X150560Y223715D01*
X151019Y223623D01*
X153903D01*
Y223603D01*
X158097D01*
Y225178D01*
Y229193D01*
X153903D01*
Y229173D01*
X153024D01*
X149200Y232997D01*
Y244450D01*
X149662Y244642D01*
X159160Y235143D01*
Y234429D01*
X159140D01*
Y230237D01*
X167880D01*
Y234429D01*
X167860D01*
Y239304D01*
X167768Y239763D01*
X167508Y240153D01*
X167394Y240266D01*
Y240843D01*
X167100Y241555D01*
X166555Y242100D01*
X165842Y242394D01*
X165072D01*
X164360Y242100D01*
X163815Y241555D01*
X163647Y241150D01*
X163645Y241149D01*
X163147Y241248D01*
Y251045D01*
X163531Y251323D01*
X167469D01*
Y255102D01*
X166813D01*
Y256985D01*
X167142Y257315D01*
X167238Y257546D01*
X168609D01*
Y234429D01*
D02*
G37*
G36*
X126390Y208236D02*
X129630D01*
X130130Y208236D01*
Y208236D01*
X130130D01*
Y208236D01*
X130789D01*
X130996Y207736D01*
X130858Y207597D01*
X130563Y206885D01*
Y206115D01*
X130858Y205403D01*
X131403Y204858D01*
X131485Y204443D01*
X125532Y198491D01*
X125071Y198682D01*
Y208726D01*
X125540Y209195D01*
X126390D01*
Y208236D01*
D02*
G37*
G36*
X229403Y201358D02*
X230115Y201063D01*
X230885D01*
X231155Y201174D01*
X231571Y200896D01*
Y196539D01*
X228037D01*
Y197982D01*
X221860D01*
X219880Y199961D01*
X220204Y200344D01*
X228037D01*
Y201687D01*
X229073D01*
X229403Y201358D01*
D02*
G37*
G36*
X149331Y199534D02*
X142148Y192351D01*
X141887Y191961D01*
X141887Y191960D01*
X141335Y191748D01*
X141204Y191846D01*
Y199001D01*
X142199Y199996D01*
X149139D01*
X149331Y199534D01*
D02*
G37*
G36*
X130800Y191838D02*
Y188522D01*
X130787Y188502D01*
X130687Y188000D01*
Y175044D01*
X129692Y174048D01*
X129597Y174143D01*
X128885Y174437D01*
X128115D01*
X127402Y174143D01*
X127200Y173940D01*
X126700Y174147D01*
Y190307D01*
X127162Y190498D01*
X127163Y190497D01*
X127875Y190202D01*
X128646D01*
X129358Y190497D01*
X129903Y191042D01*
X130198Y191754D01*
Y192037D01*
X130300Y192105D01*
X130800Y191838D01*
D02*
G37*
G36*
X135296Y196446D02*
Y191362D01*
X134587D01*
Y186638D01*
X141796D01*
Y185063D01*
X138130D01*
Y180339D01*
X138796D01*
Y179500D01*
X138796Y179500D01*
X138887Y179039D01*
X139148Y178648D01*
X139648Y178148D01*
X139648Y178148D01*
X140039Y177887D01*
X140500Y177796D01*
X140500Y177796D01*
X142500D01*
X142500Y177796D01*
X142796Y177855D01*
X143296Y177556D01*
Y174454D01*
X141266Y172424D01*
X141005Y172034D01*
X140913Y171573D01*
X140913Y171573D01*
Y170046D01*
X126700D01*
Y170853D01*
X127200Y171060D01*
X127402Y170858D01*
X128115Y170563D01*
X128885D01*
X129597Y170858D01*
X130051Y171311D01*
X130124D01*
X130626Y171411D01*
X131052Y171696D01*
X132928Y173572D01*
X133213Y173998D01*
X133313Y174500D01*
Y188000D01*
X133213Y188502D01*
X133200Y188522D01*
Y195003D01*
X134834Y196637D01*
X135296Y196446D01*
D02*
G37*
%LPC*%
G36*
X130885Y237062D02*
X130115D01*
X129402Y236767D01*
X128858Y236222D01*
X128563Y235510D01*
Y234739D01*
X128858Y234027D01*
X129402Y233482D01*
X130115Y233187D01*
X130885D01*
X131597Y233482D01*
X131865Y233750D01*
X133185D01*
Y233032D01*
X136965D01*
Y236968D01*
X133185D01*
Y236375D01*
X131990D01*
X131597Y236767D01*
X130885Y237062D01*
D02*
G37*
G36*
X225390Y222168D02*
X221610D01*
Y218232D01*
X225390D01*
Y218687D01*
X227073D01*
X227403Y218357D01*
X228115Y218063D01*
X228885D01*
X229597Y218357D01*
X230142Y218903D01*
X230437Y219615D01*
Y220385D01*
X230142Y221097D01*
X229597Y221642D01*
X228885Y221937D01*
X228115D01*
X227403Y221642D01*
X227073Y221313D01*
X225390D01*
Y222168D01*
D02*
G37*
G36*
X225402Y216568D02*
X221623D01*
Y212632D01*
X225402D01*
Y213187D01*
X227073D01*
X227403Y212858D01*
X228115Y212563D01*
X228885D01*
X229597Y212858D01*
X230142Y213403D01*
X230437Y214115D01*
Y214885D01*
X230142Y215597D01*
X229597Y216143D01*
X228885Y216437D01*
X228115D01*
X227403Y216143D01*
X227073Y215813D01*
X225402D01*
Y216568D01*
D02*
G37*
G36*
X182801Y220492D02*
X167841D01*
Y205532D01*
X182801D01*
Y220492D01*
D02*
G37*
G36*
X206287Y189787D02*
X201713D01*
Y188822D01*
X198663D01*
X198385Y188937D01*
X197615D01*
X196903Y188643D01*
X196358Y188098D01*
X196063Y187385D01*
Y186615D01*
X196358Y185903D01*
X196903Y185357D01*
X197615Y185063D01*
X198385D01*
X198663Y185178D01*
X201713D01*
Y184213D01*
X206287D01*
Y189787D01*
D02*
G37*
%LPD*%
D10*
X202696Y277000D02*
X288500D01*
X208391Y262847D02*
X281653D01*
X209500Y260000D02*
X279115D01*
X210000Y258500D02*
X278000D01*
X202234Y278500D02*
X287500D01*
X291000Y308000D02*
X293000Y310000D01*
X287500Y278500D02*
X291000Y282000D01*
Y308000D01*
X293000Y310000D02*
X300500D01*
X292500Y296000D02*
X296500Y300000D01*
X288500Y277000D02*
X292500Y281000D01*
Y296000D01*
X296500Y300000D02*
X299000D01*
X283500Y170000D02*
X300500D01*
X280500Y173000D02*
X283500Y170000D01*
X280500Y173000D02*
Y256000D01*
X279115Y260000D02*
X282000Y257115D01*
Y182000D02*
Y257115D01*
Y182000D02*
X284000Y180000D01*
X299500D01*
X285000Y201500D02*
X286500Y200000D01*
X281653Y262847D02*
X285000Y259500D01*
X286500Y200000D02*
X299000D01*
X285000Y201500D02*
Y259500D01*
X278000Y258500D02*
X280500Y256000D01*
X299500Y180000D02*
X300000Y179500D01*
X299000Y200000D02*
X299500Y199500D01*
X192196Y266500D02*
X202696Y277000D01*
X191734Y268000D02*
X202234Y278500D01*
X176000Y268000D02*
X191734D01*
X43000Y151461D02*
X43461Y151000D01*
X43000Y151461D02*
Y169500D01*
X141544Y151000D02*
X142117Y151573D01*
X43461Y151000D02*
X141544D01*
X142117Y151573D02*
Y171573D01*
X43000Y169712D02*
Y253655D01*
X41383Y255272D02*
X43000Y253655D01*
X112000Y216500D02*
X118000D01*
X171384Y232935D02*
Y263384D01*
X172959Y232333D02*
Y262959D01*
X171384Y263384D02*
X176000Y268000D01*
X172959Y262959D02*
X176500Y266500D01*
X192196D01*
X201500Y255956D02*
X208391Y262847D01*
X204699Y213799D02*
X217300Y226400D01*
X256000D01*
X262200Y232600D01*
X258700Y241900D02*
X262200Y238400D01*
Y232600D02*
Y238400D01*
X205606Y228807D02*
Y254106D01*
X252476Y241900D02*
X258700D01*
X204137Y254637D02*
X209500Y260000D01*
X205606Y254106D02*
X210000Y258500D01*
X194642Y227973D02*
X197173D01*
X194642Y223248D02*
X200047D01*
X197173Y227973D02*
X201500Y232300D01*
X194642Y213799D02*
X204699D01*
X201500Y232300D02*
Y255956D01*
X199660Y224823D02*
X204137Y229300D01*
X200047Y223248D02*
X205606Y228807D01*
X204137Y229300D02*
Y254637D01*
X142500Y179000D02*
X143000Y179500D01*
Y191500D01*
X142117Y171573D02*
X144500Y173956D01*
Y190538D01*
X136500Y189081D02*
Y197962D01*
X140000Y179500D02*
Y182701D01*
Y179500D02*
X140500Y179000D01*
X142500D01*
X118000Y216500D02*
Y220500D01*
Y216500D02*
X122500D01*
X125200Y213800D01*
X132000Y210500D02*
X136500D01*
X138225Y212225D01*
X136500Y197962D02*
X141338Y202800D01*
X140000Y187977D02*
Y199500D01*
X125200Y213800D02*
X155616D01*
X140000Y199500D02*
X141700Y201200D01*
X151126Y199626D02*
X156000D01*
X143000Y191500D02*
X151126Y199626D01*
X138225Y212225D02*
X156000D01*
X144500Y190538D02*
X152013Y198051D01*
X141700Y201200D02*
X155191D01*
X141338Y202800D02*
X155973D01*
X152013Y198051D02*
X156000D01*
X20617Y255272D02*
X41383D01*
D11*
X211000Y290500D02*
Y298784D01*
Y287500D02*
Y290500D01*
X288100Y80100D02*
X300700D01*
X305600Y85000D01*
X268100Y68100D02*
X270053Y70053D01*
X275053D01*
X261100Y68100D02*
X268100D01*
X275053Y70053D02*
X275100Y70100D01*
X20500Y325000D02*
X52500D01*
X61500Y334000D01*
X224000Y303000D02*
X231500D01*
X224000Y297500D02*
Y303000D01*
X200768Y324932D02*
X201000Y324700D01*
X200768Y324932D02*
Y330768D01*
X201000Y331000D01*
X211000Y298784D02*
X215216Y303000D01*
X231500D02*
X234232Y305732D01*
X215216Y303000D02*
X224000D01*
X226000Y310000D02*
Y315800D01*
X225768Y323732D02*
Y331831D01*
Y323732D02*
X226000Y323500D01*
X234232Y305732D02*
Y331831D01*
X67267Y118767D02*
X67500Y119000D01*
X73000Y102500D02*
Y119000D01*
X67267Y111733D02*
Y118767D01*
X67500Y100000D02*
Y111500D01*
X67267Y111733D02*
X67500Y111500D01*
X103000Y204077D02*
Y209400D01*
Y204077D02*
X103577Y203500D01*
X106500D01*
Y200500D02*
Y203500D01*
X111000Y196000D02*
X115287D01*
X106500Y203500D02*
X118000D01*
X125000Y210500D01*
X128000D01*
X118000Y224213D02*
Y228000D01*
X91500Y97500D02*
X93000Y96000D01*
X101000Y78654D02*
Y98000D01*
X99000Y100000D02*
X101000Y98000D01*
X67500Y100000D02*
X70000Y97500D01*
X91500D01*
X75500Y100000D02*
X99000D01*
X73000Y102500D02*
X75500Y100000D01*
X93000Y65000D02*
X101000Y57000D01*
X93000Y65000D02*
Y96000D01*
D12*
X70500Y192000D02*
X91400D01*
X94450Y188950D01*
X104614Y193827D02*
X105914D01*
X104601Y193841D02*
X104614Y193827D01*
X102000Y194089D02*
X102249Y193841D01*
X104601D01*
X128624Y172624D02*
X130124D01*
X128500Y172500D02*
X128624Y172624D01*
X130124D02*
X132000Y174500D01*
X211000Y284000D02*
Y287500D01*
X191000Y281500D02*
X220000D01*
X224000Y285500D01*
X305600Y85000D02*
Y105600D01*
X247100Y67600D02*
X253011D01*
X300600Y110600D02*
X305600Y105600D01*
X288281Y110600D02*
X300600D01*
X272600D02*
X280919D01*
X70500Y334000D02*
Y340500D01*
Y284500D02*
Y334000D01*
Y274000D02*
Y284500D01*
Y334000D02*
X75000D01*
X151000Y347000D02*
X162000D01*
X175000Y322000D02*
X189000Y308000D01*
X205500D02*
X209764Y312264D01*
X189000Y308000D02*
X205500D01*
X209764Y312264D02*
Y330500D01*
X175000Y322000D02*
Y334000D01*
X138228Y335500D02*
X170000D01*
X172000Y333500D01*
Y325000D02*
Y333500D01*
X224000Y285500D02*
Y289581D01*
X69500Y347000D02*
X151000D01*
X162000D02*
X175000Y334000D01*
X65955Y343455D02*
X69500Y347000D01*
X191000Y281500D02*
Y290000D01*
Y278000D02*
Y281500D01*
X67500Y154000D02*
Y157000D01*
X54000Y170500D02*
X67500Y157000D01*
X54000Y170500D02*
Y258000D01*
X73000Y154500D02*
Y157500D01*
X58500Y172000D02*
Y256814D01*
Y172000D02*
X73000Y157500D01*
X59500Y257814D02*
Y258000D01*
X58500Y256814D02*
X59500Y257814D01*
X65990Y196510D02*
X70500Y192000D01*
X65990Y196510D02*
Y256564D01*
X136500Y160500D02*
Y166500D01*
X105914Y193827D02*
X106500Y194412D01*
Y197075D01*
X85500Y291500D02*
X98216D01*
X89610Y284610D02*
X98216D01*
X91000Y298390D02*
X98216D01*
X93500Y313000D02*
X98500Y308000D01*
X118500D01*
X90500Y273500D02*
X128000D01*
X112784Y284610D02*
X121390D01*
X112784Y298390D02*
X121390D01*
X112784Y291500D02*
X124000D01*
X118500Y308000D02*
X121500Y305000D01*
X121390Y298390D02*
X121500Y298500D01*
Y296000D02*
Y305000D01*
Y314000D02*
X126500Y309000D01*
X124000Y291500D02*
X126500Y294000D01*
Y298000D01*
Y301740D02*
Y309000D01*
X138228Y325500D02*
X144500D01*
X138228Y330500D02*
X149500D01*
X140989Y273500D02*
X150000D01*
X147000Y304228D02*
Y309500D01*
X138228Y320500D02*
X172000D01*
X162000Y275000D02*
Y282772D01*
X152000Y275500D02*
Y282772D01*
X149500Y326086D02*
Y330500D01*
Y326086D02*
X150086Y325500D01*
X154000D01*
X149500Y330500D02*
X155000D01*
X201000Y311500D02*
Y318000D01*
X165500Y253213D02*
Y258413D01*
X168000Y256924D02*
Y265000D01*
X178500Y275500D01*
X177000Y277000D02*
X178500Y275500D01*
X179000Y251425D02*
Y256625D01*
X179200D01*
X178500Y275500D02*
X188500D01*
X167000Y275000D02*
Y282772D01*
X161000Y325500D02*
X168000D01*
X172000Y304228D02*
Y314000D01*
X190400Y256587D02*
X190450Y256537D01*
Y251263D02*
Y256537D01*
Y251263D02*
X190500Y251213D01*
X188500Y275500D02*
X191000Y278000D01*
Y297000D02*
Y302000D01*
X177000Y277000D02*
Y282772D01*
Y304228D02*
Y315500D01*
X172000Y320500D02*
X177000Y315500D01*
X224200Y203000D02*
X230500D01*
X215000D02*
X224000D01*
X224100Y203100D02*
X224200Y203000D01*
X224000D02*
X224100Y203100D01*
X210912Y210612D02*
X214900Y214600D01*
X224715Y214500D02*
X228500D01*
X224615Y214600D02*
X224715Y214500D01*
X218000Y237000D02*
X224524D01*
X223513Y214600D02*
X224615D01*
X223577Y220000D02*
X228500D01*
X230500Y203000D02*
X235000D01*
X238500Y199500D01*
X268000Y235700D02*
Y241075D01*
X274500Y241287D02*
X274600Y241187D01*
Y236113D02*
Y241187D01*
Y236113D02*
X274700Y236013D01*
X209500Y240500D02*
Y246075D01*
X252623Y252000D02*
X271000D01*
X268000Y244500D02*
Y251500D01*
X271000Y252000D02*
Y255914D01*
Y252000D02*
X273500D01*
X274500Y251000D01*
X230500Y256500D02*
X270414D01*
X271000Y255914D01*
X274500Y244713D02*
Y251000D01*
X175321Y213012D02*
X175488D01*
X183982Y232333D02*
Y233642D01*
X184000Y233660D01*
X194642Y204351D02*
X194651Y204342D01*
X198462D02*
X198462Y204342D01*
X199580D01*
X199749Y204511D01*
X197488Y210612D02*
X210912D01*
X99000Y314000D02*
X121500D01*
X105456Y344044D02*
X107500Y342000D01*
X97500Y325500D02*
X116772D01*
X98000Y330500D02*
X116772D01*
X107500Y337000D02*
Y342000D01*
Y335500D02*
X116772D01*
X108500Y320500D02*
X116772D01*
X70500Y284500D02*
X78500D01*
X81500Y314000D02*
Y322075D01*
X65955Y274000D02*
Y343455D01*
X70500Y340500D02*
X74000Y344000D01*
Y344044D01*
X81500Y295500D02*
Y304130D01*
Y307870D02*
Y314000D01*
X79000Y275500D02*
X85500D01*
X82740Y284500D02*
X82977Y284263D01*
X81500Y295500D02*
X85500Y291500D01*
X82977Y284263D02*
X84737D01*
X87000Y282000D01*
X85500Y275500D02*
X87000Y277000D01*
Y282000D01*
X89610Y284610D01*
X87000Y277000D02*
X90500Y273500D01*
X91000Y295000D02*
Y298390D01*
Y323500D01*
Y298390D02*
X91000Y298390D01*
X81500Y314000D02*
X87500D01*
X81500Y325500D02*
Y330000D01*
X74000Y344044D02*
X105456D01*
X93500Y313000D02*
Y321500D01*
X91000Y323500D02*
X98000Y330500D01*
X93500Y321500D02*
X97500Y325500D01*
X94000Y335500D02*
X100500D01*
Y320500D02*
X104760D01*
X173000Y170900D02*
X173100Y170800D01*
X173000Y170900D02*
Y177075D01*
X179000Y170800D02*
Y177075D01*
X236000Y193500D02*
X242500D01*
X234274Y195226D02*
X236000Y193500D01*
X224100Y195226D02*
X234274D01*
X238500Y199500D02*
X242500D01*
X147000Y188500D02*
X147325D01*
X147925Y189100D01*
X151600D01*
X132000Y174500D02*
Y188000D01*
X136000Y182500D02*
X136181Y182681D01*
X136476D01*
X136457Y182701D02*
X136476Y182681D01*
X136500D01*
X136476D02*
X136500Y182658D01*
Y173500D02*
Y182658D01*
X124500Y217500D02*
X128500D01*
X135013Y235062D02*
X135075Y235000D01*
X130500Y235124D02*
X130562Y235062D01*
X135013D01*
X150000Y273500D02*
X152000Y275500D01*
X154764Y86756D02*
X155016Y86504D01*
D17*
X250300Y82251D02*
X256863D01*
X249151Y83400D02*
X250300Y82251D01*
X243400Y83400D02*
X249151D01*
X70500Y6500D02*
X172500D01*
X14000Y63000D02*
Y334000D01*
Y63000D02*
X70500Y6500D01*
X14000Y334000D02*
X31500Y351500D01*
X160500D01*
X226000Y66000D02*
X243400Y83400D01*
X205600Y45600D02*
X226000Y66000D01*
X232400Y59600D02*
X265600D01*
X226000Y66000D02*
X232400Y59600D01*
X165500Y45500D02*
X181400D01*
Y45600D02*
X205600D01*
X265600Y59600D02*
X272486Y66486D01*
X275021D01*
X275242Y66706D01*
X275706D02*
X280557D01*
X160500Y351500D02*
X162500Y349500D01*
X160500Y45500D02*
X165500D01*
X103000Y216400D02*
Y225000D01*
X111000Y209400D02*
X116846D01*
X116946Y209500D01*
X117000D01*
X198000Y187000D02*
X204000D01*
X172500Y6500D02*
X179500Y13500D01*
Y27500D01*
X184000Y109500D02*
Y116000D01*
X179500Y51500D02*
Y87000D01*
X184000Y105727D02*
X185172Y104555D01*
X184000Y105727D02*
Y109500D01*
X187000Y64500D02*
Y70500D01*
Y77500D02*
Y86500D01*
X185172Y104555D02*
X194500D01*
X120000Y73500D02*
Y110000D01*
X116500Y113500D02*
X120000Y110000D01*
X176000Y108500D02*
Y114500D01*
X86500Y113500D02*
X116500D01*
X84500Y106000D02*
Y111500D01*
X86500Y113500D01*
X155016Y50984D02*
X160500Y45500D01*
X155016Y50984D02*
Y67516D01*
X125500Y68000D02*
X135500D01*
X120000Y73500D02*
X125500Y68000D01*
X84500Y89500D02*
Y91000D01*
X84465Y78654D02*
Y89465D01*
X84500Y89500D01*
X18000Y325000D02*
X18500Y325500D01*
D20*
X288281Y110600D02*
D03*
X280919D02*
D03*
X261100Y68100D02*
D03*
X253738D02*
D03*
D21*
X235500Y108500D02*
D03*
X209500Y320500D02*
D03*
X242500Y193500D02*
D03*
Y199500D02*
D03*
X211500Y290500D02*
D03*
X79000Y275500D02*
D03*
X67000Y111500D02*
D03*
X73000D02*
D03*
X102000Y113500D02*
D03*
X165500Y45500D02*
D03*
X179500Y56500D02*
D03*
X184000Y109500D02*
D03*
D22*
X234232Y348169D02*
D03*
Y331831D02*
D03*
X225768Y348169D02*
D03*
Y331831D02*
D03*
X209232Y348169D02*
D03*
Y331831D02*
D03*
X200768Y348169D02*
D03*
Y331831D02*
D03*
D23*
X191000Y297000D02*
D03*
Y290000D02*
D03*
X205300Y196000D02*
D03*
Y203000D02*
D03*
X215000D02*
D03*
Y196000D02*
D03*
X136500Y166500D02*
D03*
Y173500D02*
D03*
X176000Y108500D02*
D03*
Y101500D02*
D03*
X187000Y70500D02*
D03*
Y77500D02*
D03*
D24*
X98200Y176000D02*
D03*
X103200Y171000D02*
D03*
Y176000D02*
D03*
X98200Y171000D02*
D03*
X93200Y176000D02*
D03*
Y171000D02*
D03*
D25*
X81500Y325500D02*
D03*
Y322075D02*
D03*
X190500Y251213D02*
D03*
Y247787D02*
D03*
X179000Y251425D02*
D03*
Y248000D02*
D03*
X209500Y240500D02*
D03*
Y237075D02*
D03*
X268000Y241075D02*
D03*
Y244500D02*
D03*
X274500Y241287D02*
D03*
Y244713D02*
D03*
X172900Y179700D02*
D03*
Y176275D02*
D03*
X178900D02*
D03*
Y179700D02*
D03*
X106500Y197075D02*
D03*
Y200500D02*
D03*
X118000Y220787D02*
D03*
Y224213D02*
D03*
X165500Y253213D02*
D03*
Y249787D02*
D03*
D26*
X81500Y307870D02*
D03*
Y304130D02*
D03*
X126500Y301740D02*
D03*
Y298000D02*
D03*
D27*
X112784Y298390D02*
D03*
Y291500D02*
D03*
Y284610D02*
D03*
X98216D02*
D03*
Y291500D02*
D03*
Y298390D02*
D03*
D28*
X138228Y320500D02*
D03*
Y325500D02*
D03*
Y330500D02*
D03*
X116772Y320500D02*
D03*
Y325500D02*
D03*
Y330500D02*
D03*
Y335500D02*
D03*
X138228D02*
D03*
D29*
X177000Y304228D02*
D03*
X167000D02*
D03*
X162000D02*
D03*
X157000D02*
D03*
X152000D02*
D03*
X147000D02*
D03*
X177000Y282772D02*
D03*
X172000D02*
D03*
X167000D02*
D03*
X162000D02*
D03*
X157000D02*
D03*
X152000D02*
D03*
X147000D02*
D03*
X172000Y304228D02*
D03*
D30*
X161000Y325500D02*
D03*
X154000D02*
D03*
X204000Y187000D02*
D03*
X211000D02*
D03*
X100500Y335500D02*
D03*
X107500D02*
D03*
D31*
X201000Y324700D02*
D03*
Y318000D02*
D03*
X226000Y322500D02*
D03*
Y315800D02*
D03*
X224000Y297500D02*
D03*
Y290800D02*
D03*
D32*
X175321Y213012D02*
D03*
D33*
X194642Y227973D02*
D03*
Y226398D02*
D03*
Y224823D02*
D03*
Y223248D02*
D03*
Y221673D02*
D03*
Y220099D02*
D03*
Y218524D02*
D03*
Y216949D02*
D03*
Y215374D02*
D03*
Y213799D02*
D03*
Y212225D02*
D03*
Y210650D02*
D03*
Y209075D02*
D03*
Y207500D02*
D03*
Y205925D02*
D03*
Y204351D02*
D03*
Y202776D02*
D03*
Y201201D02*
D03*
Y199626D02*
D03*
Y198051D02*
D03*
X156000D02*
D03*
Y199626D02*
D03*
Y201201D02*
D03*
Y202776D02*
D03*
Y204351D02*
D03*
Y205925D02*
D03*
Y207500D02*
D03*
Y209075D02*
D03*
Y210650D02*
D03*
Y212225D02*
D03*
Y213799D02*
D03*
Y215374D02*
D03*
Y216949D02*
D03*
Y218524D02*
D03*
Y220099D02*
D03*
Y221673D02*
D03*
Y223248D02*
D03*
Y224823D02*
D03*
Y226398D02*
D03*
Y227973D02*
D03*
D34*
X190282Y193691D02*
D03*
X188707D02*
D03*
X187132D02*
D03*
X185557D02*
D03*
X183982D02*
D03*
X182408D02*
D03*
X180833D02*
D03*
X179258D02*
D03*
X177683D02*
D03*
X176108D02*
D03*
X174534D02*
D03*
X172959D02*
D03*
X171384D02*
D03*
X169809D02*
D03*
X168234D02*
D03*
X166660D02*
D03*
X165085D02*
D03*
X163510D02*
D03*
X161935D02*
D03*
X160360D02*
D03*
Y232333D02*
D03*
X161935D02*
D03*
X163510D02*
D03*
X165085D02*
D03*
X166660D02*
D03*
X168234D02*
D03*
X169809D02*
D03*
X171384D02*
D03*
X172959D02*
D03*
X174534D02*
D03*
X176108D02*
D03*
X177683D02*
D03*
X179258D02*
D03*
X180833D02*
D03*
X182408D02*
D03*
X183982D02*
D03*
X185557D02*
D03*
X187132D02*
D03*
X188707D02*
D03*
X190282D02*
D03*
D35*
X221481Y187000D02*
D03*
X218500D02*
D03*
D36*
X224100Y195226D02*
D03*
Y203100D02*
D03*
D37*
X244500Y212500D02*
D03*
X240760D02*
D03*
Y206500D02*
D03*
X244500D02*
D03*
X128260Y210500D02*
D03*
X132000D02*
D03*
X79000Y284500D02*
D03*
X82740D02*
D03*
X104760Y320500D02*
D03*
X108500D02*
D03*
D38*
X223513Y214600D02*
D03*
X220087D02*
D03*
X223500Y220200D02*
D03*
X220075D02*
D03*
X150575Y189000D02*
D03*
X154000D02*
D03*
X115287Y196000D02*
D03*
X118713D02*
D03*
X128500Y217500D02*
D03*
X131925D02*
D03*
X135075Y235000D02*
D03*
X138500D02*
D03*
D39*
X224524Y252000D02*
D03*
Y247000D02*
D03*
Y242000D02*
D03*
Y237000D02*
D03*
X252476Y252000D02*
D03*
Y247000D02*
D03*
Y242000D02*
D03*
Y237000D02*
D03*
D40*
X136457Y182701D02*
D03*
Y189000D02*
D03*
X140000D02*
D03*
Y182701D02*
D03*
D41*
X111000Y209400D02*
D03*
X103000D02*
D03*
Y216400D02*
D03*
X111000D02*
D03*
D42*
X197500Y104555D02*
D03*
Y95500D02*
D03*
Y86445D02*
D03*
D43*
X222500Y95500D02*
D03*
D75*
X136000Y105008D02*
D03*
Y68000D02*
D03*
X155016D02*
D03*
Y86504D02*
D03*
X136000D02*
D03*
X155016Y105008D02*
D03*
D76*
X68000Y29260D02*
D03*
X84535Y79654D02*
D03*
Y58000D02*
D03*
X68000Y79654D02*
D03*
Y58000D02*
D03*
X101071Y29260D02*
D03*
D82*
X280259Y73741D02*
X281000Y73000D01*
X275366Y76746D02*
X278371Y73741D01*
X280259D01*
X275242Y76746D02*
X275366D01*
X270903Y74000D02*
X272000D01*
X274042Y76042D01*
X259146Y85757D02*
X270903Y74000D01*
X274055Y76042D02*
X275000Y76987D01*
X274042Y76042D02*
X274055D01*
X270208Y78292D02*
X270500Y78000D01*
X260275Y86225D02*
X268208Y78292D01*
X270208D01*
X259146Y85757D02*
Y197853D01*
X260275Y86225D02*
Y198321D01*
X248241Y208758D02*
X259146Y197853D01*
X248708Y209887D02*
X260275Y198321D01*
X247113Y209887D02*
X248708D01*
X246758Y208758D02*
X248241D01*
X245195Y207589D02*
X245589D01*
X244500Y206894D02*
X245195Y207589D01*
X244500Y212106D02*
Y212500D01*
Y206500D02*
Y206894D01*
X245195Y211411D02*
X245589D01*
X247113Y209887D01*
X244500Y212106D02*
X245195Y211411D01*
X245589Y207589D02*
X246758Y208758D01*
D83*
X269600Y83600D02*
X274752D01*
Y83236D02*
Y83600D01*
X275242Y83439D02*
X279939D01*
X280100Y83600D01*
X172000Y95000D02*
X195000D01*
X176000D02*
Y101500D01*
X174500Y122500D02*
X236000D01*
X170500Y96500D02*
X172000Y95000D01*
X170500Y96500D02*
Y118500D01*
X174500Y122500D01*
X18000Y175000D02*
X26000D01*
D84*
X94450Y188950D02*
X97550Y192050D01*
X94450Y179750D02*
Y188950D01*
X97550Y192050D02*
X110950D01*
X125500Y157500D02*
Y192899D01*
X122500Y154500D02*
X125500Y157500D01*
Y192899D02*
X140101Y207500D01*
X172961Y185006D02*
X174534Y186579D01*
X175291Y184676D02*
X176108Y185493D01*
X175291Y183291D02*
Y184676D01*
X172961Y180539D02*
X173000Y180500D01*
X176308Y185692D02*
X179000Y183000D01*
X175000D02*
X175291Y183291D01*
X176108Y185892D02*
X176308Y185692D01*
X172961Y180539D02*
Y185006D01*
X176108Y185493D02*
Y185892D01*
X19622Y136284D02*
Y136603D01*
X174534Y186579D02*
Y193691D01*
X173000Y186647D02*
Y192341D01*
X20519Y137000D02*
X147500D01*
X19622Y136603D02*
X20519Y137500D01*
X153357Y167004D02*
X173000Y186647D01*
X153357Y142857D02*
Y167004D01*
X289500Y318000D02*
X291500Y320000D01*
X298500D01*
X302500D01*
X207818Y264230D02*
X283254D01*
X204500Y271000D02*
X289500D01*
X201779Y280000D02*
X286500D01*
X204051Y272500D02*
X293500D01*
X208964Y261464D02*
X280464D01*
X206676Y266986D02*
X285514D01*
X203152Y275500D02*
X289500D01*
X205291Y269500D02*
X288500D01*
X207247Y265608D02*
X284392D01*
X203516Y273915D02*
X293415D01*
X206105Y268365D02*
X286998D01*
X289500Y283000D02*
Y318000D01*
X286500Y280000D02*
X289500Y283000D01*
X294000Y280000D02*
Y287500D01*
X289500Y275500D02*
X294000Y280000D01*
Y287500D02*
X296500Y290000D01*
X286500Y190000D02*
X300000D01*
X283500Y193000D02*
X286500Y190000D01*
X283500Y193000D02*
Y258428D01*
X280464Y261464D02*
X283500Y258428D01*
X293415Y273915D02*
X298504Y279004D01*
X294000Y261500D02*
X295500Y260000D01*
X299500Y279909D02*
Y280000D01*
X288000Y222500D02*
X290500Y220000D01*
X300500D01*
X289500Y232000D02*
X291500Y230000D01*
X192652Y265000D02*
X203152Y275500D01*
X284392Y265608D02*
X288000Y262000D01*
X300500Y220000D02*
X301000Y219500D01*
X286500Y211956D02*
Y260984D01*
X289500Y232000D02*
Y263000D01*
X288456Y210000D02*
X300000D01*
X295500Y270456D02*
X295956Y270000D01*
X291000Y241500D02*
X292500Y240000D01*
X286998Y268365D02*
X291000Y264362D01*
X285514Y266986D02*
X289500Y263000D01*
X288500Y269500D02*
X292500Y265500D01*
Y240000D02*
X299000D01*
X197000Y257310D02*
X206676Y266986D01*
X295500Y270456D02*
Y270500D01*
X298504Y279004D02*
X298595D01*
X283254Y264230D02*
X286500Y260984D01*
X292500Y251000D02*
X293500Y250000D01*
X289500Y271000D02*
X294000Y266500D01*
X291500Y230000D02*
X299000D01*
X293500Y250000D02*
X299000D01*
X298595Y279004D02*
X299500Y279909D01*
X295956Y270000D02*
X299000D01*
X294000Y261500D02*
Y266500D01*
X286500Y211956D02*
X288456Y210000D01*
X293500Y272500D02*
X295500Y270500D01*
X291000Y241500D02*
Y264362D01*
X292500Y251000D02*
Y265500D01*
X288000Y222500D02*
Y262000D01*
X295500Y260000D02*
X300500D01*
X194913Y259122D02*
X205291Y269500D01*
X195500Y257759D02*
X206105Y268365D01*
X198500Y256861D02*
X207247Y265608D01*
X200000Y256411D02*
X207818Y264230D01*
X300000Y190000D02*
X300500Y189500D01*
X300000Y210000D02*
X300500Y209500D01*
X299000Y230000D02*
X300000Y229000D01*
X299000Y240000D02*
X299500Y239500D01*
X193429Y261878D02*
X204051Y272500D01*
X192858Y263257D02*
X203516Y273915D01*
X194000Y260500D02*
X204500Y271000D01*
X191279Y269500D02*
X201779Y280000D01*
X296500Y290000D02*
X298500D01*
X37622Y128908D02*
X42714Y134000D01*
X35122Y116181D02*
X37622Y118681D01*
X19622Y116181D02*
X35122D01*
X37622Y118681D02*
Y128908D01*
X42714Y134000D02*
X148500D01*
X19122Y116681D02*
X19622Y116181D01*
X39122Y108681D02*
Y128122D01*
X43500Y132500D02*
X148949D01*
X39122Y128122D02*
X43500Y132500D01*
X37122Y106681D02*
X39122Y108681D01*
X17622Y106681D02*
X37122D01*
X19122Y126181D02*
X30081D01*
X39400Y135500D02*
X148000D01*
X30081Y126181D02*
X39400Y135500D01*
X147500Y137000D02*
X153357Y142857D01*
X148000Y135500D02*
X183000Y170500D01*
Y183347D01*
X45000Y126044D02*
X45456Y126500D01*
X45000Y69559D02*
Y126044D01*
X150747Y126500D02*
X192000Y167753D01*
X45456Y126500D02*
X150747D01*
X43500D02*
X45000Y128000D01*
X150297D02*
X190500Y168203D01*
X45000Y128000D02*
X150297D01*
X44500Y129500D02*
X149848D01*
X189000Y168652D01*
X42122Y127122D02*
X44500Y129500D01*
X44000Y131000D02*
X149399D01*
X187500Y169101D01*
X40500Y127500D02*
X44000Y131000D01*
X148949Y132500D02*
X186000Y169551D01*
X148500Y134000D02*
X184500Y170000D01*
X43500Y79059D02*
Y126500D01*
X42122Y89681D02*
Y127122D01*
X40500Y100559D02*
Y127500D01*
X144747Y140500D02*
X151878Y147632D01*
X33000Y143500D02*
X36000Y140500D01*
X144747D01*
X34500Y144000D02*
X36500Y142000D01*
X144297D02*
X150500Y148203D01*
X36500Y142000D02*
X144297D01*
X36000Y144500D02*
X37000Y143500D01*
X143848D02*
X149014Y148666D01*
X37000Y143500D02*
X143848D01*
X143399Y145000D02*
X147635Y149237D01*
X37360Y145456D02*
Y212528D01*
Y145456D02*
X37816Y145000D01*
X143399D01*
X40573Y148000D02*
X142500D01*
X144878Y150378D01*
X142949Y146500D02*
X146257Y149807D01*
X142000Y149500D02*
X143500Y151000D01*
X38739Y146956D02*
X39195Y146500D01*
X41617Y149956D02*
Y242272D01*
X38739Y146956D02*
Y222150D01*
X41617Y149956D02*
X42073Y149500D01*
X40117Y148456D02*
Y232272D01*
X42073Y149500D02*
X142000D01*
X39195Y146500D02*
X142949D01*
X40117Y148456D02*
X40573Y148000D01*
X80000Y154500D02*
X122500D01*
X123622Y158122D02*
Y192970D01*
X96000Y156000D02*
X121500D01*
X123622Y158122D01*
X77000Y157500D02*
X80000Y154500D01*
X77000Y157500D02*
Y167500D01*
X94500Y157500D02*
X96000Y156000D01*
X94500Y157500D02*
Y167300D01*
X98200Y171000D01*
X147635Y149237D02*
Y169080D01*
X150500Y148203D02*
Y168046D01*
X149014Y148666D02*
Y168509D01*
X33347Y205772D02*
X36000Y203118D01*
X34617Y215272D02*
X37360Y212528D01*
X20117Y185272D02*
X30117D01*
X36000Y144500D02*
Y203118D01*
X19617Y185772D02*
X20117Y185272D01*
X30117D02*
X33000Y182389D01*
X19117Y205772D02*
X33347D01*
X19617Y215272D02*
X34617D01*
X19117Y196272D02*
X20117Y195272D01*
X33000Y143500D02*
Y182389D01*
X19117Y215772D02*
X19617Y215272D01*
X34500Y144000D02*
Y191862D01*
X20117Y195272D02*
X31090D01*
X34500Y191862D01*
X41622Y66181D02*
X45000Y69559D01*
X33984Y264725D02*
X92930D01*
X114000Y269000D02*
X146500Y236500D01*
X92584Y263122D02*
X130327Y225378D01*
X31323Y315000D02*
X34458Y311865D01*
X33637Y263122D02*
X92500D01*
X30323Y305000D02*
X33080Y302243D01*
X35254Y267622D02*
X113500D01*
X34823Y266103D02*
X93500D01*
X33080Y269796D02*
X35254Y267622D01*
X145000Y230842D02*
Y236051D01*
X33310Y261500D02*
X92500D01*
X92930Y264725D02*
X130898Y226757D01*
X31702Y269225D02*
Y289878D01*
X26580Y295000D02*
X31702Y289878D01*
X34458Y270367D02*
Y311865D01*
X33080Y269796D02*
Y302243D01*
X131469Y228135D02*
X139263D01*
X29810Y265000D02*
X33310Y261500D01*
X113429Y267622D02*
X145000Y236051D01*
X31702Y269225D02*
X34823Y266103D01*
X34458Y270367D02*
X35825Y269000D01*
X146500Y231500D02*
Y236500D01*
X93501Y266103D02*
X131469Y228135D01*
X35825Y269000D02*
X114000D01*
X28823Y267936D02*
X33637Y263122D01*
X72500Y195500D02*
Y252000D01*
Y179000D02*
X74500Y177000D01*
X72500Y179000D02*
Y185000D01*
X74500Y177000D02*
X91583D01*
X151878Y147632D02*
Y167475D01*
X146257Y149807D02*
Y169807D01*
X144878Y150378D02*
Y170378D01*
X143500Y151000D02*
Y171000D01*
X110950Y192050D02*
X111000Y192000D01*
X99500Y252000D02*
X129000Y222500D01*
X91583Y177000D02*
X92583Y176000D01*
X91632Y170000D02*
X92632Y171000D01*
X92583Y176000D02*
X93200D01*
X92632Y171000D02*
X93200D01*
X94450Y179750D02*
X98200Y176000D01*
X103200Y171000D02*
X105050Y172850D01*
X103200Y176000D02*
X105050Y174150D01*
X112250D01*
X105050Y172850D02*
X120350D01*
X112250Y174150D02*
X113400Y175300D01*
Y178700D01*
X135000Y252520D02*
Y309905D01*
X136378Y263622D02*
Y308878D01*
X135000Y309905D02*
X140595Y315500D01*
X136378Y308878D02*
X141500Y314000D01*
X148500D01*
X159500Y315500D02*
X162000Y313000D01*
Y304228D02*
Y313000D01*
X140595Y315500D02*
X159500D01*
X148500Y314000D02*
X152000Y310500D01*
Y304228D02*
Y310500D01*
X165500Y244000D02*
Y249787D01*
X161947Y260947D02*
X172000Y271000D01*
X169809Y232333D02*
Y263809D01*
X172000Y271000D02*
Y282772D01*
X169809Y263809D02*
X175500Y269500D01*
X174534Y232333D02*
Y261966D01*
X177568Y265000D01*
X182500Y243736D02*
Y259848D01*
X175500Y269500D02*
X191279D01*
X184000Y243286D02*
Y259399D01*
X182500Y259848D02*
X185909Y263257D01*
X177568Y265000D02*
X192652D01*
X184000Y259399D02*
X186480Y261878D01*
X185500Y242837D02*
Y258949D01*
X187051Y260500D01*
X187000Y242388D02*
Y258500D01*
X187622Y259122D01*
X185909Y263257D02*
X192858D01*
X186480Y261878D02*
X193429D01*
X190500Y243938D02*
Y247437D01*
X187051Y260500D02*
X194000D01*
X187622Y259122D02*
X194913D01*
X195500Y246989D02*
Y257759D01*
X197000Y246540D02*
Y257310D01*
X198500Y246073D02*
Y256861D01*
X200000Y245623D02*
Y256411D01*
X212116Y207000D02*
X214116Y209000D01*
X236793D01*
X211400Y208400D02*
X213500Y210500D01*
X237000D01*
X202392Y220099D02*
X212500Y230207D01*
X202419Y218524D02*
X214000Y230105D01*
X202649Y216949D02*
X215500Y229800D01*
X209500Y237075D02*
Y237533D01*
Y231500D02*
Y237075D01*
X203874Y215374D02*
X216500Y228000D01*
X205725Y212225D02*
X218500Y225000D01*
X212500Y230207D02*
Y251000D01*
X215500Y229800D02*
Y241544D01*
X214900Y214600D02*
X219600D01*
X215500Y220000D02*
X219000D01*
X236793Y209000D02*
X238966Y206828D01*
X237000Y210500D02*
X238966Y212466D01*
Y206828D02*
X240432D01*
X238966Y212466D02*
X240725D01*
X240432Y206828D02*
X240760Y206500D01*
X240725Y212466D02*
X240760Y212500D01*
X216500Y228000D02*
X255100D01*
X218500Y225000D02*
X257400D01*
X249176Y236900D02*
X256900D01*
X255100Y228000D02*
X259000Y231900D01*
X256900Y236900D02*
X259078Y234722D01*
Y231900D02*
Y234722D01*
X257400Y225000D02*
X264400Y232000D01*
Y243900D01*
X211000Y252500D02*
Y255973D01*
X211033Y256006D01*
X211000Y252500D02*
X212500Y251000D01*
X213500Y252000D01*
X214000Y246000D02*
X215000Y247000D01*
X215500Y241544D02*
X215956Y242000D01*
X215000Y247000D02*
X221500D01*
X215956Y242000D02*
X221500D01*
X213500Y252000D02*
X224524D01*
X250000Y247000D02*
X252476D01*
Y246900D02*
X261400D01*
X264400Y243900D01*
X203000Y255500D02*
X208964Y261464D01*
X190282Y232333D02*
Y235905D01*
X161947Y240447D02*
X165085Y237309D01*
Y232333D02*
Y237309D01*
X165443Y240457D02*
X165457D01*
X165514Y240400D01*
X165564D01*
X166660Y239304D01*
Y232333D02*
Y239304D01*
X165500Y244000D02*
X168234Y241266D01*
Y232333D02*
Y241266D01*
X176108Y232333D02*
Y239585D01*
X178462Y241938D01*
X176800Y243600D02*
X178400Y242000D01*
X177683Y232333D02*
Y238919D01*
X178462Y241938D02*
X179000Y242477D01*
Y248000D01*
X179258Y232333D02*
Y238545D01*
X177683Y238919D02*
X182500Y243736D01*
X180833Y232333D02*
Y238170D01*
X179258Y238545D02*
X184000Y243286D01*
X182408Y232333D02*
Y237796D01*
X180833Y238170D02*
X185500Y242837D01*
X184000Y233660D02*
Y237438D01*
X182408Y237796D02*
X187000Y242388D01*
X185557Y232333D02*
Y237046D01*
X187132Y232333D02*
Y236672D01*
X184000Y237438D02*
X190500Y243938D01*
X188707Y232333D02*
Y236280D01*
X185557Y237046D02*
X195500Y246989D01*
X187132Y236672D02*
X197000Y246540D01*
X188707Y236280D02*
X198500Y246073D01*
X194642Y207500D02*
X194684Y207542D01*
X194642Y209075D02*
X195951D01*
X194684Y207542D02*
X196542D01*
X194642Y201201D02*
X197248D01*
X194642Y210650D02*
X197450D01*
X194642Y202776D02*
X197828D01*
X195616Y205942D02*
X197058D01*
X194642Y204351D02*
X198453D01*
X195951Y209075D02*
X197488Y210612D01*
X196542Y207542D02*
X197400Y208400D01*
X197450Y210650D02*
X197488Y210612D01*
X197058Y205942D02*
X198116Y207000D01*
X197248Y201201D02*
X198949Y199500D01*
X197828Y202776D02*
X198604Y202000D01*
X194642Y212225D02*
X205725D01*
X198604Y202000D02*
X203689D01*
X204500Y202811D01*
X197400Y208400D02*
X211400D01*
X204500Y202811D02*
Y203000D01*
X198116Y207000D02*
X212116D01*
X190282Y235905D02*
X200000Y245623D01*
X194642Y226398D02*
X195951D01*
X195953Y226400D01*
X194642Y224823D02*
X199477D01*
X195953Y226400D02*
X198800D01*
X194642Y221673D02*
X200428D01*
X194642Y220099D02*
X202392D01*
X194642Y218524D02*
X202419D01*
X194642Y216949D02*
X202649D01*
X194642Y215374D02*
X203874D01*
X198800Y226400D02*
X203000Y230600D01*
Y255500D01*
X200428Y221673D02*
X209500Y230745D01*
X214900Y219400D02*
X215500Y220000D01*
X214000Y230105D02*
Y246000D01*
X214900Y214600D02*
Y219400D01*
X77000Y167500D02*
X79500Y170000D01*
X91632D01*
X70500Y254000D02*
X72500Y252000D01*
X99500D01*
X70500Y254000D02*
Y256000D01*
X92466Y261500D02*
X129966Y224000D01*
X180833Y189066D02*
Y193691D01*
X179258Y188691D02*
Y193691D01*
X172959Y192382D02*
X173000Y192341D01*
X172959Y192382D02*
Y193691D01*
X186000Y169551D02*
Y183899D01*
X184500Y170000D02*
Y183449D01*
X187500Y169101D02*
Y184505D01*
X189000Y168652D02*
Y185000D01*
X190500Y168203D02*
Y185606D01*
X192000Y167753D02*
Y186212D01*
X179000Y180500D02*
Y183000D01*
X177683Y188664D02*
X183000Y183347D01*
X179258Y188691D02*
X184500Y183449D01*
X168196Y187691D02*
Y187696D01*
X168234Y187734D01*
X176108Y185892D02*
Y193691D01*
X171384Y186980D02*
Y193691D01*
X169809Y187355D02*
Y193691D01*
X168234Y187734D02*
Y193691D01*
X166660Y188105D02*
Y193691D01*
X165085Y188636D02*
Y193691D01*
X177683Y188664D02*
Y193691D01*
X180833Y189066D02*
X186000Y183899D01*
X182408Y189597D02*
X187500Y184505D01*
X183982Y190018D02*
X189000Y185000D01*
X185557Y190549D02*
X190500Y185606D01*
X187132Y191080D02*
X192000Y186212D01*
X203000Y191500D02*
X210000D01*
X182408Y189597D02*
Y193691D01*
X183982Y190018D02*
Y193691D01*
X185557Y190549D02*
Y193691D01*
X187132Y191080D02*
Y193691D01*
X196464Y198036D02*
X203000Y191500D01*
X200500Y196000D02*
X205300D01*
X210000D01*
X196916Y199584D02*
X200500Y196000D01*
X194657Y198036D02*
X196464D01*
X194642Y198051D02*
X194657Y198036D01*
X198949Y199500D02*
X218645D01*
X195493Y199584D02*
X196916D01*
X195451Y199626D02*
X195493Y199584D01*
X212500Y191500D02*
X215500D01*
X211000Y187000D02*
Y190500D01*
Y187000D02*
X218500D01*
X210000Y191500D02*
X211000Y190500D01*
X210000Y194000D02*
X212500Y191500D01*
X210000Y194000D02*
Y196000D01*
X222919Y195226D02*
X224100D01*
X210000Y196000D02*
X215000D01*
X218645Y199500D02*
X222919Y195226D01*
X143500Y171000D02*
X162000Y189500D01*
X144878Y170378D02*
X163510Y189010D01*
X146257Y169807D02*
X165085Y188636D01*
X155025Y189100D02*
X159200D01*
X128500Y192500D02*
X128622D01*
X130622Y194500D01*
X132000Y188000D02*
Y195500D01*
X118500Y196000D02*
X124738D01*
X133869Y205131D01*
X130622Y194500D02*
Y196071D01*
X123622Y192970D02*
X139727Y209075D01*
X132500Y206500D02*
X133869Y205131D01*
X130622Y196071D02*
X140476Y205925D01*
X132500Y217500D02*
X139149D01*
X132000Y195500D02*
X140851Y204351D01*
X133869Y205131D02*
X139388Y210650D01*
X139149Y217500D02*
X141275Y215374D01*
X147635Y169080D02*
X166660Y188105D01*
X149014Y168509D02*
X168196Y187691D01*
X159200Y189100D02*
X160360Y190260D01*
X150500Y168046D02*
X169809Y187355D01*
X160360Y190260D02*
Y193691D01*
X151878Y167475D02*
X171384Y186980D01*
X161935Y192382D02*
Y193691D01*
Y192382D02*
X161977Y192340D01*
Y191926D02*
Y192340D01*
Y191926D02*
X162000Y191903D01*
Y189500D02*
Y191903D01*
X163510Y189010D02*
Y193691D01*
X139388Y210650D02*
X156000D01*
X139727Y209075D02*
X156000D01*
X140101Y207500D02*
X156000D01*
X140476Y205925D02*
X156000D01*
X140851Y204351D02*
X156000D01*
X141275Y215374D02*
X156000D01*
X144602Y216949D02*
X156000D01*
X144976Y218524D02*
X156000D01*
X145350Y220099D02*
X156000D01*
X135000Y252520D02*
X135010Y252510D01*
X138500Y235000D02*
X141000D01*
X137551Y224000D02*
X144602Y216949D01*
X138122Y225378D02*
X144976Y218524D01*
X141000Y235000D02*
X142500Y233500D01*
X138693Y226757D02*
X145350Y220099D01*
X136378Y263622D02*
X148000Y252000D01*
X139263Y228135D02*
X145726Y221673D01*
X142500Y230000D02*
Y233500D01*
Y230000D02*
X149252Y223248D01*
X148000Y232500D02*
Y252000D01*
X150000Y246000D02*
Y258500D01*
X153132Y244817D02*
Y265132D01*
X157000Y243288D02*
Y282772D01*
X153132Y244817D02*
X161935Y236014D01*
X157000Y243288D02*
X163510Y236778D01*
X160360Y232333D02*
Y235640D01*
X161935Y232333D02*
Y236014D01*
X161947Y240447D02*
Y260947D01*
X163510Y232333D02*
Y236778D01*
X129966Y224000D02*
X137551D01*
X130327Y225378D02*
X138122D01*
X130898Y226757D02*
X138693D01*
X145726Y221673D02*
X156000D01*
X145000Y230842D02*
X151019Y224823D01*
X146500Y231500D02*
X151602Y226398D01*
X148000Y232500D02*
X152527Y227973D01*
X149252Y223248D02*
X156000D01*
X151019Y224823D02*
X156000D01*
X151602Y226398D02*
X156000D01*
X152527Y227973D02*
X156000D01*
X150000Y246000D02*
X160360Y235640D01*
X18000Y315000D02*
X31323D01*
X29323Y285000D02*
X30323Y284000D01*
X18500Y275500D02*
X27323D01*
X18000Y295000D02*
X26580D01*
X30323Y268385D02*
Y284000D01*
Y268385D02*
X33984Y264725D01*
X18000Y285000D02*
X29323D01*
X18000Y265000D02*
X29810D01*
X27323Y275500D02*
X28823Y274000D01*
X18000Y275000D02*
X18500Y275500D01*
X18000Y305000D02*
X30323D01*
X28823Y267936D02*
Y274000D01*
X18622Y96181D02*
X36122D01*
X38622Y86181D02*
X42122Y89681D01*
X18622Y86681D02*
X19122Y86181D01*
X36122Y96181D02*
X40500Y100559D01*
X40622Y76181D02*
X43500Y79059D01*
X18622Y126681D02*
X19122Y126181D01*
X19622Y76181D02*
X40622D01*
X18122Y66181D02*
X41622D01*
X19122Y86181D02*
X38622D01*
X19117Y235772D02*
X19617Y235272D01*
X18117Y224772D02*
X36117D01*
X38739Y222150D01*
X19617Y235272D02*
X37117D01*
X40117Y232272D01*
X18117Y245272D02*
X38617D01*
X41617Y242272D01*
D85*
X235500Y108500D02*
Y166000D01*
X226860Y174640D02*
X235500Y166000D01*
X155016Y86504D02*
X196000D01*
X176500Y101500D02*
X177000Y101000D01*
X219500Y95500D02*
X222500D01*
X230000D01*
X235500Y101000D01*
Y108500D01*
D86*
X285000Y335000D02*
D03*
X35000Y25000D02*
D03*
D87*
X279100Y92100D02*
D03*
Y58045D02*
D03*
D88*
X292407Y92100D02*
D03*
Y58045D02*
D03*
D89*
X280557Y63360D02*
D03*
Y66706D02*
D03*
Y70053D02*
D03*
Y73399D02*
D03*
Y76746D02*
D03*
Y80092D02*
D03*
Y83439D02*
D03*
Y86785D02*
D03*
X275242D02*
D03*
Y83439D02*
D03*
Y80092D02*
D03*
Y76746D02*
D03*
Y73399D02*
D03*
Y70053D02*
D03*
Y66706D02*
D03*
Y63360D02*
D03*
D90*
X300000Y320000D02*
D03*
Y310000D02*
D03*
Y300000D02*
D03*
Y290000D02*
D03*
Y270000D02*
D03*
Y250000D02*
D03*
Y240000D02*
D03*
Y220000D02*
D03*
Y210000D02*
D03*
Y200000D02*
D03*
Y180000D02*
D03*
Y190000D02*
D03*
Y230000D02*
D03*
Y260000D02*
D03*
Y280000D02*
D03*
X20000Y86000D02*
D03*
Y96000D02*
D03*
Y106000D02*
D03*
Y126000D02*
D03*
Y116000D02*
D03*
Y76000D02*
D03*
Y66000D02*
D03*
Y175000D02*
D03*
Y185000D02*
D03*
Y195000D02*
D03*
Y205000D02*
D03*
Y225000D02*
D03*
Y245000D02*
D03*
Y255000D02*
D03*
Y275000D02*
D03*
Y285000D02*
D03*
Y295000D02*
D03*
Y315000D02*
D03*
Y305000D02*
D03*
Y265000D02*
D03*
Y235000D02*
D03*
Y215000D02*
D03*
D91*
X300000Y170000D02*
D03*
X20000Y136000D02*
D03*
Y325000D02*
D03*
D92*
X88200Y173500D02*
D03*
X108200Y177500D02*
D03*
Y169500D02*
D03*
D93*
X88200Y163500D02*
D03*
Y183500D02*
D03*
X100700D02*
D03*
Y163500D02*
D03*
D94*
X101071Y79654D02*
D03*
X101071Y58000D02*
D03*
D95*
X269600Y83600D02*
D03*
X256863Y82251D02*
D03*
X179500Y27500D02*
D03*
X84500Y91000D02*
D03*
Y106000D02*
D03*
X187000Y64500D02*
D03*
D96*
X270500Y78000D02*
D03*
X102000Y194089D02*
D03*
X128500Y172500D02*
D03*
X175000Y183000D02*
D03*
X211000Y284000D02*
D03*
X247100Y67600D02*
D03*
X288100Y80100D02*
D03*
X272600Y110600D02*
D03*
X162500Y349500D02*
D03*
X67500Y119000D02*
D03*
X73000D02*
D03*
X67500Y154000D02*
D03*
X73000Y154500D02*
D03*
X72500Y195500D02*
D03*
Y185000D02*
D03*
X59500Y258000D02*
D03*
X54000D02*
D03*
X179000Y170800D02*
D03*
X173100D02*
D03*
X148000Y182500D02*
D03*
X136500Y160500D02*
D03*
X120350Y172850D02*
D03*
X113400Y178700D02*
D03*
X136000Y182500D02*
D03*
X147000Y188500D02*
D03*
X111000Y192000D02*
D03*
X128261Y192139D02*
D03*
X111000Y196000D02*
D03*
X132500Y206500D02*
D03*
X117000Y209500D02*
D03*
X124500Y217500D02*
D03*
X103000Y225000D02*
D03*
X118000Y228500D02*
D03*
X130500Y235124D02*
D03*
X135010Y252510D02*
D03*
X70500Y256000D02*
D03*
X65990Y256564D02*
D03*
X140989Y273500D02*
D03*
X128000D02*
D03*
X65955Y274000D02*
D03*
X70500D02*
D03*
X94000Y335500D02*
D03*
X121390Y284610D02*
D03*
X91000Y295000D02*
D03*
X121500Y296000D02*
D03*
X147000Y309500D02*
D03*
X87500Y314000D02*
D03*
X99000D02*
D03*
X100500Y320500D02*
D03*
X144500Y325500D02*
D03*
X81500Y330000D02*
D03*
X176800Y243600D02*
D03*
X179000Y256625D02*
D03*
X150000Y258500D02*
D03*
X153132Y265132D02*
D03*
X155000Y330500D02*
D03*
X162000Y275000D02*
D03*
X165457Y240457D02*
D03*
X165500Y258413D02*
D03*
X167000Y275000D02*
D03*
X168000Y325500D02*
D03*
X172000Y325000D02*
D03*
Y314000D02*
D03*
X201000Y311500D02*
D03*
X228500Y220000D02*
D03*
X209000Y231500D02*
D03*
X219000Y231575D02*
D03*
X268000Y235700D02*
D03*
X274700Y236013D02*
D03*
X218000Y237000D02*
D03*
X209500Y246075D02*
D03*
X211033Y256006D02*
D03*
X190400Y256587D02*
D03*
X191000Y302000D02*
D03*
X226000Y309500D02*
D03*
X230500Y203000D02*
D03*
X228500Y214500D02*
D03*
X215500Y191500D02*
D03*
X199749Y204511D02*
D03*
X198000Y187000D02*
D03*
X176000Y114500D02*
D03*
X184000Y116000D02*
D03*
X179500Y51500D02*
D03*
X26500Y175000D02*
D03*
D97*
X61500Y334000D02*
D03*
X75000D02*
D03*
X171000Y217500D02*
D03*
X180000D02*
D03*
X171000Y208500D02*
D03*
X180000D02*
D03*
M02*
