G04*
G04 #@! TF.GenerationSoftware,Altium Limited,Altium Designer,24.9.1 (31)*
G04*
G04 Layer_Color=3421236*
%FSLAX25Y25*%
%MOIN*%
G70*
G04*
G04 #@! TF.SameCoordinates,BA677FBB-0452-431E-8DC5-A1704F135117*
G04*
G04*
G04 #@! TF.FilePolarity,Positive*
G04*
G01*
G75*
G04:AMPARAMS|DCode=20|XSize=39.37mil|YSize=55.91mil|CornerRadius=4.92mil|HoleSize=0mil|Usage=FLASHONLY|Rotation=0.000|XOffset=0mil|YOffset=0mil|HoleType=Round|Shape=RoundedRectangle|*
%AMROUNDEDRECTD20*
21,1,0.03937,0.04606,0,0,0.0*
21,1,0.02953,0.05591,0,0,0.0*
1,1,0.00984,0.01476,-0.02303*
1,1,0.00984,-0.01476,-0.02303*
1,1,0.00984,-0.01476,0.02303*
1,1,0.00984,0.01476,0.02303*
%
%ADD20ROUNDEDRECTD20*%
%ADD21C,0.04724*%
%ADD22R,0.02559X0.04134*%
%ADD23R,0.04000X0.03000*%
%ADD24C,0.03100*%
%ADD25R,0.02362X0.02205*%
%ADD26R,0.02953X0.02165*%
G04:AMPARAMS|DCode=27|XSize=39.37mil|YSize=62.99mil|CornerRadius=0mil|HoleSize=0mil|Usage=FLASHONLY|Rotation=270.000|XOffset=0mil|YOffset=0mil|HoleType=Round|Shape=RoundedRectangle|*
%AMROUNDEDRECTD27*
21,1,0.03937,0.06299,0,0,270.0*
21,1,0.03937,0.06299,0,0,270.0*
1,1,0.00000,-0.03150,-0.01968*
1,1,0.00000,-0.03150,0.01968*
1,1,0.00000,0.03150,0.01968*
1,1,0.00000,0.03150,-0.01968*
%
%ADD27ROUNDEDRECTD27*%
%ADD28O,0.05709X0.02362*%
%ADD29O,0.02362X0.05709*%
%ADD30R,0.03000X0.04000*%
%ADD31R,0.04500X0.04000*%
%ADD32R,0.13386X0.13386*%
%ADD33R,0.02618X0.00866*%
%ADD34R,0.00866X0.02618*%
%ADD35R,0.02029X0.01860*%
%ADD36R,0.06299X0.03937*%
%ADD37R,0.02165X0.02953*%
%ADD38R,0.02205X0.02362*%
%ADD39O,0.06693X0.02362*%
G04:AMPARAMS|DCode=40|XSize=31.5mil|YSize=21.65mil|CornerRadius=0mil|HoleSize=0mil|Usage=FLASHONLY|Rotation=270.000|XOffset=0mil|YOffset=0mil|HoleType=Round|Shape=RoundedRectangle|*
%AMROUNDEDRECTD40*
21,1,0.03150,0.02165,0,0,270.0*
21,1,0.03150,0.02165,0,0,270.0*
1,1,0.00000,-0.01083,-0.01575*
1,1,0.00000,-0.01083,0.01575*
1,1,0.00000,0.01083,0.01575*
1,1,0.00000,0.01083,-0.01575*
%
%ADD40ROUNDEDRECTD40*%
G04:AMPARAMS|DCode=41|XSize=55.12mil|YSize=43.31mil|CornerRadius=0mil|HoleSize=0mil|Usage=FLASHONLY|Rotation=180.000|XOffset=0mil|YOffset=0mil|HoleType=Round|Shape=RoundedRectangle|*
%AMROUNDEDRECTD41*
21,1,0.05512,0.04331,0,0,180.0*
21,1,0.05512,0.04331,0,0,180.0*
1,1,0.00000,-0.02756,0.02165*
1,1,0.00000,0.02756,0.02165*
1,1,0.00000,0.02756,-0.02165*
1,1,0.00000,-0.02756,-0.02165*
%
%ADD41ROUNDEDRECTD41*%
%ADD42R,0.08071X0.03937*%
%ADD43R,0.08071X0.12795*%
D20*
X288281Y110600D02*
D03*
X280919D02*
D03*
X261100Y68100D02*
D03*
X253738D02*
D03*
D21*
X235500Y108500D02*
D03*
X209500Y320500D02*
D03*
X242500Y193500D02*
D03*
Y199500D02*
D03*
X211500Y290500D02*
D03*
X79000Y275500D02*
D03*
X67000Y111500D02*
D03*
X73000D02*
D03*
X102000Y113500D02*
D03*
X165500Y45500D02*
D03*
X179500Y56500D02*
D03*
X184000Y109500D02*
D03*
D22*
X234232Y348169D02*
D03*
Y331831D02*
D03*
X225768Y348169D02*
D03*
Y331831D02*
D03*
X209232Y348169D02*
D03*
Y331831D02*
D03*
X200768Y348169D02*
D03*
Y331831D02*
D03*
D23*
X191000Y297000D02*
D03*
Y290000D02*
D03*
X205300Y196000D02*
D03*
Y203000D02*
D03*
X215000D02*
D03*
Y196000D02*
D03*
X136500Y166500D02*
D03*
Y173500D02*
D03*
X176000Y108500D02*
D03*
Y101500D02*
D03*
X187000Y70500D02*
D03*
Y77500D02*
D03*
D24*
X98200Y176000D02*
D03*
X103200Y171000D02*
D03*
Y176000D02*
D03*
X98200Y171000D02*
D03*
X93200Y176000D02*
D03*
Y171000D02*
D03*
D25*
X81500Y325500D02*
D03*
Y322075D02*
D03*
X190500Y251213D02*
D03*
Y247787D02*
D03*
X179000Y251425D02*
D03*
Y248000D02*
D03*
X209500Y240500D02*
D03*
Y237075D02*
D03*
X268000Y241075D02*
D03*
Y244500D02*
D03*
X274500Y241287D02*
D03*
Y244713D02*
D03*
X172900Y179700D02*
D03*
Y176275D02*
D03*
X178900D02*
D03*
Y179700D02*
D03*
X106500Y197075D02*
D03*
Y200500D02*
D03*
X118000Y220787D02*
D03*
Y224213D02*
D03*
X165500Y253213D02*
D03*
Y249787D02*
D03*
D26*
X81500Y307870D02*
D03*
Y304130D02*
D03*
X126500Y301740D02*
D03*
Y298000D02*
D03*
D27*
X112784Y298390D02*
D03*
Y291500D02*
D03*
Y284610D02*
D03*
X98216D02*
D03*
Y291500D02*
D03*
Y298390D02*
D03*
D28*
X138228Y320500D02*
D03*
Y325500D02*
D03*
Y330500D02*
D03*
X116772Y320500D02*
D03*
Y325500D02*
D03*
Y330500D02*
D03*
Y335500D02*
D03*
X138228D02*
D03*
D29*
X177000Y304228D02*
D03*
X167000D02*
D03*
X162000D02*
D03*
X157000D02*
D03*
X152000D02*
D03*
X147000D02*
D03*
X177000Y282772D02*
D03*
X172000D02*
D03*
X167000D02*
D03*
X162000D02*
D03*
X157000D02*
D03*
X152000D02*
D03*
X147000D02*
D03*
X172000Y304228D02*
D03*
D30*
X161000Y325500D02*
D03*
X154000D02*
D03*
X204000Y187000D02*
D03*
X211000D02*
D03*
X100500Y335500D02*
D03*
X107500D02*
D03*
D31*
X201000Y324700D02*
D03*
Y318000D02*
D03*
X226000Y322500D02*
D03*
Y315800D02*
D03*
X224000Y297500D02*
D03*
Y290800D02*
D03*
D32*
X175321Y213012D02*
D03*
D33*
X194642Y227973D02*
D03*
Y226398D02*
D03*
Y224823D02*
D03*
Y223248D02*
D03*
Y221673D02*
D03*
Y220099D02*
D03*
Y218524D02*
D03*
Y216949D02*
D03*
Y215374D02*
D03*
Y213799D02*
D03*
Y212225D02*
D03*
Y210650D02*
D03*
Y209075D02*
D03*
Y207500D02*
D03*
Y205925D02*
D03*
Y204351D02*
D03*
Y202776D02*
D03*
Y201201D02*
D03*
Y199626D02*
D03*
Y198051D02*
D03*
X156000D02*
D03*
Y199626D02*
D03*
Y201201D02*
D03*
Y202776D02*
D03*
Y204351D02*
D03*
Y205925D02*
D03*
Y207500D02*
D03*
Y209075D02*
D03*
Y210650D02*
D03*
Y212225D02*
D03*
Y213799D02*
D03*
Y215374D02*
D03*
Y216949D02*
D03*
Y218524D02*
D03*
Y220099D02*
D03*
Y221673D02*
D03*
Y223248D02*
D03*
Y224823D02*
D03*
Y226398D02*
D03*
Y227973D02*
D03*
D34*
X190282Y193691D02*
D03*
X188707D02*
D03*
X187132D02*
D03*
X185557D02*
D03*
X183982D02*
D03*
X182408D02*
D03*
X180833D02*
D03*
X179258D02*
D03*
X177683D02*
D03*
X176108D02*
D03*
X174534D02*
D03*
X172959D02*
D03*
X171384D02*
D03*
X169809D02*
D03*
X168234D02*
D03*
X166660D02*
D03*
X165085D02*
D03*
X163510D02*
D03*
X161935D02*
D03*
X160360D02*
D03*
Y232333D02*
D03*
X161935D02*
D03*
X163510D02*
D03*
X165085D02*
D03*
X166660D02*
D03*
X168234D02*
D03*
X169809D02*
D03*
X171384D02*
D03*
X172959D02*
D03*
X174534D02*
D03*
X176108D02*
D03*
X177683D02*
D03*
X179258D02*
D03*
X180833D02*
D03*
X182408D02*
D03*
X183982D02*
D03*
X185557D02*
D03*
X187132D02*
D03*
X188707D02*
D03*
X190282D02*
D03*
D35*
X221481Y187000D02*
D03*
X218500D02*
D03*
D36*
X224100Y195226D02*
D03*
Y203100D02*
D03*
D37*
X244500Y212500D02*
D03*
X240760D02*
D03*
Y206500D02*
D03*
X244500D02*
D03*
X128260Y210500D02*
D03*
X132000D02*
D03*
X79000Y284500D02*
D03*
X82740D02*
D03*
X104760Y320500D02*
D03*
X108500D02*
D03*
D38*
X223513Y214600D02*
D03*
X220087D02*
D03*
X223500Y220200D02*
D03*
X220075D02*
D03*
X150575Y189000D02*
D03*
X154000D02*
D03*
X115287Y196000D02*
D03*
X118713D02*
D03*
X128500Y217500D02*
D03*
X131925D02*
D03*
X135075Y235000D02*
D03*
X138500D02*
D03*
D39*
X224524Y252000D02*
D03*
Y247000D02*
D03*
Y242000D02*
D03*
Y237000D02*
D03*
X252476Y252000D02*
D03*
Y247000D02*
D03*
Y242000D02*
D03*
Y237000D02*
D03*
D40*
X136457Y182701D02*
D03*
Y189000D02*
D03*
X140000D02*
D03*
Y182701D02*
D03*
D41*
X111000Y209400D02*
D03*
X103000D02*
D03*
Y216400D02*
D03*
X111000D02*
D03*
D42*
X197500Y104555D02*
D03*
Y95500D02*
D03*
Y86445D02*
D03*
D43*
X222500Y95500D02*
D03*
M02*
