G04*
G04 #@! TF.GenerationSoftware,Altium Limited,Altium Designer,24.9.1 (31)*
G04*
G04 Layer_Physical_Order=2*
G04 Layer_Color=16711680*
%FSLAX25Y25*%
%MOIN*%
G70*
G04*
G04 #@! TF.SameCoordinates,BA677FBB-0452-431E-8DC5-A1704F135117*
G04*
G04*
G04 #@! TF.FilePolarity,Positive*
G04*
G01*
G75*
%ADD10C,0.00787*%
%ADD11C,0.00984*%
%ADD12C,0.01000*%
%ADD17C,0.02000*%
%ADD75C,0.09543*%
%ADD76C,0.11811*%
%ADD84C,0.00778*%
%ADD86C,0.06000*%
%ADD87O,0.09449X0.03543*%
%ADD88O,0.06693X0.03543*%
%ADD89C,0.02559*%
%ADD90C,0.05984*%
G04:AMPARAMS|DCode=91|XSize=59.84mil|YSize=59.84mil|CornerRadius=14.96mil|HoleSize=0mil|Usage=FLASHONLY|Rotation=90.000|XOffset=0mil|YOffset=0mil|HoleType=Round|Shape=RoundedRectangle|*
%AMROUNDEDRECTD91*
21,1,0.05984,0.02992,0,0,90.0*
21,1,0.02992,0.05984,0,0,90.0*
1,1,0.02992,0.01496,0.01496*
1,1,0.02992,0.01496,-0.01496*
1,1,0.02992,-0.01496,-0.01496*
1,1,0.02992,-0.01496,0.01496*
%
%ADD91ROUNDEDRECTD91*%
%ADD92C,0.03400*%
%ADD93C,0.09200*%
%ADD94C,0.11811*%
%ADD95C,0.05000*%
%ADD96C,0.02300*%
%ADD97C,0.03150*%
%ADD98C,0.00984*%
G36*
X288496Y358567D02*
X290789Y358110D01*
X293026Y357432D01*
X295186Y356537D01*
X297248Y355435D01*
X299192Y354136D01*
X301000Y352653D01*
X302653Y350999D01*
X304136Y349192D01*
X305435Y347248D01*
X306537Y345186D01*
X307432Y343026D01*
X308110Y340789D01*
X308567Y338496D01*
X308796Y336169D01*
Y335000D01*
Y25000D01*
Y23831D01*
X308567Y21504D01*
X308110Y19211D01*
X307432Y16974D01*
X306537Y14814D01*
X305435Y12752D01*
X304136Y10808D01*
X302653Y9000D01*
X300999Y7347D01*
X299192Y5864D01*
X297248Y4565D01*
X295186Y3463D01*
X293026Y2568D01*
X290789Y1890D01*
X288496Y1433D01*
X287270Y1313D01*
X32730D01*
X31504Y1433D01*
X29211Y1890D01*
X26974Y2568D01*
X24814Y3463D01*
X22752Y4565D01*
X20808Y5864D01*
X19000Y7347D01*
X17347Y9001D01*
X15864Y10808D01*
X14565Y12752D01*
X13463Y14814D01*
X12568Y16974D01*
X11890Y19211D01*
X11433Y21504D01*
X11204Y23831D01*
Y24485D01*
X11213Y24498D01*
X11313Y25000D01*
Y337270D01*
X11433Y338496D01*
X11890Y340789D01*
X12568Y343026D01*
X13463Y345186D01*
X14565Y347248D01*
X15864Y349192D01*
X17347Y351000D01*
X19001Y352653D01*
X20808Y354136D01*
X22752Y355435D01*
X24814Y356537D01*
X26974Y357432D01*
X29211Y358110D01*
X31504Y358567D01*
X33831Y358796D01*
X286169D01*
X288496Y358567D01*
D02*
G37*
%LPC*%
G36*
X75470Y336362D02*
X74530D01*
X73662Y336003D01*
X72997Y335338D01*
X72984Y335305D01*
X63516D01*
X63503Y335338D01*
X62838Y336003D01*
X61970Y336362D01*
X61030D01*
X60162Y336003D01*
X59497Y335338D01*
X59138Y334470D01*
Y333530D01*
X59497Y332662D01*
X60162Y331997D01*
X61030Y331638D01*
X61970D01*
X62838Y331997D01*
X63503Y332662D01*
X63516Y332695D01*
X72984D01*
X72997Y332662D01*
X73662Y331997D01*
X74530Y331638D01*
X75470D01*
X76338Y331997D01*
X77003Y332662D01*
X77362Y333530D01*
Y334470D01*
X77003Y335338D01*
X76338Y336003D01*
X75470Y336362D01*
D02*
G37*
G36*
X162885Y351437D02*
X162115D01*
X161402Y351143D01*
X160857Y350597D01*
X160563Y349885D01*
Y349115D01*
X160678Y348837D01*
Y332427D01*
X160573Y332322D01*
X155663D01*
X155385Y332437D01*
X154615D01*
X153902Y332142D01*
X153358Y331597D01*
X153063Y330885D01*
Y330115D01*
X153358Y329403D01*
X153902Y328857D01*
X154615Y328563D01*
X155385D01*
X155663Y328678D01*
X161328D01*
X161328Y328678D01*
X162026Y328816D01*
X162617Y329211D01*
X163789Y330383D01*
X163789Y330383D01*
X164184Y330974D01*
X164322Y331672D01*
Y348837D01*
X164437Y349115D01*
Y349885D01*
X164143Y350597D01*
X163598Y351143D01*
X162885Y351437D01*
D02*
G37*
G36*
X285911Y344250D02*
X284089D01*
X282302Y343895D01*
X280619Y343197D01*
X279103Y342185D01*
X277815Y340897D01*
X276803Y339382D01*
X276105Y337698D01*
X275750Y335911D01*
Y334089D01*
X276105Y332302D01*
X276803Y330619D01*
X277815Y329103D01*
X279103Y327815D01*
X280619Y326803D01*
X282302Y326105D01*
X284089Y325750D01*
X285911D01*
X287698Y326105D01*
X289382Y326803D01*
X290897Y327815D01*
X292185Y329103D01*
X293197Y330619D01*
X293895Y332302D01*
X294250Y334089D01*
Y335911D01*
X293895Y337698D01*
X293197Y339382D01*
X292185Y340897D01*
X290897Y342185D01*
X289382Y343197D01*
X287698Y343895D01*
X285911Y344250D01*
D02*
G37*
G36*
X21496Y328824D02*
X18504D01*
X17613Y328647D01*
X16858Y328142D01*
X16353Y327387D01*
X16176Y326496D01*
Y323504D01*
X16353Y322613D01*
X16858Y321858D01*
X17613Y321353D01*
X18504Y321176D01*
X21496D01*
X22387Y321353D01*
X23142Y321858D01*
X23647Y322613D01*
X23824Y323504D01*
Y326496D01*
X23647Y327387D01*
X23142Y328142D01*
X22387Y328647D01*
X21496Y328824D01*
D02*
G37*
G36*
X300498Y323780D02*
X299502D01*
X298541Y323522D01*
X297679Y323024D01*
X296976Y322321D01*
X296478Y321459D01*
X296220Y320498D01*
Y319502D01*
X296478Y318541D01*
X296976Y317679D01*
X297679Y316976D01*
X298541Y316478D01*
X299502Y316220D01*
X300498D01*
X301459Y316478D01*
X302321Y316976D01*
X303024Y317679D01*
X303522Y318541D01*
X303780Y319502D01*
Y320498D01*
X303522Y321459D01*
X303024Y322321D01*
X302321Y323024D01*
X301459Y323522D01*
X300498Y323780D01*
D02*
G37*
G36*
X99385Y315937D02*
X98615D01*
X97903Y315642D01*
X97573Y315313D01*
X88927D01*
X88598Y315642D01*
X87885Y315937D01*
X87115D01*
X86402Y315642D01*
X85858Y315097D01*
X85563Y314385D01*
Y313615D01*
X85858Y312903D01*
X86402Y312357D01*
X87115Y312063D01*
X87885D01*
X88598Y312357D01*
X88927Y312687D01*
X97573D01*
X97903Y312357D01*
X98615Y312063D01*
X99385D01*
X100098Y312357D01*
X100642Y312903D01*
X100937Y313615D01*
Y314385D01*
X100642Y315097D01*
X100098Y315642D01*
X99385Y315937D01*
D02*
G37*
G36*
X172385Y326937D02*
X171615D01*
X170903Y326642D01*
X170358Y326097D01*
X170063Y325385D01*
Y324615D01*
X170358Y323903D01*
X170687Y323573D01*
Y315427D01*
X170358Y315097D01*
X170063Y314385D01*
Y313615D01*
X170358Y312903D01*
X170903Y312357D01*
X171615Y312063D01*
X172385D01*
X173098Y312357D01*
X173643Y312903D01*
X173937Y313615D01*
Y314385D01*
X173643Y315097D01*
X173313Y315427D01*
Y323573D01*
X173643Y323903D01*
X173937Y324615D01*
Y325385D01*
X173643Y326097D01*
X173098Y326642D01*
X172385Y326937D01*
D02*
G37*
G36*
X20498Y318779D02*
X19502D01*
X18541Y318522D01*
X17679Y318024D01*
X16976Y317321D01*
X16478Y316459D01*
X16220Y315498D01*
Y314502D01*
X16478Y313541D01*
X16976Y312679D01*
X17679Y311976D01*
X18541Y311478D01*
X19502Y311221D01*
X20498D01*
X21459Y311478D01*
X22321Y311976D01*
X23024Y312679D01*
X23522Y313541D01*
X23779Y314502D01*
Y315498D01*
X23522Y316459D01*
X23024Y317321D01*
X22321Y318024D01*
X21459Y318522D01*
X20498Y318779D01*
D02*
G37*
G36*
X300498Y313779D02*
X299502D01*
X298541Y313522D01*
X297679Y313024D01*
X296976Y312321D01*
X296478Y311459D01*
X296220Y310498D01*
Y309502D01*
X296478Y308541D01*
X296976Y307679D01*
X297679Y306976D01*
X298541Y306478D01*
X299502Y306221D01*
X300498D01*
X301459Y306478D01*
X302321Y306976D01*
X303024Y307679D01*
X303522Y308541D01*
X303780Y309502D01*
Y310498D01*
X303522Y311459D01*
X303024Y312321D01*
X302321Y313024D01*
X301459Y313522D01*
X300498Y313779D01*
D02*
G37*
G36*
X20498Y308780D02*
X19502D01*
X18541Y308522D01*
X17679Y308024D01*
X16976Y307321D01*
X16478Y306459D01*
X16220Y305498D01*
Y304502D01*
X16478Y303541D01*
X16976Y302679D01*
X17679Y301976D01*
X18541Y301478D01*
X19502Y301220D01*
X20498D01*
X21459Y301478D01*
X22321Y301976D01*
X23024Y302679D01*
X23522Y303541D01*
X23779Y304502D01*
Y305498D01*
X23522Y306459D01*
X23024Y307321D01*
X22321Y308024D01*
X21459Y308522D01*
X20498Y308780D01*
D02*
G37*
G36*
X300498Y303780D02*
X299502D01*
X298541Y303522D01*
X297679Y303024D01*
X296976Y302321D01*
X296478Y301459D01*
X296220Y300498D01*
Y299502D01*
X296478Y298541D01*
X296976Y297679D01*
X297679Y296976D01*
X298541Y296478D01*
X299502Y296220D01*
X300498D01*
X301459Y296478D01*
X302321Y296976D01*
X303024Y297679D01*
X303522Y298541D01*
X303780Y299502D01*
Y300498D01*
X303522Y301459D01*
X303024Y302321D01*
X302321Y303024D01*
X301459Y303522D01*
X300498Y303780D01*
D02*
G37*
G36*
X20498Y298780D02*
X19502D01*
X18541Y298522D01*
X17679Y298024D01*
X16976Y297321D01*
X16478Y296459D01*
X16220Y295498D01*
Y294502D01*
X16478Y293541D01*
X16976Y292679D01*
X17679Y291976D01*
X18541Y291478D01*
X19502Y291220D01*
X20498D01*
X21459Y291478D01*
X22321Y291976D01*
X23024Y292679D01*
X23522Y293541D01*
X23779Y294502D01*
Y295498D01*
X23522Y296459D01*
X23024Y297321D01*
X22321Y298024D01*
X21459Y298522D01*
X20498Y298780D01*
D02*
G37*
G36*
X300498Y293779D02*
X299502D01*
X298541Y293522D01*
X297679Y293024D01*
X296976Y292321D01*
X296478Y291459D01*
X296220Y290498D01*
Y289502D01*
X296478Y288541D01*
X296976Y287679D01*
X297679Y286976D01*
X298541Y286478D01*
X299502Y286221D01*
X300498D01*
X301459Y286478D01*
X302321Y286976D01*
X303024Y287679D01*
X303522Y288541D01*
X303780Y289502D01*
Y290498D01*
X303522Y291459D01*
X303024Y292321D01*
X302321Y293024D01*
X301459Y293522D01*
X300498Y293779D01*
D02*
G37*
G36*
X20498Y288779D02*
X19502D01*
X18541Y288522D01*
X17679Y288024D01*
X16976Y287321D01*
X16478Y286459D01*
X16220Y285498D01*
Y284502D01*
X16478Y283541D01*
X16976Y282679D01*
X17679Y281976D01*
X18541Y281478D01*
X19502Y281221D01*
X20498D01*
X21459Y281478D01*
X22321Y281976D01*
X23024Y282679D01*
X23522Y283541D01*
X23779Y284502D01*
Y285498D01*
X23522Y286459D01*
X23024Y287321D01*
X22321Y288024D01*
X21459Y288522D01*
X20498Y288779D01*
D02*
G37*
G36*
X300498Y283780D02*
X299502D01*
X298541Y283522D01*
X297679Y283024D01*
X296976Y282321D01*
X296478Y281459D01*
X296220Y280498D01*
Y279502D01*
X296478Y278541D01*
X296976Y277679D01*
X297679Y276976D01*
X298541Y276478D01*
X299502Y276220D01*
X300498D01*
X301459Y276478D01*
X302321Y276976D01*
X303024Y277679D01*
X303522Y278541D01*
X303780Y279502D01*
Y280498D01*
X303522Y281459D01*
X303024Y282321D01*
X302321Y283024D01*
X301459Y283522D01*
X300498Y283780D01*
D02*
G37*
G36*
X141375Y275437D02*
X140604D01*
X139892Y275143D01*
X139562Y274813D01*
X129427D01*
X129097Y275143D01*
X128385Y275437D01*
X127615D01*
X126902Y275143D01*
X126357Y274597D01*
X126063Y273885D01*
Y273115D01*
X126357Y272403D01*
X126902Y271858D01*
X127615Y271563D01*
X128385D01*
X129097Y271858D01*
X129427Y272187D01*
X139562D01*
X139892Y271858D01*
X140604Y271563D01*
X141375D01*
X142087Y271858D01*
X142632Y272403D01*
X142927Y273115D01*
Y273885D01*
X142632Y274597D01*
X142087Y275143D01*
X141375Y275437D01*
D02*
G37*
G36*
X20498Y278780D02*
X19502D01*
X18541Y278522D01*
X17679Y278024D01*
X16976Y277321D01*
X16478Y276459D01*
X16220Y275498D01*
Y274502D01*
X16478Y273541D01*
X16976Y272679D01*
X17679Y271976D01*
X18541Y271478D01*
X19502Y271220D01*
X20498D01*
X21459Y271478D01*
X22321Y271976D01*
X23024Y272679D01*
X23522Y273541D01*
X23779Y274502D01*
Y275498D01*
X23522Y276459D01*
X23024Y277321D01*
X22321Y278024D01*
X21459Y278522D01*
X20498Y278780D01*
D02*
G37*
G36*
X300498Y273780D02*
X299502D01*
X298541Y273522D01*
X297679Y273024D01*
X296976Y272321D01*
X296478Y271459D01*
X296220Y270498D01*
Y269502D01*
X296478Y268541D01*
X296976Y267679D01*
X297679Y266976D01*
X298541Y266478D01*
X299502Y266220D01*
X300498D01*
X301459Y266478D01*
X302321Y266976D01*
X303024Y267679D01*
X303522Y268541D01*
X303780Y269502D01*
Y270498D01*
X303522Y271459D01*
X303024Y272321D01*
X302321Y273024D01*
X301459Y273522D01*
X300498Y273780D01*
D02*
G37*
G36*
X167385Y276937D02*
X166615D01*
X165902Y276642D01*
X165357Y276097D01*
X165063Y275385D01*
Y274615D01*
X165357Y273903D01*
X165800Y273460D01*
Y269997D01*
X158503Y262700D01*
X153530D01*
X153517Y263195D01*
X154229Y263490D01*
X154774Y264035D01*
X155069Y264747D01*
Y265517D01*
X154774Y266230D01*
X154332Y266672D01*
Y268135D01*
X155997Y269800D01*
X160500D01*
X160959Y269892D01*
X161348Y270152D01*
X162848Y271652D01*
X163108Y272041D01*
X163200Y272500D01*
Y273460D01*
X163643Y273903D01*
X163937Y274615D01*
Y275385D01*
X163643Y276097D01*
X163098Y276642D01*
X162385Y276937D01*
X161615D01*
X160903Y276642D01*
X160357Y276097D01*
X160063Y275385D01*
Y274615D01*
X160357Y273903D01*
X160800Y273460D01*
Y272997D01*
X160003Y272200D01*
X155500D01*
X155041Y272108D01*
X154652Y271848D01*
X152284Y269480D01*
X152024Y269091D01*
X151932Y268632D01*
Y266672D01*
X151490Y266230D01*
X151195Y265517D01*
Y264747D01*
X151490Y264035D01*
X152035Y263490D01*
X152747Y263195D01*
X152734Y262700D01*
X151500D01*
X151041Y262608D01*
X150652Y262348D01*
X149424Y261120D01*
X149164Y260731D01*
X149072Y260272D01*
Y260213D01*
X148902Y260142D01*
X148357Y259597D01*
X148063Y258885D01*
Y258115D01*
X148357Y257403D01*
X148902Y256857D01*
X149615Y256563D01*
X150385D01*
X151098Y256857D01*
X151643Y257403D01*
X151937Y258115D01*
Y258885D01*
X151643Y259597D01*
X151472Y259768D01*
Y259775D01*
X151997Y260300D01*
X159000D01*
X159459Y260392D01*
X159848Y260652D01*
X167848Y268652D01*
X168108Y269041D01*
X168200Y269500D01*
Y273460D01*
X168642Y273903D01*
X168937Y274615D01*
Y275385D01*
X168642Y276097D01*
X168097Y276642D01*
X167385Y276937D01*
D02*
G37*
G36*
X20498Y268779D02*
X19502D01*
X18541Y268522D01*
X17679Y268024D01*
X16976Y267321D01*
X16478Y266459D01*
X16220Y265498D01*
Y264502D01*
X16478Y263541D01*
X16976Y262679D01*
X17679Y261976D01*
X18541Y261478D01*
X19502Y261221D01*
X20498D01*
X21459Y261478D01*
X22321Y261976D01*
X23024Y262679D01*
X23522Y263541D01*
X23779Y264502D01*
Y265498D01*
X23522Y266459D01*
X23024Y267321D01*
X22321Y268024D01*
X21459Y268522D01*
X20498Y268779D01*
D02*
G37*
G36*
X300498Y263779D02*
X299502D01*
X298541Y263522D01*
X297679Y263024D01*
X296976Y262321D01*
X296478Y261459D01*
X296220Y260498D01*
Y259502D01*
X296478Y258541D01*
X296976Y257679D01*
X297679Y256976D01*
X298541Y256478D01*
X299502Y256221D01*
X300498D01*
X301459Y256478D01*
X302321Y256976D01*
X303024Y257679D01*
X303522Y258541D01*
X303780Y259502D01*
Y260498D01*
X303522Y261459D01*
X303024Y262321D01*
X302321Y263024D01*
X301459Y263522D01*
X300498Y263779D01*
D02*
G37*
G36*
X121885Y297937D02*
X121115D01*
X120403Y297642D01*
X119858Y297097D01*
X119563Y296385D01*
Y295615D01*
X119858Y294903D01*
X120187Y294573D01*
Y289044D01*
X114956Y283813D01*
X63000D01*
X62498Y283713D01*
X62072Y283428D01*
X58572Y279928D01*
X58287Y279502D01*
X58187Y279000D01*
Y259427D01*
X57858Y259097D01*
X57563Y258385D01*
Y257615D01*
X57858Y256903D01*
X58403Y256358D01*
X59115Y256063D01*
X59885D01*
X60597Y256358D01*
X61142Y256903D01*
X61437Y257615D01*
Y258385D01*
X61142Y259097D01*
X60813Y259427D01*
Y278456D01*
X63544Y281187D01*
X115500D01*
X116002Y281287D01*
X116428Y281572D01*
X122428Y287572D01*
X122713Y287998D01*
X122813Y288500D01*
Y294573D01*
X123143Y294903D01*
X123437Y295615D01*
Y296385D01*
X123143Y297097D01*
X122598Y297642D01*
X121885Y297937D01*
D02*
G37*
G36*
X91385Y296937D02*
X90615D01*
X89903Y296642D01*
X89358Y296097D01*
X89063Y295385D01*
Y294615D01*
X89358Y293903D01*
X89687Y293573D01*
Y290544D01*
X88013Y288870D01*
X59057D01*
X58555Y288770D01*
X58129Y288485D01*
X53072Y283428D01*
X52787Y283002D01*
X52687Y282500D01*
Y259427D01*
X52358Y259097D01*
X52063Y258385D01*
Y257615D01*
X52358Y256903D01*
X52903Y256358D01*
X53615Y256063D01*
X54385D01*
X55098Y256358D01*
X55642Y256903D01*
X55937Y257615D01*
Y258385D01*
X55642Y259097D01*
X55313Y259427D01*
Y281956D01*
X59601Y286245D01*
X88557D01*
X89060Y286345D01*
X89485Y286629D01*
X91928Y289072D01*
X92213Y289498D01*
X92313Y290000D01*
Y293573D01*
X92642Y293903D01*
X92937Y294615D01*
Y295385D01*
X92642Y296097D01*
X92098Y296642D01*
X91385Y296937D01*
D02*
G37*
G36*
X66341Y275937D02*
X65570D01*
X64858Y275642D01*
X64313Y275097D01*
X64018Y274385D01*
Y273615D01*
X64313Y272903D01*
X64643Y272573D01*
Y265809D01*
X64678Y265633D01*
Y257991D01*
X64348Y257661D01*
X64053Y256949D01*
Y256178D01*
X64348Y255466D01*
X64893Y254921D01*
X65605Y254626D01*
X66376D01*
X67088Y254921D01*
X67633Y255466D01*
X67928Y256178D01*
Y256949D01*
X67633Y257661D01*
X67303Y257991D01*
Y265774D01*
X67268Y265950D01*
Y272573D01*
X67598Y272903D01*
X67892Y273615D01*
Y274385D01*
X67598Y275097D01*
X67053Y275642D01*
X66341Y275937D01*
D02*
G37*
G36*
X211385Y285937D02*
X210615D01*
X209903Y285643D01*
X209358Y285097D01*
X209063Y284385D01*
Y283615D01*
X209358Y282903D01*
X209812Y282448D01*
Y257525D01*
X209390Y257104D01*
X209096Y256392D01*
Y255621D01*
X209390Y254909D01*
X209935Y254364D01*
X210648Y254069D01*
X211418D01*
X212130Y254364D01*
X212675Y254909D01*
X212970Y255621D01*
Y256392D01*
X212675Y257104D01*
X212221Y257558D01*
Y282481D01*
X212643Y282903D01*
X212937Y283615D01*
Y284385D01*
X212643Y285097D01*
X212097Y285643D01*
X211385Y285937D01*
D02*
G37*
G36*
X70885Y275937D02*
X70115D01*
X69402Y275642D01*
X68858Y275097D01*
X68563Y274385D01*
Y273615D01*
X68858Y272903D01*
X69300Y272460D01*
Y257540D01*
X68858Y257097D01*
X68563Y256385D01*
Y255615D01*
X68858Y254903D01*
X69402Y254358D01*
X70115Y254063D01*
X70885D01*
X71597Y254358D01*
X72142Y254903D01*
X72437Y255615D01*
Y256385D01*
X72142Y257097D01*
X71700Y257540D01*
Y272460D01*
X72142Y272903D01*
X72437Y273615D01*
Y274385D01*
X72142Y275097D01*
X71597Y275642D01*
X70885Y275937D01*
D02*
G37*
G36*
X20498Y258780D02*
X19502D01*
X18541Y258522D01*
X17679Y258024D01*
X16976Y257321D01*
X16478Y256459D01*
X16220Y255498D01*
Y254502D01*
X16478Y253541D01*
X16976Y252679D01*
X17679Y251976D01*
X18541Y251478D01*
X19502Y251220D01*
X20498D01*
X21459Y251478D01*
X22321Y251976D01*
X23024Y252679D01*
X23522Y253541D01*
X23779Y254502D01*
Y255498D01*
X23522Y256459D01*
X23024Y257321D01*
X22321Y258024D01*
X21459Y258522D01*
X20498Y258780D01*
D02*
G37*
G36*
X300498Y253780D02*
X299502D01*
X298541Y253522D01*
X297679Y253024D01*
X296976Y252321D01*
X296478Y251459D01*
X296220Y250498D01*
Y249502D01*
X296478Y248541D01*
X296976Y247679D01*
X297679Y246976D01*
X298541Y246478D01*
X299502Y246220D01*
X300498D01*
X301459Y246478D01*
X302321Y246976D01*
X303024Y247679D01*
X303522Y248541D01*
X303780Y249502D01*
Y250498D01*
X303522Y251459D01*
X303024Y252321D01*
X302321Y253024D01*
X301459Y253522D01*
X300498Y253780D01*
D02*
G37*
G36*
X20498Y248780D02*
X19502D01*
X18541Y248522D01*
X17679Y248024D01*
X16976Y247321D01*
X16478Y246459D01*
X16220Y245498D01*
Y244502D01*
X16478Y243541D01*
X16976Y242679D01*
X17679Y241976D01*
X18541Y241478D01*
X19502Y241220D01*
X20498D01*
X21459Y241478D01*
X22321Y241976D01*
X23024Y242679D01*
X23522Y243541D01*
X23779Y244502D01*
Y245498D01*
X23522Y246459D01*
X23024Y247321D01*
X22321Y248024D01*
X21459Y248522D01*
X20498Y248780D01*
D02*
G37*
G36*
X135396Y254448D02*
X134625D01*
X133913Y254153D01*
X133368Y253608D01*
X133073Y252895D01*
Y252125D01*
X133368Y251413D01*
X133800Y250980D01*
Y249500D01*
X133892Y249041D01*
X134152Y248652D01*
X136652Y246152D01*
X137041Y245892D01*
X137500Y245800D01*
X158417D01*
X163520Y240698D01*
Y240072D01*
X163815Y239360D01*
X164360Y238815D01*
X165072Y238520D01*
X165842D01*
X166555Y238815D01*
X167100Y239360D01*
X167394Y240072D01*
Y240843D01*
X167100Y241555D01*
X166555Y242100D01*
X165842Y242394D01*
X165216D01*
X159763Y247848D01*
X159373Y248108D01*
X158914Y248200D01*
X137997D01*
X136200Y249997D01*
Y250960D01*
X136653Y251413D01*
X136948Y252125D01*
Y252895D01*
X136653Y253608D01*
X136108Y254153D01*
X135396Y254448D01*
D02*
G37*
G36*
X300498Y243779D02*
X299502D01*
X298541Y243522D01*
X297679Y243024D01*
X296976Y242321D01*
X296478Y241459D01*
X296220Y240498D01*
Y239502D01*
X296478Y238541D01*
X296976Y237679D01*
X297679Y236976D01*
X298541Y236478D01*
X299502Y236221D01*
X300498D01*
X301459Y236478D01*
X302321Y236976D01*
X303024Y237679D01*
X303522Y238541D01*
X303780Y239502D01*
Y240498D01*
X303522Y241459D01*
X303024Y242321D01*
X302321Y243024D01*
X301459Y243522D01*
X300498Y243779D01*
D02*
G37*
G36*
X219385Y233512D02*
X218615D01*
X217903Y233217D01*
X217565Y232879D01*
X210361D01*
X210097Y233142D01*
X209385Y233437D01*
X208615D01*
X207903Y233142D01*
X207358Y232597D01*
X207063Y231885D01*
Y231115D01*
X207358Y230403D01*
X207903Y229857D01*
X208615Y229563D01*
X209385D01*
X210097Y229857D01*
X210510Y230270D01*
X217565D01*
X217903Y229932D01*
X218615Y229637D01*
X219385D01*
X220097Y229932D01*
X220642Y230477D01*
X220937Y231189D01*
Y231960D01*
X220642Y232672D01*
X220097Y233217D01*
X219385Y233512D01*
D02*
G37*
G36*
X20498Y238779D02*
X19502D01*
X18541Y238522D01*
X17679Y238024D01*
X16976Y237321D01*
X16478Y236459D01*
X16220Y235498D01*
Y234502D01*
X16478Y233541D01*
X16976Y232679D01*
X17679Y231976D01*
X18541Y231478D01*
X19502Y231221D01*
X20498D01*
X21459Y231478D01*
X22321Y231976D01*
X23024Y232679D01*
X23522Y233541D01*
X23779Y234502D01*
Y235498D01*
X23522Y236459D01*
X23024Y237321D01*
X22321Y238024D01*
X21459Y238522D01*
X20498Y238779D01*
D02*
G37*
G36*
X300498Y233780D02*
X299502D01*
X298541Y233522D01*
X297679Y233024D01*
X296976Y232321D01*
X296478Y231459D01*
X296220Y230498D01*
Y229502D01*
X296478Y228541D01*
X296976Y227679D01*
X297679Y226976D01*
X298541Y226478D01*
X299502Y226220D01*
X300498D01*
X301459Y226478D01*
X302321Y226976D01*
X303024Y227679D01*
X303522Y228541D01*
X303780Y229502D01*
Y230498D01*
X303522Y231459D01*
X303024Y232321D01*
X302321Y233024D01*
X301459Y233522D01*
X300498Y233780D01*
D02*
G37*
G36*
X20498Y228780D02*
X19502D01*
X18541Y228522D01*
X17679Y228024D01*
X16976Y227321D01*
X16478Y226459D01*
X16220Y225498D01*
Y224502D01*
X16478Y223541D01*
X16976Y222679D01*
X17679Y221976D01*
X18541Y221478D01*
X19502Y221220D01*
X20498D01*
X21459Y221478D01*
X22321Y221976D01*
X23024Y222679D01*
X23522Y223541D01*
X23779Y224502D01*
Y225498D01*
X23522Y226459D01*
X23024Y227321D01*
X22321Y228024D01*
X21459Y228522D01*
X20498Y228780D01*
D02*
G37*
G36*
X300498Y223780D02*
X299502D01*
X298541Y223522D01*
X297679Y223024D01*
X296976Y222321D01*
X296478Y221459D01*
X296220Y220498D01*
Y219502D01*
X296478Y218541D01*
X296976Y217679D01*
X297679Y216976D01*
X298541Y216478D01*
X299502Y216220D01*
X300498D01*
X301459Y216478D01*
X302321Y216976D01*
X303024Y217679D01*
X303522Y218541D01*
X303780Y219502D01*
Y220498D01*
X303522Y221459D01*
X303024Y222321D01*
X302321Y223024D01*
X301459Y223522D01*
X300498Y223780D01*
D02*
G37*
G36*
X20498Y218779D02*
X19502D01*
X18541Y218522D01*
X17679Y218024D01*
X16976Y217321D01*
X16478Y216459D01*
X16220Y215498D01*
Y214502D01*
X16478Y213541D01*
X16976Y212679D01*
X17679Y211976D01*
X18541Y211478D01*
X19502Y211221D01*
X20498D01*
X21459Y211478D01*
X22321Y211976D01*
X23024Y212679D01*
X23522Y213541D01*
X23779Y214502D01*
Y215498D01*
X23522Y216459D01*
X23024Y217321D01*
X22321Y218024D01*
X21459Y218522D01*
X20498Y218779D01*
D02*
G37*
G36*
X300498Y213779D02*
X299502D01*
X298541Y213522D01*
X297679Y213024D01*
X296976Y212321D01*
X296478Y211459D01*
X296220Y210498D01*
Y209502D01*
X296478Y208541D01*
X296976Y207679D01*
X297679Y206976D01*
X298541Y206478D01*
X299502Y206221D01*
X300498D01*
X301459Y206478D01*
X302321Y206976D01*
X303024Y207679D01*
X303522Y208541D01*
X303780Y209502D01*
Y210498D01*
X303522Y211459D01*
X303024Y212321D01*
X302321Y213024D01*
X301459Y213522D01*
X300498Y213779D01*
D02*
G37*
G36*
X20498Y208780D02*
X19502D01*
X18541Y208522D01*
X17679Y208024D01*
X16976Y207321D01*
X16478Y206459D01*
X16220Y205498D01*
Y204502D01*
X16478Y203541D01*
X16976Y202679D01*
X17679Y201976D01*
X18541Y201478D01*
X19502Y201220D01*
X20498D01*
X21459Y201478D01*
X22321Y201976D01*
X23024Y202679D01*
X23522Y203541D01*
X23779Y204502D01*
Y205498D01*
X23522Y206459D01*
X23024Y207321D01*
X22321Y208024D01*
X21459Y208522D01*
X20498Y208780D01*
D02*
G37*
G36*
X300498Y203780D02*
X299502D01*
X298541Y203522D01*
X297679Y203024D01*
X296976Y202321D01*
X296478Y201459D01*
X296220Y200498D01*
Y199502D01*
X296478Y198541D01*
X296976Y197679D01*
X297679Y196976D01*
X298541Y196478D01*
X299502Y196221D01*
X300498D01*
X301459Y196478D01*
X302321Y196976D01*
X303024Y197679D01*
X303522Y198541D01*
X303780Y199502D01*
Y200498D01*
X303522Y201459D01*
X303024Y202321D01*
X302321Y203024D01*
X301459Y203522D01*
X300498Y203780D01*
D02*
G37*
G36*
X128646Y194077D02*
X127875D01*
X127163Y193782D01*
X126651Y193269D01*
X112471D01*
X112098Y193642D01*
X111385Y193937D01*
X110615D01*
X109903Y193642D01*
X109358Y193097D01*
X109063Y192385D01*
Y191615D01*
X109358Y190902D01*
X109903Y190357D01*
X110615Y190063D01*
X111385D01*
X112098Y190357D01*
X112610Y190870D01*
X126790D01*
X127163Y190497D01*
X127875Y190202D01*
X128646D01*
X129358Y190497D01*
X129903Y191042D01*
X130198Y191754D01*
Y192525D01*
X129903Y193237D01*
X129358Y193782D01*
X128646Y194077D01*
D02*
G37*
G36*
X20498Y198779D02*
X19502D01*
X18541Y198522D01*
X17679Y198024D01*
X16976Y197321D01*
X16478Y196459D01*
X16220Y195498D01*
Y194502D01*
X16478Y193541D01*
X16976Y192679D01*
X17679Y191976D01*
X18541Y191478D01*
X19502Y191220D01*
X20498D01*
X21459Y191478D01*
X22321Y191976D01*
X23024Y192679D01*
X23522Y193541D01*
X23779Y194502D01*
Y195498D01*
X23522Y196459D01*
X23024Y197321D01*
X22321Y198024D01*
X21459Y198522D01*
X20498Y198779D01*
D02*
G37*
G36*
X300498Y193780D02*
X299502D01*
X298541Y193522D01*
X297679Y193024D01*
X296976Y192321D01*
X296478Y191459D01*
X296220Y190498D01*
Y189502D01*
X296478Y188541D01*
X296976Y187679D01*
X297679Y186976D01*
X298541Y186478D01*
X299502Y186221D01*
X300498D01*
X301459Y186478D01*
X302321Y186976D01*
X303024Y187679D01*
X303522Y188541D01*
X303780Y189502D01*
Y190498D01*
X303522Y191459D01*
X303024Y192321D01*
X302321Y193024D01*
X301459Y193522D01*
X300498Y193780D01*
D02*
G37*
G36*
X177185Y245537D02*
X176415D01*
X175703Y245243D01*
X175157Y244697D01*
X174863Y243985D01*
Y243215D01*
X175157Y242503D01*
X175703Y241957D01*
X176415Y241663D01*
X177185D01*
X177898Y241957D01*
X178443Y242503D01*
X178519Y242687D01*
X191456D01*
X198436Y235708D01*
Y205938D01*
X198208Y205710D01*
X195511D01*
X195457Y205700D01*
X194500D01*
X194041Y205608D01*
X193652Y205348D01*
X192152Y203848D01*
X191892Y203459D01*
X191800Y203000D01*
Y186497D01*
X189503Y184200D01*
X176540D01*
X176098Y184643D01*
X175385Y184937D01*
X174615D01*
X173902Y184643D01*
X173751Y184491D01*
X173206D01*
X172700Y184997D01*
Y191500D01*
X172608Y191959D01*
X172348Y192348D01*
X157348Y207348D01*
X156959Y207608D01*
X156500Y207700D01*
X134040D01*
X133598Y208142D01*
X132885Y208437D01*
X132115D01*
X131403Y208142D01*
X130858Y207597D01*
X130563Y206885D01*
Y206115D01*
X130858Y205403D01*
X131403Y204857D01*
X132115Y204563D01*
X132885D01*
X133598Y204857D01*
X134040Y205300D01*
X156003D01*
X170300Y191003D01*
Y184500D01*
X170392Y184041D01*
X170652Y183652D01*
X171861Y182443D01*
X172250Y182183D01*
X172709Y182091D01*
X173279D01*
X173357Y181903D01*
X173902Y181358D01*
X174615Y181063D01*
X175385D01*
X176098Y181358D01*
X176540Y181800D01*
X190000D01*
X190459Y181892D01*
X190848Y182152D01*
X193848Y185152D01*
X194108Y185541D01*
X194200Y186000D01*
Y202503D01*
X194997Y203300D01*
X195500D01*
X195554Y203311D01*
X198208D01*
X198651Y202868D01*
X199363Y202573D01*
X200134D01*
X200846Y202868D01*
X201198Y203220D01*
X228099D01*
X228563Y202756D01*
Y202615D01*
X228857Y201903D01*
X229403Y201358D01*
X230115Y201063D01*
X230885D01*
X231597Y201358D01*
X232142Y201903D01*
X232437Y202615D01*
Y203385D01*
X232142Y204098D01*
X231597Y204643D01*
X230885Y204937D01*
X230115D01*
X230100Y204931D01*
X229571Y205461D01*
X229145Y205745D01*
X228643Y205845D01*
X201154D01*
X201061Y205938D01*
Y236251D01*
X200961Y236754D01*
X200677Y237180D01*
X192928Y244928D01*
X192502Y245213D01*
X192000Y245313D01*
X177728D01*
X177185Y245537D01*
D02*
G37*
G36*
X148385Y184437D02*
X147615D01*
X146903Y184142D01*
X146573Y183813D01*
X137427D01*
X137098Y184142D01*
X136385Y184437D01*
X135615D01*
X134903Y184142D01*
X134358Y183598D01*
X134063Y182885D01*
Y182115D01*
X134358Y181403D01*
X134903Y180858D01*
X135615Y180563D01*
X136385D01*
X137098Y180858D01*
X137427Y181187D01*
X146573D01*
X146903Y180858D01*
X147615Y180563D01*
X148385D01*
X149098Y180858D01*
X149643Y181403D01*
X149937Y182115D01*
Y182885D01*
X149643Y183598D01*
X149098Y184142D01*
X148385Y184437D01*
D02*
G37*
G36*
X72885Y197437D02*
X72115D01*
X71403Y197143D01*
X70858Y196598D01*
X70563Y195885D01*
Y195115D01*
X70858Y194403D01*
X71300Y193960D01*
Y186911D01*
X71214Y186782D01*
X71133Y186373D01*
X70858Y186098D01*
X70563Y185385D01*
Y184615D01*
X70858Y183903D01*
X71403Y183358D01*
X72115Y183063D01*
X72885D01*
X73598Y183358D01*
X74142Y183903D01*
X74437Y184615D01*
Y185385D01*
X74142Y186098D01*
X73700Y186540D01*
Y193960D01*
X74142Y194403D01*
X74437Y195115D01*
Y195885D01*
X74142Y196598D01*
X73598Y197143D01*
X72885Y197437D01*
D02*
G37*
G36*
X20498Y188779D02*
X19502D01*
X18541Y188522D01*
X17679Y188024D01*
X16976Y187321D01*
X16478Y186459D01*
X16220Y185498D01*
Y184502D01*
X16478Y183541D01*
X16976Y182679D01*
X17679Y181976D01*
X18541Y181478D01*
X19502Y181220D01*
X20498D01*
X21459Y181478D01*
X22321Y181976D01*
X23024Y182679D01*
X23522Y183541D01*
X23779Y184502D01*
Y185498D01*
X23522Y186459D01*
X23024Y187321D01*
X22321Y188024D01*
X21459Y188522D01*
X20498Y188779D01*
D02*
G37*
G36*
X101444Y189150D02*
X99956D01*
X98519Y188765D01*
X97231Y188021D01*
X96179Y186969D01*
X95435Y185681D01*
X95050Y184244D01*
Y182756D01*
X95435Y181319D01*
X96179Y180031D01*
X97231Y178979D01*
X98519Y178235D01*
X99956Y177850D01*
X101444D01*
X102881Y178235D01*
X104169Y178979D01*
X105221Y180031D01*
X105965Y181319D01*
X106350Y182756D01*
Y184244D01*
X105965Y185681D01*
X105221Y186969D01*
X104169Y188021D01*
X102881Y188765D01*
X101444Y189150D01*
D02*
G37*
G36*
X88944D02*
X87456D01*
X86019Y188765D01*
X84731Y188021D01*
X83679Y186969D01*
X82935Y185681D01*
X82550Y184244D01*
Y182756D01*
X82935Y181319D01*
X83679Y180031D01*
X84731Y178979D01*
X86019Y178235D01*
X87456Y177850D01*
X88944D01*
X90381Y178235D01*
X91669Y178979D01*
X92721Y180031D01*
X93465Y181319D01*
X93850Y182756D01*
Y184244D01*
X93465Y185681D01*
X92721Y186969D01*
X91669Y188021D01*
X90381Y188765D01*
X88944Y189150D01*
D02*
G37*
G36*
X300498Y183780D02*
X299502D01*
X298541Y183522D01*
X297679Y183024D01*
X296976Y182321D01*
X296478Y181459D01*
X296220Y180498D01*
Y179502D01*
X296478Y178541D01*
X296976Y177679D01*
X297679Y176976D01*
X298541Y176478D01*
X299502Y176221D01*
X300498D01*
X301459Y176478D01*
X302321Y176976D01*
X303024Y177679D01*
X303522Y178541D01*
X303780Y179502D01*
Y180498D01*
X303522Y181459D01*
X303024Y182321D01*
X302321Y183024D01*
X301459Y183522D01*
X300498Y183780D01*
D02*
G37*
G36*
X108562Y180250D02*
X107838D01*
X107139Y180063D01*
X106511Y179701D01*
X106000Y179189D01*
X105637Y178561D01*
X105450Y177862D01*
Y177138D01*
X105637Y176438D01*
X106000Y175812D01*
X106511Y175300D01*
X107139Y174937D01*
X107838Y174750D01*
X108562D01*
X109262Y174937D01*
X109889Y175300D01*
X110400Y175812D01*
X110763Y176438D01*
X110950Y177138D01*
Y177862D01*
X110763Y178561D01*
X110400Y179189D01*
X109889Y179701D01*
X109262Y180063D01*
X108562Y180250D01*
D02*
G37*
G36*
X88562Y176250D02*
X87838D01*
X87138Y176063D01*
X86511Y175700D01*
X86000Y175189D01*
X85637Y174562D01*
X85450Y173862D01*
Y173138D01*
X85637Y172439D01*
X86000Y171811D01*
X86511Y171300D01*
X87138Y170937D01*
X87838Y170750D01*
X88562D01*
X89262Y170937D01*
X89889Y171300D01*
X90400Y171811D01*
X90763Y172439D01*
X90950Y173138D01*
Y173862D01*
X90763Y174562D01*
X90400Y175189D01*
X89889Y175700D01*
X89262Y176063D01*
X88562Y176250D01*
D02*
G37*
G36*
X120735Y174787D02*
X119965D01*
X119253Y174493D01*
X118708Y173948D01*
X118413Y173235D01*
Y172465D01*
X118708Y171753D01*
X119253Y171207D01*
X119965Y170913D01*
X120735D01*
X121448Y171207D01*
X121715Y171475D01*
X126827D01*
X126857Y171403D01*
X127402Y170858D01*
X128115Y170563D01*
X128885D01*
X129597Y170858D01*
X130142Y171403D01*
X130437Y172115D01*
Y172885D01*
X130142Y173598D01*
X129597Y174143D01*
X128885Y174437D01*
X128115D01*
X127402Y174143D01*
X127135Y173875D01*
X122023D01*
X121993Y173948D01*
X121448Y174493D01*
X120735Y174787D01*
D02*
G37*
G36*
X108562Y172250D02*
X107838D01*
X107139Y172063D01*
X106511Y171701D01*
X106000Y171188D01*
X105637Y170562D01*
X105450Y169862D01*
Y169138D01*
X105637Y168438D01*
X106000Y167812D01*
X106511Y167299D01*
X107139Y166937D01*
X107838Y166750D01*
X108562D01*
X109262Y166937D01*
X109889Y167299D01*
X110400Y167812D01*
X110763Y168438D01*
X110950Y169138D01*
Y169862D01*
X110763Y170562D01*
X110400Y171188D01*
X109889Y171701D01*
X109262Y172063D01*
X108562Y172250D01*
D02*
G37*
G36*
X301496Y173824D02*
X298504D01*
X297613Y173647D01*
X296858Y173142D01*
X296353Y172387D01*
X296176Y171496D01*
Y168504D01*
X296353Y167613D01*
X296858Y166858D01*
X297613Y166353D01*
X298504Y166176D01*
X301496D01*
X302387Y166353D01*
X303142Y166858D01*
X303647Y167613D01*
X303824Y168504D01*
Y171496D01*
X303647Y172387D01*
X303142Y173142D01*
X302387Y173647D01*
X301496Y173824D01*
D02*
G37*
G36*
X101444Y169150D02*
X99956D01*
X98519Y168765D01*
X97231Y168021D01*
X96179Y166969D01*
X95435Y165681D01*
X95050Y164244D01*
Y162756D01*
X95435Y161319D01*
X96179Y160031D01*
X97231Y158979D01*
X98519Y158235D01*
X99956Y157850D01*
X101444D01*
X102881Y158235D01*
X104169Y158979D01*
X105221Y160031D01*
X105965Y161319D01*
X106350Y162756D01*
Y164244D01*
X105965Y165681D01*
X105221Y166969D01*
X104169Y168021D01*
X102881Y168765D01*
X101444Y169150D01*
D02*
G37*
G36*
X88944D02*
X87456D01*
X86019Y168765D01*
X84731Y168021D01*
X83679Y166969D01*
X82935Y165681D01*
X82550Y164244D01*
Y162756D01*
X82935Y161319D01*
X83679Y160031D01*
X84731Y158979D01*
X86019Y158235D01*
X87456Y157850D01*
X88944D01*
X90381Y158235D01*
X91669Y158979D01*
X92721Y160031D01*
X93465Y161319D01*
X93850Y162756D01*
Y164244D01*
X93465Y165681D01*
X92721Y166969D01*
X91669Y168021D01*
X90381Y168765D01*
X88944Y169150D01*
D02*
G37*
G36*
X21496Y139824D02*
X18504D01*
X17613Y139647D01*
X16858Y139142D01*
X16353Y138387D01*
X16176Y137496D01*
Y134504D01*
X16353Y133613D01*
X16858Y132858D01*
X17613Y132353D01*
X18504Y132176D01*
X21496D01*
X22387Y132353D01*
X23142Y132858D01*
X23647Y133613D01*
X23824Y134504D01*
Y137496D01*
X23647Y138387D01*
X23142Y139142D01*
X22387Y139647D01*
X21496Y139824D01*
D02*
G37*
G36*
X20498Y129780D02*
X19502D01*
X18541Y129522D01*
X17679Y129024D01*
X16976Y128321D01*
X16478Y127459D01*
X16220Y126498D01*
Y125502D01*
X16478Y124541D01*
X16976Y123679D01*
X17679Y122976D01*
X18541Y122478D01*
X19502Y122221D01*
X20498D01*
X21459Y122478D01*
X22321Y122976D01*
X23024Y123679D01*
X23522Y124541D01*
X23779Y125502D01*
Y126498D01*
X23522Y127459D01*
X23024Y128321D01*
X22321Y129024D01*
X21459Y129522D01*
X20498Y129780D01*
D02*
G37*
G36*
X73385Y156437D02*
X72615D01*
X71903Y156142D01*
X71358Y155597D01*
X71063Y154885D01*
Y154115D01*
X71358Y153402D01*
X71687Y153073D01*
Y120427D01*
X71358Y120097D01*
X71063Y119385D01*
Y118615D01*
X71358Y117903D01*
X71903Y117358D01*
X72615Y117063D01*
X73385D01*
X74098Y117358D01*
X74642Y117903D01*
X74937Y118615D01*
Y119385D01*
X74642Y120097D01*
X74313Y120427D01*
Y153073D01*
X74642Y153402D01*
X74937Y154115D01*
Y154885D01*
X74642Y155597D01*
X74098Y156142D01*
X73385Y156437D01*
D02*
G37*
G36*
X67885Y155937D02*
X67115D01*
X66403Y155642D01*
X65858Y155097D01*
X65563Y154385D01*
Y153615D01*
X65858Y152902D01*
X66187Y152573D01*
Y120427D01*
X65858Y120097D01*
X65563Y119385D01*
Y118615D01*
X65858Y117903D01*
X66403Y117358D01*
X67115Y117063D01*
X67885D01*
X68598Y117358D01*
X69142Y117903D01*
X69437Y118615D01*
Y119385D01*
X69142Y120097D01*
X68813Y120427D01*
Y152573D01*
X69142Y152902D01*
X69437Y153615D01*
Y154385D01*
X69142Y155097D01*
X68598Y155642D01*
X67885Y155937D01*
D02*
G37*
G36*
X20498Y119780D02*
X19502D01*
X18541Y119522D01*
X17679Y119024D01*
X16976Y118321D01*
X16478Y117459D01*
X16220Y116498D01*
Y115502D01*
X16478Y114541D01*
X16976Y113679D01*
X17679Y112976D01*
X18541Y112478D01*
X19502Y112221D01*
X20498D01*
X21459Y112478D01*
X22321Y112976D01*
X23024Y113679D01*
X23522Y114541D01*
X23779Y115502D01*
Y116498D01*
X23522Y117459D01*
X23024Y118321D01*
X22321Y119024D01*
X21459Y119522D01*
X20498Y119780D01*
D02*
G37*
G36*
Y109780D02*
X19502D01*
X18541Y109522D01*
X17679Y109024D01*
X16976Y108321D01*
X16478Y107459D01*
X16220Y106498D01*
Y105502D01*
X16478Y104541D01*
X16976Y103679D01*
X17679Y102976D01*
X18541Y102478D01*
X19502Y102220D01*
X20498D01*
X21459Y102478D01*
X22321Y102976D01*
X23024Y103679D01*
X23522Y104541D01*
X23779Y105502D01*
Y106498D01*
X23522Y107459D01*
X23024Y108321D01*
X22321Y109024D01*
X21459Y109522D01*
X20498Y109780D01*
D02*
G37*
G36*
X155748Y110567D02*
X154284D01*
X152870Y110188D01*
X151602Y109456D01*
X150567Y108421D01*
X149836Y107154D01*
X149457Y105740D01*
Y104276D01*
X149836Y102862D01*
X150567Y101594D01*
X151602Y100559D01*
X152870Y99828D01*
X154284Y99449D01*
X155748D01*
X157161Y99828D01*
X158429Y100559D01*
X159464Y101594D01*
X160196Y102862D01*
X160575Y104276D01*
Y105740D01*
X160196Y107154D01*
X159464Y108421D01*
X158429Y109456D01*
X157161Y110188D01*
X155748Y110567D01*
D02*
G37*
G36*
X136732D02*
X135268D01*
X133854Y110188D01*
X132587Y109456D01*
X131552Y108421D01*
X130820Y107154D01*
X130441Y105740D01*
Y104276D01*
X130820Y102862D01*
X131552Y101594D01*
X132587Y100559D01*
X133854Y99828D01*
X135268Y99449D01*
X136732D01*
X138146Y99828D01*
X139413Y100559D01*
X140448Y101594D01*
X141180Y102862D01*
X141559Y104276D01*
Y105740D01*
X141180Y107154D01*
X140448Y108421D01*
X139413Y109456D01*
X138146Y110188D01*
X136732Y110567D01*
D02*
G37*
G36*
X20498Y99779D02*
X19502D01*
X18541Y99522D01*
X17679Y99024D01*
X16976Y98321D01*
X16478Y97459D01*
X16220Y96498D01*
Y95502D01*
X16478Y94541D01*
X16976Y93679D01*
X17679Y92976D01*
X18541Y92478D01*
X19502Y92220D01*
X20498D01*
X21459Y92478D01*
X22321Y92976D01*
X23024Y93679D01*
X23522Y94541D01*
X23779Y95502D01*
Y96498D01*
X23522Y97459D01*
X23024Y98321D01*
X22321Y99024D01*
X21459Y99522D01*
X20498Y99779D01*
D02*
G37*
G36*
X84933Y109287D02*
X84067D01*
X83231Y109063D01*
X82481Y108631D01*
X81869Y108019D01*
X81437Y107269D01*
X81213Y106433D01*
Y105567D01*
X81437Y104731D01*
X81869Y103981D01*
X82481Y103369D01*
X82678Y103256D01*
Y93744D01*
X82481Y93631D01*
X81869Y93019D01*
X81437Y92269D01*
X81213Y91433D01*
Y90567D01*
X81437Y89731D01*
X81869Y88981D01*
X82481Y88369D01*
X83231Y87937D01*
X84067Y87713D01*
X84933D01*
X85769Y87937D01*
X86519Y88369D01*
X87131Y88981D01*
X87563Y89731D01*
X87787Y90567D01*
Y91433D01*
X87563Y92269D01*
X87131Y93019D01*
X86519Y93631D01*
X86322Y93744D01*
Y103256D01*
X86519Y103369D01*
X87131Y103981D01*
X87563Y104731D01*
X87787Y105567D01*
Y106433D01*
X87563Y107269D01*
X87131Y108019D01*
X86519Y108631D01*
X85769Y109063D01*
X84933Y109287D01*
D02*
G37*
G36*
X270033Y86887D02*
X269167D01*
X268331Y86663D01*
X267582Y86231D01*
X266969Y85619D01*
X266798Y85322D01*
X263363D01*
X263363Y85322D01*
X262666Y85184D01*
X262075Y84789D01*
X262074Y84789D01*
X261608Y84322D01*
X259440D01*
X258882Y84881D01*
X258132Y85314D01*
X257296Y85538D01*
X256430D01*
X255594Y85314D01*
X254845Y84881D01*
X254233Y84269D01*
X253800Y83520D01*
X253576Y82683D01*
Y81818D01*
X253800Y80982D01*
X254233Y80232D01*
X254845Y79620D01*
X255594Y79187D01*
X256430Y78963D01*
X257296D01*
X258132Y79187D01*
X258882Y79620D01*
X259494Y80232D01*
X259751Y80678D01*
X262363D01*
X262363Y80677D01*
X263061Y80816D01*
X263652Y81211D01*
X264118Y81678D01*
X266914D01*
X266969Y81581D01*
X267582Y80969D01*
X268331Y80537D01*
X269167Y80313D01*
X269714D01*
X269813Y79813D01*
X269403Y79642D01*
X268858Y79097D01*
X268563Y78385D01*
Y77615D01*
X268858Y76903D01*
X269403Y76358D01*
X270115Y76063D01*
X270734D01*
X271559Y75238D01*
X271562Y75222D01*
X271823Y74831D01*
X273175Y73479D01*
Y72988D01*
X273489Y72228D01*
X273992Y71726D01*
X273489Y71224D01*
X273175Y70464D01*
Y69642D01*
X273489Y68882D01*
X273992Y68379D01*
X273489Y67877D01*
X273175Y67117D01*
Y66295D01*
X273489Y65535D01*
X274071Y64954D01*
X274831Y64639D01*
X275653D01*
X276413Y64954D01*
X276994Y65535D01*
X277309Y66295D01*
Y67117D01*
X276994Y67877D01*
X276492Y68379D01*
X276994Y68882D01*
X277309Y69642D01*
Y70464D01*
X276994Y71224D01*
X276492Y71726D01*
X276994Y72228D01*
X277140Y72581D01*
X277158Y72585D01*
X277549Y72846D01*
X278028Y73325D01*
X278490Y73133D01*
Y72988D01*
X278804Y72228D01*
X279307Y71726D01*
X278804Y71224D01*
X278490Y70464D01*
Y69642D01*
X278804Y68882D01*
X279307Y68379D01*
X278804Y67877D01*
X278490Y67117D01*
Y66295D01*
X278804Y65535D01*
X279386Y64954D01*
X280146Y64639D01*
X280968D01*
X281728Y64954D01*
X282309Y65535D01*
X282624Y66295D01*
Y67117D01*
X282309Y67877D01*
X281806Y68379D01*
X282309Y68882D01*
X282624Y69642D01*
Y70464D01*
X282309Y71224D01*
X281806Y71726D01*
X282309Y72228D01*
X282624Y72988D01*
Y73810D01*
X282309Y74570D01*
X281806Y75072D01*
X282309Y75575D01*
X282624Y76335D01*
Y77157D01*
X282309Y77917D01*
X281806Y78419D01*
X282179Y78791D01*
X286669D01*
X287003Y78458D01*
X287715Y78163D01*
X288485D01*
X289197Y78458D01*
X289742Y79002D01*
X290037Y79715D01*
Y80485D01*
X289742Y81198D01*
X289197Y81742D01*
X288485Y82037D01*
X287715D01*
X287003Y81742D01*
X286661Y81401D01*
X282171D01*
X281806Y81765D01*
X282309Y82268D01*
X282624Y83027D01*
Y83850D01*
X282309Y84609D01*
X281728Y85191D01*
X280968Y85505D01*
X280146D01*
X279386Y85191D01*
X278804Y84609D01*
X278490Y83850D01*
Y83027D01*
X278804Y82268D01*
X279307Y81765D01*
X278804Y81263D01*
X278490Y80503D01*
Y79681D01*
X278804Y78921D01*
X279307Y78419D01*
X278804Y77917D01*
X278515Y77218D01*
X277809Y76512D01*
X277309Y76719D01*
Y77157D01*
X276994Y77917D01*
X276492Y78419D01*
X276994Y78921D01*
X277309Y79681D01*
Y80503D01*
X276994Y81263D01*
X276492Y81765D01*
X276994Y82268D01*
X277309Y83027D01*
Y83850D01*
X276994Y84609D01*
X276413Y85191D01*
X275653Y85505D01*
X274831D01*
X274071Y85191D01*
X273489Y84609D01*
X273344Y84259D01*
X272817Y84294D01*
X272663Y84869D01*
X272231Y85619D01*
X271619Y86231D01*
X270869Y86663D01*
X270033Y86887D01*
D02*
G37*
G36*
X20498Y89780D02*
X19502D01*
X18541Y89522D01*
X17679Y89024D01*
X16976Y88321D01*
X16478Y87459D01*
X16220Y86498D01*
Y85502D01*
X16478Y84541D01*
X16976Y83679D01*
X17679Y82976D01*
X18541Y82478D01*
X19502Y82221D01*
X20498D01*
X21459Y82478D01*
X22321Y82976D01*
X23024Y83679D01*
X23522Y84541D01*
X23779Y85502D01*
Y86498D01*
X23522Y87459D01*
X23024Y88321D01*
X22321Y89024D01*
X21459Y89522D01*
X20498Y89780D01*
D02*
G37*
G36*
X155748Y92063D02*
X154284D01*
X152870Y91684D01*
X151602Y90952D01*
X150567Y89917D01*
X149836Y88650D01*
X149457Y87236D01*
Y85772D01*
X149836Y84358D01*
X150567Y83091D01*
X151602Y82056D01*
X152870Y81324D01*
X154284Y80945D01*
X155748D01*
X157161Y81324D01*
X158429Y82056D01*
X159464Y83091D01*
X160196Y84358D01*
X160575Y85772D01*
Y87236D01*
X160196Y88650D01*
X159464Y89917D01*
X158429Y90952D01*
X157161Y91684D01*
X155748Y92063D01*
D02*
G37*
G36*
X136732D02*
X135268D01*
X133854Y91684D01*
X132587Y90952D01*
X131552Y89917D01*
X130820Y88650D01*
X130441Y87236D01*
Y85772D01*
X130820Y84358D01*
X131552Y83091D01*
X132587Y82056D01*
X133854Y81324D01*
X135268Y80945D01*
X136732D01*
X138146Y81324D01*
X139413Y82056D01*
X140448Y83091D01*
X141180Y84358D01*
X141559Y85772D01*
Y87236D01*
X141180Y88650D01*
X140448Y89917D01*
X139413Y90952D01*
X138146Y91684D01*
X136732Y92063D01*
D02*
G37*
G36*
X101730Y86346D02*
X100412D01*
X99119Y86089D01*
X97901Y85585D01*
X96804Y84852D01*
X95872Y83920D01*
X95140Y82824D01*
X94635Y81606D01*
X94378Y80313D01*
Y78994D01*
X94635Y77701D01*
X95140Y76483D01*
X95872Y75387D01*
X96804Y74455D01*
X97901Y73722D01*
X99119Y73218D01*
X100412Y72961D01*
X101730D01*
X103023Y73218D01*
X104241Y73722D01*
X105337Y74455D01*
X106270Y75387D01*
X107002Y76483D01*
X107507Y77701D01*
X107764Y78994D01*
Y80313D01*
X107507Y81606D01*
X107002Y82824D01*
X106270Y83920D01*
X105337Y84852D01*
X104241Y85585D01*
X103023Y86089D01*
X101730Y86346D01*
D02*
G37*
G36*
X85195Y86347D02*
X83876D01*
X82583Y86089D01*
X81365Y85585D01*
X80269Y84852D01*
X79337Y83920D01*
X78604Y82824D01*
X78100Y81606D01*
X77842Y80313D01*
Y78994D01*
X78100Y77701D01*
X78604Y76483D01*
X79337Y75387D01*
X80269Y74455D01*
X81365Y73722D01*
X82583Y73218D01*
X83876Y72961D01*
X85195D01*
X86488Y73218D01*
X87706Y73722D01*
X88802Y74455D01*
X89734Y75387D01*
X90467Y76483D01*
X90971Y77701D01*
X91228Y78994D01*
Y80313D01*
X90971Y81606D01*
X90467Y82824D01*
X89734Y83920D01*
X88802Y84852D01*
X87706Y85585D01*
X86488Y86089D01*
X85195Y86347D01*
D02*
G37*
G36*
X68659D02*
X67341D01*
X66048Y86089D01*
X64830Y85585D01*
X63734Y84852D01*
X62801Y83920D01*
X62069Y82824D01*
X61564Y81606D01*
X61307Y80313D01*
Y78994D01*
X61564Y77701D01*
X62069Y76483D01*
X62801Y75387D01*
X63734Y74455D01*
X64830Y73722D01*
X66048Y73218D01*
X67341Y72961D01*
X68659D01*
X69952Y73218D01*
X71170Y73722D01*
X72267Y74455D01*
X73199Y75387D01*
X73931Y76483D01*
X74436Y77701D01*
X74693Y78994D01*
Y80313D01*
X74436Y81606D01*
X73931Y82824D01*
X73199Y83920D01*
X72267Y84852D01*
X71170Y85585D01*
X69952Y86089D01*
X68659Y86347D01*
D02*
G37*
G36*
X20498Y79779D02*
X19502D01*
X18541Y79522D01*
X17679Y79024D01*
X16976Y78321D01*
X16478Y77459D01*
X16220Y76498D01*
Y75502D01*
X16478Y74541D01*
X16976Y73679D01*
X17679Y72976D01*
X18541Y72478D01*
X19502Y72220D01*
X20498D01*
X21459Y72478D01*
X22321Y72976D01*
X23024Y73679D01*
X23522Y74541D01*
X23779Y75502D01*
Y76498D01*
X23522Y77459D01*
X23024Y78321D01*
X22321Y79024D01*
X21459Y79522D01*
X20498Y79779D01*
D02*
G37*
G36*
X155748Y73559D02*
X154284D01*
X152870Y73180D01*
X151602Y72448D01*
X150567Y71413D01*
X149836Y70146D01*
X149457Y68732D01*
Y67268D01*
X149836Y65854D01*
X150567Y64587D01*
X151602Y63552D01*
X152870Y62820D01*
X154284Y62441D01*
X155748D01*
X157161Y62820D01*
X158429Y63552D01*
X159464Y64587D01*
X160196Y65854D01*
X160575Y67268D01*
Y68732D01*
X160196Y70146D01*
X159464Y71413D01*
X158429Y72448D01*
X157161Y73180D01*
X155748Y73559D01*
D02*
G37*
G36*
X136732D02*
X135268D01*
X133854Y73180D01*
X132587Y72448D01*
X131552Y71413D01*
X130820Y70146D01*
X130441Y68732D01*
Y67268D01*
X130820Y65854D01*
X131552Y64587D01*
X132587Y63552D01*
X133854Y62820D01*
X135268Y62441D01*
X136732D01*
X138146Y62820D01*
X139413Y63552D01*
X140448Y64587D01*
X141180Y65854D01*
X141559Y67268D01*
Y68732D01*
X141180Y70146D01*
X140448Y71413D01*
X139413Y72448D01*
X138146Y73180D01*
X136732Y73559D01*
D02*
G37*
G36*
X20498Y69779D02*
X19502D01*
X18541Y69522D01*
X17679Y69024D01*
X16976Y68321D01*
X16478Y67459D01*
X16220Y66498D01*
Y65502D01*
X16478Y64541D01*
X16976Y63679D01*
X17679Y62976D01*
X18541Y62478D01*
X19502Y62221D01*
X20498D01*
X21459Y62478D01*
X22321Y62976D01*
X23024Y63679D01*
X23522Y64541D01*
X23779Y65502D01*
Y66498D01*
X23522Y67459D01*
X23024Y68321D01*
X22321Y69024D01*
X21459Y69522D01*
X20498Y69779D01*
D02*
G37*
G36*
X101730Y64693D02*
X100412D01*
X99119Y64436D01*
X97901Y63931D01*
X96804Y63199D01*
X95872Y62266D01*
X95140Y61170D01*
X94635Y59952D01*
X94378Y58659D01*
Y57341D01*
X94635Y56048D01*
X95140Y54830D01*
X95872Y53734D01*
X96804Y52801D01*
X97901Y52069D01*
X99119Y51564D01*
X100412Y51307D01*
X101730D01*
X103023Y51564D01*
X104241Y52069D01*
X105337Y52801D01*
X106270Y53734D01*
X107002Y54830D01*
X107507Y56048D01*
X107764Y57341D01*
Y58659D01*
X107507Y59952D01*
X107002Y61170D01*
X106270Y62266D01*
X105337Y63199D01*
X104241Y63931D01*
X103023Y64436D01*
X101730Y64693D01*
D02*
G37*
G36*
X68659Y64693D02*
X67341D01*
X66048Y64436D01*
X64830Y63931D01*
X63734Y63199D01*
X62801Y62266D01*
X62069Y61170D01*
X61564Y59952D01*
X61307Y58659D01*
Y57341D01*
X61564Y56048D01*
X62069Y54830D01*
X62801Y53733D01*
X63734Y52801D01*
X64830Y52069D01*
X66048Y51564D01*
X67341Y51307D01*
X68659D01*
X69952Y51564D01*
X71170Y52069D01*
X72267Y52801D01*
X73199Y53733D01*
X73931Y54830D01*
X74436Y56048D01*
X74693Y57341D01*
Y58659D01*
X74436Y59952D01*
X73931Y61170D01*
X73199Y62266D01*
X72267Y63199D01*
X71170Y63931D01*
X69952Y64436D01*
X68659Y64693D01*
D02*
G37*
G36*
X179885Y53437D02*
X179115D01*
X178402Y53142D01*
X177857Y52597D01*
X177563Y51885D01*
Y51115D01*
X177678Y50837D01*
Y30244D01*
X177481Y30131D01*
X176869Y29518D01*
X176437Y28769D01*
X176213Y27933D01*
Y27067D01*
X176437Y26231D01*
X176869Y25482D01*
X177481Y24869D01*
X178231Y24437D01*
X179067Y24213D01*
X179933D01*
X180769Y24437D01*
X181518Y24869D01*
X182131Y25482D01*
X182563Y26231D01*
X182787Y27067D01*
Y27933D01*
X182563Y28769D01*
X182131Y29518D01*
X181518Y30131D01*
X181322Y30244D01*
Y50837D01*
X181437Y51115D01*
Y51885D01*
X181142Y52597D01*
X180597Y53142D01*
X179885Y53437D01*
D02*
G37*
G36*
X101751Y36165D02*
X100391D01*
X99057Y35900D01*
X97800Y35379D01*
X96669Y34624D01*
X95707Y33662D01*
X94951Y32531D01*
X94431Y31274D01*
X94165Y29940D01*
Y28580D01*
X94431Y27246D01*
X94951Y25989D01*
X95707Y24858D01*
X96669Y23896D01*
X97800Y23140D01*
X99057Y22620D01*
X100391Y22354D01*
X101751D01*
X103085Y22620D01*
X104342Y23140D01*
X105473Y23896D01*
X106435Y24858D01*
X107191Y25989D01*
X107711Y27246D01*
X107976Y28580D01*
Y29940D01*
X107711Y31274D01*
X107191Y32531D01*
X106435Y33662D01*
X105473Y34624D01*
X104342Y35379D01*
X103085Y35900D01*
X101751Y36165D01*
D02*
G37*
G36*
X68680D02*
X67320D01*
X65986Y35900D01*
X64729Y35379D01*
X63598Y34624D01*
X62636Y33662D01*
X61880Y32531D01*
X61360Y31274D01*
X61094Y29940D01*
Y28580D01*
X61360Y27246D01*
X61880Y25989D01*
X62636Y24858D01*
X63598Y23896D01*
X64729Y23140D01*
X65986Y22620D01*
X67320Y22354D01*
X68680D01*
X70014Y22620D01*
X71271Y23140D01*
X72402Y23896D01*
X73364Y24858D01*
X74120Y25989D01*
X74640Y27246D01*
X74906Y28580D01*
Y29940D01*
X74640Y31274D01*
X74120Y32531D01*
X73364Y33662D01*
X72402Y34624D01*
X71271Y35379D01*
X70014Y35900D01*
X68680Y36165D01*
D02*
G37*
G36*
X35911Y34250D02*
X34089D01*
X32302Y33895D01*
X30619Y33197D01*
X29103Y32185D01*
X27815Y30896D01*
X26803Y29381D01*
X26105Y27698D01*
X25750Y25911D01*
Y24089D01*
X26105Y22302D01*
X26803Y20618D01*
X27815Y19104D01*
X29103Y17815D01*
X30619Y16803D01*
X32302Y16105D01*
X34089Y15750D01*
X35911D01*
X37698Y16105D01*
X39382Y16803D01*
X40896Y17815D01*
X42185Y19104D01*
X43197Y20618D01*
X43894Y22302D01*
X44250Y24089D01*
Y25911D01*
X43894Y27698D01*
X43197Y29381D01*
X42185Y30896D01*
X40896Y32185D01*
X39382Y33197D01*
X37698Y33895D01*
X35911Y34250D01*
D02*
G37*
%LPD*%
D10*
X272675Y75682D02*
X274958Y73399D01*
X272675Y75682D02*
Y75825D01*
X274958Y73399D02*
X275242D01*
X270500Y78000D02*
X272675Y75825D01*
X211017Y256023D02*
Y283983D01*
X211000Y284000D02*
X211017Y283983D01*
Y256023D02*
X211033Y256006D01*
X275242Y73399D02*
X275540Y73698D01*
X276697D01*
X279447Y76447D01*
X280447D01*
X280600Y76600D01*
D11*
X280557Y80092D02*
X280561Y80096D01*
X287596D01*
X287600Y80100D01*
X61500Y334000D02*
X75000D01*
D12*
X88557Y287557D02*
X91000Y290000D01*
X59057Y287557D02*
X88557D01*
X91000Y290000D02*
Y295000D01*
X121500Y288500D02*
Y296000D01*
X115500Y282500D02*
X121500Y288500D01*
X63000Y282500D02*
X115500D01*
X67500Y119000D02*
Y154000D01*
X73000Y119000D02*
Y154000D01*
X54000Y282500D02*
X59057Y287557D01*
X54000Y258000D02*
Y282500D01*
X59500Y258000D02*
Y279000D01*
X63000Y282500D01*
X172000Y314000D02*
Y325000D01*
X228643Y204532D02*
X230175Y203000D01*
X230500D01*
X87500Y314000D02*
X99000D01*
X65990Y256564D02*
Y265774D01*
X65955Y265809D02*
X65990Y265774D01*
X177500Y244000D02*
X192000D01*
X199749Y236251D01*
X128000Y273500D02*
X140989D01*
X136000Y182500D02*
X148000D01*
X199749Y204511D02*
Y236251D01*
X199770Y204532D02*
X228643D01*
X65955Y265809D02*
Y274000D01*
D17*
X269500Y83500D02*
X269600Y83600D01*
X263363Y83500D02*
X269500D01*
X256863Y82251D02*
X257113Y82500D01*
X262363D02*
X263363Y83500D01*
X257113Y82500D02*
X262363D01*
X155000Y330500D02*
X161328D01*
X162500Y331672D01*
Y349500D01*
X179500Y27500D02*
Y51500D01*
X84500Y91000D02*
Y106000D01*
D75*
X136000Y105008D02*
D03*
Y68000D02*
D03*
X155016D02*
D03*
Y86504D02*
D03*
X136000D02*
D03*
X155016Y105008D02*
D03*
D76*
X68000Y29260D02*
D03*
X84535Y79654D02*
D03*
Y58000D02*
D03*
X68000Y79654D02*
D03*
Y58000D02*
D03*
X101071Y29260D02*
D03*
D84*
X128325Y172675D02*
X128500Y172500D01*
X120350Y172850D02*
X120525Y172675D01*
X128325D01*
X174709Y183291D02*
X175000Y183000D01*
X190000D02*
X193000Y186000D01*
X175000Y183000D02*
X190000D01*
X172709Y183291D02*
X174709D01*
X171500Y184500D02*
X172709Y183291D01*
X72322Y185678D02*
Y186322D01*
X72500Y186500D02*
Y195500D01*
Y185000D02*
Y185500D01*
X72322Y186322D02*
X72500Y186500D01*
X72322Y185678D02*
X72500Y185500D01*
X156500Y206500D02*
X171500Y191500D01*
X135000Y249500D02*
X137500Y247000D01*
X135000Y249500D02*
Y252500D01*
X135010Y252510D01*
X70500Y256000D02*
Y274000D01*
X137500Y247000D02*
X158914D01*
X150000Y258500D02*
X150272Y258772D01*
Y260272D01*
X151500Y261500D01*
X153132Y265132D02*
Y268632D01*
X155500Y271000D01*
X151500Y261500D02*
X159000D01*
X155500Y271000D02*
X160500D01*
X162000Y272500D01*
Y275000D01*
X158914Y247000D02*
X165457Y240457D01*
X159000Y261500D02*
X167000Y269500D01*
Y275000D01*
X111000Y192000D02*
X111070Y192070D01*
X128191D01*
X128261Y192139D01*
X132500Y206500D02*
X156500D01*
X171500Y184500D02*
Y191500D01*
X193000Y186000D02*
Y203000D01*
X194500Y204500D01*
X195500D01*
X195511Y204511D02*
X199489D01*
D86*
X285000Y335000D02*
D03*
X35000Y25000D02*
D03*
D87*
X279100Y92100D02*
D03*
Y58045D02*
D03*
D88*
X292407Y92100D02*
D03*
Y58045D02*
D03*
D89*
X280557Y63360D02*
D03*
Y66706D02*
D03*
Y70053D02*
D03*
Y73399D02*
D03*
Y76746D02*
D03*
Y80092D02*
D03*
Y83439D02*
D03*
Y86785D02*
D03*
X275242D02*
D03*
Y83439D02*
D03*
Y80092D02*
D03*
Y76746D02*
D03*
Y73399D02*
D03*
Y70053D02*
D03*
Y66706D02*
D03*
Y63360D02*
D03*
D90*
X300000Y320000D02*
D03*
Y310000D02*
D03*
Y300000D02*
D03*
Y290000D02*
D03*
Y270000D02*
D03*
Y250000D02*
D03*
Y240000D02*
D03*
Y220000D02*
D03*
Y210000D02*
D03*
Y200000D02*
D03*
Y180000D02*
D03*
Y190000D02*
D03*
Y230000D02*
D03*
Y260000D02*
D03*
Y280000D02*
D03*
X20000Y86000D02*
D03*
Y96000D02*
D03*
Y106000D02*
D03*
Y126000D02*
D03*
Y116000D02*
D03*
Y76000D02*
D03*
Y66000D02*
D03*
Y175000D02*
D03*
Y185000D02*
D03*
Y195000D02*
D03*
Y205000D02*
D03*
Y225000D02*
D03*
Y245000D02*
D03*
Y255000D02*
D03*
Y275000D02*
D03*
Y285000D02*
D03*
Y295000D02*
D03*
Y315000D02*
D03*
Y305000D02*
D03*
Y265000D02*
D03*
Y235000D02*
D03*
Y215000D02*
D03*
D91*
X300000Y170000D02*
D03*
X20000Y136000D02*
D03*
Y325000D02*
D03*
D92*
X88200Y173500D02*
D03*
X108200Y177500D02*
D03*
Y169500D02*
D03*
D93*
X88200Y163500D02*
D03*
Y183500D02*
D03*
X100700D02*
D03*
Y163500D02*
D03*
D94*
X101071Y79654D02*
D03*
X101071Y58000D02*
D03*
D95*
X269600Y83600D02*
D03*
X256863Y82251D02*
D03*
X179500Y27500D02*
D03*
X84500Y91000D02*
D03*
Y106000D02*
D03*
X187000Y64500D02*
D03*
D96*
X270500Y78000D02*
D03*
X102000Y194089D02*
D03*
X128500Y172500D02*
D03*
X175000Y183000D02*
D03*
X211000Y284000D02*
D03*
X247100Y67600D02*
D03*
X288100Y80100D02*
D03*
X272600Y110600D02*
D03*
X162500Y349500D02*
D03*
X67500Y119000D02*
D03*
X73000D02*
D03*
X67500Y154000D02*
D03*
X73000Y154500D02*
D03*
X72500Y195500D02*
D03*
Y185000D02*
D03*
X59500Y258000D02*
D03*
X54000D02*
D03*
X179000Y170800D02*
D03*
X173100D02*
D03*
X148000Y182500D02*
D03*
X136500Y160500D02*
D03*
X120350Y172850D02*
D03*
X113400Y178700D02*
D03*
X136000Y182500D02*
D03*
X147000Y188500D02*
D03*
X111000Y192000D02*
D03*
X128261Y192139D02*
D03*
X111000Y196000D02*
D03*
X132500Y206500D02*
D03*
X117000Y209500D02*
D03*
X124500Y217500D02*
D03*
X103000Y225000D02*
D03*
X118000Y228500D02*
D03*
X130500Y235124D02*
D03*
X135010Y252510D02*
D03*
X70500Y256000D02*
D03*
X65990Y256564D02*
D03*
X140989Y273500D02*
D03*
X128000D02*
D03*
X65955Y274000D02*
D03*
X70500D02*
D03*
X94000Y335500D02*
D03*
X121390Y284610D02*
D03*
X91000Y295000D02*
D03*
X121500Y296000D02*
D03*
X147000Y309500D02*
D03*
X87500Y314000D02*
D03*
X99000D02*
D03*
X100500Y320500D02*
D03*
X144500Y325500D02*
D03*
X81500Y330000D02*
D03*
X176800Y243600D02*
D03*
X179000Y256625D02*
D03*
X150000Y258500D02*
D03*
X153132Y265132D02*
D03*
X155000Y330500D02*
D03*
X162000Y275000D02*
D03*
X165457Y240457D02*
D03*
X165500Y258413D02*
D03*
X167000Y275000D02*
D03*
X168000Y325500D02*
D03*
X172000Y325000D02*
D03*
Y314000D02*
D03*
X201000Y311500D02*
D03*
X228500Y220000D02*
D03*
X209000Y231500D02*
D03*
X219000Y231575D02*
D03*
X268000Y235700D02*
D03*
X274700Y236013D02*
D03*
X218000Y237000D02*
D03*
X209500Y246075D02*
D03*
X211033Y256006D02*
D03*
X190400Y256587D02*
D03*
X191000Y302000D02*
D03*
X226000Y309500D02*
D03*
X230500Y203000D02*
D03*
X228500Y214500D02*
D03*
X215500Y191500D02*
D03*
X199749Y204511D02*
D03*
X198000Y187000D02*
D03*
X176000Y114500D02*
D03*
X184000Y116000D02*
D03*
X179500Y51500D02*
D03*
X26500Y175000D02*
D03*
D97*
X61500Y334000D02*
D03*
X75000D02*
D03*
X171000Y217500D02*
D03*
X180000D02*
D03*
X171000Y208500D02*
D03*
X180000D02*
D03*
D98*
X209000Y231500D02*
X209075Y231575D01*
X219000D01*
M02*
