M48
;Layer_Color=9474304
;FILE_FORMAT=2:5
INCH,LZ
;TYPE=PLATED
T01F00S00C0.01200
T02F00S00C0.01575
T04F00S00C0.02800
T05F00S00C0.04016
T06F00S00C0.07087
T07F00S00C0.07089
T08F00S00C0.07283
%
T01
X01795Y00515
X02471Y00676
X02705Y0078
X02881Y00801
X02726Y01106
X02305Y0203
X02155Y01915
X0198Y0187
X0199749Y0204511
X0175Y0183
X01731Y01708
X0179
X0148Y01825
X0147Y01885
X0136Y01825
X0128261Y0192139
X0111Y0192
Y0196
X0102Y0194089
X01134Y01787
X012035Y017285
X01285Y01725
X01365Y01605
X01325Y02065
X0117Y02095
X00725Y01955
Y0185
X0073Y01545
X00675Y0154
Y0119
X0073
X0176Y01145
X0184Y0116
X00265Y0175
X0054Y0258
X00595
X006599Y0256564
X00705Y0256
Y0274
X0065955
X0091Y0295
X00875Y0314
X0099
X01005Y03205
X0094Y03355
X00815Y033
X01445Y03255
X0155Y03305
X0168Y03255
X0172Y0325
Y0314
X0147Y03095
X01215Y0296
X012139Y028461
X0128Y02735
X0140989
X0153132Y0265132
X015Y02585
X01655Y0258413
X0179Y0256625
X01904Y0256587
X0211033Y0256006
X02095Y0246075
X0209Y02315
X01768Y02436
X0165457Y0240457
X0167Y0275
X0162
X013501Y025251
X01305Y0235124
X0118Y02285
X01245Y02175
X0103Y0225
X0191Y0302
X0201Y03115
X0211Y0284
X01625Y03495
X0226Y03095
X0218Y0237
X0219Y0231575
X02285Y022
Y02145
X0268Y02357
X02747Y0236013
T02
X0275242Y006336
Y0066706
Y0070053
Y0073399
Y0076746
Y0080092
Y0083439
Y0086785
X0280557
Y0083439
Y0080092
Y0076746
Y0073399
Y0070053
Y0066706
Y006336
X018Y02085
X0171
Y02175
X018
X0075Y0334
X00615
T04
X01795Y00275
X0256863Y0082251
X02696Y00836
X0187Y00645
X00845Y0091
Y0106
T05
X03Y017
Y018
Y019
Y02
Y021
X002Y0205
Y0195
Y0185
Y0175
Y0136
Y0126
Y0116
Y0106
Y0096
Y0086
Y0076
Y0066
Y0215
Y0225
Y0235
Y0245
Y0255
Y0265
Y0275
Y0285
Y0295
Y0305
Y0315
Y0325
X03Y032
Y031
Y03
Y029
Y028
Y027
Y026
Y025
Y024
Y023
Y022
T06
X0068Y0058
X0084535
Y0079654
X0068
T07
X0101071Y0058
X0101071Y0079654
T08
X0136Y0068
Y0086504
Y0105008
X0155016
Y0086504
Y0068
M30
