G04*
G04 #@! TF.GenerationSoftware,Altium Limited,Altium Designer,24.9.1 (31)*
G04*
G04 Layer_Color=16711935*
%FSLAX25Y25*%
%MOIN*%
G70*
G04*
G04 #@! TF.SameCoordinates,BA677FBB-0452-431E-8DC5-A1704F135117*
G04*
G04*
G04 #@! TF.FilePolarity,Negative*
G04*
G01*
G75*
%ADD67C,0.06299*%
%ADD68O,0.09748X0.03842*%
%ADD69O,0.06992X0.03842*%
%ADD70C,0.02858*%
%ADD71C,0.06284*%
G04:AMPARAMS|DCode=72|XSize=62.84mil|YSize=62.84mil|CornerRadius=16.46mil|HoleSize=0mil|Usage=FLASHONLY|Rotation=90.000|XOffset=0mil|YOffset=0mil|HoleType=Round|Shape=RoundedRectangle|*
%AMROUNDEDRECTD72*
21,1,0.06284,0.02992,0,0,90.0*
21,1,0.02992,0.06284,0,0,90.0*
1,1,0.03291,0.01496,0.01496*
1,1,0.03291,0.01496,-0.01496*
1,1,0.03291,-0.01496,-0.01496*
1,1,0.03291,-0.01496,0.01496*
%
%ADD72ROUNDEDRECTD72*%
%ADD73C,0.03699*%
%ADD74C,0.09499*%
%ADD75C,0.09543*%
%ADD76C,0.11811*%
%ADD77C,0.12110*%
%ADD78C,0.12110*%
%ADD79C,0.05299*%
%ADD80C,0.02599*%
%ADD81C,0.03449*%
D67*
X285000Y335000D02*
D03*
X35000Y25000D02*
D03*
D68*
X279100Y92100D02*
D03*
Y58045D02*
D03*
D69*
X292407Y92100D02*
D03*
Y58045D02*
D03*
D70*
X280557Y63360D02*
D03*
Y66706D02*
D03*
Y70053D02*
D03*
Y73399D02*
D03*
Y76746D02*
D03*
Y80092D02*
D03*
Y83439D02*
D03*
Y86785D02*
D03*
X275242D02*
D03*
Y83439D02*
D03*
Y80092D02*
D03*
Y76746D02*
D03*
Y73399D02*
D03*
Y70053D02*
D03*
Y66706D02*
D03*
Y63360D02*
D03*
D71*
X300000Y320000D02*
D03*
Y310000D02*
D03*
Y300000D02*
D03*
Y290000D02*
D03*
Y270000D02*
D03*
Y250000D02*
D03*
Y240000D02*
D03*
Y220000D02*
D03*
Y210000D02*
D03*
Y200000D02*
D03*
Y180000D02*
D03*
Y190000D02*
D03*
Y230000D02*
D03*
Y260000D02*
D03*
Y280000D02*
D03*
X20000Y86000D02*
D03*
Y96000D02*
D03*
Y106000D02*
D03*
Y126000D02*
D03*
Y116000D02*
D03*
Y76000D02*
D03*
Y66000D02*
D03*
Y175000D02*
D03*
Y185000D02*
D03*
Y195000D02*
D03*
Y205000D02*
D03*
Y225000D02*
D03*
Y245000D02*
D03*
Y255000D02*
D03*
Y275000D02*
D03*
Y285000D02*
D03*
Y295000D02*
D03*
Y315000D02*
D03*
Y305000D02*
D03*
Y265000D02*
D03*
Y235000D02*
D03*
Y215000D02*
D03*
D72*
X300000Y170000D02*
D03*
X20000Y136000D02*
D03*
Y325000D02*
D03*
D73*
X88200Y173500D02*
D03*
X108200Y177500D02*
D03*
Y169500D02*
D03*
D74*
X88200Y163500D02*
D03*
Y183500D02*
D03*
X100700D02*
D03*
Y163500D02*
D03*
D75*
X136000Y105008D02*
D03*
Y68000D02*
D03*
X155016D02*
D03*
Y86504D02*
D03*
X136000D02*
D03*
X155016Y105008D02*
D03*
D76*
X68000Y29260D02*
D03*
X101071D02*
D03*
D77*
X84535Y79654D02*
D03*
Y58000D02*
D03*
X68000Y79654D02*
D03*
Y58000D02*
D03*
D78*
X101071Y79654D02*
D03*
X101071Y58000D02*
D03*
D79*
X269600Y83600D02*
D03*
X256863Y82251D02*
D03*
X179500Y27500D02*
D03*
X84500Y91000D02*
D03*
Y106000D02*
D03*
X187000Y64500D02*
D03*
D80*
X102000Y194089D02*
D03*
X128500Y172500D02*
D03*
X175000Y183000D02*
D03*
X211000Y284000D02*
D03*
X247100Y67600D02*
D03*
X288100Y80100D02*
D03*
X272600Y110600D02*
D03*
X162500Y349500D02*
D03*
X67500Y119000D02*
D03*
X73000D02*
D03*
X67500Y154000D02*
D03*
X73000Y154500D02*
D03*
X72500Y195500D02*
D03*
Y185000D02*
D03*
X59500Y258000D02*
D03*
X54000D02*
D03*
X179000Y170800D02*
D03*
X173100D02*
D03*
X148000Y182500D02*
D03*
X136500Y160500D02*
D03*
X120350Y172850D02*
D03*
X113400Y178700D02*
D03*
X136000Y182500D02*
D03*
X147000Y188500D02*
D03*
X111000Y192000D02*
D03*
X128261Y192139D02*
D03*
X111000Y196000D02*
D03*
X132500Y206500D02*
D03*
X117000Y209500D02*
D03*
X124500Y217500D02*
D03*
X103000Y225000D02*
D03*
X118000Y228500D02*
D03*
X130500Y235124D02*
D03*
X135010Y252510D02*
D03*
X70500Y256000D02*
D03*
X65990Y256564D02*
D03*
X140989Y273500D02*
D03*
X128000D02*
D03*
X65955Y274000D02*
D03*
X70500D02*
D03*
X94000Y335500D02*
D03*
X121390Y284610D02*
D03*
X91000Y295000D02*
D03*
X121500Y296000D02*
D03*
X147000Y309500D02*
D03*
X87500Y314000D02*
D03*
X99000D02*
D03*
X100500Y320500D02*
D03*
X144500Y325500D02*
D03*
X81500Y330000D02*
D03*
X176800Y243600D02*
D03*
X179000Y256625D02*
D03*
X150000Y258500D02*
D03*
X153132Y265132D02*
D03*
X155000Y330500D02*
D03*
X162000Y275000D02*
D03*
X165457Y240457D02*
D03*
X165500Y258413D02*
D03*
X167000Y275000D02*
D03*
X168000Y325500D02*
D03*
X172000Y325000D02*
D03*
Y314000D02*
D03*
X201000Y311500D02*
D03*
X228500Y220000D02*
D03*
X209000Y231500D02*
D03*
X219000Y231575D02*
D03*
X268000Y235700D02*
D03*
X274700Y236013D02*
D03*
X218000Y237000D02*
D03*
X209500Y246075D02*
D03*
X211033Y256006D02*
D03*
X190400Y256587D02*
D03*
X191000Y302000D02*
D03*
X226000Y309500D02*
D03*
X230500Y203000D02*
D03*
X228500Y214500D02*
D03*
X215500Y191500D02*
D03*
X199749Y204511D02*
D03*
X198000Y187000D02*
D03*
X176000Y114500D02*
D03*
X184000Y116000D02*
D03*
X179500Y51500D02*
D03*
X26500Y175000D02*
D03*
D81*
X61500Y334000D02*
D03*
X75000D02*
D03*
X171000Y217500D02*
D03*
X180000D02*
D03*
X171000Y208500D02*
D03*
X180000D02*
D03*
M02*
