G04*
G04 #@! TF.GenerationSoftware,Altium Limited,Altium Designer,21.3.2 (30)*
G04*
G04 Layer_Physical_Order=3*
G04 Layer_Color=16440176*
%FSLAX25Y25*%
%MOIN*%
G70*
G04*
G04 #@! TF.SameCoordinates,41522B4C-5660-4B3E-BEA4-8D9A01AACCA4*
G04*
G04*
G04 #@! TF.FilePolarity,Positive*
G04*
G01*
G75*
%ADD63C,0.02800*%
%ADD85C,0.06378*%
%ADD90C,0.02200*%
%ADD91C,0.02400*%
G36*
X378433Y198144D02*
X380685Y197696D01*
X382882Y197029D01*
X385003Y196151D01*
X387028Y195068D01*
X388937Y193793D01*
X390712Y192336D01*
X392336Y190712D01*
X393793Y188937D01*
X395068Y187028D01*
X396150Y185003D01*
X397029Y182882D01*
X397696Y180685D01*
X398144Y178433D01*
X398369Y176148D01*
Y175000D01*
Y25000D01*
Y23852D01*
X398144Y21567D01*
X397696Y19315D01*
X397029Y17118D01*
X396150Y14997D01*
X395068Y12972D01*
X393793Y11062D01*
X392336Y9288D01*
X390712Y7664D01*
X388937Y6208D01*
X387028Y4932D01*
X385003Y3850D01*
X382882Y2971D01*
X380685Y2304D01*
X378433Y1856D01*
X376148Y1631D01*
X23852D01*
X21567Y1856D01*
X19315Y2304D01*
X17118Y2971D01*
X14997Y3850D01*
X12972Y4932D01*
X11062Y6207D01*
X9288Y7664D01*
X7664Y9288D01*
X6208Y11062D01*
X4932Y12972D01*
X3850Y14997D01*
X2971Y17118D01*
X2304Y19315D01*
X1856Y21567D01*
X1631Y23852D01*
Y25000D01*
X1631Y175000D01*
Y176148D01*
X1856Y178433D01*
X2304Y180685D01*
X2971Y182882D01*
X3849Y185003D01*
X4932Y187028D01*
X6207Y188937D01*
X7664Y190712D01*
X9288Y192336D01*
X11062Y193793D01*
X12972Y195068D01*
X14997Y196151D01*
X17118Y197029D01*
X19315Y197696D01*
X21567Y198144D01*
X23852Y198369D01*
X376148D01*
X378433Y198144D01*
D02*
G37*
%LPC*%
G36*
X154000Y196542D02*
Y195000D01*
X155542D01*
X155478Y195319D01*
X155014Y196014D01*
X154319Y196478D01*
X154000Y196542D01*
D02*
G37*
G36*
X153000D02*
X152681Y196478D01*
X151986Y196014D01*
X151522Y195319D01*
X151458Y195000D01*
X153000D01*
Y196542D01*
D02*
G37*
G36*
X116500D02*
Y195000D01*
X118042D01*
X117978Y195319D01*
X117514Y196014D01*
X116819Y196478D01*
X116500Y196542D01*
D02*
G37*
G36*
X115500D02*
X115181Y196478D01*
X114486Y196014D01*
X114022Y195319D01*
X113958Y195000D01*
X115500D01*
Y196542D01*
D02*
G37*
G36*
X155542Y194000D02*
X154000D01*
Y192458D01*
X154319Y192522D01*
X155014Y192986D01*
X155478Y193681D01*
X155542Y194000D01*
D02*
G37*
G36*
X153000D02*
X151458D01*
X151522Y193681D01*
X151986Y192986D01*
X152681Y192522D01*
X153000Y192458D01*
Y194000D01*
D02*
G37*
G36*
X118042D02*
X116500D01*
Y192458D01*
X116819Y192522D01*
X117514Y192986D01*
X117978Y193681D01*
X118042Y194000D01*
D02*
G37*
G36*
X115500D02*
X113958D01*
X114022Y193681D01*
X114486Y192986D01*
X115181Y192522D01*
X115500Y192458D01*
Y194000D01*
D02*
G37*
G36*
X133000Y196641D02*
X132181Y196478D01*
X131486Y196014D01*
X131022Y195319D01*
X130859Y194500D01*
X131022Y193681D01*
X131486Y192986D01*
X132181Y192522D01*
X133000Y192359D01*
X133819Y192522D01*
X134514Y192986D01*
X134978Y193681D01*
X135141Y194500D01*
X134978Y195319D01*
X134514Y196014D01*
X133819Y196478D01*
X133000Y196641D01*
D02*
G37*
G36*
X154000Y189542D02*
Y188000D01*
X155542D01*
X155478Y188319D01*
X155014Y189014D01*
X154319Y189478D01*
X154000Y189542D01*
D02*
G37*
G36*
X153000D02*
X152681Y189478D01*
X151986Y189014D01*
X151522Y188319D01*
X151458Y188000D01*
X153000D01*
Y189542D01*
D02*
G37*
G36*
X116500D02*
Y188000D01*
X118042D01*
X117978Y188319D01*
X117514Y189014D01*
X116819Y189478D01*
X116500Y189542D01*
D02*
G37*
G36*
X115500D02*
X115181Y189478D01*
X114486Y189014D01*
X114022Y188319D01*
X113958Y188000D01*
X115500D01*
Y189542D01*
D02*
G37*
G36*
X155542Y187000D02*
X154000D01*
Y185458D01*
X154319Y185522D01*
X155014Y185986D01*
X155478Y186681D01*
X155542Y187000D01*
D02*
G37*
G36*
X153000D02*
X151458D01*
X151522Y186681D01*
X151986Y185986D01*
X152681Y185522D01*
X153000Y185458D01*
Y187000D01*
D02*
G37*
G36*
X118042D02*
X116500D01*
Y185458D01*
X116819Y185522D01*
X117514Y185986D01*
X117978Y186681D01*
X118042Y187000D01*
D02*
G37*
G36*
X115500D02*
X113958D01*
X114022Y186681D01*
X114486Y185986D01*
X115181Y185522D01*
X115500Y185458D01*
Y187000D01*
D02*
G37*
G36*
X147500Y182159D02*
Y178500D01*
X151159D01*
X151081Y179094D01*
X150659Y180113D01*
X149988Y180988D01*
X149113Y181659D01*
X148093Y182081D01*
X147500Y182159D01*
D02*
G37*
G36*
X38000D02*
Y178500D01*
X41659D01*
X41581Y179094D01*
X41159Y180113D01*
X40488Y180988D01*
X39613Y181659D01*
X38594Y182081D01*
X38000Y182159D01*
D02*
G37*
G36*
X146500D02*
X145906Y182081D01*
X144887Y181659D01*
X144012Y180988D01*
X143341Y180113D01*
X142919Y179094D01*
X142841Y178500D01*
X146500D01*
Y182159D01*
D02*
G37*
G36*
X37000D02*
X36406Y182081D01*
X35387Y181659D01*
X34512Y180988D01*
X33841Y180113D01*
X33419Y179094D01*
X33341Y178500D01*
X37000D01*
Y182159D01*
D02*
G37*
G36*
X151159Y177500D02*
X147500D01*
Y173841D01*
X148093Y173919D01*
X149113Y174341D01*
X149988Y175012D01*
X150659Y175887D01*
X151081Y176907D01*
X151159Y177500D01*
D02*
G37*
G36*
X41659D02*
X38000D01*
Y173841D01*
X38594Y173919D01*
X39613Y174341D01*
X40488Y175012D01*
X41159Y175887D01*
X41581Y176907D01*
X41659Y177500D01*
D02*
G37*
G36*
X37000D02*
X33341D01*
X33419Y176907D01*
X33841Y175887D01*
X34512Y175012D01*
X35387Y174341D01*
X36406Y173919D01*
X37000Y173841D01*
Y177500D01*
D02*
G37*
G36*
X146500D02*
X142841D01*
X142919Y176907D01*
X143341Y175887D01*
X144012Y175012D01*
X144887Y174341D01*
X145906Y173919D01*
X146500Y173841D01*
Y177500D01*
D02*
G37*
G36*
X178595Y182514D02*
X175406D01*
X174650Y182414D01*
X173946Y182123D01*
X173341Y181659D01*
X172877Y181054D01*
X172585Y180350D01*
X172486Y179595D01*
Y176406D01*
X172585Y175650D01*
X172877Y174946D01*
X173341Y174341D01*
X173946Y173877D01*
X174650Y173585D01*
X175406Y173486D01*
X178595D01*
X179350Y173585D01*
X180054Y173877D01*
X180659Y174341D01*
X181123Y174946D01*
X181414Y175650D01*
X181514Y176406D01*
Y179595D01*
X181414Y180350D01*
X181123Y181054D01*
X180659Y181659D01*
X180054Y182123D01*
X179350Y182414D01*
X178595Y182514D01*
D02*
G37*
G36*
X129095D02*
X125906D01*
X125150Y182414D01*
X124446Y182123D01*
X123841Y181659D01*
X123377Y181054D01*
X123085Y180350D01*
X122986Y179595D01*
Y176406D01*
X123085Y175650D01*
X123377Y174946D01*
X123841Y174341D01*
X124446Y173877D01*
X125150Y173585D01*
X125906Y173486D01*
X129095D01*
X129850Y173585D01*
X130554Y173877D01*
X131159Y174341D01*
X131623Y174946D01*
X131914Y175650D01*
X132014Y176406D01*
Y179595D01*
X131914Y180350D01*
X131623Y181054D01*
X131159Y181659D01*
X130554Y182123D01*
X129850Y182414D01*
X129095Y182514D01*
D02*
G37*
G36*
X167000Y182528D02*
X165828Y182373D01*
X164736Y181921D01*
X163798Y181202D01*
X163079Y180264D01*
X162627Y179172D01*
X162472Y178000D01*
X162627Y176828D01*
X163079Y175736D01*
X163798Y174798D01*
X164736Y174079D01*
X165828Y173627D01*
X167000Y173472D01*
X168172Y173627D01*
X169264Y174079D01*
X170202Y174798D01*
X170921Y175736D01*
X171373Y176828D01*
X171528Y178000D01*
X171373Y179172D01*
X170921Y180264D01*
X170202Y181202D01*
X169264Y181921D01*
X168172Y182373D01*
X167000Y182528D01*
D02*
G37*
G36*
X157000D02*
X155828Y182373D01*
X154736Y181921D01*
X153798Y181202D01*
X153079Y180264D01*
X152627Y179172D01*
X152472Y178000D01*
X152627Y176828D01*
X153079Y175736D01*
X153798Y174798D01*
X154736Y174079D01*
X155828Y173627D01*
X157000Y173472D01*
X158172Y173627D01*
X159264Y174079D01*
X160202Y174798D01*
X160921Y175736D01*
X161373Y176828D01*
X161528Y178000D01*
X161373Y179172D01*
X160921Y180264D01*
X160202Y181202D01*
X159264Y181921D01*
X158172Y182373D01*
X157000Y182528D01*
D02*
G37*
G36*
X117500D02*
X116328Y182373D01*
X115236Y181921D01*
X114298Y181202D01*
X113579Y180264D01*
X113127Y179172D01*
X112972Y178000D01*
X113127Y176828D01*
X113579Y175736D01*
X114298Y174798D01*
X115236Y174079D01*
X116328Y173627D01*
X117500Y173472D01*
X118672Y173627D01*
X119764Y174079D01*
X120702Y174798D01*
X121421Y175736D01*
X121873Y176828D01*
X122028Y178000D01*
X121873Y179172D01*
X121421Y180264D01*
X120702Y181202D01*
X119764Y181921D01*
X118672Y182373D01*
X117500Y182528D01*
D02*
G37*
G36*
X107500D02*
X106328Y182373D01*
X105236Y181921D01*
X104298Y181202D01*
X103579Y180264D01*
X103127Y179172D01*
X102972Y178000D01*
X103127Y176828D01*
X103579Y175736D01*
X104298Y174798D01*
X105236Y174079D01*
X106328Y173627D01*
X107500Y173472D01*
X108672Y173627D01*
X109764Y174079D01*
X110702Y174798D01*
X111421Y175736D01*
X111873Y176828D01*
X112028Y178000D01*
X111873Y179172D01*
X111421Y180264D01*
X110702Y181202D01*
X109764Y181921D01*
X108672Y182373D01*
X107500Y182528D01*
D02*
G37*
G36*
X97500D02*
X96328Y182373D01*
X95236Y181921D01*
X94298Y181202D01*
X93579Y180264D01*
X93127Y179172D01*
X92972Y178000D01*
X93127Y176828D01*
X93579Y175736D01*
X94298Y174798D01*
X95236Y174079D01*
X96328Y173627D01*
X97500Y173472D01*
X98672Y173627D01*
X99764Y174079D01*
X100702Y174798D01*
X101421Y175736D01*
X101873Y176828D01*
X102028Y178000D01*
X101873Y179172D01*
X101421Y180264D01*
X100702Y181202D01*
X99764Y181921D01*
X98672Y182373D01*
X97500Y182528D01*
D02*
G37*
G36*
X87500D02*
X86328Y182373D01*
X85236Y181921D01*
X84298Y181202D01*
X83579Y180264D01*
X83127Y179172D01*
X82972Y178000D01*
X83127Y176828D01*
X83579Y175736D01*
X84298Y174798D01*
X85236Y174079D01*
X86328Y173627D01*
X87500Y173472D01*
X88672Y173627D01*
X89764Y174079D01*
X90702Y174798D01*
X91421Y175736D01*
X91873Y176828D01*
X92028Y178000D01*
X91873Y179172D01*
X91421Y180264D01*
X90702Y181202D01*
X89764Y181921D01*
X88672Y182373D01*
X87500Y182528D01*
D02*
G37*
G36*
X77500D02*
X76328Y182373D01*
X75236Y181921D01*
X74298Y181202D01*
X73579Y180264D01*
X73127Y179172D01*
X72972Y178000D01*
X73127Y176828D01*
X73579Y175736D01*
X74298Y174798D01*
X75236Y174079D01*
X76328Y173627D01*
X77500Y173472D01*
X78672Y173627D01*
X79764Y174079D01*
X80702Y174798D01*
X81421Y175736D01*
X81873Y176828D01*
X82028Y178000D01*
X81873Y179172D01*
X81421Y180264D01*
X80702Y181202D01*
X79764Y181921D01*
X78672Y182373D01*
X77500Y182528D01*
D02*
G37*
G36*
X67500D02*
X66328Y182373D01*
X65236Y181921D01*
X64298Y181202D01*
X63579Y180264D01*
X63127Y179172D01*
X62972Y178000D01*
X63127Y176828D01*
X63579Y175736D01*
X64298Y174798D01*
X65236Y174079D01*
X66328Y173627D01*
X67500Y173472D01*
X68672Y173627D01*
X69764Y174079D01*
X70702Y174798D01*
X71421Y175736D01*
X71873Y176828D01*
X72028Y178000D01*
X71873Y179172D01*
X71421Y180264D01*
X70702Y181202D01*
X69764Y181921D01*
X68672Y182373D01*
X67500Y182528D01*
D02*
G37*
G36*
X57500D02*
X56328Y182373D01*
X55236Y181921D01*
X54298Y181202D01*
X53579Y180264D01*
X53127Y179172D01*
X52972Y178000D01*
X53127Y176828D01*
X53579Y175736D01*
X54298Y174798D01*
X55236Y174079D01*
X56328Y173627D01*
X57500Y173472D01*
X58672Y173627D01*
X59764Y174079D01*
X60702Y174798D01*
X61421Y175736D01*
X61873Y176828D01*
X62028Y178000D01*
X61873Y179172D01*
X61421Y180264D01*
X60702Y181202D01*
X59764Y181921D01*
X58672Y182373D01*
X57500Y182528D01*
D02*
G37*
G36*
X47500D02*
X46328Y182373D01*
X45236Y181921D01*
X44298Y181202D01*
X43579Y180264D01*
X43127Y179172D01*
X42972Y178000D01*
X43127Y176828D01*
X43579Y175736D01*
X44298Y174798D01*
X45236Y174079D01*
X46328Y173627D01*
X47500Y173472D01*
X48672Y173627D01*
X49764Y174079D01*
X50702Y174798D01*
X51421Y175736D01*
X51873Y176828D01*
X52028Y178000D01*
X51873Y179172D01*
X51421Y180264D01*
X50702Y181202D01*
X49764Y181921D01*
X48672Y182373D01*
X47500Y182528D01*
D02*
G37*
G36*
X380000Y189596D02*
X378128Y189412D01*
X376328Y188866D01*
X374669Y187979D01*
X373214Y186785D01*
X372021Y185331D01*
X371134Y183672D01*
X370588Y181872D01*
X370404Y180000D01*
X370588Y178128D01*
X371134Y176328D01*
X372021Y174669D01*
X373214Y173214D01*
X374669Y172021D01*
X376328Y171134D01*
X378128Y170588D01*
X380000Y170404D01*
X381872Y170588D01*
X383672Y171134D01*
X385331Y172021D01*
X386786Y173214D01*
X387979Y174669D01*
X388866Y176328D01*
X389412Y178128D01*
X389596Y180000D01*
X389412Y181872D01*
X388866Y183672D01*
X387979Y185331D01*
X386786Y186785D01*
X385331Y187979D01*
X383672Y188866D01*
X381872Y189412D01*
X380000Y189596D01*
D02*
G37*
G36*
X20000D02*
X18128Y189412D01*
X16328Y188866D01*
X14669Y187979D01*
X13214Y186785D01*
X12021Y185331D01*
X11134Y183672D01*
X10588Y181872D01*
X10404Y180000D01*
X10588Y178128D01*
X11134Y176328D01*
X12021Y174669D01*
X13214Y173214D01*
X14669Y172021D01*
X16328Y171134D01*
X18128Y170588D01*
X20000Y170404D01*
X21872Y170588D01*
X23672Y171134D01*
X25331Y172021D01*
X26786Y173214D01*
X27979Y174669D01*
X28866Y176328D01*
X29412Y178128D01*
X29596Y180000D01*
X29412Y181872D01*
X28866Y183672D01*
X27979Y185331D01*
X26786Y186785D01*
X25331Y187979D01*
X23672Y188866D01*
X21872Y189412D01*
X20000Y189596D01*
D02*
G37*
G36*
X38000Y172159D02*
Y168500D01*
X41659D01*
X41581Y169094D01*
X41159Y170113D01*
X40488Y170988D01*
X39613Y171659D01*
X38594Y172081D01*
X38000Y172159D01*
D02*
G37*
G36*
X37000D02*
X36406Y172081D01*
X35387Y171659D01*
X34512Y170988D01*
X33841Y170113D01*
X33419Y169094D01*
X33341Y168500D01*
X37000D01*
Y172159D01*
D02*
G37*
G36*
X213500Y168542D02*
Y167000D01*
X215042D01*
X214978Y167319D01*
X214514Y168014D01*
X213819Y168478D01*
X213500Y168542D01*
D02*
G37*
G36*
X212500D02*
X212181Y168478D01*
X211486Y168014D01*
X211022Y167319D01*
X210958Y167000D01*
X212500D01*
Y168542D01*
D02*
G37*
G36*
X215042Y166000D02*
X213500D01*
Y164458D01*
X213819Y164522D01*
X214514Y164986D01*
X214978Y165681D01*
X215042Y166000D01*
D02*
G37*
G36*
X212500D02*
X210958D01*
X211022Y165681D01*
X211486Y164986D01*
X212181Y164522D01*
X212500Y164458D01*
Y166000D01*
D02*
G37*
G36*
X41659Y167500D02*
X38000D01*
Y163841D01*
X38594Y163919D01*
X39613Y164341D01*
X40488Y165012D01*
X41159Y165887D01*
X41581Y166906D01*
X41659Y167500D01*
D02*
G37*
G36*
X37000D02*
X33341D01*
X33419Y166906D01*
X33841Y165887D01*
X34512Y165012D01*
X35387Y164341D01*
X36406Y163919D01*
X37000Y163841D01*
Y167500D01*
D02*
G37*
G36*
X127500Y172528D02*
X126328Y172373D01*
X125236Y171921D01*
X124298Y171202D01*
X123579Y170264D01*
X123127Y169172D01*
X122972Y168000D01*
X123127Y166828D01*
X123579Y165736D01*
X124298Y164798D01*
X125236Y164079D01*
X126328Y163627D01*
X127500Y163472D01*
X128672Y163627D01*
X129764Y164079D01*
X130702Y164798D01*
X131421Y165736D01*
X131873Y166828D01*
X132028Y168000D01*
X131873Y169172D01*
X131421Y170264D01*
X130702Y171202D01*
X129764Y171921D01*
X128672Y172373D01*
X127500Y172528D01*
D02*
G37*
G36*
X117500D02*
X116328Y172373D01*
X115236Y171921D01*
X114298Y171202D01*
X113579Y170264D01*
X113127Y169172D01*
X112972Y168000D01*
X113127Y166828D01*
X113579Y165736D01*
X114298Y164798D01*
X115236Y164079D01*
X116328Y163627D01*
X117500Y163472D01*
X118672Y163627D01*
X119764Y164079D01*
X120702Y164798D01*
X121421Y165736D01*
X121873Y166828D01*
X122028Y168000D01*
X121873Y169172D01*
X121421Y170264D01*
X120702Y171202D01*
X119764Y171921D01*
X118672Y172373D01*
X117500Y172528D01*
D02*
G37*
G36*
X107500D02*
X106328Y172373D01*
X105236Y171921D01*
X104298Y171202D01*
X103579Y170264D01*
X103127Y169172D01*
X102972Y168000D01*
X103127Y166828D01*
X103579Y165736D01*
X104298Y164798D01*
X105236Y164079D01*
X106328Y163627D01*
X107500Y163472D01*
X108672Y163627D01*
X109764Y164079D01*
X110702Y164798D01*
X111421Y165736D01*
X111873Y166828D01*
X112028Y168000D01*
X111873Y169172D01*
X111421Y170264D01*
X110702Y171202D01*
X109764Y171921D01*
X108672Y172373D01*
X107500Y172528D01*
D02*
G37*
G36*
X97500D02*
X96328Y172373D01*
X95236Y171921D01*
X94298Y171202D01*
X93579Y170264D01*
X93127Y169172D01*
X92972Y168000D01*
X93127Y166828D01*
X93579Y165736D01*
X94298Y164798D01*
X95236Y164079D01*
X96328Y163627D01*
X97500Y163472D01*
X98672Y163627D01*
X99764Y164079D01*
X100702Y164798D01*
X101421Y165736D01*
X101873Y166828D01*
X102028Y168000D01*
X101873Y169172D01*
X101421Y170264D01*
X100702Y171202D01*
X99764Y171921D01*
X98672Y172373D01*
X97500Y172528D01*
D02*
G37*
G36*
X87500D02*
X86328Y172373D01*
X85236Y171921D01*
X84298Y171202D01*
X83579Y170264D01*
X83127Y169172D01*
X82972Y168000D01*
X83127Y166828D01*
X83579Y165736D01*
X84298Y164798D01*
X85236Y164079D01*
X86328Y163627D01*
X87500Y163472D01*
X88672Y163627D01*
X89764Y164079D01*
X90702Y164798D01*
X91421Y165736D01*
X91873Y166828D01*
X92028Y168000D01*
X91873Y169172D01*
X91421Y170264D01*
X90702Y171202D01*
X89764Y171921D01*
X88672Y172373D01*
X87500Y172528D01*
D02*
G37*
G36*
X77500D02*
X76328Y172373D01*
X75236Y171921D01*
X74298Y171202D01*
X73579Y170264D01*
X73127Y169172D01*
X72972Y168000D01*
X73127Y166828D01*
X73579Y165736D01*
X74298Y164798D01*
X75236Y164079D01*
X76328Y163627D01*
X77500Y163472D01*
X78672Y163627D01*
X79764Y164079D01*
X80702Y164798D01*
X81421Y165736D01*
X81873Y166828D01*
X82028Y168000D01*
X81873Y169172D01*
X81421Y170264D01*
X80702Y171202D01*
X79764Y171921D01*
X78672Y172373D01*
X77500Y172528D01*
D02*
G37*
G36*
X67500D02*
X66328Y172373D01*
X65236Y171921D01*
X64298Y171202D01*
X63579Y170264D01*
X63127Y169172D01*
X62972Y168000D01*
X63127Y166828D01*
X63579Y165736D01*
X64298Y164798D01*
X65236Y164079D01*
X66328Y163627D01*
X67500Y163472D01*
X68672Y163627D01*
X69764Y164079D01*
X70702Y164798D01*
X71421Y165736D01*
X71873Y166828D01*
X72028Y168000D01*
X71873Y169172D01*
X71421Y170264D01*
X70702Y171202D01*
X69764Y171921D01*
X68672Y172373D01*
X67500Y172528D01*
D02*
G37*
G36*
X57500D02*
X56328Y172373D01*
X55236Y171921D01*
X54298Y171202D01*
X53579Y170264D01*
X53127Y169172D01*
X52972Y168000D01*
X53127Y166828D01*
X53579Y165736D01*
X54298Y164798D01*
X55236Y164079D01*
X56328Y163627D01*
X57500Y163472D01*
X58672Y163627D01*
X59764Y164079D01*
X60702Y164798D01*
X61421Y165736D01*
X61873Y166828D01*
X62028Y168000D01*
X61873Y169172D01*
X61421Y170264D01*
X60702Y171202D01*
X59764Y171921D01*
X58672Y172373D01*
X57500Y172528D01*
D02*
G37*
G36*
X47500D02*
X46328Y172373D01*
X45236Y171921D01*
X44298Y171202D01*
X43579Y170264D01*
X43127Y169172D01*
X42972Y168000D01*
X43127Y166828D01*
X43579Y165736D01*
X44298Y164798D01*
X45236Y164079D01*
X46328Y163627D01*
X47500Y163472D01*
X48672Y163627D01*
X49764Y164079D01*
X50702Y164798D01*
X51421Y165736D01*
X51873Y166828D01*
X52028Y168000D01*
X51873Y169172D01*
X51421Y170264D01*
X50702Y171202D01*
X49764Y171921D01*
X48672Y172373D01*
X47500Y172528D01*
D02*
G37*
G36*
X277000Y154641D02*
X276181Y154478D01*
X275486Y154014D01*
X275022Y153319D01*
X274859Y152500D01*
X275022Y151681D01*
X275486Y150986D01*
X276181Y150522D01*
X277000Y150359D01*
X277819Y150522D01*
X278514Y150986D01*
X278978Y151681D01*
X279141Y152500D01*
X278978Y153319D01*
X278514Y154014D01*
X277819Y154478D01*
X277000Y154641D01*
D02*
G37*
G36*
X260000D02*
X259181Y154478D01*
X258486Y154014D01*
X258022Y153319D01*
X257859Y152500D01*
X258022Y151681D01*
X258486Y150986D01*
X259181Y150522D01*
X260000Y150359D01*
X260819Y150522D01*
X261514Y150986D01*
X261978Y151681D01*
X262141Y152500D01*
X261978Y153319D01*
X261514Y154014D01*
X260819Y154478D01*
X260000Y154641D01*
D02*
G37*
G36*
X289441Y157510D02*
X286252D01*
X285496Y157411D01*
X284792Y157119D01*
X284188Y156655D01*
X283724Y156050D01*
X283432Y155346D01*
X283332Y154591D01*
Y151402D01*
X283432Y150646D01*
X283724Y149942D01*
X284188Y149337D01*
X284792Y148873D01*
X285496Y148582D01*
X286252Y148482D01*
X289441D01*
X290197Y148582D01*
X290901Y148873D01*
X291505Y149337D01*
X291969Y149942D01*
X292261Y150646D01*
X292360Y151402D01*
Y154591D01*
X292261Y155346D01*
X291969Y156050D01*
X291505Y156655D01*
X290901Y157119D01*
X290197Y157411D01*
X289441Y157510D01*
D02*
G37*
G36*
X214500Y148542D02*
Y147000D01*
X216042D01*
X215978Y147319D01*
X215514Y148014D01*
X214819Y148478D01*
X214500Y148542D01*
D02*
G37*
G36*
X213500D02*
X213181Y148478D01*
X212486Y148014D01*
X212022Y147319D01*
X211958Y147000D01*
X213500D01*
Y148542D01*
D02*
G37*
G36*
X277500Y147542D02*
Y146000D01*
X279042D01*
X278978Y146319D01*
X278514Y147014D01*
X277819Y147478D01*
X277500Y147542D01*
D02*
G37*
G36*
X276500D02*
X276181Y147478D01*
X275486Y147014D01*
X275022Y146319D01*
X274958Y146000D01*
X276500D01*
Y147542D01*
D02*
G37*
G36*
X260500D02*
Y146000D01*
X262042D01*
X261978Y146319D01*
X261514Y147014D01*
X260819Y147478D01*
X260500Y147542D01*
D02*
G37*
G36*
X259500D02*
X259181Y147478D01*
X258486Y147014D01*
X258022Y146319D01*
X257958Y146000D01*
X259500D01*
Y147542D01*
D02*
G37*
G36*
X189000Y146542D02*
Y145000D01*
X190542D01*
X190478Y145319D01*
X190014Y146014D01*
X189319Y146478D01*
X189000Y146542D01*
D02*
G37*
G36*
X188000D02*
X187681Y146478D01*
X186986Y146014D01*
X186522Y145319D01*
X186458Y145000D01*
X188000D01*
Y146542D01*
D02*
G37*
G36*
X182000D02*
Y145000D01*
X183542D01*
X183478Y145319D01*
X183014Y146014D01*
X182319Y146478D01*
X182000Y146542D01*
D02*
G37*
G36*
X181000D02*
X180681Y146478D01*
X179986Y146014D01*
X179522Y145319D01*
X179458Y145000D01*
X181000D01*
Y146542D01*
D02*
G37*
G36*
X216042Y146000D02*
X214500D01*
Y144458D01*
X214819Y144522D01*
X215514Y144986D01*
X215978Y145681D01*
X216042Y146000D01*
D02*
G37*
G36*
X213500D02*
X211958D01*
X212022Y145681D01*
X212486Y144986D01*
X213181Y144522D01*
X213500Y144458D01*
Y146000D01*
D02*
G37*
G36*
X205000Y145042D02*
Y143500D01*
X206542D01*
X206478Y143819D01*
X206014Y144514D01*
X205319Y144978D01*
X205000Y145042D01*
D02*
G37*
G36*
X204000D02*
X203681Y144978D01*
X202986Y144514D01*
X202522Y143819D01*
X202458Y143500D01*
X204000D01*
Y145042D01*
D02*
G37*
G36*
X288347Y147155D02*
Y143496D01*
X292006D01*
X291928Y144090D01*
X291506Y145109D01*
X290834Y145984D01*
X289959Y146655D01*
X288940Y147077D01*
X288347Y147155D01*
D02*
G37*
G36*
X287347Y147155D02*
X286753Y147077D01*
X285734Y146655D01*
X284859Y145984D01*
X284187Y145109D01*
X283765Y144090D01*
X283687Y143496D01*
X287347D01*
Y147155D01*
D02*
G37*
G36*
X279042Y145000D02*
X277500D01*
Y143458D01*
X277819Y143522D01*
X278514Y143986D01*
X278978Y144681D01*
X279042Y145000D01*
D02*
G37*
G36*
X276500D02*
X274958D01*
X275022Y144681D01*
X275486Y143986D01*
X276181Y143522D01*
X276500Y143458D01*
Y145000D01*
D02*
G37*
G36*
X262042D02*
X260500D01*
Y143458D01*
X260819Y143522D01*
X261514Y143986D01*
X261978Y144681D01*
X262042Y145000D01*
D02*
G37*
G36*
X259500D02*
X257958D01*
X258022Y144681D01*
X258486Y143986D01*
X259181Y143522D01*
X259500Y143458D01*
Y145000D01*
D02*
G37*
G36*
X190542Y144000D02*
X189000D01*
Y142458D01*
X189319Y142522D01*
X190014Y142986D01*
X190478Y143681D01*
X190542Y144000D01*
D02*
G37*
G36*
X188000D02*
X186458D01*
X186522Y143681D01*
X186986Y142986D01*
X187681Y142522D01*
X188000Y142458D01*
Y144000D01*
D02*
G37*
G36*
X183542D02*
X182000D01*
Y142458D01*
X182319Y142522D01*
X183014Y142986D01*
X183478Y143681D01*
X183542Y144000D01*
D02*
G37*
G36*
X181000D02*
X179458D01*
X179522Y143681D01*
X179986Y142986D01*
X180681Y142522D01*
X181000Y142458D01*
Y144000D01*
D02*
G37*
G36*
X384500Y156732D02*
X383087Y156593D01*
X381729Y156181D01*
X380477Y155512D01*
X379380Y154612D01*
X378480Y153515D01*
X377811Y152263D01*
X377399Y150905D01*
X377260Y149492D01*
X377399Y148080D01*
X377811Y146721D01*
X378480Y145470D01*
X379380Y144372D01*
X380477Y143472D01*
X381729Y142803D01*
X383087Y142391D01*
X384500Y142252D01*
X385912Y142391D01*
X387271Y142803D01*
X388523Y143472D01*
X389620Y144372D01*
X390520Y145470D01*
X391189Y146721D01*
X391601Y148080D01*
X391740Y149492D01*
X391601Y150905D01*
X391189Y152263D01*
X390520Y153515D01*
X389620Y154612D01*
X388523Y155512D01*
X387271Y156181D01*
X385912Y156593D01*
X384500Y156732D01*
D02*
G37*
G36*
X154000Y143542D02*
Y142000D01*
X155542D01*
X155478Y142319D01*
X155014Y143014D01*
X154319Y143478D01*
X154000Y143542D01*
D02*
G37*
G36*
X153000D02*
X152681Y143478D01*
X151986Y143014D01*
X151522Y142319D01*
X151458Y142000D01*
X153000D01*
Y143542D01*
D02*
G37*
G36*
X272500Y143042D02*
Y141500D01*
X274042D01*
X273978Y141819D01*
X273514Y142514D01*
X272819Y142978D01*
X272500Y143042D01*
D02*
G37*
G36*
X271500D02*
X271181Y142978D01*
X270486Y142514D01*
X270022Y141819D01*
X269958Y141500D01*
X271500D01*
Y143042D01*
D02*
G37*
G36*
X265500D02*
Y141500D01*
X267042D01*
X266978Y141819D01*
X266514Y142514D01*
X265819Y142978D01*
X265500Y143042D01*
D02*
G37*
G36*
X264500D02*
X264181Y142978D01*
X263486Y142514D01*
X263022Y141819D01*
X262958Y141500D01*
X264500D01*
Y143042D01*
D02*
G37*
G36*
X206542Y142500D02*
X205000D01*
Y140958D01*
X205319Y141022D01*
X206014Y141486D01*
X206478Y142181D01*
X206542Y142500D01*
D02*
G37*
G36*
X204000D02*
X202458D01*
X202522Y142181D01*
X202986Y141486D01*
X203681Y141022D01*
X204000Y140958D01*
Y142500D01*
D02*
G37*
G36*
X155542Y141000D02*
X154000D01*
Y139458D01*
X154319Y139522D01*
X155014Y139986D01*
X155478Y140681D01*
X155542Y141000D01*
D02*
G37*
G36*
X153000D02*
X151458D01*
X151522Y140681D01*
X151986Y139986D01*
X152681Y139522D01*
X153000Y139458D01*
Y141000D01*
D02*
G37*
G36*
X161000Y143641D02*
X160181Y143478D01*
X159486Y143014D01*
X159022Y142319D01*
X158859Y141500D01*
X159022Y140681D01*
X159486Y139986D01*
X160181Y139522D01*
X161000Y139359D01*
X161819Y139522D01*
X162514Y139986D01*
X162978Y140681D01*
X163141Y141500D01*
X162978Y142319D01*
X162514Y143014D01*
X161819Y143478D01*
X161000Y143641D01*
D02*
G37*
G36*
X274042Y140500D02*
X272500D01*
Y138958D01*
X272819Y139022D01*
X273514Y139486D01*
X273978Y140181D01*
X274042Y140500D01*
D02*
G37*
G36*
X271500D02*
X269958D01*
X270022Y140181D01*
X270486Y139486D01*
X271181Y139022D01*
X271500Y138958D01*
Y140500D01*
D02*
G37*
G36*
X267042D02*
X265500D01*
Y138958D01*
X265819Y139022D01*
X266514Y139486D01*
X266978Y140181D01*
X267042Y140500D01*
D02*
G37*
G36*
X264500D02*
X262958D01*
X263022Y140181D01*
X263486Y139486D01*
X264181Y139022D01*
X264500Y138958D01*
Y140500D01*
D02*
G37*
G36*
X292006Y142496D02*
X288347D01*
Y138837D01*
X288940Y138915D01*
X289959Y139337D01*
X290834Y140008D01*
X291506Y140884D01*
X291928Y141902D01*
X292006Y142496D01*
D02*
G37*
G36*
X287347D02*
X283687D01*
X283765Y141902D01*
X284187Y140884D01*
X284859Y140008D01*
X285734Y139337D01*
X286753Y138915D01*
X287347Y138837D01*
Y142496D01*
D02*
G37*
G36*
X177000Y135141D02*
X176181Y134978D01*
X175486Y134514D01*
X175022Y133819D01*
X174859Y133000D01*
X175022Y132181D01*
X175486Y131486D01*
X176181Y131022D01*
X177000Y130859D01*
X177819Y131022D01*
X178514Y131486D01*
X178978Y132181D01*
X179141Y133000D01*
X178978Y133819D01*
X178514Y134514D01*
X177819Y134978D01*
X177000Y135141D01*
D02*
G37*
G36*
X287846Y137524D02*
X286675Y137370D01*
X285583Y136917D01*
X284645Y136198D01*
X283925Y135260D01*
X283473Y134168D01*
X283319Y132996D01*
X283473Y131824D01*
X283925Y130732D01*
X284645Y129795D01*
X285583Y129075D01*
X286675Y128623D01*
X287846Y128468D01*
X289018Y128623D01*
X290110Y129075D01*
X291048Y129795D01*
X291768Y130732D01*
X292220Y131824D01*
X292374Y132996D01*
X292220Y134168D01*
X291768Y135260D01*
X291048Y136198D01*
X290110Y136917D01*
X289018Y137370D01*
X287846Y137524D01*
D02*
G37*
G36*
X201500Y129542D02*
Y128000D01*
X203042D01*
X202978Y128319D01*
X202514Y129014D01*
X201819Y129478D01*
X201500Y129542D01*
D02*
G37*
G36*
X200500D02*
X200181Y129478D01*
X199486Y129014D01*
X199022Y128319D01*
X198958Y128000D01*
X200500D01*
Y129542D01*
D02*
G37*
G36*
X9745Y137014D02*
X6555D01*
X5800Y136915D01*
X5096Y136623D01*
X4491Y136159D01*
X4027Y135554D01*
X3735Y134850D01*
X3636Y134095D01*
Y130905D01*
X3735Y130150D01*
X4027Y129446D01*
X4491Y128841D01*
X5096Y128377D01*
X5800Y128085D01*
X6555Y127986D01*
X9745D01*
X10500Y128085D01*
X11204Y128377D01*
X11809Y128841D01*
X12273Y129446D01*
X12564Y130150D01*
X12664Y130905D01*
Y134095D01*
X12564Y134850D01*
X12273Y135554D01*
X11809Y136159D01*
X11204Y136623D01*
X10500Y136915D01*
X9745Y137014D01*
D02*
G37*
G36*
X147000Y131641D02*
X146181Y131478D01*
X145486Y131014D01*
X145022Y130319D01*
X144859Y129500D01*
X145022Y128681D01*
X145486Y127986D01*
X146181Y127522D01*
X147000Y127359D01*
X147819Y127522D01*
X148514Y127986D01*
X148978Y128681D01*
X149141Y129500D01*
X148978Y130319D01*
X148514Y131014D01*
X147819Y131478D01*
X147000Y131641D01*
D02*
G37*
G36*
X177500Y128542D02*
Y127000D01*
X179042D01*
X178978Y127319D01*
X178514Y128014D01*
X177819Y128478D01*
X177500Y128542D01*
D02*
G37*
G36*
X176500D02*
X176181Y128478D01*
X175486Y128014D01*
X175022Y127319D01*
X174958Y127000D01*
X176500D01*
Y128542D01*
D02*
G37*
G36*
X194000Y131141D02*
X193181Y130978D01*
X192486Y130514D01*
X192022Y129819D01*
X191859Y129000D01*
X192022Y128181D01*
X192486Y127486D01*
X193181Y127022D01*
X194000Y126859D01*
X194819Y127022D01*
X195514Y127486D01*
X195978Y128181D01*
X196141Y129000D01*
X195978Y129819D01*
X195514Y130514D01*
X194819Y130978D01*
X194000Y131141D01*
D02*
G37*
G36*
X203042Y127000D02*
X201500D01*
Y125458D01*
X201819Y125522D01*
X202514Y125986D01*
X202978Y126681D01*
X203042Y127000D01*
D02*
G37*
G36*
X200500D02*
X198958D01*
X199022Y126681D01*
X199486Y125986D01*
X200181Y125522D01*
X200500Y125458D01*
Y127000D01*
D02*
G37*
G36*
X179042Y126000D02*
X177500D01*
Y124458D01*
X177819Y124522D01*
X178514Y124986D01*
X178978Y125681D01*
X179042Y126000D01*
D02*
G37*
G36*
X176500D02*
X174958D01*
X175022Y125681D01*
X175486Y124986D01*
X176181Y124522D01*
X176500Y124458D01*
Y126000D01*
D02*
G37*
G36*
X203500Y123542D02*
Y122000D01*
X205042D01*
X204978Y122319D01*
X204514Y123014D01*
X203819Y123478D01*
X203500Y123542D01*
D02*
G37*
G36*
X202500D02*
X202181Y123478D01*
X201486Y123014D01*
X201022Y122319D01*
X200958Y122000D01*
X202500D01*
Y123542D01*
D02*
G37*
G36*
X205042Y121000D02*
X203500D01*
Y119458D01*
X203819Y119522D01*
X204514Y119986D01*
X204978Y120681D01*
X205042Y121000D01*
D02*
G37*
G36*
X202500D02*
X200958D01*
X201022Y120681D01*
X201486Y119986D01*
X202181Y119522D01*
X202500Y119458D01*
Y121000D01*
D02*
G37*
G36*
X287846Y127524D02*
X286675Y127369D01*
X285583Y126917D01*
X284645Y126198D01*
X283925Y125260D01*
X283473Y124168D01*
X283319Y122996D01*
X283473Y121824D01*
X283925Y120732D01*
X284645Y119794D01*
X285583Y119075D01*
X286675Y118623D01*
X287846Y118468D01*
X289018Y118623D01*
X290110Y119075D01*
X291048Y119794D01*
X291768Y120732D01*
X292220Y121824D01*
X292374Y122996D01*
X292220Y124168D01*
X291768Y125260D01*
X291048Y126198D01*
X290110Y126917D01*
X289018Y127369D01*
X287846Y127524D01*
D02*
G37*
G36*
X8150Y127028D02*
X6978Y126873D01*
X5886Y126421D01*
X4948Y125702D01*
X4229Y124764D01*
X3777Y123672D01*
X3622Y122500D01*
X3777Y121328D01*
X4229Y120236D01*
X4948Y119298D01*
X5886Y118579D01*
X6978Y118127D01*
X8150Y117972D01*
X9322Y118127D01*
X10414Y118579D01*
X11352Y119298D01*
X12071Y120236D01*
X12523Y121328D01*
X12678Y122500D01*
X12523Y123672D01*
X12071Y124764D01*
X11352Y125702D01*
X10414Y126421D01*
X9322Y126873D01*
X8150Y127028D01*
D02*
G37*
G36*
X165500Y116542D02*
Y115000D01*
X167042D01*
X166978Y115319D01*
X166514Y116014D01*
X165819Y116478D01*
X165500Y116542D01*
D02*
G37*
G36*
X164500D02*
X164181Y116478D01*
X163486Y116014D01*
X163022Y115319D01*
X162958Y115000D01*
X164500D01*
Y116542D01*
D02*
G37*
G36*
X148500D02*
Y115000D01*
X150042D01*
X149978Y115319D01*
X149514Y116014D01*
X148819Y116478D01*
X148500Y116542D01*
D02*
G37*
G36*
X147500D02*
X147181Y116478D01*
X146486Y116014D01*
X146022Y115319D01*
X145958Y115000D01*
X147500D01*
Y116542D01*
D02*
G37*
G36*
X167042Y114000D02*
X165500D01*
Y112458D01*
X165819Y112522D01*
X166514Y112986D01*
X166978Y113681D01*
X167042Y114000D01*
D02*
G37*
G36*
X164500D02*
X162958D01*
X163022Y113681D01*
X163486Y112986D01*
X164181Y112522D01*
X164500Y112458D01*
Y114000D01*
D02*
G37*
G36*
X150042D02*
X148500D01*
Y112458D01*
X148819Y112522D01*
X149514Y112986D01*
X149978Y113681D01*
X150042Y114000D01*
D02*
G37*
G36*
X147500D02*
X145958D01*
X146022Y113681D01*
X146486Y112986D01*
X147181Y112522D01*
X147500Y112458D01*
Y114000D01*
D02*
G37*
G36*
X205000Y112539D02*
X204220Y112384D01*
X203558Y111942D01*
X203300Y111556D01*
X202700D01*
X202442Y111942D01*
X201780Y112384D01*
X201000Y112539D01*
X200220Y112384D01*
X199558Y111942D01*
X199116Y111280D01*
X198961Y110500D01*
X199116Y109720D01*
X199558Y109058D01*
X200220Y108616D01*
X201000Y108461D01*
X201780Y108616D01*
X202442Y109058D01*
X202700Y109444D01*
X203300D01*
X203558Y109058D01*
X204220Y108616D01*
X205000Y108461D01*
X205780Y108616D01*
X206442Y109058D01*
X206884Y109720D01*
X207039Y110500D01*
X206884Y111280D01*
X206442Y111942D01*
X205780Y112384D01*
X205000Y112539D01*
D02*
G37*
G36*
X33150Y112042D02*
Y110500D01*
X34692D01*
X34628Y110819D01*
X34164Y111514D01*
X33469Y111978D01*
X33150Y112042D01*
D02*
G37*
G36*
X32150D02*
X31831Y111978D01*
X31136Y111514D01*
X30672Y110819D01*
X30608Y110500D01*
X32150D01*
Y112042D01*
D02*
G37*
G36*
X287846Y117524D02*
X286675Y117369D01*
X285583Y116917D01*
X284645Y116198D01*
X283925Y115260D01*
X283473Y114168D01*
X283319Y112996D01*
X283473Y111824D01*
X283925Y110732D01*
X284645Y109794D01*
X285583Y109075D01*
X286675Y108623D01*
X287846Y108468D01*
X289018Y108623D01*
X290110Y109075D01*
X291048Y109794D01*
X291768Y110732D01*
X292220Y111824D01*
X292374Y112996D01*
X292220Y114168D01*
X291768Y115260D01*
X291048Y116198D01*
X290110Y116917D01*
X289018Y117369D01*
X287846Y117524D01*
D02*
G37*
G36*
X187500Y112539D02*
X186720Y112384D01*
X186058Y111942D01*
X185616Y111280D01*
X185461Y110500D01*
X185616Y109720D01*
X186058Y109058D01*
X186720Y108616D01*
X187500Y108461D01*
X188280Y108616D01*
X188942Y109058D01*
X189384Y109720D01*
X189539Y110500D01*
X189384Y111280D01*
X188942Y111942D01*
X188280Y112384D01*
X187500Y112539D01*
D02*
G37*
G36*
X34692Y109500D02*
X33150D01*
Y107958D01*
X33469Y108022D01*
X34164Y108486D01*
X34628Y109181D01*
X34692Y109500D01*
D02*
G37*
G36*
X32150D02*
X30608D01*
X30672Y109181D01*
X31136Y108486D01*
X31831Y108022D01*
X32150Y107958D01*
Y109500D01*
D02*
G37*
G36*
X25650Y108542D02*
Y107000D01*
X27192D01*
X27128Y107319D01*
X26664Y108014D01*
X25969Y108478D01*
X25650Y108542D01*
D02*
G37*
G36*
X24650D02*
X24331Y108478D01*
X23636Y108014D01*
X23172Y107319D01*
X23108Y107000D01*
X24650D01*
Y108542D01*
D02*
G37*
G36*
X18650D02*
Y107000D01*
X20192D01*
X20128Y107319D01*
X19664Y108014D01*
X18969Y108478D01*
X18650Y108542D01*
D02*
G37*
G36*
X17650D02*
X17331Y108478D01*
X16636Y108014D01*
X16172Y107319D01*
X16108Y107000D01*
X17650D01*
Y108542D01*
D02*
G37*
G36*
X200500Y107542D02*
Y106000D01*
X202042D01*
X201978Y106319D01*
X201514Y107014D01*
X200819Y107478D01*
X200500Y107542D01*
D02*
G37*
G36*
X199500D02*
X199181Y107478D01*
X198486Y107014D01*
X198022Y106319D01*
X197958Y106000D01*
X199500D01*
Y107542D01*
D02*
G37*
G36*
X193000D02*
Y106000D01*
X194542D01*
X194478Y106319D01*
X194014Y107014D01*
X193319Y107478D01*
X193000Y107542D01*
D02*
G37*
G36*
X192000D02*
X191681Y107478D01*
X190986Y107014D01*
X190522Y106319D01*
X190458Y106000D01*
X192000D01*
Y107542D01*
D02*
G37*
G36*
X239500Y110090D02*
X238681Y109927D01*
X237986Y109463D01*
X237522Y108768D01*
X237359Y107949D01*
X237522Y107129D01*
X237986Y106435D01*
X238681Y105971D01*
X239500Y105808D01*
X240319Y105971D01*
X241014Y106435D01*
X241478Y107129D01*
X241641Y107949D01*
X241478Y108768D01*
X241014Y109463D01*
X240319Y109927D01*
X239500Y110090D01*
D02*
G37*
G36*
X171500Y109641D02*
X170681Y109478D01*
X169986Y109014D01*
X169522Y108319D01*
X169359Y107500D01*
X169522Y106681D01*
X169986Y105986D01*
X170681Y105522D01*
X171500Y105359D01*
X172319Y105522D01*
X173014Y105986D01*
X173478Y106681D01*
X173641Y107500D01*
X173478Y108319D01*
X173014Y109014D01*
X172319Y109478D01*
X171500Y109641D01*
D02*
G37*
G36*
X148000D02*
X147181Y109478D01*
X146486Y109014D01*
X146022Y108319D01*
X145859Y107500D01*
X146022Y106681D01*
X146486Y105986D01*
X147181Y105522D01*
X148000Y105359D01*
X148819Y105522D01*
X149514Y105986D01*
X149978Y106681D01*
X150141Y107500D01*
X149978Y108319D01*
X149514Y109014D01*
X148819Y109478D01*
X148000Y109641D01*
D02*
G37*
G36*
X27192Y106000D02*
X25650D01*
Y104458D01*
X25969Y104522D01*
X26664Y104986D01*
X27128Y105681D01*
X27192Y106000D01*
D02*
G37*
G36*
X24650D02*
X23108D01*
X23172Y105681D01*
X23636Y104986D01*
X24331Y104522D01*
X24650Y104458D01*
Y106000D01*
D02*
G37*
G36*
X20192D02*
X18650D01*
Y104458D01*
X18969Y104522D01*
X19664Y104986D01*
X20128Y105681D01*
X20192Y106000D01*
D02*
G37*
G36*
X17650D02*
X16108D01*
X16172Y105681D01*
X16636Y104986D01*
X17331Y104522D01*
X17650Y104458D01*
Y106000D01*
D02*
G37*
G36*
X8650Y107659D02*
Y104000D01*
X12309D01*
X12231Y104594D01*
X11809Y105613D01*
X11138Y106488D01*
X10263Y107159D01*
X9244Y107581D01*
X8650Y107659D01*
D02*
G37*
G36*
X7650D02*
X7057Y107581D01*
X6037Y107159D01*
X5162Y106488D01*
X4491Y105613D01*
X4069Y104594D01*
X3991Y104000D01*
X7650D01*
Y107659D01*
D02*
G37*
G36*
X33150Y105042D02*
Y103500D01*
X34692D01*
X34628Y103819D01*
X34164Y104514D01*
X33469Y104978D01*
X33150Y105042D01*
D02*
G37*
G36*
X32150D02*
X31831Y104978D01*
X31136Y104514D01*
X30672Y103819D01*
X30608Y103500D01*
X32150D01*
Y105042D01*
D02*
G37*
G36*
X202042Y105000D02*
X200500D01*
Y103458D01*
X200819Y103522D01*
X201514Y103986D01*
X201978Y104681D01*
X202042Y105000D01*
D02*
G37*
G36*
X199500D02*
X197958D01*
X198022Y104681D01*
X198486Y103986D01*
X199181Y103522D01*
X199500Y103458D01*
Y105000D01*
D02*
G37*
G36*
X194542D02*
X193000D01*
Y103458D01*
X193319Y103522D01*
X194014Y103986D01*
X194478Y104681D01*
X194542Y105000D01*
D02*
G37*
G36*
X192000D02*
X190458D01*
X190522Y104681D01*
X190986Y103986D01*
X191681Y103522D01*
X192000Y103458D01*
Y105000D01*
D02*
G37*
G36*
X234500Y107641D02*
X233681Y107478D01*
X232986Y107014D01*
X232522Y106319D01*
X232359Y105500D01*
X232522Y104681D01*
X232986Y103986D01*
X233681Y103522D01*
X234500Y103359D01*
X235319Y103522D01*
X236014Y103986D01*
X236478Y104681D01*
X236641Y105500D01*
X236478Y106319D01*
X236014Y107014D01*
X235319Y107478D01*
X234500Y107641D01*
D02*
G37*
G36*
X217500Y108141D02*
X216681Y107978D01*
X215986Y107514D01*
X215522Y106819D01*
X215359Y106000D01*
X215522Y105181D01*
X215986Y104486D01*
X216681Y104022D01*
X217087Y103941D01*
X217313Y103386D01*
X217053Y102996D01*
X217048Y102972D01*
X216492Y102742D01*
X216280Y102884D01*
X215500Y103039D01*
X214720Y102884D01*
X214058Y102442D01*
X213616Y101780D01*
X213461Y101000D01*
X213616Y100220D01*
X214058Y99558D01*
X214720Y99116D01*
X215500Y98961D01*
X215528Y98966D01*
X215881Y98613D01*
X215859Y98500D01*
X216022Y97681D01*
X216486Y96986D01*
X217181Y96522D01*
X217500Y96458D01*
Y98500D01*
X218000D01*
Y99000D01*
X220042D01*
X219978Y99319D01*
X219651Y99809D01*
X219674Y99994D01*
X219787Y100362D01*
X219814Y100397D01*
X220378Y100774D01*
X220820Y101435D01*
X220976Y102216D01*
X220820Y102996D01*
X220378Y103657D01*
X219717Y104100D01*
X219370Y104168D01*
X219169Y104718D01*
X219478Y105181D01*
X219641Y106000D01*
X219478Y106819D01*
X219014Y107514D01*
X218319Y107978D01*
X217500Y108141D01*
D02*
G37*
G36*
X34692Y102500D02*
X33150D01*
Y100958D01*
X33469Y101022D01*
X34164Y101486D01*
X34628Y102181D01*
X34692Y102500D01*
D02*
G37*
G36*
X32150D02*
X30608D01*
X30672Y102181D01*
X31136Y101486D01*
X31831Y101022D01*
X32150Y100958D01*
Y102500D01*
D02*
G37*
G36*
X12309Y103000D02*
X8650D01*
Y99341D01*
X9244Y99419D01*
X10263Y99841D01*
X11138Y100512D01*
X11809Y101387D01*
X12231Y102407D01*
X12309Y103000D01*
D02*
G37*
G36*
X7650D02*
X3991D01*
X4069Y102407D01*
X4491Y101387D01*
X5162Y100512D01*
X6037Y99841D01*
X7057Y99419D01*
X7650Y99341D01*
Y103000D01*
D02*
G37*
G36*
X236000Y100542D02*
Y99000D01*
X237542D01*
X237478Y99319D01*
X237014Y100014D01*
X236319Y100478D01*
X236000Y100542D01*
D02*
G37*
G36*
X235000D02*
X234681Y100478D01*
X233986Y100014D01*
X233522Y99319D01*
X233458Y99000D01*
X235000D01*
Y100542D01*
D02*
G37*
G36*
X200500Y100042D02*
Y98500D01*
X202042D01*
X201978Y98819D01*
X201514Y99514D01*
X200819Y99978D01*
X200500Y100042D01*
D02*
G37*
G36*
X199500D02*
X199181Y99978D01*
X198486Y99514D01*
X198022Y98819D01*
X197958Y98500D01*
X199500D01*
Y100042D01*
D02*
G37*
G36*
X193000D02*
Y98500D01*
X194542D01*
X194478Y98819D01*
X194014Y99514D01*
X193319Y99978D01*
X193000Y100042D01*
D02*
G37*
G36*
X192000D02*
X191681Y99978D01*
X190986Y99514D01*
X190522Y98819D01*
X190458Y98500D01*
X192000D01*
Y100042D01*
D02*
G37*
G36*
X287846Y107524D02*
X286675Y107369D01*
X285583Y106917D01*
X284645Y106198D01*
X283925Y105260D01*
X283473Y104168D01*
X283319Y102996D01*
X283473Y101824D01*
X283925Y100732D01*
X284645Y99795D01*
X285583Y99075D01*
X286675Y98623D01*
X287846Y98468D01*
X289018Y98623D01*
X290110Y99075D01*
X291048Y99795D01*
X291768Y100732D01*
X292220Y101824D01*
X292374Y102996D01*
X292220Y104168D01*
X291768Y105260D01*
X291048Y106198D01*
X290110Y106917D01*
X289018Y107369D01*
X287846Y107524D01*
D02*
G37*
G36*
X33150Y98042D02*
Y96500D01*
X34692D01*
X34628Y96819D01*
X34164Y97514D01*
X33469Y97978D01*
X33150Y98042D01*
D02*
G37*
G36*
X32150D02*
X31831Y97978D01*
X31136Y97514D01*
X30672Y96819D01*
X30608Y96500D01*
X32150D01*
Y98042D01*
D02*
G37*
G36*
X237542Y98000D02*
X236000D01*
Y96458D01*
X236319Y96522D01*
X237014Y96986D01*
X237478Y97681D01*
X237542Y98000D01*
D02*
G37*
G36*
X235000D02*
X233458D01*
X233522Y97681D01*
X233986Y96986D01*
X234681Y96522D01*
X235000Y96458D01*
Y98000D01*
D02*
G37*
G36*
X220042D02*
X218500D01*
Y96458D01*
X218819Y96522D01*
X219514Y96986D01*
X219978Y97681D01*
X220042Y98000D01*
D02*
G37*
G36*
X202042Y97500D02*
X200500D01*
Y95958D01*
X200819Y96022D01*
X201514Y96486D01*
X201978Y97181D01*
X202042Y97500D01*
D02*
G37*
G36*
X199500D02*
X197958D01*
X198022Y97181D01*
X198486Y96486D01*
X199181Y96022D01*
X199500Y95958D01*
Y97500D01*
D02*
G37*
G36*
X194542D02*
X193000D01*
Y95958D01*
X193319Y96022D01*
X194014Y96486D01*
X194478Y97181D01*
X194542Y97500D01*
D02*
G37*
G36*
X192000D02*
X190458D01*
X190522Y97181D01*
X190986Y96486D01*
X191681Y96022D01*
X192000Y95958D01*
Y97500D01*
D02*
G37*
G36*
X205000Y107039D02*
X204220Y106884D01*
X203558Y106442D01*
X203116Y105780D01*
X202961Y105000D01*
X203116Y104220D01*
X203558Y103558D01*
X203944Y103300D01*
Y102700D01*
X203558Y102442D01*
X203116Y101780D01*
X202961Y101000D01*
X203116Y100220D01*
X203558Y99558D01*
X203645Y99500D01*
Y99000D01*
X203558Y98942D01*
X203116Y98280D01*
X202961Y97500D01*
X203116Y96720D01*
X203558Y96058D01*
X204220Y95616D01*
X205000Y95461D01*
X205780Y95616D01*
X206442Y96058D01*
X206884Y96720D01*
X207039Y97500D01*
X206884Y98280D01*
X206442Y98942D01*
X206355Y99000D01*
Y99500D01*
X206442Y99558D01*
X206884Y100220D01*
X207039Y101000D01*
X206884Y101780D01*
X206442Y102442D01*
X206056Y102700D01*
Y103300D01*
X206442Y103558D01*
X206884Y104220D01*
X207039Y105000D01*
X206884Y105780D01*
X206442Y106442D01*
X205780Y106884D01*
X205000Y107039D01*
D02*
G37*
G36*
X64229Y95977D02*
Y94130D01*
X66076D01*
X65990Y94566D01*
X65459Y95360D01*
X64665Y95890D01*
X64229Y95977D01*
D02*
G37*
G36*
X63229D02*
X62792Y95890D01*
X61999Y95360D01*
X61468Y94566D01*
X61381Y94130D01*
X63229D01*
Y95977D01*
D02*
G37*
G36*
X34692Y95500D02*
X33150D01*
Y93958D01*
X33469Y94022D01*
X34164Y94486D01*
X34628Y95181D01*
X34692Y95500D01*
D02*
G37*
G36*
X32150D02*
X30608D01*
X30672Y95181D01*
X31136Y94486D01*
X31831Y94022D01*
X32150Y93958D01*
Y95500D01*
D02*
G37*
G36*
X66076Y93129D02*
X64229D01*
Y91282D01*
X64665Y91369D01*
X65459Y91899D01*
X65990Y92693D01*
X66076Y93129D01*
D02*
G37*
G36*
X63229D02*
X61381D01*
X61468Y92693D01*
X61999Y91899D01*
X62792Y91369D01*
X63229Y91282D01*
Y93129D01*
D02*
G37*
G36*
X203500Y95039D02*
X202720Y94884D01*
X202058Y94442D01*
X201616Y93780D01*
X201461Y93000D01*
X201616Y92220D01*
X202058Y91558D01*
X202720Y91116D01*
X203500Y90961D01*
X204280Y91116D01*
X204942Y91558D01*
X205384Y92220D01*
X205539Y93000D01*
X205384Y93780D01*
X204942Y94442D01*
X204280Y94884D01*
X203500Y95039D01*
D02*
G37*
G36*
X9745Y98014D02*
X6555D01*
X5800Y97914D01*
X5096Y97623D01*
X4491Y97159D01*
X4027Y96554D01*
X3735Y95850D01*
X3636Y95095D01*
Y91905D01*
X3735Y91150D01*
X4027Y90446D01*
X4491Y89841D01*
X5096Y89377D01*
X5800Y89086D01*
X6555Y88986D01*
X9745D01*
X10500Y89086D01*
X11204Y89377D01*
X11809Y89841D01*
X12273Y90446D01*
X12564Y91150D01*
X12664Y91905D01*
Y95095D01*
X12564Y95850D01*
X12273Y96554D01*
X11809Y97159D01*
X11204Y97623D01*
X10500Y97914D01*
X9745Y98014D01*
D02*
G37*
G36*
X287846Y97524D02*
X286675Y97369D01*
X285583Y96917D01*
X284645Y96198D01*
X283925Y95260D01*
X283473Y94168D01*
X283319Y92996D01*
X283473Y91824D01*
X283925Y90732D01*
X284645Y89794D01*
X285583Y89075D01*
X286675Y88623D01*
X287846Y88468D01*
X289018Y88623D01*
X290110Y89075D01*
X291048Y89794D01*
X291768Y90732D01*
X292220Y91824D01*
X292374Y92996D01*
X292220Y94168D01*
X291768Y95260D01*
X291048Y96198D01*
X290110Y96917D01*
X289018Y97369D01*
X287846Y97524D01*
D02*
G37*
G36*
X265000Y92539D02*
X264220Y92384D01*
X263558Y91942D01*
X263116Y91280D01*
X262961Y90500D01*
X263116Y89720D01*
X263558Y89058D01*
X264220Y88616D01*
X265000Y88461D01*
X265780Y88616D01*
X266442Y89058D01*
X266884Y89720D01*
X267039Y90500D01*
X266884Y91280D01*
X266442Y91942D01*
X265780Y92384D01*
X265000Y92539D01*
D02*
G37*
G36*
X256000D02*
X255220Y92384D01*
X254558Y91942D01*
X254116Y91280D01*
X253961Y90500D01*
X254116Y89720D01*
X254558Y89058D01*
X255220Y88616D01*
X256000Y88461D01*
X256780Y88616D01*
X257442Y89058D01*
X257884Y89720D01*
X258039Y90500D01*
X257884Y91280D01*
X257442Y91942D01*
X256780Y92384D01*
X256000Y92539D01*
D02*
G37*
G36*
X247000Y92641D02*
X246181Y92478D01*
X245486Y92014D01*
X245022Y91319D01*
X244859Y90500D01*
X245022Y89681D01*
X245486Y88986D01*
X246181Y88522D01*
X247000Y88359D01*
X247819Y88522D01*
X248514Y88986D01*
X248978Y89681D01*
X249141Y90500D01*
X248978Y91319D01*
X248514Y92014D01*
X247819Y92478D01*
X247000Y92641D01*
D02*
G37*
G36*
X238000D02*
X237181Y92478D01*
X236486Y92014D01*
X236022Y91319D01*
X235859Y90500D01*
X236022Y89681D01*
X236486Y88986D01*
X237181Y88522D01*
X238000Y88359D01*
X238819Y88522D01*
X239514Y88986D01*
X239978Y89681D01*
X240141Y90500D01*
X239978Y91319D01*
X239514Y92014D01*
X238819Y92478D01*
X238000Y92641D01*
D02*
G37*
G36*
X232000D02*
X231181Y92478D01*
X230486Y92014D01*
X230022Y91319D01*
X229859Y90500D01*
X230022Y89681D01*
X230486Y88986D01*
X231181Y88522D01*
X232000Y88359D01*
X232819Y88522D01*
X233514Y88986D01*
X233978Y89681D01*
X234141Y90500D01*
X233978Y91319D01*
X233514Y92014D01*
X232819Y92478D01*
X232000Y92641D01*
D02*
G37*
G36*
X215500D02*
X214681Y92478D01*
X213986Y92014D01*
X213522Y91319D01*
X213359Y90500D01*
X213522Y89681D01*
X213986Y88986D01*
X214681Y88522D01*
X215500Y88359D01*
X216319Y88522D01*
X217014Y88986D01*
X217478Y89681D01*
X217641Y90500D01*
X217478Y91319D01*
X217014Y92014D01*
X216319Y92478D01*
X215500Y92641D01*
D02*
G37*
G36*
X176000D02*
X175181Y92478D01*
X174486Y92014D01*
X174022Y91319D01*
X173859Y90500D01*
X174022Y89681D01*
X174486Y88986D01*
X175181Y88522D01*
X176000Y88359D01*
X176819Y88522D01*
X177514Y88986D01*
X177978Y89681D01*
X178141Y90500D01*
X177978Y91319D01*
X177514Y92014D01*
X176819Y92478D01*
X176000Y92641D01*
D02*
G37*
G36*
X43650Y89042D02*
Y87500D01*
X45192D01*
X45128Y87819D01*
X44664Y88514D01*
X43969Y88978D01*
X43650Y89042D01*
D02*
G37*
G36*
X42650D02*
X42331Y88978D01*
X41636Y88514D01*
X41172Y87819D01*
X41108Y87500D01*
X42650D01*
Y89042D01*
D02*
G37*
G36*
X36650D02*
Y87500D01*
X38192D01*
X38128Y87819D01*
X37664Y88514D01*
X36969Y88978D01*
X36650Y89042D01*
D02*
G37*
G36*
X35650D02*
X35331Y88978D01*
X34636Y88514D01*
X34172Y87819D01*
X34108Y87500D01*
X35650D01*
Y89042D01*
D02*
G37*
G36*
X29650D02*
Y87500D01*
X31192D01*
X31128Y87819D01*
X30664Y88514D01*
X29969Y88978D01*
X29650Y89042D01*
D02*
G37*
G36*
X28650D02*
X28331Y88978D01*
X27636Y88514D01*
X27172Y87819D01*
X27108Y87500D01*
X28650D01*
Y89042D01*
D02*
G37*
G36*
X169000Y91141D02*
X168181Y90978D01*
X167486Y90514D01*
X167022Y89819D01*
X166859Y89000D01*
X167022Y88181D01*
X167486Y87486D01*
X168181Y87022D01*
X169000Y86859D01*
X169819Y87022D01*
X170514Y87486D01*
X170978Y88181D01*
X171141Y89000D01*
X170978Y89819D01*
X170514Y90514D01*
X169819Y90978D01*
X169000Y91141D01*
D02*
G37*
G36*
X145500D02*
X144681Y90978D01*
X143986Y90514D01*
X143522Y89819D01*
X143359Y89000D01*
X143522Y88181D01*
X143986Y87486D01*
X144681Y87022D01*
X145500Y86859D01*
X146319Y87022D01*
X147014Y87486D01*
X147478Y88181D01*
X147641Y89000D01*
X147478Y89819D01*
X147014Y90514D01*
X146319Y90978D01*
X145500Y91141D01*
D02*
G37*
G36*
X45192Y86500D02*
X43650D01*
Y84958D01*
X43969Y85022D01*
X44664Y85486D01*
X45128Y86181D01*
X45192Y86500D01*
D02*
G37*
G36*
X42650D02*
X41108D01*
X41172Y86181D01*
X41636Y85486D01*
X42331Y85022D01*
X42650Y84958D01*
Y86500D01*
D02*
G37*
G36*
X38192D02*
X36650D01*
Y84958D01*
X36969Y85022D01*
X37664Y85486D01*
X38128Y86181D01*
X38192Y86500D01*
D02*
G37*
G36*
X35650D02*
X34108D01*
X34172Y86181D01*
X34636Y85486D01*
X35331Y85022D01*
X35650Y84958D01*
Y86500D01*
D02*
G37*
G36*
X31192D02*
X29650D01*
Y84958D01*
X29969Y85022D01*
X30664Y85486D01*
X31128Y86181D01*
X31192Y86500D01*
D02*
G37*
G36*
X28650D02*
X27108D01*
X27172Y86181D01*
X27636Y85486D01*
X28331Y85022D01*
X28650Y84958D01*
Y86500D01*
D02*
G37*
G36*
X232000Y85542D02*
Y84000D01*
X233542D01*
X233478Y84319D01*
X233014Y85014D01*
X232319Y85478D01*
X232000Y85542D01*
D02*
G37*
G36*
X231000D02*
X230681Y85478D01*
X229986Y85014D01*
X229522Y84319D01*
X229458Y84000D01*
X231000D01*
Y85542D01*
D02*
G37*
G36*
X10650Y84848D02*
Y83000D01*
X12498D01*
X12411Y83436D01*
X11880Y84230D01*
X11086Y84761D01*
X10650Y84848D01*
D02*
G37*
G36*
X9650D02*
X9214Y84761D01*
X8420Y84230D01*
X7889Y83436D01*
X7802Y83000D01*
X9650D01*
Y84848D01*
D02*
G37*
G36*
X233542Y83000D02*
X232000D01*
Y81458D01*
X232319Y81522D01*
X233014Y81986D01*
X233478Y82681D01*
X233542Y83000D01*
D02*
G37*
G36*
X231000D02*
X229458D01*
X229522Y82681D01*
X229986Y81986D01*
X230681Y81522D01*
X231000Y81458D01*
Y83000D01*
D02*
G37*
G36*
X12498Y82000D02*
X10650D01*
Y80152D01*
X11086Y80239D01*
X11880Y80770D01*
X12411Y81564D01*
X12498Y82000D01*
D02*
G37*
G36*
X9650D02*
X7802D01*
X7889Y81564D01*
X8420Y80770D01*
X9214Y80239D01*
X9650Y80152D01*
Y82000D01*
D02*
G37*
G36*
X20500Y81542D02*
Y80000D01*
X22042D01*
X21978Y80319D01*
X21514Y81014D01*
X20819Y81478D01*
X20500Y81542D01*
D02*
G37*
G36*
X19500D02*
X19181Y81478D01*
X18486Y81014D01*
X18022Y80319D01*
X17958Y80000D01*
X19500D01*
Y81542D01*
D02*
G37*
G36*
X227500Y81042D02*
Y79500D01*
X229042D01*
X228978Y79819D01*
X228514Y80514D01*
X227819Y80978D01*
X227500Y81042D01*
D02*
G37*
G36*
X226500D02*
X226181Y80978D01*
X225486Y80514D01*
X225022Y79819D01*
X224958Y79500D01*
X226500D01*
Y81042D01*
D02*
G37*
G36*
X220500D02*
Y79500D01*
X222042D01*
X221978Y79819D01*
X221514Y80514D01*
X220819Y80978D01*
X220500Y81042D01*
D02*
G37*
G36*
X219500D02*
X219181Y80978D01*
X218486Y80514D01*
X218022Y79819D01*
X217958Y79500D01*
X219500D01*
Y81042D01*
D02*
G37*
G36*
X384500Y93740D02*
X383087Y93601D01*
X381729Y93189D01*
X380477Y92520D01*
X379380Y91620D01*
X378480Y90522D01*
X377811Y89271D01*
X377399Y87912D01*
X377260Y86500D01*
X377399Y85088D01*
X377811Y83729D01*
X378480Y82477D01*
X379380Y81380D01*
X380477Y80480D01*
X381729Y79811D01*
X383087Y79399D01*
X384500Y79260D01*
X385912Y79399D01*
X387271Y79811D01*
X388523Y80480D01*
X389620Y81380D01*
X390520Y82477D01*
X391189Y83729D01*
X391601Y85088D01*
X391740Y86500D01*
X391601Y87912D01*
X391189Y89271D01*
X390520Y90522D01*
X389620Y91620D01*
X388523Y92520D01*
X387271Y93189D01*
X385912Y93601D01*
X384500Y93740D01*
D02*
G37*
G36*
X287846Y87524D02*
X286675Y87370D01*
X285583Y86917D01*
X284645Y86198D01*
X283925Y85260D01*
X283473Y84168D01*
X283319Y82996D01*
X283473Y81824D01*
X283925Y80732D01*
X284645Y79795D01*
X285583Y79075D01*
X286675Y78623D01*
X287846Y78468D01*
X289018Y78623D01*
X290110Y79075D01*
X291048Y79795D01*
X291768Y80732D01*
X292220Y81824D01*
X292374Y82996D01*
X292220Y84168D01*
X291768Y85260D01*
X291048Y86198D01*
X290110Y86917D01*
X289018Y87370D01*
X287846Y87524D01*
D02*
G37*
G36*
X171500Y79542D02*
Y78000D01*
X173042D01*
X172978Y78319D01*
X172514Y79014D01*
X171819Y79478D01*
X171500Y79542D01*
D02*
G37*
G36*
X170500D02*
X170181Y79478D01*
X169486Y79014D01*
X169022Y78319D01*
X168958Y78000D01*
X170500D01*
Y79542D01*
D02*
G37*
G36*
X165000D02*
Y78000D01*
X166542D01*
X166478Y78319D01*
X166014Y79014D01*
X165319Y79478D01*
X165000Y79542D01*
D02*
G37*
G36*
X164000D02*
X163681Y79478D01*
X162986Y79014D01*
X162522Y78319D01*
X162458Y78000D01*
X164000D01*
Y79542D01*
D02*
G37*
G36*
X158000D02*
Y78000D01*
X159542D01*
X159478Y78319D01*
X159014Y79014D01*
X158319Y79478D01*
X158000Y79542D01*
D02*
G37*
G36*
X157000D02*
X156681Y79478D01*
X155986Y79014D01*
X155522Y78319D01*
X155458Y78000D01*
X157000D01*
Y79542D01*
D02*
G37*
G36*
X151000D02*
Y78000D01*
X152542D01*
X152478Y78319D01*
X152014Y79014D01*
X151319Y79478D01*
X151000Y79542D01*
D02*
G37*
G36*
X150000D02*
X149681Y79478D01*
X148986Y79014D01*
X148522Y78319D01*
X148458Y78000D01*
X150000D01*
Y79542D01*
D02*
G37*
G36*
X22042Y79000D02*
X20500D01*
Y77458D01*
X20819Y77522D01*
X21514Y77986D01*
X21978Y78681D01*
X22042Y79000D01*
D02*
G37*
G36*
X19500D02*
X17958D01*
X18022Y78681D01*
X18486Y77986D01*
X19181Y77522D01*
X19500Y77458D01*
Y79000D01*
D02*
G37*
G36*
X195000Y81641D02*
X194181Y81478D01*
X193486Y81014D01*
X193022Y80319D01*
X192859Y79500D01*
X193022Y78681D01*
X193486Y77986D01*
X194181Y77522D01*
X195000Y77359D01*
X195819Y77522D01*
X196514Y77986D01*
X196978Y78681D01*
X197141Y79500D01*
X196978Y80319D01*
X196514Y81014D01*
X195819Y81478D01*
X195000Y81641D01*
D02*
G37*
G36*
X229042Y78500D02*
X227500D01*
Y76958D01*
X227819Y77022D01*
X228514Y77486D01*
X228978Y78181D01*
X229042Y78500D01*
D02*
G37*
G36*
X226500D02*
X224958D01*
X225022Y78181D01*
X225486Y77486D01*
X226181Y77022D01*
X226500Y76958D01*
Y78500D01*
D02*
G37*
G36*
X222042D02*
X220500D01*
Y76958D01*
X220819Y77022D01*
X221514Y77486D01*
X221978Y78181D01*
X222042Y78500D01*
D02*
G37*
G36*
X219500D02*
X217958D01*
X218022Y78181D01*
X218486Y77486D01*
X219181Y77022D01*
X219500Y76958D01*
Y78500D01*
D02*
G37*
G36*
X173042Y77000D02*
X171500D01*
Y75458D01*
X171819Y75522D01*
X172514Y75986D01*
X172978Y76681D01*
X173042Y77000D01*
D02*
G37*
G36*
X170500D02*
X168958D01*
X169022Y76681D01*
X169486Y75986D01*
X170181Y75522D01*
X170500Y75458D01*
Y77000D01*
D02*
G37*
G36*
X166542D02*
X165000D01*
Y75458D01*
X165319Y75522D01*
X166014Y75986D01*
X166478Y76681D01*
X166542Y77000D01*
D02*
G37*
G36*
X164000D02*
X162458D01*
X162522Y76681D01*
X162986Y75986D01*
X163681Y75522D01*
X164000Y75458D01*
Y77000D01*
D02*
G37*
G36*
X159542D02*
X158000D01*
Y75458D01*
X158319Y75522D01*
X159014Y75986D01*
X159478Y76681D01*
X159542Y77000D01*
D02*
G37*
G36*
X157000D02*
X155458D01*
X155522Y76681D01*
X155986Y75986D01*
X156681Y75522D01*
X157000Y75458D01*
Y77000D01*
D02*
G37*
G36*
X152542D02*
X151000D01*
Y75458D01*
X151319Y75522D01*
X152014Y75986D01*
X152478Y76681D01*
X152542Y77000D01*
D02*
G37*
G36*
X150000D02*
X148458D01*
X148522Y76681D01*
X148986Y75986D01*
X149681Y75522D01*
X150000Y75458D01*
Y77000D01*
D02*
G37*
G36*
X211000Y72542D02*
Y71000D01*
X212542D01*
X212478Y71319D01*
X212014Y72014D01*
X211319Y72478D01*
X211000Y72542D01*
D02*
G37*
G36*
X210000D02*
X209681Y72478D01*
X208986Y72014D01*
X208522Y71319D01*
X208458Y71000D01*
X210000D01*
Y72542D01*
D02*
G37*
G36*
X184500Y73641D02*
X183681Y73478D01*
X182986Y73014D01*
X182522Y72319D01*
X182359Y71500D01*
X182522Y70681D01*
X182986Y69986D01*
X183681Y69522D01*
X184500Y69359D01*
X185319Y69522D01*
X186014Y69986D01*
X186478Y70681D01*
X186641Y71500D01*
X186478Y72319D01*
X186014Y73014D01*
X185319Y73478D01*
X184500Y73641D01*
D02*
G37*
G36*
X212542Y70000D02*
X211000D01*
Y68458D01*
X211319Y68522D01*
X212014Y68986D01*
X212478Y69681D01*
X212542Y70000D01*
D02*
G37*
G36*
X210000D02*
X208458D01*
X208522Y69681D01*
X208986Y68986D01*
X209681Y68522D01*
X210000Y68458D01*
Y70000D01*
D02*
G37*
G36*
X233000Y69042D02*
Y67500D01*
X234542D01*
X234478Y67819D01*
X234014Y68514D01*
X233319Y68978D01*
X233000Y69042D01*
D02*
G37*
G36*
X232000D02*
X231681Y68978D01*
X230986Y68514D01*
X230522Y67819D01*
X230458Y67500D01*
X232000D01*
Y69042D01*
D02*
G37*
G36*
X234542Y66500D02*
X233000D01*
Y64958D01*
X233319Y65022D01*
X234014Y65486D01*
X234478Y66181D01*
X234542Y66500D01*
D02*
G37*
G36*
X232000D02*
X230458D01*
X230522Y66181D01*
X230986Y65486D01*
X231681Y65022D01*
X232000Y64958D01*
Y66500D01*
D02*
G37*
G36*
X196500Y65542D02*
Y64000D01*
X198042D01*
X197978Y64319D01*
X197514Y65014D01*
X196819Y65478D01*
X196500Y65542D01*
D02*
G37*
G36*
X195500D02*
X195181Y65478D01*
X194486Y65014D01*
X194022Y64319D01*
X193958Y64000D01*
X195500D01*
Y65542D01*
D02*
G37*
G36*
X189500D02*
Y64000D01*
X191042D01*
X190978Y64319D01*
X190514Y65014D01*
X189819Y65478D01*
X189500Y65542D01*
D02*
G37*
G36*
X188500D02*
X188181Y65478D01*
X187486Y65014D01*
X187022Y64319D01*
X186958Y64000D01*
X188500D01*
Y65542D01*
D02*
G37*
G36*
X198042Y63000D02*
X196500D01*
Y61458D01*
X196819Y61522D01*
X197514Y61986D01*
X197978Y62681D01*
X198042Y63000D01*
D02*
G37*
G36*
X195500D02*
X193958D01*
X194022Y62681D01*
X194486Y61986D01*
X195181Y61522D01*
X195500Y61458D01*
Y63000D01*
D02*
G37*
G36*
X191042D02*
X189500D01*
Y61458D01*
X189819Y61522D01*
X190514Y61986D01*
X190978Y62681D01*
X191042Y63000D01*
D02*
G37*
G36*
X188500D02*
X186958D01*
X187022Y62681D01*
X187486Y61986D01*
X188181Y61522D01*
X188500Y61458D01*
Y63000D01*
D02*
G37*
G36*
X265500Y61042D02*
Y59500D01*
X267042D01*
X266978Y59819D01*
X266514Y60514D01*
X265819Y60978D01*
X265500Y61042D01*
D02*
G37*
G36*
X264500D02*
X264181Y60978D01*
X263486Y60514D01*
X263022Y59819D01*
X262958Y59500D01*
X264500D01*
Y61042D01*
D02*
G37*
G36*
X256500D02*
Y59500D01*
X258042D01*
X257978Y59819D01*
X257514Y60514D01*
X256819Y60978D01*
X256500Y61042D01*
D02*
G37*
G36*
X255500D02*
X255181Y60978D01*
X254486Y60514D01*
X254022Y59819D01*
X253958Y59500D01*
X255500D01*
Y61042D01*
D02*
G37*
G36*
X247500D02*
Y59500D01*
X249042D01*
X248978Y59819D01*
X248514Y60514D01*
X247819Y60978D01*
X247500Y61042D01*
D02*
G37*
G36*
X246500D02*
X246181Y60978D01*
X245486Y60514D01*
X245022Y59819D01*
X244958Y59500D01*
X246500D01*
Y61042D01*
D02*
G37*
G36*
X267042Y58500D02*
X265500D01*
Y56958D01*
X265819Y57022D01*
X266514Y57486D01*
X266978Y58181D01*
X267042Y58500D01*
D02*
G37*
G36*
X264500D02*
X262958D01*
X263022Y58181D01*
X263486Y57486D01*
X264181Y57022D01*
X264500Y56958D01*
Y58500D01*
D02*
G37*
G36*
X258042D02*
X256500D01*
Y56958D01*
X256819Y57022D01*
X257514Y57486D01*
X257978Y58181D01*
X258042Y58500D01*
D02*
G37*
G36*
X255500D02*
X253958D01*
X254022Y58181D01*
X254486Y57486D01*
X255181Y57022D01*
X255500Y56958D01*
Y58500D01*
D02*
G37*
G36*
X249042D02*
X247500D01*
Y56958D01*
X247819Y57022D01*
X248514Y57486D01*
X248978Y58181D01*
X249042Y58500D01*
D02*
G37*
G36*
X246500D02*
X244958D01*
X245022Y58181D01*
X245486Y57486D01*
X246181Y57022D01*
X246500Y56958D01*
Y58500D01*
D02*
G37*
G36*
X27500Y56848D02*
Y55000D01*
X29348D01*
X29261Y55436D01*
X28730Y56230D01*
X27936Y56761D01*
X27500Y56848D01*
D02*
G37*
G36*
X26500D02*
X26064Y56761D01*
X25270Y56230D01*
X24739Y55436D01*
X24652Y55000D01*
X26500D01*
Y56848D01*
D02*
G37*
G36*
X342000Y55542D02*
Y54000D01*
X343542D01*
X343478Y54319D01*
X343014Y55014D01*
X342319Y55478D01*
X342000Y55542D01*
D02*
G37*
G36*
X341000D02*
X340681Y55478D01*
X339986Y55014D01*
X339522Y54319D01*
X339458Y54000D01*
X341000D01*
Y55542D01*
D02*
G37*
G36*
X324500D02*
Y54000D01*
X326042D01*
X325978Y54319D01*
X325514Y55014D01*
X324819Y55478D01*
X324500Y55542D01*
D02*
G37*
G36*
X323500D02*
X323181Y55478D01*
X322486Y55014D01*
X322022Y54319D01*
X321958Y54000D01*
X323500D01*
Y55542D01*
D02*
G37*
G36*
X295000D02*
Y54000D01*
X296542D01*
X296478Y54319D01*
X296014Y55014D01*
X295319Y55478D01*
X295000Y55542D01*
D02*
G37*
G36*
X294000D02*
X293681Y55478D01*
X292986Y55014D01*
X292522Y54319D01*
X292458Y54000D01*
X294000D01*
Y55542D01*
D02*
G37*
G36*
X277500D02*
Y54000D01*
X279042D01*
X278978Y54319D01*
X278514Y55014D01*
X277819Y55478D01*
X277500Y55542D01*
D02*
G37*
G36*
X276500D02*
X276181Y55478D01*
X275486Y55014D01*
X275022Y54319D01*
X274958Y54000D01*
X276500D01*
Y55542D01*
D02*
G37*
G36*
X222000Y55042D02*
Y53500D01*
X223542D01*
X223478Y53819D01*
X223014Y54514D01*
X222319Y54978D01*
X222000Y55042D01*
D02*
G37*
G36*
X221000D02*
X220681Y54978D01*
X219986Y54514D01*
X219522Y53819D01*
X219458Y53500D01*
X221000D01*
Y55042D01*
D02*
G37*
G36*
X29348Y54000D02*
X27500D01*
Y52152D01*
X27936Y52239D01*
X28730Y52770D01*
X29261Y53564D01*
X29348Y54000D01*
D02*
G37*
G36*
X26500D02*
X24652D01*
X24739Y53564D01*
X25270Y52770D01*
X26064Y52239D01*
X26500Y52152D01*
Y54000D01*
D02*
G37*
G36*
X246500Y56141D02*
X245681Y55978D01*
X244986Y55514D01*
X244522Y54819D01*
X244359Y54000D01*
X244522Y53181D01*
X244986Y52486D01*
X245681Y52022D01*
X246500Y51859D01*
X247319Y52022D01*
X248014Y52486D01*
X248478Y53181D01*
X248641Y54000D01*
X248478Y54819D01*
X248014Y55514D01*
X247319Y55978D01*
X246500Y56141D01*
D02*
G37*
G36*
X389000Y55159D02*
Y51500D01*
X392659D01*
X392581Y52093D01*
X392159Y53113D01*
X391488Y53988D01*
X390613Y54659D01*
X389594Y55081D01*
X389000Y55159D01*
D02*
G37*
G36*
X388000D02*
X387406Y55081D01*
X386387Y54659D01*
X385512Y53988D01*
X384841Y53113D01*
X384419Y52093D01*
X384341Y51500D01*
X388000D01*
Y55159D01*
D02*
G37*
G36*
X343542Y53000D02*
X342000D01*
Y51458D01*
X342319Y51522D01*
X343014Y51986D01*
X343478Y52681D01*
X343542Y53000D01*
D02*
G37*
G36*
X341000D02*
X339458D01*
X339522Y52681D01*
X339986Y51986D01*
X340681Y51522D01*
X341000Y51458D01*
Y53000D01*
D02*
G37*
G36*
X326042D02*
X324500D01*
Y51458D01*
X324819Y51522D01*
X325514Y51986D01*
X325978Y52681D01*
X326042Y53000D01*
D02*
G37*
G36*
X323500D02*
X321958D01*
X322022Y52681D01*
X322486Y51986D01*
X323181Y51522D01*
X323500Y51458D01*
Y53000D01*
D02*
G37*
G36*
X296542D02*
X295000D01*
Y51458D01*
X295319Y51522D01*
X296014Y51986D01*
X296478Y52681D01*
X296542Y53000D01*
D02*
G37*
G36*
X294000D02*
X292458D01*
X292522Y52681D01*
X292986Y51986D01*
X293681Y51522D01*
X294000Y51458D01*
Y53000D01*
D02*
G37*
G36*
X279042D02*
X277500D01*
Y51458D01*
X277819Y51522D01*
X278514Y51986D01*
X278978Y52681D01*
X279042Y53000D01*
D02*
G37*
G36*
X276500D02*
X274958D01*
X275022Y52681D01*
X275486Y51986D01*
X276181Y51522D01*
X276500Y51458D01*
Y53000D01*
D02*
G37*
G36*
X44150Y52644D02*
Y51000D01*
X45794D01*
X45722Y51358D01*
X45236Y52086D01*
X44508Y52572D01*
X44150Y52644D01*
D02*
G37*
G36*
X43150D02*
X42792Y52572D01*
X42064Y52086D01*
X41578Y51358D01*
X41506Y51000D01*
X43150D01*
Y52644D01*
D02*
G37*
G36*
X223542Y52500D02*
X222000D01*
Y50958D01*
X222319Y51022D01*
X223014Y51486D01*
X223478Y52181D01*
X223542Y52500D01*
D02*
G37*
G36*
X221000D02*
X219458D01*
X219522Y52181D01*
X219986Y51486D01*
X220681Y51022D01*
X221000Y50958D01*
Y52500D01*
D02*
G37*
G36*
X189500Y52042D02*
Y50500D01*
X191042D01*
X190978Y50819D01*
X190514Y51514D01*
X189819Y51978D01*
X189500Y52042D01*
D02*
G37*
G36*
X188500D02*
X188181Y51978D01*
X187486Y51514D01*
X187022Y50819D01*
X186958Y50500D01*
X188500D01*
Y52042D01*
D02*
G37*
G36*
X182500D02*
Y50500D01*
X184042D01*
X183978Y50819D01*
X183514Y51514D01*
X182819Y51978D01*
X182500Y52042D01*
D02*
G37*
G36*
X181500D02*
X181181Y51978D01*
X180486Y51514D01*
X180022Y50819D01*
X179958Y50500D01*
X181500D01*
Y52042D01*
D02*
G37*
G36*
X45794Y50000D02*
X44150D01*
Y48356D01*
X44508Y48428D01*
X45236Y48914D01*
X45722Y49642D01*
X45794Y50000D01*
D02*
G37*
G36*
X43150D02*
X41506D01*
X41578Y49642D01*
X42064Y48914D01*
X42792Y48428D01*
X43150Y48356D01*
Y50000D01*
D02*
G37*
G36*
X26354Y49896D02*
Y48354D01*
X27896D01*
X27832Y48674D01*
X27368Y49368D01*
X26674Y49832D01*
X26354Y49896D01*
D02*
G37*
G36*
X25354D02*
X25035Y49832D01*
X24340Y49368D01*
X23876Y48674D01*
X23813Y48354D01*
X25354D01*
Y49896D01*
D02*
G37*
G36*
X191042Y49500D02*
X189500D01*
Y47958D01*
X189819Y48022D01*
X190514Y48486D01*
X190978Y49181D01*
X191042Y49500D01*
D02*
G37*
G36*
X188500D02*
X186958D01*
X187022Y49181D01*
X187486Y48486D01*
X188181Y48022D01*
X188500Y47958D01*
Y49500D01*
D02*
G37*
G36*
X184042D02*
X182500D01*
Y47958D01*
X182819Y48022D01*
X183514Y48486D01*
X183978Y49181D01*
X184042Y49500D01*
D02*
G37*
G36*
X181500D02*
X179958D01*
X180022Y49181D01*
X180486Y48486D01*
X181181Y48022D01*
X181500Y47958D01*
Y49500D01*
D02*
G37*
G36*
X392659Y50500D02*
X389000D01*
Y46841D01*
X389594Y46919D01*
X390613Y47341D01*
X391488Y48012D01*
X392159Y48887D01*
X392581Y49907D01*
X392659Y50500D01*
D02*
G37*
G36*
X388000D02*
X384341D01*
X384419Y49907D01*
X384841Y48887D01*
X385512Y48012D01*
X386387Y47341D01*
X387406Y46919D01*
X388000Y46841D01*
Y50500D01*
D02*
G37*
G36*
X360094Y55514D02*
X356906D01*
X356150Y55414D01*
X355446Y55123D01*
X354841Y54659D01*
X354377Y54054D01*
X354085Y53350D01*
X353986Y52595D01*
Y49406D01*
X354085Y48650D01*
X354377Y47946D01*
X354841Y47341D01*
X355446Y46877D01*
X356150Y46586D01*
X356906Y46486D01*
X360094D01*
X360850Y46586D01*
X361554Y46877D01*
X362159Y47341D01*
X362623Y47946D01*
X362914Y48650D01*
X363014Y49406D01*
Y52595D01*
X362914Y53350D01*
X362623Y54054D01*
X362159Y54659D01*
X361554Y55123D01*
X360850Y55414D01*
X360094Y55514D01*
D02*
G37*
G36*
X378500Y55528D02*
X377328Y55373D01*
X376236Y54921D01*
X375298Y54202D01*
X374579Y53264D01*
X374127Y52172D01*
X373972Y51000D01*
X374127Y49828D01*
X374579Y48736D01*
X375298Y47798D01*
X376236Y47079D01*
X377328Y46627D01*
X378500Y46472D01*
X379672Y46627D01*
X380764Y47079D01*
X381702Y47798D01*
X382421Y48736D01*
X382873Y49828D01*
X383028Y51000D01*
X382873Y52172D01*
X382421Y53264D01*
X381702Y54202D01*
X380764Y54921D01*
X379672Y55373D01*
X378500Y55528D01*
D02*
G37*
G36*
X368500D02*
X367328Y55373D01*
X366236Y54921D01*
X365298Y54202D01*
X364579Y53264D01*
X364127Y52172D01*
X363972Y51000D01*
X364127Y49828D01*
X364579Y48736D01*
X365298Y47798D01*
X366236Y47079D01*
X367328Y46627D01*
X368500Y46472D01*
X369672Y46627D01*
X370764Y47079D01*
X371702Y47798D01*
X372421Y48736D01*
X372873Y49828D01*
X373028Y51000D01*
X372873Y52172D01*
X372421Y53264D01*
X371702Y54202D01*
X370764Y54921D01*
X369672Y55373D01*
X368500Y55528D01*
D02*
G37*
G36*
X27896Y47354D02*
X26354D01*
Y45813D01*
X26674Y45876D01*
X27368Y46340D01*
X27832Y47035D01*
X27896Y47354D01*
D02*
G37*
G36*
X25354D02*
X23813D01*
X23876Y47035D01*
X24340Y46340D01*
X25035Y45876D01*
X25354Y45813D01*
Y47354D01*
D02*
G37*
G36*
X374000Y44042D02*
Y42500D01*
X375542D01*
X375478Y42819D01*
X375014Y43514D01*
X374319Y43978D01*
X374000Y44042D01*
D02*
G37*
G36*
X373000D02*
X372681Y43978D01*
X371986Y43514D01*
X371522Y42819D01*
X371458Y42500D01*
X373000D01*
Y44042D01*
D02*
G37*
G36*
X26500Y43042D02*
Y41500D01*
X28042D01*
X27978Y41819D01*
X27514Y42514D01*
X26819Y42978D01*
X26500Y43042D01*
D02*
G37*
G36*
X25500D02*
X25181Y42978D01*
X24486Y42514D01*
X24022Y41819D01*
X23958Y41500D01*
X25500D01*
Y43042D01*
D02*
G37*
G36*
X375542Y41500D02*
X374000D01*
Y39958D01*
X374319Y40022D01*
X375014Y40486D01*
X375478Y41181D01*
X375542Y41500D01*
D02*
G37*
G36*
X373000D02*
X371458D01*
X371522Y41181D01*
X371986Y40486D01*
X372681Y40022D01*
X373000Y39958D01*
Y41500D01*
D02*
G37*
G36*
X28042Y40500D02*
X26500D01*
Y38958D01*
X26819Y39022D01*
X27514Y39486D01*
X27978Y40181D01*
X28042Y40500D01*
D02*
G37*
G36*
X25500D02*
X23958D01*
X24022Y40181D01*
X24486Y39486D01*
X25181Y39022D01*
X25500Y38958D01*
Y40500D01*
D02*
G37*
G36*
X15150Y41141D02*
X14331Y40978D01*
X13636Y40514D01*
X13172Y39819D01*
X13009Y39000D01*
X13172Y38181D01*
X13636Y37486D01*
X14331Y37022D01*
X15150Y36859D01*
X15969Y37022D01*
X16664Y37486D01*
X17128Y38181D01*
X17291Y39000D01*
X17128Y39819D01*
X16664Y40514D01*
X15969Y40978D01*
X15150Y41141D01*
D02*
G37*
G36*
X8150Y38348D02*
Y36500D01*
X9998D01*
X9911Y36936D01*
X9380Y37730D01*
X8586Y38261D01*
X8150Y38348D01*
D02*
G37*
G36*
X7150D02*
X6714Y38261D01*
X5920Y37730D01*
X5389Y36936D01*
X5302Y36500D01*
X7150D01*
Y38348D01*
D02*
G37*
G36*
X177000Y40641D02*
X176181Y40478D01*
X175486Y40014D01*
X175022Y39319D01*
X174859Y38500D01*
X175022Y37681D01*
X175486Y36986D01*
X176181Y36522D01*
X177000Y36359D01*
X177819Y36522D01*
X178514Y36986D01*
X178978Y37681D01*
X179141Y38500D01*
X178978Y39319D01*
X178514Y40014D01*
X177819Y40478D01*
X177000Y40641D01*
D02*
G37*
G36*
X194500Y40141D02*
X193681Y39978D01*
X192986Y39514D01*
X192522Y38819D01*
X192359Y38000D01*
X192522Y37181D01*
X192986Y36486D01*
X193681Y36022D01*
X194500Y35859D01*
X195319Y36022D01*
X196014Y36486D01*
X196478Y37181D01*
X196641Y38000D01*
X196478Y38819D01*
X196014Y39514D01*
X195319Y39978D01*
X194500Y40141D01*
D02*
G37*
G36*
X374000Y37042D02*
Y35500D01*
X375542D01*
X375478Y35819D01*
X375014Y36514D01*
X374319Y36978D01*
X374000Y37042D01*
D02*
G37*
G36*
X373000D02*
X372681Y36978D01*
X371986Y36514D01*
X371522Y35819D01*
X371458Y35500D01*
X373000D01*
Y37042D01*
D02*
G37*
G36*
X9998Y35500D02*
X8150D01*
Y33652D01*
X8586Y33739D01*
X9380Y34270D01*
X9911Y35064D01*
X9998Y35500D01*
D02*
G37*
G36*
X7150D02*
X5302D01*
X5389Y35064D01*
X5920Y34270D01*
X6714Y33739D01*
X7150Y33652D01*
Y35500D01*
D02*
G37*
G36*
X375542Y34500D02*
X374000D01*
Y32958D01*
X374319Y33022D01*
X375014Y33486D01*
X375478Y34181D01*
X375542Y34500D01*
D02*
G37*
G36*
X373000D02*
X371458D01*
X371522Y34181D01*
X371986Y33486D01*
X372681Y33022D01*
X373000Y32958D01*
Y34500D01*
D02*
G37*
G36*
X362000Y31641D02*
X361181Y31478D01*
X360486Y31014D01*
X360022Y30319D01*
X359859Y29500D01*
X360022Y28681D01*
X360486Y27986D01*
X361181Y27522D01*
X362000Y27359D01*
X362819Y27522D01*
X363514Y27986D01*
X363978Y28681D01*
X364141Y29500D01*
X363978Y30319D01*
X363514Y31014D01*
X362819Y31478D01*
X362000Y31641D01*
D02*
G37*
G36*
X354591Y35528D02*
X353419Y35373D01*
X352327Y34921D01*
X351389Y34202D01*
X350669Y33264D01*
X350217Y32172D01*
X350063Y31000D01*
X350217Y29828D01*
X350669Y28736D01*
X351389Y27798D01*
X352327Y27079D01*
X353419Y26627D01*
X354591Y26472D01*
X355762Y26627D01*
X356854Y27079D01*
X357792Y27798D01*
X358512Y28736D01*
X358964Y29828D01*
X359118Y31000D01*
X358964Y32172D01*
X358512Y33264D01*
X357792Y34202D01*
X356854Y34921D01*
X355762Y35373D01*
X354591Y35528D01*
D02*
G37*
G36*
X329000D02*
X327828Y35373D01*
X326736Y34921D01*
X325798Y34202D01*
X325079Y33264D01*
X324627Y32172D01*
X324472Y31000D01*
X324627Y29828D01*
X325079Y28736D01*
X325798Y27798D01*
X326736Y27079D01*
X327828Y26627D01*
X329000Y26472D01*
X330172Y26627D01*
X331264Y27079D01*
X332202Y27798D01*
X332921Y28736D01*
X333373Y29828D01*
X333528Y31000D01*
X333373Y32172D01*
X332921Y33264D01*
X332202Y34202D01*
X331264Y34921D01*
X330172Y35373D01*
X329000Y35528D01*
D02*
G37*
G36*
X307591D02*
X306419Y35373D01*
X305327Y34921D01*
X304389Y34202D01*
X303669Y33264D01*
X303217Y32172D01*
X303063Y31000D01*
X303217Y29828D01*
X303669Y28736D01*
X304389Y27798D01*
X305327Y27079D01*
X306419Y26627D01*
X307591Y26472D01*
X308762Y26627D01*
X309854Y27079D01*
X310792Y27798D01*
X311512Y28736D01*
X311964Y29828D01*
X312118Y31000D01*
X311964Y32172D01*
X311512Y33264D01*
X310792Y34202D01*
X309854Y34921D01*
X308762Y35373D01*
X307591Y35528D01*
D02*
G37*
G36*
X282000D02*
X280828Y35373D01*
X279736Y34921D01*
X278798Y34202D01*
X278079Y33264D01*
X277627Y32172D01*
X277472Y31000D01*
X277627Y29828D01*
X278079Y28736D01*
X278798Y27798D01*
X279736Y27079D01*
X280828Y26627D01*
X282000Y26472D01*
X283172Y26627D01*
X284264Y27079D01*
X285202Y27798D01*
X285921Y28736D01*
X286373Y29828D01*
X286528Y31000D01*
X286373Y32172D01*
X285921Y33264D01*
X285202Y34202D01*
X284264Y34921D01*
X283172Y35373D01*
X282000Y35528D01*
D02*
G37*
G36*
X69090Y34528D02*
X67919Y34373D01*
X66827Y33921D01*
X65889Y33202D01*
X65169Y32264D01*
X64717Y31172D01*
X64563Y30000D01*
X64717Y28828D01*
X65169Y27736D01*
X65889Y26798D01*
X66827Y26079D01*
X67919Y25627D01*
X69090Y25472D01*
X70262Y25627D01*
X71354Y26079D01*
X72292Y26798D01*
X73012Y27736D01*
X73464Y28828D01*
X73618Y30000D01*
X73464Y31172D01*
X73012Y32264D01*
X72292Y33202D01*
X71354Y33921D01*
X70262Y34373D01*
X69090Y34528D01*
D02*
G37*
G36*
X43500D02*
X42328Y34373D01*
X41236Y33921D01*
X40298Y33202D01*
X39579Y32264D01*
X39127Y31172D01*
X38972Y30000D01*
X39127Y28828D01*
X39579Y27736D01*
X40298Y26798D01*
X41236Y26079D01*
X42328Y25627D01*
X43500Y25472D01*
X44672Y25627D01*
X45764Y26079D01*
X46702Y26798D01*
X47421Y27736D01*
X47873Y28828D01*
X48028Y30000D01*
X47873Y31172D01*
X47421Y32264D01*
X46702Y33202D01*
X45764Y33921D01*
X44672Y34373D01*
X43500Y34528D01*
D02*
G37*
G36*
X84595Y31014D02*
X81406D01*
X80650Y30915D01*
X79946Y30623D01*
X79341Y30159D01*
X78877Y29554D01*
X78585Y28850D01*
X78486Y28095D01*
Y24905D01*
X78585Y24150D01*
X78877Y23446D01*
X79341Y22841D01*
X79946Y22377D01*
X80650Y22085D01*
X81406Y21986D01*
X84595D01*
X85350Y22085D01*
X86054Y22377D01*
X86659Y22841D01*
X87123Y23446D01*
X87414Y24150D01*
X87514Y24905D01*
Y28095D01*
X87414Y28850D01*
X87123Y29554D01*
X86659Y30159D01*
X86054Y30623D01*
X85350Y30915D01*
X84595Y31014D01*
D02*
G37*
G36*
X83500Y20659D02*
Y17000D01*
X87159D01*
X87081Y17594D01*
X86659Y18613D01*
X85988Y19488D01*
X85113Y20159D01*
X84093Y20581D01*
X83500Y20659D01*
D02*
G37*
G36*
X82500D02*
X81906Y20581D01*
X80887Y20159D01*
X80012Y19488D01*
X79341Y18613D01*
X78919Y17594D01*
X78841Y17000D01*
X82500D01*
Y20659D01*
D02*
G37*
G36*
X69591Y16443D02*
Y12784D01*
X73250D01*
X73172Y13377D01*
X72750Y14396D01*
X72078Y15271D01*
X71203Y15943D01*
X70184Y16365D01*
X69591Y16443D01*
D02*
G37*
G36*
X68590D02*
X67997Y16365D01*
X66978Y15943D01*
X66103Y15271D01*
X65431Y14396D01*
X65009Y13377D01*
X64931Y12784D01*
X68590D01*
Y16443D01*
D02*
G37*
G36*
X44000D02*
Y12784D01*
X47659D01*
X47581Y13377D01*
X47159Y14396D01*
X46488Y15271D01*
X45613Y15943D01*
X44594Y16365D01*
X44000Y16443D01*
D02*
G37*
G36*
X43000D02*
X42406Y16365D01*
X41387Y15943D01*
X40512Y15271D01*
X39841Y14396D01*
X39419Y13377D01*
X39341Y12784D01*
X43000D01*
Y16443D01*
D02*
G37*
G36*
X87159Y16000D02*
X83500D01*
Y12341D01*
X84093Y12419D01*
X85113Y12841D01*
X85988Y13512D01*
X86659Y14387D01*
X87081Y15406D01*
X87159Y16000D01*
D02*
G37*
G36*
X82500D02*
X78841D01*
X78919Y15406D01*
X79341Y14387D01*
X80012Y13512D01*
X80887Y12841D01*
X81906Y12419D01*
X82500Y12341D01*
Y16000D01*
D02*
G37*
G36*
X380000Y29596D02*
X378128Y29412D01*
X376328Y28866D01*
X374669Y27979D01*
X373214Y26786D01*
X372021Y25331D01*
X371134Y23672D01*
X370588Y21872D01*
X370404Y20000D01*
X370588Y18128D01*
X371134Y16328D01*
X372021Y14669D01*
X373214Y13214D01*
X374669Y12021D01*
X376328Y11134D01*
X378128Y10588D01*
X380000Y10404D01*
X381872Y10588D01*
X383672Y11134D01*
X385331Y12021D01*
X386786Y13214D01*
X387979Y14669D01*
X388866Y16328D01*
X389412Y18128D01*
X389596Y20000D01*
X389412Y21872D01*
X388866Y23672D01*
X387979Y25331D01*
X386786Y26786D01*
X385331Y27979D01*
X383672Y28866D01*
X381872Y29412D01*
X380000Y29596D01*
D02*
G37*
G36*
X20000D02*
X18128Y29412D01*
X16328Y28866D01*
X14669Y27979D01*
X13214Y26786D01*
X12021Y25331D01*
X11134Y23672D01*
X10588Y21872D01*
X10404Y20000D01*
X10588Y18128D01*
X11134Y16328D01*
X12021Y14669D01*
X13214Y13214D01*
X14669Y12021D01*
X16328Y11134D01*
X18128Y10588D01*
X20000Y10404D01*
X21872Y10588D01*
X23672Y11134D01*
X25331Y12021D01*
X26786Y13214D01*
X27979Y14669D01*
X28866Y16328D01*
X29412Y18128D01*
X29596Y20000D01*
X29412Y21872D01*
X28866Y23672D01*
X27979Y25331D01*
X26786Y26786D01*
X25331Y27979D01*
X23672Y28866D01*
X21872Y29412D01*
X20000Y29596D01*
D02*
G37*
G36*
X354591Y17811D02*
X353419Y17657D01*
X352327Y17205D01*
X351389Y16485D01*
X350669Y15547D01*
X350217Y14455D01*
X350063Y13284D01*
X350217Y12112D01*
X350669Y11020D01*
X351389Y10082D01*
X352327Y9362D01*
X353419Y8910D01*
X354591Y8756D01*
X355762Y8910D01*
X356854Y9362D01*
X357792Y10082D01*
X358512Y11020D01*
X358964Y12112D01*
X359118Y13284D01*
X358964Y14455D01*
X358512Y15547D01*
X357792Y16485D01*
X356854Y17205D01*
X355762Y17657D01*
X354591Y17811D01*
D02*
G37*
G36*
X329000D02*
X327828Y17657D01*
X326736Y17205D01*
X325798Y16485D01*
X325079Y15547D01*
X324627Y14455D01*
X324472Y13284D01*
X324627Y12112D01*
X325079Y11020D01*
X325798Y10082D01*
X326736Y9362D01*
X327828Y8910D01*
X329000Y8756D01*
X330172Y8910D01*
X331264Y9362D01*
X332202Y10082D01*
X332921Y11020D01*
X333373Y12112D01*
X333528Y13284D01*
X333373Y14455D01*
X332921Y15547D01*
X332202Y16485D01*
X331264Y17205D01*
X330172Y17657D01*
X329000Y17811D01*
D02*
G37*
G36*
X307591D02*
X306419Y17657D01*
X305327Y17205D01*
X304389Y16485D01*
X303669Y15547D01*
X303217Y14455D01*
X303063Y13284D01*
X303217Y12112D01*
X303669Y11020D01*
X304389Y10082D01*
X305327Y9362D01*
X306419Y8910D01*
X307591Y8756D01*
X308762Y8910D01*
X309854Y9362D01*
X310792Y10082D01*
X311512Y11020D01*
X311964Y12112D01*
X312118Y13284D01*
X311964Y14455D01*
X311512Y15547D01*
X310792Y16485D01*
X309854Y17205D01*
X308762Y17657D01*
X307591Y17811D01*
D02*
G37*
G36*
X282000D02*
X280828Y17657D01*
X279736Y17205D01*
X278798Y16485D01*
X278079Y15547D01*
X277627Y14455D01*
X277472Y13284D01*
X277627Y12112D01*
X278079Y11020D01*
X278798Y10082D01*
X279736Y9362D01*
X280828Y8910D01*
X282000Y8756D01*
X283172Y8910D01*
X284264Y9362D01*
X285202Y10082D01*
X285921Y11020D01*
X286373Y12112D01*
X286528Y13284D01*
X286373Y14455D01*
X285921Y15547D01*
X285202Y16485D01*
X284264Y17205D01*
X283172Y17657D01*
X282000Y17811D01*
D02*
G37*
G36*
X73250Y11784D02*
X69591D01*
Y8124D01*
X70184Y8202D01*
X71203Y8624D01*
X72078Y9296D01*
X72750Y10171D01*
X73172Y11190D01*
X73250Y11784D01*
D02*
G37*
G36*
X68590D02*
X64931D01*
X65009Y11190D01*
X65431Y10171D01*
X66103Y9296D01*
X66978Y8624D01*
X67997Y8202D01*
X68590Y8124D01*
Y11784D01*
D02*
G37*
G36*
X47659D02*
X44000D01*
Y8124D01*
X44594Y8202D01*
X45613Y8624D01*
X46488Y9296D01*
X47159Y10171D01*
X47581Y11190D01*
X47659Y11784D01*
D02*
G37*
G36*
X43000D02*
X39341D01*
X39419Y11190D01*
X39841Y10171D01*
X40512Y9296D01*
X41387Y8624D01*
X42406Y8202D01*
X43000Y8124D01*
Y11784D01*
D02*
G37*
%LPD*%
D63*
X27000Y54500D02*
D03*
X63729Y93629D02*
D03*
X10150Y82500D02*
D03*
X7650Y36000D02*
D03*
D85*
X37500Y178000D02*
D03*
Y168000D02*
D03*
X147000Y178000D02*
D03*
X43500Y12284D02*
D03*
X69090D02*
D03*
X287846Y142996D02*
D03*
X83000Y16500D02*
D03*
X8150Y103500D02*
D03*
X388500Y51000D02*
D03*
D90*
X272000Y141000D02*
D03*
X265000D02*
D03*
X153500Y194500D02*
D03*
Y187500D02*
D03*
X4000Y170000D02*
D03*
Y162000D02*
D03*
Y154000D02*
D03*
Y146000D02*
D03*
Y114500D02*
D03*
Y82000D02*
D03*
Y68000D02*
D03*
Y60000D02*
D03*
Y52000D02*
D03*
Y34000D02*
D03*
Y26000D02*
D03*
X396000Y162000D02*
D03*
Y146000D02*
D03*
Y50000D02*
D03*
Y130000D02*
D03*
Y114000D02*
D03*
Y42000D02*
D03*
Y98000D02*
D03*
Y90000D02*
D03*
Y34000D02*
D03*
Y26000D02*
D03*
Y82000D02*
D03*
Y74000D02*
D03*
Y66000D02*
D03*
Y58000D02*
D03*
Y106000D02*
D03*
Y122000D02*
D03*
Y138000D02*
D03*
Y154000D02*
D03*
Y170000D02*
D03*
X138000Y196000D02*
D03*
X374000D02*
D03*
X366000D02*
D03*
X358000D02*
D03*
X350000D02*
D03*
X342000D02*
D03*
X334000D02*
D03*
X326000D02*
D03*
X318000D02*
D03*
X310000D02*
D03*
X302000D02*
D03*
X294000D02*
D03*
X286000D02*
D03*
X278000D02*
D03*
X270000D02*
D03*
X262000D02*
D03*
X254000D02*
D03*
X246000D02*
D03*
X238000D02*
D03*
X230000D02*
D03*
X222000D02*
D03*
X214000D02*
D03*
X206000D02*
D03*
X198000D02*
D03*
X190000D02*
D03*
X182000D02*
D03*
X174000D02*
D03*
X146000D02*
D03*
X106000D02*
D03*
X98000D02*
D03*
X90000D02*
D03*
X82000D02*
D03*
X74000D02*
D03*
X66000D02*
D03*
X58000D02*
D03*
X50000D02*
D03*
X42000D02*
D03*
X34000D02*
D03*
X26000D02*
D03*
X370000Y4000D02*
D03*
X362000D02*
D03*
X354000D02*
D03*
X346000D02*
D03*
X338000D02*
D03*
X330000D02*
D03*
X322000D02*
D03*
X314000D02*
D03*
X306000D02*
D03*
X298000D02*
D03*
X290000D02*
D03*
X282000D02*
D03*
X274000D02*
D03*
X266000D02*
D03*
X258000D02*
D03*
X250000D02*
D03*
X242000D02*
D03*
X234000D02*
D03*
X226000D02*
D03*
X218000D02*
D03*
X210000D02*
D03*
X202000D02*
D03*
X194000D02*
D03*
X186000D02*
D03*
X178000D02*
D03*
X170000D02*
D03*
X162000D02*
D03*
X154000D02*
D03*
X146000D02*
D03*
X138000D02*
D03*
X130000D02*
D03*
X122000D02*
D03*
X114000D02*
D03*
X106000D02*
D03*
X98000D02*
D03*
X90000D02*
D03*
X82000D02*
D03*
X74000D02*
D03*
X66000D02*
D03*
X58000D02*
D03*
X50000D02*
D03*
X42000D02*
D03*
X34000D02*
D03*
X26000D02*
D03*
X116000Y187500D02*
D03*
Y194500D02*
D03*
X26000Y41000D02*
D03*
X20000Y79500D02*
D03*
X25854Y47854D02*
D03*
X18150Y106500D02*
D03*
X221500Y53000D02*
D03*
X277000Y53500D02*
D03*
X32650Y103000D02*
D03*
X204500Y143000D02*
D03*
X235500Y98500D02*
D03*
X200000Y98000D02*
D03*
X192500D02*
D03*
X200000Y105500D02*
D03*
X192500D02*
D03*
X213000Y166500D02*
D03*
X201000Y127500D02*
D03*
X214000Y146500D02*
D03*
X148000Y114500D02*
D03*
X165000D02*
D03*
X177000Y126500D02*
D03*
X188500Y144500D02*
D03*
X181500D02*
D03*
X153500Y141500D02*
D03*
X182000Y50000D02*
D03*
X189000D02*
D03*
X196000Y63500D02*
D03*
X189000D02*
D03*
X203000Y121500D02*
D03*
X29150Y87000D02*
D03*
X36150D02*
D03*
X43150D02*
D03*
X32650Y96000D02*
D03*
Y110000D02*
D03*
X373500Y35000D02*
D03*
Y42000D02*
D03*
X25150Y106500D02*
D03*
X220000Y79000D02*
D03*
X232500Y67000D02*
D03*
X324000Y53500D02*
D03*
X341500D02*
D03*
X294500D02*
D03*
X218000Y98500D02*
D03*
X247000Y59000D02*
D03*
X265000D02*
D03*
X256000D02*
D03*
X231500Y83500D02*
D03*
X210500Y70500D02*
D03*
X171000Y77500D02*
D03*
X164500D02*
D03*
X157500D02*
D03*
X150500D02*
D03*
X227000Y79000D02*
D03*
X260000Y145500D02*
D03*
X277000D02*
D03*
D91*
X43650Y50500D02*
D03*
M02*
