G04*
G04 #@! TF.GenerationSoftware,Altium Limited,Altium Designer,21.3.2 (30)*
G04*
G04 Layer_Physical_Order=2*
G04 Layer_Color=36540*
%FSLAX25Y25*%
%MOIN*%
G70*
G04*
G04 #@! TF.SameCoordinates,41522B4C-5660-4B3E-BEA4-8D9A01AACCA4*
G04*
G04*
G04 #@! TF.FilePolarity,Positive*
G04*
G01*
G75*
%ADD85C,0.06378*%
G04:AMPARAMS|DCode=86|XSize=63.78mil|YSize=63.78mil|CornerRadius=15.95mil|HoleSize=0mil|Usage=FLASHONLY|Rotation=180.000|XOffset=0mil|YOffset=0mil|HoleType=Round|Shape=RoundedRectangle|*
%AMROUNDEDRECTD86*
21,1,0.06378,0.03189,0,0,180.0*
21,1,0.03189,0.06378,0,0,180.0*
1,1,0.03189,-0.01595,0.01595*
1,1,0.03189,0.01595,0.01595*
1,1,0.03189,0.01595,-0.01595*
1,1,0.03189,-0.01595,-0.01595*
%
%ADD86ROUNDEDRECTD86*%
G04:AMPARAMS|DCode=88|XSize=63.78mil|YSize=63.78mil|CornerRadius=15.95mil|HoleSize=0mil|Usage=FLASHONLY|Rotation=270.000|XOffset=0mil|YOffset=0mil|HoleType=Round|Shape=RoundedRectangle|*
%AMROUNDEDRECTD88*
21,1,0.06378,0.03189,0,0,270.0*
21,1,0.03189,0.06378,0,0,270.0*
1,1,0.03189,-0.01595,-0.01595*
1,1,0.03189,-0.01595,0.01595*
1,1,0.03189,0.01595,0.01595*
1,1,0.03189,0.01595,-0.01595*
%
%ADD88ROUNDEDRECTD88*%
%ADD90C,0.02200*%
G36*
X378433Y198144D02*
X380685Y197696D01*
X382882Y197029D01*
X385003Y196151D01*
X387028Y195068D01*
X388937Y193793D01*
X390712Y192336D01*
X392336Y190712D01*
X393793Y188937D01*
X395068Y187028D01*
X396150Y185003D01*
X397029Y182882D01*
X397696Y180685D01*
X398144Y178433D01*
X398369Y176148D01*
Y171135D01*
X397869Y170983D01*
X397514Y171514D01*
X396819Y171978D01*
X396000Y172141D01*
X395181Y171978D01*
X394486Y171514D01*
X394022Y170819D01*
X393859Y170000D01*
X394022Y169181D01*
X394486Y168486D01*
X395181Y168022D01*
X396000Y167859D01*
X396819Y168022D01*
X397514Y168486D01*
X397869Y169017D01*
X398369Y168865D01*
Y163135D01*
X397869Y162983D01*
X397514Y163514D01*
X396819Y163978D01*
X396000Y164141D01*
X395181Y163978D01*
X394486Y163514D01*
X394022Y162819D01*
X393859Y162000D01*
X394022Y161181D01*
X394486Y160486D01*
X395181Y160022D01*
X396000Y159859D01*
X396819Y160022D01*
X397514Y160486D01*
X397869Y161017D01*
X398369Y160865D01*
Y155135D01*
X397869Y154983D01*
X397514Y155514D01*
X396819Y155978D01*
X396000Y156141D01*
X395181Y155978D01*
X394486Y155514D01*
X394022Y154819D01*
X393859Y154000D01*
X394022Y153181D01*
X394486Y152486D01*
X395181Y152022D01*
X396000Y151859D01*
X396819Y152022D01*
X397514Y152486D01*
X397869Y153017D01*
X398369Y152865D01*
Y147135D01*
X397869Y146983D01*
X397514Y147514D01*
X396819Y147978D01*
X396000Y148141D01*
X395181Y147978D01*
X394486Y147514D01*
X394022Y146819D01*
X393859Y146000D01*
X394022Y145181D01*
X394486Y144486D01*
X395181Y144022D01*
X396000Y143859D01*
X396819Y144022D01*
X397514Y144486D01*
X397869Y145017D01*
X398369Y144865D01*
Y139135D01*
X397869Y138983D01*
X397514Y139514D01*
X396819Y139978D01*
X396000Y140141D01*
X395181Y139978D01*
X394486Y139514D01*
X394022Y138819D01*
X393859Y138000D01*
X394022Y137181D01*
X394486Y136486D01*
X395181Y136022D01*
X396000Y135859D01*
X396819Y136022D01*
X397514Y136486D01*
X397869Y137017D01*
X398369Y136865D01*
Y131135D01*
X397869Y130983D01*
X397514Y131514D01*
X396819Y131978D01*
X396000Y132141D01*
X395181Y131978D01*
X394486Y131514D01*
X394022Y130819D01*
X393859Y130000D01*
X394022Y129181D01*
X394486Y128486D01*
X395181Y128022D01*
X396000Y127859D01*
X396819Y128022D01*
X397514Y128486D01*
X397869Y129017D01*
X398369Y128865D01*
Y123135D01*
X397869Y122983D01*
X397514Y123514D01*
X396819Y123978D01*
X396000Y124141D01*
X395181Y123978D01*
X394486Y123514D01*
X394022Y122819D01*
X393859Y122000D01*
X394022Y121181D01*
X394486Y120486D01*
X395181Y120022D01*
X396000Y119859D01*
X396819Y120022D01*
X397514Y120486D01*
X397869Y121017D01*
X398369Y120865D01*
Y115135D01*
X397869Y114983D01*
X397514Y115514D01*
X396819Y115978D01*
X396000Y116141D01*
X395181Y115978D01*
X394486Y115514D01*
X394022Y114819D01*
X393859Y114000D01*
X394022Y113181D01*
X394486Y112486D01*
X395181Y112022D01*
X396000Y111859D01*
X396819Y112022D01*
X397514Y112486D01*
X397869Y113017D01*
X398369Y112865D01*
Y107135D01*
X397869Y106983D01*
X397514Y107514D01*
X396819Y107978D01*
X396000Y108141D01*
X395181Y107978D01*
X394486Y107514D01*
X394022Y106819D01*
X393859Y106000D01*
X394022Y105181D01*
X394486Y104486D01*
X395181Y104022D01*
X396000Y103859D01*
X396819Y104022D01*
X397514Y104486D01*
X397869Y105017D01*
X398369Y104865D01*
Y99135D01*
X397869Y98983D01*
X397514Y99514D01*
X396819Y99978D01*
X396000Y100141D01*
X395181Y99978D01*
X394486Y99514D01*
X394022Y98819D01*
X393859Y98000D01*
X394022Y97181D01*
X394486Y96486D01*
X395181Y96022D01*
X396000Y95859D01*
X396819Y96022D01*
X397514Y96486D01*
X397869Y97017D01*
X398369Y96865D01*
Y91135D01*
X397869Y90983D01*
X397514Y91514D01*
X396819Y91978D01*
X396000Y92141D01*
X395181Y91978D01*
X394486Y91514D01*
X394022Y90819D01*
X393859Y90000D01*
X394022Y89181D01*
X394486Y88486D01*
X395181Y88022D01*
X396000Y87859D01*
X396819Y88022D01*
X397514Y88486D01*
X397869Y89017D01*
X398369Y88865D01*
Y83135D01*
X397869Y82983D01*
X397514Y83514D01*
X396819Y83978D01*
X396000Y84141D01*
X395181Y83978D01*
X394486Y83514D01*
X394022Y82819D01*
X393859Y82000D01*
X394022Y81181D01*
X394486Y80486D01*
X395181Y80022D01*
X396000Y79859D01*
X396819Y80022D01*
X397514Y80486D01*
X397869Y81017D01*
X398369Y80865D01*
Y75135D01*
X397869Y74983D01*
X397514Y75514D01*
X396819Y75978D01*
X396000Y76141D01*
X395181Y75978D01*
X394486Y75514D01*
X394022Y74819D01*
X393859Y74000D01*
X394022Y73181D01*
X394486Y72486D01*
X395181Y72022D01*
X396000Y71859D01*
X396819Y72022D01*
X397514Y72486D01*
X397869Y73017D01*
X398369Y72865D01*
Y67135D01*
X397869Y66983D01*
X397514Y67514D01*
X396819Y67978D01*
X396000Y68141D01*
X395181Y67978D01*
X394486Y67514D01*
X394022Y66819D01*
X393859Y66000D01*
X394022Y65181D01*
X394486Y64486D01*
X395181Y64022D01*
X396000Y63859D01*
X396819Y64022D01*
X397514Y64486D01*
X397869Y65017D01*
X398369Y64865D01*
Y59135D01*
X397869Y58983D01*
X397514Y59514D01*
X396819Y59978D01*
X396000Y60141D01*
X395181Y59978D01*
X394486Y59514D01*
X394022Y58819D01*
X393859Y58000D01*
X394022Y57181D01*
X394486Y56486D01*
X395181Y56022D01*
X396000Y55859D01*
X396819Y56022D01*
X397514Y56486D01*
X397869Y57017D01*
X398369Y56865D01*
Y51135D01*
X397869Y50983D01*
X397514Y51514D01*
X396819Y51978D01*
X396000Y52141D01*
X395181Y51978D01*
X394486Y51514D01*
X394022Y50819D01*
X393859Y50000D01*
X394022Y49181D01*
X394486Y48486D01*
X395181Y48022D01*
X396000Y47859D01*
X396819Y48022D01*
X397514Y48486D01*
X397869Y49017D01*
X398369Y48865D01*
Y43135D01*
X397869Y42983D01*
X397514Y43514D01*
X396819Y43978D01*
X396000Y44141D01*
X395181Y43978D01*
X394486Y43514D01*
X394022Y42819D01*
X393859Y42000D01*
X394022Y41181D01*
X394486Y40486D01*
X395181Y40022D01*
X396000Y39859D01*
X396819Y40022D01*
X397514Y40486D01*
X397869Y41017D01*
X398369Y40865D01*
Y35135D01*
X397869Y34983D01*
X397514Y35514D01*
X396819Y35978D01*
X396000Y36141D01*
X395181Y35978D01*
X394486Y35514D01*
X394022Y34819D01*
X393859Y34000D01*
X394022Y33181D01*
X394486Y32486D01*
X395181Y32022D01*
X396000Y31859D01*
X396819Y32022D01*
X397514Y32486D01*
X397869Y33017D01*
X398369Y32865D01*
Y27135D01*
X397869Y26983D01*
X397514Y27514D01*
X396819Y27978D01*
X396000Y28141D01*
X395181Y27978D01*
X394486Y27514D01*
X394022Y26819D01*
X393859Y26000D01*
X394022Y25181D01*
X394486Y24486D01*
X395181Y24022D01*
X396000Y23859D01*
X396819Y24022D01*
X397514Y24486D01*
X397869Y25017D01*
X397970Y25013D01*
X398369Y24865D01*
Y23852D01*
X398144Y21567D01*
X397696Y19315D01*
X397029Y17118D01*
X396150Y14997D01*
X395068Y12972D01*
X393793Y11062D01*
X392336Y9288D01*
X390712Y7664D01*
X388937Y6208D01*
X387028Y4932D01*
X385003Y3850D01*
X382882Y2971D01*
X380685Y2304D01*
X378433Y1856D01*
X376148Y1631D01*
X371135D01*
X370983Y2131D01*
X371514Y2486D01*
X371978Y3181D01*
X372141Y4000D01*
X371978Y4819D01*
X371514Y5514D01*
X370819Y5978D01*
X370000Y6141D01*
X369181Y5978D01*
X368486Y5514D01*
X368022Y4819D01*
X367859Y4000D01*
X368022Y3181D01*
X368486Y2486D01*
X369017Y2131D01*
X368865Y1631D01*
X363135D01*
X362983Y2131D01*
X363514Y2486D01*
X363978Y3181D01*
X364141Y4000D01*
X363978Y4819D01*
X363514Y5514D01*
X362819Y5978D01*
X362000Y6141D01*
X361181Y5978D01*
X360486Y5514D01*
X360022Y4819D01*
X359859Y4000D01*
X360022Y3181D01*
X360486Y2486D01*
X361017Y2131D01*
X360865Y1631D01*
X355135D01*
X354983Y2131D01*
X355514Y2486D01*
X355978Y3181D01*
X356141Y4000D01*
X355978Y4819D01*
X355514Y5514D01*
X354819Y5978D01*
X354000Y6141D01*
X353181Y5978D01*
X352486Y5514D01*
X352022Y4819D01*
X351859Y4000D01*
X352022Y3181D01*
X352486Y2486D01*
X353017Y2131D01*
X352865Y1631D01*
X347135D01*
X346983Y2131D01*
X347514Y2486D01*
X347978Y3181D01*
X348141Y4000D01*
X347978Y4819D01*
X347514Y5514D01*
X346819Y5978D01*
X346000Y6141D01*
X345181Y5978D01*
X344486Y5514D01*
X344022Y4819D01*
X343859Y4000D01*
X344022Y3181D01*
X344486Y2486D01*
X345017Y2131D01*
X344865Y1631D01*
X339135D01*
X338983Y2131D01*
X339514Y2486D01*
X339978Y3181D01*
X340141Y4000D01*
X339978Y4819D01*
X339514Y5514D01*
X338819Y5978D01*
X338000Y6141D01*
X337181Y5978D01*
X336486Y5514D01*
X336022Y4819D01*
X335859Y4000D01*
X336022Y3181D01*
X336486Y2486D01*
X337017Y2131D01*
X336865Y1631D01*
X331135D01*
X330983Y2131D01*
X331514Y2486D01*
X331978Y3181D01*
X332141Y4000D01*
X331978Y4819D01*
X331514Y5514D01*
X330819Y5978D01*
X330000Y6141D01*
X329181Y5978D01*
X328486Y5514D01*
X328022Y4819D01*
X327859Y4000D01*
X328022Y3181D01*
X328486Y2486D01*
X329017Y2131D01*
X328865Y1631D01*
X323135D01*
X322983Y2131D01*
X323514Y2486D01*
X323978Y3181D01*
X324141Y4000D01*
X323978Y4819D01*
X323514Y5514D01*
X322819Y5978D01*
X322000Y6141D01*
X321181Y5978D01*
X320486Y5514D01*
X320022Y4819D01*
X319859Y4000D01*
X320022Y3181D01*
X320486Y2486D01*
X321017Y2131D01*
X320865Y1631D01*
X315135D01*
X314983Y2131D01*
X315514Y2486D01*
X315978Y3181D01*
X316141Y4000D01*
X315978Y4819D01*
X315514Y5514D01*
X314819Y5978D01*
X314000Y6141D01*
X313181Y5978D01*
X312486Y5514D01*
X312022Y4819D01*
X311859Y4000D01*
X312022Y3181D01*
X312486Y2486D01*
X313017Y2131D01*
X312865Y1631D01*
X307135D01*
X306983Y2131D01*
X307514Y2486D01*
X307978Y3181D01*
X308141Y4000D01*
X307978Y4819D01*
X307514Y5514D01*
X306819Y5978D01*
X306000Y6141D01*
X305181Y5978D01*
X304486Y5514D01*
X304022Y4819D01*
X303859Y4000D01*
X304022Y3181D01*
X304486Y2486D01*
X305017Y2131D01*
X304865Y1631D01*
X299135D01*
X298983Y2131D01*
X299514Y2486D01*
X299978Y3181D01*
X300141Y4000D01*
X299978Y4819D01*
X299514Y5514D01*
X298819Y5978D01*
X298000Y6141D01*
X297181Y5978D01*
X296486Y5514D01*
X296022Y4819D01*
X295859Y4000D01*
X296022Y3181D01*
X296486Y2486D01*
X297017Y2131D01*
X296865Y1631D01*
X291135D01*
X290983Y2131D01*
X291514Y2486D01*
X291978Y3181D01*
X292141Y4000D01*
X291978Y4819D01*
X291514Y5514D01*
X290819Y5978D01*
X290000Y6141D01*
X289181Y5978D01*
X288486Y5514D01*
X288022Y4819D01*
X287859Y4000D01*
X288022Y3181D01*
X288486Y2486D01*
X289017Y2131D01*
X288865Y1631D01*
X283135D01*
X282983Y2131D01*
X283514Y2486D01*
X283978Y3181D01*
X284141Y4000D01*
X283978Y4819D01*
X283514Y5514D01*
X282819Y5978D01*
X282000Y6141D01*
X281181Y5978D01*
X280486Y5514D01*
X280022Y4819D01*
X279859Y4000D01*
X280022Y3181D01*
X280486Y2486D01*
X281017Y2131D01*
X280865Y1631D01*
X275135D01*
X274983Y2131D01*
X275514Y2486D01*
X275978Y3181D01*
X276141Y4000D01*
X275978Y4819D01*
X275514Y5514D01*
X274819Y5978D01*
X274000Y6141D01*
X273181Y5978D01*
X272486Y5514D01*
X272022Y4819D01*
X271859Y4000D01*
X272022Y3181D01*
X272486Y2486D01*
X273017Y2131D01*
X272865Y1631D01*
X267135D01*
X266983Y2131D01*
X267514Y2486D01*
X267978Y3181D01*
X268141Y4000D01*
X267978Y4819D01*
X267514Y5514D01*
X266819Y5978D01*
X266000Y6141D01*
X265181Y5978D01*
X264486Y5514D01*
X264022Y4819D01*
X263859Y4000D01*
X264022Y3181D01*
X264486Y2486D01*
X265017Y2131D01*
X264865Y1631D01*
X259135D01*
X258983Y2131D01*
X259514Y2486D01*
X259978Y3181D01*
X260141Y4000D01*
X259978Y4819D01*
X259514Y5514D01*
X258819Y5978D01*
X258000Y6141D01*
X257181Y5978D01*
X256486Y5514D01*
X256022Y4819D01*
X255859Y4000D01*
X256022Y3181D01*
X256486Y2486D01*
X257017Y2131D01*
X256865Y1631D01*
X251135D01*
X250983Y2131D01*
X251514Y2486D01*
X251978Y3181D01*
X252141Y4000D01*
X251978Y4819D01*
X251514Y5514D01*
X250819Y5978D01*
X250000Y6141D01*
X249181Y5978D01*
X248486Y5514D01*
X248022Y4819D01*
X247859Y4000D01*
X248022Y3181D01*
X248486Y2486D01*
X249017Y2131D01*
X248865Y1631D01*
X243135D01*
X242983Y2131D01*
X243514Y2486D01*
X243978Y3181D01*
X244141Y4000D01*
X243978Y4819D01*
X243514Y5514D01*
X242819Y5978D01*
X242000Y6141D01*
X241181Y5978D01*
X240486Y5514D01*
X240022Y4819D01*
X239859Y4000D01*
X240022Y3181D01*
X240486Y2486D01*
X241017Y2131D01*
X240865Y1631D01*
X235135D01*
X234983Y2131D01*
X235514Y2486D01*
X235978Y3181D01*
X236141Y4000D01*
X235978Y4819D01*
X235514Y5514D01*
X234819Y5978D01*
X234000Y6141D01*
X233181Y5978D01*
X232486Y5514D01*
X232022Y4819D01*
X231859Y4000D01*
X232022Y3181D01*
X232486Y2486D01*
X233017Y2131D01*
X232865Y1631D01*
X227135D01*
X226983Y2131D01*
X227514Y2486D01*
X227978Y3181D01*
X228141Y4000D01*
X227978Y4819D01*
X227514Y5514D01*
X226819Y5978D01*
X226000Y6141D01*
X225181Y5978D01*
X224486Y5514D01*
X224022Y4819D01*
X223859Y4000D01*
X224022Y3181D01*
X224486Y2486D01*
X225017Y2131D01*
X224865Y1631D01*
X219135D01*
X218983Y2131D01*
X219514Y2486D01*
X219978Y3181D01*
X220141Y4000D01*
X219978Y4819D01*
X219514Y5514D01*
X218819Y5978D01*
X218000Y6141D01*
X217181Y5978D01*
X216486Y5514D01*
X216022Y4819D01*
X215859Y4000D01*
X216022Y3181D01*
X216486Y2486D01*
X217017Y2131D01*
X216865Y1631D01*
X211135D01*
X210983Y2131D01*
X211514Y2486D01*
X211978Y3181D01*
X212141Y4000D01*
X211978Y4819D01*
X211514Y5514D01*
X210819Y5978D01*
X210000Y6141D01*
X209181Y5978D01*
X208486Y5514D01*
X208022Y4819D01*
X207859Y4000D01*
X208022Y3181D01*
X208486Y2486D01*
X209017Y2131D01*
X208865Y1631D01*
X203135D01*
X202983Y2131D01*
X203514Y2486D01*
X203978Y3181D01*
X204141Y4000D01*
X203978Y4819D01*
X203514Y5514D01*
X202819Y5978D01*
X202000Y6141D01*
X201181Y5978D01*
X200486Y5514D01*
X200022Y4819D01*
X199859Y4000D01*
X200022Y3181D01*
X200486Y2486D01*
X201017Y2131D01*
X200865Y1631D01*
X195135D01*
X194983Y2131D01*
X195514Y2486D01*
X195978Y3181D01*
X196141Y4000D01*
X195978Y4819D01*
X195514Y5514D01*
X194819Y5978D01*
X194000Y6141D01*
X193181Y5978D01*
X192486Y5514D01*
X192022Y4819D01*
X191859Y4000D01*
X192022Y3181D01*
X192486Y2486D01*
X193017Y2131D01*
X192865Y1631D01*
X187135D01*
X186983Y2131D01*
X187514Y2486D01*
X187978Y3181D01*
X188141Y4000D01*
X187978Y4819D01*
X187514Y5514D01*
X186819Y5978D01*
X186000Y6141D01*
X185181Y5978D01*
X184486Y5514D01*
X184022Y4819D01*
X183859Y4000D01*
X184022Y3181D01*
X184486Y2486D01*
X185017Y2131D01*
X184865Y1631D01*
X179135D01*
X178983Y2131D01*
X179514Y2486D01*
X179978Y3181D01*
X180141Y4000D01*
X179978Y4819D01*
X179514Y5514D01*
X178819Y5978D01*
X178000Y6141D01*
X177181Y5978D01*
X176486Y5514D01*
X176022Y4819D01*
X175859Y4000D01*
X176022Y3181D01*
X176486Y2486D01*
X177017Y2131D01*
X176865Y1631D01*
X171135D01*
X170983Y2131D01*
X171514Y2486D01*
X171978Y3181D01*
X172141Y4000D01*
X171978Y4819D01*
X171514Y5514D01*
X170819Y5978D01*
X170000Y6141D01*
X169181Y5978D01*
X168486Y5514D01*
X168022Y4819D01*
X167859Y4000D01*
X168022Y3181D01*
X168486Y2486D01*
X169017Y2131D01*
X168865Y1631D01*
X163135D01*
X162983Y2131D01*
X163514Y2486D01*
X163978Y3181D01*
X164141Y4000D01*
X163978Y4819D01*
X163514Y5514D01*
X162819Y5978D01*
X162000Y6141D01*
X161181Y5978D01*
X160486Y5514D01*
X160022Y4819D01*
X159859Y4000D01*
X160022Y3181D01*
X160486Y2486D01*
X161017Y2131D01*
X160865Y1631D01*
X155135D01*
X154983Y2131D01*
X155514Y2486D01*
X155978Y3181D01*
X156141Y4000D01*
X155978Y4819D01*
X155514Y5514D01*
X154819Y5978D01*
X154000Y6141D01*
X153181Y5978D01*
X152486Y5514D01*
X152022Y4819D01*
X151859Y4000D01*
X152022Y3181D01*
X152486Y2486D01*
X153017Y2131D01*
X152865Y1631D01*
X147135D01*
X146983Y2131D01*
X147514Y2486D01*
X147978Y3181D01*
X148141Y4000D01*
X147978Y4819D01*
X147514Y5514D01*
X146819Y5978D01*
X146000Y6141D01*
X145181Y5978D01*
X144486Y5514D01*
X144022Y4819D01*
X143859Y4000D01*
X144022Y3181D01*
X144486Y2486D01*
X145017Y2131D01*
X144865Y1631D01*
X139135D01*
X138983Y2131D01*
X139514Y2486D01*
X139978Y3181D01*
X140141Y4000D01*
X139978Y4819D01*
X139514Y5514D01*
X138819Y5978D01*
X138000Y6141D01*
X137181Y5978D01*
X136486Y5514D01*
X136022Y4819D01*
X135859Y4000D01*
X136022Y3181D01*
X136486Y2486D01*
X137017Y2131D01*
X136865Y1631D01*
X131135D01*
X130983Y2131D01*
X131514Y2486D01*
X131978Y3181D01*
X132141Y4000D01*
X131978Y4819D01*
X131514Y5514D01*
X130819Y5978D01*
X130000Y6141D01*
X129181Y5978D01*
X128486Y5514D01*
X128022Y4819D01*
X127859Y4000D01*
X128022Y3181D01*
X128486Y2486D01*
X129017Y2131D01*
X128865Y1631D01*
X123135D01*
X122983Y2131D01*
X123514Y2486D01*
X123978Y3181D01*
X124141Y4000D01*
X123978Y4819D01*
X123514Y5514D01*
X122819Y5978D01*
X122000Y6141D01*
X121181Y5978D01*
X120486Y5514D01*
X120022Y4819D01*
X119859Y4000D01*
X120022Y3181D01*
X120486Y2486D01*
X121017Y2131D01*
X120865Y1631D01*
X115135D01*
X114983Y2131D01*
X115514Y2486D01*
X115978Y3181D01*
X116141Y4000D01*
X115978Y4819D01*
X115514Y5514D01*
X114819Y5978D01*
X114000Y6141D01*
X113181Y5978D01*
X112486Y5514D01*
X112022Y4819D01*
X111859Y4000D01*
X112022Y3181D01*
X112486Y2486D01*
X113017Y2131D01*
X112865Y1631D01*
X107135D01*
X106983Y2131D01*
X107514Y2486D01*
X107978Y3181D01*
X108141Y4000D01*
X107978Y4819D01*
X107514Y5514D01*
X106819Y5978D01*
X106000Y6141D01*
X105181Y5978D01*
X104486Y5514D01*
X104022Y4819D01*
X103859Y4000D01*
X104022Y3181D01*
X104486Y2486D01*
X105017Y2131D01*
X104865Y1631D01*
X99135D01*
X98983Y2131D01*
X99514Y2486D01*
X99978Y3181D01*
X100141Y4000D01*
X99978Y4819D01*
X99514Y5514D01*
X98819Y5978D01*
X98000Y6141D01*
X97181Y5978D01*
X96486Y5514D01*
X96022Y4819D01*
X95859Y4000D01*
X96022Y3181D01*
X96486Y2486D01*
X97017Y2131D01*
X96865Y1631D01*
X91135D01*
X90983Y2131D01*
X91514Y2486D01*
X91978Y3181D01*
X92141Y4000D01*
X91978Y4819D01*
X91514Y5514D01*
X90819Y5978D01*
X90000Y6141D01*
X89181Y5978D01*
X88486Y5514D01*
X88022Y4819D01*
X87859Y4000D01*
X88022Y3181D01*
X88486Y2486D01*
X89017Y2131D01*
X88865Y1631D01*
X83135D01*
X82983Y2131D01*
X83514Y2486D01*
X83978Y3181D01*
X84141Y4000D01*
X83978Y4819D01*
X83514Y5514D01*
X82819Y5978D01*
X82000Y6141D01*
X81181Y5978D01*
X80486Y5514D01*
X80022Y4819D01*
X79859Y4000D01*
X80022Y3181D01*
X80486Y2486D01*
X81017Y2131D01*
X80865Y1631D01*
X75135D01*
X74983Y2131D01*
X75514Y2486D01*
X75978Y3181D01*
X76141Y4000D01*
X75978Y4819D01*
X75514Y5514D01*
X74819Y5978D01*
X74000Y6141D01*
X73181Y5978D01*
X72486Y5514D01*
X72022Y4819D01*
X71859Y4000D01*
X72022Y3181D01*
X72486Y2486D01*
X73017Y2131D01*
X72865Y1631D01*
X67135D01*
X66983Y2131D01*
X67514Y2486D01*
X67978Y3181D01*
X68141Y4000D01*
X67978Y4819D01*
X67514Y5514D01*
X66819Y5978D01*
X66000Y6141D01*
X65181Y5978D01*
X64486Y5514D01*
X64022Y4819D01*
X63859Y4000D01*
X64022Y3181D01*
X64486Y2486D01*
X65017Y2131D01*
X64865Y1631D01*
X59135D01*
X58983Y2131D01*
X59514Y2486D01*
X59978Y3181D01*
X60141Y4000D01*
X59978Y4819D01*
X59514Y5514D01*
X58819Y5978D01*
X58000Y6141D01*
X57181Y5978D01*
X56486Y5514D01*
X56022Y4819D01*
X55859Y4000D01*
X56022Y3181D01*
X56486Y2486D01*
X57017Y2131D01*
X56865Y1631D01*
X51135D01*
X50983Y2131D01*
X51514Y2486D01*
X51978Y3181D01*
X52141Y4000D01*
X51978Y4819D01*
X51514Y5514D01*
X50819Y5978D01*
X50000Y6141D01*
X49181Y5978D01*
X48486Y5514D01*
X48022Y4819D01*
X47859Y4000D01*
X48022Y3181D01*
X48486Y2486D01*
X49017Y2131D01*
X48865Y1631D01*
X43135D01*
X42983Y2131D01*
X43514Y2486D01*
X43978Y3181D01*
X44141Y4000D01*
X43978Y4819D01*
X43514Y5514D01*
X42819Y5978D01*
X42000Y6141D01*
X41181Y5978D01*
X40486Y5514D01*
X40022Y4819D01*
X39859Y4000D01*
X40022Y3181D01*
X40486Y2486D01*
X41017Y2131D01*
X40865Y1631D01*
X35135D01*
X34983Y2131D01*
X35514Y2486D01*
X35978Y3181D01*
X36141Y4000D01*
X35978Y4819D01*
X35514Y5514D01*
X34819Y5978D01*
X34000Y6141D01*
X33181Y5978D01*
X32486Y5514D01*
X32022Y4819D01*
X31859Y4000D01*
X32022Y3181D01*
X32486Y2486D01*
X33017Y2131D01*
X32865Y1631D01*
X27135D01*
X26983Y2131D01*
X27514Y2486D01*
X27978Y3181D01*
X28141Y4000D01*
X27978Y4819D01*
X27514Y5514D01*
X26819Y5978D01*
X26000Y6141D01*
X25181Y5978D01*
X24486Y5514D01*
X24022Y4819D01*
X23859Y4000D01*
X24022Y3181D01*
X24486Y2486D01*
X25017Y2131D01*
X24865Y1631D01*
X23852D01*
X21567Y1856D01*
X19315Y2304D01*
X17118Y2971D01*
X14997Y3850D01*
X12972Y4932D01*
X11062Y6207D01*
X9288Y7664D01*
X7664Y9288D01*
X6208Y11062D01*
X4932Y12972D01*
X3850Y14997D01*
X2971Y17118D01*
X2304Y19315D01*
X1856Y21567D01*
X1631Y23852D01*
Y24865D01*
X2030Y25013D01*
X2131Y25017D01*
X2486Y24486D01*
X3181Y24022D01*
X4000Y23859D01*
X4819Y24022D01*
X5514Y24486D01*
X5978Y25181D01*
X6141Y26000D01*
X5978Y26819D01*
X5514Y27514D01*
X4819Y27978D01*
X4000Y28141D01*
X3181Y27978D01*
X2486Y27514D01*
X2131Y26983D01*
X1631Y27135D01*
Y32865D01*
X2131Y33017D01*
X2486Y32486D01*
X3181Y32022D01*
X4000Y31859D01*
X4819Y32022D01*
X5514Y32486D01*
X5978Y33181D01*
X6057Y33577D01*
X6612Y33807D01*
X6714Y33739D01*
X7650Y33553D01*
X8586Y33739D01*
X9380Y34270D01*
X9911Y35064D01*
X10097Y36000D01*
X9911Y36936D01*
X9380Y37730D01*
X8586Y38261D01*
X7650Y38447D01*
X6714Y38261D01*
X5920Y37730D01*
X5389Y36936D01*
X5260Y36285D01*
X4846Y35997D01*
X4731Y35996D01*
X4000Y36141D01*
X3181Y35978D01*
X2486Y35514D01*
X2131Y34983D01*
X1631Y35135D01*
X1631Y50865D01*
X2131Y51017D01*
X2486Y50486D01*
X3181Y50022D01*
X4000Y49859D01*
X4819Y50022D01*
X5514Y50486D01*
X5978Y51181D01*
X6141Y52000D01*
X5978Y52819D01*
X5514Y53514D01*
X4819Y53978D01*
X4000Y54141D01*
X3181Y53978D01*
X2486Y53514D01*
X2131Y52983D01*
X1631Y53135D01*
Y58865D01*
X2131Y59017D01*
X2486Y58486D01*
X3181Y58022D01*
X4000Y57859D01*
X4819Y58022D01*
X5514Y58486D01*
X5978Y59181D01*
X6141Y60000D01*
X5978Y60819D01*
X5514Y61514D01*
X4819Y61978D01*
X4000Y62141D01*
X3181Y61978D01*
X2486Y61514D01*
X2131Y60983D01*
X1631Y61135D01*
Y66865D01*
X2131Y67017D01*
X2486Y66486D01*
X3181Y66022D01*
X4000Y65859D01*
X4819Y66022D01*
X5514Y66486D01*
X5978Y67181D01*
X6141Y68000D01*
X5978Y68819D01*
X5514Y69514D01*
X4819Y69978D01*
X4000Y70141D01*
X3181Y69978D01*
X2486Y69514D01*
X2131Y68983D01*
X1631Y69135D01*
Y80865D01*
X2131Y81017D01*
X2486Y80486D01*
X3181Y80022D01*
X4000Y79859D01*
X4819Y80022D01*
X5514Y80486D01*
X5978Y81181D01*
X6141Y82000D01*
X5978Y82819D01*
X5514Y83514D01*
X4819Y83978D01*
X4000Y84141D01*
X3181Y83978D01*
X2486Y83514D01*
X2131Y82983D01*
X1631Y83135D01*
Y113365D01*
X2131Y113517D01*
X2486Y112986D01*
X3181Y112522D01*
X4000Y112359D01*
X4819Y112522D01*
X5514Y112986D01*
X5978Y113681D01*
X6141Y114500D01*
X5978Y115319D01*
X5514Y116014D01*
X4819Y116478D01*
X4000Y116641D01*
X3181Y116478D01*
X2486Y116014D01*
X2131Y115483D01*
X1631Y115635D01*
X1631Y144865D01*
X2131Y145017D01*
X2486Y144486D01*
X3181Y144022D01*
X4000Y143859D01*
X4819Y144022D01*
X5514Y144486D01*
X5978Y145181D01*
X6141Y146000D01*
X5978Y146819D01*
X5514Y147514D01*
X4819Y147978D01*
X4000Y148141D01*
X3181Y147978D01*
X2486Y147514D01*
X2131Y146983D01*
X1631Y147135D01*
Y152865D01*
X2131Y153017D01*
X2486Y152486D01*
X3181Y152022D01*
X4000Y151859D01*
X4819Y152022D01*
X5514Y152486D01*
X5978Y153181D01*
X6141Y154000D01*
X5978Y154819D01*
X5514Y155514D01*
X4819Y155978D01*
X4000Y156141D01*
X3181Y155978D01*
X2486Y155514D01*
X2131Y154983D01*
X1631Y155135D01*
X1631Y160865D01*
X2131Y161017D01*
X2486Y160486D01*
X3181Y160022D01*
X4000Y159859D01*
X4819Y160022D01*
X5514Y160486D01*
X5978Y161181D01*
X6141Y162000D01*
X5978Y162819D01*
X5514Y163514D01*
X4819Y163978D01*
X4000Y164141D01*
X3181Y163978D01*
X2486Y163514D01*
X2131Y162983D01*
X1631Y163135D01*
Y168865D01*
X2131Y169017D01*
X2486Y168486D01*
X3181Y168022D01*
X4000Y167859D01*
X4819Y168022D01*
X5514Y168486D01*
X5978Y169181D01*
X6141Y170000D01*
X5978Y170819D01*
X5514Y171514D01*
X4819Y171978D01*
X4000Y172141D01*
X3181Y171978D01*
X2486Y171514D01*
X2131Y170983D01*
X1631Y171135D01*
Y176148D01*
X1856Y178433D01*
X2304Y180685D01*
X2971Y182882D01*
X3849Y185003D01*
X4932Y187028D01*
X6207Y188937D01*
X7664Y190712D01*
X9288Y192336D01*
X11062Y193793D01*
X12972Y195068D01*
X14997Y196151D01*
X17118Y197029D01*
X19315Y197696D01*
X21567Y198144D01*
X23852Y198369D01*
X24865D01*
X25017Y197869D01*
X24486Y197514D01*
X24022Y196819D01*
X23859Y196000D01*
X24022Y195181D01*
X24486Y194486D01*
X25181Y194022D01*
X26000Y193859D01*
X26819Y194022D01*
X27514Y194486D01*
X27978Y195181D01*
X28141Y196000D01*
X27978Y196819D01*
X27514Y197514D01*
X26983Y197869D01*
X27135Y198369D01*
X32865D01*
X33017Y197869D01*
X32486Y197514D01*
X32022Y196819D01*
X31859Y196000D01*
X32022Y195181D01*
X32486Y194486D01*
X33181Y194022D01*
X34000Y193859D01*
X34819Y194022D01*
X35514Y194486D01*
X35978Y195181D01*
X36141Y196000D01*
X35978Y196819D01*
X35514Y197514D01*
X34983Y197869D01*
X35135Y198369D01*
X40865D01*
X41017Y197869D01*
X40486Y197514D01*
X40022Y196819D01*
X39859Y196000D01*
X40022Y195181D01*
X40486Y194486D01*
X41181Y194022D01*
X42000Y193859D01*
X42819Y194022D01*
X43514Y194486D01*
X43978Y195181D01*
X44141Y196000D01*
X43978Y196819D01*
X43514Y197514D01*
X42983Y197869D01*
X43135Y198369D01*
X48865D01*
X49017Y197869D01*
X48486Y197514D01*
X48022Y196819D01*
X47859Y196000D01*
X48022Y195181D01*
X48486Y194486D01*
X49181Y194022D01*
X50000Y193859D01*
X50819Y194022D01*
X51514Y194486D01*
X51978Y195181D01*
X52141Y196000D01*
X51978Y196819D01*
X51514Y197514D01*
X50983Y197869D01*
X51135Y198369D01*
X56865D01*
X57017Y197869D01*
X56486Y197514D01*
X56022Y196819D01*
X55859Y196000D01*
X56022Y195181D01*
X56486Y194486D01*
X57181Y194022D01*
X58000Y193859D01*
X58819Y194022D01*
X59514Y194486D01*
X59978Y195181D01*
X60141Y196000D01*
X59978Y196819D01*
X59514Y197514D01*
X58983Y197869D01*
X59135Y198369D01*
X64865D01*
X65017Y197869D01*
X64486Y197514D01*
X64022Y196819D01*
X63859Y196000D01*
X64022Y195181D01*
X64486Y194486D01*
X65181Y194022D01*
X66000Y193859D01*
X66819Y194022D01*
X67514Y194486D01*
X67978Y195181D01*
X68141Y196000D01*
X67978Y196819D01*
X67514Y197514D01*
X66983Y197869D01*
X67135Y198369D01*
X72865D01*
X73017Y197869D01*
X72486Y197514D01*
X72022Y196819D01*
X71859Y196000D01*
X72022Y195181D01*
X72486Y194486D01*
X73181Y194022D01*
X74000Y193859D01*
X74819Y194022D01*
X75514Y194486D01*
X75978Y195181D01*
X76141Y196000D01*
X75978Y196819D01*
X75514Y197514D01*
X74983Y197869D01*
X75135Y198369D01*
X80865D01*
X81017Y197869D01*
X80486Y197514D01*
X80022Y196819D01*
X79859Y196000D01*
X80022Y195181D01*
X80486Y194486D01*
X81181Y194022D01*
X82000Y193859D01*
X82819Y194022D01*
X83514Y194486D01*
X83978Y195181D01*
X84141Y196000D01*
X83978Y196819D01*
X83514Y197514D01*
X82983Y197869D01*
X83135Y198369D01*
X88865D01*
X89017Y197869D01*
X88486Y197514D01*
X88022Y196819D01*
X87859Y196000D01*
X88022Y195181D01*
X88486Y194486D01*
X89181Y194022D01*
X90000Y193859D01*
X90819Y194022D01*
X91514Y194486D01*
X91978Y195181D01*
X92141Y196000D01*
X91978Y196819D01*
X91514Y197514D01*
X90983Y197869D01*
X91135Y198369D01*
X96865D01*
X97017Y197869D01*
X96486Y197514D01*
X96022Y196819D01*
X95859Y196000D01*
X96022Y195181D01*
X96486Y194486D01*
X97181Y194022D01*
X98000Y193859D01*
X98819Y194022D01*
X99514Y194486D01*
X99978Y195181D01*
X100141Y196000D01*
X99978Y196819D01*
X99514Y197514D01*
X98983Y197869D01*
X99135Y198369D01*
X104865D01*
X105017Y197869D01*
X104486Y197514D01*
X104022Y196819D01*
X103859Y196000D01*
X104022Y195181D01*
X104486Y194486D01*
X105181Y194022D01*
X106000Y193859D01*
X106819Y194022D01*
X107514Y194486D01*
X107978Y195181D01*
X108141Y196000D01*
X107978Y196819D01*
X107514Y197514D01*
X106983Y197869D01*
X107135Y198369D01*
X136865D01*
X137017Y197869D01*
X136486Y197514D01*
X136022Y196819D01*
X135859Y196000D01*
X136022Y195181D01*
X136486Y194486D01*
X137181Y194022D01*
X138000Y193859D01*
X138819Y194022D01*
X139514Y194486D01*
X139978Y195181D01*
X140141Y196000D01*
X139978Y196819D01*
X139514Y197514D01*
X138983Y197869D01*
X139135Y198369D01*
X144865D01*
X145017Y197869D01*
X144486Y197514D01*
X144022Y196819D01*
X143859Y196000D01*
X144022Y195181D01*
X144486Y194486D01*
X145181Y194022D01*
X146000Y193859D01*
X146819Y194022D01*
X147514Y194486D01*
X147978Y195181D01*
X148141Y196000D01*
X147978Y196819D01*
X147514Y197514D01*
X146983Y197869D01*
X147135Y198369D01*
X172865D01*
X173017Y197869D01*
X172486Y197514D01*
X172022Y196819D01*
X171859Y196000D01*
X172022Y195181D01*
X172486Y194486D01*
X173181Y194022D01*
X174000Y193859D01*
X174819Y194022D01*
X175514Y194486D01*
X175978Y195181D01*
X176141Y196000D01*
X175978Y196819D01*
X175514Y197514D01*
X174983Y197869D01*
X175135Y198369D01*
X180865D01*
X181017Y197869D01*
X180486Y197514D01*
X180022Y196819D01*
X179859Y196000D01*
X180022Y195181D01*
X180486Y194486D01*
X181181Y194022D01*
X182000Y193859D01*
X182819Y194022D01*
X183514Y194486D01*
X183978Y195181D01*
X184141Y196000D01*
X183978Y196819D01*
X183514Y197514D01*
X182983Y197869D01*
X183135Y198369D01*
X188865D01*
X189017Y197869D01*
X188486Y197514D01*
X188022Y196819D01*
X187859Y196000D01*
X188022Y195181D01*
X188486Y194486D01*
X189181Y194022D01*
X190000Y193859D01*
X190819Y194022D01*
X191514Y194486D01*
X191978Y195181D01*
X192141Y196000D01*
X191978Y196819D01*
X191514Y197514D01*
X190983Y197869D01*
X191135Y198369D01*
X196865D01*
X197017Y197869D01*
X196486Y197514D01*
X196022Y196819D01*
X195859Y196000D01*
X196022Y195181D01*
X196486Y194486D01*
X197181Y194022D01*
X198000Y193859D01*
X198819Y194022D01*
X199514Y194486D01*
X199978Y195181D01*
X200141Y196000D01*
X199978Y196819D01*
X199514Y197514D01*
X198983Y197869D01*
X199135Y198369D01*
X204865D01*
X205017Y197869D01*
X204486Y197514D01*
X204022Y196819D01*
X203859Y196000D01*
X204022Y195181D01*
X204486Y194486D01*
X205181Y194022D01*
X206000Y193859D01*
X206819Y194022D01*
X207514Y194486D01*
X207978Y195181D01*
X208141Y196000D01*
X207978Y196819D01*
X207514Y197514D01*
X206983Y197869D01*
X207135Y198369D01*
X212865D01*
X213017Y197869D01*
X212486Y197514D01*
X212022Y196819D01*
X211859Y196000D01*
X212022Y195181D01*
X212486Y194486D01*
X213181Y194022D01*
X214000Y193859D01*
X214819Y194022D01*
X215514Y194486D01*
X215978Y195181D01*
X216141Y196000D01*
X215978Y196819D01*
X215514Y197514D01*
X214983Y197869D01*
X215135Y198369D01*
X220865D01*
X221017Y197869D01*
X220486Y197514D01*
X220022Y196819D01*
X219859Y196000D01*
X220022Y195181D01*
X220486Y194486D01*
X221181Y194022D01*
X222000Y193859D01*
X222819Y194022D01*
X223514Y194486D01*
X223978Y195181D01*
X224141Y196000D01*
X223978Y196819D01*
X223514Y197514D01*
X222983Y197869D01*
X223135Y198369D01*
X228865D01*
X229017Y197869D01*
X228486Y197514D01*
X228022Y196819D01*
X227859Y196000D01*
X228022Y195181D01*
X228486Y194486D01*
X229181Y194022D01*
X230000Y193859D01*
X230819Y194022D01*
X231514Y194486D01*
X231978Y195181D01*
X232141Y196000D01*
X231978Y196819D01*
X231514Y197514D01*
X230983Y197869D01*
X231135Y198369D01*
X236865D01*
X237017Y197869D01*
X236486Y197514D01*
X236022Y196819D01*
X235859Y196000D01*
X236022Y195181D01*
X236486Y194486D01*
X237181Y194022D01*
X238000Y193859D01*
X238819Y194022D01*
X239514Y194486D01*
X239978Y195181D01*
X240141Y196000D01*
X239978Y196819D01*
X239514Y197514D01*
X238983Y197869D01*
X239135Y198369D01*
X244865D01*
X245017Y197869D01*
X244486Y197514D01*
X244022Y196819D01*
X243859Y196000D01*
X244022Y195181D01*
X244486Y194486D01*
X245181Y194022D01*
X246000Y193859D01*
X246819Y194022D01*
X247514Y194486D01*
X247978Y195181D01*
X248141Y196000D01*
X247978Y196819D01*
X247514Y197514D01*
X246983Y197869D01*
X247135Y198369D01*
X252865D01*
X253017Y197869D01*
X252486Y197514D01*
X252022Y196819D01*
X251859Y196000D01*
X252022Y195181D01*
X252486Y194486D01*
X253181Y194022D01*
X254000Y193859D01*
X254819Y194022D01*
X255514Y194486D01*
X255978Y195181D01*
X256141Y196000D01*
X255978Y196819D01*
X255514Y197514D01*
X254983Y197869D01*
X255135Y198369D01*
X260865D01*
X261017Y197869D01*
X260486Y197514D01*
X260022Y196819D01*
X259859Y196000D01*
X260022Y195181D01*
X260486Y194486D01*
X261181Y194022D01*
X262000Y193859D01*
X262819Y194022D01*
X263514Y194486D01*
X263978Y195181D01*
X264141Y196000D01*
X263978Y196819D01*
X263514Y197514D01*
X262983Y197869D01*
X263135Y198369D01*
X268865D01*
X269017Y197869D01*
X268486Y197514D01*
X268022Y196819D01*
X267859Y196000D01*
X268022Y195181D01*
X268486Y194486D01*
X269181Y194022D01*
X270000Y193859D01*
X270819Y194022D01*
X271514Y194486D01*
X271978Y195181D01*
X272141Y196000D01*
X271978Y196819D01*
X271514Y197514D01*
X270983Y197869D01*
X271135Y198369D01*
X276865D01*
X277017Y197869D01*
X276486Y197514D01*
X276022Y196819D01*
X275859Y196000D01*
X276022Y195181D01*
X276486Y194486D01*
X277181Y194022D01*
X278000Y193859D01*
X278819Y194022D01*
X279514Y194486D01*
X279978Y195181D01*
X280141Y196000D01*
X279978Y196819D01*
X279514Y197514D01*
X278983Y197869D01*
X279135Y198369D01*
X284865D01*
X285017Y197869D01*
X284486Y197514D01*
X284022Y196819D01*
X283859Y196000D01*
X284022Y195181D01*
X284486Y194486D01*
X285181Y194022D01*
X286000Y193859D01*
X286819Y194022D01*
X287514Y194486D01*
X287978Y195181D01*
X288141Y196000D01*
X287978Y196819D01*
X287514Y197514D01*
X286983Y197869D01*
X287135Y198369D01*
X292865D01*
X293017Y197869D01*
X292486Y197514D01*
X292022Y196819D01*
X291859Y196000D01*
X292022Y195181D01*
X292486Y194486D01*
X293181Y194022D01*
X294000Y193859D01*
X294819Y194022D01*
X295514Y194486D01*
X295978Y195181D01*
X296141Y196000D01*
X295978Y196819D01*
X295514Y197514D01*
X294983Y197869D01*
X295135Y198369D01*
X300865D01*
X301017Y197869D01*
X300486Y197514D01*
X300022Y196819D01*
X299859Y196000D01*
X300022Y195181D01*
X300486Y194486D01*
X301181Y194022D01*
X302000Y193859D01*
X302819Y194022D01*
X303514Y194486D01*
X303978Y195181D01*
X304141Y196000D01*
X303978Y196819D01*
X303514Y197514D01*
X302983Y197869D01*
X303135Y198369D01*
X308865D01*
X309017Y197869D01*
X308486Y197514D01*
X308022Y196819D01*
X307859Y196000D01*
X308022Y195181D01*
X308486Y194486D01*
X309181Y194022D01*
X310000Y193859D01*
X310819Y194022D01*
X311514Y194486D01*
X311978Y195181D01*
X312141Y196000D01*
X311978Y196819D01*
X311514Y197514D01*
X310983Y197869D01*
X311135Y198369D01*
X316865D01*
X317017Y197869D01*
X316486Y197514D01*
X316022Y196819D01*
X315859Y196000D01*
X316022Y195181D01*
X316486Y194486D01*
X317181Y194022D01*
X318000Y193859D01*
X318819Y194022D01*
X319514Y194486D01*
X319978Y195181D01*
X320141Y196000D01*
X319978Y196819D01*
X319514Y197514D01*
X318983Y197869D01*
X319135Y198369D01*
X324865D01*
X325017Y197869D01*
X324486Y197514D01*
X324022Y196819D01*
X323859Y196000D01*
X324022Y195181D01*
X324486Y194486D01*
X325181Y194022D01*
X326000Y193859D01*
X326819Y194022D01*
X327514Y194486D01*
X327978Y195181D01*
X328141Y196000D01*
X327978Y196819D01*
X327514Y197514D01*
X326983Y197869D01*
X327135Y198369D01*
X332865D01*
X333017Y197869D01*
X332486Y197514D01*
X332022Y196819D01*
X331859Y196000D01*
X332022Y195181D01*
X332486Y194486D01*
X333181Y194022D01*
X334000Y193859D01*
X334819Y194022D01*
X335514Y194486D01*
X335978Y195181D01*
X336141Y196000D01*
X335978Y196819D01*
X335514Y197514D01*
X334983Y197869D01*
X335135Y198369D01*
X340865D01*
X341017Y197869D01*
X340486Y197514D01*
X340022Y196819D01*
X339859Y196000D01*
X340022Y195181D01*
X340486Y194486D01*
X341181Y194022D01*
X342000Y193859D01*
X342819Y194022D01*
X343514Y194486D01*
X343978Y195181D01*
X344141Y196000D01*
X343978Y196819D01*
X343514Y197514D01*
X342983Y197869D01*
X343135Y198369D01*
X348865D01*
X349017Y197869D01*
X348486Y197514D01*
X348022Y196819D01*
X347859Y196000D01*
X348022Y195181D01*
X348486Y194486D01*
X349181Y194022D01*
X350000Y193859D01*
X350819Y194022D01*
X351514Y194486D01*
X351978Y195181D01*
X352141Y196000D01*
X351978Y196819D01*
X351514Y197514D01*
X350983Y197869D01*
X351135Y198369D01*
X356865D01*
X357017Y197869D01*
X356486Y197514D01*
X356022Y196819D01*
X355859Y196000D01*
X356022Y195181D01*
X356486Y194486D01*
X357181Y194022D01*
X358000Y193859D01*
X358819Y194022D01*
X359514Y194486D01*
X359978Y195181D01*
X360141Y196000D01*
X359978Y196819D01*
X359514Y197514D01*
X358983Y197869D01*
X359135Y198369D01*
X364865D01*
X365017Y197869D01*
X364486Y197514D01*
X364022Y196819D01*
X363859Y196000D01*
X364022Y195181D01*
X364486Y194486D01*
X365181Y194022D01*
X366000Y193859D01*
X366819Y194022D01*
X367514Y194486D01*
X367978Y195181D01*
X368141Y196000D01*
X367978Y196819D01*
X367514Y197514D01*
X366983Y197869D01*
X367135Y198369D01*
X372865D01*
X373017Y197869D01*
X372486Y197514D01*
X372022Y196819D01*
X371859Y196000D01*
X372022Y195181D01*
X372486Y194486D01*
X373181Y194022D01*
X374000Y193859D01*
X374819Y194022D01*
X375514Y194486D01*
X375978Y195181D01*
X376141Y196000D01*
X375978Y196819D01*
X375514Y197514D01*
X374983Y197869D01*
X375135Y198369D01*
X376148D01*
X378433Y198144D01*
D02*
G37*
%LPC*%
G36*
X133500Y196542D02*
Y195000D01*
X135042D01*
X134978Y195319D01*
X134514Y196014D01*
X133819Y196478D01*
X133500Y196542D01*
D02*
G37*
G36*
X132500D02*
X132181Y196478D01*
X131486Y196014D01*
X131022Y195319D01*
X130958Y195000D01*
X132500D01*
Y196542D01*
D02*
G37*
G36*
X135042Y194000D02*
X133500D01*
Y192458D01*
X133819Y192522D01*
X134514Y192986D01*
X134978Y193681D01*
X135042Y194000D01*
D02*
G37*
G36*
X132500D02*
X130958D01*
X131022Y193681D01*
X131486Y192986D01*
X132181Y192522D01*
X132500Y192458D01*
Y194000D01*
D02*
G37*
G36*
X153500Y196641D02*
X152681Y196478D01*
X151986Y196014D01*
X151522Y195319D01*
X151359Y194500D01*
X151522Y193681D01*
X151986Y192986D01*
X152681Y192522D01*
X153500Y192359D01*
X154319Y192522D01*
X155014Y192986D01*
X155478Y193681D01*
X155641Y194500D01*
X155478Y195319D01*
X155014Y196014D01*
X154319Y196478D01*
X153500Y196641D01*
D02*
G37*
G36*
X116000D02*
X115181Y196478D01*
X114486Y196014D01*
X114022Y195319D01*
X113859Y194500D01*
X114022Y193681D01*
X114486Y192986D01*
X115181Y192522D01*
X116000Y192359D01*
X116819Y192522D01*
X117514Y192986D01*
X117978Y193681D01*
X118141Y194500D01*
X117978Y195319D01*
X117514Y196014D01*
X116819Y196478D01*
X116000Y196641D01*
D02*
G37*
G36*
X153500Y189641D02*
X152681Y189478D01*
X151986Y189014D01*
X151522Y188319D01*
X151359Y187500D01*
X151522Y186681D01*
X151986Y185986D01*
X152681Y185522D01*
X153500Y185359D01*
X154319Y185522D01*
X155014Y185986D01*
X155478Y186681D01*
X155641Y187500D01*
X155478Y188319D01*
X155014Y189014D01*
X154319Y189478D01*
X153500Y189641D01*
D02*
G37*
G36*
X116000D02*
X115181Y189478D01*
X114486Y189014D01*
X114022Y188319D01*
X113859Y187500D01*
X114022Y186681D01*
X114486Y185986D01*
X115181Y185522D01*
X116000Y185359D01*
X116819Y185522D01*
X117514Y185986D01*
X117978Y186681D01*
X118141Y187500D01*
X117978Y188319D01*
X117514Y189014D01*
X116819Y189478D01*
X116000Y189641D01*
D02*
G37*
G36*
X178595Y182211D02*
X177500D01*
Y178500D01*
X181211D01*
Y179595D01*
X181122Y180272D01*
X180861Y180903D01*
X180445Y181445D01*
X179903Y181861D01*
X179272Y182122D01*
X178595Y182211D01*
D02*
G37*
G36*
X129095D02*
X128000D01*
Y178500D01*
X131711D01*
Y179595D01*
X131622Y180272D01*
X131361Y180903D01*
X130945Y181445D01*
X130403Y181861D01*
X129772Y182122D01*
X129095Y182211D01*
D02*
G37*
G36*
X176500D02*
X175406D01*
X174728Y182122D01*
X174097Y181861D01*
X173555Y181445D01*
X173139Y180903D01*
X172878Y180272D01*
X172789Y179595D01*
Y178500D01*
X176500D01*
Y182211D01*
D02*
G37*
G36*
X127000D02*
X125906D01*
X125228Y182122D01*
X124597Y181861D01*
X124055Y181445D01*
X123639Y180903D01*
X123378Y180272D01*
X123289Y179595D01*
Y178500D01*
X127000D01*
Y182211D01*
D02*
G37*
G36*
X181211Y177500D02*
X177500D01*
Y173789D01*
X178595D01*
X179272Y173878D01*
X179903Y174139D01*
X180445Y174555D01*
X180861Y175097D01*
X181122Y175728D01*
X181211Y176406D01*
Y177500D01*
D02*
G37*
G36*
X176500D02*
X172789D01*
Y176406D01*
X172878Y175728D01*
X173139Y175097D01*
X173555Y174555D01*
X174097Y174139D01*
X174728Y173878D01*
X175406Y173789D01*
X176500D01*
Y177500D01*
D02*
G37*
G36*
X131711D02*
X128000D01*
Y173789D01*
X129095D01*
X129772Y173878D01*
X130403Y174139D01*
X130945Y174555D01*
X131361Y175097D01*
X131622Y175728D01*
X131711Y176406D01*
Y177500D01*
D02*
G37*
G36*
X127000D02*
X123289D01*
Y176406D01*
X123378Y175728D01*
X123639Y175097D01*
X124055Y174555D01*
X124597Y174139D01*
X125228Y173878D01*
X125906Y173789D01*
X127000D01*
Y177500D01*
D02*
G37*
G36*
X167000Y182528D02*
X165828Y182373D01*
X164736Y181921D01*
X163798Y181202D01*
X163079Y180264D01*
X162627Y179172D01*
X162472Y178000D01*
X162627Y176828D01*
X163079Y175736D01*
X163798Y174798D01*
X164736Y174079D01*
X165828Y173627D01*
X167000Y173472D01*
X168172Y173627D01*
X169264Y174079D01*
X170202Y174798D01*
X170921Y175736D01*
X171373Y176828D01*
X171528Y178000D01*
X171373Y179172D01*
X170921Y180264D01*
X170202Y181202D01*
X169264Y181921D01*
X168172Y182373D01*
X167000Y182528D01*
D02*
G37*
G36*
X157000D02*
X155828Y182373D01*
X154736Y181921D01*
X153798Y181202D01*
X153079Y180264D01*
X152627Y179172D01*
X152472Y178000D01*
X152627Y176828D01*
X153079Y175736D01*
X153798Y174798D01*
X154736Y174079D01*
X155828Y173627D01*
X157000Y173472D01*
X158172Y173627D01*
X159264Y174079D01*
X160202Y174798D01*
X160921Y175736D01*
X161373Y176828D01*
X161528Y178000D01*
X161373Y179172D01*
X160921Y180264D01*
X160202Y181202D01*
X159264Y181921D01*
X158172Y182373D01*
X157000Y182528D01*
D02*
G37*
G36*
X147000D02*
X145828Y182373D01*
X144736Y181921D01*
X143798Y181202D01*
X143079Y180264D01*
X142627Y179172D01*
X142472Y178000D01*
X142627Y176828D01*
X143079Y175736D01*
X143798Y174798D01*
X144736Y174079D01*
X145828Y173627D01*
X147000Y173472D01*
X148172Y173627D01*
X149264Y174079D01*
X150202Y174798D01*
X150921Y175736D01*
X151373Y176828D01*
X151528Y178000D01*
X151373Y179172D01*
X150921Y180264D01*
X150202Y181202D01*
X149264Y181921D01*
X148172Y182373D01*
X147000Y182528D01*
D02*
G37*
G36*
X117500D02*
X116328Y182373D01*
X115236Y181921D01*
X114298Y181202D01*
X113579Y180264D01*
X113127Y179172D01*
X112972Y178000D01*
X113127Y176828D01*
X113579Y175736D01*
X114298Y174798D01*
X115236Y174079D01*
X116328Y173627D01*
X117500Y173472D01*
X118672Y173627D01*
X119764Y174079D01*
X120702Y174798D01*
X121421Y175736D01*
X121873Y176828D01*
X122028Y178000D01*
X121873Y179172D01*
X121421Y180264D01*
X120702Y181202D01*
X119764Y181921D01*
X118672Y182373D01*
X117500Y182528D01*
D02*
G37*
G36*
X107500D02*
X106328Y182373D01*
X105236Y181921D01*
X104298Y181202D01*
X103579Y180264D01*
X103127Y179172D01*
X102972Y178000D01*
X103127Y176828D01*
X103579Y175736D01*
X104298Y174798D01*
X105236Y174079D01*
X106328Y173627D01*
X107500Y173472D01*
X108672Y173627D01*
X109764Y174079D01*
X110702Y174798D01*
X111421Y175736D01*
X111873Y176828D01*
X112028Y178000D01*
X111873Y179172D01*
X111421Y180264D01*
X110702Y181202D01*
X109764Y181921D01*
X108672Y182373D01*
X107500Y182528D01*
D02*
G37*
G36*
X97500D02*
X96328Y182373D01*
X95236Y181921D01*
X94298Y181202D01*
X93579Y180264D01*
X93127Y179172D01*
X92972Y178000D01*
X93127Y176828D01*
X93579Y175736D01*
X94298Y174798D01*
X95236Y174079D01*
X96328Y173627D01*
X97500Y173472D01*
X98672Y173627D01*
X99764Y174079D01*
X100702Y174798D01*
X101421Y175736D01*
X101873Y176828D01*
X102028Y178000D01*
X101873Y179172D01*
X101421Y180264D01*
X100702Y181202D01*
X99764Y181921D01*
X98672Y182373D01*
X97500Y182528D01*
D02*
G37*
G36*
X87500D02*
X86328Y182373D01*
X85236Y181921D01*
X84298Y181202D01*
X83579Y180264D01*
X83127Y179172D01*
X82972Y178000D01*
X83127Y176828D01*
X83579Y175736D01*
X84298Y174798D01*
X85236Y174079D01*
X86328Y173627D01*
X87500Y173472D01*
X88672Y173627D01*
X89764Y174079D01*
X90702Y174798D01*
X91421Y175736D01*
X91873Y176828D01*
X92028Y178000D01*
X91873Y179172D01*
X91421Y180264D01*
X90702Y181202D01*
X89764Y181921D01*
X88672Y182373D01*
X87500Y182528D01*
D02*
G37*
G36*
X77500D02*
X76328Y182373D01*
X75236Y181921D01*
X74298Y181202D01*
X73579Y180264D01*
X73127Y179172D01*
X72972Y178000D01*
X73127Y176828D01*
X73579Y175736D01*
X74298Y174798D01*
X75236Y174079D01*
X76328Y173627D01*
X77500Y173472D01*
X78672Y173627D01*
X79764Y174079D01*
X80702Y174798D01*
X81421Y175736D01*
X81873Y176828D01*
X82028Y178000D01*
X81873Y179172D01*
X81421Y180264D01*
X80702Y181202D01*
X79764Y181921D01*
X78672Y182373D01*
X77500Y182528D01*
D02*
G37*
G36*
X67500D02*
X66328Y182373D01*
X65236Y181921D01*
X64298Y181202D01*
X63579Y180264D01*
X63127Y179172D01*
X62972Y178000D01*
X63127Y176828D01*
X63579Y175736D01*
X64298Y174798D01*
X65236Y174079D01*
X66328Y173627D01*
X67500Y173472D01*
X68672Y173627D01*
X69764Y174079D01*
X70702Y174798D01*
X71421Y175736D01*
X71873Y176828D01*
X72028Y178000D01*
X71873Y179172D01*
X71421Y180264D01*
X70702Y181202D01*
X69764Y181921D01*
X68672Y182373D01*
X67500Y182528D01*
D02*
G37*
G36*
X57500D02*
X56328Y182373D01*
X55236Y181921D01*
X54298Y181202D01*
X53579Y180264D01*
X53127Y179172D01*
X52972Y178000D01*
X53127Y176828D01*
X53579Y175736D01*
X54298Y174798D01*
X55236Y174079D01*
X56328Y173627D01*
X57500Y173472D01*
X58672Y173627D01*
X59764Y174079D01*
X60702Y174798D01*
X61421Y175736D01*
X61873Y176828D01*
X62028Y178000D01*
X61873Y179172D01*
X61421Y180264D01*
X60702Y181202D01*
X59764Y181921D01*
X58672Y182373D01*
X57500Y182528D01*
D02*
G37*
G36*
X47500D02*
X46328Y182373D01*
X45236Y181921D01*
X44298Y181202D01*
X43579Y180264D01*
X43127Y179172D01*
X42972Y178000D01*
X43127Y176828D01*
X43579Y175736D01*
X44298Y174798D01*
X45236Y174079D01*
X46328Y173627D01*
X47500Y173472D01*
X48672Y173627D01*
X49764Y174079D01*
X50702Y174798D01*
X51421Y175736D01*
X51873Y176828D01*
X52028Y178000D01*
X51873Y179172D01*
X51421Y180264D01*
X50702Y181202D01*
X49764Y181921D01*
X48672Y182373D01*
X47500Y182528D01*
D02*
G37*
G36*
X37500D02*
X36328Y182373D01*
X35236Y181921D01*
X34298Y181202D01*
X33579Y180264D01*
X33127Y179172D01*
X32972Y178000D01*
X33127Y176828D01*
X33579Y175736D01*
X34298Y174798D01*
X35236Y174079D01*
X36328Y173627D01*
X37500Y173472D01*
X38672Y173627D01*
X39764Y174079D01*
X40702Y174798D01*
X41421Y175736D01*
X41873Y176828D01*
X42028Y178000D01*
X41873Y179172D01*
X41421Y180264D01*
X40702Y181202D01*
X39764Y181921D01*
X38672Y182373D01*
X37500Y182528D01*
D02*
G37*
G36*
X380000Y189596D02*
X378128Y189412D01*
X376328Y188866D01*
X374669Y187979D01*
X373214Y186785D01*
X372021Y185331D01*
X371134Y183672D01*
X370588Y181872D01*
X370404Y180000D01*
X370588Y178128D01*
X371134Y176328D01*
X372021Y174669D01*
X373214Y173214D01*
X374669Y172021D01*
X376328Y171134D01*
X378128Y170588D01*
X380000Y170404D01*
X381872Y170588D01*
X383672Y171134D01*
X385331Y172021D01*
X386786Y173214D01*
X387979Y174669D01*
X388866Y176328D01*
X389412Y178128D01*
X389596Y180000D01*
X389412Y181872D01*
X388866Y183672D01*
X387979Y185331D01*
X386786Y186785D01*
X385331Y187979D01*
X383672Y188866D01*
X381872Y189412D01*
X380000Y189596D01*
D02*
G37*
G36*
X20000D02*
X18128Y189412D01*
X16328Y188866D01*
X14669Y187979D01*
X13214Y186785D01*
X12021Y185331D01*
X11134Y183672D01*
X10588Y181872D01*
X10404Y180000D01*
X10588Y178128D01*
X11134Y176328D01*
X12021Y174669D01*
X13214Y173214D01*
X14669Y172021D01*
X16328Y171134D01*
X18128Y170588D01*
X20000Y170404D01*
X21872Y170588D01*
X23672Y171134D01*
X25331Y172021D01*
X26786Y173214D01*
X27979Y174669D01*
X28866Y176328D01*
X29412Y178128D01*
X29596Y180000D01*
X29412Y181872D01*
X28866Y183672D01*
X27979Y185331D01*
X26786Y186785D01*
X25331Y187979D01*
X23672Y188866D01*
X21872Y189412D01*
X20000Y189596D01*
D02*
G37*
G36*
X128000Y172159D02*
Y168500D01*
X131659D01*
X131581Y169094D01*
X131159Y170113D01*
X130488Y170988D01*
X129613Y171659D01*
X128594Y172081D01*
X128000Y172159D01*
D02*
G37*
G36*
X127000D02*
X126407Y172081D01*
X125387Y171659D01*
X124512Y170988D01*
X123841Y170113D01*
X123419Y169094D01*
X123341Y168500D01*
X127000D01*
Y172159D01*
D02*
G37*
G36*
X213000Y168641D02*
X212181Y168478D01*
X211486Y168014D01*
X211022Y167319D01*
X210859Y166500D01*
X211022Y165681D01*
X211486Y164986D01*
X212181Y164522D01*
X213000Y164359D01*
X213819Y164522D01*
X214514Y164986D01*
X214978Y165681D01*
X215141Y166500D01*
X214978Y167319D01*
X214514Y168014D01*
X213819Y168478D01*
X213000Y168641D01*
D02*
G37*
G36*
X131659Y167500D02*
X128000D01*
Y163841D01*
X128594Y163919D01*
X129613Y164341D01*
X130488Y165012D01*
X131159Y165887D01*
X131581Y166906D01*
X131659Y167500D01*
D02*
G37*
G36*
X127000D02*
X123341D01*
X123419Y166906D01*
X123841Y165887D01*
X124512Y165012D01*
X125387Y164341D01*
X126407Y163919D01*
X127000Y163841D01*
Y167500D01*
D02*
G37*
G36*
X117500Y172528D02*
X116328Y172373D01*
X115236Y171921D01*
X114298Y171202D01*
X113579Y170264D01*
X113127Y169172D01*
X112972Y168000D01*
X113127Y166828D01*
X113579Y165736D01*
X114298Y164798D01*
X115236Y164079D01*
X116328Y163627D01*
X117500Y163472D01*
X118672Y163627D01*
X119764Y164079D01*
X120702Y164798D01*
X121421Y165736D01*
X121873Y166828D01*
X122028Y168000D01*
X121873Y169172D01*
X121421Y170264D01*
X120702Y171202D01*
X119764Y171921D01*
X118672Y172373D01*
X117500Y172528D01*
D02*
G37*
G36*
X107500D02*
X106328Y172373D01*
X105236Y171921D01*
X104298Y171202D01*
X103579Y170264D01*
X103127Y169172D01*
X102972Y168000D01*
X103127Y166828D01*
X103579Y165736D01*
X104298Y164798D01*
X105236Y164079D01*
X106328Y163627D01*
X107500Y163472D01*
X108672Y163627D01*
X109764Y164079D01*
X110702Y164798D01*
X111421Y165736D01*
X111873Y166828D01*
X112028Y168000D01*
X111873Y169172D01*
X111421Y170264D01*
X110702Y171202D01*
X109764Y171921D01*
X108672Y172373D01*
X107500Y172528D01*
D02*
G37*
G36*
X97500D02*
X96328Y172373D01*
X95236Y171921D01*
X94298Y171202D01*
X93579Y170264D01*
X93127Y169172D01*
X92972Y168000D01*
X93127Y166828D01*
X93579Y165736D01*
X94298Y164798D01*
X95236Y164079D01*
X96328Y163627D01*
X97500Y163472D01*
X98672Y163627D01*
X99764Y164079D01*
X100702Y164798D01*
X101421Y165736D01*
X101873Y166828D01*
X102028Y168000D01*
X101873Y169172D01*
X101421Y170264D01*
X100702Y171202D01*
X99764Y171921D01*
X98672Y172373D01*
X97500Y172528D01*
D02*
G37*
G36*
X87500D02*
X86328Y172373D01*
X85236Y171921D01*
X84298Y171202D01*
X83579Y170264D01*
X83127Y169172D01*
X82972Y168000D01*
X83127Y166828D01*
X83579Y165736D01*
X84298Y164798D01*
X85236Y164079D01*
X86328Y163627D01*
X87500Y163472D01*
X88672Y163627D01*
X89764Y164079D01*
X90702Y164798D01*
X91421Y165736D01*
X91873Y166828D01*
X92028Y168000D01*
X91873Y169172D01*
X91421Y170264D01*
X90702Y171202D01*
X89764Y171921D01*
X88672Y172373D01*
X87500Y172528D01*
D02*
G37*
G36*
X77500D02*
X76328Y172373D01*
X75236Y171921D01*
X74298Y171202D01*
X73579Y170264D01*
X73127Y169172D01*
X72972Y168000D01*
X73127Y166828D01*
X73579Y165736D01*
X74298Y164798D01*
X75236Y164079D01*
X76328Y163627D01*
X77500Y163472D01*
X78672Y163627D01*
X79764Y164079D01*
X80702Y164798D01*
X81421Y165736D01*
X81873Y166828D01*
X82028Y168000D01*
X81873Y169172D01*
X81421Y170264D01*
X80702Y171202D01*
X79764Y171921D01*
X78672Y172373D01*
X77500Y172528D01*
D02*
G37*
G36*
X67500D02*
X66328Y172373D01*
X65236Y171921D01*
X64298Y171202D01*
X63579Y170264D01*
X63127Y169172D01*
X62972Y168000D01*
X63127Y166828D01*
X63579Y165736D01*
X64298Y164798D01*
X65236Y164079D01*
X66328Y163627D01*
X67500Y163472D01*
X68672Y163627D01*
X69764Y164079D01*
X70702Y164798D01*
X71421Y165736D01*
X71873Y166828D01*
X72028Y168000D01*
X71873Y169172D01*
X71421Y170264D01*
X70702Y171202D01*
X69764Y171921D01*
X68672Y172373D01*
X67500Y172528D01*
D02*
G37*
G36*
X57500D02*
X56328Y172373D01*
X55236Y171921D01*
X54298Y171202D01*
X53579Y170264D01*
X53127Y169172D01*
X52972Y168000D01*
X53127Y166828D01*
X53579Y165736D01*
X54298Y164798D01*
X55236Y164079D01*
X56328Y163627D01*
X57500Y163472D01*
X58672Y163627D01*
X59764Y164079D01*
X60702Y164798D01*
X61421Y165736D01*
X61873Y166828D01*
X62028Y168000D01*
X61873Y169172D01*
X61421Y170264D01*
X60702Y171202D01*
X59764Y171921D01*
X58672Y172373D01*
X57500Y172528D01*
D02*
G37*
G36*
X47500D02*
X46328Y172373D01*
X45236Y171921D01*
X44298Y171202D01*
X43579Y170264D01*
X43127Y169172D01*
X42972Y168000D01*
X43127Y166828D01*
X43579Y165736D01*
X44298Y164798D01*
X45236Y164079D01*
X46328Y163627D01*
X47500Y163472D01*
X48672Y163627D01*
X49764Y164079D01*
X50702Y164798D01*
X51421Y165736D01*
X51873Y166828D01*
X52028Y168000D01*
X51873Y169172D01*
X51421Y170264D01*
X50702Y171202D01*
X49764Y171921D01*
X48672Y172373D01*
X47500Y172528D01*
D02*
G37*
G36*
X37500D02*
X36328Y172373D01*
X35236Y171921D01*
X34298Y171202D01*
X33579Y170264D01*
X33127Y169172D01*
X32972Y168000D01*
X33127Y166828D01*
X33579Y165736D01*
X34298Y164798D01*
X35236Y164079D01*
X36328Y163627D01*
X37500Y163472D01*
X38672Y163627D01*
X39764Y164079D01*
X40702Y164798D01*
X41421Y165736D01*
X41873Y166828D01*
X42028Y168000D01*
X41873Y169172D01*
X41421Y170264D01*
X40702Y171202D01*
X39764Y171921D01*
X38672Y172373D01*
X37500Y172528D01*
D02*
G37*
G36*
X289441Y157207D02*
X288347D01*
Y153496D01*
X292058D01*
Y154591D01*
X291969Y155268D01*
X291707Y155899D01*
X291291Y156441D01*
X290749Y156857D01*
X290118Y157118D01*
X289441Y157207D01*
D02*
G37*
G36*
X287347D02*
X286252D01*
X285575Y157118D01*
X284944Y156857D01*
X284402Y156441D01*
X283986Y155899D01*
X283724Y155268D01*
X283635Y154591D01*
Y153496D01*
X287347D01*
Y157207D01*
D02*
G37*
G36*
X277500Y154542D02*
Y153000D01*
X279042D01*
X278978Y153319D01*
X278514Y154014D01*
X277819Y154478D01*
X277500Y154542D01*
D02*
G37*
G36*
X276500D02*
X276181Y154478D01*
X275486Y154014D01*
X275022Y153319D01*
X274958Y153000D01*
X276500D01*
Y154542D01*
D02*
G37*
G36*
X260500D02*
Y153000D01*
X262042D01*
X261978Y153319D01*
X261514Y154014D01*
X260819Y154478D01*
X260500Y154542D01*
D02*
G37*
G36*
X259500D02*
X259181Y154478D01*
X258486Y154014D01*
X258022Y153319D01*
X257958Y153000D01*
X259500D01*
Y154542D01*
D02*
G37*
G36*
X279042Y152000D02*
X277500D01*
Y150458D01*
X277819Y150522D01*
X278514Y150986D01*
X278978Y151681D01*
X279042Y152000D01*
D02*
G37*
G36*
X276500D02*
X274958D01*
X275022Y151681D01*
X275486Y150986D01*
X276181Y150522D01*
X276500Y150458D01*
Y152000D01*
D02*
G37*
G36*
X262042D02*
X260500D01*
Y150458D01*
X260819Y150522D01*
X261514Y150986D01*
X261978Y151681D01*
X262042Y152000D01*
D02*
G37*
G36*
X259500D02*
X257958D01*
X258022Y151681D01*
X258486Y150986D01*
X259181Y150522D01*
X259500Y150458D01*
Y152000D01*
D02*
G37*
G36*
X292058Y152496D02*
X288347D01*
Y148785D01*
X289441D01*
X290118Y148874D01*
X290749Y149135D01*
X291291Y149551D01*
X291707Y150093D01*
X291969Y150724D01*
X292058Y151402D01*
Y152496D01*
D02*
G37*
G36*
X287347D02*
X283635D01*
Y151402D01*
X283724Y150724D01*
X283986Y150093D01*
X284402Y149551D01*
X284944Y149135D01*
X285575Y148874D01*
X286252Y148785D01*
X287347D01*
Y152496D01*
D02*
G37*
G36*
X214000Y148641D02*
X213181Y148478D01*
X212486Y148014D01*
X212022Y147319D01*
X211859Y146500D01*
X212022Y145681D01*
X212486Y144986D01*
X213181Y144522D01*
X214000Y144359D01*
X214819Y144522D01*
X215514Y144986D01*
X215978Y145681D01*
X216141Y146500D01*
X215978Y147319D01*
X215514Y148014D01*
X214819Y148478D01*
X214000Y148641D01*
D02*
G37*
G36*
X277000Y147641D02*
X276181Y147478D01*
X275486Y147014D01*
X275022Y146319D01*
X274859Y145500D01*
X275022Y144681D01*
X275486Y143986D01*
X276181Y143522D01*
X277000Y143359D01*
X277819Y143522D01*
X278514Y143986D01*
X278978Y144681D01*
X279141Y145500D01*
X278978Y146319D01*
X278514Y147014D01*
X277819Y147478D01*
X277000Y147641D01*
D02*
G37*
G36*
X260000D02*
X259181Y147478D01*
X258486Y147014D01*
X258022Y146319D01*
X257859Y145500D01*
X258022Y144681D01*
X258486Y143986D01*
X259181Y143522D01*
X260000Y143359D01*
X260819Y143522D01*
X261514Y143986D01*
X261978Y144681D01*
X262141Y145500D01*
X261978Y146319D01*
X261514Y147014D01*
X260819Y147478D01*
X260000Y147641D01*
D02*
G37*
G36*
X188500Y146641D02*
X187681Y146478D01*
X186986Y146014D01*
X186522Y145319D01*
X186359Y144500D01*
X186522Y143681D01*
X186986Y142986D01*
X187681Y142522D01*
X188500Y142359D01*
X189319Y142522D01*
X190014Y142986D01*
X190478Y143681D01*
X190641Y144500D01*
X190478Y145319D01*
X190014Y146014D01*
X189319Y146478D01*
X188500Y146641D01*
D02*
G37*
G36*
X181500D02*
X180681Y146478D01*
X179986Y146014D01*
X179522Y145319D01*
X179359Y144500D01*
X179522Y143681D01*
X179986Y142986D01*
X180681Y142522D01*
X181500Y142359D01*
X182319Y142522D01*
X183014Y142986D01*
X183478Y143681D01*
X183641Y144500D01*
X183478Y145319D01*
X183014Y146014D01*
X182319Y146478D01*
X181500Y146641D01*
D02*
G37*
G36*
X384500Y156732D02*
X383087Y156593D01*
X381729Y156181D01*
X380477Y155512D01*
X379380Y154612D01*
X378480Y153515D01*
X377811Y152263D01*
X377399Y150905D01*
X377260Y149492D01*
X377399Y148080D01*
X377811Y146721D01*
X378480Y145470D01*
X379380Y144372D01*
X380477Y143472D01*
X381729Y142803D01*
X383087Y142391D01*
X384500Y142252D01*
X385912Y142391D01*
X387271Y142803D01*
X388523Y143472D01*
X389620Y144372D01*
X390520Y145470D01*
X391189Y146721D01*
X391601Y148080D01*
X391740Y149492D01*
X391601Y150905D01*
X391189Y152263D01*
X390520Y153515D01*
X389620Y154612D01*
X388523Y155512D01*
X387271Y156181D01*
X385912Y156593D01*
X384500Y156732D01*
D02*
G37*
G36*
X161500Y143542D02*
Y142000D01*
X163042D01*
X162978Y142319D01*
X162514Y143014D01*
X161819Y143478D01*
X161500Y143542D01*
D02*
G37*
G36*
X160500D02*
X160181Y143478D01*
X159486Y143014D01*
X159022Y142319D01*
X158958Y142000D01*
X160500D01*
Y143542D01*
D02*
G37*
G36*
X204500Y145141D02*
X203681Y144978D01*
X202986Y144514D01*
X202522Y143819D01*
X202359Y143000D01*
X202522Y142181D01*
X202986Y141486D01*
X203681Y141022D01*
X204500Y140859D01*
X205319Y141022D01*
X206014Y141486D01*
X206478Y142181D01*
X206641Y143000D01*
X206478Y143819D01*
X206014Y144514D01*
X205319Y144978D01*
X204500Y145141D01*
D02*
G37*
G36*
X163042Y141000D02*
X161500D01*
Y139458D01*
X161819Y139522D01*
X162514Y139986D01*
X162978Y140681D01*
X163042Y141000D01*
D02*
G37*
G36*
X160500D02*
X158958D01*
X159022Y140681D01*
X159486Y139986D01*
X160181Y139522D01*
X160500Y139458D01*
Y141000D01*
D02*
G37*
G36*
X153500Y143641D02*
X152681Y143478D01*
X151986Y143014D01*
X151522Y142319D01*
X151359Y141500D01*
X151522Y140681D01*
X151986Y139986D01*
X152681Y139522D01*
X153500Y139359D01*
X154319Y139522D01*
X155014Y139986D01*
X155478Y140681D01*
X155641Y141500D01*
X155478Y142319D01*
X155014Y143014D01*
X154319Y143478D01*
X153500Y143641D01*
D02*
G37*
G36*
X272000Y143141D02*
X271181Y142978D01*
X270486Y142514D01*
X270022Y141819D01*
X269859Y141000D01*
X270022Y140181D01*
X270486Y139486D01*
X271181Y139022D01*
X272000Y138859D01*
X272819Y139022D01*
X273514Y139486D01*
X273978Y140181D01*
X274141Y141000D01*
X273978Y141819D01*
X273514Y142514D01*
X272819Y142978D01*
X272000Y143141D01*
D02*
G37*
G36*
X265000D02*
X264181Y142978D01*
X263486Y142514D01*
X263022Y141819D01*
X262859Y141000D01*
X263022Y140181D01*
X263486Y139486D01*
X264181Y139022D01*
X265000Y138859D01*
X265819Y139022D01*
X266514Y139486D01*
X266978Y140181D01*
X267141Y141000D01*
X266978Y141819D01*
X266514Y142514D01*
X265819Y142978D01*
X265000Y143141D01*
D02*
G37*
G36*
X287846Y147524D02*
X286675Y147370D01*
X285583Y146917D01*
X284645Y146198D01*
X283925Y145260D01*
X283473Y144168D01*
X283319Y142996D01*
X283473Y141824D01*
X283925Y140732D01*
X284645Y139795D01*
X285583Y139075D01*
X286675Y138623D01*
X287846Y138468D01*
X289018Y138623D01*
X290110Y139075D01*
X291048Y139795D01*
X291768Y140732D01*
X292220Y141824D01*
X292374Y142996D01*
X292220Y144168D01*
X291768Y145260D01*
X291048Y146198D01*
X290110Y146917D01*
X289018Y147370D01*
X287846Y147524D01*
D02*
G37*
G36*
X177500Y135042D02*
Y133500D01*
X179042D01*
X178978Y133819D01*
X178514Y134514D01*
X177819Y134978D01*
X177500Y135042D01*
D02*
G37*
G36*
X176500D02*
X176181Y134978D01*
X175486Y134514D01*
X175022Y133819D01*
X174958Y133500D01*
X176500D01*
Y135042D01*
D02*
G37*
G36*
X9745Y136711D02*
X8650D01*
Y133000D01*
X12361D01*
Y134095D01*
X12272Y134772D01*
X12011Y135403D01*
X11595Y135945D01*
X11053Y136361D01*
X10422Y136622D01*
X9745Y136711D01*
D02*
G37*
G36*
X7650D02*
X6555D01*
X5878Y136622D01*
X5247Y136361D01*
X4705Y135945D01*
X4289Y135403D01*
X4028Y134772D01*
X3939Y134095D01*
Y133000D01*
X7650D01*
Y136711D01*
D02*
G37*
G36*
X179042Y132500D02*
X177500D01*
Y130958D01*
X177819Y131022D01*
X178514Y131486D01*
X178978Y132181D01*
X179042Y132500D01*
D02*
G37*
G36*
X176500D02*
X174958D01*
X175022Y132181D01*
X175486Y131486D01*
X176181Y131022D01*
X176500Y130958D01*
Y132500D01*
D02*
G37*
G36*
X194500Y131042D02*
Y129500D01*
X196042D01*
X195978Y129819D01*
X195514Y130514D01*
X194819Y130978D01*
X194500Y131042D01*
D02*
G37*
G36*
X193500D02*
X193181Y130978D01*
X192486Y130514D01*
X192022Y129819D01*
X191958Y129500D01*
X193500D01*
Y131042D01*
D02*
G37*
G36*
X287846Y137524D02*
X286675Y137370D01*
X285583Y136917D01*
X284645Y136198D01*
X283925Y135260D01*
X283473Y134168D01*
X283319Y132996D01*
X283473Y131824D01*
X283925Y130732D01*
X284645Y129795D01*
X285583Y129075D01*
X286675Y128623D01*
X287846Y128468D01*
X289018Y128623D01*
X290110Y129075D01*
X291048Y129795D01*
X291768Y130732D01*
X292220Y131824D01*
X292374Y132996D01*
X292220Y134168D01*
X291768Y135260D01*
X291048Y136198D01*
X290110Y136917D01*
X289018Y137370D01*
X287846Y137524D01*
D02*
G37*
G36*
X12361Y132000D02*
X8650D01*
Y128289D01*
X9745D01*
X10422Y128378D01*
X11053Y128639D01*
X11595Y129055D01*
X12011Y129597D01*
X12272Y130228D01*
X12361Y130905D01*
Y132000D01*
D02*
G37*
G36*
X7650D02*
X3939D01*
Y130905D01*
X4028Y130228D01*
X4289Y129597D01*
X4705Y129055D01*
X5247Y128639D01*
X5878Y128378D01*
X6555Y128289D01*
X7650D01*
Y132000D01*
D02*
G37*
G36*
X147000Y131641D02*
X146181Y131478D01*
X145486Y131014D01*
X145022Y130319D01*
X144859Y129500D01*
X145022Y128681D01*
X145486Y127986D01*
X146181Y127522D01*
X147000Y127359D01*
X147819Y127522D01*
X148514Y127986D01*
X148978Y128681D01*
X149141Y129500D01*
X148978Y130319D01*
X148514Y131014D01*
X147819Y131478D01*
X147000Y131641D01*
D02*
G37*
G36*
X196042Y128500D02*
X194500D01*
Y126958D01*
X194819Y127022D01*
X195514Y127486D01*
X195978Y128181D01*
X196042Y128500D01*
D02*
G37*
G36*
X193500D02*
X191958D01*
X192022Y128181D01*
X192486Y127486D01*
X193181Y127022D01*
X193500Y126958D01*
Y128500D01*
D02*
G37*
G36*
X201000Y129641D02*
X200181Y129478D01*
X199486Y129014D01*
X199022Y128319D01*
X198859Y127500D01*
X199022Y126681D01*
X199486Y125986D01*
X200181Y125522D01*
X201000Y125359D01*
X201819Y125522D01*
X202514Y125986D01*
X202978Y126681D01*
X203141Y127500D01*
X202978Y128319D01*
X202514Y129014D01*
X201819Y129478D01*
X201000Y129641D01*
D02*
G37*
G36*
X177000Y128641D02*
X176181Y128478D01*
X175486Y128014D01*
X175022Y127319D01*
X174859Y126500D01*
X175022Y125681D01*
X175486Y124986D01*
X176181Y124522D01*
X177000Y124359D01*
X177819Y124522D01*
X178514Y124986D01*
X178978Y125681D01*
X179141Y126500D01*
X178978Y127319D01*
X178514Y128014D01*
X177819Y128478D01*
X177000Y128641D01*
D02*
G37*
G36*
X203000Y123641D02*
X202181Y123478D01*
X201486Y123014D01*
X201022Y122319D01*
X200859Y121500D01*
X201022Y120681D01*
X201486Y119986D01*
X202181Y119522D01*
X203000Y119359D01*
X203819Y119522D01*
X204514Y119986D01*
X204978Y120681D01*
X205141Y121500D01*
X204978Y122319D01*
X204514Y123014D01*
X203819Y123478D01*
X203000Y123641D01*
D02*
G37*
G36*
X287846Y127524D02*
X286675Y127369D01*
X285583Y126917D01*
X284645Y126198D01*
X283925Y125260D01*
X283473Y124168D01*
X283319Y122996D01*
X283473Y121824D01*
X283925Y120732D01*
X284645Y119794D01*
X285583Y119075D01*
X286675Y118623D01*
X287846Y118468D01*
X289018Y118623D01*
X290110Y119075D01*
X291048Y119794D01*
X291768Y120732D01*
X292220Y121824D01*
X292374Y122996D01*
X292220Y124168D01*
X291768Y125260D01*
X291048Y126198D01*
X290110Y126917D01*
X289018Y127369D01*
X287846Y127524D01*
D02*
G37*
G36*
X8150Y127028D02*
X6978Y126873D01*
X5886Y126421D01*
X4948Y125702D01*
X4229Y124764D01*
X3777Y123672D01*
X3622Y122500D01*
X3777Y121328D01*
X4229Y120236D01*
X4948Y119298D01*
X5886Y118579D01*
X6978Y118127D01*
X8150Y117972D01*
X9322Y118127D01*
X10414Y118579D01*
X11352Y119298D01*
X12071Y120236D01*
X12523Y121328D01*
X12678Y122500D01*
X12523Y123672D01*
X12071Y124764D01*
X11352Y125702D01*
X10414Y126421D01*
X9322Y126873D01*
X8150Y127028D01*
D02*
G37*
G36*
X165000Y116641D02*
X164181Y116478D01*
X163486Y116014D01*
X163022Y115319D01*
X162859Y114500D01*
X163022Y113681D01*
X163486Y112986D01*
X164181Y112522D01*
X165000Y112359D01*
X165819Y112522D01*
X166514Y112986D01*
X166978Y113681D01*
X167141Y114500D01*
X166978Y115319D01*
X166514Y116014D01*
X165819Y116478D01*
X165000Y116641D01*
D02*
G37*
G36*
X148000D02*
X147181Y116478D01*
X146486Y116014D01*
X146022Y115319D01*
X145859Y114500D01*
X146022Y113681D01*
X146486Y112986D01*
X147181Y112522D01*
X148000Y112359D01*
X148819Y112522D01*
X149514Y112986D01*
X149978Y113681D01*
X150141Y114500D01*
X149978Y115319D01*
X149514Y116014D01*
X148819Y116478D01*
X148000Y116641D01*
D02*
G37*
G36*
X205000Y112539D02*
X204220Y112384D01*
X203558Y111942D01*
X203300Y111556D01*
X202700D01*
X202442Y111942D01*
X201780Y112384D01*
X201000Y112539D01*
X200220Y112384D01*
X199558Y111942D01*
X199116Y111280D01*
X198961Y110500D01*
X199116Y109720D01*
X199558Y109058D01*
X200220Y108616D01*
X201000Y108461D01*
X201780Y108616D01*
X202442Y109058D01*
X202700Y109444D01*
X203300D01*
X203558Y109058D01*
X204220Y108616D01*
X205000Y108461D01*
X205780Y108616D01*
X206442Y109058D01*
X206884Y109720D01*
X207039Y110500D01*
X206884Y111280D01*
X206442Y111942D01*
X205780Y112384D01*
X205000Y112539D01*
D02*
G37*
G36*
X287846Y117524D02*
X286675Y117369D01*
X285583Y116917D01*
X284645Y116198D01*
X283925Y115260D01*
X283473Y114168D01*
X283319Y112996D01*
X283473Y111824D01*
X283925Y110732D01*
X284645Y109794D01*
X285583Y109075D01*
X286675Y108623D01*
X287846Y108468D01*
X289018Y108623D01*
X290110Y109075D01*
X291048Y109794D01*
X291768Y110732D01*
X292220Y111824D01*
X292374Y112996D01*
X292220Y114168D01*
X291768Y115260D01*
X291048Y116198D01*
X290110Y116917D01*
X289018Y117369D01*
X287846Y117524D01*
D02*
G37*
G36*
X187500Y112539D02*
X186720Y112384D01*
X186058Y111942D01*
X185616Y111280D01*
X185461Y110500D01*
X185616Y109720D01*
X186058Y109058D01*
X186720Y108616D01*
X187500Y108461D01*
X188280Y108616D01*
X188942Y109058D01*
X189384Y109720D01*
X189539Y110500D01*
X189384Y111280D01*
X188942Y111942D01*
X188280Y112384D01*
X187500Y112539D01*
D02*
G37*
G36*
X172000Y109542D02*
Y108000D01*
X173542D01*
X173478Y108319D01*
X173014Y109014D01*
X172319Y109478D01*
X172000Y109542D01*
D02*
G37*
G36*
X171000D02*
X170681Y109478D01*
X169986Y109014D01*
X169522Y108319D01*
X169458Y108000D01*
X171000D01*
Y109542D01*
D02*
G37*
G36*
X148500D02*
Y108000D01*
X150042D01*
X149978Y108319D01*
X149514Y109014D01*
X148819Y109478D01*
X148500Y109542D01*
D02*
G37*
G36*
X147500D02*
X147181Y109478D01*
X146486Y109014D01*
X146022Y108319D01*
X145958Y108000D01*
X147500D01*
Y109542D01*
D02*
G37*
G36*
X32650Y112141D02*
X31831Y111978D01*
X31136Y111514D01*
X30672Y110819D01*
X30509Y110000D01*
X30672Y109181D01*
X31136Y108486D01*
X31831Y108022D01*
X32650Y107859D01*
X33469Y108022D01*
X34164Y108486D01*
X34628Y109181D01*
X34791Y110000D01*
X34628Y110819D01*
X34164Y111514D01*
X33469Y111978D01*
X32650Y112141D01*
D02*
G37*
G36*
X218000Y108042D02*
Y106500D01*
X219542D01*
X219478Y106819D01*
X219014Y107514D01*
X218319Y107978D01*
X218000Y108042D01*
D02*
G37*
G36*
X217000D02*
X216681Y107978D01*
X215986Y107514D01*
X215522Y106819D01*
X215458Y106500D01*
X217000D01*
Y108042D01*
D02*
G37*
G36*
X235000Y107542D02*
Y106000D01*
X236542D01*
X236478Y106319D01*
X236014Y107014D01*
X235319Y107478D01*
X235000Y107542D01*
D02*
G37*
G36*
X234000D02*
X233681Y107478D01*
X232986Y107014D01*
X232522Y106319D01*
X232458Y106000D01*
X234000D01*
Y107542D01*
D02*
G37*
G36*
X239500Y110090D02*
X238681Y109927D01*
X237986Y109463D01*
X237522Y108768D01*
X237359Y107949D01*
X237522Y107129D01*
X237986Y106435D01*
X238681Y105971D01*
X239500Y105808D01*
X240319Y105971D01*
X241014Y106435D01*
X241478Y107129D01*
X241641Y107949D01*
X241478Y108768D01*
X241014Y109463D01*
X240319Y109927D01*
X239500Y110090D01*
D02*
G37*
G36*
X173542Y107000D02*
X172000D01*
Y105458D01*
X172319Y105522D01*
X173014Y105986D01*
X173478Y106681D01*
X173542Y107000D01*
D02*
G37*
G36*
X171000D02*
X169458D01*
X169522Y106681D01*
X169986Y105986D01*
X170681Y105522D01*
X171000Y105458D01*
Y107000D01*
D02*
G37*
G36*
X150042D02*
X148500D01*
Y105458D01*
X148819Y105522D01*
X149514Y105986D01*
X149978Y106681D01*
X150042Y107000D01*
D02*
G37*
G36*
X147500D02*
X145958D01*
X146022Y106681D01*
X146486Y105986D01*
X147181Y105522D01*
X147500Y105458D01*
Y107000D01*
D02*
G37*
G36*
X25150Y108641D02*
X24331Y108478D01*
X23636Y108014D01*
X23172Y107319D01*
X23009Y106500D01*
X23172Y105681D01*
X23636Y104986D01*
X24331Y104522D01*
X25150Y104359D01*
X25969Y104522D01*
X26664Y104986D01*
X27128Y105681D01*
X27291Y106500D01*
X27128Y107319D01*
X26664Y108014D01*
X25969Y108478D01*
X25150Y108641D01*
D02*
G37*
G36*
X18150D02*
X17331Y108478D01*
X16636Y108014D01*
X16172Y107319D01*
X16009Y106500D01*
X16172Y105681D01*
X16636Y104986D01*
X17331Y104522D01*
X18150Y104359D01*
X18969Y104522D01*
X19664Y104986D01*
X20128Y105681D01*
X20291Y106500D01*
X20128Y107319D01*
X19664Y108014D01*
X18969Y108478D01*
X18150Y108641D01*
D02*
G37*
G36*
X236542Y105000D02*
X235000D01*
Y103458D01*
X235319Y103522D01*
X236014Y103986D01*
X236478Y104681D01*
X236542Y105000D01*
D02*
G37*
G36*
X234000D02*
X232458D01*
X232522Y104681D01*
X232986Y103986D01*
X233681Y103522D01*
X234000Y103458D01*
Y105000D01*
D02*
G37*
G36*
X200000Y107641D02*
X199181Y107478D01*
X198486Y107014D01*
X198022Y106319D01*
X197859Y105500D01*
X198022Y104681D01*
X198486Y103986D01*
X199181Y103522D01*
X200000Y103359D01*
X200819Y103522D01*
X201514Y103986D01*
X201978Y104681D01*
X202141Y105500D01*
X201978Y106319D01*
X201514Y107014D01*
X200819Y107478D01*
X200000Y107641D01*
D02*
G37*
G36*
X192500D02*
X191681Y107478D01*
X190986Y107014D01*
X190522Y106319D01*
X190359Y105500D01*
X190522Y104681D01*
X190986Y103986D01*
X191681Y103522D01*
X192500Y103359D01*
X193319Y103522D01*
X194014Y103986D01*
X194478Y104681D01*
X194641Y105500D01*
X194478Y106319D01*
X194014Y107014D01*
X193319Y107478D01*
X192500Y107641D01*
D02*
G37*
G36*
X219542Y105500D02*
X215458D01*
X215522Y105181D01*
X215986Y104486D01*
X216681Y104022D01*
X217087Y103941D01*
X217313Y103386D01*
X217053Y102996D01*
X217048Y102972D01*
X216492Y102742D01*
X216280Y102884D01*
X215500Y103039D01*
X214720Y102884D01*
X214058Y102442D01*
X213616Y101780D01*
X213461Y101000D01*
X213616Y100220D01*
X214058Y99558D01*
X214720Y99116D01*
X215500Y98961D01*
X215528Y98966D01*
X215881Y98613D01*
X215859Y98500D01*
X216022Y97681D01*
X216486Y96986D01*
X217181Y96522D01*
X218000Y96359D01*
X218819Y96522D01*
X219514Y96986D01*
X219978Y97681D01*
X220141Y98500D01*
X219978Y99319D01*
X219651Y99809D01*
X219674Y99994D01*
X219787Y100362D01*
X219814Y100397D01*
X220378Y100774D01*
X220820Y101435D01*
X220976Y102216D01*
X220820Y102996D01*
X220378Y103657D01*
X219717Y104100D01*
X219370Y104168D01*
X219169Y104718D01*
X219478Y105181D01*
X219542Y105500D01*
D02*
G37*
G36*
X32650Y105141D02*
X31831Y104978D01*
X31136Y104514D01*
X30672Y103819D01*
X30509Y103000D01*
X30672Y102181D01*
X31136Y101486D01*
X31831Y101022D01*
X32650Y100859D01*
X33469Y101022D01*
X34164Y101486D01*
X34628Y102181D01*
X34791Y103000D01*
X34628Y103819D01*
X34164Y104514D01*
X33469Y104978D01*
X32650Y105141D01*
D02*
G37*
G36*
X8150Y108028D02*
X6978Y107873D01*
X5886Y107421D01*
X4948Y106702D01*
X4229Y105764D01*
X3777Y104672D01*
X3622Y103500D01*
X3777Y102328D01*
X4229Y101236D01*
X4948Y100298D01*
X5886Y99579D01*
X6978Y99127D01*
X8150Y98972D01*
X9322Y99127D01*
X10414Y99579D01*
X11352Y100298D01*
X12071Y101236D01*
X12523Y102328D01*
X12678Y103500D01*
X12523Y104672D01*
X12071Y105764D01*
X11352Y106702D01*
X10414Y107421D01*
X9322Y107873D01*
X8150Y108028D01*
D02*
G37*
G36*
X287846Y107524D02*
X286675Y107369D01*
X285583Y106917D01*
X284645Y106198D01*
X283925Y105260D01*
X283473Y104168D01*
X283319Y102996D01*
X283473Y101824D01*
X283925Y100732D01*
X284645Y99795D01*
X285583Y99075D01*
X286675Y98623D01*
X287846Y98468D01*
X289018Y98623D01*
X290110Y99075D01*
X291048Y99795D01*
X291768Y100732D01*
X292220Y101824D01*
X292374Y102996D01*
X292220Y104168D01*
X291768Y105260D01*
X291048Y106198D01*
X290110Y106917D01*
X289018Y107369D01*
X287846Y107524D01*
D02*
G37*
G36*
X235500Y100641D02*
X234681Y100478D01*
X233986Y100014D01*
X233522Y99319D01*
X233359Y98500D01*
X233522Y97681D01*
X233986Y96986D01*
X234681Y96522D01*
X235500Y96359D01*
X236319Y96522D01*
X237014Y96986D01*
X237478Y97681D01*
X237641Y98500D01*
X237478Y99319D01*
X237014Y100014D01*
X236319Y100478D01*
X235500Y100641D01*
D02*
G37*
G36*
X200000Y100141D02*
X199181Y99978D01*
X198486Y99514D01*
X198022Y98819D01*
X197859Y98000D01*
X198022Y97181D01*
X198486Y96486D01*
X199181Y96022D01*
X200000Y95859D01*
X200819Y96022D01*
X201514Y96486D01*
X201978Y97181D01*
X202141Y98000D01*
X201978Y98819D01*
X201514Y99514D01*
X200819Y99978D01*
X200000Y100141D01*
D02*
G37*
G36*
X192500D02*
X191681Y99978D01*
X190986Y99514D01*
X190522Y98819D01*
X190359Y98000D01*
X190522Y97181D01*
X190986Y96486D01*
X191681Y96022D01*
X192500Y95859D01*
X193319Y96022D01*
X194014Y96486D01*
X194478Y97181D01*
X194641Y98000D01*
X194478Y98819D01*
X194014Y99514D01*
X193319Y99978D01*
X192500Y100141D01*
D02*
G37*
G36*
X205000Y107039D02*
X204220Y106884D01*
X203558Y106442D01*
X203116Y105780D01*
X202961Y105000D01*
X203116Y104220D01*
X203558Y103558D01*
X203944Y103300D01*
Y102700D01*
X203558Y102442D01*
X203116Y101780D01*
X202961Y101000D01*
X203116Y100220D01*
X203558Y99558D01*
X203645Y99500D01*
Y99000D01*
X203558Y98942D01*
X203116Y98280D01*
X202961Y97500D01*
X203116Y96720D01*
X203558Y96058D01*
X204220Y95616D01*
X205000Y95461D01*
X205780Y95616D01*
X206442Y96058D01*
X206884Y96720D01*
X207039Y97500D01*
X206884Y98280D01*
X206442Y98942D01*
X206355Y99000D01*
Y99500D01*
X206442Y99558D01*
X206884Y100220D01*
X207039Y101000D01*
X206884Y101780D01*
X206442Y102442D01*
X206056Y102700D01*
Y103300D01*
X206442Y103558D01*
X206884Y104220D01*
X207039Y105000D01*
X206884Y105780D01*
X206442Y106442D01*
X205780Y106884D01*
X205000Y107039D01*
D02*
G37*
G36*
X32650Y98141D02*
X31831Y97978D01*
X31136Y97514D01*
X30672Y96819D01*
X30509Y96000D01*
X30672Y95181D01*
X31136Y94486D01*
X31831Y94022D01*
X32650Y93859D01*
X33469Y94022D01*
X34164Y94486D01*
X34628Y95181D01*
X34791Y96000D01*
X34628Y96819D01*
X34164Y97514D01*
X33469Y97978D01*
X32650Y98141D01*
D02*
G37*
G36*
X63729Y96077D02*
X62792Y95890D01*
X61999Y95360D01*
X61468Y94566D01*
X61282Y93629D01*
X61468Y92693D01*
X61999Y91899D01*
X62792Y91369D01*
X63729Y91183D01*
X64665Y91369D01*
X65459Y91899D01*
X65990Y92693D01*
X66176Y93629D01*
X65990Y94566D01*
X65459Y95360D01*
X64665Y95890D01*
X63729Y96077D01*
D02*
G37*
G36*
X232500Y92542D02*
Y91000D01*
X234042D01*
X233978Y91319D01*
X233514Y92014D01*
X232819Y92478D01*
X232500Y92542D01*
D02*
G37*
G36*
X231500D02*
X231181Y92478D01*
X230486Y92014D01*
X230022Y91319D01*
X229958Y91000D01*
X231500D01*
Y92542D01*
D02*
G37*
G36*
X216000D02*
Y91000D01*
X217542D01*
X217478Y91319D01*
X217014Y92014D01*
X216319Y92478D01*
X216000Y92542D01*
D02*
G37*
G36*
X215000D02*
X214681Y92478D01*
X213986Y92014D01*
X213522Y91319D01*
X213458Y91000D01*
X215000D01*
Y92542D01*
D02*
G37*
G36*
X176500D02*
Y91000D01*
X178042D01*
X177978Y91319D01*
X177514Y92014D01*
X176819Y92478D01*
X176500Y92542D01*
D02*
G37*
G36*
X175500D02*
X175181Y92478D01*
X174486Y92014D01*
X174022Y91319D01*
X173958Y91000D01*
X175500D01*
Y92542D01*
D02*
G37*
G36*
X203500Y95039D02*
X202720Y94884D01*
X202058Y94442D01*
X201616Y93780D01*
X201461Y93000D01*
X201616Y92220D01*
X202058Y91558D01*
X202720Y91116D01*
X203500Y90961D01*
X204280Y91116D01*
X204942Y91558D01*
X205384Y92220D01*
X205539Y93000D01*
X205384Y93780D01*
X204942Y94442D01*
X204280Y94884D01*
X203500Y95039D01*
D02*
G37*
G36*
X169500Y91042D02*
Y89500D01*
X171042D01*
X170978Y89819D01*
X170514Y90514D01*
X169819Y90978D01*
X169500Y91042D01*
D02*
G37*
G36*
X168500D02*
X168181Y90978D01*
X167486Y90514D01*
X167022Y89819D01*
X166958Y89500D01*
X168500D01*
Y91042D01*
D02*
G37*
G36*
X146000D02*
Y89500D01*
X147542D01*
X147478Y89819D01*
X147014Y90514D01*
X146319Y90978D01*
X146000Y91042D01*
D02*
G37*
G36*
X145000D02*
X144681Y90978D01*
X143986Y90514D01*
X143522Y89819D01*
X143458Y89500D01*
X145000D01*
Y91042D01*
D02*
G37*
G36*
X9745Y98014D02*
X6555D01*
X5800Y97914D01*
X5096Y97623D01*
X4491Y97159D01*
X4027Y96554D01*
X3735Y95850D01*
X3636Y95095D01*
Y91905D01*
X3735Y91150D01*
X4027Y90446D01*
X4491Y89841D01*
X5096Y89377D01*
X5800Y89086D01*
X6555Y88986D01*
X9745D01*
X10500Y89086D01*
X11204Y89377D01*
X11809Y89841D01*
X12273Y90446D01*
X12564Y91150D01*
X12664Y91905D01*
Y95095D01*
X12564Y95850D01*
X12273Y96554D01*
X11809Y97159D01*
X11204Y97623D01*
X10500Y97914D01*
X9745Y98014D01*
D02*
G37*
G36*
X287846Y97524D02*
X286675Y97369D01*
X285583Y96917D01*
X284645Y96198D01*
X283925Y95260D01*
X283473Y94168D01*
X283319Y92996D01*
X283473Y91824D01*
X283925Y90732D01*
X284645Y89794D01*
X285583Y89075D01*
X286675Y88623D01*
X287846Y88468D01*
X289018Y88623D01*
X290110Y89075D01*
X291048Y89794D01*
X291768Y90732D01*
X292220Y91824D01*
X292374Y92996D01*
X292220Y94168D01*
X291768Y95260D01*
X291048Y96198D01*
X290110Y96917D01*
X289018Y97369D01*
X287846Y97524D01*
D02*
G37*
G36*
X265000Y92539D02*
X264220Y92384D01*
X263558Y91942D01*
X263116Y91280D01*
X262961Y90500D01*
X263116Y89720D01*
X263558Y89058D01*
X264220Y88616D01*
X265000Y88461D01*
X265780Y88616D01*
X266442Y89058D01*
X266884Y89720D01*
X267039Y90500D01*
X266884Y91280D01*
X266442Y91942D01*
X265780Y92384D01*
X265000Y92539D01*
D02*
G37*
G36*
X256000D02*
X255220Y92384D01*
X254558Y91942D01*
X254116Y91280D01*
X253961Y90500D01*
X254116Y89720D01*
X254558Y89058D01*
X255220Y88616D01*
X256000Y88461D01*
X256780Y88616D01*
X257442Y89058D01*
X257884Y89720D01*
X258039Y90500D01*
X257884Y91280D01*
X257442Y91942D01*
X256780Y92384D01*
X256000Y92539D01*
D02*
G37*
G36*
X234042Y90000D02*
X232500D01*
Y88458D01*
X232819Y88522D01*
X233514Y88986D01*
X233978Y89681D01*
X234042Y90000D01*
D02*
G37*
G36*
X231500D02*
X229958D01*
X230022Y89681D01*
X230486Y88986D01*
X231181Y88522D01*
X231500Y88458D01*
Y90000D01*
D02*
G37*
G36*
X217542D02*
X216000D01*
Y88458D01*
X216319Y88522D01*
X217014Y88986D01*
X217478Y89681D01*
X217542Y90000D01*
D02*
G37*
G36*
X215000D02*
X213458D01*
X213522Y89681D01*
X213986Y88986D01*
X214681Y88522D01*
X215000Y88458D01*
Y90000D01*
D02*
G37*
G36*
X178042D02*
X176500D01*
Y88458D01*
X176819Y88522D01*
X177514Y88986D01*
X177978Y89681D01*
X178042Y90000D01*
D02*
G37*
G36*
X175500D02*
X173958D01*
X174022Y89681D01*
X174486Y88986D01*
X175181Y88522D01*
X175500Y88458D01*
Y90000D01*
D02*
G37*
G36*
X247000Y92641D02*
X246181Y92478D01*
X245486Y92014D01*
X245022Y91319D01*
X244859Y90500D01*
X245022Y89681D01*
X245486Y88986D01*
X246181Y88522D01*
X247000Y88359D01*
X247819Y88522D01*
X248514Y88986D01*
X248978Y89681D01*
X249141Y90500D01*
X248978Y91319D01*
X248514Y92014D01*
X247819Y92478D01*
X247000Y92641D01*
D02*
G37*
G36*
X238000D02*
X237181Y92478D01*
X236486Y92014D01*
X236022Y91319D01*
X235859Y90500D01*
X236022Y89681D01*
X236486Y88986D01*
X237181Y88522D01*
X238000Y88359D01*
X238819Y88522D01*
X239514Y88986D01*
X239978Y89681D01*
X240141Y90500D01*
X239978Y91319D01*
X239514Y92014D01*
X238819Y92478D01*
X238000Y92641D01*
D02*
G37*
G36*
X171042Y88500D02*
X169500D01*
Y86958D01*
X169819Y87022D01*
X170514Y87486D01*
X170978Y88181D01*
X171042Y88500D01*
D02*
G37*
G36*
X168500D02*
X166958D01*
X167022Y88181D01*
X167486Y87486D01*
X168181Y87022D01*
X168500Y86958D01*
Y88500D01*
D02*
G37*
G36*
X147542D02*
X146000D01*
Y86958D01*
X146319Y87022D01*
X147014Y87486D01*
X147478Y88181D01*
X147542Y88500D01*
D02*
G37*
G36*
X145000D02*
X143458D01*
X143522Y88181D01*
X143986Y87486D01*
X144681Y87022D01*
X145000Y86958D01*
Y88500D01*
D02*
G37*
G36*
X43150Y89141D02*
X42331Y88978D01*
X41636Y88514D01*
X41172Y87819D01*
X41009Y87000D01*
X41172Y86181D01*
X41636Y85486D01*
X42331Y85022D01*
X43150Y84859D01*
X43969Y85022D01*
X44664Y85486D01*
X45128Y86181D01*
X45291Y87000D01*
X45128Y87819D01*
X44664Y88514D01*
X43969Y88978D01*
X43150Y89141D01*
D02*
G37*
G36*
X36150D02*
X35331Y88978D01*
X34636Y88514D01*
X34172Y87819D01*
X34009Y87000D01*
X34172Y86181D01*
X34636Y85486D01*
X35331Y85022D01*
X36150Y84859D01*
X36969Y85022D01*
X37664Y85486D01*
X38128Y86181D01*
X38291Y87000D01*
X38128Y87819D01*
X37664Y88514D01*
X36969Y88978D01*
X36150Y89141D01*
D02*
G37*
G36*
X29150D02*
X28331Y88978D01*
X27636Y88514D01*
X27172Y87819D01*
X27009Y87000D01*
X27172Y86181D01*
X27636Y85486D01*
X28331Y85022D01*
X29150Y84859D01*
X29969Y85022D01*
X30664Y85486D01*
X31128Y86181D01*
X31291Y87000D01*
X31128Y87819D01*
X30664Y88514D01*
X29969Y88978D01*
X29150Y89141D01*
D02*
G37*
G36*
X231500Y85641D02*
X230681Y85478D01*
X229986Y85014D01*
X229522Y84319D01*
X229359Y83500D01*
X229522Y82681D01*
X229986Y81986D01*
X230681Y81522D01*
X231500Y81359D01*
X232319Y81522D01*
X233014Y81986D01*
X233478Y82681D01*
X233641Y83500D01*
X233478Y84319D01*
X233014Y85014D01*
X232319Y85478D01*
X231500Y85641D01*
D02*
G37*
G36*
X10150Y84947D02*
X9214Y84761D01*
X8420Y84230D01*
X7889Y83436D01*
X7703Y82500D01*
X7889Y81564D01*
X8420Y80770D01*
X9214Y80239D01*
X10150Y80053D01*
X11086Y80239D01*
X11880Y80770D01*
X12411Y81564D01*
X12597Y82500D01*
X12411Y83436D01*
X11880Y84230D01*
X11086Y84761D01*
X10150Y84947D01*
D02*
G37*
G36*
X195500Y81542D02*
Y80000D01*
X197042D01*
X196978Y80319D01*
X196514Y81014D01*
X195819Y81478D01*
X195500Y81542D01*
D02*
G37*
G36*
X194500D02*
X194181Y81478D01*
X193486Y81014D01*
X193022Y80319D01*
X192958Y80000D01*
X194500D01*
Y81542D01*
D02*
G37*
G36*
X384500Y93740D02*
X383087Y93601D01*
X381729Y93189D01*
X380477Y92520D01*
X379380Y91620D01*
X378480Y90522D01*
X377811Y89271D01*
X377399Y87912D01*
X377260Y86500D01*
X377399Y85088D01*
X377811Y83729D01*
X378480Y82477D01*
X379380Y81380D01*
X380477Y80480D01*
X381729Y79811D01*
X383087Y79399D01*
X384500Y79260D01*
X385912Y79399D01*
X387271Y79811D01*
X388523Y80480D01*
X389620Y81380D01*
X390520Y82477D01*
X391189Y83729D01*
X391601Y85088D01*
X391740Y86500D01*
X391601Y87912D01*
X391189Y89271D01*
X390520Y90522D01*
X389620Y91620D01*
X388523Y92520D01*
X387271Y93189D01*
X385912Y93601D01*
X384500Y93740D01*
D02*
G37*
G36*
X287846Y87524D02*
X286675Y87370D01*
X285583Y86917D01*
X284645Y86198D01*
X283925Y85260D01*
X283473Y84168D01*
X283319Y82996D01*
X283473Y81824D01*
X283925Y80732D01*
X284645Y79795D01*
X285583Y79075D01*
X286675Y78623D01*
X287846Y78468D01*
X289018Y78623D01*
X290110Y79075D01*
X291048Y79795D01*
X291768Y80732D01*
X292220Y81824D01*
X292374Y82996D01*
X292220Y84168D01*
X291768Y85260D01*
X291048Y86198D01*
X290110Y86917D01*
X289018Y87370D01*
X287846Y87524D01*
D02*
G37*
G36*
X197042Y79000D02*
X195500D01*
Y77458D01*
X195819Y77522D01*
X196514Y77986D01*
X196978Y78681D01*
X197042Y79000D01*
D02*
G37*
G36*
X194500D02*
X192958D01*
X193022Y78681D01*
X193486Y77986D01*
X194181Y77522D01*
X194500Y77458D01*
Y79000D01*
D02*
G37*
G36*
X20000Y81641D02*
X19181Y81478D01*
X18486Y81014D01*
X18022Y80319D01*
X17859Y79500D01*
X18022Y78681D01*
X18486Y77986D01*
X19181Y77522D01*
X20000Y77359D01*
X20819Y77522D01*
X21514Y77986D01*
X21978Y78681D01*
X22141Y79500D01*
X21978Y80319D01*
X21514Y81014D01*
X20819Y81478D01*
X20000Y81641D01*
D02*
G37*
G36*
X227000Y81141D02*
X226181Y80978D01*
X225486Y80514D01*
X225022Y79819D01*
X224859Y79000D01*
X225022Y78181D01*
X225486Y77486D01*
X226181Y77022D01*
X227000Y76859D01*
X227819Y77022D01*
X228514Y77486D01*
X228978Y78181D01*
X229141Y79000D01*
X228978Y79819D01*
X228514Y80514D01*
X227819Y80978D01*
X227000Y81141D01*
D02*
G37*
G36*
X220000D02*
X219181Y80978D01*
X218486Y80514D01*
X218022Y79819D01*
X217859Y79000D01*
X218022Y78181D01*
X218486Y77486D01*
X219181Y77022D01*
X220000Y76859D01*
X220819Y77022D01*
X221514Y77486D01*
X221978Y78181D01*
X222141Y79000D01*
X221978Y79819D01*
X221514Y80514D01*
X220819Y80978D01*
X220000Y81141D01*
D02*
G37*
G36*
X171000Y79641D02*
X170181Y79478D01*
X169486Y79014D01*
X169022Y78319D01*
X168859Y77500D01*
X169022Y76681D01*
X169486Y75986D01*
X170181Y75522D01*
X171000Y75359D01*
X171819Y75522D01*
X172514Y75986D01*
X172978Y76681D01*
X173141Y77500D01*
X172978Y78319D01*
X172514Y79014D01*
X171819Y79478D01*
X171000Y79641D01*
D02*
G37*
G36*
X164500D02*
X163681Y79478D01*
X162986Y79014D01*
X162522Y78319D01*
X162359Y77500D01*
X162522Y76681D01*
X162986Y75986D01*
X163681Y75522D01*
X164500Y75359D01*
X165319Y75522D01*
X166014Y75986D01*
X166478Y76681D01*
X166641Y77500D01*
X166478Y78319D01*
X166014Y79014D01*
X165319Y79478D01*
X164500Y79641D01*
D02*
G37*
G36*
X157500D02*
X156681Y79478D01*
X155986Y79014D01*
X155522Y78319D01*
X155359Y77500D01*
X155522Y76681D01*
X155986Y75986D01*
X156681Y75522D01*
X157500Y75359D01*
X158319Y75522D01*
X159014Y75986D01*
X159478Y76681D01*
X159641Y77500D01*
X159478Y78319D01*
X159014Y79014D01*
X158319Y79478D01*
X157500Y79641D01*
D02*
G37*
G36*
X150500D02*
X149681Y79478D01*
X148986Y79014D01*
X148522Y78319D01*
X148359Y77500D01*
X148522Y76681D01*
X148986Y75986D01*
X149681Y75522D01*
X150500Y75359D01*
X151319Y75522D01*
X152014Y75986D01*
X152478Y76681D01*
X152641Y77500D01*
X152478Y78319D01*
X152014Y79014D01*
X151319Y79478D01*
X150500Y79641D01*
D02*
G37*
G36*
X185000Y73542D02*
Y72000D01*
X186542D01*
X186478Y72319D01*
X186014Y73014D01*
X185319Y73478D01*
X185000Y73542D01*
D02*
G37*
G36*
X184000D02*
X183681Y73478D01*
X182986Y73014D01*
X182522Y72319D01*
X182458Y72000D01*
X184000D01*
Y73542D01*
D02*
G37*
G36*
X186542Y71000D02*
X185000D01*
Y69458D01*
X185319Y69522D01*
X186014Y69986D01*
X186478Y70681D01*
X186542Y71000D01*
D02*
G37*
G36*
X184000D02*
X182458D01*
X182522Y70681D01*
X182986Y69986D01*
X183681Y69522D01*
X184000Y69458D01*
Y71000D01*
D02*
G37*
G36*
X210500Y72641D02*
X209681Y72478D01*
X208986Y72014D01*
X208522Y71319D01*
X208359Y70500D01*
X208522Y69681D01*
X208986Y68986D01*
X209681Y68522D01*
X210500Y68359D01*
X211319Y68522D01*
X212014Y68986D01*
X212478Y69681D01*
X212641Y70500D01*
X212478Y71319D01*
X212014Y72014D01*
X211319Y72478D01*
X210500Y72641D01*
D02*
G37*
G36*
X232500Y69141D02*
X231681Y68978D01*
X230986Y68514D01*
X230522Y67819D01*
X230359Y67000D01*
X230522Y66181D01*
X230986Y65486D01*
X231681Y65022D01*
X232500Y64859D01*
X233319Y65022D01*
X234014Y65486D01*
X234478Y66181D01*
X234641Y67000D01*
X234478Y67819D01*
X234014Y68514D01*
X233319Y68978D01*
X232500Y69141D01*
D02*
G37*
G36*
X196000Y65641D02*
X195181Y65478D01*
X194486Y65014D01*
X194022Y64319D01*
X193859Y63500D01*
X194022Y62681D01*
X194486Y61986D01*
X195181Y61522D01*
X196000Y61359D01*
X196819Y61522D01*
X197514Y61986D01*
X197978Y62681D01*
X198141Y63500D01*
X197978Y64319D01*
X197514Y65014D01*
X196819Y65478D01*
X196000Y65641D01*
D02*
G37*
G36*
X189000D02*
X188181Y65478D01*
X187486Y65014D01*
X187022Y64319D01*
X186859Y63500D01*
X187022Y62681D01*
X187486Y61986D01*
X188181Y61522D01*
X189000Y61359D01*
X189819Y61522D01*
X190514Y61986D01*
X190978Y62681D01*
X191141Y63500D01*
X190978Y64319D01*
X190514Y65014D01*
X189819Y65478D01*
X189000Y65641D01*
D02*
G37*
G36*
X265000Y61141D02*
X264181Y60978D01*
X263486Y60514D01*
X263022Y59819D01*
X262859Y59000D01*
X263022Y58181D01*
X263486Y57486D01*
X264181Y57022D01*
X265000Y56859D01*
X265819Y57022D01*
X266514Y57486D01*
X266978Y58181D01*
X267141Y59000D01*
X266978Y59819D01*
X266514Y60514D01*
X265819Y60978D01*
X265000Y61141D01*
D02*
G37*
G36*
X256000D02*
X255181Y60978D01*
X254486Y60514D01*
X254022Y59819D01*
X253859Y59000D01*
X254022Y58181D01*
X254486Y57486D01*
X255181Y57022D01*
X256000Y56859D01*
X256819Y57022D01*
X257514Y57486D01*
X257978Y58181D01*
X258141Y59000D01*
X257978Y59819D01*
X257514Y60514D01*
X256819Y60978D01*
X256000Y61141D01*
D02*
G37*
G36*
X247000D02*
X246181Y60978D01*
X245486Y60514D01*
X245022Y59819D01*
X244859Y59000D01*
X245022Y58181D01*
X245486Y57486D01*
X246181Y57022D01*
X247000Y56859D01*
X247819Y57022D01*
X248514Y57486D01*
X248978Y58181D01*
X249141Y59000D01*
X248978Y59819D01*
X248514Y60514D01*
X247819Y60978D01*
X247000Y61141D01*
D02*
G37*
G36*
Y56042D02*
Y54500D01*
X248542D01*
X248478Y54819D01*
X248014Y55514D01*
X247319Y55978D01*
X247000Y56042D01*
D02*
G37*
G36*
X246000D02*
X245681Y55978D01*
X244986Y55514D01*
X244522Y54819D01*
X244458Y54500D01*
X246000D01*
Y56042D01*
D02*
G37*
G36*
X27000Y56947D02*
X26064Y56761D01*
X25270Y56230D01*
X24739Y55436D01*
X24553Y54500D01*
X24739Y53564D01*
X25270Y52770D01*
X26064Y52239D01*
X27000Y52053D01*
X27936Y52239D01*
X28730Y52770D01*
X29261Y53564D01*
X29447Y54500D01*
X29261Y55436D01*
X28730Y56230D01*
X27936Y56761D01*
X27000Y56947D01*
D02*
G37*
G36*
X248542Y53500D02*
X247000D01*
Y51958D01*
X247319Y52022D01*
X248014Y52486D01*
X248478Y53181D01*
X248542Y53500D01*
D02*
G37*
G36*
X246000D02*
X244458D01*
X244522Y53181D01*
X244986Y52486D01*
X245681Y52022D01*
X246000Y51958D01*
Y53500D01*
D02*
G37*
G36*
X360094Y55211D02*
X359000D01*
Y51500D01*
X362711D01*
Y52595D01*
X362622Y53272D01*
X362361Y53903D01*
X361945Y54445D01*
X361403Y54861D01*
X360772Y55122D01*
X360094Y55211D01*
D02*
G37*
G36*
X358000D02*
X356906D01*
X356228Y55122D01*
X355597Y54861D01*
X355055Y54445D01*
X354639Y53903D01*
X354378Y53272D01*
X354289Y52595D01*
Y51500D01*
X358000D01*
Y55211D01*
D02*
G37*
G36*
X341500Y55641D02*
X340681Y55478D01*
X339986Y55014D01*
X339522Y54319D01*
X339359Y53500D01*
X339522Y52681D01*
X339986Y51986D01*
X340681Y51522D01*
X341500Y51359D01*
X342319Y51522D01*
X343014Y51986D01*
X343478Y52681D01*
X343641Y53500D01*
X343478Y54319D01*
X343014Y55014D01*
X342319Y55478D01*
X341500Y55641D01*
D02*
G37*
G36*
X324000D02*
X323181Y55478D01*
X322486Y55014D01*
X322022Y54319D01*
X321859Y53500D01*
X322022Y52681D01*
X322486Y51986D01*
X323181Y51522D01*
X324000Y51359D01*
X324819Y51522D01*
X325514Y51986D01*
X325978Y52681D01*
X326141Y53500D01*
X325978Y54319D01*
X325514Y55014D01*
X324819Y55478D01*
X324000Y55641D01*
D02*
G37*
G36*
X294500D02*
X293681Y55478D01*
X292986Y55014D01*
X292522Y54319D01*
X292359Y53500D01*
X292522Y52681D01*
X292986Y51986D01*
X293681Y51522D01*
X294500Y51359D01*
X295319Y51522D01*
X296014Y51986D01*
X296478Y52681D01*
X296641Y53500D01*
X296478Y54319D01*
X296014Y55014D01*
X295319Y55478D01*
X294500Y55641D01*
D02*
G37*
G36*
X277000D02*
X276181Y55478D01*
X275486Y55014D01*
X275022Y54319D01*
X274859Y53500D01*
X275022Y52681D01*
X275486Y51986D01*
X276181Y51522D01*
X277000Y51359D01*
X277819Y51522D01*
X278514Y51986D01*
X278978Y52681D01*
X279141Y53500D01*
X278978Y54319D01*
X278514Y55014D01*
X277819Y55478D01*
X277000Y55641D01*
D02*
G37*
G36*
X221500Y55141D02*
X220681Y54978D01*
X219986Y54514D01*
X219522Y53819D01*
X219359Y53000D01*
X219522Y52181D01*
X219986Y51486D01*
X220681Y51022D01*
X221500Y50859D01*
X222319Y51022D01*
X223014Y51486D01*
X223478Y52181D01*
X223641Y53000D01*
X223478Y53819D01*
X223014Y54514D01*
X222319Y54978D01*
X221500Y55141D01*
D02*
G37*
G36*
X43650Y52743D02*
X42792Y52572D01*
X42064Y52086D01*
X41578Y51358D01*
X41407Y50500D01*
X41578Y49642D01*
X42064Y48914D01*
X42792Y48428D01*
X43650Y48257D01*
X44508Y48428D01*
X45236Y48914D01*
X45722Y49642D01*
X45893Y50500D01*
X45722Y51358D01*
X45236Y52086D01*
X44508Y52572D01*
X43650Y52743D01*
D02*
G37*
G36*
X189000Y52141D02*
X188181Y51978D01*
X187486Y51514D01*
X187022Y50819D01*
X186859Y50000D01*
X187022Y49181D01*
X187486Y48486D01*
X188181Y48022D01*
X189000Y47859D01*
X189819Y48022D01*
X190514Y48486D01*
X190978Y49181D01*
X191141Y50000D01*
X190978Y50819D01*
X190514Y51514D01*
X189819Y51978D01*
X189000Y52141D01*
D02*
G37*
G36*
X182000D02*
X181181Y51978D01*
X180486Y51514D01*
X180022Y50819D01*
X179859Y50000D01*
X180022Y49181D01*
X180486Y48486D01*
X181181Y48022D01*
X182000Y47859D01*
X182819Y48022D01*
X183514Y48486D01*
X183978Y49181D01*
X184141Y50000D01*
X183978Y50819D01*
X183514Y51514D01*
X182819Y51978D01*
X182000Y52141D01*
D02*
G37*
G36*
X362711Y50500D02*
X359000D01*
Y46789D01*
X360094D01*
X360772Y46878D01*
X361403Y47139D01*
X361945Y47555D01*
X362361Y48097D01*
X362622Y48728D01*
X362711Y49406D01*
Y50500D01*
D02*
G37*
G36*
X358000D02*
X354289D01*
Y49406D01*
X354378Y48728D01*
X354639Y48097D01*
X355055Y47555D01*
X355597Y47139D01*
X356228Y46878D01*
X356906Y46789D01*
X358000D01*
Y50500D01*
D02*
G37*
G36*
X388500Y55528D02*
X387328Y55373D01*
X386236Y54921D01*
X385298Y54202D01*
X384579Y53264D01*
X384127Y52172D01*
X383972Y51000D01*
X384127Y49828D01*
X384579Y48736D01*
X385298Y47798D01*
X386236Y47079D01*
X387328Y46627D01*
X388500Y46472D01*
X389672Y46627D01*
X390764Y47079D01*
X391702Y47798D01*
X392421Y48736D01*
X392873Y49828D01*
X393028Y51000D01*
X392873Y52172D01*
X392421Y53264D01*
X391702Y54202D01*
X390764Y54921D01*
X389672Y55373D01*
X388500Y55528D01*
D02*
G37*
G36*
X378500D02*
X377328Y55373D01*
X376236Y54921D01*
X375298Y54202D01*
X374579Y53264D01*
X374127Y52172D01*
X373972Y51000D01*
X374127Y49828D01*
X374579Y48736D01*
X375298Y47798D01*
X376236Y47079D01*
X377328Y46627D01*
X378500Y46472D01*
X379672Y46627D01*
X380764Y47079D01*
X381702Y47798D01*
X382421Y48736D01*
X382873Y49828D01*
X383028Y51000D01*
X382873Y52172D01*
X382421Y53264D01*
X381702Y54202D01*
X380764Y54921D01*
X379672Y55373D01*
X378500Y55528D01*
D02*
G37*
G36*
X368500D02*
X367328Y55373D01*
X366236Y54921D01*
X365298Y54202D01*
X364579Y53264D01*
X364127Y52172D01*
X363972Y51000D01*
X364127Y49828D01*
X364579Y48736D01*
X365298Y47798D01*
X366236Y47079D01*
X367328Y46627D01*
X368500Y46472D01*
X369672Y46627D01*
X370764Y47079D01*
X371702Y47798D01*
X372421Y48736D01*
X372873Y49828D01*
X373028Y51000D01*
X372873Y52172D01*
X372421Y53264D01*
X371702Y54202D01*
X370764Y54921D01*
X369672Y55373D01*
X368500Y55528D01*
D02*
G37*
G36*
X25854Y49995D02*
X25035Y49832D01*
X24340Y49368D01*
X23876Y48674D01*
X23713Y47854D01*
X23876Y47035D01*
X24340Y46340D01*
X25035Y45876D01*
X25854Y45713D01*
X26674Y45876D01*
X27368Y46340D01*
X27832Y47035D01*
X27995Y47854D01*
X27832Y48674D01*
X27368Y49368D01*
X26674Y49832D01*
X25854Y49995D01*
D02*
G37*
G36*
X373500Y44141D02*
X372681Y43978D01*
X371986Y43514D01*
X371522Y42819D01*
X371359Y42000D01*
X371522Y41181D01*
X371986Y40486D01*
X372681Y40022D01*
X373500Y39859D01*
X374319Y40022D01*
X375014Y40486D01*
X375478Y41181D01*
X375641Y42000D01*
X375478Y42819D01*
X375014Y43514D01*
X374319Y43978D01*
X373500Y44141D01*
D02*
G37*
G36*
X15650Y41042D02*
Y39500D01*
X17192D01*
X17128Y39819D01*
X16664Y40514D01*
X15969Y40978D01*
X15650Y41042D01*
D02*
G37*
G36*
X14650D02*
X14331Y40978D01*
X13636Y40514D01*
X13172Y39819D01*
X13108Y39500D01*
X14650D01*
Y41042D01*
D02*
G37*
G36*
X177500Y40542D02*
Y39000D01*
X179042D01*
X178978Y39319D01*
X178514Y40014D01*
X177819Y40478D01*
X177500Y40542D01*
D02*
G37*
G36*
X176500D02*
X176181Y40478D01*
X175486Y40014D01*
X175022Y39319D01*
X174958Y39000D01*
X176500D01*
Y40542D01*
D02*
G37*
G36*
X26000Y43141D02*
X25181Y42978D01*
X24486Y42514D01*
X24022Y41819D01*
X23859Y41000D01*
X24022Y40181D01*
X24486Y39486D01*
X25181Y39022D01*
X26000Y38859D01*
X26819Y39022D01*
X27514Y39486D01*
X27978Y40181D01*
X28141Y41000D01*
X27978Y41819D01*
X27514Y42514D01*
X26819Y42978D01*
X26000Y43141D01*
D02*
G37*
G36*
X195000Y40042D02*
Y38500D01*
X196542D01*
X196478Y38819D01*
X196014Y39514D01*
X195319Y39978D01*
X195000Y40042D01*
D02*
G37*
G36*
X194000D02*
X193681Y39978D01*
X192986Y39514D01*
X192522Y38819D01*
X192458Y38500D01*
X194000D01*
Y40042D01*
D02*
G37*
G36*
X17192Y38500D02*
X15650D01*
Y36958D01*
X15969Y37022D01*
X16664Y37486D01*
X17128Y38181D01*
X17192Y38500D01*
D02*
G37*
G36*
X14650D02*
X13108D01*
X13172Y38181D01*
X13636Y37486D01*
X14331Y37022D01*
X14650Y36958D01*
Y38500D01*
D02*
G37*
G36*
X179042Y38000D02*
X177500D01*
Y36458D01*
X177819Y36522D01*
X178514Y36986D01*
X178978Y37681D01*
X179042Y38000D01*
D02*
G37*
G36*
X176500D02*
X174958D01*
X175022Y37681D01*
X175486Y36986D01*
X176181Y36522D01*
X176500Y36458D01*
Y38000D01*
D02*
G37*
G36*
X196542Y37500D02*
X195000D01*
Y35958D01*
X195319Y36022D01*
X196014Y36486D01*
X196478Y37181D01*
X196542Y37500D01*
D02*
G37*
G36*
X194000D02*
X192458D01*
X192522Y37181D01*
X192986Y36486D01*
X193681Y36022D01*
X194000Y35958D01*
Y37500D01*
D02*
G37*
G36*
X373500Y37141D02*
X372681Y36978D01*
X371986Y36514D01*
X371522Y35819D01*
X371359Y35000D01*
X371522Y34181D01*
X371986Y33486D01*
X372681Y33022D01*
X373500Y32859D01*
X374319Y33022D01*
X375014Y33486D01*
X375478Y34181D01*
X375641Y35000D01*
X375478Y35819D01*
X375014Y36514D01*
X374319Y36978D01*
X373500Y37141D01*
D02*
G37*
G36*
X362500Y31542D02*
Y30000D01*
X364042D01*
X363978Y30319D01*
X363514Y31014D01*
X362819Y31478D01*
X362500Y31542D01*
D02*
G37*
G36*
X361500D02*
X361181Y31478D01*
X360486Y31014D01*
X360022Y30319D01*
X359958Y30000D01*
X361500D01*
Y31542D01*
D02*
G37*
G36*
X364042Y29000D02*
X362500D01*
Y27458D01*
X362819Y27522D01*
X363514Y27986D01*
X363978Y28681D01*
X364042Y29000D01*
D02*
G37*
G36*
X361500D02*
X359958D01*
X360022Y28681D01*
X360486Y27986D01*
X361181Y27522D01*
X361500Y27458D01*
Y29000D01*
D02*
G37*
G36*
X354591Y35528D02*
X353419Y35373D01*
X352327Y34921D01*
X351389Y34202D01*
X350669Y33264D01*
X350217Y32172D01*
X350063Y31000D01*
X350217Y29828D01*
X350669Y28736D01*
X351389Y27798D01*
X352327Y27079D01*
X353419Y26627D01*
X354591Y26472D01*
X355762Y26627D01*
X356854Y27079D01*
X357792Y27798D01*
X358512Y28736D01*
X358964Y29828D01*
X359118Y31000D01*
X358964Y32172D01*
X358512Y33264D01*
X357792Y34202D01*
X356854Y34921D01*
X355762Y35373D01*
X354591Y35528D01*
D02*
G37*
G36*
X329000D02*
X327828Y35373D01*
X326736Y34921D01*
X325798Y34202D01*
X325079Y33264D01*
X324627Y32172D01*
X324472Y31000D01*
X324627Y29828D01*
X325079Y28736D01*
X325798Y27798D01*
X326736Y27079D01*
X327828Y26627D01*
X329000Y26472D01*
X330172Y26627D01*
X331264Y27079D01*
X332202Y27798D01*
X332921Y28736D01*
X333373Y29828D01*
X333528Y31000D01*
X333373Y32172D01*
X332921Y33264D01*
X332202Y34202D01*
X331264Y34921D01*
X330172Y35373D01*
X329000Y35528D01*
D02*
G37*
G36*
X307591D02*
X306419Y35373D01*
X305327Y34921D01*
X304389Y34202D01*
X303669Y33264D01*
X303217Y32172D01*
X303063Y31000D01*
X303217Y29828D01*
X303669Y28736D01*
X304389Y27798D01*
X305327Y27079D01*
X306419Y26627D01*
X307591Y26472D01*
X308762Y26627D01*
X309854Y27079D01*
X310792Y27798D01*
X311512Y28736D01*
X311964Y29828D01*
X312118Y31000D01*
X311964Y32172D01*
X311512Y33264D01*
X310792Y34202D01*
X309854Y34921D01*
X308762Y35373D01*
X307591Y35528D01*
D02*
G37*
G36*
X282000D02*
X280828Y35373D01*
X279736Y34921D01*
X278798Y34202D01*
X278079Y33264D01*
X277627Y32172D01*
X277472Y31000D01*
X277627Y29828D01*
X278079Y28736D01*
X278798Y27798D01*
X279736Y27079D01*
X280828Y26627D01*
X282000Y26472D01*
X283172Y26627D01*
X284264Y27079D01*
X285202Y27798D01*
X285921Y28736D01*
X286373Y29828D01*
X286528Y31000D01*
X286373Y32172D01*
X285921Y33264D01*
X285202Y34202D01*
X284264Y34921D01*
X283172Y35373D01*
X282000Y35528D01*
D02*
G37*
G36*
X69090Y34528D02*
X67919Y34373D01*
X66827Y33921D01*
X65889Y33202D01*
X65169Y32264D01*
X64717Y31172D01*
X64563Y30000D01*
X64717Y28828D01*
X65169Y27736D01*
X65889Y26798D01*
X66827Y26079D01*
X67919Y25627D01*
X69090Y25472D01*
X70262Y25627D01*
X71354Y26079D01*
X72292Y26798D01*
X73012Y27736D01*
X73464Y28828D01*
X73618Y30000D01*
X73464Y31172D01*
X73012Y32264D01*
X72292Y33202D01*
X71354Y33921D01*
X70262Y34373D01*
X69090Y34528D01*
D02*
G37*
G36*
X43500D02*
X42328Y34373D01*
X41236Y33921D01*
X40298Y33202D01*
X39579Y32264D01*
X39127Y31172D01*
X38972Y30000D01*
X39127Y28828D01*
X39579Y27736D01*
X40298Y26798D01*
X41236Y26079D01*
X42328Y25627D01*
X43500Y25472D01*
X44672Y25627D01*
X45764Y26079D01*
X46702Y26798D01*
X47421Y27736D01*
X47873Y28828D01*
X48028Y30000D01*
X47873Y31172D01*
X47421Y32264D01*
X46702Y33202D01*
X45764Y33921D01*
X44672Y34373D01*
X43500Y34528D01*
D02*
G37*
G36*
X84595Y31014D02*
X81406D01*
X80650Y30915D01*
X79946Y30623D01*
X79341Y30159D01*
X78877Y29554D01*
X78585Y28850D01*
X78486Y28095D01*
Y24905D01*
X78585Y24150D01*
X78877Y23446D01*
X79341Y22841D01*
X79946Y22377D01*
X80650Y22085D01*
X81406Y21986D01*
X84595D01*
X85350Y22085D01*
X86054Y22377D01*
X86659Y22841D01*
X87123Y23446D01*
X87414Y24150D01*
X87514Y24905D01*
Y28095D01*
X87414Y28850D01*
X87123Y29554D01*
X86659Y30159D01*
X86054Y30623D01*
X85350Y30915D01*
X84595Y31014D01*
D02*
G37*
G36*
X355090Y17443D02*
Y13783D01*
X358750D01*
X358672Y14377D01*
X358250Y15396D01*
X357578Y16271D01*
X356703Y16942D01*
X355684Y17365D01*
X355090Y17443D01*
D02*
G37*
G36*
X354090D02*
X353497Y17365D01*
X352478Y16942D01*
X351603Y16271D01*
X350932Y15396D01*
X350509Y14377D01*
X350431Y13783D01*
X354090D01*
Y17443D01*
D02*
G37*
G36*
X329500D02*
Y13783D01*
X333159D01*
X333081Y14377D01*
X332659Y15396D01*
X331988Y16271D01*
X331113Y16942D01*
X330094Y17365D01*
X329500Y17443D01*
D02*
G37*
G36*
X328500D02*
X327906Y17365D01*
X326887Y16942D01*
X326012Y16271D01*
X325341Y15396D01*
X324919Y14377D01*
X324841Y13783D01*
X328500D01*
Y17443D01*
D02*
G37*
G36*
X308090D02*
Y13783D01*
X311750D01*
X311672Y14377D01*
X311250Y15396D01*
X310578Y16271D01*
X309703Y16942D01*
X308684Y17365D01*
X308090Y17443D01*
D02*
G37*
G36*
X307090D02*
X306497Y17365D01*
X305478Y16942D01*
X304603Y16271D01*
X303931Y15396D01*
X303509Y14377D01*
X303431Y13783D01*
X307090D01*
Y17443D01*
D02*
G37*
G36*
X282500D02*
Y13783D01*
X286159D01*
X286081Y14377D01*
X285659Y15396D01*
X284988Y16271D01*
X284113Y16942D01*
X283094Y17365D01*
X282500Y17443D01*
D02*
G37*
G36*
X281500D02*
X280907Y17365D01*
X279887Y16942D01*
X279012Y16271D01*
X278341Y15396D01*
X277919Y14377D01*
X277841Y13783D01*
X281500D01*
Y17443D01*
D02*
G37*
G36*
X83000Y21028D02*
X81828Y20873D01*
X80736Y20421D01*
X79798Y19702D01*
X79079Y18764D01*
X78627Y17672D01*
X78472Y16500D01*
X78627Y15328D01*
X79079Y14236D01*
X79798Y13298D01*
X80736Y12579D01*
X81828Y12127D01*
X83000Y11972D01*
X84172Y12127D01*
X85264Y12579D01*
X86202Y13298D01*
X86921Y14236D01*
X87373Y15328D01*
X87528Y16500D01*
X87373Y17672D01*
X86921Y18764D01*
X86202Y19702D01*
X85264Y20421D01*
X84172Y20873D01*
X83000Y21028D01*
D02*
G37*
G36*
X380000Y29596D02*
X378128Y29412D01*
X376328Y28866D01*
X374669Y27979D01*
X373214Y26786D01*
X372021Y25331D01*
X371134Y23672D01*
X370588Y21872D01*
X370404Y20000D01*
X370588Y18128D01*
X371134Y16328D01*
X372021Y14669D01*
X373214Y13214D01*
X374669Y12021D01*
X376328Y11134D01*
X378128Y10588D01*
X380000Y10404D01*
X381872Y10588D01*
X383672Y11134D01*
X385331Y12021D01*
X386786Y13214D01*
X387979Y14669D01*
X388866Y16328D01*
X389412Y18128D01*
X389596Y20000D01*
X389412Y21872D01*
X388866Y23672D01*
X387979Y25331D01*
X386786Y26786D01*
X385331Y27979D01*
X383672Y28866D01*
X381872Y29412D01*
X380000Y29596D01*
D02*
G37*
G36*
X20000D02*
X18128Y29412D01*
X16328Y28866D01*
X14669Y27979D01*
X13214Y26786D01*
X12021Y25331D01*
X11134Y23672D01*
X10588Y21872D01*
X10404Y20000D01*
X10588Y18128D01*
X11134Y16328D01*
X12021Y14669D01*
X13214Y13214D01*
X14669Y12021D01*
X16328Y11134D01*
X18128Y10588D01*
X20000Y10404D01*
X21872Y10588D01*
X23672Y11134D01*
X25331Y12021D01*
X26786Y13214D01*
X27979Y14669D01*
X28866Y16328D01*
X29412Y18128D01*
X29596Y20000D01*
X29412Y21872D01*
X28866Y23672D01*
X27979Y25331D01*
X26786Y26786D01*
X25331Y27979D01*
X23672Y28866D01*
X21872Y29412D01*
X20000Y29596D01*
D02*
G37*
G36*
X358750Y12784D02*
X355090D01*
Y9124D01*
X355684Y9202D01*
X356703Y9624D01*
X357578Y10296D01*
X358250Y11171D01*
X358672Y12190D01*
X358750Y12784D01*
D02*
G37*
G36*
X354090D02*
X350431D01*
X350509Y12190D01*
X350932Y11171D01*
X351603Y10296D01*
X352478Y9624D01*
X353497Y9202D01*
X354090Y9124D01*
Y12784D01*
D02*
G37*
G36*
X333159D02*
X329500D01*
Y9124D01*
X330094Y9202D01*
X331113Y9624D01*
X331988Y10296D01*
X332659Y11171D01*
X333081Y12190D01*
X333159Y12784D01*
D02*
G37*
G36*
X328500D02*
X324841D01*
X324919Y12190D01*
X325341Y11171D01*
X326012Y10296D01*
X326887Y9624D01*
X327906Y9202D01*
X328500Y9124D01*
Y12784D01*
D02*
G37*
G36*
X311750D02*
X308090D01*
Y9124D01*
X308684Y9202D01*
X309703Y9624D01*
X310578Y10296D01*
X311250Y11171D01*
X311672Y12190D01*
X311750Y12784D01*
D02*
G37*
G36*
X307090D02*
X303431D01*
X303509Y12190D01*
X303931Y11171D01*
X304603Y10296D01*
X305478Y9624D01*
X306497Y9202D01*
X307090Y9124D01*
Y12784D01*
D02*
G37*
G36*
X286159D02*
X282500D01*
Y9124D01*
X283094Y9202D01*
X284113Y9624D01*
X284988Y10296D01*
X285659Y11171D01*
X286081Y12190D01*
X286159Y12784D01*
D02*
G37*
G36*
X281500D02*
X277841D01*
X277919Y12190D01*
X278341Y11171D01*
X279012Y10296D01*
X279887Y9624D01*
X280907Y9202D01*
X281500Y9124D01*
Y12784D01*
D02*
G37*
G36*
X69090Y16811D02*
X67919Y16657D01*
X66827Y16205D01*
X65889Y15485D01*
X65169Y14547D01*
X64717Y13455D01*
X64563Y12284D01*
X64717Y11112D01*
X65169Y10020D01*
X65889Y9082D01*
X66827Y8362D01*
X67919Y7910D01*
X69090Y7756D01*
X70262Y7910D01*
X71354Y8362D01*
X72292Y9082D01*
X73012Y10020D01*
X73464Y11112D01*
X73618Y12284D01*
X73464Y13455D01*
X73012Y14547D01*
X72292Y15485D01*
X71354Y16205D01*
X70262Y16657D01*
X69090Y16811D01*
D02*
G37*
G36*
X43500D02*
X42328Y16657D01*
X41236Y16205D01*
X40298Y15485D01*
X39579Y14547D01*
X39127Y13455D01*
X38972Y12284D01*
X39127Y11112D01*
X39579Y10020D01*
X40298Y9082D01*
X41236Y8362D01*
X42328Y7910D01*
X43500Y7756D01*
X44672Y7910D01*
X45764Y8362D01*
X46702Y9082D01*
X47421Y10020D01*
X47873Y11112D01*
X48028Y12284D01*
X47873Y13455D01*
X47421Y14547D01*
X46702Y15485D01*
X45764Y16205D01*
X44672Y16657D01*
X43500Y16811D01*
D02*
G37*
%LPD*%
D85*
X127500Y168000D02*
D03*
X329000Y13284D02*
D03*
X354591D02*
D03*
X282000D02*
D03*
X307591D02*
D03*
D86*
X127500Y178000D02*
D03*
X177000D02*
D03*
X358500Y51000D02*
D03*
D88*
X287846Y152996D02*
D03*
X8150Y132500D02*
D03*
D90*
X133000Y194500D02*
D03*
X217500Y106000D02*
D03*
X234500Y105500D02*
D03*
X194000Y129000D02*
D03*
X176000Y90500D02*
D03*
X169000Y89000D02*
D03*
X145500D02*
D03*
X148000Y107500D02*
D03*
X171500D02*
D03*
X177000Y133000D02*
D03*
X161000Y141500D02*
D03*
X177000Y38500D02*
D03*
X194500Y38000D02*
D03*
X184500Y71500D02*
D03*
X195000Y79500D02*
D03*
X15150Y39000D02*
D03*
X246500Y54000D02*
D03*
X362000Y29500D02*
D03*
X215500Y90500D02*
D03*
X232000D02*
D03*
X260000Y152500D02*
D03*
X277000D02*
D03*
M02*
