M48
;Layer_Color=9474304
;FILE_FORMAT=2:4
INCH,TZ
;TYPE=PLATED
T1F00S00C0.0080
T2F00S00C0.0100
T3F00S00C0.0120
T4F00S00C0.0160
T5F00S00C0.0394
T6F00S00C0.0402
T7F00S00C0.1650
;TYPE=NON_PLATED
T8F00S00C0.1181
%
T01
X21550Y10100
X21894Y10222
X25600Y9050
X26500
X20350Y9300
X20500Y9750
Y10100
Y10500
Y11050
X20100
X18750
T02
X400Y2600
Y3400
X1515Y3900
X2600Y4100
X2585Y4785
X400Y5200
X2600Y400
X3400
X4200
X5000
X5800
X6600
X7400
X8200
X9000
X9800
X10600
X11400
X12200
X13000
X13800
X14600
X15400
X16200
X17000
X17800
X18600
X19400
X20200
X21000
X19450Y3800
X18900Y5000
X18200
X17700Y3850
X22150Y5300
X24650Y5400
X27700Y5350
X29450
X32400
X34150
X36200Y2950
Y400
X35400
X34600
X33800
X33000
X32200
X31400
X30600
X29800
X29000
X28200
X27400
X26600
X25800
X25000
X24200
X23400
X22600
X21800
X37000
X37350Y3500
Y4200
X39600
Y5000
Y3400
Y2600
Y5800
Y6600
Y7400
Y8200
Y9000
Y9800
Y10600
Y11400
Y12200
Y13000
Y13800
Y14600
Y15400
Y16200
Y17000
X37400Y19600
X36600
X35800
X35000
X34200
X33400
X32600
X31800
X31000
X30200
X29400
X28600
X27800
X27000
X26200
X25400
X24600
X23800
X23000
X22200
X21400
X21300Y16650
X21400Y14650
X21750Y10600
X21800Y9850
X21550Y9050
X22000Y7900
X22700
X23150Y8350
X23200Y9050
X23800
X24700
X23550Y9850
X23450Y10550
X23950Y10795
X23250Y6700
X24700Y5900
X25600
X26500
Y14100
X27200
X27700Y14550
Y15250
X26000
Y14550
X20450Y14300
X18850Y14450
X18150
X17700Y13300
Y12650
X19400Y12900
X20100Y12750
X20300Y12150
X20000Y10550
Y9800
X19250
Y10550
X17150Y10750
X16500Y11450
X14800
Y10750
X14550Y8900
X15050Y7750
X15750
X16450
X17100
X16900Y8900
X17600Y9050
X18450Y7150
X18900Y6350
X19600
X19500Y7950
X21050Y7050
X16100Y14150
X15350
X14700Y12950
X15350Y18750
Y19450
X14600Y19600
X13800
X13300Y19450
X11600
Y18750
X10600Y19600
X9800
X9000
X8200
X7400
X6600
X5800
X17400
X18200
X19000
X19800
X20600
X5000
X4200
X3400
X2600
X400Y17000
Y16200
Y15400
Y14600
Y11450
X1815Y10650
X2515
X3265Y10300
Y9600
X2915Y8700
X3615
X4315
X2000Y7950
X400Y8200
Y6800
Y6000
X3265Y11000
T03
X4365Y5050
T04
X765Y3600
X2700Y5450
X6373Y9363
X1015Y8250
T05
X4350Y1228
Y3000
X6909
Y1228
X28200Y1328
Y3100
X30759
Y1328
X32900
Y3100
X35459
Y1328
X28785Y8300
Y9300
Y10300
Y11300
X8750Y16800
Y17800
X7750
X6750
Y16800
X7750
X5750
Y17800
X4750
X3750
Y16800
X4750
T06
X8300Y1650
Y2650
X35850Y5100
X36850
X37850
X38850
X28785Y12300
Y13300
Y14300
Y15300
X17700Y17800
X16700
X15700
X14700
X12750
X11750
X10750
X9750
Y16800
X10750
X11750
X12750
X815Y13250
Y12250
Y10350
Y9350
T07
X2000Y2000
X38000
Y18000
X2000
T08
X38450Y8650
Y14949
M30
