G04*
G04 #@! TF.GenerationSoftware,Altium Limited,Altium Designer,21.3.2 (30)*
G04*
G04 Layer_Color=255*
%FSLAX25Y25*%
%MOIN*%
G70*
G04*
G04 #@! TF.SameCoordinates,41522B4C-5660-4B3E-BEA4-8D9A01AACCA4*
G04*
G04*
G04 #@! TF.FilePolarity,Positive*
G04*
G01*
G75*
%ADD22R,0.08071X0.03937*%
%ADD23R,0.08071X0.12795*%
%ADD64R,0.05512X0.07874*%
%ADD65O,0.06693X0.02362*%
%ADD66R,0.12205X0.12205*%
%ADD67O,0.00787X0.05118*%
%ADD68O,0.05118X0.00787*%
%ADD69R,0.04500X0.04000*%
%ADD70R,0.04000X0.04500*%
G04:AMPARAMS|DCode=71|XSize=74.8mil|YSize=70.87mil|CornerRadius=17.72mil|HoleSize=0mil|Usage=FLASHONLY|Rotation=270.000|XOffset=0mil|YOffset=0mil|HoleType=Round|Shape=RoundedRectangle|*
%AMROUNDEDRECTD71*
21,1,0.07480,0.03543,0,0,270.0*
21,1,0.03937,0.07087,0,0,270.0*
1,1,0.03543,-0.01772,-0.01968*
1,1,0.03543,-0.01772,0.01968*
1,1,0.03543,0.01772,0.01968*
1,1,0.03543,0.01772,-0.01968*
%
%ADD71ROUNDEDRECTD71*%
G04:AMPARAMS|DCode=72|XSize=62.99mil|YSize=82.68mil|CornerRadius=15.75mil|HoleSize=0mil|Usage=FLASHONLY|Rotation=0.000|XOffset=0mil|YOffset=0mil|HoleType=Round|Shape=RoundedRectangle|*
%AMROUNDEDRECTD72*
21,1,0.06299,0.05118,0,0,0.0*
21,1,0.03150,0.08268,0,0,0.0*
1,1,0.03150,0.01575,-0.02559*
1,1,0.03150,-0.01575,-0.02559*
1,1,0.03150,-0.01575,0.02559*
1,1,0.03150,0.01575,0.02559*
%
%ADD72ROUNDEDRECTD72*%
G04:AMPARAMS|DCode=73|XSize=15.75mil|YSize=59.06mil|CornerRadius=3.94mil|HoleSize=0mil|Usage=FLASHONLY|Rotation=270.000|XOffset=0mil|YOffset=0mil|HoleType=Round|Shape=RoundedRectangle|*
%AMROUNDEDRECTD73*
21,1,0.01575,0.05118,0,0,270.0*
21,1,0.00787,0.05906,0,0,270.0*
1,1,0.00787,-0.02559,-0.00394*
1,1,0.00787,-0.02559,0.00394*
1,1,0.00787,0.02559,0.00394*
1,1,0.00787,0.02559,-0.00394*
%
%ADD73ROUNDEDRECTD73*%
%ADD74R,0.02362X0.03740*%
%ADD75R,0.03200X0.03200*%
%ADD76R,0.03200X0.03200*%
%ADD77R,0.04000X0.03000*%
%ADD78R,0.03000X0.04000*%
%ADD85C,0.06378*%
G04:AMPARAMS|DCode=86|XSize=63.78mil|YSize=63.78mil|CornerRadius=15.95mil|HoleSize=0mil|Usage=FLASHONLY|Rotation=180.000|XOffset=0mil|YOffset=0mil|HoleType=Round|Shape=RoundedRectangle|*
%AMROUNDEDRECTD86*
21,1,0.06378,0.03189,0,0,180.0*
21,1,0.03189,0.06378,0,0,180.0*
1,1,0.03189,-0.01595,0.01595*
1,1,0.03189,0.01595,0.01595*
1,1,0.03189,0.01595,-0.01595*
1,1,0.03189,-0.01595,-0.01595*
%
%ADD86ROUNDEDRECTD86*%
%ADD87C,0.11811*%
G04:AMPARAMS|DCode=88|XSize=63.78mil|YSize=63.78mil|CornerRadius=15.95mil|HoleSize=0mil|Usage=FLASHONLY|Rotation=270.000|XOffset=0mil|YOffset=0mil|HoleType=Round|Shape=RoundedRectangle|*
%AMROUNDEDRECTD88*
21,1,0.06378,0.03189,0,0,270.0*
21,1,0.03189,0.06378,0,0,270.0*
1,1,0.03189,-0.01595,-0.01595*
1,1,0.03189,-0.01595,0.01595*
1,1,0.03189,0.01595,0.01595*
1,1,0.03189,0.01595,-0.01595*
%
%ADD88ROUNDEDRECTD88*%
%ADD89C,0.06000*%
D22*
X54650Y93555D02*
D03*
Y84500D02*
D03*
Y75445D02*
D03*
D23*
X79650Y84500D02*
D03*
D64*
X204500Y136000D02*
D03*
Y153323D02*
D03*
X213949D02*
D03*
Y136000D02*
D03*
D65*
X229476Y38000D02*
D03*
Y43000D02*
D03*
Y48000D02*
D03*
Y53000D02*
D03*
X201524Y38000D02*
D03*
Y43000D02*
D03*
Y48000D02*
D03*
Y53000D02*
D03*
D66*
X196138Y101787D02*
D03*
D67*
X190626Y87713D02*
D03*
X200075D02*
D03*
X201650D02*
D03*
X198500D02*
D03*
X206374D02*
D03*
X195350D02*
D03*
X192201D02*
D03*
X189051D02*
D03*
X203224D02*
D03*
X204799D02*
D03*
X193776D02*
D03*
X196925D02*
D03*
X185902D02*
D03*
X187476D02*
D03*
X206374Y115862D02*
D03*
X204799D02*
D03*
X203224D02*
D03*
X201650D02*
D03*
X200075D02*
D03*
X198500D02*
D03*
X196925D02*
D03*
X195350D02*
D03*
X193776D02*
D03*
X192201D02*
D03*
X190626D02*
D03*
X189051D02*
D03*
X187476D02*
D03*
X185902D02*
D03*
D68*
X210213Y91551D02*
D03*
Y93126D02*
D03*
Y94701D02*
D03*
Y96276D02*
D03*
Y97850D02*
D03*
Y99425D02*
D03*
Y101000D02*
D03*
Y102575D02*
D03*
Y104150D02*
D03*
Y105724D02*
D03*
Y107299D02*
D03*
Y108874D02*
D03*
Y110449D02*
D03*
Y112024D02*
D03*
X182063D02*
D03*
Y110449D02*
D03*
Y108874D02*
D03*
Y107299D02*
D03*
Y105724D02*
D03*
Y104150D02*
D03*
Y102575D02*
D03*
Y101000D02*
D03*
Y99425D02*
D03*
Y97850D02*
D03*
Y96276D02*
D03*
Y94701D02*
D03*
Y93126D02*
D03*
Y91551D02*
D03*
D69*
X329000Y46650D02*
D03*
Y53350D02*
D03*
X282000Y46650D02*
D03*
Y53350D02*
D03*
X265000Y64150D02*
D03*
Y70850D02*
D03*
X256000Y64150D02*
D03*
Y70850D02*
D03*
X247000Y64150D02*
D03*
Y70850D02*
D03*
X238000Y64150D02*
D03*
Y70850D02*
D03*
X31150Y40850D02*
D03*
Y34150D02*
D03*
X161000Y136350D02*
D03*
Y129650D02*
D03*
X196500Y140650D02*
D03*
Y147350D02*
D03*
D70*
X246350Y48500D02*
D03*
X239650D02*
D03*
X162650Y70500D02*
D03*
X169350D02*
D03*
X162650Y62500D02*
D03*
X169350D02*
D03*
X239650Y40500D02*
D03*
X246350D02*
D03*
D71*
X9618Y75020D02*
D03*
Y45098D02*
D03*
D72*
X19658Y47854D02*
D03*
Y72264D02*
D03*
D73*
X20544Y54941D02*
D03*
Y57500D02*
D03*
Y60059D02*
D03*
Y62618D02*
D03*
Y65177D02*
D03*
D74*
X39910Y55685D02*
D03*
X43650D02*
D03*
X47390D02*
D03*
Y66315D02*
D03*
X43650D02*
D03*
X39910D02*
D03*
D75*
X20150Y34000D02*
D03*
X13150D02*
D03*
D76*
X265000Y78500D02*
D03*
Y85500D02*
D03*
X256000Y78500D02*
D03*
Y85500D02*
D03*
X247000Y78500D02*
D03*
Y85500D02*
D03*
X238000Y78500D02*
D03*
Y85500D02*
D03*
D77*
X153500Y129500D02*
D03*
Y136500D02*
D03*
X336500Y46500D02*
D03*
Y53500D02*
D03*
X289500Y46500D02*
D03*
Y53500D02*
D03*
X265000Y152500D02*
D03*
Y145500D02*
D03*
X272000Y152500D02*
D03*
Y145500D02*
D03*
X25150Y102000D02*
D03*
Y95000D02*
D03*
X18150D02*
D03*
Y102000D02*
D03*
X43150Y75500D02*
D03*
Y82500D02*
D03*
X29150Y75500D02*
D03*
Y82500D02*
D03*
X36150Y75500D02*
D03*
Y82500D02*
D03*
X182000Y38500D02*
D03*
Y45500D02*
D03*
X189000Y38500D02*
D03*
Y45500D02*
D03*
X150500Y89000D02*
D03*
Y82000D02*
D03*
X153000Y107500D02*
D03*
Y114500D02*
D03*
X188500Y133000D02*
D03*
Y140000D02*
D03*
X229500Y105500D02*
D03*
Y98500D02*
D03*
X227000Y90500D02*
D03*
Y83500D02*
D03*
X157500Y89000D02*
D03*
Y82000D02*
D03*
X189000Y75000D02*
D03*
Y68000D02*
D03*
X160000Y107500D02*
D03*
Y114500D02*
D03*
X181500Y133000D02*
D03*
Y140000D02*
D03*
X222500Y105500D02*
D03*
Y98500D02*
D03*
X220000Y90500D02*
D03*
Y83500D02*
D03*
X164500Y89000D02*
D03*
Y82000D02*
D03*
X196000Y75000D02*
D03*
Y68000D02*
D03*
D78*
X362000Y42000D02*
D03*
X369000D02*
D03*
X362000Y35000D02*
D03*
X369000D02*
D03*
X127500Y187500D02*
D03*
X120500D02*
D03*
X127500Y194500D02*
D03*
X120500D02*
D03*
X165500D02*
D03*
X158500D02*
D03*
X165500Y187500D02*
D03*
X158500D02*
D03*
X44150Y96000D02*
D03*
X37150D02*
D03*
X44150Y103000D02*
D03*
X37150D02*
D03*
X44150Y110000D02*
D03*
X37150D02*
D03*
X206000Y162000D02*
D03*
X213000D02*
D03*
X212500Y127500D02*
D03*
X205500D02*
D03*
X178000Y82500D02*
D03*
X171000D02*
D03*
X188500Y126500D02*
D03*
X181500D02*
D03*
X203500Y75000D02*
D03*
X210500D02*
D03*
D85*
X67500Y178000D02*
D03*
X107500D02*
D03*
X117500Y168000D02*
D03*
X77500Y178000D02*
D03*
X87500D02*
D03*
X97500D02*
D03*
X117500D02*
D03*
X67500Y168000D02*
D03*
X77500D02*
D03*
X87500D02*
D03*
X97500D02*
D03*
X107500D02*
D03*
X127500D02*
D03*
X37500Y178000D02*
D03*
X47500D02*
D03*
X57500D02*
D03*
Y168000D02*
D03*
X47500D02*
D03*
X37500D02*
D03*
X167000Y178000D02*
D03*
X157000D02*
D03*
X147000D02*
D03*
X43500Y30000D02*
D03*
X69090D02*
D03*
X43500Y12284D02*
D03*
X69090D02*
D03*
X329000Y31000D02*
D03*
X354591D02*
D03*
X329000Y13284D02*
D03*
X354591D02*
D03*
X282000Y31000D02*
D03*
X307591D02*
D03*
X282000Y13284D02*
D03*
X307591D02*
D03*
X287846Y82996D02*
D03*
Y142996D02*
D03*
Y132996D02*
D03*
Y122996D02*
D03*
Y112996D02*
D03*
Y102996D02*
D03*
Y92996D02*
D03*
X8150Y122500D02*
D03*
X83000Y16500D02*
D03*
X8150Y103500D02*
D03*
X388500Y51000D02*
D03*
X378500D02*
D03*
X368500D02*
D03*
D86*
X127500Y178000D02*
D03*
X177000D02*
D03*
X358500Y51000D02*
D03*
D87*
X384500Y86500D02*
D03*
Y149492D02*
D03*
D88*
X287846Y152996D02*
D03*
X8150Y132500D02*
D03*
X83000Y26500D02*
D03*
X8150Y93500D02*
D03*
D89*
X20000Y180000D02*
D03*
X380000Y20000D02*
D03*
X20000D02*
D03*
X380000Y180000D02*
D03*
M02*
