G04*
G04 #@! TF.GenerationSoftware,Altium Limited,Altium Designer,21.3.2 (30)*
G04*
G04 Layer_Color=2752767*
%FSLAX25Y25*%
%MOIN*%
G70*
G04*
G04 #@! TF.SameCoordinates,41522B4C-5660-4B3E-BEA4-8D9A01AACCA4*
G04*
G04*
G04 #@! TF.FilePolarity,Positive*
G04*
G01*
G75*
%ADD96C,0.00200*%
%ADD97C,0.00267*%
D96*
X66700Y177200D02*
Y178800D01*
X68300D01*
Y177200D01*
X66700D01*
X76700D02*
Y178800D01*
X78300D01*
Y177200D01*
X76700D01*
X86700D02*
Y178800D01*
X88300D01*
Y177200D01*
X86700D01*
X66700Y167200D02*
Y168800D01*
X68300D01*
Y167200D01*
X66700D01*
X76700D02*
Y168800D01*
X78300D01*
Y167200D01*
X76700D01*
X86700D02*
Y168800D01*
X88300D01*
Y167200D01*
X86700D01*
X36700Y177200D02*
Y178800D01*
X38300D01*
Y177200D01*
X36700D01*
X46700D02*
Y178800D01*
X48300D01*
Y177200D01*
X46700D01*
X56700D02*
Y178800D01*
X58300D01*
Y177200D01*
X56700D01*
Y167200D02*
Y168800D01*
X58300D01*
Y167200D01*
X56700D01*
X46700D02*
Y168800D01*
X48300D01*
Y167200D01*
X46700D01*
X36700D02*
Y168800D01*
X38300D01*
Y167200D01*
X36700D01*
X42700Y29200D02*
Y30800D01*
X44300D01*
Y29200D01*
X42700D01*
X68291D02*
Y30800D01*
X69890D01*
Y29200D01*
X68291D01*
X42700Y11484D02*
Y13083D01*
X44300D01*
Y11484D01*
X42700D01*
X68291D02*
Y13083D01*
X69890D01*
Y11484D01*
X68291D01*
X328200Y30200D02*
Y31800D01*
X329800D01*
Y30200D01*
X328200D01*
X353790D02*
Y31800D01*
X355391D01*
Y30200D01*
X353790D01*
X328200Y12483D02*
Y14084D01*
X329800D01*
Y12483D01*
X328200D01*
X353790D02*
Y14084D01*
X355391D01*
Y12483D01*
X353790D01*
X281200Y30200D02*
Y31800D01*
X282800D01*
Y30200D01*
X281200D01*
X306790D02*
Y31800D01*
X308390D01*
Y30200D01*
X306790D01*
X281200Y12483D02*
Y14084D01*
X282800D01*
Y12483D01*
X281200D01*
X306790D02*
Y14084D01*
X308390D01*
Y12483D01*
X306790D01*
X384500Y85700D02*
X383700Y87300D01*
X385300D01*
X384500Y85700D01*
Y148692D02*
X383700Y150292D01*
X385300D01*
X384500Y148692D01*
X287047Y82196D02*
Y83796D01*
X288647D01*
Y82196D01*
X287047D01*
Y112196D02*
Y113796D01*
X288647D01*
Y112196D01*
X287047D01*
Y102196D02*
Y103796D01*
X288647D01*
Y102196D01*
X287047D01*
Y92196D02*
Y93796D01*
X288647D01*
Y92196D01*
X287047D01*
X20000Y179200D02*
X20400Y179600D01*
X20800D01*
X20400Y180000D01*
X20800Y180400D01*
X20400D01*
X20000Y180800D01*
X19600Y180400D01*
X19200D01*
X19600Y180000D01*
X19200Y179600D01*
X19600D01*
X20000Y179200D01*
X380000Y19200D02*
X380400Y19600D01*
X380800D01*
X380400Y20000D01*
X380800Y20400D01*
X380400D01*
X380000Y20800D01*
X379600Y20400D01*
X379200D01*
X379600Y20000D01*
X379200Y19600D01*
X379600D01*
X380000Y19200D01*
X20000D02*
X20400Y19600D01*
X20800D01*
X20400Y20000D01*
X20800Y20400D01*
X20400D01*
X20000Y20800D01*
X19600Y20400D01*
X19200D01*
X19600Y20000D01*
X19200Y19600D01*
X19600D01*
X20000Y19200D01*
X380000Y179200D02*
X380400Y179600D01*
X380800D01*
X380400Y180000D01*
X380800Y180400D01*
X380400D01*
X380000Y180800D01*
X379600Y180400D01*
X379200D01*
X379600Y180000D01*
X379200Y179600D01*
X379600D01*
X380000Y179200D01*
X271200Y140200D02*
X271600Y141000D01*
X271200Y141800D01*
X272000Y141400D01*
X272800Y141800D01*
X272400Y141000D01*
X272800Y140200D01*
X272000Y140600D01*
X271200Y140200D01*
X264200D02*
X264600Y141000D01*
X264200Y141800D01*
X265000Y141400D01*
X265800Y141800D01*
X265400Y141000D01*
X265800Y140200D01*
X265000Y140600D01*
X264200Y140200D01*
X152700Y193700D02*
X153100Y194500D01*
X152700Y195300D01*
X153500Y194900D01*
X154300Y195300D01*
X153900Y194500D01*
X154300Y193700D01*
X153500Y194100D01*
X152700Y193700D01*
Y186700D02*
X153100Y187500D01*
X152700Y188300D01*
X153500Y187900D01*
X154300Y188300D01*
X153900Y187500D01*
X154300Y186700D01*
X153500Y187100D01*
X152700Y186700D01*
X3200Y169200D02*
X3600Y170000D01*
X3200Y170800D01*
X4000Y170400D01*
X4800Y170800D01*
X4400Y170000D01*
X4800Y169200D01*
X4000Y169600D01*
X3200Y169200D01*
Y161200D02*
X3600Y162000D01*
X3200Y162800D01*
X4000Y162400D01*
X4800Y162800D01*
X4400Y162000D01*
X4800Y161200D01*
X4000Y161600D01*
X3200Y161200D01*
Y153200D02*
X3600Y154000D01*
X3200Y154800D01*
X4000Y154400D01*
X4800Y154800D01*
X4400Y154000D01*
X4800Y153200D01*
X4000Y153600D01*
X3200Y153200D01*
Y145200D02*
X3600Y146000D01*
X3200Y146800D01*
X4000Y146400D01*
X4800Y146800D01*
X4400Y146000D01*
X4800Y145200D01*
X4000Y145600D01*
X3200Y145200D01*
Y113700D02*
X3600Y114500D01*
X3200Y115300D01*
X4000Y114900D01*
X4800Y115300D01*
X4400Y114500D01*
X4800Y113700D01*
X4000Y114100D01*
X3200Y113700D01*
Y81200D02*
X3600Y82000D01*
X3200Y82800D01*
X4000Y82400D01*
X4800Y82800D01*
X4400Y82000D01*
X4800Y81200D01*
X4000Y81600D01*
X3200Y81200D01*
Y67200D02*
X3600Y68000D01*
X3200Y68800D01*
X4000Y68400D01*
X4800Y68800D01*
X4400Y68000D01*
X4800Y67200D01*
X4000Y67600D01*
X3200Y67200D01*
Y59200D02*
X3600Y60000D01*
X3200Y60800D01*
X4000Y60400D01*
X4800Y60800D01*
X4400Y60000D01*
X4800Y59200D01*
X4000Y59600D01*
X3200Y59200D01*
Y51200D02*
X3600Y52000D01*
X3200Y52800D01*
X4000Y52400D01*
X4800Y52800D01*
X4400Y52000D01*
X4800Y51200D01*
X4000Y51600D01*
X3200Y51200D01*
Y33200D02*
X3600Y34000D01*
X3200Y34800D01*
X4000Y34400D01*
X4800Y34800D01*
X4400Y34000D01*
X4800Y33200D01*
X4000Y33600D01*
X3200Y33200D01*
Y25200D02*
X3600Y26000D01*
X3200Y26800D01*
X4000Y26400D01*
X4800Y26800D01*
X4400Y26000D01*
X4800Y25200D01*
X4000Y25600D01*
X3200Y25200D01*
X395200Y161200D02*
X395600Y162000D01*
X395200Y162800D01*
X396000Y162400D01*
X396800Y162800D01*
X396400Y162000D01*
X396800Y161200D01*
X396000Y161600D01*
X395200Y161200D01*
Y145200D02*
X395600Y146000D01*
X395200Y146800D01*
X396000Y146400D01*
X396800Y146800D01*
X396400Y146000D01*
X396800Y145200D01*
X396000Y145600D01*
X395200Y145200D01*
Y49200D02*
X395600Y50000D01*
X395200Y50800D01*
X396000Y50400D01*
X396800Y50800D01*
X396400Y50000D01*
X396800Y49200D01*
X396000Y49600D01*
X395200Y49200D01*
Y129200D02*
X395600Y130000D01*
X395200Y130800D01*
X396000Y130400D01*
X396800Y130800D01*
X396400Y130000D01*
X396800Y129200D01*
X396000Y129600D01*
X395200Y129200D01*
Y113200D02*
X395600Y114000D01*
X395200Y114800D01*
X396000Y114400D01*
X396800Y114800D01*
X396400Y114000D01*
X396800Y113200D01*
X396000Y113600D01*
X395200Y113200D01*
Y41200D02*
X395600Y42000D01*
X395200Y42800D01*
X396000Y42400D01*
X396800Y42800D01*
X396400Y42000D01*
X396800Y41200D01*
X396000Y41600D01*
X395200Y41200D01*
Y97200D02*
X395600Y98000D01*
X395200Y98800D01*
X396000Y98400D01*
X396800Y98800D01*
X396400Y98000D01*
X396800Y97200D01*
X396000Y97600D01*
X395200Y97200D01*
Y89200D02*
X395600Y90000D01*
X395200Y90800D01*
X396000Y90400D01*
X396800Y90800D01*
X396400Y90000D01*
X396800Y89200D01*
X396000Y89600D01*
X395200Y89200D01*
Y33200D02*
X395600Y34000D01*
X395200Y34800D01*
X396000Y34400D01*
X396800Y34800D01*
X396400Y34000D01*
X396800Y33200D01*
X396000Y33600D01*
X395200Y33200D01*
Y25200D02*
X395600Y26000D01*
X395200Y26800D01*
X396000Y26400D01*
X396800Y26800D01*
X396400Y26000D01*
X396800Y25200D01*
X396000Y25600D01*
X395200Y25200D01*
Y81200D02*
X395600Y82000D01*
X395200Y82800D01*
X396000Y82400D01*
X396800Y82800D01*
X396400Y82000D01*
X396800Y81200D01*
X396000Y81600D01*
X395200Y81200D01*
Y73200D02*
X395600Y74000D01*
X395200Y74800D01*
X396000Y74400D01*
X396800Y74800D01*
X396400Y74000D01*
X396800Y73200D01*
X396000Y73600D01*
X395200Y73200D01*
Y65200D02*
X395600Y66000D01*
X395200Y66800D01*
X396000Y66400D01*
X396800Y66800D01*
X396400Y66000D01*
X396800Y65200D01*
X396000Y65600D01*
X395200Y65200D01*
Y57200D02*
X395600Y58000D01*
X395200Y58800D01*
X396000Y58400D01*
X396800Y58800D01*
X396400Y58000D01*
X396800Y57200D01*
X396000Y57600D01*
X395200Y57200D01*
Y105200D02*
X395600Y106000D01*
X395200Y106800D01*
X396000Y106400D01*
X396800Y106800D01*
X396400Y106000D01*
X396800Y105200D01*
X396000Y105600D01*
X395200Y105200D01*
Y121200D02*
X395600Y122000D01*
X395200Y122800D01*
X396000Y122400D01*
X396800Y122800D01*
X396400Y122000D01*
X396800Y121200D01*
X396000Y121600D01*
X395200Y121200D01*
Y137200D02*
X395600Y138000D01*
X395200Y138800D01*
X396000Y138400D01*
X396800Y138800D01*
X396400Y138000D01*
X396800Y137200D01*
X396000Y137600D01*
X395200Y137200D01*
Y153200D02*
X395600Y154000D01*
X395200Y154800D01*
X396000Y154400D01*
X396800Y154800D01*
X396400Y154000D01*
X396800Y153200D01*
X396000Y153600D01*
X395200Y153200D01*
Y169200D02*
X395600Y170000D01*
X395200Y170800D01*
X396000Y170400D01*
X396800Y170800D01*
X396400Y170000D01*
X396800Y169200D01*
X396000Y169600D01*
X395200Y169200D01*
X137200Y195200D02*
X137600Y196000D01*
X137200Y196800D01*
X138000Y196400D01*
X138800Y196800D01*
X138400Y196000D01*
X138800Y195200D01*
X138000Y195600D01*
X137200Y195200D01*
X373200D02*
X373600Y196000D01*
X373200Y196800D01*
X374000Y196400D01*
X374800Y196800D01*
X374400Y196000D01*
X374800Y195200D01*
X374000Y195600D01*
X373200Y195200D01*
X365200D02*
X365600Y196000D01*
X365200Y196800D01*
X366000Y196400D01*
X366800Y196800D01*
X366400Y196000D01*
X366800Y195200D01*
X366000Y195600D01*
X365200Y195200D01*
X357200D02*
X357600Y196000D01*
X357200Y196800D01*
X358000Y196400D01*
X358800Y196800D01*
X358400Y196000D01*
X358800Y195200D01*
X358000Y195600D01*
X357200Y195200D01*
X349200D02*
X349600Y196000D01*
X349200Y196800D01*
X350000Y196400D01*
X350800Y196800D01*
X350400Y196000D01*
X350800Y195200D01*
X350000Y195600D01*
X349200Y195200D01*
X341200D02*
X341600Y196000D01*
X341200Y196800D01*
X342000Y196400D01*
X342800Y196800D01*
X342400Y196000D01*
X342800Y195200D01*
X342000Y195600D01*
X341200Y195200D01*
X333200D02*
X333600Y196000D01*
X333200Y196800D01*
X334000Y196400D01*
X334800Y196800D01*
X334400Y196000D01*
X334800Y195200D01*
X334000Y195600D01*
X333200Y195200D01*
X325200D02*
X325600Y196000D01*
X325200Y196800D01*
X326000Y196400D01*
X326800Y196800D01*
X326400Y196000D01*
X326800Y195200D01*
X326000Y195600D01*
X325200Y195200D01*
X317200D02*
X317600Y196000D01*
X317200Y196800D01*
X318000Y196400D01*
X318800Y196800D01*
X318400Y196000D01*
X318800Y195200D01*
X318000Y195600D01*
X317200Y195200D01*
X309200D02*
X309600Y196000D01*
X309200Y196800D01*
X310000Y196400D01*
X310800Y196800D01*
X310400Y196000D01*
X310800Y195200D01*
X310000Y195600D01*
X309200Y195200D01*
X301200D02*
X301600Y196000D01*
X301200Y196800D01*
X302000Y196400D01*
X302800Y196800D01*
X302400Y196000D01*
X302800Y195200D01*
X302000Y195600D01*
X301200Y195200D01*
X293200D02*
X293600Y196000D01*
X293200Y196800D01*
X294000Y196400D01*
X294800Y196800D01*
X294400Y196000D01*
X294800Y195200D01*
X294000Y195600D01*
X293200Y195200D01*
X285200D02*
X285600Y196000D01*
X285200Y196800D01*
X286000Y196400D01*
X286800Y196800D01*
X286400Y196000D01*
X286800Y195200D01*
X286000Y195600D01*
X285200Y195200D01*
X277200D02*
X277600Y196000D01*
X277200Y196800D01*
X278000Y196400D01*
X278800Y196800D01*
X278400Y196000D01*
X278800Y195200D01*
X278000Y195600D01*
X277200Y195200D01*
X269200D02*
X269600Y196000D01*
X269200Y196800D01*
X270000Y196400D01*
X270800Y196800D01*
X270400Y196000D01*
X270800Y195200D01*
X270000Y195600D01*
X269200Y195200D01*
X261200D02*
X261600Y196000D01*
X261200Y196800D01*
X262000Y196400D01*
X262800Y196800D01*
X262400Y196000D01*
X262800Y195200D01*
X262000Y195600D01*
X261200Y195200D01*
X253200D02*
X253600Y196000D01*
X253200Y196800D01*
X254000Y196400D01*
X254800Y196800D01*
X254400Y196000D01*
X254800Y195200D01*
X254000Y195600D01*
X253200Y195200D01*
X245200D02*
X245600Y196000D01*
X245200Y196800D01*
X246000Y196400D01*
X246800Y196800D01*
X246400Y196000D01*
X246800Y195200D01*
X246000Y195600D01*
X245200Y195200D01*
X237200D02*
X237600Y196000D01*
X237200Y196800D01*
X238000Y196400D01*
X238800Y196800D01*
X238400Y196000D01*
X238800Y195200D01*
X238000Y195600D01*
X237200Y195200D01*
X229200D02*
X229600Y196000D01*
X229200Y196800D01*
X230000Y196400D01*
X230800Y196800D01*
X230400Y196000D01*
X230800Y195200D01*
X230000Y195600D01*
X229200Y195200D01*
X221200D02*
X221600Y196000D01*
X221200Y196800D01*
X222000Y196400D01*
X222800Y196800D01*
X222400Y196000D01*
X222800Y195200D01*
X222000Y195600D01*
X221200Y195200D01*
X213200D02*
X213600Y196000D01*
X213200Y196800D01*
X214000Y196400D01*
X214800Y196800D01*
X214400Y196000D01*
X214800Y195200D01*
X214000Y195600D01*
X213200Y195200D01*
X205200D02*
X205600Y196000D01*
X205200Y196800D01*
X206000Y196400D01*
X206800Y196800D01*
X206400Y196000D01*
X206800Y195200D01*
X206000Y195600D01*
X205200Y195200D01*
X197200D02*
X197600Y196000D01*
X197200Y196800D01*
X198000Y196400D01*
X198800Y196800D01*
X198400Y196000D01*
X198800Y195200D01*
X198000Y195600D01*
X197200Y195200D01*
X189200D02*
X189600Y196000D01*
X189200Y196800D01*
X190000Y196400D01*
X190800Y196800D01*
X190400Y196000D01*
X190800Y195200D01*
X190000Y195600D01*
X189200Y195200D01*
X181200D02*
X181600Y196000D01*
X181200Y196800D01*
X182000Y196400D01*
X182800Y196800D01*
X182400Y196000D01*
X182800Y195200D01*
X182000Y195600D01*
X181200Y195200D01*
X173200D02*
X173600Y196000D01*
X173200Y196800D01*
X174000Y196400D01*
X174800Y196800D01*
X174400Y196000D01*
X174800Y195200D01*
X174000Y195600D01*
X173200Y195200D01*
X145200D02*
X145600Y196000D01*
X145200Y196800D01*
X146000Y196400D01*
X146800Y196800D01*
X146400Y196000D01*
X146800Y195200D01*
X146000Y195600D01*
X145200Y195200D01*
X105200D02*
X105600Y196000D01*
X105200Y196800D01*
X106000Y196400D01*
X106800Y196800D01*
X106400Y196000D01*
X106800Y195200D01*
X106000Y195600D01*
X105200Y195200D01*
X97200D02*
X97600Y196000D01*
X97200Y196800D01*
X98000Y196400D01*
X98800Y196800D01*
X98400Y196000D01*
X98800Y195200D01*
X98000Y195600D01*
X97200Y195200D01*
X89200D02*
X89600Y196000D01*
X89200Y196800D01*
X90000Y196400D01*
X90800Y196800D01*
X90400Y196000D01*
X90800Y195200D01*
X90000Y195600D01*
X89200Y195200D01*
X81200D02*
X81600Y196000D01*
X81200Y196800D01*
X82000Y196400D01*
X82800Y196800D01*
X82400Y196000D01*
X82800Y195200D01*
X82000Y195600D01*
X81200Y195200D01*
X73200D02*
X73600Y196000D01*
X73200Y196800D01*
X74000Y196400D01*
X74800Y196800D01*
X74400Y196000D01*
X74800Y195200D01*
X74000Y195600D01*
X73200Y195200D01*
X65200D02*
X65600Y196000D01*
X65200Y196800D01*
X66000Y196400D01*
X66800Y196800D01*
X66400Y196000D01*
X66800Y195200D01*
X66000Y195600D01*
X65200Y195200D01*
X57200D02*
X57600Y196000D01*
X57200Y196800D01*
X58000Y196400D01*
X58800Y196800D01*
X58400Y196000D01*
X58800Y195200D01*
X58000Y195600D01*
X57200Y195200D01*
X49200D02*
X49600Y196000D01*
X49200Y196800D01*
X50000Y196400D01*
X50800Y196800D01*
X50400Y196000D01*
X50800Y195200D01*
X50000Y195600D01*
X49200Y195200D01*
X41200D02*
X41600Y196000D01*
X41200Y196800D01*
X42000Y196400D01*
X42800Y196800D01*
X42400Y196000D01*
X42800Y195200D01*
X42000Y195600D01*
X41200Y195200D01*
X33200D02*
X33600Y196000D01*
X33200Y196800D01*
X34000Y196400D01*
X34800Y196800D01*
X34400Y196000D01*
X34800Y195200D01*
X34000Y195600D01*
X33200Y195200D01*
X25200D02*
X25600Y196000D01*
X25200Y196800D01*
X26000Y196400D01*
X26800Y196800D01*
X26400Y196000D01*
X26800Y195200D01*
X26000Y195600D01*
X25200Y195200D01*
X369200Y3200D02*
X369600Y4000D01*
X369200Y4800D01*
X370000Y4400D01*
X370800Y4800D01*
X370400Y4000D01*
X370800Y3200D01*
X370000Y3600D01*
X369200Y3200D01*
X361200D02*
X361600Y4000D01*
X361200Y4800D01*
X362000Y4400D01*
X362800Y4800D01*
X362400Y4000D01*
X362800Y3200D01*
X362000Y3600D01*
X361200Y3200D01*
X353200D02*
X353600Y4000D01*
X353200Y4800D01*
X354000Y4400D01*
X354800Y4800D01*
X354400Y4000D01*
X354800Y3200D01*
X354000Y3600D01*
X353200Y3200D01*
X345200D02*
X345600Y4000D01*
X345200Y4800D01*
X346000Y4400D01*
X346800Y4800D01*
X346400Y4000D01*
X346800Y3200D01*
X346000Y3600D01*
X345200Y3200D01*
X337200D02*
X337600Y4000D01*
X337200Y4800D01*
X338000Y4400D01*
X338800Y4800D01*
X338400Y4000D01*
X338800Y3200D01*
X338000Y3600D01*
X337200Y3200D01*
X329200D02*
X329600Y4000D01*
X329200Y4800D01*
X330000Y4400D01*
X330800Y4800D01*
X330400Y4000D01*
X330800Y3200D01*
X330000Y3600D01*
X329200Y3200D01*
X321200D02*
X321600Y4000D01*
X321200Y4800D01*
X322000Y4400D01*
X322800Y4800D01*
X322400Y4000D01*
X322800Y3200D01*
X322000Y3600D01*
X321200Y3200D01*
X313200D02*
X313600Y4000D01*
X313200Y4800D01*
X314000Y4400D01*
X314800Y4800D01*
X314400Y4000D01*
X314800Y3200D01*
X314000Y3600D01*
X313200Y3200D01*
X305200D02*
X305600Y4000D01*
X305200Y4800D01*
X306000Y4400D01*
X306800Y4800D01*
X306400Y4000D01*
X306800Y3200D01*
X306000Y3600D01*
X305200Y3200D01*
X297200D02*
X297600Y4000D01*
X297200Y4800D01*
X298000Y4400D01*
X298800Y4800D01*
X298400Y4000D01*
X298800Y3200D01*
X298000Y3600D01*
X297200Y3200D01*
X289200D02*
X289600Y4000D01*
X289200Y4800D01*
X290000Y4400D01*
X290800Y4800D01*
X290400Y4000D01*
X290800Y3200D01*
X290000Y3600D01*
X289200Y3200D01*
X281200D02*
X281600Y4000D01*
X281200Y4800D01*
X282000Y4400D01*
X282800Y4800D01*
X282400Y4000D01*
X282800Y3200D01*
X282000Y3600D01*
X281200Y3200D01*
X273200D02*
X273600Y4000D01*
X273200Y4800D01*
X274000Y4400D01*
X274800Y4800D01*
X274400Y4000D01*
X274800Y3200D01*
X274000Y3600D01*
X273200Y3200D01*
X265200D02*
X265600Y4000D01*
X265200Y4800D01*
X266000Y4400D01*
X266800Y4800D01*
X266400Y4000D01*
X266800Y3200D01*
X266000Y3600D01*
X265200Y3200D01*
X257200D02*
X257600Y4000D01*
X257200Y4800D01*
X258000Y4400D01*
X258800Y4800D01*
X258400Y4000D01*
X258800Y3200D01*
X258000Y3600D01*
X257200Y3200D01*
X249200D02*
X249600Y4000D01*
X249200Y4800D01*
X250000Y4400D01*
X250800Y4800D01*
X250400Y4000D01*
X250800Y3200D01*
X250000Y3600D01*
X249200Y3200D01*
X241200D02*
X241600Y4000D01*
X241200Y4800D01*
X242000Y4400D01*
X242800Y4800D01*
X242400Y4000D01*
X242800Y3200D01*
X242000Y3600D01*
X241200Y3200D01*
X233200D02*
X233600Y4000D01*
X233200Y4800D01*
X234000Y4400D01*
X234800Y4800D01*
X234400Y4000D01*
X234800Y3200D01*
X234000Y3600D01*
X233200Y3200D01*
X225200D02*
X225600Y4000D01*
X225200Y4800D01*
X226000Y4400D01*
X226800Y4800D01*
X226400Y4000D01*
X226800Y3200D01*
X226000Y3600D01*
X225200Y3200D01*
X217200D02*
X217600Y4000D01*
X217200Y4800D01*
X218000Y4400D01*
X218800Y4800D01*
X218400Y4000D01*
X218800Y3200D01*
X218000Y3600D01*
X217200Y3200D01*
X209200D02*
X209600Y4000D01*
X209200Y4800D01*
X210000Y4400D01*
X210800Y4800D01*
X210400Y4000D01*
X210800Y3200D01*
X210000Y3600D01*
X209200Y3200D01*
X201200D02*
X201600Y4000D01*
X201200Y4800D01*
X202000Y4400D01*
X202800Y4800D01*
X202400Y4000D01*
X202800Y3200D01*
X202000Y3600D01*
X201200Y3200D01*
X193200D02*
X193600Y4000D01*
X193200Y4800D01*
X194000Y4400D01*
X194800Y4800D01*
X194400Y4000D01*
X194800Y3200D01*
X194000Y3600D01*
X193200Y3200D01*
X185200D02*
X185600Y4000D01*
X185200Y4800D01*
X186000Y4400D01*
X186800Y4800D01*
X186400Y4000D01*
X186800Y3200D01*
X186000Y3600D01*
X185200Y3200D01*
X177200D02*
X177600Y4000D01*
X177200Y4800D01*
X178000Y4400D01*
X178800Y4800D01*
X178400Y4000D01*
X178800Y3200D01*
X178000Y3600D01*
X177200Y3200D01*
X169200D02*
X169600Y4000D01*
X169200Y4800D01*
X170000Y4400D01*
X170800Y4800D01*
X170400Y4000D01*
X170800Y3200D01*
X170000Y3600D01*
X169200Y3200D01*
X161200D02*
X161600Y4000D01*
X161200Y4800D01*
X162000Y4400D01*
X162800Y4800D01*
X162400Y4000D01*
X162800Y3200D01*
X162000Y3600D01*
X161200Y3200D01*
X153200D02*
X153600Y4000D01*
X153200Y4800D01*
X154000Y4400D01*
X154800Y4800D01*
X154400Y4000D01*
X154800Y3200D01*
X154000Y3600D01*
X153200Y3200D01*
X145200D02*
X145600Y4000D01*
X145200Y4800D01*
X146000Y4400D01*
X146800Y4800D01*
X146400Y4000D01*
X146800Y3200D01*
X146000Y3600D01*
X145200Y3200D01*
X137200D02*
X137600Y4000D01*
X137200Y4800D01*
X138000Y4400D01*
X138800Y4800D01*
X138400Y4000D01*
X138800Y3200D01*
X138000Y3600D01*
X137200Y3200D01*
X129200D02*
X129600Y4000D01*
X129200Y4800D01*
X130000Y4400D01*
X130800Y4800D01*
X130400Y4000D01*
X130800Y3200D01*
X130000Y3600D01*
X129200Y3200D01*
X121200D02*
X121600Y4000D01*
X121200Y4800D01*
X122000Y4400D01*
X122800Y4800D01*
X122400Y4000D01*
X122800Y3200D01*
X122000Y3600D01*
X121200Y3200D01*
X113200D02*
X113600Y4000D01*
X113200Y4800D01*
X114000Y4400D01*
X114800Y4800D01*
X114400Y4000D01*
X114800Y3200D01*
X114000Y3600D01*
X113200Y3200D01*
X105200D02*
X105600Y4000D01*
X105200Y4800D01*
X106000Y4400D01*
X106800Y4800D01*
X106400Y4000D01*
X106800Y3200D01*
X106000Y3600D01*
X105200Y3200D01*
X97200D02*
X97600Y4000D01*
X97200Y4800D01*
X98000Y4400D01*
X98800Y4800D01*
X98400Y4000D01*
X98800Y3200D01*
X98000Y3600D01*
X97200Y3200D01*
X89200D02*
X89600Y4000D01*
X89200Y4800D01*
X90000Y4400D01*
X90800Y4800D01*
X90400Y4000D01*
X90800Y3200D01*
X90000Y3600D01*
X89200Y3200D01*
X81200D02*
X81600Y4000D01*
X81200Y4800D01*
X82000Y4400D01*
X82800Y4800D01*
X82400Y4000D01*
X82800Y3200D01*
X82000Y3600D01*
X81200Y3200D01*
X73200D02*
X73600Y4000D01*
X73200Y4800D01*
X74000Y4400D01*
X74800Y4800D01*
X74400Y4000D01*
X74800Y3200D01*
X74000Y3600D01*
X73200Y3200D01*
X65200D02*
X65600Y4000D01*
X65200Y4800D01*
X66000Y4400D01*
X66800Y4800D01*
X66400Y4000D01*
X66800Y3200D01*
X66000Y3600D01*
X65200Y3200D01*
X57200D02*
X57600Y4000D01*
X57200Y4800D01*
X58000Y4400D01*
X58800Y4800D01*
X58400Y4000D01*
X58800Y3200D01*
X58000Y3600D01*
X57200Y3200D01*
X49200D02*
X49600Y4000D01*
X49200Y4800D01*
X50000Y4400D01*
X50800Y4800D01*
X50400Y4000D01*
X50800Y3200D01*
X50000Y3600D01*
X49200Y3200D01*
X41200D02*
X41600Y4000D01*
X41200Y4800D01*
X42000Y4400D01*
X42800Y4800D01*
X42400Y4000D01*
X42800Y3200D01*
X42000Y3600D01*
X41200Y3200D01*
X33200D02*
X33600Y4000D01*
X33200Y4800D01*
X34000Y4400D01*
X34800Y4800D01*
X34400Y4000D01*
X34800Y3200D01*
X34000Y3600D01*
X33200Y3200D01*
X25200D02*
X25600Y4000D01*
X25200Y4800D01*
X26000Y4400D01*
X26800Y4800D01*
X26400Y4000D01*
X26800Y3200D01*
X26000Y3600D01*
X25200Y3200D01*
X238700Y107149D02*
X239100Y107949D01*
X238700Y108749D01*
X239500Y108349D01*
X240300Y108749D01*
X239900Y107949D01*
X240300Y107149D01*
X239500Y107549D01*
X238700Y107149D01*
X132200Y193700D02*
X132600Y194500D01*
X132200Y195300D01*
X133000Y194900D01*
X133800Y195300D01*
X133400Y194500D01*
X133800Y193700D01*
X133000Y194100D01*
X132200Y193700D01*
X115200Y186700D02*
X115600Y187500D01*
X115200Y188300D01*
X116000Y187900D01*
X116800Y188300D01*
X116400Y187500D01*
X116800Y186700D01*
X116000Y187100D01*
X115200Y186700D01*
Y193700D02*
X115600Y194500D01*
X115200Y195300D01*
X116000Y194900D01*
X116800Y195300D01*
X116400Y194500D01*
X116800Y193700D01*
X116000Y194100D01*
X115200Y193700D01*
X25200Y40200D02*
X25600Y41000D01*
X25200Y41800D01*
X26000Y41400D01*
X26800Y41800D01*
X26400Y41000D01*
X26800Y40200D01*
X26000Y40600D01*
X25200Y40200D01*
X19200Y78700D02*
X19600Y79500D01*
X19200Y80300D01*
X20000Y79900D01*
X20800Y80300D01*
X20400Y79500D01*
X20800Y78700D01*
X20000Y79100D01*
X19200Y78700D01*
X25054Y47054D02*
X25454Y47854D01*
X25054Y48654D01*
X25854Y48254D01*
X26654Y48654D01*
X26254Y47854D01*
X26654Y47054D01*
X25854Y47454D01*
X25054Y47054D01*
X17350Y105700D02*
X17750Y106500D01*
X17350Y107300D01*
X18150Y106900D01*
X18950Y107300D01*
X18550Y106500D01*
X18950Y105700D01*
X18150Y106100D01*
X17350Y105700D01*
X26600Y54100D02*
Y53700D01*
X27400D01*
Y54100D01*
X27800D01*
Y54900D01*
X27400D01*
Y55300D01*
X26600D01*
Y54900D01*
X26200D01*
Y54100D01*
X26600D01*
X42850Y49700D02*
X43250D01*
X43650Y50100D01*
X44050Y49700D01*
X44450D01*
Y50100D01*
X44050Y50500D01*
X44450Y50900D01*
Y51300D01*
X44050D01*
X43650Y50900D01*
X43250Y51300D01*
X42850D01*
Y50900D01*
X43250Y50500D01*
X42850Y50100D01*
Y49700D01*
X220700Y52200D02*
X221100Y53000D01*
X220700Y53800D01*
X221500Y53400D01*
X222300Y53800D01*
X221900Y53000D01*
X222300Y52200D01*
X221500Y52600D01*
X220700Y52200D01*
X63329Y93230D02*
Y92830D01*
X64129D01*
Y93230D01*
X64529D01*
Y94029D01*
X64129D01*
Y94429D01*
X63329D01*
Y94029D01*
X62929D01*
Y93230D01*
X63329D01*
X276200Y52700D02*
X276600Y53500D01*
X276200Y54300D01*
X277000Y53900D01*
X277800Y54300D01*
X277400Y53500D01*
X277800Y52700D01*
X277000Y53100D01*
X276200Y52700D01*
X31850Y102200D02*
X32250Y103000D01*
X31850Y103800D01*
X32650Y103400D01*
X33450Y103800D01*
X33050Y103000D01*
X33450Y102200D01*
X32650Y102600D01*
X31850Y102200D01*
X203700Y142200D02*
X204100Y143000D01*
X203700Y143800D01*
X204500Y143400D01*
X205300Y143800D01*
X204900Y143000D01*
X205300Y142200D01*
X204500Y142600D01*
X203700Y142200D01*
X216700Y105200D02*
X217100Y106000D01*
X216700Y106800D01*
X217500Y106400D01*
X218300Y106800D01*
X217900Y106000D01*
X218300Y105200D01*
X217500Y105600D01*
X216700Y105200D01*
X214700Y101000D02*
X215500Y101800D01*
X216300Y101000D01*
X215500Y100200D01*
X214700Y101000D01*
X234700Y97700D02*
X235100Y98500D01*
X234700Y99300D01*
X235500Y98900D01*
X236300Y99300D01*
X235900Y98500D01*
X236300Y97700D01*
X235500Y98100D01*
X234700Y97700D01*
X199200Y97200D02*
X199600Y98000D01*
X199200Y98800D01*
X200000Y98400D01*
X200800Y98800D01*
X200400Y98000D01*
X200800Y97200D01*
X200000Y97600D01*
X199200Y97200D01*
X191700D02*
X192100Y98000D01*
X191700Y98800D01*
X192500Y98400D01*
X193300Y98800D01*
X192900Y98000D01*
X193300Y97200D01*
X192500Y97600D01*
X191700Y97200D01*
X199200Y104700D02*
X199600Y105500D01*
X199200Y106300D01*
X200000Y105900D01*
X200800Y106300D01*
X200400Y105500D01*
X200800Y104700D01*
X200000Y105100D01*
X199200Y104700D01*
X191700D02*
X192100Y105500D01*
X191700Y106300D01*
X192500Y105900D01*
X193300Y106300D01*
X192900Y105500D01*
X193300Y104700D01*
X192500Y105100D01*
X191700Y104700D01*
X218136Y102216D02*
X218936Y103016D01*
X219736Y102216D01*
X218936Y101416D01*
X218136Y102216D01*
X212200Y165700D02*
X212600Y166500D01*
X212200Y167300D01*
X213000Y166900D01*
X213800Y167300D01*
X213400Y166500D01*
X213800Y165700D01*
X213000Y166100D01*
X212200Y165700D01*
X186700Y110500D02*
X187500Y111300D01*
X188300Y110500D01*
X187500Y109700D01*
X186700Y110500D01*
X200200D02*
X201000Y111300D01*
X201800Y110500D01*
X201000Y109700D01*
X200200Y110500D01*
X204200D02*
X205000Y111300D01*
X205800Y110500D01*
X205000Y109700D01*
X204200Y110500D01*
X200200Y126700D02*
X200600Y127500D01*
X200200Y128300D01*
X201000Y127900D01*
X201800Y128300D01*
X201400Y127500D01*
X201800Y126700D01*
X201000Y127100D01*
X200200Y126700D01*
X213200Y145700D02*
X213600Y146500D01*
X213200Y147300D01*
X214000Y146900D01*
X214800Y147300D01*
X214400Y146500D01*
X214800Y145700D01*
X214000Y146100D01*
X213200Y145700D01*
X233700Y104700D02*
X234100Y105500D01*
X233700Y106300D01*
X234500Y105900D01*
X235300Y106300D01*
X234900Y105500D01*
X235300Y104700D01*
X234500Y105100D01*
X233700Y104700D01*
X193200Y128200D02*
X193600Y129000D01*
X193200Y129800D01*
X194000Y129400D01*
X194800Y129800D01*
X194400Y129000D01*
X194800Y128200D01*
X194000Y128600D01*
X193200Y128200D01*
X146200Y128700D02*
X146600Y129500D01*
X146200Y130300D01*
X147000Y129900D01*
X147800Y130300D01*
X147400Y129500D01*
X147800Y128700D01*
X147000Y129100D01*
X146200Y128700D01*
X175200Y89700D02*
X175600Y90500D01*
X175200Y91300D01*
X176000Y90900D01*
X176800Y91300D01*
X176400Y90500D01*
X176800Y89700D01*
X176000Y90100D01*
X175200Y89700D01*
X168200Y88200D02*
X168600Y89000D01*
X168200Y89800D01*
X169000Y89400D01*
X169800Y89800D01*
X169400Y89000D01*
X169800Y88200D01*
X169000Y88600D01*
X168200Y88200D01*
X144700D02*
X145100Y89000D01*
X144700Y89800D01*
X145500Y89400D01*
X146300Y89800D01*
X145900Y89000D01*
X146300Y88200D01*
X145500Y88600D01*
X144700Y88200D01*
X147200Y106700D02*
X147600Y107500D01*
X147200Y108300D01*
X148000Y107900D01*
X148800Y108300D01*
X148400Y107500D01*
X148800Y106700D01*
X148000Y107100D01*
X147200Y106700D01*
Y113700D02*
X147600Y114500D01*
X147200Y115300D01*
X148000Y114900D01*
X148800Y115300D01*
X148400Y114500D01*
X148800Y113700D01*
X148000Y114100D01*
X147200Y113700D01*
X164200D02*
X164600Y114500D01*
X164200Y115300D01*
X165000Y114900D01*
X165800Y115300D01*
X165400Y114500D01*
X165800Y113700D01*
X165000Y114100D01*
X164200Y113700D01*
X170700Y106700D02*
X171100Y107500D01*
X170700Y108300D01*
X171500Y107900D01*
X172300Y108300D01*
X171900Y107500D01*
X172300Y106700D01*
X171500Y107100D01*
X170700Y106700D01*
X204200Y105000D02*
X205000Y105800D01*
X205800Y105000D01*
X205000Y104200D01*
X204200Y105000D01*
Y101000D02*
X205000Y101800D01*
X205800Y101000D01*
X205000Y100200D01*
X204200Y101000D01*
Y97500D02*
X205000Y98300D01*
X205800Y97500D01*
X205000Y96700D01*
X204200Y97500D01*
X202700Y93000D02*
X203500Y93800D01*
X204300Y93000D01*
X203500Y92200D01*
X202700Y93000D01*
X176200Y132200D02*
X176600Y133000D01*
X176200Y133800D01*
X177000Y133400D01*
X177800Y133800D01*
X177400Y133000D01*
X177800Y132200D01*
X177000Y132600D01*
X176200Y132200D01*
Y125700D02*
X176600Y126500D01*
X176200Y127300D01*
X177000Y126900D01*
X177800Y127300D01*
X177400Y126500D01*
X177800Y125700D01*
X177000Y126100D01*
X176200Y125700D01*
X160200Y140700D02*
X160600Y141500D01*
X160200Y142300D01*
X161000Y141900D01*
X161800Y142300D01*
X161400Y141500D01*
X161800Y140700D01*
X161000Y141100D01*
X160200Y140700D01*
X187700Y143700D02*
X188100Y144500D01*
X187700Y145300D01*
X188500Y144900D01*
X189300Y145300D01*
X188900Y144500D01*
X189300Y143700D01*
X188500Y144100D01*
X187700Y143700D01*
X180700D02*
X181100Y144500D01*
X180700Y145300D01*
X181500Y144900D01*
X182300Y145300D01*
X181900Y144500D01*
X182300Y143700D01*
X181500Y144100D01*
X180700Y143700D01*
X152700Y140700D02*
X153100Y141500D01*
X152700Y142300D01*
X153500Y141900D01*
X154300Y142300D01*
X153900Y141500D01*
X154300Y140700D01*
X153500Y141100D01*
X152700Y140700D01*
X176200Y37700D02*
X176600Y38500D01*
X176200Y39300D01*
X177000Y38900D01*
X177800Y39300D01*
X177400Y38500D01*
X177800Y37700D01*
X177000Y38100D01*
X176200Y37700D01*
X193700Y37200D02*
X194100Y38000D01*
X193700Y38800D01*
X194500Y38400D01*
X195300Y38800D01*
X194900Y38000D01*
X195300Y37200D01*
X194500Y37600D01*
X193700Y37200D01*
X181200Y49200D02*
X181600Y50000D01*
X181200Y50800D01*
X182000Y50400D01*
X182800Y50800D01*
X182400Y50000D01*
X182800Y49200D01*
X182000Y49600D01*
X181200Y49200D01*
X188200D02*
X188600Y50000D01*
X188200Y50800D01*
X189000Y50400D01*
X189800Y50800D01*
X189400Y50000D01*
X189800Y49200D01*
X189000Y49600D01*
X188200Y49200D01*
X195200Y62700D02*
X195600Y63500D01*
X195200Y64300D01*
X196000Y63900D01*
X196800Y64300D01*
X196400Y63500D01*
X196800Y62700D01*
X196000Y63100D01*
X195200Y62700D01*
X188200D02*
X188600Y63500D01*
X188200Y64300D01*
X189000Y63900D01*
X189800Y64300D01*
X189400Y63500D01*
X189800Y62700D01*
X189000Y63100D01*
X188200Y62700D01*
X183700Y70700D02*
X184100Y71500D01*
X183700Y72300D01*
X184500Y71900D01*
X185300Y72300D01*
X184900Y71500D01*
X185300Y70700D01*
X184500Y71100D01*
X183700Y70700D01*
X194200Y78700D02*
X194600Y79500D01*
X194200Y80300D01*
X195000Y79900D01*
X195800Y80300D01*
X195400Y79500D01*
X195800Y78700D01*
X195000Y79100D01*
X194200Y78700D01*
X202200Y120700D02*
X202600Y121500D01*
X202200Y122300D01*
X203000Y121900D01*
X203800Y122300D01*
X203400Y121500D01*
X203800Y120700D01*
X203000Y121100D01*
X202200Y120700D01*
X28350Y86200D02*
X28750Y87000D01*
X28350Y87800D01*
X29150Y87400D01*
X29950Y87800D01*
X29550Y87000D01*
X29950Y86200D01*
X29150Y86600D01*
X28350Y86200D01*
X35350D02*
X35750Y87000D01*
X35350Y87800D01*
X36150Y87400D01*
X36950Y87800D01*
X36550Y87000D01*
X36950Y86200D01*
X36150Y86600D01*
X35350Y86200D01*
X42350D02*
X42750Y87000D01*
X42350Y87800D01*
X43150Y87400D01*
X43950Y87800D01*
X43550Y87000D01*
X43950Y86200D01*
X43150Y86600D01*
X42350Y86200D01*
X31850Y95200D02*
X32250Y96000D01*
X31850Y96800D01*
X32650Y96400D01*
X33450Y96800D01*
X33050Y96000D01*
X33450Y95200D01*
X32650Y95600D01*
X31850Y95200D01*
Y109200D02*
X32250Y110000D01*
X31850Y110800D01*
X32650Y110400D01*
X33450Y110800D01*
X33050Y110000D01*
X33450Y109200D01*
X32650Y109600D01*
X31850Y109200D01*
X9750Y82100D02*
Y81700D01*
X10550D01*
Y82100D01*
X10950D01*
Y82900D01*
X10550D01*
Y83300D01*
X9750D01*
Y82900D01*
X9350D01*
Y82100D01*
X9750D01*
X7250Y35600D02*
Y35200D01*
X8050D01*
Y35600D01*
X8450D01*
Y36400D01*
X8050D01*
Y36800D01*
X7250D01*
Y36400D01*
X6850D01*
Y35600D01*
X7250D01*
X14350Y38200D02*
X14750Y39000D01*
X14350Y39800D01*
X15150Y39400D01*
X15950Y39800D01*
X15550Y39000D01*
X15950Y38200D01*
X15150Y38600D01*
X14350Y38200D01*
X372700Y34200D02*
X373100Y35000D01*
X372700Y35800D01*
X373500Y35400D01*
X374300Y35800D01*
X373900Y35000D01*
X374300Y34200D01*
X373500Y34600D01*
X372700Y34200D01*
Y41200D02*
X373100Y42000D01*
X372700Y42800D01*
X373500Y42400D01*
X374300Y42800D01*
X373900Y42000D01*
X374300Y41200D01*
X373500Y41600D01*
X372700Y41200D01*
X245700Y53200D02*
X246100Y54000D01*
X245700Y54800D01*
X246500Y54400D01*
X247300Y54800D01*
X246900Y54000D01*
X247300Y53200D01*
X246500Y53600D01*
X245700Y53200D01*
X361200Y28700D02*
X361600Y29500D01*
X361200Y30300D01*
X362000Y29900D01*
X362800Y30300D01*
X362400Y29500D01*
X362800Y28700D01*
X362000Y29100D01*
X361200Y28700D01*
X24350Y105700D02*
X24750Y106500D01*
X24350Y107300D01*
X25150Y106900D01*
X25950Y107300D01*
X25550Y106500D01*
X25950Y105700D01*
X25150Y106100D01*
X24350Y105700D01*
X219200Y78200D02*
X219600Y79000D01*
X219200Y79800D01*
X220000Y79400D01*
X220800Y79800D01*
X220400Y79000D01*
X220800Y78200D01*
X220000Y78600D01*
X219200Y78200D01*
X231700Y66200D02*
X232100Y67000D01*
X231700Y67800D01*
X232500Y67400D01*
X233300Y67800D01*
X232900Y67000D01*
X233300Y66200D01*
X232500Y66600D01*
X231700Y66200D01*
X323200Y52700D02*
X323600Y53500D01*
X323200Y54300D01*
X324000Y53900D01*
X324800Y54300D01*
X324400Y53500D01*
X324800Y52700D01*
X324000Y53100D01*
X323200Y52700D01*
X340700D02*
X341100Y53500D01*
X340700Y54300D01*
X341500Y53900D01*
X342300Y54300D01*
X341900Y53500D01*
X342300Y52700D01*
X341500Y53100D01*
X340700Y52700D01*
X293700D02*
X294100Y53500D01*
X293700Y54300D01*
X294500Y53900D01*
X295300Y54300D01*
X294900Y53500D01*
X295300Y52700D01*
X294500Y53100D01*
X293700Y52700D01*
X264200Y90500D02*
X265000Y91300D01*
X265800Y90500D01*
X265000Y89700D01*
X264200Y90500D01*
X217200Y97700D02*
X217600Y98500D01*
X217200Y99300D01*
X218000Y98900D01*
X218800Y99300D01*
X218400Y98500D01*
X218800Y97700D01*
X218000Y98100D01*
X217200Y97700D01*
X255200Y90500D02*
X256000Y91300D01*
X256800Y90500D01*
X256000Y89700D01*
X255200Y90500D01*
X246200Y89700D02*
X246600Y90500D01*
X246200Y91300D01*
X247000Y90900D01*
X247800Y91300D01*
X247400Y90500D01*
X247800Y89700D01*
X247000Y90100D01*
X246200Y89700D01*
X237200D02*
X237600Y90500D01*
X237200Y91300D01*
X238000Y90900D01*
X238800Y91300D01*
X238400Y90500D01*
X238800Y89700D01*
X238000Y90100D01*
X237200Y89700D01*
X214700D02*
X215100Y90500D01*
X214700Y91300D01*
X215500Y90900D01*
X216300Y91300D01*
X215900Y90500D01*
X216300Y89700D01*
X215500Y90100D01*
X214700Y89700D01*
X246200Y58200D02*
X246600Y59000D01*
X246200Y59800D01*
X247000Y59400D01*
X247800Y59800D01*
X247400Y59000D01*
X247800Y58200D01*
X247000Y58600D01*
X246200Y58200D01*
X264200D02*
X264600Y59000D01*
X264200Y59800D01*
X265000Y59400D01*
X265800Y59800D01*
X265400Y59000D01*
X265800Y58200D01*
X265000Y58600D01*
X264200Y58200D01*
X255200D02*
X255600Y59000D01*
X255200Y59800D01*
X256000Y59400D01*
X256800Y59800D01*
X256400Y59000D01*
X256800Y58200D01*
X256000Y58600D01*
X255200Y58200D01*
X231200Y89700D02*
X231600Y90500D01*
X231200Y91300D01*
X232000Y90900D01*
X232800Y91300D01*
X232400Y90500D01*
X232800Y89700D01*
X232000Y90100D01*
X231200Y89700D01*
X230700Y82700D02*
X231100Y83500D01*
X230700Y84300D01*
X231500Y83900D01*
X232300Y84300D01*
X231900Y83500D01*
X232300Y82700D01*
X231500Y83100D01*
X230700Y82700D01*
X209700Y69700D02*
X210100Y70500D01*
X209700Y71300D01*
X210500Y70900D01*
X211300Y71300D01*
X210900Y70500D01*
X211300Y69700D01*
X210500Y70100D01*
X209700Y69700D01*
X170200Y76700D02*
X170600Y77500D01*
X170200Y78300D01*
X171000Y77900D01*
X171800Y78300D01*
X171400Y77500D01*
X171800Y76700D01*
X171000Y77100D01*
X170200Y76700D01*
X163700D02*
X164100Y77500D01*
X163700Y78300D01*
X164500Y77900D01*
X165300Y78300D01*
X164900Y77500D01*
X165300Y76700D01*
X164500Y77100D01*
X163700Y76700D01*
X156700D02*
X157100Y77500D01*
X156700Y78300D01*
X157500Y77900D01*
X158300Y78300D01*
X157900Y77500D01*
X158300Y76700D01*
X157500Y77100D01*
X156700Y76700D01*
X149700D02*
X150100Y77500D01*
X149700Y78300D01*
X150500Y77900D01*
X151300Y78300D01*
X150900Y77500D01*
X151300Y76700D01*
X150500Y77100D01*
X149700Y76700D01*
X226200Y78200D02*
X226600Y79000D01*
X226200Y79800D01*
X227000Y79400D01*
X227800Y79800D01*
X227400Y79000D01*
X227800Y78200D01*
X227000Y78600D01*
X226200Y78200D01*
X259200Y151700D02*
X259600Y152500D01*
X259200Y153300D01*
X260000Y152900D01*
X260800Y153300D01*
X260400Y152500D01*
X260800Y151700D01*
X260000Y152100D01*
X259200Y151700D01*
Y144700D02*
X259600Y145500D01*
X259200Y146300D01*
X260000Y145900D01*
X260800Y146300D01*
X260400Y145500D01*
X260800Y144700D01*
X260000Y145100D01*
X259200Y144700D01*
X276200D02*
X276600Y145500D01*
X276200Y146300D01*
X277000Y145900D01*
X277800Y146300D01*
X277400Y145500D01*
X277800Y144700D01*
X277000Y145100D01*
X276200Y144700D01*
Y151700D02*
X276600Y152500D01*
X276200Y153300D01*
X277000Y152900D01*
X277800Y153300D01*
X277400Y152500D01*
X277800Y151700D01*
X277000Y152100D01*
X276200Y151700D01*
D97*
X108300Y178000D02*
X107747Y178761D01*
X106853Y178470D01*
Y177530D01*
X107747Y177239D01*
X108300Y178000D01*
X118300Y168000D02*
X117747Y168761D01*
X116853Y168470D01*
Y167530D01*
X117747Y167239D01*
X118300Y168000D01*
X98300Y178000D02*
X97747Y178761D01*
X96853Y178470D01*
Y177530D01*
X97747Y177239D01*
X98300Y178000D01*
X118300D02*
X117747Y178761D01*
X116853Y178470D01*
Y177530D01*
X117747Y177239D01*
X118300Y178000D01*
X98300Y168000D02*
X97747Y168761D01*
X96853Y168470D01*
Y167530D01*
X97747Y167239D01*
X98300Y168000D01*
X108300D02*
X107747Y168761D01*
X106853Y168470D01*
Y167530D01*
X107747Y167239D01*
X108300Y168000D01*
X128300Y178000D02*
X127747Y178761D01*
X126853Y178470D01*
Y177530D01*
X127747Y177239D01*
X128300Y178000D01*
Y168000D02*
X127747Y168761D01*
X126853Y168470D01*
Y167530D01*
X127747Y167239D01*
X128300Y168000D01*
X177800Y178000D02*
X177247Y178761D01*
X176353Y178470D01*
Y177530D01*
X177247Y177239D01*
X177800Y178000D01*
X167800D02*
X167247Y178761D01*
X166353Y178470D01*
Y177530D01*
X167247Y177239D01*
X167800Y178000D01*
X157800D02*
X157247Y178761D01*
X156353Y178470D01*
Y177530D01*
X157247Y177239D01*
X157800Y178000D01*
X147800D02*
X147247Y178761D01*
X146353Y178470D01*
Y177530D01*
X147247Y177239D01*
X147800Y178000D01*
X288647Y142996D02*
X288094Y143757D01*
X287199Y143466D01*
Y142526D01*
X288094Y142235D01*
X288647Y142996D01*
Y132996D02*
X288094Y133757D01*
X287199Y133466D01*
Y132526D01*
X288094Y132235D01*
X288647Y132996D01*
Y122996D02*
X288094Y123757D01*
X287199Y123466D01*
Y122526D01*
X288094Y122235D01*
X288647Y122996D01*
Y152996D02*
X288094Y153757D01*
X287199Y153466D01*
Y152526D01*
X288094Y152235D01*
X288647Y152996D01*
X8950Y122500D02*
X8397Y123261D01*
X7503Y122970D01*
Y122030D01*
X8397Y121739D01*
X8950Y122500D01*
Y132500D02*
X8397Y133261D01*
X7503Y132970D01*
Y132030D01*
X8397Y131739D01*
X8950Y132500D01*
X83800Y16500D02*
X83247Y17261D01*
X82353Y16970D01*
Y16030D01*
X83247Y15739D01*
X83800Y16500D01*
Y26500D02*
X83247Y27261D01*
X82353Y26970D01*
Y26030D01*
X83247Y25739D01*
X83800Y26500D01*
X8950Y103500D02*
X8397Y104261D01*
X7503Y103970D01*
Y103030D01*
X8397Y102739D01*
X8950Y103500D01*
Y93500D02*
X8397Y94261D01*
X7503Y93970D01*
Y93030D01*
X8397Y92739D01*
X8950Y93500D01*
X389300Y51000D02*
X388747Y51761D01*
X387853Y51470D01*
Y50530D01*
X388747Y50239D01*
X389300Y51000D01*
X379300D02*
X378747Y51761D01*
X377853Y51470D01*
Y50530D01*
X378747Y50239D01*
X379300Y51000D01*
X369300D02*
X368747Y51761D01*
X367853Y51470D01*
Y50530D01*
X368747Y50239D01*
X369300Y51000D01*
X359300D02*
X358747Y51761D01*
X357853Y51470D01*
Y50530D01*
X358747Y50239D01*
X359300Y51000D01*
M02*
