G04*
G04 #@! TF.GenerationSoftware,Altium Limited,Altium Designer,21.3.2 (30)*
G04*
G04 Layer_Color=10053222*
%FSLAX25Y25*%
%MOIN*%
G70*
G04*
G04 #@! TF.SameCoordinates,41522B4C-5660-4B3E-BEA4-8D9A01AACCA4*
G04*
G04*
G04 #@! TF.FilePolarity,Positive*
G04*
G01*
G75*
%ADD14C,0.01000*%
D14*
X25000Y200000D02*
X23993Y199980D01*
X22988Y199919D01*
X21987Y199818D01*
X20990Y199676D01*
X19999Y199495D01*
X19017Y199274D01*
X18045Y199013D01*
X17083Y198713D01*
X16135Y198375D01*
X15201Y198000D01*
X14283Y197586D01*
X13382Y197136D01*
X12500Y196651D01*
X11638Y196130D01*
X10798Y195575D01*
X9981Y194986D01*
X9189Y194365D01*
X8422Y193713D01*
X7682Y193030D01*
X6970Y192318D01*
X6287Y191578D01*
X5635Y190811D01*
X5014Y190019D01*
X4425Y189202D01*
X3870Y188362D01*
X3349Y187500D01*
X2864Y186618D01*
X2414Y185717D01*
X2001Y184799D01*
X1625Y183865D01*
X1287Y182917D01*
X987Y181955D01*
X726Y180983D01*
X505Y180001D01*
X324Y179010D01*
X182Y178013D01*
X81Y177012D01*
X20Y176007D01*
X0Y175000D01*
X400000D02*
X399980Y176007D01*
X399919Y177012D01*
X399818Y178013D01*
X399676Y179010D01*
X399495Y180001D01*
X399273Y180983D01*
X399013Y181955D01*
X398713Y182917D01*
X398375Y183865D01*
X398000Y184799D01*
X397586Y185717D01*
X397136Y186618D01*
X396651Y187500D01*
X396130Y188362D01*
X395575Y189202D01*
X394986Y190019D01*
X394365Y190811D01*
X393713Y191578D01*
X393030Y192318D01*
X392318Y193030D01*
X391578Y193713D01*
X390811Y194365D01*
X390019Y194986D01*
X389202Y195575D01*
X388362Y196130D01*
X387500Y196651D01*
X386618Y197136D01*
X385717Y197586D01*
X384799Y198000D01*
X383865Y198375D01*
X382917Y198713D01*
X381955Y199013D01*
X380983Y199274D01*
X380001Y199495D01*
X379010Y199676D01*
X378013Y199818D01*
X377012Y199919D01*
X376007Y199980D01*
X375000Y200000D01*
Y0D02*
X376007Y20D01*
X377012Y81D01*
X378013Y182D01*
X379010Y324D01*
X380001Y505D01*
X380983Y726D01*
X381955Y987D01*
X382917Y1287D01*
X383865Y1625D01*
X384799Y2001D01*
X385717Y2414D01*
X386618Y2864D01*
X387500Y3349D01*
X388362Y3870D01*
X389201Y4425D01*
X390019Y5014D01*
X390811Y5635D01*
X391578Y6287D01*
X392318Y6970D01*
X393030Y7682D01*
X393713Y8422D01*
X394365Y9189D01*
X394986Y9981D01*
X395574Y10798D01*
X396130Y11638D01*
X396651Y12500D01*
X397136Y13382D01*
X397586Y14283D01*
X397999Y15201D01*
X398375Y16135D01*
X398713Y17083D01*
X399013Y18044D01*
X399273Y19017D01*
X399495Y19999D01*
X399676Y20989D01*
X399818Y21986D01*
X399919Y22988D01*
X399980Y23993D01*
X400000Y25000D01*
X0Y25000D02*
X20Y23993D01*
X81Y22988D01*
X182Y21987D01*
X324Y20990D01*
X505Y19999D01*
X727Y19017D01*
X987Y18045D01*
X1287Y17083D01*
X1625Y16135D01*
X2001Y15201D01*
X2414Y14283D01*
X2864Y13382D01*
X3349Y12500D01*
X3870Y11638D01*
X4425Y10798D01*
X5014Y9981D01*
X5635Y9189D01*
X6287Y8422D01*
X6970Y7682D01*
X7682Y6970D01*
X8422Y6287D01*
X9189Y5635D01*
X9981Y5014D01*
X10798Y4425D01*
X11638Y3870D01*
X12500Y3349D01*
X13382Y2864D01*
X14283Y2414D01*
X15201Y2001D01*
X16135Y1625D01*
X17083Y1287D01*
X18045Y987D01*
X19017Y726D01*
X19999Y505D01*
X20990Y324D01*
X21987Y182D01*
X22988Y81D01*
X23993Y20D01*
X25000Y0D01*
X25000Y200000D02*
X375000D01*
X25000Y0D02*
X375000D01*
X400000Y25000D02*
Y175000D01*
X-0D02*
X0Y25000D01*
M02*
