G04*
G04 #@! TF.GenerationSoftware,Altium Limited,Altium Designer,21.3.2 (30)*
G04*
G04 Layer_Color=16711935*
%FSLAX25Y25*%
%MOIN*%
G70*
G04*
G04 #@! TF.SameCoordinates,41522B4C-5660-4B3E-BEA4-8D9A01AACCA4*
G04*
G04*
G04 #@! TF.FilePolarity,Negative*
G04*
G01*
G75*
%ADD55C,0.07178*%
G04:AMPARAMS|DCode=56|XSize=71.78mil|YSize=71.78mil|CornerRadius=19.95mil|HoleSize=0mil|Usage=FLASHONLY|Rotation=180.000|XOffset=0mil|YOffset=0mil|HoleType=Round|Shape=RoundedRectangle|*
%AMROUNDEDRECTD56*
21,1,0.07178,0.03189,0,0,180.0*
21,1,0.03189,0.07178,0,0,180.0*
1,1,0.03989,-0.01595,0.01595*
1,1,0.03989,0.01595,0.01595*
1,1,0.03989,0.01595,-0.01595*
1,1,0.03989,-0.01595,-0.01595*
%
%ADD56ROUNDEDRECTD56*%
%ADD57C,0.12611*%
G04:AMPARAMS|DCode=58|XSize=71.78mil|YSize=71.78mil|CornerRadius=19.95mil|HoleSize=0mil|Usage=FLASHONLY|Rotation=270.000|XOffset=0mil|YOffset=0mil|HoleType=Round|Shape=RoundedRectangle|*
%AMROUNDEDRECTD58*
21,1,0.07178,0.03189,0,0,270.0*
21,1,0.03189,0.07178,0,0,270.0*
1,1,0.03989,-0.01595,-0.01595*
1,1,0.03989,-0.01595,0.01595*
1,1,0.03989,0.01595,0.01595*
1,1,0.03989,0.01595,-0.01595*
%
%ADD58ROUNDEDRECTD58*%
%ADD59C,0.06800*%
%ADD60C,0.03000*%
%ADD61C,0.03600*%
%ADD62C,0.03200*%
%ADD63C,0.02800*%
D55*
X67500Y178000D02*
D03*
X107500D02*
D03*
X117500Y168000D02*
D03*
X77500Y178000D02*
D03*
X87500D02*
D03*
X97500D02*
D03*
X117500D02*
D03*
X67500Y168000D02*
D03*
X77500D02*
D03*
X87500D02*
D03*
X97500D02*
D03*
X107500D02*
D03*
X127500D02*
D03*
X37500Y178000D02*
D03*
X47500D02*
D03*
X57500D02*
D03*
Y168000D02*
D03*
X47500D02*
D03*
X37500D02*
D03*
X167000Y178000D02*
D03*
X157000D02*
D03*
X147000D02*
D03*
X43500Y30000D02*
D03*
X69090D02*
D03*
X43500Y12284D02*
D03*
X69090D02*
D03*
X329000Y31000D02*
D03*
X354591D02*
D03*
X329000Y13284D02*
D03*
X354591D02*
D03*
X282000Y31000D02*
D03*
X307591D02*
D03*
X282000Y13284D02*
D03*
X307591D02*
D03*
X287846Y82996D02*
D03*
Y142996D02*
D03*
Y132996D02*
D03*
Y122996D02*
D03*
Y112996D02*
D03*
Y102996D02*
D03*
Y92996D02*
D03*
X8150Y122500D02*
D03*
X83000Y16500D02*
D03*
X8150Y103500D02*
D03*
X388500Y51000D02*
D03*
X378500D02*
D03*
X368500D02*
D03*
D56*
X127500Y178000D02*
D03*
X177000D02*
D03*
X358500Y51000D02*
D03*
D57*
X384500Y86500D02*
D03*
Y149492D02*
D03*
D58*
X287846Y152996D02*
D03*
X8150Y132500D02*
D03*
X83000Y26500D02*
D03*
X8150Y93500D02*
D03*
D59*
X20000Y180000D02*
D03*
X380000Y20000D02*
D03*
X20000D02*
D03*
X380000Y180000D02*
D03*
D60*
X272000Y141000D02*
D03*
X265000D02*
D03*
X153500Y194500D02*
D03*
Y187500D02*
D03*
X4000Y170000D02*
D03*
Y162000D02*
D03*
Y154000D02*
D03*
Y146000D02*
D03*
Y114500D02*
D03*
Y82000D02*
D03*
Y68000D02*
D03*
Y60000D02*
D03*
Y52000D02*
D03*
Y34000D02*
D03*
Y26000D02*
D03*
X396000Y162000D02*
D03*
Y146000D02*
D03*
Y50000D02*
D03*
Y130000D02*
D03*
Y114000D02*
D03*
Y42000D02*
D03*
Y98000D02*
D03*
Y90000D02*
D03*
Y34000D02*
D03*
Y26000D02*
D03*
Y82000D02*
D03*
Y74000D02*
D03*
Y66000D02*
D03*
Y58000D02*
D03*
Y106000D02*
D03*
Y122000D02*
D03*
Y138000D02*
D03*
Y154000D02*
D03*
Y170000D02*
D03*
X138000Y196000D02*
D03*
X374000D02*
D03*
X366000D02*
D03*
X358000D02*
D03*
X350000D02*
D03*
X342000D02*
D03*
X334000D02*
D03*
X326000D02*
D03*
X318000D02*
D03*
X310000D02*
D03*
X302000D02*
D03*
X294000D02*
D03*
X286000D02*
D03*
X278000D02*
D03*
X270000D02*
D03*
X262000D02*
D03*
X254000D02*
D03*
X246000D02*
D03*
X238000D02*
D03*
X230000D02*
D03*
X222000D02*
D03*
X214000D02*
D03*
X206000D02*
D03*
X198000D02*
D03*
X190000D02*
D03*
X182000D02*
D03*
X174000D02*
D03*
X146000D02*
D03*
X106000D02*
D03*
X98000D02*
D03*
X90000D02*
D03*
X82000D02*
D03*
X74000D02*
D03*
X66000D02*
D03*
X58000D02*
D03*
X50000D02*
D03*
X42000D02*
D03*
X34000D02*
D03*
X26000D02*
D03*
X370000Y4000D02*
D03*
X362000D02*
D03*
X354000D02*
D03*
X346000D02*
D03*
X338000D02*
D03*
X330000D02*
D03*
X322000D02*
D03*
X314000D02*
D03*
X306000D02*
D03*
X298000D02*
D03*
X290000D02*
D03*
X282000D02*
D03*
X274000D02*
D03*
X266000D02*
D03*
X258000D02*
D03*
X250000D02*
D03*
X242000D02*
D03*
X234000D02*
D03*
X226000D02*
D03*
X218000D02*
D03*
X210000D02*
D03*
X202000D02*
D03*
X194000D02*
D03*
X186000D02*
D03*
X178000D02*
D03*
X170000D02*
D03*
X162000D02*
D03*
X154000D02*
D03*
X146000D02*
D03*
X138000D02*
D03*
X130000D02*
D03*
X122000D02*
D03*
X114000D02*
D03*
X106000D02*
D03*
X98000D02*
D03*
X90000D02*
D03*
X82000D02*
D03*
X74000D02*
D03*
X66000D02*
D03*
X58000D02*
D03*
X50000D02*
D03*
X42000D02*
D03*
X34000D02*
D03*
X26000D02*
D03*
X239500Y107949D02*
D03*
X133000Y194500D02*
D03*
X116000Y187500D02*
D03*
Y194500D02*
D03*
X26000Y41000D02*
D03*
X20000Y79500D02*
D03*
X25854Y47854D02*
D03*
X18150Y106500D02*
D03*
X221500Y53000D02*
D03*
X277000Y53500D02*
D03*
X32650Y103000D02*
D03*
X204500Y143000D02*
D03*
X217500Y106000D02*
D03*
X235500Y98500D02*
D03*
X200000Y98000D02*
D03*
X192500D02*
D03*
X200000Y105500D02*
D03*
X192500D02*
D03*
X213000Y166500D02*
D03*
X201000Y127500D02*
D03*
X214000Y146500D02*
D03*
X234500Y105500D02*
D03*
X194000Y129000D02*
D03*
X147000Y129500D02*
D03*
X176000Y90500D02*
D03*
X169000Y89000D02*
D03*
X145500D02*
D03*
X148000Y107500D02*
D03*
Y114500D02*
D03*
X165000D02*
D03*
X171500Y107500D02*
D03*
X177000Y133000D02*
D03*
Y126500D02*
D03*
X161000Y141500D02*
D03*
X188500Y144500D02*
D03*
X181500D02*
D03*
X153500Y141500D02*
D03*
X177000Y38500D02*
D03*
X194500Y38000D02*
D03*
X182000Y50000D02*
D03*
X189000D02*
D03*
X196000Y63500D02*
D03*
X189000D02*
D03*
X184500Y71500D02*
D03*
X195000Y79500D02*
D03*
X203000Y121500D02*
D03*
X29150Y87000D02*
D03*
X36150D02*
D03*
X43150D02*
D03*
X32650Y96000D02*
D03*
Y110000D02*
D03*
X15150Y39000D02*
D03*
X373500Y35000D02*
D03*
Y42000D02*
D03*
X246500Y54000D02*
D03*
X362000Y29500D02*
D03*
X25150Y106500D02*
D03*
X220000Y79000D02*
D03*
X232500Y67000D02*
D03*
X324000Y53500D02*
D03*
X341500D02*
D03*
X294500D02*
D03*
X218000Y98500D02*
D03*
X247000Y90500D02*
D03*
X238000D02*
D03*
X215500D02*
D03*
X247000Y59000D02*
D03*
X265000D02*
D03*
X256000D02*
D03*
X232000Y90500D02*
D03*
X231500Y83500D02*
D03*
X210500Y70500D02*
D03*
X171000Y77500D02*
D03*
X164500D02*
D03*
X157500D02*
D03*
X150500D02*
D03*
X227000Y79000D02*
D03*
X260000Y152500D02*
D03*
Y145500D02*
D03*
X277000D02*
D03*
Y152500D02*
D03*
D61*
X27000Y54500D02*
D03*
X63729Y93629D02*
D03*
X10150Y82500D02*
D03*
X7650Y36000D02*
D03*
D62*
X43650Y50500D02*
D03*
D63*
X215500Y101000D02*
D03*
X218936Y102216D02*
D03*
X187500Y110500D02*
D03*
X201000D02*
D03*
X205000D02*
D03*
Y105000D02*
D03*
Y101000D02*
D03*
Y97500D02*
D03*
X203500Y93000D02*
D03*
X265000Y90500D02*
D03*
X256000D02*
D03*
M02*
