G04*
G04 #@! TF.GenerationSoftware,Altium Limited,Altium Designer,21.3.2 (30)*
G04*
G04 Layer_Color=37055*
%FSLAX25Y25*%
%MOIN*%
G70*
G04*
G04 #@! TF.SameCoordinates,41522B4C-5660-4B3E-BEA4-8D9A01AACCA4*
G04*
G04*
G04 #@! TF.FilePolarity,Positive*
G04*
G01*
G75*
%ADD15C,0.00500*%
%ADD16C,0.00600*%
%ADD95C,0.00197*%
D15*
X391389Y149492D02*
X391316Y150495D01*
X391097Y151477D01*
X390738Y152416D01*
X390245Y153293D01*
X389631Y154089D01*
X388907Y154787D01*
X388089Y155373D01*
X387194Y155832D01*
X386243Y156157D01*
X385254Y156340D01*
X384248Y156377D01*
X383249Y156267D01*
X382276Y156012D01*
X381350Y155619D01*
X380492Y155095D01*
X379718Y154452D01*
X379047Y153702D01*
X378492Y152864D01*
X378065Y151953D01*
X377776Y150990D01*
X377629Y149995D01*
Y148989D01*
X377776Y147994D01*
X378065Y147031D01*
X378492Y146121D01*
X379047Y145282D01*
X379718Y144533D01*
X380492Y143889D01*
X381350Y143365D01*
X382276Y142972D01*
X383249Y142718D01*
X384248Y142608D01*
X385254Y142644D01*
X386243Y142827D01*
X387194Y143152D01*
X388089Y143612D01*
X388907Y144197D01*
X389631Y144895D01*
X390245Y145691D01*
X390738Y146568D01*
X391097Y147507D01*
X391316Y148489D01*
X391389Y149492D01*
X391344Y86500D02*
X391271Y87497D01*
X391054Y88472D01*
X390697Y89405D01*
X390208Y90276D01*
X389597Y91067D01*
X388878Y91761D01*
X388066Y92342D01*
X387177Y92799D01*
X386231Y93122D01*
X385249Y93303D01*
X384250Y93340D01*
X383257Y93230D01*
X382290Y92978D01*
X381370Y92587D01*
X380518Y92066D01*
X379749Y91427D01*
X379083Y90683D01*
X378531Y89850D01*
X378107Y88945D01*
X377819Y87988D01*
X377674Y87000D01*
Y86000D01*
X377819Y85012D01*
X378107Y84055D01*
X378531Y83150D01*
X379083Y82317D01*
X379750Y81573D01*
X380518Y80934D01*
X381370Y80413D01*
X382290Y80022D01*
X383257Y79770D01*
X384250Y79660D01*
X385249Y79697D01*
X386231Y79878D01*
X387177Y80201D01*
X388066Y80658D01*
X388878Y81239D01*
X389598Y81933D01*
X390208Y82724D01*
X390697Y83595D01*
X391054Y84528D01*
X391271Y85504D01*
X391344Y86500D01*
X48650Y97500D02*
X50650Y99500D01*
X83150D02*
X85150Y97500D01*
X50650Y99500D02*
X83150D01*
Y69500D02*
X85150Y71500D01*
Y97500D01*
X48650Y72000D02*
Y97500D01*
Y72000D02*
X51150Y69500D01*
X83150D01*
X280596Y158571D02*
X295329D01*
X280596Y77746D02*
X295329D01*
Y158571D01*
X280596Y77746D02*
Y158571D01*
D16*
X181026Y113146D02*
Y116881D01*
X213490Y86715D02*
Y112640D01*
X207638Y86715D02*
X213490D01*
X207638Y84448D02*
Y86715D01*
X184638Y84448D02*
X207638D01*
X184638D02*
Y86695D01*
X181034D02*
X184638D01*
X181034D02*
Y90432D01*
X178760D02*
X181034D01*
X178760D02*
Y113146D01*
X181026D01*
Y116881D02*
X184760D01*
Y119164D01*
X207513D01*
Y116903D02*
Y119164D01*
Y116903D02*
X211234D01*
Y113150D02*
Y116903D01*
Y113150D02*
X213490D01*
Y112640D02*
Y113150D01*
X14818Y42959D02*
X17219D01*
X13519Y79559D02*
X15919Y77159D01*
X22219D01*
X23618Y75759D01*
Y69759D02*
Y75759D01*
Y69759D02*
X25218Y68159D01*
Y66859D02*
Y68159D01*
X24218Y65859D02*
X25218Y66859D01*
X24218Y54059D02*
Y65859D01*
X23518Y53359D02*
X24218Y54059D01*
X23518Y44159D02*
Y53359D01*
X22319Y42959D02*
X23518Y44159D01*
X17219Y42959D02*
X22319D01*
X12419Y40559D02*
X14818Y42959D01*
X6718Y40559D02*
X12419D01*
X4019Y43259D02*
X6718Y40559D01*
X1918Y43259D02*
X4019D01*
X1918D02*
Y76859D01*
X4019D01*
X6718Y79559D01*
X13519D01*
D95*
X233807Y33500D02*
Y57114D01*
X197193Y33500D02*
X233807D01*
X197193D02*
Y57114D01*
X233807D01*
M02*
