M48
;Layer_Color=9474304
;FILE_FORMAT=2:5
INCH,LZ
;TYPE=PLATED
T01F00S00C0.01181
T02F00S00C0.01200
T03F00S00C0.01500
T04F00S00C0.01575
T05F00S00C0.02000
T06F00S00C0.02756
T07F00S00C0.03937
T08F00S00C0.04000
T09F00S00C0.04016
T10F00S00C0.05118
T11F00S00C0.07087
T12F00S00C0.07089
T13F00S00C0.07283
%
T01
X0453721Y0068579
X045687Y0085115
Y0092989
X044752Y0086689
X0447126Y01048
X0430098Y0096138
X0472618Y0095351
X0474193Y0088648
X047498Y0085115
X0473076Y0077831
X04705Y0068
X0479705Y0064642
X0489153Y0076453
X0489941Y008039
X0516713Y0081965
X0517697Y0089482
X0511201Y0098697
X0512776Y0107162
X0534035
X0551226
X0552933Y0111099
X0560745Y0117336
X0567894Y0132359
X0527736Y0126059
X0515925Y0128934
X0480612Y0113341
X0478917Y0099052
X0512776Y0062418
X051878Y0063855
X0535118
X0542402
X055874
X0567106Y007789
X0578917Y0094563
T02
X02955Y00645
X03105Y01525
X0312931Y00525
X0317Y0043051
X0355Y00325
X0368Y0032
X0375Y0033
X03875Y00225
X03925Y002
X03975Y00175
X04025Y0015
X04075Y00125
X04125Y001
X04175Y00075
X04225Y0005
X0401Y01004
X05657Y00529
X05635Y00335
X03105Y0162
X02955Y01745
X0306Y0266
X0303Y02755
X02955Y02845
X03005Y0376
X02995Y03855
X02955Y03945
T03
X04325Y02095
X04425
X034Y0437
T04
X0438386Y0065242
X0461201Y0081571
Y0090233
X0465669Y0144731
X0469468Y0110311
X0469862Y0090233
Y0081571
X0483642Y00985
X0493038Y0108002
X0528524Y0131571
X0535069Y0149931
X0579Y0151
X0585Y0156
X0539556Y0075634
T05
X032Y00725
Y00775
Y00825
Y00875
X0325
X033
Y00825
Y00775
Y00725
X0325
Y00775
Y00825
Y01825
Y01875
Y01925
Y01975
X032
X0315
Y01925
Y01875
Y01825
X032
Y01875
Y01925
Y02925
X0315
Y02975
Y03025
Y03075
X032
X0325
Y03025
X032
Y02975
X0325
Y02925
Y04025
X032
Y04075
X0325
X033
Y04025
Y04125
X0325
X032
Y04175
X0325
X033
T06
X0423386Y008039
X0442697Y0109524
X0451728Y0127721
X0475728
X0547421Y0118185
X0554728Y0080721
T07
X0424Y0035
Y0045
T08
X0600325Y0103533
Y0115344
Y0127155
X0612136
Y0115344
Y0103533
T09
X0175Y011
X0185
X0195
X0205
X0384Y0045
Y0035
X0394
Y0045
X0404
X0414
Y0035
X0404
X0205Y022
X0195
X0185
X0175
Y033
X0185
X0195
X0205
Y044
X0195
X0185
X0175
T10
X0267429Y0008799
X0283177
Y0118799
X0267429
Y0228799
X0283177
Y0338799
X0267429
T11
X00561Y0241142
Y0257677
X0077754
Y0241142
T12
X00561Y0175
Y0191535
Y0208071
Y0224606
X0077754Y0224606
Y0208071
Y0191535
X0077754Y0175
T13
X0475Y0215039
X0492461
Y02325
Y0249961
X0475
X0522539
Y02325
Y0215039
X054
X0557461
Y02325
Y0249961
X054
X0457539
Y02325
Y0215039
X0402461Y0282539
Y03
X0385Y0282539
X0367539
Y03
Y0317461
X0385
X0402461
Y0347539
Y0365
Y0382461
X0385
X0367539
Y0365
Y0347539
X0385
M30
