G04*
G04 #@! TF.GenerationSoftware,Altium Limited,Altium Designer,24.9.1 (31)*
G04*
G04 Layer_Physical_Order=1*
G04 Layer_Color=255*
%FSLAX44Y44*%
%MOMM*%
G71*
G04*
G04 #@! TF.SameCoordinates,34C4A6F0-6EE0-490D-AD1B-27E8E2669A39*
G04*
G04*
G04 #@! TF.FilePolarity,Positive*
G04*
G01*
G75*
%ADD10C,0.5080*%
%ADD11C,0.2540*%
%ADD13C,0.2500*%
%ADD17C,0.2032*%
%ADD19C,0.2000*%
%ADD21C,0.3810*%
%ADD23R,0.8128X0.8128*%
G04:AMPARAMS|DCode=24|XSize=3.6mm|YSize=2.1mm|CornerRadius=0.525mm|HoleSize=0mm|Usage=FLASHONLY|Rotation=180.000|XOffset=0mm|YOffset=0mm|HoleType=Round|Shape=RoundedRectangle|*
%AMROUNDEDRECTD24*
21,1,3.6000,1.0500,0,0,180.0*
21,1,2.5500,2.1000,0,0,180.0*
1,1,1.0500,-1.2750,0.5250*
1,1,1.0500,1.2750,0.5250*
1,1,1.0500,1.2750,-0.5250*
1,1,1.0500,-1.2750,-0.5250*
%
%ADD24ROUNDEDRECTD24*%
%ADD25O,1.0000X2.0000*%
G04:AMPARAMS|DCode=26|XSize=8.5mm|YSize=5.2mm|CornerRadius=1.3mm|HoleSize=0mm|Usage=FLASHONLY|Rotation=180.000|XOffset=0mm|YOffset=0mm|HoleType=Round|Shape=RoundedRectangle|*
%AMROUNDEDRECTD26*
21,1,8.5000,2.6000,0,0,180.0*
21,1,5.9000,5.2000,0,0,180.0*
1,1,2.6000,-2.9500,1.3000*
1,1,2.6000,2.9500,1.3000*
1,1,2.6000,2.9500,-1.3000*
1,1,2.6000,-2.9500,-1.3000*
%
%ADD26ROUNDEDRECTD26*%
%ADD27R,1.1430X1.0160*%
%ADD28R,1.0160X1.1430*%
%ADD29R,0.7620X1.0160*%
G04:AMPARAMS|DCode=30|XSize=0.4mm|YSize=1.5mm|CornerRadius=0.1mm|HoleSize=0mm|Usage=FLASHONLY|Rotation=0.000|XOffset=0mm|YOffset=0mm|HoleType=Round|Shape=RoundedRectangle|*
%AMROUNDEDRECTD30*
21,1,0.4000,1.3000,0,0,0.0*
21,1,0.2000,1.5000,0,0,0.0*
1,1,0.2000,0.1000,-0.6500*
1,1,0.2000,-0.1000,-0.6500*
1,1,0.2000,-0.1000,0.6500*
1,1,0.2000,0.1000,0.6500*
%
%ADD30ROUNDEDRECTD30*%
G04:AMPARAMS|DCode=31|XSize=1.6mm|YSize=2.1mm|CornerRadius=0.4mm|HoleSize=0mm|Usage=FLASHONLY|Rotation=90.000|XOffset=0mm|YOffset=0mm|HoleType=Round|Shape=RoundedRectangle|*
%AMROUNDEDRECTD31*
21,1,1.6000,1.3000,0,0,90.0*
21,1,0.8000,2.1000,0,0,90.0*
1,1,0.8000,0.6500,0.4000*
1,1,0.8000,0.6500,-0.4000*
1,1,0.8000,-0.6500,-0.4000*
1,1,0.8000,-0.6500,0.4000*
%
%ADD31ROUNDEDRECTD31*%
G04:AMPARAMS|DCode=32|XSize=1.9mm|YSize=1.8mm|CornerRadius=0.45mm|HoleSize=0mm|Usage=FLASHONLY|Rotation=0.000|XOffset=0mm|YOffset=0mm|HoleType=Round|Shape=RoundedRectangle|*
%AMROUNDEDRECTD32*
21,1,1.9000,0.9000,0,0,0.0*
21,1,1.0000,1.8000,0,0,0.0*
1,1,0.9000,0.5000,-0.4500*
1,1,0.9000,-0.5000,-0.4500*
1,1,0.9000,-0.5000,0.4500*
1,1,0.9000,0.5000,0.4500*
%
%ADD32ROUNDEDRECTD32*%
%ADD33R,1.0160X0.7620*%
%ADD34R,2.0500X3.2500*%
%ADD35R,2.0500X1.0000*%
%ADD36R,0.5600X0.6000*%
%ADD37R,0.6000X0.5600*%
%ADD38O,0.6000X1.7000*%
%ADD39R,0.5500X0.7500*%
%ADD40C,0.7874*%
%ADD41R,0.7500X0.5500*%
%ADD42R,1.0500X0.6500*%
%ADD43R,3.2000X3.2000*%
%ADD44O,0.8750X0.2000*%
%ADD45O,0.2000X0.8750*%
G04:AMPARAMS|DCode=46|XSize=1.4mm|YSize=1.1mm|CornerRadius=0mm|HoleSize=0mm|Usage=FLASHONLY|Rotation=90.000|XOffset=0mm|YOffset=0mm|HoleType=Round|Shape=RoundedRectangle|*
%AMROUNDEDRECTD46*
21,1,1.4000,1.1000,0,0,90.0*
21,1,1.4000,1.1000,0,0,90.0*
1,1,0.0000,0.5500,0.7000*
1,1,0.0000,0.5500,-0.7000*
1,1,0.0000,-0.5500,-0.7000*
1,1,0.0000,-0.5500,0.7000*
%
%ADD46ROUNDEDRECTD46*%
%ADD47O,1.4500X0.6000*%
G04:AMPARAMS|DCode=48|XSize=1mm|YSize=1.6mm|CornerRadius=0mm|HoleSize=0mm|Usage=FLASHONLY|Rotation=270.000|XOffset=0mm|YOffset=0mm|HoleType=Round|Shape=RoundedRectangle|*
%AMROUNDEDRECTD48*
21,1,1.0000,1.6000,0,0,270.0*
21,1,1.0000,1.6000,0,0,270.0*
1,1,0.0000,-0.8000,-0.5000*
1,1,0.0000,-0.8000,0.5000*
1,1,0.0000,0.8000,0.5000*
1,1,0.0000,0.8000,-0.5000*
%
%ADD48ROUNDEDRECTD48*%
G04:AMPARAMS|DCode=49|XSize=0.8mm|YSize=0.55mm|CornerRadius=0mm|HoleSize=0mm|Usage=FLASHONLY|Rotation=0.000|XOffset=0mm|YOffset=0mm|HoleType=Round|Shape=RoundedRectangle|*
%AMROUNDEDRECTD49*
21,1,0.8000,0.5500,0,0,0.0*
21,1,0.8000,0.5500,0,0,0.0*
1,1,0.0000,0.4000,-0.2750*
1,1,0.0000,-0.4000,-0.2750*
1,1,0.0000,-0.4000,0.2750*
1,1,0.0000,0.4000,0.2750*
%
%ADD49ROUNDEDRECTD49*%
%ADD50R,1.0668X1.7272*%
%ADD51R,0.6096X1.2700*%
%ADD52R,0.6096X1.0160*%
%ADD53R,3.9116X3.8100*%
%ADD54R,4.7000X5.8000*%
G04:AMPARAMS|DCode=55|XSize=1.2mm|YSize=1.22mm|CornerRadius=0.3mm|HoleSize=0mm|Usage=FLASHONLY|Rotation=180.000|XOffset=0mm|YOffset=0mm|HoleType=Round|Shape=RoundedRectangle|*
%AMROUNDEDRECTD55*
21,1,1.2000,0.6200,0,0,180.0*
21,1,0.6000,1.2200,0,0,180.0*
1,1,0.6000,-0.3000,0.3100*
1,1,0.6000,0.3000,0.3100*
1,1,0.6000,0.3000,-0.3100*
1,1,0.6000,-0.3000,-0.3100*
%
%ADD55ROUNDEDRECTD55*%
%ADD56R,1.7272X1.0668*%
%ADD93C,1.7780*%
%ADD98C,3.0000*%
%ADD99C,0.8000*%
%ADD102C,1.7780*%
%ADD103C,0.3048*%
%ADD104C,0.7620*%
%ADD105C,1.5240*%
%ADD106C,0.4000*%
%ADD107C,0.3000*%
%ADD108C,4.4958*%
%ADD109C,3.2000*%
%ADD110C,1.6200*%
G04:AMPARAMS|DCode=111|XSize=1.62mm|YSize=1.62mm|CornerRadius=0.405mm|HoleSize=0mm|Usage=FLASHONLY|Rotation=180.000|XOffset=0mm|YOffset=0mm|HoleType=Round|Shape=RoundedRectangle|*
%AMROUNDEDRECTD111*
21,1,1.6200,0.8100,0,0,180.0*
21,1,0.8100,1.6200,0,0,180.0*
1,1,0.8100,-0.4050,0.4050*
1,1,0.8100,0.4050,0.4050*
1,1,0.8100,0.4050,-0.4050*
1,1,0.8100,-0.4050,-0.4050*
%
%ADD111ROUNDEDRECTD111*%
%ADD112O,2.0000X3.0000*%
%ADD113C,3.0480*%
%ADD114C,2.3368*%
%ADD115C,0.8636*%
%ADD116C,3.0000*%
%ADD117C,0.6350*%
%ADD118C,0.7000*%
%ADD119C,1.0160*%
%ADD120C,1.1500*%
%ADD121C,0.7620*%
G36*
X844550Y1016000D02*
X800100D01*
Y1066800D01*
X844550D01*
Y1016000D01*
D02*
G37*
G36*
X831850Y812800D02*
X774700D01*
X742950Y844550D01*
Y927100D01*
X831850D01*
Y812800D01*
D02*
G37*
G36*
Y736600D02*
X800100D01*
Y787400D01*
X831850D01*
Y736600D01*
D02*
G37*
G36*
X1052061Y723900D02*
X1052066Y723875D01*
X1052061Y723850D01*
X1052138Y720734D01*
X1052155Y720660D01*
X1052147Y720584D01*
X1052758Y714383D01*
X1052787Y714286D01*
Y714185D01*
X1054003Y708073D01*
X1054042Y707980D01*
X1054052Y707879D01*
X1054100Y707720D01*
Y698500D01*
Y692150D01*
X990600Y628650D01*
Y590894D01*
X990256Y590550D01*
X933450D01*
X914400Y609600D01*
Y698500D01*
Y1003300D01*
X1052061D01*
Y723900D01*
D02*
G37*
G36*
X831850Y533400D02*
X774700D01*
X742950Y565150D01*
Y647700D01*
X831850D01*
Y533400D01*
D02*
G37*
G36*
X1073150Y520700D02*
X1067770D01*
X1059077Y529393D01*
X1058002Y530111D01*
X1056733Y530364D01*
X1003300D01*
X1002032Y530111D01*
X1000957Y529393D01*
X992264Y520700D01*
X982948D01*
Y524605D01*
X972852D01*
Y524605D01*
X970248D01*
Y524605D01*
X960152D01*
Y524605D01*
X957548D01*
Y524605D01*
X947452D01*
Y524605D01*
X944848D01*
Y524605D01*
X934752D01*
X933450Y529146D01*
Y584200D01*
X986790Y584200D01*
X996950Y594360D01*
Y628650D01*
X1022350Y654050D01*
X1073150D01*
Y520700D01*
D02*
G37*
G36*
X831850Y457200D02*
X800100D01*
Y508000D01*
X831850D01*
Y457200D01*
D02*
G37*
G36*
X1494028Y288750D02*
X1480950D01*
Y292691D01*
X1466122D01*
X1466113Y292704D01*
X1422113Y336704D01*
X1421120Y337367D01*
X1419950Y337600D01*
X1419950Y337600D01*
X1417920D01*
X1417555Y338146D01*
X1415901Y339251D01*
X1413950Y339639D01*
X1405450D01*
X1403499Y339251D01*
X1401845Y338146D01*
X1400740Y336492D01*
X1400352Y334541D01*
X1400740Y332590D01*
X1401845Y330936D01*
X1403499Y329831D01*
X1405450Y329443D01*
X1413950D01*
X1415901Y329831D01*
X1417555Y330936D01*
X1417607Y331014D01*
X1419044Y331121D01*
X1460950Y289215D01*
Y279935D01*
X1447055D01*
X1443950Y283040D01*
Y292691D01*
X1437025D01*
Y301841D01*
X1437025Y301841D01*
X1436791Y303018D01*
X1436124Y304015D01*
X1436124Y304016D01*
X1418924Y321216D01*
X1419048Y321841D01*
X1418660Y323792D01*
X1417555Y325446D01*
X1415901Y326551D01*
X1413950Y326939D01*
X1405450D01*
X1403499Y326551D01*
X1401845Y325446D01*
X1400740Y323792D01*
X1400352Y321841D01*
X1400740Y319890D01*
X1401845Y318236D01*
X1403499Y317131D01*
X1405450Y316743D01*
X1413950D01*
X1414575Y316867D01*
X1427346Y304097D01*
X1426626Y303020D01*
X1425387Y303533D01*
X1423199D01*
X1421177Y302696D01*
X1419630Y301149D01*
X1418793Y299128D01*
Y296940D01*
X1418816Y296883D01*
X1417904Y295971D01*
X1416890Y296391D01*
Y296391D01*
X1407290D01*
Y288111D01*
X1406234Y287405D01*
X1405544Y287691D01*
X1403356D01*
X1401335Y286854D01*
X1399787Y285306D01*
X1398950Y283285D01*
Y281097D01*
X1399787Y279076D01*
X1399998Y278864D01*
X1399512Y277691D01*
X1399019D01*
X1396998Y276854D01*
X1395451Y275306D01*
X1394613Y273285D01*
Y271097D01*
X1395451Y269076D01*
X1396714Y267812D01*
X1396313Y266542D01*
X1393961D01*
X1390311Y265564D01*
X1387038Y263675D01*
X1384366Y261003D01*
X1382477Y257730D01*
X1381499Y254080D01*
Y252896D01*
X1381216Y252745D01*
X1381216D01*
X1380186Y250016D01*
Y241662D01*
X1381724Y240124D01*
X1384078D01*
X1384436Y239464D01*
X1384537Y238854D01*
X1378285Y232602D01*
X1377981Y232728D01*
X1375619D01*
X1373437Y231824D01*
X1371767Y230154D01*
X1371137Y228634D01*
X1369763D01*
X1369133Y230154D01*
X1367463Y231824D01*
X1365943Y232454D01*
Y233828D01*
X1367463Y234458D01*
X1369133Y236128D01*
X1370037Y238310D01*
Y240672D01*
X1369133Y242854D01*
X1368072Y243915D01*
X1368131Y244266D01*
X1369530Y245206D01*
X1371370D01*
X1373146Y245682D01*
X1374739Y246602D01*
X1376039Y247902D01*
X1376959Y249495D01*
X1377435Y251271D01*
Y253111D01*
X1376959Y254887D01*
X1376039Y256480D01*
X1374739Y257780D01*
X1373146Y258700D01*
X1371370Y259176D01*
X1369530D01*
X1367754Y258700D01*
X1366161Y257780D01*
X1364861Y256480D01*
X1364730Y256253D01*
X1363460Y256594D01*
Y258549D01*
X1363460Y258550D01*
X1363227Y259720D01*
X1362564Y260713D01*
X1357759Y265518D01*
X1358136Y266936D01*
X1359565Y267528D01*
X1361113Y269076D01*
X1361950Y271097D01*
Y273285D01*
X1361113Y275306D01*
X1359565Y276854D01*
X1359509Y276877D01*
Y278441D01*
X1361200D01*
Y289941D01*
X1351700D01*
Y278441D01*
X1353391D01*
Y276877D01*
X1353335Y276854D01*
X1351787Y275306D01*
X1351764Y275250D01*
X1329642D01*
X1328472Y275017D01*
X1327480Y274354D01*
X1327479Y274354D01*
X1305123Y251998D01*
X1303705Y252376D01*
X1303113Y253806D01*
X1301566Y255354D01*
X1299544Y256191D01*
X1297356D01*
X1295334Y255354D01*
X1293787Y253806D01*
X1292950Y251785D01*
Y251250D01*
X1260637D01*
X1259466Y251017D01*
X1258474Y250354D01*
X1251370Y243250D01*
X1224031D01*
X1223259Y244191D01*
X1223026Y245362D01*
X1222363Y246354D01*
X1221418Y246985D01*
X1221368Y247028D01*
X1221019Y248382D01*
X1221113Y248476D01*
X1221950Y250497D01*
Y252685D01*
X1221504Y253762D01*
X1222352Y255032D01*
X1251637D01*
X1251638Y255032D01*
X1252808Y255265D01*
X1253801Y255928D01*
X1267068Y269195D01*
X1267068Y269195D01*
X1267731Y270188D01*
X1267964Y271358D01*
Y272571D01*
X1284062Y288669D01*
X1285450Y288393D01*
X1293950D01*
X1295901Y288781D01*
X1297555Y289886D01*
X1298660Y291540D01*
X1299048Y293491D01*
X1298660Y295442D01*
X1297555Y297096D01*
X1295901Y298201D01*
X1293950Y298589D01*
X1291028D01*
X1290900Y299011D01*
X1290811Y300161D01*
X1291674Y301093D01*
X1293950D01*
X1295901Y301481D01*
X1297555Y302586D01*
X1298660Y304240D01*
X1299048Y306191D01*
X1298660Y308142D01*
X1297555Y309796D01*
X1295901Y310901D01*
X1293950Y311289D01*
X1289956D01*
X1289835Y312861D01*
X1290697Y313793D01*
X1293950D01*
X1295901Y314181D01*
X1297555Y315286D01*
X1298660Y316940D01*
X1299048Y318891D01*
X1298680Y320739D01*
X1298737Y320813D01*
X1300105Y321110D01*
X1304670Y316545D01*
X1304700Y316395D01*
Y310191D01*
X1316200D01*
Y319691D01*
X1310072D01*
X1309863Y320004D01*
X1309049Y320818D01*
X1309113Y321063D01*
X1309672Y321991D01*
X1311544D01*
X1313566Y322828D01*
X1315113Y324376D01*
X1315950Y326397D01*
Y328585D01*
X1315457Y329774D01*
X1315450Y331041D01*
X1315450Y331041D01*
X1315450Y331041D01*
Y340641D01*
X1305450D01*
Y331041D01*
X1305450Y331041D01*
X1305450D01*
X1305443Y329774D01*
X1304950Y328585D01*
Y326713D01*
X1304022Y326154D01*
X1303777Y326090D01*
X1298920Y330947D01*
X1299048Y331591D01*
X1298660Y333542D01*
X1297555Y335196D01*
X1295901Y336301D01*
X1293950Y336689D01*
X1288002D01*
X1287258Y346350D01*
X1288121Y347282D01*
X1324838D01*
X1327042Y345078D01*
X1327042Y345078D01*
X1328034Y344415D01*
X1329205Y344182D01*
X1329205Y344182D01*
X1346980D01*
X1347345Y343636D01*
X1348999Y342531D01*
X1350950Y342143D01*
X1359450D01*
X1361121Y342476D01*
X1362391Y341782D01*
Y340000D01*
X1361121Y339307D01*
X1359450Y339639D01*
X1350950D01*
X1348999Y339251D01*
X1347792Y338444D01*
X1346682D01*
X1345849Y339278D01*
X1343643Y340191D01*
X1341257D01*
X1339051Y339278D01*
X1338720Y338946D01*
X1337450Y339341D01*
Y339341D01*
X1327450D01*
Y329741D01*
Y321041D01*
X1331682D01*
X1334459Y318264D01*
X1334460Y318264D01*
X1335615Y317492D01*
X1335787Y317076D01*
X1337116Y315747D01*
Y306486D01*
X1337370Y305210D01*
X1338092Y304128D01*
X1343335Y298887D01*
X1344416Y298164D01*
X1345692Y297910D01*
X1363980D01*
X1365256Y298164D01*
X1366337Y298887D01*
X1374974Y307523D01*
X1375696Y308604D01*
X1375950Y309880D01*
Y355600D01*
X1494028D01*
Y288750D01*
D02*
G37*
G36*
X908050Y609600D02*
X927100Y590550D01*
Y539750D01*
X927100Y539750D01*
X927161Y538505D01*
X927647Y536063D01*
X928600Y533763D01*
X929983Y531693D01*
X931411Y530265D01*
Y529146D01*
X931466Y528867D01*
X931490Y528584D01*
X932792Y524043D01*
X932845Y523939D01*
X932868Y523825D01*
X933026Y523588D01*
X933156Y523336D01*
X933245Y523260D01*
X933310Y523163D01*
X933547Y523005D01*
X933763Y522822D01*
X933875Y522786D01*
X933972Y522721D01*
X934250Y522666D01*
X934521Y522579D01*
X934638Y522589D01*
X934752Y522566D01*
X944848D01*
X944848Y522566D01*
X947452D01*
X947452Y522566D01*
X957548D01*
X957548Y522566D01*
X960152D01*
X960152Y522566D01*
X970248D01*
X970248Y522566D01*
X972852D01*
X972852Y522566D01*
Y507905D01*
X982948D01*
Y512941D01*
X992505D01*
X993773Y513194D01*
X994848Y513912D01*
X1004673Y523736D01*
X1049052D01*
Y507905D01*
X1054462D01*
X1060450Y501917D01*
Y349250D01*
X1027428Y316228D01*
X1026255Y316714D01*
Y317722D01*
X1010825D01*
Y303562D01*
X1013103D01*
X1013589Y302389D01*
X946150Y234950D01*
X946150Y146050D01*
X908050Y107950D01*
Y107950D01*
X889000Y88900D01*
X838200D01*
Y175761D01*
X850900D01*
X851680Y175916D01*
X852342Y176358D01*
X852784Y177020D01*
X852939Y177800D01*
Y228600D01*
X852784Y229380D01*
X852342Y230042D01*
X851680Y230484D01*
X850900Y230639D01*
X838200D01*
Y850900D01*
X908050D01*
Y609600D01*
D02*
G37*
G36*
X1228275Y354427D02*
X1222787Y348939D01*
X1222124Y347947D01*
X1221891Y346776D01*
X1221891Y346776D01*
Y337591D01*
X1221891Y337591D01*
X1222124Y336421D01*
X1222787Y335428D01*
X1225980Y332235D01*
X1225852Y331591D01*
X1226240Y329640D01*
X1227345Y327986D01*
X1228999Y326881D01*
X1230950Y326493D01*
X1232480D01*
Y323989D01*
X1230950D01*
X1228999Y323601D01*
X1227345Y322496D01*
X1226240Y320842D01*
X1225852Y318891D01*
X1226240Y316940D01*
X1227345Y315286D01*
X1228999Y314181D01*
X1230950Y313793D01*
X1232480D01*
Y311289D01*
X1230950D01*
X1228999Y310901D01*
X1227345Y309796D01*
X1226240Y308142D01*
X1225929Y306578D01*
X1186287Y266936D01*
X1185624Y265944D01*
X1185391Y264773D01*
X1185391Y264773D01*
Y259772D01*
X1184450Y259000D01*
X1183279Y258767D01*
X1182450Y258213D01*
X1181620Y258767D01*
X1180450Y259000D01*
X1179279Y258767D01*
X1178450Y258213D01*
X1177621Y258767D01*
X1176450Y259000D01*
X1175279Y258767D01*
X1174450Y258213D01*
X1173621Y258767D01*
X1172450Y259000D01*
X1171280Y258767D01*
X1170450Y258213D01*
X1169621Y258767D01*
X1168450Y259000D01*
X1167509Y259772D01*
Y302910D01*
X1168972Y304373D01*
X1168972Y304373D01*
X1169635Y305366D01*
X1169868Y306536D01*
Y355600D01*
X1227789D01*
X1228275Y354427D01*
D02*
G37*
G36*
X831850Y254000D02*
X774700D01*
X742950Y285750D01*
Y368300D01*
X831850D01*
Y254000D01*
D02*
G37*
G36*
X1215262Y285768D02*
X1215792Y284784D01*
X1215274Y283640D01*
X1215159Y283617D01*
X1214167Y282954D01*
X1214167Y282954D01*
X1194287Y263074D01*
X1193624Y262082D01*
X1193391Y260912D01*
X1193391Y260911D01*
Y249191D01*
X1193624Y248020D01*
X1194287Y247028D01*
X1195279Y246365D01*
X1196450Y246132D01*
X1197620Y246365D01*
X1198450Y246919D01*
X1199279Y246365D01*
X1200450Y246132D01*
X1201621Y246365D01*
X1202450Y246919D01*
X1203279Y246365D01*
X1204450Y246132D01*
X1205621Y246365D01*
X1206450Y246919D01*
X1207280Y246365D01*
X1208450Y246132D01*
X1209621Y246365D01*
X1209885Y246542D01*
X1210801Y245627D01*
X1210624Y245362D01*
X1210391Y244191D01*
X1210624Y243020D01*
X1211178Y242191D01*
X1210624Y241362D01*
X1210391Y240191D01*
X1210624Y239021D01*
X1211178Y238191D01*
X1210624Y237362D01*
X1210391Y236191D01*
X1210624Y235021D01*
X1211178Y234191D01*
X1210624Y233362D01*
X1210391Y232191D01*
X1210624Y231021D01*
X1211178Y230191D01*
X1210624Y229362D01*
X1210434Y228408D01*
X1209711Y228150D01*
X1209180Y228117D01*
X1209113Y228280D01*
X1207566Y229827D01*
X1205544Y230665D01*
X1203356D01*
X1201720Y229987D01*
X1200450Y230602D01*
Y236191D01*
X1177870D01*
Y245444D01*
X1177870Y245444D01*
X1177913Y245751D01*
X1179279Y246365D01*
X1180450Y246132D01*
X1181620Y246365D01*
X1182450Y246919D01*
X1183279Y246365D01*
X1184450Y246132D01*
X1185620Y246365D01*
X1186450Y246919D01*
X1187280Y246365D01*
X1188450Y246132D01*
X1189621Y246365D01*
X1190613Y247028D01*
X1191276Y248020D01*
X1191509Y249191D01*
Y255941D01*
X1191509Y255941D01*
Y263506D01*
X1213984Y285982D01*
X1215262Y285768D01*
D02*
G37*
G36*
X1094950Y252441D02*
X1103180D01*
X1104450Y252441D01*
Y252441D01*
X1104450D01*
Y252441D01*
X1113950D01*
Y258199D01*
X1115123Y258685D01*
X1119750Y254058D01*
Y242802D01*
X1118480Y242083D01*
X1117642Y242250D01*
X1117642Y242250D01*
X1098974D01*
X1098002Y243054D01*
X1097950Y243476D01*
Y245285D01*
X1097113Y247306D01*
X1095565Y248854D01*
X1093544Y249691D01*
X1091356D01*
X1089334Y248854D01*
X1087787Y247306D01*
X1087739Y247191D01*
X1079300D01*
Y237191D01*
X1088900D01*
Y238113D01*
X1090450D01*
X1090450Y238113D01*
X1091012Y238224D01*
X1091637Y237054D01*
X1087797Y233214D01*
X1086149Y232886D01*
X1084495Y231781D01*
X1083390Y230127D01*
X1083002Y228176D01*
Y217176D01*
X1083390Y215226D01*
X1084495Y213572D01*
X1086149Y212467D01*
X1088100Y212079D01*
X1090051Y212467D01*
X1091705Y213572D01*
X1092810Y215226D01*
X1093198Y217176D01*
Y228176D01*
X1092902Y229667D01*
X1099367Y236132D01*
X1101756D01*
X1102242Y234959D01*
X1100498Y233214D01*
X1098849Y232886D01*
X1097195Y231781D01*
X1096090Y230127D01*
X1095702Y228176D01*
Y217176D01*
X1096090Y215226D01*
X1097195Y213572D01*
X1098849Y212467D01*
X1100800Y212079D01*
X1102751Y212467D01*
X1104405Y213572D01*
X1105510Y215226D01*
X1105898Y217176D01*
Y228176D01*
X1105602Y229667D01*
X1107481Y231546D01*
X1108155Y231464D01*
X1108790Y230129D01*
X1108786Y230107D01*
X1108402Y228176D01*
Y217176D01*
X1108790Y215226D01*
X1109895Y213572D01*
X1111549Y212467D01*
X1113500Y212079D01*
X1115451Y212467D01*
X1115689Y212626D01*
X1126124Y202191D01*
X1098637Y174704D01*
X1097974Y173712D01*
X1097741Y172541D01*
X1097741Y172541D01*
Y161146D01*
X1097195Y160781D01*
X1096090Y159127D01*
X1095702Y157177D01*
Y146177D01*
X1095818Y145595D01*
X1094647Y144970D01*
X1093198Y146419D01*
Y157177D01*
X1092810Y159127D01*
X1091705Y160781D01*
X1090051Y161886D01*
X1088100Y162274D01*
X1086149Y161886D01*
X1084495Y160781D01*
X1083390Y159127D01*
X1083002Y157177D01*
Y146177D01*
X1083118Y145595D01*
X1081947Y144970D01*
X1080498Y146419D01*
Y157177D01*
X1080110Y159127D01*
X1079005Y160781D01*
X1077351Y161886D01*
X1075400Y162274D01*
X1073449Y161886D01*
X1071795Y160781D01*
X1070690Y159127D01*
X1070302Y157177D01*
Y146177D01*
X1070690Y144226D01*
X1071795Y142572D01*
X1073449Y141467D01*
X1075400Y141079D01*
X1076890Y141375D01*
X1084252Y134014D01*
X1084252Y134014D01*
X1085244Y133351D01*
X1086414Y133118D01*
X1117642D01*
X1117642Y133118D01*
X1118813Y133351D01*
X1119805Y134014D01*
X1135863Y150071D01*
X1135863Y150071D01*
X1136526Y151064D01*
X1136759Y152234D01*
X1136759Y152234D01*
Y158441D01*
X1138450D01*
Y169941D01*
X1136759D01*
Y179924D01*
X1145967Y189132D01*
X1153107D01*
X1153107Y189132D01*
X1154277Y189365D01*
X1155270Y190028D01*
X1156028Y190787D01*
X1158082Y190744D01*
X1158455Y189466D01*
X1158287Y189354D01*
X1157624Y188362D01*
X1157391Y187191D01*
Y180441D01*
Y115570D01*
X1087060D01*
Y115630D01*
X1086372Y118198D01*
X1085042Y120501D01*
X1083161Y122382D01*
X1080858Y123712D01*
X1078290Y124400D01*
X1075630D01*
X1073062Y123712D01*
X1070759Y122382D01*
X1068878Y120501D01*
X1067548Y118198D01*
X1066860Y115630D01*
Y115570D01*
X1061660D01*
Y115630D01*
X1060972Y118198D01*
X1060450Y119102D01*
Y237793D01*
X1083903Y261245D01*
X1094950D01*
Y252441D01*
D02*
G37*
G36*
X1152049Y340265D02*
X1157391D01*
Y255941D01*
Y249191D01*
X1157624Y248020D01*
X1158287Y247028D01*
X1159279Y246365D01*
X1160450Y246132D01*
X1161620Y246365D01*
X1162450Y246919D01*
X1163279Y246365D01*
X1163572Y246307D01*
X1163990Y244929D01*
X1160753Y241691D01*
X1159356D01*
X1157335Y240854D01*
X1155787Y239307D01*
X1155764Y239250D01*
X1144700D01*
X1143530Y239017D01*
X1142537Y238354D01*
X1141874Y237362D01*
X1141641Y236191D01*
X1140869Y235250D01*
X1137810D01*
X1129867Y243193D01*
Y249741D01*
X1139450D01*
Y259341D01*
X1138528D01*
Y261409D01*
X1138816Y261528D01*
X1140363Y263076D01*
X1140799Y264129D01*
X1141300Y265191D01*
X1150900D01*
Y275191D01*
X1141300D01*
Y274327D01*
X1139758D01*
X1139757Y274327D01*
X1138197Y274016D01*
X1136873Y273132D01*
X1136873Y273132D01*
X1135432Y271691D01*
X1134606D01*
X1132585Y270854D01*
X1131037Y269307D01*
X1130200Y267285D01*
Y265097D01*
X1130446Y264503D01*
X1130372Y264129D01*
X1130372Y264129D01*
Y260182D01*
X1130145Y259975D01*
X1129102Y259475D01*
X1128354Y259762D01*
X1117379Y270737D01*
X1116387Y271400D01*
X1115216Y271633D01*
X1115216Y271633D01*
X1113950D01*
Y280708D01*
X1105720D01*
X1104450Y280708D01*
Y280708D01*
X1104450D01*
Y280708D01*
X1094950D01*
Y271903D01*
X1080755D01*
X1080755Y271903D01*
X1079584Y271670D01*
X1078592Y271007D01*
X1078592Y271007D01*
X1061623Y254038D01*
X1060450Y254524D01*
Y312814D01*
X1103236Y355600D01*
X1152049D01*
Y340265D01*
D02*
G37*
G36*
X1494028Y115570D02*
X1442180D01*
Y126460D01*
X1439704D01*
Y129935D01*
X1439809Y129979D01*
X1441265Y131435D01*
X1442053Y133337D01*
Y135395D01*
X1441265Y137297D01*
X1439809Y138753D01*
X1437907Y139541D01*
X1435849D01*
X1433947Y138753D01*
X1432491Y137297D01*
X1431703Y135395D01*
Y133337D01*
X1432491Y131435D01*
X1433036Y130890D01*
Y126460D01*
X1430560D01*
Y115570D01*
X1191509D01*
Y183816D01*
Y187191D01*
X1191276Y188362D01*
X1190613Y189354D01*
X1189621Y190017D01*
X1188450Y190250D01*
X1187280Y190017D01*
X1186450Y189463D01*
X1185620Y190017D01*
X1184450Y190250D01*
X1183279Y190017D01*
X1182450Y189463D01*
X1181620Y190017D01*
X1180450Y190250D01*
X1179279Y190017D01*
X1178873Y189745D01*
X1177870Y190603D01*
X1177870Y191591D01*
Y194632D01*
X1190570D01*
Y193405D01*
X1198120D01*
X1198497Y193028D01*
X1200518Y192191D01*
X1202706D01*
X1204728Y193028D01*
X1205105Y193405D01*
X1209338D01*
X1210391Y192191D01*
X1210624Y191021D01*
X1210801Y190756D01*
X1209885Y189840D01*
X1209621Y190017D01*
X1208450Y190250D01*
X1207280Y190017D01*
X1206450Y189463D01*
X1205621Y190017D01*
X1204450Y190250D01*
X1203279Y190017D01*
X1202450Y189463D01*
X1201621Y190017D01*
X1200450Y190250D01*
X1199279Y190017D01*
X1198450Y189463D01*
X1197620Y190017D01*
X1196450Y190250D01*
X1195279Y190017D01*
X1194287Y189354D01*
X1193624Y188362D01*
X1193391Y187191D01*
Y180441D01*
X1193624Y179270D01*
X1194287Y178278D01*
X1195279Y177615D01*
X1196450Y177382D01*
X1197620Y177615D01*
X1198450Y178169D01*
X1199279Y177615D01*
X1200450Y177382D01*
X1201621Y177615D01*
X1202450Y178169D01*
X1203279Y177615D01*
X1204450Y177382D01*
X1205621Y177615D01*
X1206450Y178169D01*
X1207280Y177615D01*
X1208450Y177382D01*
X1209621Y177615D01*
X1210613Y178278D01*
X1211276Y179270D01*
X1211509Y180441D01*
Y187191D01*
X1211276Y188362D01*
X1211099Y188626D01*
X1212015Y189542D01*
X1212280Y189365D01*
X1213450Y189132D01*
X1220200D01*
X1221370Y189365D01*
X1221621Y189533D01*
X1222891Y188854D01*
Y152941D01*
X1222891Y152941D01*
X1223124Y151770D01*
X1223787Y150778D01*
X1230950Y143615D01*
Y136441D01*
X1239180D01*
X1240450Y136441D01*
Y136441D01*
X1240450D01*
Y136441D01*
X1249950D01*
Y139132D01*
X1253700D01*
X1253700Y139132D01*
X1254871Y139365D01*
X1255863Y140028D01*
X1260776Y144941D01*
X1268450D01*
Y153941D01*
Y161319D01*
X1269720Y161845D01*
X1272450Y159115D01*
Y153941D01*
X1284450D01*
Y163441D01*
X1276776D01*
X1273046Y167171D01*
X1273572Y168441D01*
X1274450D01*
X1275720Y168441D01*
X1283950D01*
Y171132D01*
X1310450D01*
Y168941D01*
X1316558D01*
X1316606Y167691D01*
X1314585Y166854D01*
X1313037Y165306D01*
X1312200Y163285D01*
Y161097D01*
X1312981Y159211D01*
X1312513Y157941D01*
X1310450D01*
Y147441D01*
X1324950D01*
Y157941D01*
X1322888D01*
X1322419Y159211D01*
X1323200Y161097D01*
Y163285D01*
X1322363Y165306D01*
X1320815Y166854D01*
X1318794Y167691D01*
X1318842Y168941D01*
X1324950D01*
Y179441D01*
X1310450D01*
Y177250D01*
X1283950D01*
Y179941D01*
X1275720D01*
X1274450Y179941D01*
X1273180Y179941D01*
X1264950D01*
Y177250D01*
X1259041D01*
X1255564Y180727D01*
X1256046Y181901D01*
X1304469Y182172D01*
X1307304Y185007D01*
X1307394Y185097D01*
Y186277D01*
X1308348Y187041D01*
X1309450D01*
Y195741D01*
Y200992D01*
X1311210Y202752D01*
X1311356Y202691D01*
X1313544D01*
X1315565Y203528D01*
X1317113Y205075D01*
X1317950Y207097D01*
Y209285D01*
X1317113Y211306D01*
X1315565Y212854D01*
X1313544Y213691D01*
X1311356D01*
X1311210Y213630D01*
X1309450Y215390D01*
Y223211D01*
X1310720Y223737D01*
X1311835Y222622D01*
X1312690Y222268D01*
Y220892D01*
X1312690Y220892D01*
X1312923Y219721D01*
X1313586Y218729D01*
X1329388Y202927D01*
X1330381Y202264D01*
X1331551Y202031D01*
X1351409D01*
X1351409Y202031D01*
X1352035Y202156D01*
X1353158Y201432D01*
X1353305Y201222D01*
Y200471D01*
X1353781Y198695D01*
X1354701Y197102D01*
X1356001Y195802D01*
X1357594Y194882D01*
X1359370Y194406D01*
X1361210D01*
X1362986Y194882D01*
X1363992Y195463D01*
X1365000Y194578D01*
X1364472Y193303D01*
Y190916D01*
X1365385Y188710D01*
X1367073Y187022D01*
X1369278Y186109D01*
X1371665D01*
X1373871Y187022D01*
X1375558Y188710D01*
X1376472Y190916D01*
Y193303D01*
X1375957Y194545D01*
X1376965Y195430D01*
X1377914Y194882D01*
X1379690Y194406D01*
X1381530D01*
X1383306Y194882D01*
X1384899Y195802D01*
X1386199Y197102D01*
X1387119Y198695D01*
X1387595Y200471D01*
Y202311D01*
X1387119Y204087D01*
X1386199Y205680D01*
X1384899Y206980D01*
X1383306Y207900D01*
X1381530Y208376D01*
X1381277D01*
X1380751Y209646D01*
X1381833Y210728D01*
X1382496Y212329D01*
X1383909Y212421D01*
X1384366Y211629D01*
X1387038Y208957D01*
X1390311Y207068D01*
X1393961Y206090D01*
X1397739D01*
X1401389Y207068D01*
X1404662Y208957D01*
X1407334Y211629D01*
X1409223Y214902D01*
X1410201Y218552D01*
Y222330D01*
X1410034Y222954D01*
X1411134Y223589D01*
X1419391Y215332D01*
Y209691D01*
X1416700D01*
Y201461D01*
X1416700Y200191D01*
X1416700Y198921D01*
Y190691D01*
X1419391D01*
Y179441D01*
X1411950D01*
Y168941D01*
X1418058D01*
X1418106Y167691D01*
X1416084Y166854D01*
X1414537Y165306D01*
X1413700Y163285D01*
Y161097D01*
X1414481Y159211D01*
X1414012Y157941D01*
X1411950D01*
Y147441D01*
X1426450D01*
Y157941D01*
X1424388D01*
X1423919Y159211D01*
X1424700Y161097D01*
Y163285D01*
X1423863Y165306D01*
X1422316Y166854D01*
X1420294Y167691D01*
X1420342Y168941D01*
X1426450D01*
Y179441D01*
X1425509D01*
Y190691D01*
X1428200D01*
Y198921D01*
X1428200Y200191D01*
X1428200Y201461D01*
Y209691D01*
X1425509D01*
Y216599D01*
X1425276Y217769D01*
X1424613Y218762D01*
X1424613Y218762D01*
X1406534Y236840D01*
X1413364Y243670D01*
X1414027Y244662D01*
X1414260Y245833D01*
X1414260Y245833D01*
Y261259D01*
X1414688Y261581D01*
X1415475Y261840D01*
X1423950Y253365D01*
Y243691D01*
X1441891D01*
Y235691D01*
X1438700D01*
Y227461D01*
X1438700Y226191D01*
X1438700Y224921D01*
Y216691D01*
X1441391D01*
Y214341D01*
X1441391Y214341D01*
X1441624Y213171D01*
X1442287Y212178D01*
X1447450Y207015D01*
Y200900D01*
X1445136D01*
X1445113Y200956D01*
X1443566Y202504D01*
X1441544Y203341D01*
X1439356D01*
X1437334Y202504D01*
X1435787Y200956D01*
X1434950Y198935D01*
Y196747D01*
X1435787Y194725D01*
X1437334Y193178D01*
X1439356Y192341D01*
X1441544D01*
X1443566Y193178D01*
X1445113Y194725D01*
X1445136Y194782D01*
X1447450D01*
Y193041D01*
X1457450D01*
Y201741D01*
Y207015D01*
X1462613Y212178D01*
X1462613Y212178D01*
X1463276Y213171D01*
X1463509Y214341D01*
X1463509Y214341D01*
Y216691D01*
X1466200D01*
Y224921D01*
X1466200Y226191D01*
X1466200Y227461D01*
Y234867D01*
X1466839Y235239D01*
X1467470Y235472D01*
X1469356Y234691D01*
X1471544D01*
X1473566Y235528D01*
X1475113Y237076D01*
X1475950Y239097D01*
Y241285D01*
X1475479Y242421D01*
X1476328Y243691D01*
X1480950D01*
Y257691D01*
X1463098D01*
X1463046Y258961D01*
X1465276Y261191D01*
X1480950D01*
Y273785D01*
X1494028D01*
Y115570D01*
D02*
G37*
G36*
X850900Y177800D02*
X800100D01*
Y228600D01*
X850900D01*
Y177800D01*
D02*
G37*
G36*
X838200Y82550D02*
X863600D01*
Y44450D01*
X857250Y38100D01*
X742950D01*
Y88900D01*
X831850D01*
X838200Y82550D01*
D02*
G37*
%LPC*%
G36*
X980169Y950140D02*
X975631D01*
X971180Y949255D01*
X966986Y947518D01*
X963213Y944996D01*
X960004Y941787D01*
X957482Y938014D01*
X955745Y933820D01*
X954860Y929369D01*
Y924831D01*
X955745Y920379D01*
X957482Y916187D01*
X960004Y912413D01*
X963213Y909204D01*
X966986Y906682D01*
X971180Y904945D01*
X975631Y904060D01*
X980169D01*
X984621Y904945D01*
X988813Y906682D01*
X992587Y909204D01*
X995796Y912413D01*
X998318Y916187D01*
X1000055Y920379D01*
X1000940Y924831D01*
Y929369D01*
X1000055Y933820D01*
X998318Y938014D01*
X995796Y941787D01*
X992587Y944996D01*
X988813Y947518D01*
X984621Y949255D01*
X980169Y950140D01*
D02*
G37*
G36*
Y785040D02*
X975631D01*
X971180Y784155D01*
X966986Y782418D01*
X963213Y779896D01*
X960004Y776687D01*
X957482Y772914D01*
X955745Y768720D01*
X954860Y764269D01*
Y759731D01*
X955745Y755279D01*
X957482Y751087D01*
X960004Y747313D01*
X963213Y744104D01*
X966986Y741582D01*
X971180Y739845D01*
X975631Y738960D01*
X980169D01*
X984621Y739845D01*
X988813Y741582D01*
X992587Y744104D01*
X995796Y747313D01*
X998318Y751087D01*
X1000055Y755279D01*
X1000940Y759731D01*
Y764269D01*
X1000055Y768720D01*
X998318Y772914D01*
X995796Y776687D01*
X992587Y779896D01*
X988813Y782418D01*
X984621Y784155D01*
X980169Y785040D01*
D02*
G37*
G36*
X1434450Y352991D02*
X1433180Y352991D01*
X1424950D01*
Y350300D01*
X1417920D01*
X1417555Y350846D01*
X1415901Y351951D01*
X1413950Y352339D01*
X1405450D01*
X1403499Y351951D01*
X1401845Y350846D01*
X1400740Y349192D01*
X1400352Y347241D01*
X1400740Y345290D01*
X1401845Y343636D01*
X1403499Y342531D01*
X1405450Y342143D01*
X1413950D01*
X1415901Y342531D01*
X1417555Y343636D01*
X1417920Y344182D01*
X1424950D01*
Y341491D01*
X1433180D01*
X1434450Y341491D01*
X1435398D01*
X1436141Y340491D01*
X1436374Y339320D01*
X1437037Y338328D01*
X1437281Y338084D01*
X1436950Y337285D01*
Y335097D01*
X1437787Y333076D01*
X1439335Y331528D01*
X1441356Y330691D01*
X1443544D01*
X1445565Y331528D01*
X1447113Y333076D01*
X1447950Y335097D01*
Y337285D01*
X1447113Y339306D01*
X1445565Y340854D01*
X1443950Y341523D01*
Y352991D01*
X1434450Y352991D01*
D02*
G37*
G36*
X1293950Y285889D02*
X1285450D01*
X1283499Y285501D01*
X1281845Y284396D01*
X1280740Y282742D01*
X1280352Y280791D01*
X1280740Y278840D01*
X1281845Y277186D01*
X1283499Y276081D01*
X1285450Y275693D01*
X1293950D01*
X1295901Y276081D01*
X1297331Y277036D01*
X1297685Y277000D01*
X1298148Y275695D01*
X1298143Y275662D01*
X1297787Y275306D01*
X1297061Y273553D01*
X1296300Y273060D01*
X1295680Y272845D01*
X1293950Y273189D01*
X1285450D01*
X1283499Y272801D01*
X1281845Y271696D01*
X1280740Y270042D01*
X1280352Y268091D01*
X1280740Y266140D01*
X1281845Y264486D01*
X1283499Y263381D01*
X1285450Y262993D01*
X1293950D01*
X1295901Y263381D01*
X1297555Y264486D01*
X1298660Y266140D01*
X1298727Y266477D01*
X1300163Y267185D01*
X1301356Y266691D01*
X1303544D01*
X1305565Y267528D01*
X1307113Y269076D01*
X1307950Y271097D01*
Y273285D01*
X1307926Y273342D01*
X1309863Y275278D01*
X1310373Y276041D01*
X1316200D01*
Y285541D01*
X1304700D01*
Y283850D01*
X1297920D01*
X1297555Y284396D01*
X1295901Y285501D01*
X1293950Y285889D01*
D02*
G37*
G36*
X1303544Y164041D02*
X1301356D01*
X1299335Y163204D01*
X1298720Y162589D01*
X1297450Y163115D01*
Y163341D01*
X1287450D01*
Y153741D01*
X1297450D01*
Y153967D01*
X1298720Y154493D01*
X1299335Y153878D01*
X1301356Y153041D01*
X1303544D01*
X1305565Y153878D01*
X1307113Y155426D01*
X1307950Y157447D01*
Y159635D01*
X1307113Y161656D01*
X1305565Y163204D01*
X1303544Y164041D01*
D02*
G37*
G36*
X1384950Y179441D02*
X1370450D01*
Y168941D01*
X1376558D01*
X1376606Y167691D01*
X1374585Y166854D01*
X1373037Y165306D01*
X1372200Y163285D01*
Y161097D01*
X1372981Y159211D01*
X1372513Y157941D01*
X1370450D01*
Y147441D01*
X1384950D01*
Y157941D01*
X1382888D01*
X1382419Y159211D01*
X1383200Y161097D01*
Y163285D01*
X1382363Y165306D01*
X1380815Y166854D01*
X1378794Y167691D01*
X1378842Y168941D01*
X1384950D01*
Y179441D01*
D02*
G37*
G36*
X1366450D02*
X1351950D01*
Y168941D01*
X1358058D01*
X1358106Y167691D01*
X1356084Y166854D01*
X1354537Y165306D01*
X1353700Y163285D01*
Y161097D01*
X1354481Y159211D01*
X1354012Y157941D01*
X1351950D01*
Y147441D01*
X1366450D01*
Y157941D01*
X1364388D01*
X1363919Y159211D01*
X1364700Y161097D01*
Y163285D01*
X1363863Y165306D01*
X1362316Y166854D01*
X1360294Y167691D01*
X1360342Y168941D01*
X1366450D01*
Y179441D01*
D02*
G37*
%LPD*%
D10*
X1454150Y382130D02*
X1455001Y382981D01*
X1470101D02*
X1470660Y383540D01*
X1455001Y382981D02*
X1470101D01*
X1485900Y396240D02*
Y410210D01*
X1358900Y381000D02*
Y392430D01*
D11*
X1436370Y133858D02*
X1436878Y134366D01*
X1436370Y119380D02*
Y133858D01*
X1340450Y306486D02*
X1345692Y301244D01*
X1363980D01*
X1340450Y306486D02*
Y320191D01*
X1363980Y301244D02*
X1372616Y309880D01*
Y360934D01*
X1365504Y368046D02*
X1372616Y360934D01*
X1351026Y368046D02*
X1365504D01*
X1342898Y376174D02*
X1351026Y368046D01*
X1342898Y376174D02*
Y416052D01*
X1354976Y428130D02*
X1454150D01*
X1342898Y416052D02*
X1354976Y428130D01*
X1182624Y367792D02*
X1193038D01*
X1193800Y367030D01*
X1018540Y255016D02*
Y268351D01*
X1292450Y149155D02*
Y149694D01*
D13*
X1028319Y285369D02*
X1111758Y368808D01*
X197494Y485403D02*
Y486500D01*
X313400Y406400D02*
X314100Y405700D01*
X277197D02*
X314100D01*
X1111758Y368808D02*
X1150366D01*
X1018540Y285369D02*
X1028319D01*
X1018540D02*
Y310642D01*
X1292450Y158541D02*
X1302450D01*
X1278525Y149766D02*
X1291838D01*
X1278450Y149691D02*
X1278525Y149766D01*
X1291838D02*
X1292450Y149155D01*
X1075400Y204191D02*
Y222677D01*
X1266300Y325141D02*
X1285575Y344416D01*
X1209080Y325141D02*
X1266300D01*
X1208350Y324411D02*
X1209080Y325141D01*
X1285575Y344416D02*
X1289825D01*
X863600Y1109980D02*
X876300D01*
X1123950Y520700D02*
Y532130D01*
X1098550Y520319D02*
Y532130D01*
X892810Y824230D02*
X894080Y825500D01*
X1066800Y462026D02*
X1077341Y451485D01*
X1066800Y462026D02*
Y500253D01*
X1077341Y450850D02*
Y451485D01*
X1054100Y512953D02*
X1066800Y500253D01*
X1054100Y512953D02*
Y516255D01*
X1003300Y527050D02*
X1056733D01*
X1077341Y506442D01*
Y476250D02*
Y506442D01*
X992505Y516255D02*
X1003300Y527050D01*
X977900Y516255D02*
X992505D01*
X508000Y1104900D02*
X612140D01*
X469900Y1117600D02*
X490220Y1097280D01*
X617220D01*
X722270Y1092200D02*
Y1097200D01*
X495300Y1117600D02*
X508000Y1104900D01*
X707270Y1092200D02*
Y1097200D01*
X692270Y1092200D02*
Y1097200D01*
X624840Y1104900D02*
X684570D01*
X692270Y1097200D01*
X617220Y1097280D02*
X624840Y1104900D01*
X619760Y1112520D02*
X691950D01*
X612140Y1104900D02*
X619760Y1112520D01*
X691950D02*
X707270Y1097200D01*
X523240Y1120140D02*
X699330D01*
X722270Y1097200D01*
X520700Y1117600D02*
X523240Y1120140D01*
X508000Y825500D02*
X612140D01*
X469900Y838200D02*
X490220Y817880D01*
X617220D01*
X722270Y812800D02*
Y817800D01*
X495300Y838200D02*
X508000Y825500D01*
X707270Y812800D02*
Y817800D01*
X692270Y812800D02*
Y817800D01*
X624840Y825500D02*
X684570D01*
X692270Y817800D01*
X617220Y817880D02*
X624840Y825500D01*
X619760Y833120D02*
X691950D01*
X612140Y825500D02*
X619760Y833120D01*
X691950D02*
X707270Y817800D01*
X523240Y840740D02*
X699330D01*
X722270Y817800D01*
X520700Y838200D02*
X523240Y840740D01*
X508000Y546100D02*
X612140D01*
X469900Y558800D02*
X490220Y538480D01*
X617220D01*
X722270Y533400D02*
Y538400D01*
X495300Y558800D02*
X508000Y546100D01*
X707270Y533400D02*
Y538400D01*
X692270Y533400D02*
Y538400D01*
X624840Y546100D02*
X684570D01*
X692270Y538400D01*
X617220Y538480D02*
X624840Y546100D01*
X619760Y553720D02*
X691950D01*
X612140Y546100D02*
X619760Y553720D01*
X691950D02*
X707270Y538400D01*
X523240Y561340D02*
X699330D01*
X722270Y538400D01*
X520700Y558800D02*
X523240Y561340D01*
X520700Y279400D02*
X523240Y281940D01*
X699330D02*
X722270Y259000D01*
X523240Y281940D02*
X699330D01*
X691950Y274320D02*
X707270Y259000D01*
X612140Y266700D02*
X619760Y274320D01*
X691950D01*
X617220Y259080D02*
X624840Y266700D01*
X684570D02*
X692270Y259000D01*
X624840Y266700D02*
X684570D01*
X692270Y254000D02*
Y259000D01*
X707270Y254000D02*
Y259000D01*
X495300Y279400D02*
X508000Y266700D01*
X722270Y254000D02*
Y259000D01*
X490220Y259080D02*
X617220D01*
X469900Y279400D02*
X490220Y259080D01*
X508000Y266700D02*
X612140D01*
X311900Y342900D02*
X314100Y340700D01*
X141258Y571736D02*
X142494Y570500D01*
X197494Y486500D02*
X201394Y482600D01*
X138594D02*
X142494Y486500D01*
D17*
X1377670Y153641D02*
X1378350Y152961D01*
X1538713Y276860D02*
X1554826Y292973D01*
X1433950Y285691D02*
X1436950D01*
X1445781Y276860D01*
X1538713D01*
X1310450Y327491D02*
Y335841D01*
Y336381D01*
X1304450Y200541D02*
X1304650D01*
X1312300Y208191D01*
X1304450Y215841D02*
X1304650D01*
X1312300Y208191D01*
X1282450Y218511D02*
X1285120Y215841D01*
X1304450D01*
X1264670Y198191D02*
Y199691D01*
X1273186Y208207D01*
X1296584D01*
X1304250Y200541D01*
X1304450D01*
X1262990Y220191D02*
X1264670Y218511D01*
X1244930Y220191D02*
X1262990D01*
X1264670Y218511D02*
Y220011D01*
X1273186Y228527D01*
X1300264D01*
X1304250Y224541D01*
X1304450D01*
X1312300Y208191D02*
X1312450D01*
X1413950Y321841D02*
X1433950Y301841D01*
X1409700Y321841D02*
X1413950D01*
X1433950Y285691D02*
Y301841D01*
X1405450Y321841D02*
X1409700D01*
D19*
X898568Y63628D02*
X901700Y66760D01*
X890920Y55980D02*
X891796D01*
X898568Y62752D01*
Y63628D01*
X901700Y66760D02*
Y82550D01*
X883920Y49208D02*
X890692Y55980D01*
X883920Y30480D02*
Y49208D01*
X890692Y55980D02*
X890920D01*
X952920D02*
Y83400D01*
X952500Y83820D02*
X952920Y83400D01*
X959920Y30480D02*
Y49208D01*
X953148Y55980D02*
X959920Y49208D01*
X952920Y55980D02*
X953148D01*
X1082635Y264304D02*
X1097313D01*
X920920Y58230D02*
Y68410D01*
X920750Y68580D02*
X920920Y68410D01*
Y58230D02*
X921920Y57230D01*
X915420D02*
X916210Y58020D01*
X920750Y68580D02*
Y102419D01*
X1082635Y264304D01*
X916210Y104299D02*
X1080755Y268844D01*
X916210Y58020D02*
Y104299D01*
X1431290Y20320D02*
Y85090D01*
X1432560Y86360D01*
X1393698Y20320D02*
X1413510D01*
X764270Y109350D02*
X805180D01*
X1073150Y12700D02*
X1101318D01*
X1047750Y25400D02*
X1102704D01*
X1102011Y19050D02*
X1184450Y101489D01*
X1102704Y25400D02*
X1180450Y103146D01*
X1060450Y19050D02*
X1102011D01*
X1103397Y31750D02*
X1176450Y104803D01*
X1035050Y31750D02*
X1103397D01*
X1009650Y44450D02*
X1104784D01*
X1105477Y50800D02*
X1164450Y109773D01*
X1104784Y44450D02*
X1168450Y108116D01*
X1104091Y38100D02*
X1172450Y106460D01*
X1022350Y38100D02*
X1104091D01*
X996950Y50800D02*
X1105477D01*
X984250Y57150D02*
X1106170D01*
X1160450Y111430D01*
X1180450Y103146D02*
Y183816D01*
X1101318Y12700D02*
X1188450Y99832D01*
Y183816D01*
X1184450Y101489D02*
Y183816D01*
X1176450Y104803D02*
Y183816D01*
X1172450Y106460D02*
Y183816D01*
X1168450Y108116D02*
Y183816D01*
X1164450Y109773D02*
Y183816D01*
X1160450Y111430D02*
Y183816D01*
X1192450D02*
X1192850Y183416D01*
Y178950D02*
Y183416D01*
Y178950D02*
X1194959Y176841D01*
X1195070D01*
Y172720D02*
Y176841D01*
X765540Y411480D02*
X788670D01*
X764270Y412750D02*
X765540Y411480D01*
X765670Y387350D02*
X788670D01*
X764270Y388750D02*
X765670Y387350D01*
X764270Y133350D02*
X794845D01*
X1166809Y306536D02*
Y361763D01*
X1150366Y368808D02*
X1159764D01*
X1166809Y361763D01*
X1164450Y304177D02*
X1166809Y306536D01*
X1164450Y252566D02*
Y304177D01*
X1193450Y207191D02*
X1194450Y208191D01*
X1098485Y259406D02*
X1099700Y258191D01*
X1098485Y273742D02*
X1099700Y274958D01*
X1097313Y268844D02*
X1098485Y270016D01*
X1080755Y268844D02*
X1097313D01*
X1098485Y259406D02*
Y263133D01*
X1097313Y264304D02*
X1098485Y263133D01*
Y270016D02*
Y273742D01*
X1159459Y348310D02*
Y351841D01*
X1160450Y252566D02*
Y347980D01*
X1159129D02*
X1159459Y348310D01*
X1158607Y197691D02*
X1201612D01*
X1208112Y193853D02*
Y213176D01*
X1205450Y191191D02*
X1208112Y193853D01*
X1198920Y191191D02*
X1205450D01*
X1198920Y191191D02*
X1198920Y191191D01*
X1206450Y214838D02*
X1208112Y213176D01*
X1194793Y191191D02*
X1198920D01*
X1153107Y192191D02*
X1158607Y197691D01*
X1470950Y285691D02*
X1515293D01*
X1522575Y292973D01*
X1524826D01*
X1412090Y291391D02*
X1412208Y291509D01*
X1148075Y236191D02*
X1160450D01*
X1148075Y216191D02*
X1160450D01*
Y236191D01*
X1254450Y191668D02*
X1257927Y188191D01*
X1273950D01*
X1282450Y196691D02*
Y198191D01*
X1273950Y188191D02*
X1282450Y196691D01*
X1235430Y219191D02*
Y220191D01*
X1292425Y198191D02*
X1298450Y192166D01*
X1282450Y198191D02*
X1292425D01*
X1304125Y192166D02*
X1304450Y191841D01*
X1298450Y192166D02*
X1304125D01*
X1206450Y216191D02*
X1210450Y220191D01*
X1216825D01*
X1235700Y142191D02*
Y143191D01*
X1216825Y196191D02*
X1221857D01*
X1216825Y200191D02*
X1223514D01*
X1235700Y158191D02*
Y164191D01*
X1232454Y166695D02*
X1233196D01*
X1229950Y169198D02*
X1232454Y166695D01*
X1233196D02*
X1235700Y164191D01*
X1216825Y204191D02*
X1225171D01*
X1279200Y174191D02*
X1317700D01*
Y152691D02*
Y162191D01*
X1359200Y152691D02*
Y162191D01*
X1419200Y152691D02*
Y162191D01*
X1377700Y153671D02*
Y162191D01*
X1377670Y153641D02*
X1377700Y153671D01*
X1245200Y173191D02*
Y174191D01*
X1277200Y158691D02*
X1278450D01*
X1269950Y165941D02*
X1277200Y158691D01*
X1245200Y158191D02*
X1245700Y158691D01*
X1262450D01*
X1261200Y149691D02*
X1262450D01*
X1245200Y142191D02*
X1253700D01*
X1261200Y149691D01*
X1252450Y165941D02*
X1269950D01*
X1245200Y173191D02*
X1252450Y165941D01*
X1110145Y263403D02*
X1111317Y264574D01*
Y268574D02*
X1115216D01*
X1111317Y264574D02*
X1113559D01*
X1110145Y259136D02*
Y263403D01*
X1109200Y258191D02*
X1110145Y259136D01*
Y269746D02*
Y274012D01*
Y269746D02*
X1111317Y268574D01*
X1109200Y274958D02*
X1110145Y274012D01*
X1140700Y224191D02*
X1148075D01*
X1136700Y220191D02*
X1148075D01*
X1136700D02*
X1140700Y224191D01*
X1136543Y232191D02*
X1148075D01*
X1134886Y228191D02*
X1148075D01*
X1106800Y235191D02*
X1115985D01*
X1100800Y223691D02*
Y229191D01*
X1106800Y235191D01*
X1117642Y239191D02*
X1126575Y230258D01*
X1115985Y235191D02*
X1122450Y228726D01*
X1135508Y212191D02*
X1148075D01*
X1126575Y221124D02*
X1135508Y212191D01*
X1126575Y221124D02*
Y230258D01*
X1122450Y217891D02*
Y228726D01*
Y217891D02*
X1132150Y208191D01*
X1148075D01*
X1113500Y219141D02*
Y223691D01*
X1128450Y204191D02*
X1148075D01*
X1113500Y219141D02*
X1128450Y204191D01*
X1229950Y169198D02*
Y193755D01*
X1223514Y200191D02*
X1229950Y193755D01*
X1221857Y196191D02*
X1225950Y192098D01*
X1088100Y147191D02*
Y152691D01*
X1143043Y196191D02*
X1148075D01*
X1122450Y175598D02*
X1143043Y196191D01*
X1133700Y181191D02*
X1144700Y192191D01*
X1133700Y164191D02*
Y181191D01*
X1075400Y147191D02*
Y152691D01*
X1100800D02*
Y172541D01*
X1128450Y200191D01*
X1148075D01*
X1088100Y223691D02*
Y229191D01*
X1098100Y239191D02*
X1117642D01*
X1088100Y229191D02*
X1098100Y239191D01*
X1133700Y152234D02*
Y164191D01*
X1075400Y147191D02*
X1086414Y136177D01*
X1117642D02*
X1133700Y152234D01*
X1086414Y136177D02*
X1117642D01*
X1088100Y147191D02*
X1095100Y140191D01*
X1098300D01*
X1098315Y140176D01*
X1115985D01*
X1122450Y146641D01*
Y175598D01*
X1122809Y240269D02*
X1134886Y228191D01*
X1126808Y241925D02*
X1136543Y232191D01*
X1363720Y214091D02*
X1364100D01*
X1359005Y209376D02*
X1363720Y214091D01*
X1355695Y209376D02*
X1359005D01*
X1351409Y205090D02*
X1355695Y209376D01*
X1376800Y226791D02*
X1386849Y236840D01*
X1402209D01*
X1411201Y245833D01*
Y261440D01*
X1356450Y272191D02*
Y284191D01*
X1314950Y227285D02*
X1315749Y226486D01*
Y220892D02*
X1331551Y205090D01*
X1351409D01*
X1315749Y220892D02*
Y226486D01*
X1216825Y232191D02*
X1255950D01*
X1351409Y267542D02*
X1360401Y258550D01*
X1364100Y239491D02*
Y247249D01*
X1360401Y250948D02*
X1364100Y247249D01*
X1360401Y250948D02*
Y258550D01*
X1216825Y228191D02*
X1257607D01*
X1216825Y236191D02*
X1254294D01*
X1257607Y228191D02*
X1265208Y235792D01*
X1355099D02*
X1364100Y226791D01*
X1265208Y235792D02*
X1355099D01*
X1255950Y232191D02*
X1263551Y239792D01*
X1254294Y236191D02*
X1262294Y244191D01*
X1330771Y267542D02*
X1351409D01*
X1263551Y239792D02*
X1303022D01*
X1262294Y244191D02*
X1301642D01*
X1329642Y272191D02*
X1356450D01*
X1303022Y239792D02*
X1330771Y267542D01*
X1301642Y244191D02*
X1329642Y272191D01*
X1216825Y240191D02*
X1252637D01*
X1294778Y248191D02*
X1297278Y250691D01*
X1252637Y240191D02*
X1260637Y248191D01*
X1294778D01*
X1297278Y250691D02*
X1298450D01*
X1412208Y291509D02*
X1417768D01*
X1400450Y272191D02*
X1411201Y261440D01*
X1400114Y272191D02*
X1400450D01*
X1285450Y306191D02*
X1289700D01*
X1310325Y344416D02*
X1310450Y344541D01*
X1196450Y252566D02*
Y260912D01*
X1204450Y252566D02*
Y257598D01*
X1200450Y252566D02*
Y259255D01*
X1215286Y274091D01*
X1216450Y244191D02*
X1216825D01*
X1208450Y252566D02*
Y255941D01*
X1268384Y314525D02*
X1285450Y331591D01*
X1268384Y310125D02*
Y314525D01*
X1245750Y287491D02*
X1268384Y310125D01*
X1329205Y347241D02*
X1355200D01*
X1326105Y350341D02*
X1329205Y347241D01*
X1283015Y350341D02*
X1326105D01*
X1289700Y331591D02*
X1293950D01*
X1307700Y316691D02*
Y317841D01*
X1285450Y331591D02*
X1289700D01*
X1307700Y316691D02*
X1309450Y314941D01*
X1310450D01*
X1293950Y331591D02*
X1307700Y317841D01*
X1355200Y309141D02*
X1359450D01*
X1365450Y315141D01*
X1230950Y331591D02*
X1235200D01*
X1224950Y337591D02*
X1230950Y331591D01*
X1417768Y291509D02*
X1424292Y298034D01*
X1409700Y334541D02*
X1419950D01*
X1463950Y290541D01*
Y289691D02*
Y290541D01*
X1467950Y285691D02*
X1470950D01*
X1463950Y289691D02*
X1467950Y285691D01*
X1439200Y340491D02*
Y347241D01*
X1442450Y336191D02*
Y337241D01*
X1439200Y340491D02*
X1442450Y337241D01*
X1409700Y347241D02*
X1429700D01*
X1452250Y206541D02*
X1452450D01*
X1444450Y214341D02*
X1452250Y206541D01*
X1444450Y214341D02*
Y221441D01*
X1460450Y214341D02*
Y221441D01*
X1452450Y206541D02*
X1452650D01*
X1460450Y214341D01*
X1433950Y268191D02*
X1436950D01*
X1444950Y260191D01*
X1467950Y268191D02*
X1470950D01*
X1459950Y260191D02*
X1467950Y268191D01*
X1459950Y231441D02*
Y260191D01*
Y231441D02*
X1460450Y230941D01*
X1444450D02*
X1444950Y231441D01*
Y260191D01*
X1430950Y250691D02*
X1433950D01*
X1416152Y265489D02*
Y270489D01*
X1404450Y282191D02*
X1416152Y270489D01*
Y265489D02*
X1430950Y250691D01*
X1276965Y344291D02*
X1283015Y350341D01*
X1235200Y344291D02*
X1276965D01*
X1440450Y197841D02*
X1452450D01*
X1422450Y204941D02*
Y216599D01*
X1402209Y236840D02*
X1422450Y216599D01*
X1419200Y174191D02*
X1420200D01*
X1422450Y176441D02*
Y195441D01*
X1420200Y174191D02*
X1422450Y176441D01*
X1192450Y247534D02*
Y252566D01*
X1196836Y243148D02*
X1199493D01*
X1192450Y247534D02*
X1196836Y243148D01*
X1199493D02*
X1200450Y242191D01*
X1289700Y280791D02*
X1309450D01*
X1310450D01*
X1302450Y272191D02*
X1307700Y277441D01*
Y279041D01*
X1309450Y280791D01*
X1216329D02*
X1235200D01*
X1196450Y260912D02*
X1216329Y280791D01*
X1229868Y306191D02*
X1235200D01*
X1188450Y253191D02*
Y264773D01*
X1229868Y306191D01*
X1221150Y287491D02*
X1245750D01*
X1220755Y287886D02*
X1221150Y287491D01*
X1205803Y226191D02*
X1207803Y224191D01*
X1216825D01*
X1257774Y174191D02*
X1269700D01*
X1216825Y216191D02*
X1232430D01*
X1235430Y219191D01*
X1225171Y204191D02*
X1235700Y193661D01*
Y174191D02*
Y193661D01*
X1242450Y194191D02*
X1249340Y187301D01*
Y182624D02*
Y187301D01*
Y182624D02*
X1257774Y174191D01*
X1254450Y191668D02*
Y204191D01*
X1246450Y212191D02*
X1254450Y204191D01*
X1216825Y212191D02*
X1246450D01*
X1216825Y208191D02*
X1240450D01*
X1244450Y204191D01*
X1148075Y192191D02*
X1153107D01*
X1192450Y188848D02*
X1194793Y191191D01*
X1206450Y214838D02*
Y216191D01*
X1204450Y226191D02*
X1205803D01*
X1216450Y244191D02*
Y251591D01*
X1208450Y255941D02*
X1210600Y258091D01*
X1204450Y257598D02*
X1208943Y262091D01*
X1156450Y177457D02*
Y183816D01*
X1153184Y174191D02*
X1156450Y177457D01*
X1152450Y174191D02*
X1153184D01*
X1225950Y152941D02*
Y192098D01*
Y152941D02*
X1235700Y143191D01*
X1192450Y183816D02*
Y188848D01*
X1365450Y315141D02*
Y349726D01*
X1405450Y334541D02*
X1409700D01*
X1224950Y337591D02*
Y346776D01*
X1360835Y354341D02*
X1365450Y349726D01*
X1232515Y354341D02*
X1360835D01*
X1224950Y346776D02*
X1232515Y354341D01*
X1113559Y264574D02*
X1122809Y255325D01*
X1115216Y268574D02*
X1126808Y256982D01*
Y241925D02*
Y256982D01*
X1122809Y240269D02*
Y255325D01*
X1470450Y250191D02*
X1470950Y250691D01*
X1470450Y240191D02*
Y250191D01*
X1208943Y262091D02*
X1249981D01*
X1260450Y281191D02*
X1285450Y306191D01*
X1210600Y258091D02*
X1251638D01*
X1264905Y271358D02*
Y273838D01*
X1284558Y293491D01*
X1249981Y262091D02*
X1260450Y272560D01*
X1251638Y258091D02*
X1264905Y271358D01*
X1260450Y272560D02*
Y281191D01*
X1284558Y293491D02*
X1289700D01*
X1286532Y318891D02*
X1289700D01*
X1215286Y274091D02*
X1241732D01*
X1286532Y318891D01*
X1156450Y252566D02*
Y255941D01*
X1154800Y257113D02*
X1155972Y255941D01*
X1156450D01*
X1154800Y257113D02*
Y270191D01*
X1151450Y244191D02*
X1156450Y249191D01*
Y252566D01*
X1140100Y240191D02*
X1148075D01*
X1136450Y243841D02*
X1140100Y240191D01*
X1136450Y243841D02*
Y244041D01*
X1134650Y245841D02*
X1136450Y244041D01*
X1144700Y244191D02*
X1148075D01*
X1143050Y245841D02*
X1144700Y244191D01*
X1134450Y245841D02*
X1134650D01*
X1143050D01*
X1148075Y240191D02*
Y244191D01*
X674730Y1089660D02*
X677270Y1092200D01*
X472440Y1089660D02*
X674730D01*
X444500Y1117600D02*
X472440Y1089660D01*
X674730Y810260D02*
X677270Y812800D01*
X472440Y810260D02*
X674730D01*
X444500Y838200D02*
X472440Y810260D01*
X674730Y530860D02*
X677270Y533400D01*
X472440Y530860D02*
X674730D01*
X444500Y558800D02*
X472440Y530860D01*
X444500Y279400D02*
X472440Y251460D01*
X674730D01*
X677270Y254000D01*
D21*
X894080Y1037209D02*
Y1109980D01*
Y825500D02*
Y1020191D01*
D23*
X876300Y1109980D02*
D03*
X894080D02*
D03*
X1431290Y20320D02*
D03*
X1413510D02*
D03*
D24*
X764270Y157350D02*
D03*
Y133350D02*
D03*
Y109350D02*
D03*
Y947550D02*
D03*
Y971550D02*
D03*
Y995550D02*
D03*
Y668150D02*
D03*
Y692150D02*
D03*
Y716150D02*
D03*
Y388750D02*
D03*
Y412750D02*
D03*
Y436750D02*
D03*
D25*
X722270Y248350D02*
D03*
X707270D02*
D03*
X692270D02*
D03*
X677270D02*
D03*
Y1086550D02*
D03*
X692270D02*
D03*
X707270D02*
D03*
X722270D02*
D03*
X677270Y807150D02*
D03*
X692270D02*
D03*
X707270D02*
D03*
X722270D02*
D03*
X677270Y527750D02*
D03*
X692270D02*
D03*
X707270D02*
D03*
X722270D02*
D03*
D26*
X296770Y198350D02*
D03*
Y133350D02*
D03*
Y68350D02*
D03*
X785770Y203350D02*
D03*
Y63350D02*
D03*
Y901550D02*
D03*
Y1041550D02*
D03*
X296770Y906550D02*
D03*
Y971550D02*
D03*
Y1036550D02*
D03*
X785770Y622150D02*
D03*
Y762150D02*
D03*
X296770Y627150D02*
D03*
Y692150D02*
D03*
Y757150D02*
D03*
X785770Y342750D02*
D03*
Y482750D02*
D03*
X296770Y347750D02*
D03*
Y412750D02*
D03*
Y477750D02*
D03*
D27*
X1018540Y327660D02*
D03*
Y310642D02*
D03*
Y285369D02*
D03*
Y268351D02*
D03*
X894080Y1020191D02*
D03*
Y1037209D02*
D03*
X1098550Y503301D02*
D03*
Y520319D02*
D03*
D28*
X1376680Y20320D02*
D03*
X1393698D02*
D03*
X1142111Y347980D02*
D03*
X1159129D02*
D03*
X1077341Y450850D02*
D03*
X1094359D02*
D03*
X1077341Y476250D02*
D03*
X1094359D02*
D03*
D29*
X1418590Y119380D02*
D03*
X1436370D02*
D03*
D30*
X908920Y58230D02*
D03*
X915420D02*
D03*
X921920D02*
D03*
X928420D02*
D03*
X934920D02*
D03*
D31*
X890920Y55980D02*
D03*
X952920D02*
D03*
D32*
X959920Y30480D02*
D03*
X883920D02*
D03*
D33*
X1193800Y349250D02*
D03*
Y367030D02*
D03*
X1358900Y410210D02*
D03*
Y392430D02*
D03*
X1485900Y427990D02*
D03*
Y410210D02*
D03*
X1123950Y520700D02*
D03*
Y502920D02*
D03*
D34*
X1390650Y405130D02*
D03*
D35*
X1454150Y428130D02*
D03*
Y405130D02*
D03*
Y382130D02*
D03*
D36*
X1075400Y242191D02*
D03*
X1084100D02*
D03*
X1403390Y291391D02*
D03*
X1412090D02*
D03*
X1146100Y270191D02*
D03*
X1154800D02*
D03*
D37*
X1292450Y149841D02*
D03*
Y158541D02*
D03*
X1332450Y325841D02*
D03*
Y334541D02*
D03*
X1304450Y191841D02*
D03*
Y200541D02*
D03*
Y224541D02*
D03*
Y215841D02*
D03*
X1134450Y245841D02*
D03*
Y254541D02*
D03*
X1452450Y206541D02*
D03*
Y197841D02*
D03*
X1310450Y335841D02*
D03*
Y344541D02*
D03*
D38*
X1113500Y222677D02*
D03*
X1100800D02*
D03*
X1088100D02*
D03*
X1075400D02*
D03*
X1113500Y151677D02*
D03*
X1100800D02*
D03*
X1088100D02*
D03*
X1075400D02*
D03*
D39*
X1346950Y284191D02*
D03*
X1356450D02*
D03*
X1235430Y220191D02*
D03*
X1244930D02*
D03*
X1099700Y258191D02*
D03*
X1109200D02*
D03*
X1099700Y274958D02*
D03*
X1109200D02*
D03*
X1133700Y164191D02*
D03*
X1143200D02*
D03*
X1279200Y174191D02*
D03*
X1269700D02*
D03*
X1245200D02*
D03*
X1235700D02*
D03*
X1245200Y158191D02*
D03*
X1235700D02*
D03*
X1439200Y347241D02*
D03*
X1429700D02*
D03*
X1245200Y142191D02*
D03*
X1235700D02*
D03*
D40*
X1364100Y239491D02*
D03*
X1376800D02*
D03*
X1364100Y226791D02*
D03*
X1376800Y214091D02*
D03*
X1364100D02*
D03*
X1376800Y226791D02*
D03*
D41*
X1422450Y204941D02*
D03*
Y195441D02*
D03*
X1310450Y314941D02*
D03*
Y305441D02*
D03*
X1460450Y221441D02*
D03*
Y230941D02*
D03*
X1444450Y221441D02*
D03*
Y230941D02*
D03*
X1310450Y280791D02*
D03*
Y290291D02*
D03*
D42*
X1377700Y174191D02*
D03*
X1419200D02*
D03*
X1377700Y152691D02*
D03*
X1419200D02*
D03*
X1359200D02*
D03*
X1317700D02*
D03*
X1359200Y174191D02*
D03*
X1317700D02*
D03*
D43*
X1182450Y218191D02*
D03*
D44*
X1148075Y232191D02*
D03*
Y208191D02*
D03*
Y204191D02*
D03*
Y212191D02*
D03*
Y192191D02*
D03*
Y220191D02*
D03*
Y228191D02*
D03*
Y236191D02*
D03*
Y200191D02*
D03*
Y196191D02*
D03*
Y224191D02*
D03*
Y216191D02*
D03*
Y244191D02*
D03*
Y240191D02*
D03*
X1216825Y192191D02*
D03*
Y196191D02*
D03*
Y200191D02*
D03*
Y204191D02*
D03*
Y208191D02*
D03*
Y212191D02*
D03*
Y216191D02*
D03*
Y220191D02*
D03*
Y224191D02*
D03*
Y228191D02*
D03*
Y232191D02*
D03*
Y236191D02*
D03*
Y240191D02*
D03*
Y244191D02*
D03*
D45*
X1208450Y183816D02*
D03*
Y252566D02*
D03*
X1204450D02*
D03*
X1200450D02*
D03*
X1196450D02*
D03*
X1192450D02*
D03*
X1188450D02*
D03*
X1184450D02*
D03*
X1180450D02*
D03*
X1176450D02*
D03*
X1172450D02*
D03*
X1168450D02*
D03*
X1164450D02*
D03*
X1160450D02*
D03*
X1156450D02*
D03*
X1200450Y183816D02*
D03*
X1196450D02*
D03*
X1192450D02*
D03*
X1188450D02*
D03*
X1184450D02*
D03*
X1180450D02*
D03*
X1176450D02*
D03*
X1172450D02*
D03*
X1168450D02*
D03*
X1164450D02*
D03*
X1160450D02*
D03*
X1156450D02*
D03*
X1204450D02*
D03*
D46*
X1282450Y198191D02*
D03*
Y218511D02*
D03*
X1264670D02*
D03*
Y198191D02*
D03*
D47*
X1355200Y347241D02*
D03*
Y334541D02*
D03*
Y321841D02*
D03*
Y309141D02*
D03*
X1409700Y347241D02*
D03*
Y334541D02*
D03*
Y321841D02*
D03*
Y309141D02*
D03*
X1235200Y344291D02*
D03*
Y331591D02*
D03*
Y318891D02*
D03*
Y306191D02*
D03*
Y293491D02*
D03*
Y280791D02*
D03*
Y268091D02*
D03*
X1289700Y344291D02*
D03*
Y331591D02*
D03*
Y318891D02*
D03*
Y306191D02*
D03*
Y293491D02*
D03*
Y280791D02*
D03*
Y268091D02*
D03*
D48*
X1470950Y285691D02*
D03*
Y268191D02*
D03*
Y250691D02*
D03*
X1433950D02*
D03*
Y268191D02*
D03*
Y285691D02*
D03*
D49*
X1278450Y149691D02*
D03*
X1262450D02*
D03*
Y158691D02*
D03*
X1278450D02*
D03*
D50*
X846963Y273039D02*
D03*
X816737D02*
D03*
X846963Y831840D02*
D03*
X816737D02*
D03*
Y552439D02*
D03*
X846963D02*
D03*
D51*
X1016000Y516255D02*
D03*
X1028700D02*
D03*
X1041400D02*
D03*
X1054100D02*
D03*
X939800D02*
D03*
X952500D02*
D03*
X965200D02*
D03*
X977900D02*
D03*
D52*
X1054100Y570865D02*
D03*
X1041400D02*
D03*
X1028700D02*
D03*
X1016000D02*
D03*
X977900D02*
D03*
X965200D02*
D03*
X952500D02*
D03*
X939800D02*
D03*
D53*
X1035050Y549783D02*
D03*
X958850D02*
D03*
D54*
X1048800Y622300D02*
D03*
X957800D02*
D03*
D55*
X1054800Y425450D02*
D03*
X1091500D02*
D03*
D56*
X850900Y67437D02*
D03*
Y97663D02*
D03*
D93*
X1554826Y322973D02*
D03*
Y292973D02*
D03*
Y262973D02*
D03*
X1524826Y322973D02*
D03*
Y292973D02*
D03*
Y262973D02*
D03*
D98*
X197494Y654500D02*
D03*
Y612500D02*
D03*
X142494Y654500D02*
D03*
Y612500D02*
D03*
X69494Y444500D02*
D03*
Y654500D02*
D03*
D99*
X1182799Y367617D02*
D03*
X1470660Y383540D02*
D03*
X1485900Y396240D02*
D03*
X1359075Y380825D02*
D03*
X1370472Y192109D02*
D03*
X1193450Y229191D02*
D03*
X1171450D02*
D03*
Y207191D02*
D03*
X1193450D02*
D03*
X1342450Y334191D02*
D03*
X1192450Y280191D02*
D03*
X1113500Y165716D02*
D03*
X1228450Y250191D02*
D03*
X1252316Y274325D02*
D03*
D102*
X101600Y807720D02*
X250857Y956977D01*
X303697D01*
X318270Y971550D01*
X101600Y640080D02*
Y807720D01*
X303697Y891977D02*
X318270Y906550D01*
X142494Y782574D02*
X251897Y891977D01*
X142494Y654500D02*
Y782574D01*
X251897Y891977D02*
X303697D01*
X40640Y817880D02*
X246519Y1023759D01*
X305479D02*
X318270Y1036550D01*
X246519Y1023759D02*
X305479D01*
X40640Y619760D02*
Y817880D01*
X197494Y485403D02*
X277197Y405700D01*
X309323Y610353D02*
X318270Y619300D01*
X292100Y610353D02*
X309323D01*
X292100Y580915D02*
Y610353D01*
X281685Y570500D02*
X292100Y580915D01*
X197494Y570500D02*
X281685D01*
X198120Y655126D02*
Y734060D01*
X197494Y654500D02*
X198120Y655126D01*
Y734060D02*
X221210Y757150D01*
X318270D01*
X294640Y487497D02*
X311437Y470700D01*
X294640Y487497D02*
Y518085D01*
X311437Y470700D02*
X318270D01*
X197494Y528500D02*
X284225D01*
X294640Y518085D01*
X40640Y619760D02*
X88664Y571736D01*
X140156Y614838D02*
X142494Y612500D01*
X126842Y614838D02*
X140156D01*
X101600Y640080D02*
X126842Y614838D01*
X25400Y239900D02*
X190600Y74700D01*
X318270D01*
X101600Y228700D02*
X190600Y139700D01*
X318270D01*
X101600Y228700D02*
Y445606D01*
X142494Y258826D02*
Y444500D01*
X196620Y204700D02*
X318270D01*
X142494Y258826D02*
X196620Y204700D01*
X197494Y361306D02*
X215900Y342900D01*
X311900D01*
X197494Y361306D02*
Y445500D01*
X317500Y749300D02*
X317500Y749300D01*
X202597Y612500D02*
X274397Y684300D01*
X88664Y571736D02*
X141258D01*
X197494Y612500D02*
X200801D01*
X25400Y239900D02*
Y469900D01*
X84000Y528500D01*
X142494D01*
X101600Y445606D02*
X142494Y486500D01*
X281724Y684300D02*
X317500D01*
D103*
X934920Y57230D02*
Y81080D01*
X934720Y81280D02*
X934920Y81080D01*
D104*
X1376680Y20320D02*
Y116840D01*
X975360Y114300D02*
X999744Y138684D01*
X1069086D01*
X1454150Y429400D02*
X1459400D01*
X1360170Y410210D02*
X1365250Y405130D01*
X1390650D01*
X1358900Y410210D02*
X1360170D01*
X1390650Y405130D02*
X1454150D01*
X1460810Y427990D02*
X1485900D01*
X1459400Y429400D02*
X1460810Y427990D01*
X1487170D02*
X1524826Y390334D01*
X1485900Y427990D02*
X1487170D01*
X1524826Y322973D02*
Y390334D01*
X1093089Y449580D02*
X1094359Y450850D01*
X1089500Y425450D02*
X1090799D01*
X1093089Y427740D01*
Y449580D01*
X1122299Y503301D02*
X1122680Y502920D01*
X1098550Y503301D02*
X1122299D01*
X1122680Y502920D02*
X1123950D01*
X1094359Y476250D02*
Y499745D01*
Y450850D02*
Y476250D01*
D105*
X1390650Y339090D02*
Y405130D01*
X1389380Y337820D02*
X1390650Y339090D01*
D106*
X1075400Y222677D02*
Y242191D01*
X1332450Y325841D02*
X1332650D01*
X1354435Y321076D02*
X1355200Y321841D01*
X1339493Y321148D02*
X1340450Y320191D01*
X1337343Y321148D02*
X1339493D01*
X1332650Y325841D02*
X1337343Y321148D01*
X1341335Y321076D02*
X1354435D01*
X1340450Y320191D02*
X1341335Y321076D01*
X1342275Y334366D02*
X1342450Y334191D01*
X1332625Y334366D02*
X1342275D01*
X1332450Y334541D02*
X1332625Y334366D01*
X1355025D02*
X1355200Y334541D01*
X1342450Y334191D02*
X1342625Y334366D01*
X1355025D01*
X1289825Y344416D02*
X1310325D01*
X1090450Y242191D02*
X1092450Y244191D01*
X1084100Y242191D02*
X1090450D01*
X1113500Y151677D02*
Y165716D01*
X1246081Y268091D02*
X1252316Y274325D01*
X1235200Y268091D02*
X1246081D01*
X1135700Y265379D02*
Y266191D01*
X1134450Y264129D02*
X1135700Y265379D01*
X1134450Y254541D02*
Y264129D01*
X1146043Y270248D02*
X1146100Y270191D01*
X1135700Y266191D02*
X1139757Y270248D01*
X1146043D01*
D107*
X1377733Y247474D02*
X1378935Y248676D01*
X1377733Y240424D02*
Y247474D01*
X1376800Y239491D02*
X1377733Y240424D01*
X1378935Y248676D02*
Y261706D01*
X1378450Y262191D02*
X1378935Y261706D01*
X1370472Y192109D02*
Y207763D01*
X1376800Y214091D01*
D108*
X190500Y1066800D02*
D03*
X1574800Y76200D02*
D03*
Y584200D02*
D03*
X977900Y1066800D02*
D03*
X76200Y76200D02*
D03*
D109*
X1371600Y590550D02*
D03*
Y546200D02*
D03*
X1327250D02*
D03*
X1415950D02*
D03*
Y590550D02*
D03*
X1327250D02*
D03*
Y634900D02*
D03*
X1371600D02*
D03*
X1415950D02*
D03*
X1206500Y590550D02*
D03*
Y546200D02*
D03*
X1162150D02*
D03*
X1250850D02*
D03*
Y590550D02*
D03*
X1162150D02*
D03*
Y634900D02*
D03*
X1206500D02*
D03*
X1250850D02*
D03*
X1022250Y971450D02*
D03*
X977900D02*
D03*
X933550D02*
D03*
Y927100D02*
D03*
X1022250D02*
D03*
Y882750D02*
D03*
X933550D02*
D03*
X977900D02*
D03*
Y927100D02*
D03*
X1022250Y717650D02*
D03*
Y762000D02*
D03*
Y806350D02*
D03*
X977900D02*
D03*
Y717650D02*
D03*
X933550D02*
D03*
Y806350D02*
D03*
Y762000D02*
D03*
X977900D02*
D03*
D110*
X444500Y1117600D02*
D03*
X469900D02*
D03*
X495300D02*
D03*
X975360Y114300D02*
D03*
X1026160D02*
D03*
X1051560D02*
D03*
X1076960D02*
D03*
X1000760Y88900D02*
D03*
X1051560D02*
D03*
X1076960D02*
D03*
X1000760Y114300D02*
D03*
X1026160Y88900D02*
D03*
X444500Y558800D02*
D03*
X469900D02*
D03*
X495300D02*
D03*
Y279400D02*
D03*
X469900D02*
D03*
X444500D02*
D03*
Y838200D02*
D03*
X469900D02*
D03*
X495300D02*
D03*
D111*
X520700Y1117600D02*
D03*
X975360Y88900D02*
D03*
X520700Y558800D02*
D03*
Y279400D02*
D03*
Y838200D02*
D03*
D112*
X719270Y22350D02*
D03*
X679270D02*
D03*
Y860550D02*
D03*
X719270D02*
D03*
X679270Y581150D02*
D03*
X719270D02*
D03*
X679270Y301750D02*
D03*
X719270D02*
D03*
D113*
X1597827Y292973D02*
D03*
D114*
X1345050Y220441D02*
D03*
X1395850D02*
D03*
Y252191D02*
D03*
X1345050D02*
D03*
D115*
X1360290Y201391D02*
D03*
X1380610D02*
D03*
X1370450Y252191D02*
D03*
D116*
X197494Y570500D02*
D03*
Y528500D02*
D03*
X142494Y528500D02*
D03*
Y570500D02*
D03*
X197494Y486500D02*
D03*
X142494D02*
D03*
X197494Y444500D02*
D03*
X142494D02*
D03*
D117*
X901700Y82550D02*
D03*
X952500Y83820D02*
D03*
X934720Y81280D02*
D03*
X1431290Y85090D02*
D03*
X805180Y109350D02*
D03*
X1436878Y134366D02*
D03*
X996950Y50800D02*
D03*
X1009650Y44450D02*
D03*
X1073150Y12700D02*
D03*
X1060450Y19050D02*
D03*
X1047750Y25400D02*
D03*
X1035050Y31750D02*
D03*
X1022350Y38100D02*
D03*
X984250Y57150D02*
D03*
X760730Y979170D02*
D03*
X763270Y955040D02*
D03*
X769620Y699770D02*
D03*
X777240Y675640D02*
D03*
X788670Y411480D02*
D03*
Y387350D02*
D03*
X794845Y133350D02*
D03*
X1018540Y255016D02*
D03*
X750570Y1002030D02*
D03*
Y163830D02*
D03*
Y443230D02*
D03*
Y722630D02*
D03*
D118*
X1195070Y172720D02*
D03*
X1201612Y197691D02*
D03*
X1160450Y216191D02*
D03*
X1419200Y162191D02*
D03*
X1377700D02*
D03*
X1359200D02*
D03*
X1310450Y327491D02*
D03*
X1442450Y336191D02*
D03*
X1206450Y216191D02*
D03*
X1317700Y162191D02*
D03*
X1302450Y158541D02*
D03*
X1136700Y220191D02*
D03*
X1160450Y236191D02*
D03*
X1356450Y272191D02*
D03*
X1314950Y227285D02*
D03*
X1312450Y208191D02*
D03*
X1298450Y250691D02*
D03*
X1400114Y272191D02*
D03*
X1340450Y320191D02*
D03*
X1404450Y282191D02*
D03*
X1424292Y298034D02*
D03*
X1440450Y197841D02*
D03*
X1200450Y242191D02*
D03*
X1302450Y272191D02*
D03*
X1220755Y287886D02*
D03*
X1204450Y225165D02*
D03*
X1242450Y194191D02*
D03*
X1244450Y204191D02*
D03*
X1092450Y244191D02*
D03*
X1216450Y251591D02*
D03*
X1152450Y174191D02*
D03*
X1218450Y164191D02*
D03*
X1470450Y240191D02*
D03*
X1135700Y266191D02*
D03*
D119*
X838200Y184150D02*
D03*
Y196850D02*
D03*
Y209550D02*
D03*
Y222250D02*
D03*
X800100Y463550D02*
D03*
Y476250D02*
D03*
Y488950D02*
D03*
Y501650D02*
D03*
Y742950D02*
D03*
Y755650D02*
D03*
Y768350D02*
D03*
Y781050D02*
D03*
X812800Y222250D02*
D03*
X825500D02*
D03*
Y209550D02*
D03*
X812800D02*
D03*
Y196850D02*
D03*
X825500D02*
D03*
Y184150D02*
D03*
X812800D02*
D03*
Y501650D02*
D03*
X825500D02*
D03*
Y488950D02*
D03*
X812800D02*
D03*
Y476250D02*
D03*
X825500D02*
D03*
Y463550D02*
D03*
X812800D02*
D03*
Y781050D02*
D03*
X825500D02*
D03*
Y768350D02*
D03*
X812800D02*
D03*
Y755650D02*
D03*
X825500D02*
D03*
Y742950D02*
D03*
X812800D02*
D03*
Y1022350D02*
D03*
X825500D02*
D03*
X838200D02*
D03*
Y1035050D02*
D03*
X825500D02*
D03*
X812800D02*
D03*
Y1047750D02*
D03*
X825500D02*
D03*
X838200D02*
D03*
Y1060450D02*
D03*
X825500D02*
D03*
X812800D02*
D03*
D120*
X1390450Y300191D02*
D03*
X1409010Y205031D02*
D03*
X1208350Y324411D02*
D03*
X1124450Y278191D02*
D03*
X1075400Y204191D02*
D03*
X1147390Y324411D02*
D03*
D121*
X863600Y1109980D02*
D03*
X1123950Y532130D02*
D03*
X1098550D02*
D03*
M02*
