G04*
G04 #@! TF.GenerationSoftware,Altium Limited,Altium Designer,24.9.1 (31)*
G04*
G04 Layer_Color=8388736*
%FSLAX44Y44*%
%MOMM*%
G71*
G04*
G04 #@! TF.SameCoordinates,34C4A6F0-6EE0-490D-AD1B-27E8E2669A39*
G04*
G04*
G04 #@! TF.FilePolarity,Negative*
G04*
G01*
G75*
%ADD50R,1.0668X1.7272*%
%ADD54R,4.7000X5.8000*%
%ADD56R,1.7272X1.0668*%
%ADD57C,2.2479*%
%ADD58R,0.9128X0.9128*%
G04:AMPARAMS|DCode=59|XSize=3.7mm|YSize=2.2mm|CornerRadius=0.575mm|HoleSize=0mm|Usage=FLASHONLY|Rotation=180.000|XOffset=0mm|YOffset=0mm|HoleType=Round|Shape=RoundedRectangle|*
%AMROUNDEDRECTD59*
21,1,3.7000,1.0500,0,0,180.0*
21,1,2.5500,2.2000,0,0,180.0*
1,1,1.1500,-1.2750,0.5250*
1,1,1.1500,1.2750,0.5250*
1,1,1.1500,1.2750,-0.5250*
1,1,1.1500,-1.2750,-0.5250*
%
%ADD59ROUNDEDRECTD59*%
%ADD60O,1.1000X2.1000*%
G04:AMPARAMS|DCode=61|XSize=8.6mm|YSize=5.3mm|CornerRadius=1.35mm|HoleSize=0mm|Usage=FLASHONLY|Rotation=180.000|XOffset=0mm|YOffset=0mm|HoleType=Round|Shape=RoundedRectangle|*
%AMROUNDEDRECTD61*
21,1,8.6000,2.6000,0,0,180.0*
21,1,5.9000,5.3000,0,0,180.0*
1,1,2.7000,-2.9500,1.3000*
1,1,2.7000,2.9500,1.3000*
1,1,2.7000,2.9500,-1.3000*
1,1,2.7000,-2.9500,-1.3000*
%
%ADD61ROUNDEDRECTD61*%
%ADD62R,1.2430X1.1160*%
%ADD63R,1.1160X1.2430*%
%ADD64R,0.8620X1.1160*%
G04:AMPARAMS|DCode=65|XSize=0.5mm|YSize=1.6mm|CornerRadius=0.15mm|HoleSize=0mm|Usage=FLASHONLY|Rotation=0.000|XOffset=0mm|YOffset=0mm|HoleType=Round|Shape=RoundedRectangle|*
%AMROUNDEDRECTD65*
21,1,0.5000,1.3000,0,0,0.0*
21,1,0.2000,1.6000,0,0,0.0*
1,1,0.3000,0.1000,-0.6500*
1,1,0.3000,-0.1000,-0.6500*
1,1,0.3000,-0.1000,0.6500*
1,1,0.3000,0.1000,0.6500*
%
%ADD65ROUNDEDRECTD65*%
G04:AMPARAMS|DCode=66|XSize=1.7mm|YSize=2.2mm|CornerRadius=0.45mm|HoleSize=0mm|Usage=FLASHONLY|Rotation=90.000|XOffset=0mm|YOffset=0mm|HoleType=Round|Shape=RoundedRectangle|*
%AMROUNDEDRECTD66*
21,1,1.7000,1.3000,0,0,90.0*
21,1,0.8000,2.2000,0,0,90.0*
1,1,0.9000,0.6500,0.4000*
1,1,0.9000,0.6500,-0.4000*
1,1,0.9000,-0.6500,-0.4000*
1,1,0.9000,-0.6500,0.4000*
%
%ADD66ROUNDEDRECTD66*%
G04:AMPARAMS|DCode=67|XSize=2mm|YSize=1.9mm|CornerRadius=0.5mm|HoleSize=0mm|Usage=FLASHONLY|Rotation=0.000|XOffset=0mm|YOffset=0mm|HoleType=Round|Shape=RoundedRectangle|*
%AMROUNDEDRECTD67*
21,1,2.0000,0.9000,0,0,0.0*
21,1,1.0000,1.9000,0,0,0.0*
1,1,1.0000,0.5000,-0.4500*
1,1,1.0000,-0.5000,-0.4500*
1,1,1.0000,-0.5000,0.4500*
1,1,1.0000,0.5000,0.4500*
%
%ADD67ROUNDEDRECTD67*%
%ADD68R,1.1160X0.8620*%
%ADD69R,2.2532X3.4532*%
%ADD70R,2.2532X1.2032*%
%ADD71R,0.6600X0.7000*%
%ADD72R,0.7000X0.6600*%
%ADD73O,0.7000X1.8000*%
%ADD74R,0.6500X0.8500*%
%ADD75C,0.8874*%
%ADD76R,0.8500X0.6500*%
%ADD77R,1.1500X0.7500*%
%ADD78R,3.3000X3.3000*%
%ADD79O,0.9750X0.3000*%
%ADD80O,0.3000X0.9750*%
G04:AMPARAMS|DCode=81|XSize=1.5mm|YSize=1.2mm|CornerRadius=0mm|HoleSize=0mm|Usage=FLASHONLY|Rotation=90.000|XOffset=0mm|YOffset=0mm|HoleType=Round|Shape=RoundedRectangle|*
%AMROUNDEDRECTD81*
21,1,1.5000,1.2000,0,0,90.0*
21,1,1.5000,1.2000,0,0,90.0*
1,1,0.0000,0.6000,0.7500*
1,1,0.0000,0.6000,-0.7500*
1,1,0.0000,-0.6000,-0.7500*
1,1,0.0000,-0.6000,0.7500*
%
%ADD81ROUNDEDRECTD81*%
%ADD82O,1.5500X0.7000*%
G04:AMPARAMS|DCode=83|XSize=1.1mm|YSize=1.7mm|CornerRadius=0mm|HoleSize=0mm|Usage=FLASHONLY|Rotation=270.000|XOffset=0mm|YOffset=0mm|HoleType=Round|Shape=RoundedRectangle|*
%AMROUNDEDRECTD83*
21,1,1.1000,1.7000,0,0,270.0*
21,1,1.1000,1.7000,0,0,270.0*
1,1,0.0000,-0.8500,-0.5500*
1,1,0.0000,-0.8500,0.5500*
1,1,0.0000,0.8500,0.5500*
1,1,0.0000,0.8500,-0.5500*
%
%ADD83ROUNDEDRECTD83*%
G04:AMPARAMS|DCode=84|XSize=0.9mm|YSize=0.65mm|CornerRadius=0mm|HoleSize=0mm|Usage=FLASHONLY|Rotation=0.000|XOffset=0mm|YOffset=0mm|HoleType=Round|Shape=RoundedRectangle|*
%AMROUNDEDRECTD84*
21,1,0.9000,0.6500,0,0,0.0*
21,1,0.9000,0.6500,0,0,0.0*
1,1,0.0000,0.4500,-0.3250*
1,1,0.0000,-0.4500,-0.3250*
1,1,0.0000,-0.4500,0.3250*
1,1,0.0000,0.4500,0.3250*
%
%ADD84ROUNDEDRECTD84*%
%ADD85R,0.7096X1.3700*%
%ADD86R,0.7096X1.1160*%
%ADD87R,4.0116X3.9100*%
G04:AMPARAMS|DCode=88|XSize=1.3mm|YSize=1.32mm|CornerRadius=0.35mm|HoleSize=0mm|Usage=FLASHONLY|Rotation=180.000|XOffset=0mm|YOffset=0mm|HoleType=Round|Shape=RoundedRectangle|*
%AMROUNDEDRECTD88*
21,1,1.3000,0.6200,0,0,180.0*
21,1,0.6000,1.3200,0,0,180.0*
1,1,0.7000,-0.3000,0.3100*
1,1,0.7000,0.3000,0.3100*
1,1,0.7000,0.3000,-0.3100*
1,1,0.7000,-0.3000,-0.3100*
%
%ADD88ROUNDEDRECTD88*%
%ADD89C,3.3000*%
%ADD90C,1.7200*%
G04:AMPARAMS|DCode=91|XSize=1.72mm|YSize=1.72mm|CornerRadius=0.455mm|HoleSize=0mm|Usage=FLASHONLY|Rotation=180.000|XOffset=0mm|YOffset=0mm|HoleType=Round|Shape=RoundedRectangle|*
%AMROUNDEDRECTD91*
21,1,1.7200,0.8100,0,0,180.0*
21,1,0.8100,1.7200,0,0,180.0*
1,1,0.9100,-0.4050,0.4050*
1,1,0.9100,0.4050,0.4050*
1,1,0.9100,0.4050,-0.4050*
1,1,0.9100,-0.4050,-0.4050*
%
%ADD91ROUNDEDRECTD91*%
%ADD92O,2.1000X3.1000*%
%ADD93C,1.7780*%
%ADD94C,2.4368*%
%ADD95C,0.9636*%
%ADD96C,3.1000*%
%ADD97C,3.1000*%
%ADD98C,3.0000*%
%ADD99C,0.8000*%
%ADD100C,0.9000*%
%ADD101C,1.2500*%
G36*
X939292Y544005D02*
D01*
D01*
D01*
D01*
D01*
D01*
D01*
D01*
D02*
G37*
G36*
X978408D02*
D01*
D01*
D01*
D01*
D01*
D01*
D01*
D01*
D02*
G37*
G36*
X1015492D02*
D01*
D01*
D01*
D01*
D01*
D01*
D01*
D01*
D02*
G37*
G36*
X1054608D02*
D01*
D01*
D01*
D01*
D01*
D01*
D01*
D01*
D02*
G37*
D50*
X846963Y273039D02*
D03*
X816737D02*
D03*
X846963Y831840D02*
D03*
X816737D02*
D03*
Y552439D02*
D03*
X846963D02*
D03*
D54*
X1048800Y622300D02*
D03*
X957800D02*
D03*
D56*
X850900Y67437D02*
D03*
Y97663D02*
D03*
D57*
X1586039Y76200D02*
G03*
X1586039Y76200I-11240J0D01*
G01*
Y584200D02*
G03*
X1586039Y584200I-11240J0D01*
G01*
X989139Y1066800D02*
G03*
X989139Y1066800I-11240J0D01*
G01*
X87439Y76200D02*
G03*
X87439Y76200I-11240J0D01*
G01*
X201740Y1066800D02*
G03*
X201740Y1066800I-11240J0D01*
G01*
D58*
X876300Y1109980D02*
D03*
X894080D02*
D03*
X1431290Y20320D02*
D03*
X1413510D02*
D03*
D59*
X764270Y157350D02*
D03*
Y133350D02*
D03*
Y109350D02*
D03*
Y947550D02*
D03*
Y971550D02*
D03*
Y995550D02*
D03*
Y668150D02*
D03*
Y692150D02*
D03*
Y716150D02*
D03*
Y388750D02*
D03*
Y412750D02*
D03*
Y436750D02*
D03*
D60*
X722270Y248350D02*
D03*
X707270D02*
D03*
X692270D02*
D03*
X677270D02*
D03*
Y1086550D02*
D03*
X692270D02*
D03*
X707270D02*
D03*
X722270D02*
D03*
X677270Y807150D02*
D03*
X692270D02*
D03*
X707270D02*
D03*
X722270D02*
D03*
X677270Y527750D02*
D03*
X692270D02*
D03*
X707270D02*
D03*
X722270D02*
D03*
D61*
X296770Y198350D02*
D03*
Y133350D02*
D03*
Y68350D02*
D03*
X785770Y203350D02*
D03*
Y63350D02*
D03*
Y901550D02*
D03*
Y1041550D02*
D03*
X296770Y906550D02*
D03*
Y971550D02*
D03*
Y1036550D02*
D03*
X785770Y622150D02*
D03*
Y762150D02*
D03*
X296770Y627150D02*
D03*
Y692150D02*
D03*
Y757150D02*
D03*
X785770Y342750D02*
D03*
Y482750D02*
D03*
X296770Y347750D02*
D03*
Y412750D02*
D03*
Y477750D02*
D03*
D62*
X1018540Y327660D02*
D03*
Y310642D02*
D03*
Y285369D02*
D03*
Y268351D02*
D03*
X894080Y1020191D02*
D03*
Y1037209D02*
D03*
X1098550Y503301D02*
D03*
Y520319D02*
D03*
D63*
X1376680Y20320D02*
D03*
X1393698D02*
D03*
X1142111Y347980D02*
D03*
X1159129D02*
D03*
X1077341Y450850D02*
D03*
X1094359D02*
D03*
X1077341Y476250D02*
D03*
X1094359D02*
D03*
D64*
X1418590Y119380D02*
D03*
X1436370D02*
D03*
D65*
X908920Y58230D02*
D03*
X915420D02*
D03*
X921920D02*
D03*
X928420D02*
D03*
X934920D02*
D03*
D66*
X890920Y55980D02*
D03*
X952920D02*
D03*
D67*
X959920Y30480D02*
D03*
X883920D02*
D03*
D68*
X1193800Y349250D02*
D03*
Y367030D02*
D03*
X1358900Y410210D02*
D03*
Y392430D02*
D03*
X1485900Y427990D02*
D03*
Y410210D02*
D03*
X1123950Y520700D02*
D03*
Y502920D02*
D03*
D69*
X1390650Y405130D02*
D03*
D70*
X1454150Y428130D02*
D03*
Y405130D02*
D03*
Y382130D02*
D03*
D71*
X1075400Y242191D02*
D03*
X1084100D02*
D03*
X1403390Y291391D02*
D03*
X1412090D02*
D03*
X1146100Y270191D02*
D03*
X1154800D02*
D03*
D72*
X1292450Y149841D02*
D03*
Y158541D02*
D03*
X1332450Y325841D02*
D03*
Y334541D02*
D03*
X1304450Y191841D02*
D03*
Y200541D02*
D03*
Y224541D02*
D03*
Y215841D02*
D03*
X1134450Y245841D02*
D03*
Y254541D02*
D03*
X1452450Y206541D02*
D03*
Y197841D02*
D03*
X1310450Y335841D02*
D03*
Y344541D02*
D03*
D73*
X1113500Y222677D02*
D03*
X1100800D02*
D03*
X1088100D02*
D03*
X1075400D02*
D03*
X1113500Y151677D02*
D03*
X1100800D02*
D03*
X1088100D02*
D03*
X1075400D02*
D03*
D74*
X1346950Y284191D02*
D03*
X1356450D02*
D03*
X1235430Y220191D02*
D03*
X1244930D02*
D03*
X1099700Y258191D02*
D03*
X1109200D02*
D03*
X1099700Y274958D02*
D03*
X1109200D02*
D03*
X1133700Y164191D02*
D03*
X1143200D02*
D03*
X1279200Y174191D02*
D03*
X1269700D02*
D03*
X1245200D02*
D03*
X1235700D02*
D03*
X1245200Y158191D02*
D03*
X1235700D02*
D03*
X1439200Y347241D02*
D03*
X1429700D02*
D03*
X1245200Y142191D02*
D03*
X1235700D02*
D03*
D75*
X1364100Y239491D02*
D03*
X1376800D02*
D03*
X1364100Y226791D02*
D03*
X1376800Y214091D02*
D03*
X1364100D02*
D03*
X1376800Y226791D02*
D03*
D76*
X1422450Y204941D02*
D03*
Y195441D02*
D03*
X1310450Y314941D02*
D03*
Y305441D02*
D03*
X1460450Y221441D02*
D03*
Y230941D02*
D03*
X1444450Y221441D02*
D03*
Y230941D02*
D03*
X1310450Y280791D02*
D03*
Y290291D02*
D03*
D77*
X1377700Y174191D02*
D03*
X1419200D02*
D03*
X1377700Y152691D02*
D03*
X1419200D02*
D03*
X1359200D02*
D03*
X1317700D02*
D03*
X1359200Y174191D02*
D03*
X1317700D02*
D03*
D78*
X1182450Y218191D02*
D03*
D79*
X1148075Y232191D02*
D03*
Y208191D02*
D03*
Y204191D02*
D03*
Y212191D02*
D03*
Y192191D02*
D03*
Y220191D02*
D03*
Y228191D02*
D03*
Y236191D02*
D03*
Y200191D02*
D03*
Y196191D02*
D03*
Y224191D02*
D03*
Y216191D02*
D03*
Y244191D02*
D03*
Y240191D02*
D03*
X1216825Y192191D02*
D03*
Y196191D02*
D03*
Y200191D02*
D03*
Y204191D02*
D03*
Y208191D02*
D03*
Y212191D02*
D03*
Y216191D02*
D03*
Y220191D02*
D03*
Y224191D02*
D03*
Y228191D02*
D03*
Y232191D02*
D03*
Y236191D02*
D03*
Y240191D02*
D03*
Y244191D02*
D03*
D80*
X1208450Y183816D02*
D03*
Y252566D02*
D03*
X1204450D02*
D03*
X1200450D02*
D03*
X1196450D02*
D03*
X1192450D02*
D03*
X1188450D02*
D03*
X1184450D02*
D03*
X1180450D02*
D03*
X1176450D02*
D03*
X1172450D02*
D03*
X1168450D02*
D03*
X1164450D02*
D03*
X1160450D02*
D03*
X1156450D02*
D03*
X1200450Y183816D02*
D03*
X1196450D02*
D03*
X1192450D02*
D03*
X1188450D02*
D03*
X1184450D02*
D03*
X1180450D02*
D03*
X1176450D02*
D03*
X1172450D02*
D03*
X1168450D02*
D03*
X1164450D02*
D03*
X1160450D02*
D03*
X1156450D02*
D03*
X1204450D02*
D03*
D81*
X1282450Y198191D02*
D03*
Y218511D02*
D03*
X1264670D02*
D03*
Y198191D02*
D03*
D82*
X1355200Y347241D02*
D03*
Y334541D02*
D03*
Y321841D02*
D03*
Y309141D02*
D03*
X1409700Y347241D02*
D03*
Y334541D02*
D03*
Y321841D02*
D03*
Y309141D02*
D03*
X1235200Y344291D02*
D03*
Y331591D02*
D03*
Y318891D02*
D03*
Y306191D02*
D03*
Y293491D02*
D03*
Y280791D02*
D03*
Y268091D02*
D03*
X1289700Y344291D02*
D03*
Y331591D02*
D03*
Y318891D02*
D03*
Y306191D02*
D03*
Y293491D02*
D03*
Y280791D02*
D03*
Y268091D02*
D03*
D83*
X1470950Y285691D02*
D03*
Y268191D02*
D03*
Y250691D02*
D03*
X1433950D02*
D03*
Y268191D02*
D03*
Y285691D02*
D03*
D84*
X1278450Y149691D02*
D03*
X1262450D02*
D03*
Y158691D02*
D03*
X1278450D02*
D03*
D85*
X1016000Y516255D02*
D03*
X1028700D02*
D03*
X1041400D02*
D03*
X1054100D02*
D03*
X939800D02*
D03*
X952500D02*
D03*
X965200D02*
D03*
X977900D02*
D03*
D86*
X1054100Y570865D02*
D03*
X1041400D02*
D03*
X1028700D02*
D03*
X1016000D02*
D03*
X977900D02*
D03*
X965200D02*
D03*
X952500D02*
D03*
X939800D02*
D03*
D87*
X1035050Y549783D02*
D03*
X958850D02*
D03*
D88*
X1054800Y425450D02*
D03*
X1091500D02*
D03*
D89*
X1371600Y590550D02*
D03*
Y546200D02*
D03*
X1327250D02*
D03*
X1415950D02*
D03*
Y590550D02*
D03*
X1327250D02*
D03*
Y634900D02*
D03*
X1371600D02*
D03*
X1415950D02*
D03*
X1206500Y590550D02*
D03*
Y546200D02*
D03*
X1162150D02*
D03*
X1250850D02*
D03*
Y590550D02*
D03*
X1162150D02*
D03*
Y634900D02*
D03*
X1206500D02*
D03*
X1250850D02*
D03*
X1022250Y971450D02*
D03*
X977900D02*
D03*
X933550D02*
D03*
Y927100D02*
D03*
X1022250D02*
D03*
Y882750D02*
D03*
X933550D02*
D03*
X977900D02*
D03*
Y927100D02*
D03*
X1022250Y717650D02*
D03*
Y762000D02*
D03*
Y806350D02*
D03*
X977900D02*
D03*
Y717650D02*
D03*
X933550D02*
D03*
Y806350D02*
D03*
Y762000D02*
D03*
X977900D02*
D03*
D90*
X444500Y1117600D02*
D03*
X469900D02*
D03*
X495300D02*
D03*
X975360Y114300D02*
D03*
X1026160D02*
D03*
X1051560D02*
D03*
X1076960D02*
D03*
X1000760Y88900D02*
D03*
X1051560D02*
D03*
X1076960D02*
D03*
X1000760Y114300D02*
D03*
X1026160Y88900D02*
D03*
X444500Y558800D02*
D03*
X469900D02*
D03*
X495300D02*
D03*
Y279400D02*
D03*
X469900D02*
D03*
X444500D02*
D03*
Y838200D02*
D03*
X469900D02*
D03*
X495300D02*
D03*
D91*
X520700Y1117600D02*
D03*
X975360Y88900D02*
D03*
X520700Y558800D02*
D03*
Y279400D02*
D03*
Y838200D02*
D03*
D92*
X719270Y22350D02*
D03*
X679270D02*
D03*
Y860550D02*
D03*
X719270D02*
D03*
X679270Y581150D02*
D03*
X719270D02*
D03*
X679270Y301750D02*
D03*
X719270D02*
D03*
D93*
X1554826Y322973D02*
D03*
Y292973D02*
D03*
Y262973D02*
D03*
X1524826Y322973D02*
D03*
Y292973D02*
D03*
Y262973D02*
D03*
D94*
X1345050Y220441D02*
D03*
X1395850D02*
D03*
Y252191D02*
D03*
X1345050D02*
D03*
D95*
X1360290Y201391D02*
D03*
X1380610D02*
D03*
X1370450Y252191D02*
D03*
D96*
X197494Y654500D02*
D03*
Y612500D02*
D03*
X142494Y654500D02*
D03*
Y612500D02*
D03*
D97*
X197494Y570500D02*
D03*
Y528500D02*
D03*
X142494Y528500D02*
D03*
Y570500D02*
D03*
X197494Y486500D02*
D03*
X142494D02*
D03*
X197494Y444500D02*
D03*
X142494D02*
D03*
D98*
X69494D02*
D03*
Y654500D02*
D03*
D99*
X1195070Y172720D02*
D03*
X1160450Y216191D02*
D03*
X1419200Y162191D02*
D03*
X1377700D02*
D03*
X1359200D02*
D03*
X1310450Y327491D02*
D03*
X1442450Y336191D02*
D03*
X1206450Y216191D02*
D03*
X1317700Y162191D02*
D03*
X1302450Y158541D02*
D03*
X1160450Y236191D02*
D03*
X1356450Y272191D02*
D03*
X1314950Y227285D02*
D03*
X1312450Y208191D02*
D03*
X1298450Y250691D02*
D03*
X1400114Y272191D02*
D03*
X1340450Y320191D02*
D03*
X1404450Y282191D02*
D03*
X1424292Y298034D02*
D03*
X1440450Y197841D02*
D03*
X1204450Y225165D02*
D03*
X1092450Y244191D02*
D03*
X1152450Y174191D02*
D03*
X1218450Y164191D02*
D03*
X1135700Y266191D02*
D03*
D100*
X1182799Y367617D02*
D03*
X1470660Y383540D02*
D03*
X1485900Y396240D02*
D03*
X1359075Y380825D02*
D03*
X1370472Y192109D02*
D03*
X1193450Y229191D02*
D03*
X1171450D02*
D03*
Y207191D02*
D03*
X1193450D02*
D03*
X1342450Y334191D02*
D03*
X1252316Y274325D02*
D03*
D101*
X1390450Y300191D02*
D03*
X1409010Y205031D02*
D03*
X1208350Y324411D02*
D03*
X1124450Y278191D02*
D03*
X1075400Y204191D02*
D03*
X1147390Y324411D02*
D03*
M02*
