G04*
G04 #@! TF.GenerationSoftware,Altium Limited,Altium Designer,24.9.1 (31)*
G04*
G04 Layer_Physical_Order=1*
G04 Layer_Color=255*
%FSLAX25Y25*%
%MOIN*%
G70*
G04*
G04 #@! TF.SameCoordinates,4FD8CB89-A412-4131-9868-04C68DA5EDAD*
G04*
G04*
G04 #@! TF.FilePolarity,Positive*
G04*
G01*
G75*
%ADD10C,0.02000*%
%ADD11C,0.01000*%
%ADD13C,0.00984*%
%ADD17C,0.00800*%
%ADD19C,0.00787*%
%ADD20C,0.01500*%
%ADD23R,0.03200X0.03200*%
G04:AMPARAMS|DCode=24|XSize=141.73mil|YSize=82.68mil|CornerRadius=20.67mil|HoleSize=0mil|Usage=FLASHONLY|Rotation=180.000|XOffset=0mil|YOffset=0mil|HoleType=Round|Shape=RoundedRectangle|*
%AMROUNDEDRECTD24*
21,1,0.14173,0.04134,0,0,180.0*
21,1,0.10039,0.08268,0,0,180.0*
1,1,0.04134,-0.05020,0.02067*
1,1,0.04134,0.05020,0.02067*
1,1,0.04134,0.05020,-0.02067*
1,1,0.04134,-0.05020,-0.02067*
%
%ADD24ROUNDEDRECTD24*%
%ADD25O,0.03937X0.07874*%
G04:AMPARAMS|DCode=26|XSize=334.65mil|YSize=204.72mil|CornerRadius=51.18mil|HoleSize=0mil|Usage=FLASHONLY|Rotation=180.000|XOffset=0mil|YOffset=0mil|HoleType=Round|Shape=RoundedRectangle|*
%AMROUNDEDRECTD26*
21,1,0.33465,0.10236,0,0,180.0*
21,1,0.23228,0.20472,0,0,180.0*
1,1,0.10236,-0.11614,0.05118*
1,1,0.10236,0.11614,0.05118*
1,1,0.10236,0.11614,-0.05118*
1,1,0.10236,-0.11614,-0.05118*
%
%ADD26ROUNDEDRECTD26*%
%ADD27R,0.04500X0.04000*%
%ADD28R,0.04000X0.04500*%
%ADD29R,0.03000X0.04000*%
G04:AMPARAMS|DCode=30|XSize=15.75mil|YSize=59.06mil|CornerRadius=3.94mil|HoleSize=0mil|Usage=FLASHONLY|Rotation=0.000|XOffset=0mil|YOffset=0mil|HoleType=Round|Shape=RoundedRectangle|*
%AMROUNDEDRECTD30*
21,1,0.01575,0.05118,0,0,0.0*
21,1,0.00787,0.05906,0,0,0.0*
1,1,0.00787,0.00394,-0.02559*
1,1,0.00787,-0.00394,-0.02559*
1,1,0.00787,-0.00394,0.02559*
1,1,0.00787,0.00394,0.02559*
%
%ADD30ROUNDEDRECTD30*%
G04:AMPARAMS|DCode=31|XSize=62.99mil|YSize=82.68mil|CornerRadius=15.75mil|HoleSize=0mil|Usage=FLASHONLY|Rotation=90.000|XOffset=0mil|YOffset=0mil|HoleType=Round|Shape=RoundedRectangle|*
%AMROUNDEDRECTD31*
21,1,0.06299,0.05118,0,0,90.0*
21,1,0.03150,0.08268,0,0,90.0*
1,1,0.03150,0.02559,0.01575*
1,1,0.03150,0.02559,-0.01575*
1,1,0.03150,-0.02559,-0.01575*
1,1,0.03150,-0.02559,0.01575*
%
%ADD31ROUNDEDRECTD31*%
G04:AMPARAMS|DCode=32|XSize=74.8mil|YSize=70.87mil|CornerRadius=17.72mil|HoleSize=0mil|Usage=FLASHONLY|Rotation=0.000|XOffset=0mil|YOffset=0mil|HoleType=Round|Shape=RoundedRectangle|*
%AMROUNDEDRECTD32*
21,1,0.07480,0.03543,0,0,0.0*
21,1,0.03937,0.07087,0,0,0.0*
1,1,0.03543,0.01968,-0.01772*
1,1,0.03543,-0.01968,-0.01772*
1,1,0.03543,-0.01968,0.01772*
1,1,0.03543,0.01968,0.01772*
%
%ADD32ROUNDEDRECTD32*%
%ADD33R,0.04000X0.03000*%
%ADD34R,0.08071X0.12795*%
%ADD35R,0.08071X0.03937*%
%ADD36R,0.02205X0.02362*%
%ADD37R,0.02362X0.02205*%
%ADD38O,0.02362X0.06693*%
%ADD39R,0.02165X0.02953*%
%ADD40C,0.03100*%
%ADD41R,0.02953X0.02165*%
%ADD42R,0.04134X0.02559*%
%ADD43R,0.12598X0.12598*%
%ADD44O,0.03445X0.00787*%
%ADD45O,0.00787X0.03445*%
G04:AMPARAMS|DCode=46|XSize=55.12mil|YSize=43.31mil|CornerRadius=0mil|HoleSize=0mil|Usage=FLASHONLY|Rotation=90.000|XOffset=0mil|YOffset=0mil|HoleType=Round|Shape=RoundedRectangle|*
%AMROUNDEDRECTD46*
21,1,0.05512,0.04331,0,0,90.0*
21,1,0.05512,0.04331,0,0,90.0*
1,1,0.00000,0.02165,0.02756*
1,1,0.00000,0.02165,-0.02756*
1,1,0.00000,-0.02165,-0.02756*
1,1,0.00000,-0.02165,0.02756*
%
%ADD46ROUNDEDRECTD46*%
%ADD47O,0.05709X0.02362*%
G04:AMPARAMS|DCode=48|XSize=39.37mil|YSize=62.99mil|CornerRadius=0mil|HoleSize=0mil|Usage=FLASHONLY|Rotation=270.000|XOffset=0mil|YOffset=0mil|HoleType=Round|Shape=RoundedRectangle|*
%AMROUNDEDRECTD48*
21,1,0.03937,0.06299,0,0,270.0*
21,1,0.03937,0.06299,0,0,270.0*
1,1,0.00000,-0.03150,-0.01968*
1,1,0.00000,-0.03150,0.01968*
1,1,0.00000,0.03150,0.01968*
1,1,0.00000,0.03150,-0.01968*
%
%ADD48ROUNDEDRECTD48*%
G04:AMPARAMS|DCode=49|XSize=31.5mil|YSize=21.65mil|CornerRadius=0mil|HoleSize=0mil|Usage=FLASHONLY|Rotation=0.000|XOffset=0mil|YOffset=0mil|HoleType=Round|Shape=RoundedRectangle|*
%AMROUNDEDRECTD49*
21,1,0.03150,0.02165,0,0,0.0*
21,1,0.03150,0.02165,0,0,0.0*
1,1,0.00000,0.01575,-0.01083*
1,1,0.00000,-0.01575,-0.01083*
1,1,0.00000,-0.01575,0.01083*
1,1,0.00000,0.01575,0.01083*
%
%ADD49ROUNDEDRECTD49*%
%ADD50R,0.04200X0.06800*%
%ADD51R,0.02400X0.05000*%
%ADD52R,0.02400X0.04000*%
%ADD53R,0.15400X0.15000*%
%ADD54R,0.18504X0.22835*%
G04:AMPARAMS|DCode=55|XSize=47.24mil|YSize=48.03mil|CornerRadius=11.81mil|HoleSize=0mil|Usage=FLASHONLY|Rotation=180.000|XOffset=0mil|YOffset=0mil|HoleType=Round|Shape=RoundedRectangle|*
%AMROUNDEDRECTD55*
21,1,0.04724,0.02441,0,0,180.0*
21,1,0.02362,0.04803,0,0,180.0*
1,1,0.02362,-0.01181,0.01221*
1,1,0.02362,0.01181,0.01221*
1,1,0.02362,0.01181,-0.01221*
1,1,0.02362,-0.01181,-0.01221*
%
%ADD55ROUNDEDRECTD55*%
%ADD56R,0.06800X0.04200*%
%ADD93C,0.07000*%
%ADD98C,0.11811*%
%ADD99C,0.03150*%
%ADD102C,0.07000*%
%ADD103C,0.01200*%
%ADD104C,0.03000*%
%ADD105C,0.06000*%
%ADD106C,0.01575*%
%ADD107C,0.01181*%
%ADD108C,0.17700*%
%ADD109C,0.12598*%
%ADD110C,0.06378*%
G04:AMPARAMS|DCode=111|XSize=63.78mil|YSize=63.78mil|CornerRadius=15.95mil|HoleSize=0mil|Usage=FLASHONLY|Rotation=180.000|XOffset=0mil|YOffset=0mil|HoleType=Round|Shape=RoundedRectangle|*
%AMROUNDEDRECTD111*
21,1,0.06378,0.03189,0,0,180.0*
21,1,0.03189,0.06378,0,0,180.0*
1,1,0.03189,-0.01595,0.01595*
1,1,0.03189,0.01595,0.01595*
1,1,0.03189,0.01595,-0.01595*
1,1,0.03189,-0.01595,-0.01595*
%
%ADD111ROUNDEDRECTD111*%
%ADD112O,0.07874X0.11811*%
%ADD113C,0.12000*%
%ADD114C,0.09200*%
%ADD115C,0.03400*%
%ADD116C,0.11811*%
%ADD117C,0.02500*%
%ADD118C,0.02756*%
%ADD119C,0.04000*%
%ADD120C,0.04528*%
%ADD121C,0.03000*%
G36*
X332500Y400000D02*
X315000D01*
Y420000D01*
X332500D01*
Y400000D01*
D02*
G37*
G36*
X327500Y320000D02*
X305000D01*
X292500Y332500D01*
Y365000D01*
X327500D01*
Y320000D01*
D02*
G37*
G36*
Y290000D02*
X315000D01*
Y310000D01*
X327500D01*
Y290000D01*
D02*
G37*
G36*
X414197Y285000D02*
X414199Y284990D01*
X414197Y284980D01*
X414228Y283754D01*
X414234Y283724D01*
X414231Y283695D01*
X414472Y281253D01*
X414483Y281215D01*
Y281175D01*
X414962Y278769D01*
X414977Y278732D01*
X414981Y278693D01*
X415000Y278630D01*
Y275000D01*
Y272500D01*
X390000Y247500D01*
Y232635D01*
X389865Y232500D01*
X367500D01*
X360000Y240000D01*
Y275000D01*
Y395000D01*
X414197D01*
Y285000D01*
D02*
G37*
G36*
X327500Y210000D02*
X305000D01*
X292500Y222500D01*
Y255000D01*
X327500D01*
Y210000D01*
D02*
G37*
G36*
X422500Y205000D02*
X420382D01*
X416959Y208422D01*
X416536Y208705D01*
X416037Y208805D01*
X395000D01*
X394501Y208705D01*
X394077Y208422D01*
X390655Y205000D01*
X386987D01*
Y206537D01*
X383013D01*
Y206537D01*
X381987D01*
Y206537D01*
X378013D01*
Y206537D01*
X376987D01*
Y206537D01*
X373013D01*
Y206537D01*
X371987D01*
Y206537D01*
X368013D01*
X367500Y208325D01*
Y230000D01*
X388500Y230000D01*
X392500Y234000D01*
Y247500D01*
X402500Y257500D01*
X422500D01*
Y205000D01*
D02*
G37*
G36*
X327500Y180000D02*
X315000D01*
Y200000D01*
X327500D01*
Y180000D01*
D02*
G37*
G36*
X588200Y113681D02*
X583051D01*
Y115233D01*
X577213D01*
X577210Y115238D01*
X559887Y132561D01*
X559496Y132822D01*
X559035Y132913D01*
X559035Y132913D01*
X558236D01*
X558092Y133128D01*
X557441Y133563D01*
X556673Y133716D01*
X553327D01*
X552559Y133563D01*
X551908Y133128D01*
X551473Y132477D01*
X551320Y131709D01*
X551473Y130941D01*
X551908Y130290D01*
X552559Y129855D01*
X553327Y129702D01*
X556673D01*
X557441Y129855D01*
X558092Y130290D01*
X558113Y130321D01*
X558679Y130363D01*
X575177Y113864D01*
Y110211D01*
X569707D01*
X568484Y111433D01*
Y115233D01*
X565758D01*
Y118835D01*
X565758Y118835D01*
X565666Y119298D01*
X565403Y119691D01*
X565403Y119691D01*
X558631Y126463D01*
X558680Y126709D01*
X558528Y127477D01*
X558092Y128128D01*
X557441Y128563D01*
X556673Y128716D01*
X553327D01*
X552559Y128563D01*
X551908Y128128D01*
X551473Y127477D01*
X551320Y126709D01*
X551473Y125941D01*
X551908Y125290D01*
X552559Y124855D01*
X553327Y124702D01*
X556673D01*
X556919Y124751D01*
X561947Y119723D01*
X561664Y119299D01*
X561176Y119501D01*
X560314D01*
X559518Y119172D01*
X558909Y118563D01*
X558580Y117767D01*
Y116905D01*
X558589Y116883D01*
X558230Y116524D01*
X557831Y116689D01*
Y116689D01*
X554051D01*
Y113429D01*
X553636Y113152D01*
X553364Y113264D01*
X552502D01*
X551707Y112935D01*
X551097Y112325D01*
X550768Y111530D01*
Y110668D01*
X551097Y109872D01*
X551181Y109789D01*
X550989Y109327D01*
X550795D01*
X549999Y108997D01*
X549390Y108388D01*
X549060Y107592D01*
Y106731D01*
X549390Y105935D01*
X549888Y105438D01*
X549730Y104938D01*
X548803D01*
X547366Y104553D01*
X546078Y103809D01*
X545026Y102757D01*
X544282Y101469D01*
X543897Y100032D01*
Y99565D01*
X543786Y99506D01*
X543786D01*
X543380Y98431D01*
Y95143D01*
X543986Y94537D01*
X544912D01*
X545053Y94277D01*
X545093Y94037D01*
X542632Y91576D01*
X542512Y91625D01*
X541582D01*
X540723Y91269D01*
X540066Y90612D01*
X539818Y90013D01*
X539277D01*
X539029Y90612D01*
X538371Y91269D01*
X537773Y91517D01*
Y92058D01*
X538371Y92306D01*
X539029Y92964D01*
X539385Y93823D01*
Y94753D01*
X539029Y95612D01*
X538611Y96030D01*
X538634Y96168D01*
X539185Y96538D01*
X539909D01*
X540609Y96725D01*
X541236Y97087D01*
X541748Y97599D01*
X542110Y98226D01*
X542297Y98926D01*
Y99650D01*
X542110Y100349D01*
X541748Y100976D01*
X541236Y101488D01*
X540609Y101850D01*
X539909Y102038D01*
X539185D01*
X538486Y101850D01*
X537859Y101488D01*
X537347Y100976D01*
X537295Y100887D01*
X536795Y101021D01*
Y101791D01*
X536795Y101791D01*
X536703Y102252D01*
X536443Y102643D01*
X534551Y104534D01*
X534699Y105093D01*
X535262Y105326D01*
X535871Y105935D01*
X536201Y106731D01*
Y107592D01*
X535871Y108388D01*
X535262Y108997D01*
X535240Y109007D01*
Y109623D01*
X535906D01*
Y114150D01*
X532165D01*
Y109623D01*
X532831D01*
Y109007D01*
X532809Y108997D01*
X532200Y108388D01*
X532191Y108366D01*
X523481D01*
X523020Y108274D01*
X522630Y108013D01*
X522630Y108013D01*
X513828Y99212D01*
X513270Y99361D01*
X513036Y99924D01*
X512427Y100533D01*
X511631Y100863D01*
X510770D01*
X509974Y100533D01*
X509365Y99924D01*
X509035Y99128D01*
Y98917D01*
X496314D01*
X495853Y98826D01*
X495462Y98564D01*
X492665Y95768D01*
X481902D01*
X481598Y96138D01*
X481506Y96599D01*
X481245Y96990D01*
X480873Y97238D01*
X480853Y97255D01*
X480716Y97788D01*
X480753Y97825D01*
X481083Y98621D01*
Y99482D01*
X480907Y99906D01*
X481241Y100406D01*
X492771D01*
X492771Y100406D01*
X493231Y100498D01*
X493622Y100759D01*
X498846Y105982D01*
X498846Y105982D01*
X499107Y106373D01*
X499198Y106834D01*
Y107312D01*
X505536Y113649D01*
X506083Y113541D01*
X509429D01*
X510197Y113693D01*
X510848Y114128D01*
X511283Y114780D01*
X511436Y115548D01*
X511283Y116316D01*
X510848Y116967D01*
X510197Y117402D01*
X509429Y117555D01*
X508279D01*
X508228Y117721D01*
X508193Y118174D01*
X508533Y118541D01*
X509429D01*
X510197Y118693D01*
X510848Y119128D01*
X511283Y119780D01*
X511436Y120548D01*
X511283Y121316D01*
X510848Y121967D01*
X510197Y122402D01*
X509429Y122555D01*
X507857D01*
X507809Y123174D01*
X508149Y123541D01*
X509429D01*
X510197Y123693D01*
X510848Y124128D01*
X511283Y124780D01*
X511436Y125548D01*
X511292Y126275D01*
X511314Y126304D01*
X511852Y126421D01*
X513650Y124624D01*
X513661Y124565D01*
Y122123D01*
X518189D01*
Y125863D01*
X515776D01*
X515694Y125986D01*
X515374Y126306D01*
X515399Y126403D01*
X515619Y126768D01*
X516356D01*
X517152Y127098D01*
X517761Y127707D01*
X518090Y128503D01*
Y129364D01*
X517897Y129832D01*
X517894Y130331D01*
X517894Y130331D01*
X517894Y130331D01*
Y134111D01*
X513957D01*
Y130331D01*
X513957Y130331D01*
X513957D01*
X513954Y129832D01*
X513760Y129364D01*
Y128627D01*
X513394Y128407D01*
X513298Y128382D01*
X511386Y130294D01*
X511436Y130548D01*
X511283Y131316D01*
X510848Y131967D01*
X510197Y132402D01*
X509429Y132555D01*
X507087D01*
X506795Y136358D01*
X507134Y136725D01*
X521590D01*
X522457Y135858D01*
X522457Y135857D01*
X522848Y135597D01*
X523309Y135505D01*
X523309Y135505D01*
X530307D01*
X530451Y135290D01*
X531102Y134855D01*
X531870Y134702D01*
X535217D01*
X535875Y134833D01*
X536375Y134560D01*
Y133858D01*
X535875Y133585D01*
X535217Y133716D01*
X531870D01*
X531102Y133563D01*
X530627Y133246D01*
X530190D01*
X529862Y133574D01*
X528994Y133933D01*
X528054D01*
X527185Y133574D01*
X527055Y133443D01*
X526555Y133599D01*
Y133599D01*
X522618D01*
Y129819D01*
Y126394D01*
X524284D01*
X525378Y125301D01*
X525378Y125301D01*
X525833Y124997D01*
X525901Y124833D01*
X526424Y124310D01*
Y120664D01*
X526523Y120161D01*
X526808Y119736D01*
X528872Y117672D01*
X529298Y117387D01*
X529800Y117287D01*
X537000D01*
X537502Y117387D01*
X537928Y117672D01*
X541328Y121072D01*
X541613Y121498D01*
X541713Y122000D01*
Y140000D01*
X588200D01*
Y113681D01*
D02*
G37*
G36*
X357500Y240000D02*
X365000Y232500D01*
Y212500D01*
X365000Y212500D01*
X365024Y212010D01*
X365215Y211049D01*
X365590Y210143D01*
X366135Y209328D01*
X366697Y208766D01*
Y208325D01*
X366719Y208215D01*
X366728Y208104D01*
X367241Y206316D01*
X367262Y206275D01*
X367271Y206230D01*
X367333Y206137D01*
X367384Y206038D01*
X367419Y206008D01*
X367445Y205970D01*
X367538Y205908D01*
X367623Y205835D01*
X367667Y205821D01*
X367705Y205796D01*
X367815Y205774D01*
X367922Y205740D01*
X367968Y205744D01*
X368013Y205735D01*
X371987D01*
X371988Y205735D01*
X373012D01*
X373013Y205735D01*
X376987D01*
X376988Y205735D01*
X378012D01*
X378013Y205735D01*
X381987D01*
X381988Y205735D01*
X383013D01*
X383013Y205735D01*
Y199963D01*
X386987D01*
Y201945D01*
X390750D01*
X391249Y202045D01*
X391672Y202327D01*
X395540Y206195D01*
X413013D01*
Y199963D01*
X415142D01*
X417500Y197605D01*
Y137500D01*
X404499Y124499D01*
X404037Y124691D01*
Y125087D01*
X397963D01*
Y119513D01*
X398859D01*
X399051Y119051D01*
X372500Y92500D01*
X372500Y57500D01*
X357500Y42500D01*
Y42500D01*
X350000Y35000D01*
X330000D01*
Y69197D01*
X335000D01*
X335307Y69258D01*
X335568Y69432D01*
X335742Y69693D01*
X335803Y70000D01*
Y90000D01*
X335742Y90307D01*
X335568Y90568D01*
X335307Y90742D01*
X335000Y90803D01*
X330000D01*
Y335000D01*
X357500D01*
Y240000D01*
D02*
G37*
G36*
X483573Y139538D02*
X481412Y137378D01*
X481151Y136987D01*
X481060Y136526D01*
X481060Y136526D01*
Y132910D01*
X481060Y132910D01*
X481151Y132449D01*
X481412Y132058D01*
X482669Y130801D01*
X482619Y130548D01*
X482772Y129780D01*
X483207Y129128D01*
X483858Y128693D01*
X484626Y128541D01*
X485228D01*
Y127555D01*
X484626D01*
X483858Y127402D01*
X483207Y126967D01*
X482772Y126316D01*
X482619Y125548D01*
X482772Y124780D01*
X483207Y124128D01*
X483858Y123693D01*
X484626Y123541D01*
X485228D01*
Y122555D01*
X484626D01*
X483858Y122402D01*
X483207Y121967D01*
X482772Y121316D01*
X482649Y120700D01*
X467042Y105093D01*
X466781Y104702D01*
X466689Y104242D01*
X466689Y104242D01*
Y102272D01*
X466319Y101968D01*
X465858Y101877D01*
X465531Y101659D01*
X465205Y101877D01*
X464744Y101968D01*
X464283Y101877D01*
X463957Y101659D01*
X463630Y101877D01*
X463169Y101968D01*
X462709Y101877D01*
X462382Y101659D01*
X462055Y101877D01*
X461594Y101968D01*
X461134Y101877D01*
X460807Y101659D01*
X460480Y101877D01*
X460020Y101968D01*
X459649Y102272D01*
Y119256D01*
X460225Y119832D01*
X460225Y119832D01*
X460486Y120223D01*
X460578Y120684D01*
Y140000D01*
X483381D01*
X483573Y139538D01*
D02*
G37*
G36*
X327500Y100000D02*
X305000D01*
X292500Y112500D01*
Y145000D01*
X327500D01*
Y100000D01*
D02*
G37*
G36*
X478449Y112507D02*
X478658Y112120D01*
X478454Y111669D01*
X478409Y111660D01*
X478018Y111399D01*
X478018Y111399D01*
X470192Y103573D01*
X469931Y103182D01*
X469839Y102721D01*
X469839Y102721D01*
Y98107D01*
X469931Y97646D01*
X470192Y97255D01*
X470582Y96994D01*
X471043Y96903D01*
X471504Y96994D01*
X471831Y97212D01*
X472157Y96994D01*
X472618Y96903D01*
X473079Y96994D01*
X473406Y97212D01*
X473732Y96994D01*
X474193Y96903D01*
X474654Y96994D01*
X474980Y97212D01*
X475307Y96994D01*
X475768Y96903D01*
X476229Y96994D01*
X476333Y97064D01*
X476693Y96703D01*
X476624Y96599D01*
X476532Y96138D01*
X476624Y95677D01*
X476842Y95351D01*
X476624Y95024D01*
X476532Y94563D01*
X476624Y94103D01*
X476842Y93776D01*
X476624Y93449D01*
X476532Y92989D01*
X476624Y92528D01*
X476842Y92201D01*
X476624Y91875D01*
X476532Y91414D01*
X476624Y90953D01*
X476842Y90626D01*
X476624Y90300D01*
X476549Y89924D01*
X476264Y89823D01*
X476055Y89810D01*
X476029Y89874D01*
X475420Y90483D01*
X474624Y90813D01*
X473762D01*
X473118Y90546D01*
X472618Y90788D01*
Y92989D01*
X463728D01*
Y96632D01*
X463728Y96632D01*
X463745Y96752D01*
X464283Y96994D01*
X464744Y96903D01*
X465205Y96994D01*
X465531Y97212D01*
X465858Y96994D01*
X466319Y96903D01*
X466780Y96994D01*
X467106Y97212D01*
X467433Y96994D01*
X467894Y96903D01*
X468355Y96994D01*
X468745Y97255D01*
X469006Y97646D01*
X469098Y98107D01*
Y100764D01*
X469098Y100764D01*
Y103743D01*
X477947Y112591D01*
X478449Y112507D01*
D02*
G37*
G36*
X431083Y99386D02*
X434323D01*
X434823Y99386D01*
Y99386D01*
X434823D01*
Y99386D01*
X438563D01*
Y101653D01*
X439025Y101844D01*
X440846Y100023D01*
Y95591D01*
X440346Y95308D01*
X440017Y95374D01*
X440017Y95374D01*
X432667D01*
X432284Y95691D01*
X432264Y95857D01*
Y96569D01*
X431934Y97365D01*
X431325Y97974D01*
X430529Y98304D01*
X429668D01*
X428872Y97974D01*
X428263Y97365D01*
X428244Y97319D01*
X424921D01*
Y93382D01*
X428701D01*
Y93745D01*
X429311D01*
X429311Y93745D01*
X429532Y93789D01*
X429778Y93328D01*
X428267Y91817D01*
X427618Y91688D01*
X426967Y91252D01*
X426532Y90601D01*
X426379Y89833D01*
Y85503D01*
X426532Y84734D01*
X426967Y84083D01*
X427618Y83648D01*
X428386Y83495D01*
X429154Y83648D01*
X429805Y84083D01*
X430240Y84734D01*
X430393Y85503D01*
Y89833D01*
X430276Y90420D01*
X432822Y92966D01*
X433762D01*
X433954Y92503D01*
X433267Y91817D01*
X432618Y91688D01*
X431967Y91252D01*
X431531Y90601D01*
X431379Y89833D01*
Y85503D01*
X431531Y84734D01*
X431967Y84083D01*
X432618Y83648D01*
X433386Y83495D01*
X434154Y83648D01*
X434805Y84083D01*
X435240Y84734D01*
X435393Y85503D01*
Y89833D01*
X435276Y90420D01*
X436016Y91160D01*
X436282Y91127D01*
X436531Y90602D01*
X436530Y90593D01*
X436379Y89833D01*
Y85503D01*
X436531Y84734D01*
X436967Y84083D01*
X437618Y83648D01*
X438386Y83495D01*
X439154Y83648D01*
X439248Y83711D01*
X443356Y79603D01*
X432534Y68781D01*
X432273Y68390D01*
X432182Y67930D01*
X432182Y67930D01*
Y63443D01*
X431967Y63300D01*
X431531Y62649D01*
X431379Y61880D01*
Y57550D01*
X431424Y57321D01*
X430964Y57075D01*
X430393Y57645D01*
Y61880D01*
X430240Y62649D01*
X429805Y63300D01*
X429154Y63735D01*
X428386Y63888D01*
X427618Y63735D01*
X426967Y63300D01*
X426532Y62649D01*
X426379Y61880D01*
Y57550D01*
X426424Y57321D01*
X425963Y57075D01*
X425393Y57645D01*
Y61880D01*
X425240Y62649D01*
X424805Y63300D01*
X424154Y63735D01*
X423386Y63888D01*
X422618Y63735D01*
X421967Y63300D01*
X421531Y62649D01*
X421379Y61880D01*
Y57550D01*
X421531Y56782D01*
X421967Y56131D01*
X422618Y55695D01*
X423386Y55543D01*
X423973Y55660D01*
X426871Y52761D01*
X426871Y52761D01*
X427261Y52500D01*
X427722Y52409D01*
X440017D01*
X440017Y52409D01*
X440477Y52500D01*
X440868Y52761D01*
X447190Y59083D01*
X447190Y59083D01*
X447451Y59474D01*
X447543Y59935D01*
X447543Y59935D01*
Y62378D01*
X448209D01*
Y66906D01*
X447543D01*
Y70836D01*
X451168Y74462D01*
X453979D01*
X453979Y74462D01*
X454440Y74553D01*
X454831Y74814D01*
X455129Y75113D01*
X455938Y75096D01*
X456085Y74593D01*
X456018Y74549D01*
X455758Y74158D01*
X455666Y73697D01*
Y71040D01*
Y45500D01*
X427976D01*
Y45524D01*
X427705Y46535D01*
X427182Y47442D01*
X426442Y48182D01*
X425535Y48705D01*
X424523Y48976D01*
X423477D01*
X422465Y48705D01*
X421558Y48182D01*
X420818Y47442D01*
X420295Y46535D01*
X420024Y45524D01*
Y45500D01*
X417976D01*
Y45524D01*
X417705Y46535D01*
X417500Y46891D01*
Y93619D01*
X426733Y102853D01*
X431083D01*
Y99386D01*
D02*
G37*
G36*
X453563Y133963D02*
X455666D01*
Y100764D01*
Y98107D01*
X455758Y97646D01*
X456018Y97255D01*
X456409Y96994D01*
X456870Y96903D01*
X457331Y96994D01*
X457657Y97212D01*
X457984Y96994D01*
X458099Y96971D01*
X458264Y96429D01*
X456989Y95154D01*
X456439D01*
X455644Y94824D01*
X455034Y94215D01*
X455025Y94193D01*
X450669D01*
X450209Y94101D01*
X449818Y93840D01*
X449557Y93449D01*
X449465Y92989D01*
X449161Y92618D01*
X447957D01*
X444830Y95745D01*
Y98323D01*
X448602D01*
Y102103D01*
X448240D01*
Y102917D01*
X448353Y102964D01*
X448962Y103573D01*
X449133Y103988D01*
X449331Y104406D01*
X453110D01*
Y108343D01*
X449331D01*
Y108003D01*
X448723D01*
X448723Y108003D01*
X448109Y107880D01*
X447588Y107532D01*
X447588Y107532D01*
X447021Y106965D01*
X446695D01*
X445899Y106635D01*
X445290Y106026D01*
X444961Y105230D01*
Y104369D01*
X445057Y104135D01*
X445028Y103988D01*
X445028Y103988D01*
Y102434D01*
X444939Y102352D01*
X444528Y102155D01*
X444234Y102269D01*
X439913Y106589D01*
X439522Y106851D01*
X439061Y106942D01*
X439061Y106942D01*
X438563D01*
Y110515D01*
X435323D01*
X434823Y110515D01*
Y110515D01*
X434823D01*
Y110515D01*
X431083D01*
Y107048D01*
X425494D01*
X425494Y107048D01*
X425033Y106957D01*
X424643Y106696D01*
X424643Y106696D01*
X417962Y100015D01*
X417500Y100206D01*
Y123155D01*
X434345Y140000D01*
X453563D01*
Y133963D01*
D02*
G37*
G36*
X588200Y45500D02*
X567787D01*
Y49787D01*
X566813D01*
Y51156D01*
X566854Y51173D01*
X567427Y51746D01*
X567737Y52495D01*
Y53305D01*
X567427Y54054D01*
X566854Y54627D01*
X566105Y54937D01*
X565295D01*
X564546Y54627D01*
X563973Y54054D01*
X563663Y53305D01*
Y52495D01*
X563973Y51746D01*
X564187Y51531D01*
Y49787D01*
X563213D01*
Y45500D01*
X469098D01*
Y72369D01*
Y73697D01*
X469006Y74158D01*
X468745Y74549D01*
X468355Y74810D01*
X467894Y74901D01*
X467433Y74810D01*
X467106Y74592D01*
X466780Y74810D01*
X466319Y74901D01*
X465858Y74810D01*
X465531Y74592D01*
X465205Y74810D01*
X464744Y74901D01*
X464283Y74810D01*
X464123Y74703D01*
X463728Y75040D01*
X463728Y75429D01*
Y76627D01*
X468728D01*
Y76144D01*
X471701D01*
X471849Y75995D01*
X472645Y75666D01*
X473506D01*
X474302Y75995D01*
X474451Y76144D01*
X476117D01*
X476532Y75666D01*
X476624Y75205D01*
X476693Y75101D01*
X476333Y74740D01*
X476229Y74810D01*
X475768Y74901D01*
X475307Y74810D01*
X474980Y74592D01*
X474654Y74810D01*
X474193Y74901D01*
X473732Y74810D01*
X473406Y74592D01*
X473079Y74810D01*
X472618Y74901D01*
X472157Y74810D01*
X471831Y74592D01*
X471504Y74810D01*
X471043Y74901D01*
X470582Y74810D01*
X470192Y74549D01*
X469931Y74158D01*
X469839Y73697D01*
Y71040D01*
X469931Y70579D01*
X470192Y70188D01*
X470582Y69927D01*
X471043Y69836D01*
X471504Y69927D01*
X471831Y70145D01*
X472157Y69927D01*
X472618Y69836D01*
X473079Y69927D01*
X473406Y70145D01*
X473732Y69927D01*
X474193Y69836D01*
X474654Y69927D01*
X474980Y70145D01*
X475307Y69927D01*
X475768Y69836D01*
X476229Y69927D01*
X476619Y70188D01*
X476880Y70579D01*
X476972Y71040D01*
Y73697D01*
X476880Y74158D01*
X476811Y74262D01*
X477171Y74623D01*
X477275Y74553D01*
X477736Y74462D01*
X480394D01*
X480855Y74553D01*
X480953Y74619D01*
X481453Y74352D01*
Y60213D01*
X481453Y60213D01*
X481545Y59752D01*
X481806Y59361D01*
X484626Y56541D01*
Y53717D01*
X487866D01*
X488366Y53717D01*
Y53717D01*
X488366D01*
Y53717D01*
X492106D01*
Y54777D01*
X493583D01*
X493583Y54777D01*
X494043Y54868D01*
X494434Y55129D01*
X496368Y57063D01*
X499390D01*
Y60607D01*
Y63512D01*
X499890Y63719D01*
X500965Y62644D01*
Y60607D01*
X505689D01*
Y64347D01*
X502668D01*
X501199Y65815D01*
X501406Y66315D01*
X501752D01*
X502252Y66315D01*
X505492D01*
Y67375D01*
X515925D01*
Y66512D01*
X518330D01*
X518349Y66020D01*
X517553Y65690D01*
X516944Y65081D01*
X516614Y64285D01*
Y63424D01*
X516922Y62682D01*
X516737Y62182D01*
X515925D01*
Y58048D01*
X521634D01*
Y62182D01*
X520822D01*
X520637Y62682D01*
X520945Y63424D01*
Y64285D01*
X520615Y65081D01*
X520006Y65690D01*
X519210Y66020D01*
X519229Y66512D01*
X521634D01*
Y70646D01*
X515925D01*
Y69783D01*
X505492D01*
Y70843D01*
X502252D01*
X501752Y70843D01*
X501252Y70843D01*
X498012D01*
Y69783D01*
X495685D01*
X494316Y71152D01*
X494507Y71615D01*
X513570Y71721D01*
X514687Y72838D01*
X514722Y72873D01*
Y73338D01*
X515098Y73638D01*
X515531D01*
Y77063D01*
Y79131D01*
X516224Y79823D01*
X516282Y79800D01*
X517143D01*
X517939Y80129D01*
X518548Y80738D01*
X518878Y81534D01*
Y82396D01*
X518548Y83192D01*
X517939Y83801D01*
X517143Y84130D01*
X516282D01*
X516224Y84106D01*
X515531Y84799D01*
Y87878D01*
X516032Y88085D01*
X516470Y87647D01*
X516807Y87507D01*
Y86965D01*
X516807Y86965D01*
X516899Y86505D01*
X517160Y86114D01*
X523381Y79893D01*
X523772Y79632D01*
X524233Y79540D01*
X532051D01*
X532051Y79540D01*
X532297Y79589D01*
X532739Y79304D01*
X532797Y79221D01*
Y78926D01*
X532985Y78226D01*
X533347Y77599D01*
X533859Y77087D01*
X534486Y76725D01*
X535185Y76538D01*
X535909D01*
X536609Y76725D01*
X537005Y76954D01*
X537402Y76606D01*
X537194Y76103D01*
Y75164D01*
X537553Y74295D01*
X538218Y73631D01*
X539086Y73271D01*
X540026D01*
X540894Y73631D01*
X541558Y74295D01*
X541918Y75164D01*
Y76103D01*
X541715Y76593D01*
X542112Y76941D01*
X542486Y76725D01*
X543185Y76538D01*
X543909D01*
X544609Y76725D01*
X545236Y77087D01*
X545748Y77599D01*
X546110Y78226D01*
X546297Y78926D01*
Y79650D01*
X546110Y80349D01*
X545748Y80976D01*
X545236Y81488D01*
X544609Y81850D01*
X543909Y82038D01*
X543810D01*
X543603Y82538D01*
X544029Y82964D01*
X544290Y83594D01*
X544846Y83630D01*
X545026Y83319D01*
X546078Y82267D01*
X547366Y81523D01*
X548803Y81138D01*
X550291D01*
X551728Y81523D01*
X553016Y82267D01*
X554068Y83319D01*
X554812Y84607D01*
X555197Y86044D01*
Y87532D01*
X555131Y87777D01*
X555564Y88027D01*
X558815Y84776D01*
Y82556D01*
X557756D01*
Y79315D01*
X557756Y78815D01*
X557756Y78315D01*
Y75075D01*
X558815D01*
Y70646D01*
X555886D01*
Y66512D01*
X558290D01*
X558309Y66020D01*
X557514Y65690D01*
X556905Y65081D01*
X556575Y64285D01*
Y63424D01*
X556882Y62682D01*
X556698Y62182D01*
X555886D01*
Y58048D01*
X561594D01*
Y62182D01*
X560782D01*
X560598Y62682D01*
X560906Y63424D01*
Y64285D01*
X560576Y65081D01*
X559967Y65690D01*
X559171Y66020D01*
X559190Y66512D01*
X561594D01*
Y70646D01*
X561224D01*
Y75075D01*
X562284D01*
Y78315D01*
X562284Y78815D01*
X562284Y79315D01*
Y82556D01*
X561224D01*
Y85275D01*
X561132Y85736D01*
X560871Y86127D01*
X560871Y86127D01*
X553754Y93244D01*
X556442Y95933D01*
X556704Y96324D01*
X556795Y96784D01*
X556795Y96785D01*
Y102858D01*
X556964Y102985D01*
X557274Y103087D01*
X560610Y99750D01*
Y95941D01*
X567674D01*
Y92792D01*
X566417D01*
Y89552D01*
X566417Y89052D01*
X566417Y88552D01*
Y85311D01*
X567477D01*
Y84386D01*
X567477Y84386D01*
X567568Y83925D01*
X567830Y83535D01*
X569862Y81502D01*
Y79094D01*
X568951D01*
X568942Y79117D01*
X568333Y79726D01*
X567537Y80055D01*
X566676D01*
X565880Y79726D01*
X565271Y79117D01*
X564941Y78321D01*
Y77460D01*
X565271Y76664D01*
X565880Y76055D01*
X566676Y75725D01*
X567537D01*
X568333Y76055D01*
X568942Y76664D01*
X568951Y76686D01*
X569862D01*
Y76000D01*
X573799D01*
Y79426D01*
Y81502D01*
X575832Y83535D01*
X575832Y83535D01*
X576093Y83925D01*
X576185Y84386D01*
X576185Y84386D01*
Y85311D01*
X577244D01*
Y88552D01*
X577244Y89052D01*
X577244Y89552D01*
Y92467D01*
X577496Y92614D01*
X577744Y92706D01*
X578487Y92398D01*
X579348D01*
X580144Y92728D01*
X580753Y93337D01*
X581083Y94133D01*
Y94994D01*
X580897Y95441D01*
X581231Y95941D01*
X583051D01*
Y101453D01*
X576023D01*
X576002Y101953D01*
X576880Y102831D01*
X583051D01*
Y107789D01*
X588200D01*
Y45500D01*
D02*
G37*
G36*
X335000Y70000D02*
X315000D01*
Y90000D01*
X335000D01*
Y70000D01*
D02*
G37*
G36*
X330000Y32500D02*
X340000D01*
Y17500D01*
X337500Y15000D01*
X292500D01*
Y35000D01*
X327500D01*
X330000Y32500D01*
D02*
G37*
%LPC*%
G36*
X385893Y374071D02*
X384107D01*
X382354Y373722D01*
X380703Y373039D01*
X379218Y372046D01*
X377954Y370782D01*
X376961Y369297D01*
X376278Y367646D01*
X375929Y365893D01*
Y364107D01*
X376278Y362354D01*
X376961Y360703D01*
X377954Y359218D01*
X379218Y357954D01*
X380703Y356961D01*
X382354Y356278D01*
X384107Y355929D01*
X385893D01*
X387646Y356278D01*
X389297Y356961D01*
X390782Y357954D01*
X392046Y359218D01*
X393039Y360703D01*
X393722Y362354D01*
X394071Y364107D01*
Y365893D01*
X393722Y367646D01*
X393039Y369297D01*
X392046Y370782D01*
X390782Y372046D01*
X389297Y373039D01*
X387646Y373722D01*
X385893Y374071D01*
D02*
G37*
G36*
Y309071D02*
X384107D01*
X382354Y308722D01*
X380703Y308038D01*
X379218Y307046D01*
X377954Y305782D01*
X376961Y304297D01*
X376278Y302646D01*
X375929Y300893D01*
Y299107D01*
X376278Y297354D01*
X376961Y295703D01*
X377954Y294218D01*
X379218Y292954D01*
X380703Y291962D01*
X382354Y291278D01*
X384107Y290929D01*
X385893D01*
X387646Y291278D01*
X389297Y291962D01*
X390782Y292954D01*
X392046Y294218D01*
X393039Y295703D01*
X393722Y297354D01*
X394071Y299107D01*
Y300893D01*
X393722Y302646D01*
X393039Y304297D01*
X392046Y305782D01*
X390782Y307046D01*
X389297Y308038D01*
X387646Y308722D01*
X385893Y309071D01*
D02*
G37*
G36*
X564744Y138973D02*
X564244Y138973D01*
X561004D01*
Y137913D01*
X558236D01*
X558092Y138128D01*
X557441Y138563D01*
X556673Y138716D01*
X553327D01*
X552559Y138563D01*
X551908Y138128D01*
X551473Y137477D01*
X551320Y136709D01*
X551473Y135941D01*
X551908Y135290D01*
X552559Y134855D01*
X553327Y134702D01*
X556673D01*
X557441Y134855D01*
X558092Y135290D01*
X558236Y135505D01*
X561004D01*
Y134445D01*
X564244D01*
X564744Y134445D01*
X565117D01*
X565410Y134052D01*
X565502Y133591D01*
X565763Y133200D01*
X565859Y133104D01*
X565728Y132789D01*
Y131928D01*
X566058Y131132D01*
X566667Y130523D01*
X567463Y130193D01*
X568324D01*
X569120Y130523D01*
X569729Y131132D01*
X570059Y131928D01*
Y132789D01*
X569729Y133585D01*
X569120Y134194D01*
X568484Y134458D01*
Y138973D01*
X564744Y138973D01*
D02*
G37*
G36*
X509429Y112555D02*
X506083D01*
X505315Y112402D01*
X504664Y111967D01*
X504228Y111316D01*
X504076Y110548D01*
X504228Y109780D01*
X504664Y109128D01*
X505315Y108693D01*
X506083Y108541D01*
X509429D01*
X510197Y108693D01*
X510760Y109070D01*
X510899Y109055D01*
X511082Y108541D01*
X511080Y108528D01*
X510940Y108388D01*
X510654Y107698D01*
X510354Y107504D01*
X510110Y107419D01*
X509429Y107555D01*
X506083D01*
X505315Y107402D01*
X504664Y106967D01*
X504228Y106316D01*
X504076Y105548D01*
X504228Y104780D01*
X504664Y104128D01*
X505315Y103693D01*
X506083Y103541D01*
X509429D01*
X510197Y103693D01*
X510848Y104128D01*
X511283Y104780D01*
X511310Y104912D01*
X511875Y105191D01*
X512345Y104997D01*
X513206D01*
X514002Y105326D01*
X514611Y105935D01*
X514941Y106731D01*
Y107592D01*
X514932Y107615D01*
X515694Y108377D01*
X515895Y108678D01*
X518189D01*
Y112418D01*
X513661D01*
Y111752D01*
X510992D01*
X510848Y111967D01*
X510197Y112402D01*
X509429Y112555D01*
D02*
G37*
G36*
X513206Y64583D02*
X512345D01*
X511549Y64253D01*
X511307Y64012D01*
X510807Y64219D01*
Y64307D01*
X506870D01*
Y60528D01*
X510807D01*
Y60617D01*
X511307Y60824D01*
X511549Y60582D01*
X512345Y60252D01*
X513206D01*
X514002Y60582D01*
X514611Y61191D01*
X514941Y61987D01*
Y62848D01*
X514611Y63644D01*
X514002Y64253D01*
X513206Y64583D01*
D02*
G37*
G36*
X545256Y70646D02*
X539547D01*
Y66512D01*
X541952D01*
X541971Y66020D01*
X541175Y65690D01*
X540566Y65081D01*
X540236Y64285D01*
Y63424D01*
X540544Y62682D01*
X540359Y62182D01*
X539547D01*
Y58048D01*
X545256D01*
Y62182D01*
X544444D01*
X544259Y62682D01*
X544567Y63424D01*
Y64285D01*
X544237Y65081D01*
X543628Y65690D01*
X542832Y66020D01*
X542851Y66512D01*
X545256D01*
Y70646D01*
D02*
G37*
G36*
X537972D02*
X532264D01*
Y66512D01*
X534668D01*
X534687Y66020D01*
X533891Y65690D01*
X533282Y65081D01*
X532953Y64285D01*
Y63424D01*
X533260Y62682D01*
X533076Y62182D01*
X532264D01*
Y58048D01*
X537972D01*
Y62182D01*
X537160D01*
X536976Y62682D01*
X537284Y63424D01*
Y64285D01*
X536954Y65081D01*
X536345Y65690D01*
X535549Y66020D01*
X535568Y66512D01*
X537972D01*
Y70646D01*
D02*
G37*
%LPD*%
D10*
X572500Y150445D02*
X572835Y150780D01*
X578780D02*
X579000Y151000D01*
X572835Y150780D02*
X578780D01*
X585000Y156000D02*
Y161500D01*
X535000Y150000D02*
Y154500D01*
D11*
X565500Y52700D02*
X565700Y52900D01*
X565500Y47000D02*
Y52700D01*
X527736Y120664D02*
X529800Y118600D01*
X537000D01*
X527736Y120664D02*
Y126059D01*
X537000Y118600D02*
X540400Y122000D01*
Y142100D01*
X537600Y144900D02*
X540400Y142100D01*
X531900Y144900D02*
X537600D01*
X528700Y148100D02*
X531900Y144900D01*
X528700Y148100D02*
Y163800D01*
X533455Y168555D02*
X572500D01*
X528700Y163800D02*
X533455Y168555D01*
X465600Y144800D02*
X469700D01*
X470000Y144500D01*
X401000Y100400D02*
Y105650D01*
X508839Y58722D02*
Y58935D01*
D13*
X404850Y112350D02*
X437700Y145200D01*
X77754Y191104D02*
Y191535D01*
X123386Y160000D02*
X123661Y159724D01*
X109133D02*
X123661D01*
X437700Y145200D02*
X452900D01*
X401000Y112350D02*
X404850D01*
X401000D02*
Y122300D01*
X508839Y62418D02*
X512776D01*
X503356Y58963D02*
X508598D01*
X503327Y58934D02*
X503356Y58963D01*
X508598D02*
X508839Y58722D01*
X423386Y80390D02*
Y87668D01*
X498543Y128008D02*
X506132Y135597D01*
X476016Y128008D02*
X498543D01*
X475728Y127721D02*
X476016Y128008D01*
X506132Y135597D02*
X507805D01*
X340000Y437000D02*
X345000D01*
X442500Y205000D02*
Y209500D01*
X432500Y204850D02*
Y209500D01*
X351500Y324500D02*
X352000Y325000D01*
X420000Y181900D02*
X424150Y177750D01*
X420000Y181900D02*
Y196950D01*
X424150Y177500D02*
Y177750D01*
X415000Y201950D02*
X420000Y196950D01*
X415000Y201950D02*
Y203250D01*
X395000Y207500D02*
X416037D01*
X424150Y199387D01*
Y187500D02*
Y199387D01*
X390750Y203250D02*
X395000Y207500D01*
X385000Y203250D02*
X390750D01*
X200000Y435000D02*
X241000D01*
X185000Y440000D02*
X193000Y432000D01*
X243000D01*
X284358Y430000D02*
Y431968D01*
X195000Y440000D02*
X200000Y435000D01*
X278453Y430000D02*
Y431968D01*
X272547Y430000D02*
Y431968D01*
X246000Y435000D02*
X269516D01*
X272547Y431968D01*
X243000Y432000D02*
X246000Y435000D01*
X244000Y438000D02*
X272421D01*
X241000Y435000D02*
X244000Y438000D01*
X272421D02*
X278453Y431968D01*
X206000Y441000D02*
X275327D01*
X284358Y431968D01*
X205000Y440000D02*
X206000Y441000D01*
X200000Y325000D02*
X241000D01*
X185000Y330000D02*
X193000Y322000D01*
X243000D01*
X284358Y320000D02*
Y321969D01*
X195000Y330000D02*
X200000Y325000D01*
X278453Y320000D02*
Y321969D01*
X272547Y320000D02*
Y321969D01*
X246000Y325000D02*
X269516D01*
X272547Y321969D01*
X243000Y322000D02*
X246000Y325000D01*
X244000Y328000D02*
X272421D01*
X241000Y325000D02*
X244000Y328000D01*
X272421D02*
X278453Y321969D01*
X206000Y331000D02*
X275327D01*
X284358Y321969D01*
X205000Y330000D02*
X206000Y331000D01*
X200000Y215000D02*
X241000D01*
X185000Y220000D02*
X193000Y212000D01*
X243000D01*
X284358Y210000D02*
Y211968D01*
X195000Y220000D02*
X200000Y215000D01*
X278453Y210000D02*
Y211968D01*
X272547Y210000D02*
Y211968D01*
X246000Y215000D02*
X269516D01*
X272547Y211968D01*
X243000Y212000D02*
X246000Y215000D01*
X244000Y218000D02*
X272421D01*
X241000Y215000D02*
X244000Y218000D01*
X272421D02*
X278453Y211968D01*
X206000Y221000D02*
X275327D01*
X284358Y211968D01*
X205000Y220000D02*
X206000Y221000D01*
X205000Y110000D02*
X206000Y111000D01*
X275327D02*
X284358Y101969D01*
X206000Y111000D02*
X275327D01*
X272421Y108000D02*
X278453Y101969D01*
X241000Y105000D02*
X244000Y108000D01*
X272421D01*
X243000Y102000D02*
X246000Y105000D01*
X269516D02*
X272547Y101969D01*
X246000Y105000D02*
X269516D01*
X272547Y100000D02*
Y101969D01*
X278453Y100000D02*
Y101969D01*
X195000Y110000D02*
X200000Y105000D01*
X284358Y100000D02*
Y101969D01*
X193000Y102000D02*
X243000D01*
X185000Y110000D02*
X193000Y102000D01*
X200000Y105000D02*
X241000D01*
X122795Y135000D02*
X123661Y134134D01*
X55613Y225093D02*
X56100Y224606D01*
X77754Y191535D02*
X79289Y190000D01*
X54565D02*
X56100Y191535D01*
D17*
X542390Y60489D02*
X542658Y60221D01*
X605793Y109000D02*
X612136Y115344D01*
X564547Y112477D02*
X565728D01*
X569205Y109000D01*
X605793D01*
X515925Y128934D02*
Y132221D01*
Y132433D01*
X513563Y78953D02*
X513642D01*
X516653Y81965D01*
X513563Y84977D02*
X513642D01*
X516653Y81965D01*
X504902Y86028D02*
X505953Y84977D01*
X513563D01*
X497902Y78028D02*
Y78619D01*
X501254Y81971D01*
X510466D01*
X513484Y78953D01*
X513563D01*
X497240Y86689D02*
X497902Y86028D01*
X490130Y86689D02*
X497240D01*
X497902Y86028D02*
Y86619D01*
X501254Y89971D01*
X511915D01*
X513484Y88402D01*
X513563D01*
X516653Y81965D02*
X516713D01*
X556673Y126709D02*
X564547Y118835D01*
X555000Y126709D02*
X556673D01*
X564547Y112477D02*
Y118835D01*
X553327Y126709D02*
X555000D01*
D19*
X353767Y25050D02*
X355000Y26283D01*
X350756Y22039D02*
X351101D01*
X353767Y24705D01*
Y25050D01*
X355000Y26283D02*
Y32500D01*
X348000Y19373D02*
X350666Y22039D01*
X348000Y12000D02*
Y19373D01*
X350666Y22039D02*
X350756D01*
X375165D02*
Y32835D01*
X375000Y33000D02*
X375165Y32835D01*
X377921Y12000D02*
Y19373D01*
X375255Y22039D02*
X377921Y19373D01*
X375165Y22039D02*
X375255D01*
X426234Y104057D02*
X432013D01*
X362567Y22925D02*
Y26933D01*
X362500Y27000D02*
X362567Y26933D01*
Y22925D02*
X362961Y22532D01*
X360402D02*
X360713Y22843D01*
X362500Y27000D02*
Y40322D01*
X426234Y104057D01*
X360713Y41063D02*
X425494Y105844D01*
X360713Y22843D02*
Y41063D01*
X563500Y8000D02*
Y33500D01*
X564000Y34000D01*
X548700Y8000D02*
X556500D01*
X300894Y43051D02*
X317000D01*
X422500Y5000D02*
X433590D01*
X412500Y10000D02*
X434135D01*
X433863Y7500D02*
X466319Y39956D01*
X434135Y10000D02*
X464744Y40609D01*
X417500Y7500D02*
X433863D01*
X434408Y12500D02*
X463169Y41261D01*
X407500Y12500D02*
X434408D01*
X397500Y17500D02*
X434954D01*
X435227Y20000D02*
X458445Y43218D01*
X434954Y17500D02*
X460020Y42566D01*
X434681Y15000D02*
X461594Y41913D01*
X402500Y15000D02*
X434681D01*
X392500Y20000D02*
X435227D01*
X387500Y22500D02*
X435500D01*
X456870Y43870D01*
X464744Y40609D02*
Y72369D01*
X433590Y5000D02*
X467894Y39304D01*
Y72369D01*
X466319Y39956D02*
Y72369D01*
X463169Y41261D02*
Y72369D01*
X461594Y41913D02*
Y72369D01*
X460020Y42566D02*
Y72369D01*
X458445Y43218D02*
Y72369D01*
X456870Y43870D02*
Y72369D01*
X469468D02*
X469626Y72211D01*
Y70453D02*
Y72211D01*
Y70453D02*
X470456Y69622D01*
X470500D01*
Y68000D02*
Y69622D01*
X301394Y162000D02*
X310500D01*
X300894Y162500D02*
X301394Y162000D01*
X301445Y152500D02*
X310500D01*
X300894Y153051D02*
X301445Y152500D01*
X300894Y52500D02*
X312931D01*
X459374Y120684D02*
Y142426D01*
X452900Y145200D02*
X456600D01*
X459374Y142426D01*
X458445Y119755D02*
X459374Y120684D01*
X458445Y99435D02*
Y119755D01*
X469862Y81571D02*
X470256Y81965D01*
X432474Y102128D02*
X432953Y101650D01*
X432474Y107773D02*
X432953Y108251D01*
X432013Y105844D02*
X432474Y106306D01*
X425494Y105844D02*
X432013D01*
X432474Y102128D02*
Y103596D01*
X432013Y104057D02*
X432474Y103596D01*
Y106306D02*
Y107773D01*
X456480Y137130D02*
Y138520D01*
X456870Y99435D02*
Y137000D01*
X456350D02*
X456480Y137130D01*
X456144Y77831D02*
X473076D01*
X475635Y76320D02*
Y83928D01*
X474587Y75272D02*
X475635Y76320D01*
X472016Y75272D02*
X474587D01*
X472016Y75272D02*
X472016Y75272D01*
X474980Y84582D02*
X475635Y83928D01*
X470391Y75272D02*
X472016D01*
X453979Y75666D02*
X456144Y77831D01*
X579114Y112477D02*
X596572D01*
X599439Y115344D01*
X600325D01*
X555941Y114721D02*
X555987Y114767D01*
X451998Y92989D02*
X456870D01*
X451998Y85115D02*
X456870D01*
Y92989D01*
X493878Y75460D02*
X495247Y74091D01*
X501555D01*
X504902Y77437D02*
Y78028D01*
X501555Y74091D02*
X504902Y77437D01*
X486390Y86296D02*
Y86689D01*
X508829Y78028D02*
X511201Y75656D01*
X504902Y78028D02*
X508829D01*
X513435Y75656D02*
X513563Y75528D01*
X511201Y75656D02*
X513435D01*
X474980Y85115D02*
X476555Y86689D01*
X479065D01*
X486496Y55981D02*
Y56374D01*
X479065Y77241D02*
X481046D01*
X479065Y78815D02*
X481698D01*
X486496Y62280D02*
Y64642D01*
X485218Y65628D02*
X485510D01*
X484232Y66614D02*
X485218Y65628D01*
X485510D02*
X486496Y64642D01*
X479065Y80390D02*
X482351D01*
X503622Y68579D02*
X518780D01*
Y60115D02*
Y63855D01*
X535118Y60115D02*
Y63855D01*
X558740Y60115D02*
Y63855D01*
X542402Y60500D02*
Y63855D01*
X542390Y60489D02*
X542402Y60500D01*
X490236Y68186D02*
Y68579D01*
X502835Y62477D02*
X503327D01*
X499980Y65331D02*
X502835Y62477D01*
X490236Y62280D02*
X490433Y62477D01*
X497028D01*
X496535Y58934D02*
X497028D01*
X490236Y55981D02*
X493583D01*
X496535Y58934D01*
X493091Y65331D02*
X499980D01*
X490236Y68186D02*
X493091Y65331D01*
X437065Y103702D02*
X437526Y104163D01*
Y105738D02*
X439061D01*
X437526Y104163D02*
X438409D01*
X437065Y102022D02*
Y103702D01*
X436693Y101650D02*
X437065Y102022D01*
Y106199D02*
Y107879D01*
Y106199D02*
X437526Y105738D01*
X436693Y108251D02*
X437065Y107879D01*
X449094Y88264D02*
X451998D01*
X447520Y86689D02*
X451998D01*
X447520D02*
X449094Y88264D01*
X447458Y91414D02*
X451998D01*
X446805Y89839D02*
X451998D01*
X435748Y92595D02*
X439364D01*
X433386Y88067D02*
Y90233D01*
X435748Y92595D01*
X440017Y94170D02*
X443533Y90653D01*
X439364Y92595D02*
X441910Y90050D01*
X447050Y83540D02*
X451998D01*
X443533Y87057D02*
X447050Y83540D01*
X443533Y87057D02*
Y90653D01*
X441910Y85784D02*
Y90050D01*
Y85784D02*
X445728Y81965D01*
X451998D01*
X438386Y86276D02*
Y88067D01*
X444272Y80390D02*
X451998D01*
X438386Y86276D02*
X444272Y80390D01*
X484232Y66614D02*
Y76281D01*
X481698Y78815D02*
X484232Y76281D01*
X481046Y77241D02*
X482657Y75629D01*
X428386Y57949D02*
Y60115D01*
X450017Y77241D02*
X451998D01*
X441910Y69133D02*
X450017Y77241D01*
X446339Y71335D02*
X450669Y75666D01*
X446339Y64642D02*
Y71335D01*
X423386Y57949D02*
Y60115D01*
X433386D02*
Y67930D01*
X444272Y78815D01*
X451998D01*
X428386Y88067D02*
Y90233D01*
X432323Y94170D02*
X440017D01*
X428386Y90233D02*
X432323Y94170D01*
X446339Y59935D02*
Y64642D01*
X423386Y57949D02*
X427722Y53613D01*
X440017D02*
X446339Y59935D01*
X427722Y53613D02*
X440017D01*
X428386Y57949D02*
X431142Y55193D01*
X432402D01*
X432407Y55188D01*
X439364D01*
X441910Y57733D01*
Y69133D01*
X442051Y94594D02*
X446805Y89839D01*
X443625Y95246D02*
X447458Y91414D01*
X536898Y84288D02*
X537047D01*
X535041Y82432D02*
X536898Y84288D01*
X533738Y82432D02*
X535041D01*
X532051Y80744D02*
X533738Y82432D01*
X542047Y89288D02*
X546003Y93244D01*
X552051D01*
X555591Y96784D01*
Y102929D01*
X534035Y107162D02*
Y111886D01*
X517697Y89482D02*
X518012Y89168D01*
Y86965D02*
X524233Y80744D01*
X532051D01*
X518012Y86965D02*
Y89168D01*
X479065Y91414D02*
X494469D01*
X532051Y105332D02*
X535591Y101791D01*
X537047Y94288D02*
Y97342D01*
X535591Y98798D02*
X537047Y97342D01*
X535591Y98798D02*
Y101791D01*
X479065Y89839D02*
X495121D01*
X479065Y92989D02*
X493816D01*
X495121Y89839D02*
X498113Y92831D01*
X533503D02*
X537047Y89288D01*
X498113Y92831D02*
X533503D01*
X494469Y91414D02*
X497461Y94406D01*
X493816Y92989D02*
X496966Y96138D01*
X523926Y105332D02*
X532051D01*
X497461Y94406D02*
X513001D01*
X496966Y96138D02*
X512458D01*
X523481Y107162D02*
X534035D01*
X513001Y94406D02*
X523926Y105332D01*
X512458Y96138D02*
X523481Y107162D01*
X479065Y94563D02*
X493164D01*
X509755Y97713D02*
X510740Y98697D01*
X493164Y94563D02*
X496314Y97713D01*
X509755D01*
X510740Y98697D02*
X511201D01*
X555987Y114767D02*
X558176D01*
X551358Y107162D02*
X555591Y102929D01*
X551226Y107162D02*
X551358D01*
X506083Y120548D02*
X507756D01*
X515876Y135597D02*
X515925Y135646D01*
X471043Y99435D02*
Y102721D01*
X474193Y99435D02*
Y101417D01*
X472618Y99435D02*
Y102069D01*
X478459Y107910D01*
X478917Y96138D02*
X479065D01*
X475768Y99435D02*
Y100764D01*
X499364Y123829D02*
X506083Y130548D01*
X499364Y122096D02*
Y123829D01*
X490453Y113185D02*
X499364Y122096D01*
X523309Y136709D02*
X533543D01*
X522088Y137929D02*
X523309Y136709D01*
X505124Y137929D02*
X522088D01*
X507756Y130548D02*
X509429D01*
X514843Y124681D02*
Y125134D01*
X506083Y130548D02*
X507756D01*
X514843Y124681D02*
X515531Y123993D01*
X515925D01*
X509429Y130548D02*
X514843Y125134D01*
X533543Y121709D02*
X535217D01*
X537579Y124071D01*
X484626Y130548D02*
X486299D01*
X482264Y132910D02*
X484626Y130548D01*
X558176Y114767D02*
X560745Y117336D01*
X555000Y131709D02*
X559035D01*
X576358Y114386D01*
Y114052D02*
Y114386D01*
X577933Y112477D02*
X579114D01*
X576358Y114052D02*
X577933Y112477D01*
X566614Y134052D02*
Y136709D01*
X567894Y132359D02*
Y132772D01*
X566614Y134052D02*
X567894Y132772D01*
X555000Y136709D02*
X562874D01*
X571752Y81315D02*
X571831D01*
X568681Y84386D02*
X571752Y81315D01*
X568681Y84386D02*
Y87182D01*
X574980Y84386D02*
Y87182D01*
X571831Y81315D02*
X571910D01*
X574980Y84386D01*
X564547Y105587D02*
X565728D01*
X568878Y102437D01*
X577933Y105587D02*
X579114D01*
X574784Y102437D02*
X577933Y105587D01*
X574784Y91119D02*
Y102437D01*
Y91119D02*
X574980Y90922D01*
X568681D02*
X568878Y91119D01*
Y102437D01*
X563366Y98697D02*
X564547D01*
X557540Y104523D02*
Y106492D01*
X552933Y111099D02*
X557540Y106492D01*
Y104523D02*
X563366Y98697D01*
X502742Y135548D02*
X505124Y137929D01*
X486299Y135548D02*
X502742D01*
X567106Y77890D02*
X571831D01*
X560020Y80686D02*
Y85275D01*
X552051Y93244D02*
X560020Y85275D01*
X558740Y68579D02*
X559134D01*
X560020Y69465D02*
Y76945D01*
X559134Y68579D02*
X560020Y69465D01*
X469468Y97454D02*
Y99435D01*
X471196Y95727D02*
X472241D01*
X469468Y97454D02*
X471196Y95727D01*
X472241D02*
X472618Y95351D01*
X507756Y110548D02*
X515531D01*
X515925D01*
X512776Y107162D02*
X514843Y109229D01*
Y109859D01*
X515531Y110548D01*
X478870D02*
X486299D01*
X471043Y102721D02*
X478870Y110548D01*
X484200Y120548D02*
X486299D01*
X467894Y99682D02*
Y104242D01*
X484200Y120548D01*
X480768Y113185D02*
X490453D01*
X480612Y113341D02*
X480768Y113185D01*
X474726Y89052D02*
X475513Y88264D01*
X479065D01*
X495186Y68579D02*
X499882D01*
X479065Y85115D02*
X485209D01*
X486390Y86296D01*
X482351Y80390D02*
X486496Y76245D01*
Y68579D02*
Y76245D01*
X489153Y76453D02*
X491866Y73741D01*
Y71899D02*
Y73741D01*
Y71899D02*
X495186Y68579D01*
X493878Y75460D02*
Y80390D01*
X490728Y83540D02*
X493878Y80390D01*
X479065Y83540D02*
X490728D01*
X479065Y81965D02*
X488366D01*
X489941Y80390D01*
X451998Y75666D02*
X453979D01*
X469468Y74350D02*
X470391Y75272D01*
X474980Y84582D02*
Y85115D01*
X474193Y89052D02*
X474726D01*
X478917Y96138D02*
Y99052D01*
X475768Y100764D02*
X476614Y101611D01*
X474193Y101417D02*
X475962Y103185D01*
X455295Y69865D02*
Y72369D01*
X454009Y68579D02*
X455295Y69865D01*
X453721Y68579D02*
X454009D01*
X482657Y60213D02*
Y75629D01*
Y60213D02*
X486496Y56374D01*
X469468Y72369D02*
Y74350D01*
X537579Y124071D02*
Y137688D01*
X553327Y131709D02*
X555000D01*
X482264Y132910D02*
Y136526D01*
X535762Y139504D02*
X537579Y137688D01*
X485242Y139504D02*
X535762D01*
X482264Y136526D02*
X485242Y139504D01*
X438409Y104163D02*
X442051Y100522D01*
X439061Y105738D02*
X443625Y101174D01*
Y95246D02*
Y101174D01*
X442051Y94594D02*
Y100522D01*
X578917Y98500D02*
X579114Y98697D01*
X578917Y94563D02*
Y98500D01*
X475962Y103185D02*
X492118D01*
X496240Y110705D02*
X506083Y120548D01*
X476614Y101611D02*
X492771D01*
X497994Y106834D02*
Y107810D01*
X505731Y115548D01*
X492118Y103185D02*
X496240Y107307D01*
X492771Y101611D02*
X497994Y106834D01*
X496240Y107307D02*
Y110705D01*
X505731Y115548D02*
X507756D01*
X506509Y125548D02*
X507756D01*
X478459Y107910D02*
X488871D01*
X506509Y125548D01*
X455295Y99435D02*
Y100764D01*
X454646Y101225D02*
X455107Y100764D01*
X455295D01*
X454646Y101225D02*
Y106374D01*
X453327Y96138D02*
X455295Y98107D01*
Y99435D01*
X448858Y94563D02*
X451998D01*
X447421Y96000D02*
X448858Y94563D01*
X447421Y96000D02*
Y96079D01*
X446713Y96788D02*
X447421Y96079D01*
X450669Y96138D02*
X451998D01*
X450020Y96788D02*
X450669Y96138D01*
X446634Y96788D02*
X446713D01*
X450020D01*
X451998Y94563D02*
Y96138D01*
X265642Y429000D02*
X266642Y430000D01*
X186000Y429000D02*
X265642D01*
X175000Y440000D02*
X186000Y429000D01*
X265642Y319000D02*
X266642Y320000D01*
X186000Y319000D02*
X265642D01*
X175000Y330000D02*
X186000Y319000D01*
X265642Y209000D02*
X266642Y210000D01*
X186000Y209000D02*
X265642D01*
X175000Y220000D02*
X186000Y209000D01*
X175000Y110000D02*
X186000Y99000D01*
X265642D01*
X266642Y100000D01*
D20*
X352000Y408350D02*
Y437000D01*
Y325000D02*
Y401650D01*
D23*
X345000Y437000D02*
D03*
X352000D02*
D03*
X563500Y8000D02*
D03*
X556500D02*
D03*
D24*
X300894Y61949D02*
D03*
Y52500D02*
D03*
Y43051D02*
D03*
Y373051D02*
D03*
Y382500D02*
D03*
Y391949D02*
D03*
Y263051D02*
D03*
Y272500D02*
D03*
Y281949D02*
D03*
Y153051D02*
D03*
Y162500D02*
D03*
Y171949D02*
D03*
D25*
X284358Y97776D02*
D03*
X278453D02*
D03*
X272547D02*
D03*
X266642D02*
D03*
Y427776D02*
D03*
X272547D02*
D03*
X278453D02*
D03*
X284358D02*
D03*
X266642Y317776D02*
D03*
X272547D02*
D03*
X278453D02*
D03*
X284358D02*
D03*
X266642Y207776D02*
D03*
X272547D02*
D03*
X278453D02*
D03*
X284358D02*
D03*
D26*
X116839Y78091D02*
D03*
Y52500D02*
D03*
Y26909D02*
D03*
X309358Y80059D02*
D03*
Y24941D02*
D03*
Y354941D02*
D03*
Y410059D02*
D03*
X116839Y356909D02*
D03*
Y382500D02*
D03*
Y408090D02*
D03*
X309358Y244941D02*
D03*
Y300059D02*
D03*
X116839Y246909D02*
D03*
Y272500D02*
D03*
Y298091D02*
D03*
X309358Y134941D02*
D03*
Y190059D02*
D03*
X116839Y136909D02*
D03*
Y162500D02*
D03*
Y188091D02*
D03*
D27*
X401000Y129000D02*
D03*
Y122300D02*
D03*
Y112350D02*
D03*
Y105650D02*
D03*
X352000Y401650D02*
D03*
Y408350D02*
D03*
X432500Y198150D02*
D03*
Y204850D02*
D03*
D28*
X542000Y8000D02*
D03*
X548700D02*
D03*
X449650Y137000D02*
D03*
X456350D02*
D03*
X424150Y177500D02*
D03*
X430850D02*
D03*
X424150Y187500D02*
D03*
X430850D02*
D03*
D29*
X558500Y47000D02*
D03*
X565500D02*
D03*
D30*
X357842Y22925D02*
D03*
X360402D02*
D03*
X362961D02*
D03*
X365520D02*
D03*
X368079D02*
D03*
D31*
X350756Y22039D02*
D03*
X375165D02*
D03*
D32*
X377921Y12000D02*
D03*
X348000D02*
D03*
D33*
X470000Y137500D02*
D03*
Y144500D02*
D03*
X535000Y161500D02*
D03*
Y154500D02*
D03*
X585000Y168500D02*
D03*
Y161500D02*
D03*
X442500Y205000D02*
D03*
Y198000D02*
D03*
D34*
X547500Y159500D02*
D03*
D35*
X572500Y168555D02*
D03*
Y159500D02*
D03*
Y150445D02*
D03*
D36*
X423386Y95351D02*
D03*
X426811D02*
D03*
X552516Y114721D02*
D03*
X555941D02*
D03*
X451221Y106374D02*
D03*
X454646D02*
D03*
D37*
X508839Y58992D02*
D03*
Y62418D02*
D03*
X524587Y128284D02*
D03*
Y131709D02*
D03*
X513563Y75528D02*
D03*
Y78953D02*
D03*
Y88402D02*
D03*
Y84977D02*
D03*
X446634Y96788D02*
D03*
Y100213D02*
D03*
X571831Y81315D02*
D03*
Y77890D02*
D03*
X515925Y132221D02*
D03*
Y135646D02*
D03*
D38*
X438386Y87668D02*
D03*
X433386D02*
D03*
X428386D02*
D03*
X423386D02*
D03*
X438386Y59715D02*
D03*
X433386D02*
D03*
X428386D02*
D03*
X423386D02*
D03*
D39*
X530295Y111886D02*
D03*
X534035D02*
D03*
X486390Y86689D02*
D03*
X490130D02*
D03*
X432953Y101650D02*
D03*
X436693D02*
D03*
X432953Y108251D02*
D03*
X436693D02*
D03*
X446339Y64642D02*
D03*
X450079D02*
D03*
X503622Y68579D02*
D03*
X499882D02*
D03*
X490236D02*
D03*
X486496D02*
D03*
X490236Y62280D02*
D03*
X486496D02*
D03*
X566614Y136709D02*
D03*
X562874D02*
D03*
X490236Y55981D02*
D03*
X486496D02*
D03*
D40*
X537047Y94288D02*
D03*
X542047D02*
D03*
X537047Y89288D02*
D03*
X542047Y84288D02*
D03*
X537047D02*
D03*
X542047Y89288D02*
D03*
D41*
X560020Y80686D02*
D03*
Y76945D02*
D03*
X515925Y123993D02*
D03*
Y120252D02*
D03*
X574980Y87182D02*
D03*
Y90922D02*
D03*
X568681Y87182D02*
D03*
Y90922D02*
D03*
X515925Y110548D02*
D03*
Y114288D02*
D03*
D42*
X542402Y68579D02*
D03*
X558740D02*
D03*
X542402Y60115D02*
D03*
X558740D02*
D03*
X535118D02*
D03*
X518780D02*
D03*
X535118Y68579D02*
D03*
X518780D02*
D03*
D43*
X465531Y85902D02*
D03*
D44*
X451998Y91414D02*
D03*
Y81965D02*
D03*
Y80390D02*
D03*
Y83540D02*
D03*
Y75666D02*
D03*
Y86689D02*
D03*
Y89839D02*
D03*
Y92989D02*
D03*
Y78815D02*
D03*
Y77241D02*
D03*
Y88264D02*
D03*
Y85115D02*
D03*
Y96138D02*
D03*
Y94563D02*
D03*
X479065Y75666D02*
D03*
Y77241D02*
D03*
Y78815D02*
D03*
Y80390D02*
D03*
Y81965D02*
D03*
Y83540D02*
D03*
Y85115D02*
D03*
Y86689D02*
D03*
Y88264D02*
D03*
Y89839D02*
D03*
Y91414D02*
D03*
Y92989D02*
D03*
Y94563D02*
D03*
Y96138D02*
D03*
D45*
X475768Y72369D02*
D03*
Y99435D02*
D03*
X474193D02*
D03*
X472618D02*
D03*
X471043D02*
D03*
X469468D02*
D03*
X467894D02*
D03*
X466319D02*
D03*
X464744D02*
D03*
X463169D02*
D03*
X461594D02*
D03*
X460020D02*
D03*
X458445D02*
D03*
X456870D02*
D03*
X455295D02*
D03*
X472618Y72369D02*
D03*
X471043D02*
D03*
X469468D02*
D03*
X467894D02*
D03*
X466319D02*
D03*
X464744D02*
D03*
X463169D02*
D03*
X461594D02*
D03*
X460020D02*
D03*
X458445D02*
D03*
X456870D02*
D03*
X455295D02*
D03*
X474193D02*
D03*
D46*
X504902Y78028D02*
D03*
Y86028D02*
D03*
X497902D02*
D03*
Y78028D02*
D03*
D47*
X533543Y136709D02*
D03*
Y131709D02*
D03*
Y126709D02*
D03*
Y121709D02*
D03*
X555000Y136709D02*
D03*
Y131709D02*
D03*
Y126709D02*
D03*
Y121709D02*
D03*
X486299Y135548D02*
D03*
Y130548D02*
D03*
Y125548D02*
D03*
Y120548D02*
D03*
Y115548D02*
D03*
Y110548D02*
D03*
Y105548D02*
D03*
X507756Y135548D02*
D03*
Y130548D02*
D03*
Y125548D02*
D03*
Y120548D02*
D03*
Y115548D02*
D03*
Y110548D02*
D03*
Y105548D02*
D03*
D48*
X579114Y112477D02*
D03*
Y105587D02*
D03*
Y98697D02*
D03*
X564547D02*
D03*
Y105587D02*
D03*
Y112477D02*
D03*
D49*
X503327Y58934D02*
D03*
X497028D02*
D03*
Y62477D02*
D03*
X503327D02*
D03*
D50*
X333450Y107496D02*
D03*
X321550D02*
D03*
X333450Y327496D02*
D03*
X321550D02*
D03*
Y217496D02*
D03*
X333450D02*
D03*
D51*
X400000Y203250D02*
D03*
X405000D02*
D03*
X410000D02*
D03*
X415000D02*
D03*
X370000D02*
D03*
X375000D02*
D03*
X380000D02*
D03*
X385000D02*
D03*
D52*
X415000Y224750D02*
D03*
X410000D02*
D03*
X405000D02*
D03*
X400000D02*
D03*
X385000D02*
D03*
X380000D02*
D03*
X375000D02*
D03*
X370000D02*
D03*
D53*
X407500Y216450D02*
D03*
X377500D02*
D03*
D54*
X412913Y245000D02*
D03*
X377087D02*
D03*
D55*
X415276Y167500D02*
D03*
X429724D02*
D03*
D56*
X335000Y26550D02*
D03*
Y38450D02*
D03*
D93*
X612136Y127155D02*
D03*
Y115344D02*
D03*
Y103533D02*
D03*
X600325Y127155D02*
D03*
Y115344D02*
D03*
Y103533D02*
D03*
D98*
X77754Y257677D02*
D03*
Y241142D02*
D03*
X56100Y257677D02*
D03*
Y241142D02*
D03*
X27360Y175000D02*
D03*
Y257677D02*
D03*
D99*
X465669Y144731D02*
D03*
X579000Y151000D02*
D03*
X585000Y156000D02*
D03*
X535069Y149931D02*
D03*
X539556Y75634D02*
D03*
X469862Y90233D02*
D03*
X461201D02*
D03*
Y81571D02*
D03*
X469862D02*
D03*
X528524Y131571D02*
D03*
X469468Y110311D02*
D03*
X438386Y65242D02*
D03*
X483642Y98500D02*
D03*
X493038Y108002D02*
D03*
D102*
X40000Y318000D02*
X98763Y376763D01*
X119566D01*
X125303Y382500D01*
X40000Y252000D02*
Y318000D01*
X119566Y351172D02*
X125303Y356909D01*
X56100Y308100D02*
X99172Y351172D01*
X56100Y257677D02*
Y308100D01*
X99172Y351172D02*
X119566D01*
X16000Y322000D02*
X97055Y403055D01*
X120267D02*
X125303Y408090D01*
X97055Y403055D02*
X120267D01*
X16000Y244000D02*
Y322000D01*
X77754Y191104D02*
X109133Y159724D01*
X121781Y240296D02*
X125303Y243819D01*
X115000Y240296D02*
X121781D01*
X115000Y228707D02*
Y240296D01*
X110899Y224606D02*
X115000Y228707D01*
X77754Y224606D02*
X110899D01*
X78000Y257924D02*
Y289000D01*
X77754Y257677D02*
X78000Y257924D01*
Y289000D02*
X87090Y298091D01*
X125303D01*
X116000Y191928D02*
X122613Y185315D01*
X116000Y191928D02*
Y203970D01*
X122613Y185315D02*
X125303D01*
X77754Y208071D02*
X111899D01*
X116000Y203970D01*
X16000Y244000D02*
X34907Y225093D01*
X55179Y242062D02*
X56100Y241142D01*
X49938Y242062D02*
X55179D01*
X40000Y252000D02*
X49938Y242062D01*
X10000Y94449D02*
X75039Y29409D01*
X125303D01*
X40000Y90039D02*
X75039Y55000D01*
X125303D01*
X40000Y90039D02*
Y175435D01*
X56100Y101900D02*
Y175000D01*
X77409Y80590D02*
X125303D01*
X56100Y101900D02*
X77409Y80590D01*
X77754Y142246D02*
X85000Y135000D01*
X122795D01*
X77754Y142246D02*
Y175394D01*
X125000Y295000D02*
X125000Y295000D01*
X79763Y241142D02*
X108030Y269409D01*
X34907Y225093D02*
X55613D01*
X77754Y241142D02*
X79055D01*
X10000Y94449D02*
Y185000D01*
X33071Y208071D01*
X56100D01*
X40000Y175435D02*
X56100Y191535D01*
X110915Y269409D02*
X125000D01*
D103*
X368079Y22532D02*
Y31921D01*
X368000Y32000D02*
X368079Y31921D01*
D104*
X542000Y8000D02*
Y46000D01*
X384000Y45000D02*
X393600Y54600D01*
X420900D01*
X572500Y169055D02*
X574567D01*
X535500Y161500D02*
X537500Y159500D01*
X547500D01*
X535000Y161500D02*
X535500D01*
X547500Y159500D02*
X572500D01*
X575122Y168500D02*
X585000D01*
X574567Y169055D02*
X575122Y168500D01*
X585500D02*
X600325Y153675D01*
X585000Y168500D02*
X585500D01*
X600325Y127155D02*
Y153675D01*
X430350Y177000D02*
X430850Y177500D01*
X428937Y167500D02*
X429448D01*
X430350Y168402D01*
Y177000D01*
X441850Y198150D02*
X442000Y198000D01*
X432500Y198150D02*
X441850D01*
X442000Y198000D02*
X442500D01*
X430850Y187500D02*
Y196750D01*
Y177500D02*
Y187500D01*
D105*
X547500Y133500D02*
Y159500D01*
X547000Y133000D02*
X547500Y133500D01*
D106*
X423386Y87668D02*
Y95351D01*
X524587Y128284D02*
X524665D01*
X533242Y126408D02*
X533543Y126709D01*
X527360Y126436D02*
X527736Y126059D01*
X526513Y126436D02*
X527360D01*
X524665Y128284D02*
X526513Y126436D01*
X528085Y126408D02*
X533242D01*
X527736Y126059D02*
X528085Y126408D01*
X528455Y131640D02*
X528524Y131571D01*
X524655Y131640D02*
X528455D01*
X524587Y131709D02*
X524655Y131640D01*
X533474D02*
X533543Y131709D01*
X528524Y131571D02*
X528592Y131640D01*
X533474D01*
X507805Y135597D02*
X515876D01*
X429311Y95351D02*
X430098Y96138D01*
X426811Y95351D02*
X429311D01*
X438386Y59715D02*
Y65242D01*
X490583Y105548D02*
X493038Y108002D01*
X486299Y105548D02*
X490583D01*
X447126Y104480D02*
Y104800D01*
X446634Y103988D02*
X447126Y104480D01*
X446634Y100213D02*
Y103988D01*
X451198Y106397D02*
X451221Y106374D01*
X447126Y104800D02*
X448723Y106397D01*
X451198D01*
D107*
X542414Y97431D02*
X542888Y97904D01*
X542414Y94655D02*
Y97431D01*
X542047Y94288D02*
X542414Y94655D01*
X542888Y97904D02*
Y103034D01*
X542697Y103225D02*
X542888Y103034D01*
X539556Y75634D02*
Y81796D01*
X542047Y84288D01*
D108*
X75000Y420000D02*
D03*
X620000Y30000D02*
D03*
Y230000D02*
D03*
X385000Y420000D02*
D03*
X30000Y30000D02*
D03*
D109*
X540000Y232500D02*
D03*
Y215039D02*
D03*
X522539D02*
D03*
X557461D02*
D03*
Y232500D02*
D03*
X522539D02*
D03*
Y249961D02*
D03*
X540000D02*
D03*
X557461D02*
D03*
X475000Y232500D02*
D03*
Y215039D02*
D03*
X457539D02*
D03*
X492461D02*
D03*
Y232500D02*
D03*
X457539D02*
D03*
Y249961D02*
D03*
X475000D02*
D03*
X492461D02*
D03*
X402461Y382461D02*
D03*
X385000D02*
D03*
X367539D02*
D03*
Y365000D02*
D03*
X402461D02*
D03*
Y347539D02*
D03*
X367539D02*
D03*
X385000D02*
D03*
Y365000D02*
D03*
X402461Y282539D02*
D03*
Y300000D02*
D03*
Y317461D02*
D03*
X385000D02*
D03*
Y282539D02*
D03*
X367539D02*
D03*
Y317461D02*
D03*
Y300000D02*
D03*
X385000D02*
D03*
D110*
X175000Y440000D02*
D03*
X185000D02*
D03*
X195000D02*
D03*
X384000Y45000D02*
D03*
X404000D02*
D03*
X414000D02*
D03*
X424000D02*
D03*
X394000Y35000D02*
D03*
X414000D02*
D03*
X424000D02*
D03*
X394000Y45000D02*
D03*
X404000Y35000D02*
D03*
X175000Y220000D02*
D03*
X185000D02*
D03*
X195000D02*
D03*
Y110000D02*
D03*
X185000D02*
D03*
X175000D02*
D03*
Y330000D02*
D03*
X185000D02*
D03*
X195000D02*
D03*
D111*
X205000Y440000D02*
D03*
X384000Y35000D02*
D03*
X205000Y220000D02*
D03*
Y110000D02*
D03*
Y330000D02*
D03*
D112*
X283177Y8799D02*
D03*
X267429D02*
D03*
Y338799D02*
D03*
X283177D02*
D03*
X267429Y228799D02*
D03*
X283177D02*
D03*
X267429Y118799D02*
D03*
X283177D02*
D03*
D113*
X629066Y115344D02*
D03*
D114*
X529547Y86788D02*
D03*
X549547D02*
D03*
Y99288D02*
D03*
X529547D02*
D03*
D115*
X535547Y79288D02*
D03*
X543547D02*
D03*
X539547Y99288D02*
D03*
D116*
X77754Y224606D02*
D03*
Y208071D02*
D03*
X56100Y208071D02*
D03*
Y224606D02*
D03*
X77754Y191535D02*
D03*
X56100D02*
D03*
X77754Y175000D02*
D03*
X56100D02*
D03*
D117*
X355000Y32500D02*
D03*
X375000Y33000D02*
D03*
X368000Y32000D02*
D03*
X563500Y33500D02*
D03*
X317000Y43051D02*
D03*
X565700Y52900D02*
D03*
X392500Y20000D02*
D03*
X397500Y17500D02*
D03*
X422500Y5000D02*
D03*
X417500Y7500D02*
D03*
X412500Y10000D02*
D03*
X407500Y12500D02*
D03*
X402500Y15000D02*
D03*
X387500Y22500D02*
D03*
X299500Y385500D02*
D03*
X300500Y376000D02*
D03*
X303000Y275500D02*
D03*
X306000Y266000D02*
D03*
X310500Y162000D02*
D03*
Y152500D02*
D03*
X312931Y52500D02*
D03*
X401000Y100400D02*
D03*
X295500Y394500D02*
D03*
Y64500D02*
D03*
Y174500D02*
D03*
Y284500D02*
D03*
D118*
X470500Y68000D02*
D03*
X473076Y77831D02*
D03*
X456870Y85115D02*
D03*
X558740Y63855D02*
D03*
X542402D02*
D03*
X535118D02*
D03*
X515925Y128934D02*
D03*
X567894Y132359D02*
D03*
X474980Y85115D02*
D03*
X518780Y63855D02*
D03*
X512776Y62418D02*
D03*
X447520Y86689D02*
D03*
X456870Y92989D02*
D03*
X534035Y107162D02*
D03*
X517697Y89482D02*
D03*
X516713Y81965D02*
D03*
X511201Y98697D02*
D03*
X551226Y107162D02*
D03*
X527736Y126059D02*
D03*
X552933Y111099D02*
D03*
X560745Y117336D02*
D03*
X567106Y77890D02*
D03*
X472618Y95351D02*
D03*
X512776Y107162D02*
D03*
X480612Y113341D02*
D03*
X474193Y88648D02*
D03*
X489153Y76453D02*
D03*
X489941Y80390D02*
D03*
X430098Y96138D02*
D03*
X478917Y99052D02*
D03*
X453721Y68579D02*
D03*
X479705Y64642D02*
D03*
X578917Y94563D02*
D03*
X447126Y104800D02*
D03*
D119*
X330000Y72500D02*
D03*
Y77500D02*
D03*
Y82500D02*
D03*
Y87500D02*
D03*
X315000Y182500D02*
D03*
Y187500D02*
D03*
Y192500D02*
D03*
Y197500D02*
D03*
Y292500D02*
D03*
Y297500D02*
D03*
Y302500D02*
D03*
Y307500D02*
D03*
X320000Y87500D02*
D03*
X325000D02*
D03*
Y82500D02*
D03*
X320000D02*
D03*
Y77500D02*
D03*
X325000D02*
D03*
Y72500D02*
D03*
X320000D02*
D03*
Y197500D02*
D03*
X325000D02*
D03*
Y192500D02*
D03*
X320000D02*
D03*
Y187500D02*
D03*
X325000D02*
D03*
Y182500D02*
D03*
X320000D02*
D03*
Y307500D02*
D03*
X325000D02*
D03*
Y302500D02*
D03*
X320000D02*
D03*
Y297500D02*
D03*
X325000D02*
D03*
Y292500D02*
D03*
X320000D02*
D03*
Y402500D02*
D03*
X325000D02*
D03*
X330000D02*
D03*
Y407500D02*
D03*
X325000D02*
D03*
X320000D02*
D03*
Y412500D02*
D03*
X325000D02*
D03*
X330000D02*
D03*
Y417500D02*
D03*
X325000D02*
D03*
X320000D02*
D03*
D120*
X547421Y118185D02*
D03*
X554728Y80721D02*
D03*
X475728Y127721D02*
D03*
X442697Y109524D02*
D03*
X423386Y80390D02*
D03*
X451728Y127721D02*
D03*
D121*
X340000Y437000D02*
D03*
X442500Y209500D02*
D03*
X432500D02*
D03*
M02*
