G04*
G04 #@! TF.GenerationSoftware,Altium Limited,Altium Designer,24.9.1 (31)*
G04*
G04 Layer_Physical_Order=2*
G04 Layer_Color=16711680*
%FSLAX25Y25*%
%MOIN*%
G70*
G04*
G04 #@! TF.SameCoordinates,4FD8CB89-A412-4131-9868-04C68DA5EDAD*
G04*
G04*
G04 #@! TF.FilePolarity,Positive*
G04*
G01*
G75*
%ADD10C,0.02000*%
%ADD12C,0.02362*%
%ADD13C,0.00984*%
%ADD17C,0.00800*%
%ADD19C,0.00787*%
%ADD36R,0.02205X0.02362*%
%ADD37R,0.02362X0.02205*%
%ADD98C,0.11811*%
%ADD99C,0.03150*%
%ADD106C,0.01575*%
%ADD108C,0.17700*%
%ADD109C,0.12598*%
%ADD110C,0.06378*%
G04:AMPARAMS|DCode=111|XSize=63.78mil|YSize=63.78mil|CornerRadius=15.95mil|HoleSize=0mil|Usage=FLASHONLY|Rotation=180.000|XOffset=0mil|YOffset=0mil|HoleType=Round|Shape=RoundedRectangle|*
%AMROUNDEDRECTD111*
21,1,0.06378,0.03189,0,0,180.0*
21,1,0.03189,0.06378,0,0,180.0*
1,1,0.03189,-0.01595,0.01595*
1,1,0.03189,0.01595,0.01595*
1,1,0.03189,0.01595,-0.01595*
1,1,0.03189,-0.01595,-0.01595*
%
%ADD111ROUNDEDRECTD111*%
%ADD112O,0.07874X0.11811*%
%ADD113C,0.12000*%
%ADD114C,0.09200*%
%ADD115C,0.03400*%
%ADD116C,0.11811*%
%ADD117C,0.02500*%
%ADD118C,0.02756*%
%ADD119C,0.04000*%
%ADD120C,0.04528*%
%ADD121C,0.03000*%
%ADD122C,0.04724*%
%ADD123C,0.04528*%
%ADD124O,0.06693X0.07000*%
G36*
X357500Y277200D02*
X374700Y260000D01*
X433630D01*
X433693Y259981D01*
X433732Y259977D01*
X433769Y259962D01*
X436175Y259483D01*
X436215D01*
X436253Y259472D01*
X438695Y259231D01*
X438724Y259234D01*
X438754Y259228D01*
X439980Y259197D01*
X439990Y259199D01*
X440000Y259197D01*
X594000D01*
Y204000D01*
X483500D01*
X357500Y78000D01*
Y78000D01*
X347583Y68083D01*
X344462Y64962D01*
X344370Y65000D01*
X312000D01*
Y122000D01*
Y151119D01*
X312227Y151346D01*
X312537Y152095D01*
Y152905D01*
X312227Y153654D01*
X312000Y153881D01*
Y160619D01*
X312227Y160846D01*
X312537Y161595D01*
Y162405D01*
X312227Y163154D01*
X312000Y163381D01*
Y386000D01*
X312000Y449000D01*
X357500D01*
Y277200D01*
D02*
G37*
G36*
X649197Y31000D02*
X641267D01*
X641151Y32785D01*
X640606Y35521D01*
X639709Y38164D01*
X638475Y40666D01*
X636925Y42987D01*
X635085Y45085D01*
X632987Y46925D01*
X630666Y48475D01*
X628164Y49709D01*
X625521Y50606D01*
X622785Y51151D01*
X620000Y51333D01*
X617215Y51151D01*
X614479Y50606D01*
X611836Y49709D01*
X609334Y48475D01*
X607013Y46925D01*
X604915Y45085D01*
X603075Y42987D01*
X601525Y40666D01*
X600291Y38164D01*
X599394Y35521D01*
X598849Y32785D01*
X598733Y31000D01*
X426024D01*
X425891Y31500D01*
X426442Y31818D01*
X427182Y32558D01*
X427705Y33465D01*
X427976Y34477D01*
Y35524D01*
X427705Y36535D01*
X427182Y37442D01*
X426442Y38182D01*
X425535Y38705D01*
X424523Y38976D01*
X423477D01*
X422465Y38705D01*
X421558Y38182D01*
X421296Y37920D01*
X420834Y38111D01*
Y40131D01*
X422169Y41466D01*
X422465Y41295D01*
X423477Y41024D01*
X424523D01*
X425535Y41295D01*
X426442Y41818D01*
X427182Y42558D01*
X427705Y43465D01*
X427976Y44477D01*
Y45524D01*
X427705Y46535D01*
X427182Y47442D01*
X426442Y48182D01*
X425535Y48705D01*
X424523Y48976D01*
X423477D01*
X422465Y48705D01*
X421558Y48182D01*
X420818Y47442D01*
X420295Y46535D01*
X420024Y45524D01*
Y44477D01*
X420295Y43465D01*
X420466Y43169D01*
X418778Y41482D01*
X418517Y41091D01*
X418426Y40630D01*
X418426Y40630D01*
Y35778D01*
X417926Y35713D01*
X417705Y36535D01*
X417182Y37442D01*
X416442Y38182D01*
X415535Y38705D01*
X414524Y38976D01*
X413477D01*
X412465Y38705D01*
X411558Y38182D01*
X411296Y37920D01*
X410834Y38111D01*
Y40131D01*
X412169Y41466D01*
X412465Y41295D01*
X413477Y41024D01*
X414524D01*
X415535Y41295D01*
X416442Y41818D01*
X417182Y42558D01*
X417705Y43465D01*
X417976Y44477D01*
Y45524D01*
X417705Y46535D01*
X417182Y47442D01*
X416442Y48182D01*
X415535Y48705D01*
X414524Y48976D01*
X413477D01*
X412465Y48705D01*
X411558Y48182D01*
X410818Y47442D01*
X410295Y46535D01*
X410024Y45524D01*
Y44477D01*
X410295Y43465D01*
X410466Y43169D01*
X408778Y41482D01*
X408517Y41091D01*
X408426Y40630D01*
X408426Y40630D01*
Y35778D01*
X407926Y35713D01*
X407705Y36535D01*
X407182Y37442D01*
X406442Y38182D01*
X405535Y38705D01*
X404524Y38976D01*
X403476D01*
X402465Y38705D01*
X401558Y38182D01*
X401296Y37920D01*
X400834Y38111D01*
Y40131D01*
X402169Y41466D01*
X402465Y41295D01*
X403476Y41024D01*
X404524D01*
X405535Y41295D01*
X406442Y41818D01*
X407182Y42558D01*
X407705Y43465D01*
X407976Y44477D01*
Y45524D01*
X407705Y46535D01*
X407182Y47442D01*
X406442Y48182D01*
X405535Y48705D01*
X404524Y48976D01*
X403476D01*
X402465Y48705D01*
X401558Y48182D01*
X400818Y47442D01*
X400295Y46535D01*
X400024Y45524D01*
Y44477D01*
X400295Y43465D01*
X400466Y43169D01*
X398778Y41482D01*
X398517Y41091D01*
X398426Y40630D01*
X398426Y40630D01*
Y35778D01*
X397926Y35713D01*
X397705Y36535D01*
X397182Y37442D01*
X396442Y38182D01*
X395535Y38705D01*
X394524Y38976D01*
X393477D01*
X392465Y38705D01*
X391558Y38182D01*
X391296Y37920D01*
X390834Y38111D01*
Y40131D01*
X392169Y41466D01*
X392465Y41295D01*
X393477Y41024D01*
X394524D01*
X395535Y41295D01*
X396442Y41818D01*
X397182Y42558D01*
X397705Y43465D01*
X397976Y44477D01*
Y45524D01*
X397705Y46535D01*
X397182Y47442D01*
X396442Y48182D01*
X395535Y48705D01*
X394524Y48976D01*
X393477D01*
X392465Y48705D01*
X391558Y48182D01*
X390818Y47442D01*
X390295Y46535D01*
X390024Y45524D01*
Y44477D01*
X390295Y43465D01*
X390466Y43169D01*
X388778Y41482D01*
X388517Y41091D01*
X388426Y40630D01*
X388426Y40630D01*
Y31000D01*
X351953D01*
X351762Y31462D01*
X378300Y58000D01*
Y89800D01*
X482900Y194400D01*
X649197D01*
Y31000D01*
D02*
G37*
%LPC*%
G36*
X540893Y241571D02*
X539107D01*
X537354Y241222D01*
X535703Y240539D01*
X534218Y239546D01*
X532954Y238282D01*
X531961Y236797D01*
X531278Y235146D01*
X530929Y233393D01*
Y231607D01*
X531278Y229854D01*
X531961Y228203D01*
X532954Y226718D01*
X534218Y225454D01*
X535703Y224462D01*
X537354Y223778D01*
X539107Y223429D01*
X540893D01*
X542646Y223778D01*
X544297Y224462D01*
X545782Y225454D01*
X547046Y226718D01*
X548038Y228203D01*
X548722Y229854D01*
X549071Y231607D01*
Y233393D01*
X548722Y235146D01*
X548038Y236797D01*
X547046Y238282D01*
X545782Y239546D01*
X544297Y240539D01*
X542646Y241222D01*
X540893Y241571D01*
D02*
G37*
G36*
X475893D02*
X474107D01*
X472354Y241222D01*
X470703Y240539D01*
X469218Y239546D01*
X467954Y238282D01*
X466961Y236797D01*
X466278Y235146D01*
X465929Y233393D01*
Y231607D01*
X466278Y229854D01*
X466961Y228203D01*
X467954Y226718D01*
X469218Y225454D01*
X470703Y224462D01*
X472354Y223778D01*
X474107Y223429D01*
X475893D01*
X477646Y223778D01*
X479297Y224462D01*
X480782Y225454D01*
X482046Y226718D01*
X483039Y228203D01*
X483722Y229854D01*
X484071Y231607D01*
Y233393D01*
X483722Y235146D01*
X483039Y236797D01*
X482046Y238282D01*
X480782Y239546D01*
X479297Y240539D01*
X477646Y241222D01*
X475893Y241571D01*
D02*
G37*
G36*
X475728Y130798D02*
X451728D01*
X451528Y130772D01*
X451327D01*
X451132Y130720D01*
X450932Y130693D01*
X450745Y130616D01*
X450551Y130564D01*
X450376Y130463D01*
X450190Y130386D01*
X450030Y130263D01*
X449855Y130162D01*
X449712Y130020D01*
X449552Y129897D01*
X449429Y129737D01*
X449287Y129594D01*
X449186Y129420D01*
X449063Y129260D01*
X448986Y129073D01*
X448885Y128899D01*
X448833Y128704D01*
X448756Y128517D01*
X448729Y128317D01*
X448677Y128123D01*
Y127921D01*
X448651Y127721D01*
X448677Y127521D01*
Y127319D01*
X448729Y127124D01*
X448756Y126924D01*
X448833Y126738D01*
X448885Y126543D01*
X448986Y126368D01*
X449063Y126182D01*
X449186Y126022D01*
X449287Y125847D01*
X449429Y125705D01*
X449552Y125545D01*
X449712Y125422D01*
X449855Y125279D01*
X450030Y125179D01*
X450190Y125056D01*
X450376Y124978D01*
X450551Y124878D01*
X450745Y124825D01*
X450932Y124748D01*
X451132Y124722D01*
X451327Y124670D01*
X451528D01*
X451728Y124643D01*
X475728D01*
X475928Y124670D01*
X476130D01*
X476325Y124722D01*
X476525Y124748D01*
X476711Y124825D01*
X476906Y124878D01*
X477081Y124978D01*
X477267Y125056D01*
X477427Y125179D01*
X477602Y125279D01*
X477744Y125422D01*
X477905Y125545D01*
X478027Y125705D01*
X478170Y125847D01*
X478271Y126022D01*
X478394Y126182D01*
X478471Y126368D01*
X478572Y126543D01*
X478624Y126738D01*
X478701Y126924D01*
X478727Y127124D01*
X478780Y127319D01*
Y127521D01*
X478806Y127721D01*
X478780Y127921D01*
Y128123D01*
X478727Y128317D01*
X478701Y128517D01*
X478624Y128704D01*
X478572Y128899D01*
X478471Y129073D01*
X478394Y129260D01*
X478271Y129420D01*
X478170Y129594D01*
X478027Y129737D01*
X477905Y129897D01*
X477744Y130020D01*
X477602Y130162D01*
X477427Y130263D01*
X477267Y130386D01*
X477081Y130463D01*
X476906Y130564D01*
X476711Y130616D01*
X476525Y130693D01*
X476325Y130720D01*
X476130Y130772D01*
X475928D01*
X475728Y130798D01*
D02*
G37*
G36*
X528167Y128225D02*
X527306D01*
X526510Y127895D01*
X525901Y127286D01*
X525571Y126490D01*
Y125629D01*
X525901Y124833D01*
X526510Y124224D01*
X527306Y123894D01*
X528167D01*
X528963Y124224D01*
X529572Y124833D01*
X529902Y125629D01*
Y126490D01*
X529572Y127286D01*
X528963Y127895D01*
X528167Y128225D01*
D02*
G37*
G36*
X600325Y131478D02*
X599246Y131336D01*
X598240Y130919D01*
X597377Y130256D01*
X596714Y129393D01*
X596298Y128387D01*
X596156Y127308D01*
Y127001D01*
X596298Y125922D01*
X596714Y124916D01*
X597377Y124053D01*
X598240Y123390D01*
X599246Y122974D01*
X600325Y122832D01*
X601404Y122974D01*
X602410Y123390D01*
X603273Y124053D01*
X603936Y124916D01*
X604353Y125922D01*
X604495Y127001D01*
Y127308D01*
X604353Y128387D01*
X603936Y129393D01*
X603273Y130256D01*
X602410Y130919D01*
X601404Y131336D01*
X600325Y131478D01*
D02*
G37*
G36*
X547421Y121263D02*
X547221Y121237D01*
X547020D01*
X546825Y121184D01*
X546625Y121158D01*
X546438Y121081D01*
X546243Y121029D01*
X546069Y120928D01*
X545883Y120851D01*
X545722Y120728D01*
X545548Y120627D01*
X545405Y120484D01*
X545245Y120362D01*
X545122Y120202D01*
X544980Y120059D01*
X544879Y119884D01*
X544756Y119724D01*
X544679Y119538D01*
X544578Y119363D01*
X544526Y119168D01*
X544449Y118982D01*
X544422Y118782D01*
X544370Y118587D01*
Y118385D01*
X544344Y118185D01*
X544370Y117985D01*
Y117784D01*
X544422Y117589D01*
X544449Y117389D01*
X544526Y117203D01*
X544578Y117008D01*
X544679Y116833D01*
X544756Y116647D01*
X544879Y116487D01*
X544980Y116312D01*
X545122Y116169D01*
X545245Y116009D01*
X547627Y113627D01*
X548264Y113138D01*
X549007Y112831D01*
X549218Y112803D01*
X549185Y112303D01*
X532461D01*
X532000Y112211D01*
X531609Y111950D01*
X531609Y111950D01*
X528025Y108366D01*
X514620D01*
X514611Y108388D01*
X514002Y108997D01*
X513206Y109327D01*
X512345D01*
X511549Y108997D01*
X510940Y108388D01*
X510610Y107592D01*
Y106731D01*
X510940Y105935D01*
X511549Y105326D01*
X512345Y104997D01*
X513206D01*
X514002Y105326D01*
X514611Y105935D01*
X514620Y105958D01*
X528524D01*
X528524Y105958D01*
X528984Y106049D01*
X529375Y106310D01*
X532959Y109895D01*
X550683D01*
X550743Y109805D01*
X550746Y109771D01*
X550533Y109219D01*
X549999Y108997D01*
X549390Y108388D01*
X549381Y108366D01*
X535880D01*
X535871Y108388D01*
X535262Y108997D01*
X534466Y109327D01*
X533605D01*
X532809Y108997D01*
X532200Y108388D01*
X531870Y107592D01*
Y106731D01*
X532200Y105935D01*
X532809Y105326D01*
X533605Y104997D01*
X534466D01*
X535262Y105326D01*
X535871Y105935D01*
X535880Y105958D01*
X549381D01*
X549390Y105935D01*
X549888Y105438D01*
X549730Y104938D01*
X548803D01*
X547366Y104553D01*
X546078Y103809D01*
X545026Y102757D01*
X544282Y101469D01*
X543897Y100032D01*
Y98544D01*
X544282Y97107D01*
X545026Y95819D01*
X546078Y94767D01*
X547366Y94023D01*
X548803Y93638D01*
X550291D01*
X551728Y94023D01*
X553016Y94767D01*
X553884Y95634D01*
X554384Y95427D01*
Y90649D01*
X553884Y90442D01*
X553016Y91309D01*
X551728Y92053D01*
X550291Y92438D01*
X548803D01*
X547366Y92053D01*
X546078Y91309D01*
X545026Y90257D01*
X544282Y88969D01*
X543897Y87532D01*
Y86044D01*
X544282Y84607D01*
X545026Y83319D01*
X546078Y82267D01*
X547366Y81523D01*
X548803Y81138D01*
X550291D01*
X551227Y81389D01*
X551237Y81386D01*
X551408Y81284D01*
X551677Y80992D01*
Y80977D01*
X551651Y80777D01*
Y80721D01*
X551677Y80521D01*
Y80319D01*
X551729Y80124D01*
X551756Y79924D01*
X551833Y79738D01*
X551885Y79543D01*
X551986Y79369D01*
X552063Y79182D01*
X552186Y79022D01*
X552287Y78847D01*
X552429Y78705D01*
X552552Y78545D01*
X552712Y78422D01*
X552855Y78279D01*
X553030Y78179D01*
X553190Y78056D01*
X553376Y77978D01*
X553551Y77878D01*
X553746Y77825D01*
X553932Y77748D01*
X554132Y77722D01*
X554327Y77670D01*
X554528D01*
X554728Y77643D01*
X554928Y77670D01*
X555130D01*
X555325Y77722D01*
X555525Y77748D01*
X555711Y77825D01*
X555906Y77878D01*
X556081Y77978D01*
X556267Y78056D01*
X556427Y78179D01*
X556602Y78279D01*
X556744Y78422D01*
X556905Y78545D01*
X557027Y78705D01*
X557170Y78847D01*
X557196Y78892D01*
X559637Y81334D01*
X560126Y81971D01*
X560434Y82713D01*
X560538Y83510D01*
Y113110D01*
X560539Y113110D01*
X560434Y113907D01*
X560126Y114649D01*
X559637Y115286D01*
X556944Y117980D01*
X556306Y118469D01*
X555872Y118649D01*
X555564Y118776D01*
X554768Y118881D01*
X551078D01*
X549597Y120362D01*
X549437Y120484D01*
X549295Y120627D01*
X549120Y120728D01*
X548960Y120851D01*
X548774Y120928D01*
X548599Y121029D01*
X548404Y121081D01*
X548218Y121158D01*
X548018Y121184D01*
X547823Y121237D01*
X547621D01*
X547421Y121263D01*
D02*
G37*
G36*
X629755Y122344D02*
X628376D01*
X627024Y122075D01*
X625750Y121547D01*
X624603Y120781D01*
X623628Y119806D01*
X622862Y118659D01*
X622335Y117385D01*
X622066Y116033D01*
Y114654D01*
X622335Y113302D01*
X622862Y112028D01*
X623628Y110881D01*
X624603Y109906D01*
X625750Y109140D01*
X627024Y108613D01*
X628376Y108344D01*
X629755D01*
X631108Y108613D01*
X632381Y109140D01*
X633528Y109906D01*
X634503Y110881D01*
X635269Y112028D01*
X635797Y113302D01*
X636066Y114654D01*
Y116033D01*
X635797Y117385D01*
X635269Y118659D01*
X634503Y119806D01*
X633528Y120781D01*
X632381Y121547D01*
X631108Y122075D01*
X629755Y122344D01*
D02*
G37*
G36*
X612136Y119667D02*
X611057Y119525D01*
X610051Y119108D01*
X609188Y118446D01*
X608525Y117582D01*
X608109Y116576D01*
X607967Y115497D01*
Y115190D01*
X608109Y114111D01*
X608525Y113105D01*
X609188Y112242D01*
X610051Y111579D01*
X610925Y111217D01*
Y107659D01*
X610051Y107297D01*
X609188Y106634D01*
X608525Y105771D01*
X608109Y104765D01*
X607967Y103686D01*
Y103379D01*
X608109Y102300D01*
X608525Y101294D01*
X609188Y100431D01*
X610051Y99768D01*
X611057Y99352D01*
X612136Y99210D01*
X613215Y99352D01*
X614221Y99768D01*
X615085Y100431D01*
X615747Y101294D01*
X616164Y102300D01*
X616306Y103379D01*
Y103686D01*
X616164Y104765D01*
X615747Y105771D01*
X615085Y106634D01*
X614221Y107297D01*
X613347Y107659D01*
Y111217D01*
X614221Y111579D01*
X615085Y112242D01*
X615747Y113105D01*
X616164Y114111D01*
X616306Y115190D01*
Y115497D01*
X616164Y116576D01*
X615747Y117582D01*
X615085Y118446D01*
X614221Y119108D01*
X613215Y119525D01*
X612136Y119667D01*
D02*
G37*
G36*
X600325D02*
X599246Y119525D01*
X598240Y119108D01*
X597377Y118446D01*
X596714Y117582D01*
X596298Y116576D01*
X596156Y115497D01*
Y115190D01*
X596298Y114111D01*
X596714Y113105D01*
X597377Y112242D01*
X598240Y111579D01*
X599121Y111214D01*
Y107662D01*
X598240Y107297D01*
X597377Y106634D01*
X596714Y105771D01*
X596298Y104765D01*
X596156Y103686D01*
Y103379D01*
X596298Y102300D01*
X596714Y101294D01*
X597377Y100431D01*
X598240Y99768D01*
X599246Y99352D01*
X600325Y99210D01*
X601404Y99352D01*
X602410Y99768D01*
X603273Y100431D01*
X603936Y101294D01*
X604353Y102300D01*
X604495Y103379D01*
Y103686D01*
X604353Y104765D01*
X603936Y105771D01*
X603273Y106634D01*
X602410Y107297D01*
X601529Y107662D01*
Y111214D01*
X602410Y111579D01*
X603273Y112242D01*
X603936Y113105D01*
X604353Y114111D01*
X604495Y115190D01*
Y115497D01*
X604353Y116576D01*
X603936Y117582D01*
X603273Y118446D01*
X602410Y119108D01*
X601404Y119525D01*
X600325Y119667D01*
D02*
G37*
G36*
X481043Y115506D02*
X480182D01*
X479386Y115177D01*
X478777Y114567D01*
X478447Y113772D01*
Y112910D01*
X478523Y112726D01*
X478066Y112268D01*
X477805Y111878D01*
X477713Y111417D01*
X477713Y111417D01*
Y100897D01*
X477691Y100887D01*
X477082Y100278D01*
X476752Y99482D01*
Y98621D01*
X476908Y98244D01*
X476574Y97744D01*
X474646D01*
Y101650D01*
X474362D01*
Y107024D01*
X474362Y107024D01*
X474239Y107639D01*
X473891Y108159D01*
X473891Y108159D01*
X471831Y110220D01*
Y110781D01*
X471471Y111650D01*
X470807Y112314D01*
X469938Y112674D01*
X468999D01*
X468130Y112314D01*
X467466Y111650D01*
X467106Y110781D01*
Y109842D01*
X467466Y108973D01*
X468130Y108309D01*
X468999Y107949D01*
X469560D01*
X471150Y106359D01*
Y101650D01*
X470866D01*
Y97713D01*
X471081D01*
Y96876D01*
X470782Y96577D01*
X470453Y95781D01*
Y94920D01*
X470782Y94124D01*
X471391Y93515D01*
X472187Y93186D01*
X473049D01*
X473845Y93515D01*
X474454Y94124D01*
X474623Y94533D01*
X477496D01*
X477694Y94493D01*
X477694Y94493D01*
X481240D01*
X481240Y94493D01*
X481855Y94615D01*
X482375Y94964D01*
X483550Y96138D01*
X484112D01*
X484980Y96498D01*
X485644Y97162D01*
X486004Y98031D01*
Y98970D01*
X485644Y99839D01*
X484980Y100503D01*
X484112Y100863D01*
X483172D01*
X482304Y100503D01*
X481639Y99839D01*
X481545Y99610D01*
X481017Y99642D01*
X480753Y100278D01*
X480144Y100887D01*
X480122Y100897D01*
Y110918D01*
X480379Y111176D01*
X481043D01*
X481839Y111505D01*
X482448Y112114D01*
X482778Y112910D01*
Y113772D01*
X482448Y114567D01*
X481839Y115177D01*
X481043Y115506D01*
D02*
G37*
G36*
X539909Y102038D02*
X539185D01*
X538486Y101850D01*
X537859Y101488D01*
X537347Y100976D01*
X536985Y100349D01*
X536797Y99650D01*
Y98926D01*
X536985Y98226D01*
X537347Y97599D01*
X537859Y97087D01*
X538486Y96725D01*
X539185Y96538D01*
X539909D01*
X540609Y96725D01*
X541236Y97087D01*
X541748Y97599D01*
X542110Y98226D01*
X542297Y98926D01*
Y99650D01*
X542110Y100349D01*
X541748Y100976D01*
X541236Y101488D01*
X540609Y101850D01*
X539909Y102038D01*
D02*
G37*
G36*
X457301Y95154D02*
X456439D01*
X455644Y94824D01*
X455413Y94594D01*
X454173D01*
Y94957D01*
X450394D01*
Y91020D01*
X454173D01*
Y91383D01*
X455413D01*
X455644Y91153D01*
X456439Y90823D01*
X457301D01*
X458097Y91153D01*
X458706Y91762D01*
X459035Y92558D01*
Y93419D01*
X458706Y94215D01*
X458097Y94824D01*
X457301Y95154D01*
D02*
G37*
G36*
X530291Y104938D02*
X528803D01*
X527366Y104553D01*
X526078Y103809D01*
X525026Y102757D01*
X524282Y101469D01*
X523897Y100032D01*
Y98544D01*
X524282Y97107D01*
X525026Y95819D01*
X526078Y94767D01*
X527366Y94023D01*
X528803Y93638D01*
X530291D01*
X531728Y94023D01*
X533016Y94767D01*
X534068Y95819D01*
X534812Y97107D01*
X535197Y98544D01*
Y100032D01*
X534812Y101469D01*
X534068Y102757D01*
X533016Y103809D01*
X531728Y104553D01*
X530291Y104938D01*
D02*
G37*
G36*
X481457Y91808D02*
X477677D01*
Y90253D01*
X475649D01*
X475420Y90483D01*
X474624Y90813D01*
X473762D01*
X472966Y90483D01*
X472357Y89874D01*
X472028Y89078D01*
Y88753D01*
X469995Y86720D01*
X458327D01*
X458097Y86950D01*
X457301Y87280D01*
X456439D01*
X455644Y86950D01*
X455034Y86341D01*
X454705Y85545D01*
Y84684D01*
X455034Y83888D01*
X455264Y83658D01*
Y82418D01*
X454902D01*
Y78638D01*
X458839D01*
Y82418D01*
X458476D01*
Y83509D01*
X470660D01*
X470660Y83509D01*
X471275Y83631D01*
X471795Y83979D01*
X472353Y84537D01*
X472930Y84407D01*
X473145Y83888D01*
X473754Y83279D01*
X474550Y82949D01*
X475408D01*
X475569Y82788D01*
X475569Y82788D01*
X476090Y82440D01*
X476705Y82317D01*
X477677D01*
Y81954D01*
X481457D01*
Y85891D01*
X477677D01*
Y85891D01*
X477177Y85721D01*
X476999Y85899D01*
X476816Y86341D01*
X476615Y86542D01*
X476823Y87042D01*
X478375D01*
X478375Y87042D01*
X478990Y87164D01*
X479511Y87512D01*
X479756Y87758D01*
X479925Y87871D01*
X481457D01*
Y91808D01*
D02*
G37*
G36*
X511631Y100863D02*
X510770D01*
X509974Y100533D01*
X509365Y99924D01*
X509035Y99128D01*
Y98267D01*
X509365Y97471D01*
X509974Y96862D01*
X510369Y96698D01*
Y95606D01*
X510369Y95605D01*
X510461Y95145D01*
X510722Y94754D01*
X515541Y89935D01*
X515531Y89913D01*
Y89052D01*
X515861Y88256D01*
X516470Y87647D01*
X517266Y87317D01*
X518128D01*
X518923Y87647D01*
X519532Y88256D01*
X519862Y89052D01*
Y89913D01*
X519532Y90709D01*
X518923Y91318D01*
X518128Y91648D01*
X517266D01*
X517244Y91638D01*
X512778Y96104D01*
Y97212D01*
X513036Y97471D01*
X513366Y98267D01*
Y99128D01*
X513036Y99924D01*
X512427Y100533D01*
X511631Y100863D01*
D02*
G37*
G36*
X442697Y112601D02*
X442497Y112575D01*
X442295D01*
X442100Y112523D01*
X441900Y112497D01*
X441714Y112419D01*
X441519Y112367D01*
X441344Y112266D01*
X441158Y112189D01*
X440998Y112066D01*
X440823Y111966D01*
X440681Y111823D01*
X440521Y111700D01*
X440398Y111540D01*
X440255Y111398D01*
X440154Y111223D01*
X440032Y111063D01*
X439955Y110876D01*
X439854Y110702D01*
X439801Y110507D01*
X439724Y110321D01*
X439698Y110120D01*
X439646Y109926D01*
Y109724D01*
X439619Y109524D01*
Y100976D01*
X436771Y98127D01*
X421210Y82566D01*
X421087Y82406D01*
X420944Y82264D01*
X420844Y82089D01*
X420721Y81929D01*
X420643Y81743D01*
X420543Y81568D01*
X420490Y81373D01*
X420413Y81187D01*
X420387Y80987D01*
X420335Y80792D01*
Y80590D01*
X420308Y80390D01*
X420335Y80190D01*
Y79988D01*
X420387Y79794D01*
X420413Y79594D01*
X420490Y79407D01*
X420543Y79212D01*
X420643Y79038D01*
X420721Y78851D01*
X420844Y78691D01*
X420944Y78517D01*
X421087Y78374D01*
X421210Y78214D01*
X421370Y78091D01*
X421512Y77949D01*
X421687Y77848D01*
X421847Y77725D01*
X422034Y77648D01*
X422208Y77547D01*
X422403Y77495D01*
X422589Y77417D01*
X422789Y77391D01*
X422984Y77339D01*
X423186D01*
X423386Y77313D01*
X423586Y77339D01*
X423787D01*
X423982Y77391D01*
X424182Y77417D01*
X424369Y77495D01*
X424564Y77547D01*
X424738Y77648D01*
X424925Y77725D01*
X425085Y77848D01*
X425259Y77949D01*
X425402Y78091D01*
X425562Y78214D01*
X439704Y92356D01*
X440828Y91232D01*
Y86689D01*
X440945Y86100D01*
Y84721D01*
X442641D01*
X442835Y84682D01*
X446707D01*
X447089Y84524D01*
X447950D01*
X448746Y84854D01*
X449355Y85463D01*
X449685Y86259D01*
Y87120D01*
X449355Y87916D01*
X448746Y88525D01*
X447950Y88855D01*
X447089D01*
X446707Y88696D01*
X444842D01*
Y92063D01*
X444689Y92831D01*
X444254Y93483D01*
X442542Y95194D01*
X444873Y97525D01*
X445362Y98162D01*
X445542Y98597D01*
X445670Y98905D01*
X445774Y99701D01*
Y109524D01*
X445748Y109724D01*
Y109926D01*
X445696Y110120D01*
X445670Y110321D01*
X445592Y110507D01*
X445540Y110702D01*
X445439Y110876D01*
X445362Y111063D01*
X445239Y111223D01*
X445138Y111398D01*
X444996Y111540D01*
X444873Y111700D01*
X444713Y111823D01*
X444570Y111966D01*
X444396Y112066D01*
X444236Y112189D01*
X444049Y112266D01*
X443875Y112367D01*
X443680Y112419D01*
X443493Y112497D01*
X443293Y112523D01*
X443098Y112575D01*
X442897D01*
X442697Y112601D01*
D02*
G37*
G36*
X530291Y92438D02*
X528803D01*
X527366Y92053D01*
X526078Y91309D01*
X525026Y90257D01*
X524282Y88969D01*
X523897Y87532D01*
Y86044D01*
X524282Y84607D01*
X525026Y83319D01*
X526078Y82267D01*
X527366Y81523D01*
X528803Y81138D01*
X530291D01*
X531728Y81523D01*
X533016Y82267D01*
X534068Y83319D01*
X534812Y84607D01*
X535197Y86044D01*
Y87532D01*
X534812Y88969D01*
X534068Y90257D01*
X533016Y91309D01*
X531728Y92053D01*
X530291Y92438D01*
D02*
G37*
G36*
X543909Y82038D02*
X543185D01*
X542486Y81850D01*
X541859Y81488D01*
X541347Y80976D01*
X540985Y80349D01*
X540797Y79650D01*
Y78926D01*
X540985Y78226D01*
X541347Y77599D01*
X541859Y77087D01*
X542486Y76725D01*
X543185Y76538D01*
X543909D01*
X544609Y76725D01*
X545236Y77087D01*
X545748Y77599D01*
X546110Y78226D01*
X546297Y78926D01*
Y79650D01*
X546110Y80349D01*
X545748Y80976D01*
X545236Y81488D01*
X544609Y81850D01*
X543909Y82038D01*
D02*
G37*
G36*
X535909D02*
X535185D01*
X534486Y81850D01*
X533859Y81488D01*
X533347Y80976D01*
X532985Y80349D01*
X532797Y79650D01*
Y78926D01*
X532985Y78226D01*
X533347Y77599D01*
X533859Y77087D01*
X534486Y76725D01*
X535185Y76538D01*
X535909D01*
X536609Y76725D01*
X537236Y77087D01*
X537748Y77599D01*
X538110Y78226D01*
X538297Y78926D01*
Y79650D01*
X538110Y80349D01*
X537748Y80976D01*
X537236Y81488D01*
X536609Y81850D01*
X535909Y82038D01*
D02*
G37*
G36*
X473506Y79996D02*
X472645D01*
X471849Y79667D01*
X471240Y79058D01*
X470910Y78262D01*
Y77400D01*
X471240Y76604D01*
X471849Y75995D01*
X472645Y75666D01*
X473506D01*
X473576Y75695D01*
X473670Y75602D01*
X473670Y75602D01*
X474060Y75341D01*
X474521Y75249D01*
X487309D01*
X487318Y75227D01*
X487927Y74617D01*
X488723Y74288D01*
X489584D01*
X490380Y74617D01*
X490989Y75227D01*
X491319Y76022D01*
Y76884D01*
X490989Y77680D01*
X490380Y78289D01*
X489584Y78619D01*
X488723D01*
X487927Y78289D01*
X487318Y77680D01*
X487309Y77657D01*
X475241D01*
Y78262D01*
X474911Y79058D01*
X474302Y79667D01*
X473506Y79996D01*
D02*
G37*
G36*
X454151Y70745D02*
X453290D01*
X452494Y70415D01*
X451885Y69806D01*
X451555Y69010D01*
Y68148D01*
X451885Y67353D01*
X452068Y67170D01*
X452001Y66670D01*
X451752D01*
Y62890D01*
X455689D01*
Y66670D01*
X455440D01*
X455373Y67170D01*
X455556Y67353D01*
X455886Y68148D01*
Y69010D01*
X455556Y69806D01*
X454947Y70415D01*
X454151Y70745D01*
D02*
G37*
G36*
X470931Y70165D02*
X470069D01*
X469273Y69836D01*
X468664Y69227D01*
X468335Y68431D01*
Y67569D01*
X468664Y66773D01*
X468894Y66543D01*
Y65095D01*
X467500D01*
Y61315D01*
X471437D01*
Y62903D01*
X471635Y63101D01*
X471635Y63101D01*
X471983Y63622D01*
X472106Y64237D01*
X472106Y64237D01*
Y66394D01*
X475682D01*
X477539Y64537D01*
Y64211D01*
X477869Y63416D01*
X478478Y62806D01*
X479274Y62477D01*
X480135D01*
X480931Y62806D01*
X481540Y63416D01*
X481870Y64211D01*
Y65073D01*
X481540Y65869D01*
X480931Y66478D01*
X480135Y66808D01*
X479810D01*
X477482Y69135D01*
X476961Y69483D01*
X476347Y69606D01*
X476347Y69606D01*
X471957D01*
X471727Y69836D01*
X470931Y70165D01*
D02*
G37*
G36*
X384524Y48976D02*
X383476D01*
X382465Y48705D01*
X381558Y48182D01*
X380818Y47442D01*
X380295Y46535D01*
X380024Y45524D01*
Y44477D01*
X380295Y43465D01*
X380818Y42558D01*
X381558Y41818D01*
X382465Y41295D01*
X383476Y41024D01*
X384524D01*
X385535Y41295D01*
X386442Y41818D01*
X387182Y42558D01*
X387705Y43465D01*
X387976Y44477D01*
Y45524D01*
X387705Y46535D01*
X387182Y47442D01*
X386442Y48182D01*
X385535Y48705D01*
X384524Y48976D01*
D02*
G37*
%LPD*%
D10*
X438387Y1787D02*
X444000Y7400D01*
X308213Y1787D02*
X438387D01*
X295500Y14500D02*
X308213Y1787D01*
X295500Y14500D02*
Y64500D01*
Y174500D02*
Y284500D01*
Y394500D01*
Y64500D02*
Y174500D01*
D12*
X442835Y86689D02*
X447520D01*
X442835D02*
Y92063D01*
X438947Y95951D02*
X442835Y92063D01*
D13*
X590000Y207200D02*
X590249Y206951D01*
D17*
X612136Y103533D02*
Y115344D01*
D19*
X444000Y7400D02*
X466400D01*
X483900Y24900D01*
Y34400D01*
X424000Y6938D02*
Y35000D01*
X422500Y5438D02*
X424000Y6938D01*
X422500Y5000D02*
Y5438D01*
X417500Y7500D02*
X419630Y9630D01*
Y40630D02*
X424000Y45000D01*
X419630Y9630D02*
Y40630D01*
X414000Y11938D02*
Y35000D01*
X412500Y10000D02*
Y10438D01*
X414000Y11938D01*
X409630Y40630D02*
X414000Y45000D01*
X407500Y12500D02*
X409630Y14630D01*
Y40630D01*
X402500Y15000D02*
Y15438D01*
X404000Y16938D02*
Y35000D01*
X402500Y15438D02*
X404000Y16938D01*
X399630Y19630D02*
Y40630D01*
X397500Y17500D02*
X399630Y19630D01*
Y40630D02*
X404000Y45000D01*
X394000Y21938D02*
Y35000D01*
X392500Y20438D02*
X394000Y21938D01*
X392500Y20000D02*
Y20438D01*
X389630Y24630D02*
Y40630D01*
X387500Y22500D02*
X389630Y24630D01*
Y40630D02*
X394000Y45000D01*
X317000Y28500D02*
X323000Y22500D01*
X317000Y28500D02*
Y43051D01*
X313000Y28500D02*
Y52431D01*
X321000Y17500D02*
X397500D01*
X321500Y20000D02*
X392500D01*
X313000Y28500D02*
X321500Y20000D01*
X300000Y376000D02*
X300500Y375500D01*
X323000Y22500D02*
X387500D01*
X310500Y28000D02*
X321000Y17500D01*
X320000Y15000D02*
X402500D01*
X308000Y27000D02*
X320000Y15000D01*
X305500Y26500D02*
X319500Y12500D01*
X406260D01*
X303000Y25500D02*
X318500Y10000D01*
X412500D01*
X300500Y24500D02*
X317500Y7500D01*
X417500D01*
X298000Y23000D02*
X316000Y5000D01*
X422500D01*
X298000Y23000D02*
X298000Y383562D01*
X303000Y25500D02*
X303000Y275500D01*
X305500Y26500D02*
X305500Y261500D01*
X308000Y27000D02*
X308000Y155000D01*
X310500Y28000D02*
X310500Y152500D01*
X300500Y24500D02*
X300500Y375500D01*
X299500Y385062D02*
Y385500D01*
X298000Y383562D02*
X299500Y385062D01*
X300000Y376000D02*
X300500D01*
X303000Y275500D02*
X303000Y275500D01*
X305500Y261500D02*
X306000Y262000D01*
Y266000D01*
X310500Y157500D02*
Y162000D01*
X308000Y155000D02*
X310500Y157500D01*
X312931Y52500D02*
X313000Y52431D01*
X474521Y76453D02*
X489153D01*
X473143Y77831D02*
X474521Y76453D01*
X473076Y77831D02*
X473143D01*
X600325Y103533D02*
Y115344D01*
X511574Y95605D02*
Y98324D01*
X511201Y98697D02*
X511574Y98324D01*
Y95605D02*
X517697Y89482D01*
X534035Y107162D02*
X551226D01*
X532461Y111099D02*
X552933D01*
X512776Y107162D02*
X528524D01*
X532461Y111099D01*
X480612Y113112D02*
Y113341D01*
X478917Y111417D02*
X480612Y113112D01*
X478917Y99052D02*
Y111417D01*
D36*
X442835Y86689D02*
D03*
X439409D02*
D03*
X482992Y83923D02*
D03*
X479567D02*
D03*
X469331Y99682D02*
D03*
X472756D02*
D03*
X452283Y92989D02*
D03*
X448858D02*
D03*
X482992Y89839D02*
D03*
X479567D02*
D03*
D37*
X469468Y63205D02*
D03*
Y59780D02*
D03*
X453721Y64780D02*
D03*
Y61355D02*
D03*
X456870Y77103D02*
D03*
Y80528D02*
D03*
D98*
X77754Y257677D02*
D03*
Y241142D02*
D03*
X56100Y257677D02*
D03*
Y241142D02*
D03*
X27360Y175000D02*
D03*
Y257677D02*
D03*
D99*
X465669Y144731D02*
D03*
X579000Y151000D02*
D03*
X585000Y156000D02*
D03*
X535069Y149931D02*
D03*
X539556Y75634D02*
D03*
X469862Y90233D02*
D03*
X461201D02*
D03*
Y81571D02*
D03*
X469862D02*
D03*
X528524Y131571D02*
D03*
X469468Y110311D02*
D03*
X438386Y65242D02*
D03*
X483642Y98500D02*
D03*
X493038Y108002D02*
D03*
D106*
X470500Y68000D02*
X476347D01*
X470500Y64237D02*
Y68000D01*
X469468Y63205D02*
X470500Y64237D01*
X476347Y68000D02*
X479705Y64642D01*
X452283Y92989D02*
X456870D01*
X469468Y110311D02*
X472756Y107024D01*
X456870Y80528D02*
Y85115D01*
X470660D01*
X474193Y88648D01*
X478375D02*
X478780Y89052D01*
X478858D01*
X479567Y89760D01*
Y89839D01*
X474193Y88648D02*
X478375D01*
X475513Y85115D02*
X476705Y83923D01*
X479567D01*
X474980Y85115D02*
X475513D01*
X472618Y95351D02*
X473406Y96138D01*
X481240Y96099D02*
X483642Y98500D01*
X477694Y96099D02*
X481240D01*
X477655Y96138D02*
X477694Y96099D01*
X473406Y96138D02*
X477655D01*
X472687D02*
Y99613D01*
X472756Y99682D02*
Y107024D01*
X472687Y99613D02*
X472756Y99682D01*
X453721Y64780D02*
Y68579D01*
D108*
X75000Y420000D02*
D03*
X620000Y30000D02*
D03*
Y230000D02*
D03*
X385000Y420000D02*
D03*
X30000Y30000D02*
D03*
D109*
X540000Y232500D02*
D03*
Y215039D02*
D03*
X522539D02*
D03*
X557461D02*
D03*
Y232500D02*
D03*
X522539D02*
D03*
Y249961D02*
D03*
X540000D02*
D03*
X557461D02*
D03*
X475000Y232500D02*
D03*
Y215039D02*
D03*
X457539D02*
D03*
X492461D02*
D03*
Y232500D02*
D03*
X457539D02*
D03*
Y249961D02*
D03*
X475000D02*
D03*
X492461D02*
D03*
X402461Y382461D02*
D03*
X385000D02*
D03*
X367539D02*
D03*
Y365000D02*
D03*
X402461D02*
D03*
Y347539D02*
D03*
X367539D02*
D03*
X385000D02*
D03*
Y365000D02*
D03*
X402461Y282539D02*
D03*
Y300000D02*
D03*
Y317461D02*
D03*
X385000D02*
D03*
Y282539D02*
D03*
X367539D02*
D03*
Y317461D02*
D03*
Y300000D02*
D03*
X385000D02*
D03*
D110*
X175000Y440000D02*
D03*
X185000D02*
D03*
X195000D02*
D03*
X384000Y45000D02*
D03*
X404000D02*
D03*
X414000D02*
D03*
X424000D02*
D03*
X394000Y35000D02*
D03*
X414000D02*
D03*
X424000D02*
D03*
X394000Y45000D02*
D03*
X404000Y35000D02*
D03*
X175000Y220000D02*
D03*
X185000D02*
D03*
X195000D02*
D03*
Y110000D02*
D03*
X185000D02*
D03*
X175000D02*
D03*
Y330000D02*
D03*
X185000D02*
D03*
X195000D02*
D03*
D111*
X205000Y440000D02*
D03*
X384000Y35000D02*
D03*
X205000Y220000D02*
D03*
Y110000D02*
D03*
Y330000D02*
D03*
D112*
X283177Y8799D02*
D03*
X267429D02*
D03*
Y338799D02*
D03*
X283177D02*
D03*
X267429Y228799D02*
D03*
X283177D02*
D03*
X267429Y118799D02*
D03*
X283177D02*
D03*
D113*
X629066Y115344D02*
D03*
D114*
X529547Y86788D02*
D03*
X549547D02*
D03*
Y99288D02*
D03*
X529547D02*
D03*
D115*
X535547Y79288D02*
D03*
X543547D02*
D03*
X539547Y99288D02*
D03*
D116*
X77754Y224606D02*
D03*
Y208071D02*
D03*
X56100Y208071D02*
D03*
Y224606D02*
D03*
X77754Y191535D02*
D03*
X56100D02*
D03*
X77754Y175000D02*
D03*
X56100D02*
D03*
D117*
X355000Y32500D02*
D03*
X375000Y33000D02*
D03*
X368000Y32000D02*
D03*
X563500Y33500D02*
D03*
X317000Y43051D02*
D03*
X565700Y52900D02*
D03*
X392500Y20000D02*
D03*
X397500Y17500D02*
D03*
X422500Y5000D02*
D03*
X417500Y7500D02*
D03*
X412500Y10000D02*
D03*
X407500Y12500D02*
D03*
X402500Y15000D02*
D03*
X387500Y22500D02*
D03*
X299500Y385500D02*
D03*
X300500Y376000D02*
D03*
X303000Y275500D02*
D03*
X306000Y266000D02*
D03*
X310500Y162000D02*
D03*
Y152500D02*
D03*
X312931Y52500D02*
D03*
X401000Y100400D02*
D03*
X295500Y394500D02*
D03*
Y64500D02*
D03*
Y174500D02*
D03*
Y284500D02*
D03*
D118*
X470500Y68000D02*
D03*
X473076Y77831D02*
D03*
X456870Y85115D02*
D03*
X558740Y63855D02*
D03*
X542402D02*
D03*
X535118D02*
D03*
X515925Y128934D02*
D03*
X567894Y132359D02*
D03*
X474980Y85115D02*
D03*
X518780Y63855D02*
D03*
X512776Y62418D02*
D03*
X447520Y86689D02*
D03*
X456870Y92989D02*
D03*
X534035Y107162D02*
D03*
X517697Y89482D02*
D03*
X516713Y81965D02*
D03*
X511201Y98697D02*
D03*
X551226Y107162D02*
D03*
X527736Y126059D02*
D03*
X552933Y111099D02*
D03*
X560745Y117336D02*
D03*
X567106Y77890D02*
D03*
X472618Y95351D02*
D03*
X512776Y107162D02*
D03*
X480612Y113341D02*
D03*
X474193Y88648D02*
D03*
X489153Y76453D02*
D03*
X489941Y80390D02*
D03*
X430098Y96138D02*
D03*
X478917Y99052D02*
D03*
X453721Y68579D02*
D03*
X479705Y64642D02*
D03*
X578917Y94563D02*
D03*
X447126Y104800D02*
D03*
D119*
X330000Y72500D02*
D03*
Y77500D02*
D03*
Y82500D02*
D03*
Y87500D02*
D03*
X315000Y182500D02*
D03*
Y187500D02*
D03*
Y192500D02*
D03*
Y197500D02*
D03*
Y292500D02*
D03*
Y297500D02*
D03*
Y302500D02*
D03*
Y307500D02*
D03*
X320000Y87500D02*
D03*
X325000D02*
D03*
Y82500D02*
D03*
X320000D02*
D03*
Y77500D02*
D03*
X325000D02*
D03*
Y72500D02*
D03*
X320000D02*
D03*
Y197500D02*
D03*
X325000D02*
D03*
Y192500D02*
D03*
X320000D02*
D03*
Y187500D02*
D03*
X325000D02*
D03*
Y182500D02*
D03*
X320000D02*
D03*
Y307500D02*
D03*
X325000D02*
D03*
Y302500D02*
D03*
X320000D02*
D03*
Y297500D02*
D03*
X325000D02*
D03*
Y292500D02*
D03*
X320000D02*
D03*
Y402500D02*
D03*
X325000D02*
D03*
X330000D02*
D03*
Y407500D02*
D03*
X325000D02*
D03*
X320000D02*
D03*
Y412500D02*
D03*
X325000D02*
D03*
X330000D02*
D03*
Y417500D02*
D03*
X325000D02*
D03*
X320000D02*
D03*
D120*
X547421Y118185D02*
D03*
X554728Y80721D02*
D03*
X475728Y127721D02*
D03*
X442697Y109524D02*
D03*
X423386Y80390D02*
D03*
X451728Y127721D02*
D03*
D121*
X340000Y437000D02*
D03*
X442500Y209500D02*
D03*
X432500D02*
D03*
D122*
X444000Y7400D02*
D03*
X483900Y34400D02*
D03*
D123*
X451728Y127721D02*
X475728D01*
X442697Y99701D02*
Y109524D01*
X423386Y80390D02*
X438947Y95951D01*
X442697Y99701D01*
X554728Y80721D02*
Y80777D01*
X557461Y83510D01*
Y113110D01*
X547421Y118185D02*
X549803Y115804D01*
X554768D01*
X557461Y113110D01*
D124*
X612136Y127155D02*
D03*
Y115344D02*
D03*
Y103533D02*
D03*
X600325Y127155D02*
D03*
Y115344D02*
D03*
Y103533D02*
D03*
M02*
