G04*
G04 #@! TF.GenerationSoftware,Altium Limited,Altium Designer,24.9.1 (31)*
G04*
G04 Layer_Color=8388736*
%FSLAX25Y25*%
%MOIN*%
G70*
G04*
G04 #@! TF.SameCoordinates,4FD8CB89-A412-4131-9868-04C68DA5EDAD*
G04*
G04*
G04 #@! TF.FilePolarity,Negative*
G04*
G01*
G75*
%ADD50R,0.04200X0.06800*%
%ADD54R,0.18504X0.22835*%
%ADD56R,0.06800X0.04200*%
%ADD57C,0.08850*%
%ADD58R,0.03594X0.03594*%
G04:AMPARAMS|DCode=59|XSize=145.67mil|YSize=86.61mil|CornerRadius=22.64mil|HoleSize=0mil|Usage=FLASHONLY|Rotation=180.000|XOffset=0mil|YOffset=0mil|HoleType=Round|Shape=RoundedRectangle|*
%AMROUNDEDRECTD59*
21,1,0.14567,0.04134,0,0,180.0*
21,1,0.10039,0.08661,0,0,180.0*
1,1,0.04528,-0.05020,0.02067*
1,1,0.04528,0.05020,0.02067*
1,1,0.04528,0.05020,-0.02067*
1,1,0.04528,-0.05020,-0.02067*
%
%ADD59ROUNDEDRECTD59*%
%ADD60O,0.04331X0.08268*%
G04:AMPARAMS|DCode=61|XSize=338.58mil|YSize=208.66mil|CornerRadius=53.15mil|HoleSize=0mil|Usage=FLASHONLY|Rotation=180.000|XOffset=0mil|YOffset=0mil|HoleType=Round|Shape=RoundedRectangle|*
%AMROUNDEDRECTD61*
21,1,0.33858,0.10236,0,0,180.0*
21,1,0.23228,0.20866,0,0,180.0*
1,1,0.10630,-0.11614,0.05118*
1,1,0.10630,0.11614,0.05118*
1,1,0.10630,0.11614,-0.05118*
1,1,0.10630,-0.11614,-0.05118*
%
%ADD61ROUNDEDRECTD61*%
%ADD62R,0.04894X0.04394*%
%ADD63R,0.04394X0.04894*%
%ADD64R,0.03394X0.04394*%
G04:AMPARAMS|DCode=65|XSize=19.68mil|YSize=62.99mil|CornerRadius=5.91mil|HoleSize=0mil|Usage=FLASHONLY|Rotation=0.000|XOffset=0mil|YOffset=0mil|HoleType=Round|Shape=RoundedRectangle|*
%AMROUNDEDRECTD65*
21,1,0.01968,0.05118,0,0,0.0*
21,1,0.00787,0.06299,0,0,0.0*
1,1,0.01181,0.00394,-0.02559*
1,1,0.01181,-0.00394,-0.02559*
1,1,0.01181,-0.00394,0.02559*
1,1,0.01181,0.00394,0.02559*
%
%ADD65ROUNDEDRECTD65*%
G04:AMPARAMS|DCode=66|XSize=66.93mil|YSize=86.61mil|CornerRadius=17.72mil|HoleSize=0mil|Usage=FLASHONLY|Rotation=90.000|XOffset=0mil|YOffset=0mil|HoleType=Round|Shape=RoundedRectangle|*
%AMROUNDEDRECTD66*
21,1,0.06693,0.05118,0,0,90.0*
21,1,0.03150,0.08661,0,0,90.0*
1,1,0.03543,0.02559,0.01575*
1,1,0.03543,0.02559,-0.01575*
1,1,0.03543,-0.02559,-0.01575*
1,1,0.03543,-0.02559,0.01575*
%
%ADD66ROUNDEDRECTD66*%
G04:AMPARAMS|DCode=67|XSize=78.74mil|YSize=74.8mil|CornerRadius=19.68mil|HoleSize=0mil|Usage=FLASHONLY|Rotation=0.000|XOffset=0mil|YOffset=0mil|HoleType=Round|Shape=RoundedRectangle|*
%AMROUNDEDRECTD67*
21,1,0.07874,0.03543,0,0,0.0*
21,1,0.03937,0.07480,0,0,0.0*
1,1,0.03937,0.01968,-0.01772*
1,1,0.03937,-0.01968,-0.01772*
1,1,0.03937,-0.01968,0.01772*
1,1,0.03937,0.01968,0.01772*
%
%ADD67ROUNDEDRECTD67*%
%ADD68R,0.04394X0.03394*%
%ADD69R,0.08871X0.13595*%
%ADD70R,0.08871X0.04737*%
%ADD71R,0.02598X0.02756*%
%ADD72R,0.02756X0.02598*%
%ADD73O,0.02756X0.07087*%
%ADD74R,0.02559X0.03347*%
%ADD75C,0.03494*%
%ADD76R,0.03347X0.02559*%
%ADD77R,0.04528X0.02953*%
%ADD78R,0.12992X0.12992*%
%ADD79O,0.03839X0.01181*%
%ADD80O,0.01181X0.03839*%
G04:AMPARAMS|DCode=81|XSize=59.06mil|YSize=47.24mil|CornerRadius=0mil|HoleSize=0mil|Usage=FLASHONLY|Rotation=90.000|XOffset=0mil|YOffset=0mil|HoleType=Round|Shape=RoundedRectangle|*
%AMROUNDEDRECTD81*
21,1,0.05906,0.04724,0,0,90.0*
21,1,0.05906,0.04724,0,0,90.0*
1,1,0.00000,0.02362,0.02953*
1,1,0.00000,0.02362,-0.02953*
1,1,0.00000,-0.02362,-0.02953*
1,1,0.00000,-0.02362,0.02953*
%
%ADD81ROUNDEDRECTD81*%
%ADD82O,0.06102X0.02756*%
G04:AMPARAMS|DCode=83|XSize=43.31mil|YSize=66.93mil|CornerRadius=0mil|HoleSize=0mil|Usage=FLASHONLY|Rotation=270.000|XOffset=0mil|YOffset=0mil|HoleType=Round|Shape=RoundedRectangle|*
%AMROUNDEDRECTD83*
21,1,0.04331,0.06693,0,0,270.0*
21,1,0.04331,0.06693,0,0,270.0*
1,1,0.00000,-0.03347,-0.02165*
1,1,0.00000,-0.03347,0.02165*
1,1,0.00000,0.03347,0.02165*
1,1,0.00000,0.03347,-0.02165*
%
%ADD83ROUNDEDRECTD83*%
G04:AMPARAMS|DCode=84|XSize=35.43mil|YSize=25.59mil|CornerRadius=0mil|HoleSize=0mil|Usage=FLASHONLY|Rotation=0.000|XOffset=0mil|YOffset=0mil|HoleType=Round|Shape=RoundedRectangle|*
%AMROUNDEDRECTD84*
21,1,0.03543,0.02559,0,0,0.0*
21,1,0.03543,0.02559,0,0,0.0*
1,1,0.00000,0.01772,-0.01280*
1,1,0.00000,-0.01772,-0.01280*
1,1,0.00000,-0.01772,0.01280*
1,1,0.00000,0.01772,0.01280*
%
%ADD84ROUNDEDRECTD84*%
%ADD85R,0.02794X0.05394*%
%ADD86R,0.02794X0.04394*%
%ADD87R,0.15794X0.15394*%
G04:AMPARAMS|DCode=88|XSize=51.18mil|YSize=51.97mil|CornerRadius=13.78mil|HoleSize=0mil|Usage=FLASHONLY|Rotation=180.000|XOffset=0mil|YOffset=0mil|HoleType=Round|Shape=RoundedRectangle|*
%AMROUNDEDRECTD88*
21,1,0.05118,0.02441,0,0,180.0*
21,1,0.02362,0.05197,0,0,180.0*
1,1,0.02756,-0.01181,0.01221*
1,1,0.02756,0.01181,0.01221*
1,1,0.02756,0.01181,-0.01221*
1,1,0.02756,-0.01181,-0.01221*
%
%ADD88ROUNDEDRECTD88*%
%ADD89C,0.12992*%
%ADD90C,0.06772*%
G04:AMPARAMS|DCode=91|XSize=67.72mil|YSize=67.72mil|CornerRadius=17.91mil|HoleSize=0mil|Usage=FLASHONLY|Rotation=180.000|XOffset=0mil|YOffset=0mil|HoleType=Round|Shape=RoundedRectangle|*
%AMROUNDEDRECTD91*
21,1,0.06772,0.03189,0,0,180.0*
21,1,0.03189,0.06772,0,0,180.0*
1,1,0.03583,-0.01595,0.01595*
1,1,0.03583,0.01595,0.01595*
1,1,0.03583,0.01595,-0.01595*
1,1,0.03583,-0.01595,-0.01595*
%
%ADD91ROUNDEDRECTD91*%
%ADD92O,0.08268X0.12205*%
%ADD93C,0.07000*%
%ADD94C,0.09594*%
%ADD95C,0.03794*%
%ADD96C,0.12205*%
%ADD97C,0.12205*%
%ADD98C,0.11811*%
%ADD99C,0.03150*%
%ADD100C,0.03543*%
%ADD101C,0.04921*%
G36*
X369800Y214175D02*
D01*
D01*
D01*
D01*
D01*
D01*
D01*
D01*
D02*
G37*
G36*
X385200D02*
D01*
D01*
D01*
D01*
D01*
D01*
D01*
D01*
D02*
G37*
G36*
X399800D02*
D01*
D01*
D01*
D01*
D01*
D01*
D01*
D01*
D02*
G37*
G36*
X415200D02*
D01*
D01*
D01*
D01*
D01*
D01*
D01*
D01*
D02*
G37*
D50*
X333450Y107496D02*
D03*
X321550D02*
D03*
X333450Y327496D02*
D03*
X321550D02*
D03*
Y217496D02*
D03*
X333450D02*
D03*
D54*
X412913Y245000D02*
D03*
X377087D02*
D03*
D56*
X335000Y26550D02*
D03*
Y38450D02*
D03*
D57*
X79425Y420000D02*
G03*
X79425Y420000I-4425J0D01*
G01*
X624425Y30000D02*
G03*
X624425Y30000I-4425J0D01*
G01*
Y230000D02*
G03*
X624425Y230000I-4425J0D01*
G01*
X389425Y420000D02*
G03*
X389425Y420000I-4425J0D01*
G01*
X34425Y30000D02*
G03*
X34425Y30000I-4425J0D01*
G01*
D58*
X345000Y437000D02*
D03*
X352000D02*
D03*
X563500Y8000D02*
D03*
X556500D02*
D03*
D59*
X300894Y61949D02*
D03*
Y52500D02*
D03*
Y43051D02*
D03*
Y373051D02*
D03*
Y382500D02*
D03*
Y391949D02*
D03*
Y263051D02*
D03*
Y272500D02*
D03*
Y281949D02*
D03*
Y153051D02*
D03*
Y162500D02*
D03*
Y171949D02*
D03*
D60*
X284358Y97776D02*
D03*
X278453D02*
D03*
X272547D02*
D03*
X266642D02*
D03*
Y427776D02*
D03*
X272547D02*
D03*
X278453D02*
D03*
X284358D02*
D03*
X266642Y317776D02*
D03*
X272547D02*
D03*
X278453D02*
D03*
X284358D02*
D03*
X266642Y207776D02*
D03*
X272547D02*
D03*
X278453D02*
D03*
X284358D02*
D03*
D61*
X116839Y78091D02*
D03*
Y52500D02*
D03*
Y26909D02*
D03*
X309358Y80059D02*
D03*
Y24941D02*
D03*
Y354941D02*
D03*
Y410059D02*
D03*
X116839Y356909D02*
D03*
Y382500D02*
D03*
Y408090D02*
D03*
X309358Y244941D02*
D03*
Y300059D02*
D03*
X116839Y246909D02*
D03*
Y272500D02*
D03*
Y298091D02*
D03*
X309358Y134941D02*
D03*
Y190059D02*
D03*
X116839Y136909D02*
D03*
Y162500D02*
D03*
Y188091D02*
D03*
D62*
X401000Y129000D02*
D03*
Y122300D02*
D03*
Y112350D02*
D03*
Y105650D02*
D03*
X352000Y401650D02*
D03*
Y408350D02*
D03*
X432500Y198150D02*
D03*
Y204850D02*
D03*
D63*
X542000Y8000D02*
D03*
X548700D02*
D03*
X449650Y137000D02*
D03*
X456350D02*
D03*
X424150Y177500D02*
D03*
X430850D02*
D03*
X424150Y187500D02*
D03*
X430850D02*
D03*
D64*
X558500Y47000D02*
D03*
X565500D02*
D03*
D65*
X357842Y22925D02*
D03*
X360402D02*
D03*
X362961D02*
D03*
X365520D02*
D03*
X368079D02*
D03*
D66*
X350756Y22039D02*
D03*
X375165D02*
D03*
D67*
X377921Y12000D02*
D03*
X348000D02*
D03*
D68*
X470000Y137500D02*
D03*
Y144500D02*
D03*
X535000Y161500D02*
D03*
Y154500D02*
D03*
X585000Y168500D02*
D03*
Y161500D02*
D03*
X442500Y205000D02*
D03*
Y198000D02*
D03*
D69*
X547500Y159500D02*
D03*
D70*
X572500Y168555D02*
D03*
Y159500D02*
D03*
Y150445D02*
D03*
D71*
X423386Y95351D02*
D03*
X426811D02*
D03*
X552516Y114721D02*
D03*
X555941D02*
D03*
X451221Y106374D02*
D03*
X454646D02*
D03*
D72*
X508839Y58992D02*
D03*
Y62418D02*
D03*
X524587Y128284D02*
D03*
Y131709D02*
D03*
X513563Y75528D02*
D03*
Y78953D02*
D03*
Y88402D02*
D03*
Y84977D02*
D03*
X446634Y96788D02*
D03*
Y100213D02*
D03*
X571831Y81315D02*
D03*
Y77890D02*
D03*
X515925Y132221D02*
D03*
Y135646D02*
D03*
D73*
X438386Y87668D02*
D03*
X433386D02*
D03*
X428386D02*
D03*
X423386D02*
D03*
X438386Y59715D02*
D03*
X433386D02*
D03*
X428386D02*
D03*
X423386D02*
D03*
D74*
X530295Y111886D02*
D03*
X534035D02*
D03*
X486390Y86689D02*
D03*
X490130D02*
D03*
X432953Y101650D02*
D03*
X436693D02*
D03*
X432953Y108251D02*
D03*
X436693D02*
D03*
X446339Y64642D02*
D03*
X450079D02*
D03*
X503622Y68579D02*
D03*
X499882D02*
D03*
X490236D02*
D03*
X486496D02*
D03*
X490236Y62280D02*
D03*
X486496D02*
D03*
X566614Y136709D02*
D03*
X562874D02*
D03*
X490236Y55981D02*
D03*
X486496D02*
D03*
D75*
X537047Y94288D02*
D03*
X542047D02*
D03*
X537047Y89288D02*
D03*
X542047Y84288D02*
D03*
X537047D02*
D03*
X542047Y89288D02*
D03*
D76*
X560020Y80686D02*
D03*
Y76945D02*
D03*
X515925Y123993D02*
D03*
Y120252D02*
D03*
X574980Y87182D02*
D03*
Y90922D02*
D03*
X568681Y87182D02*
D03*
Y90922D02*
D03*
X515925Y110548D02*
D03*
Y114288D02*
D03*
D77*
X542402Y68579D02*
D03*
X558740D02*
D03*
X542402Y60115D02*
D03*
X558740D02*
D03*
X535118D02*
D03*
X518780D02*
D03*
X535118Y68579D02*
D03*
X518780D02*
D03*
D78*
X465531Y85902D02*
D03*
D79*
X451998Y91414D02*
D03*
Y81965D02*
D03*
Y80390D02*
D03*
Y83540D02*
D03*
Y75666D02*
D03*
Y86689D02*
D03*
Y89839D02*
D03*
Y92989D02*
D03*
Y78815D02*
D03*
Y77241D02*
D03*
Y88264D02*
D03*
Y85115D02*
D03*
Y96138D02*
D03*
Y94563D02*
D03*
X479065Y75666D02*
D03*
Y77241D02*
D03*
Y78815D02*
D03*
Y80390D02*
D03*
Y81965D02*
D03*
Y83540D02*
D03*
Y85115D02*
D03*
Y86689D02*
D03*
Y88264D02*
D03*
Y89839D02*
D03*
Y91414D02*
D03*
Y92989D02*
D03*
Y94563D02*
D03*
Y96138D02*
D03*
D80*
X475768Y72369D02*
D03*
Y99435D02*
D03*
X474193D02*
D03*
X472618D02*
D03*
X471043D02*
D03*
X469468D02*
D03*
X467894D02*
D03*
X466319D02*
D03*
X464744D02*
D03*
X463169D02*
D03*
X461594D02*
D03*
X460020D02*
D03*
X458445D02*
D03*
X456870D02*
D03*
X455295D02*
D03*
X472618Y72369D02*
D03*
X471043D02*
D03*
X469468D02*
D03*
X467894D02*
D03*
X466319D02*
D03*
X464744D02*
D03*
X463169D02*
D03*
X461594D02*
D03*
X460020D02*
D03*
X458445D02*
D03*
X456870D02*
D03*
X455295D02*
D03*
X474193D02*
D03*
D81*
X504902Y78028D02*
D03*
Y86028D02*
D03*
X497902D02*
D03*
Y78028D02*
D03*
D82*
X533543Y136709D02*
D03*
Y131709D02*
D03*
Y126709D02*
D03*
Y121709D02*
D03*
X555000Y136709D02*
D03*
Y131709D02*
D03*
Y126709D02*
D03*
Y121709D02*
D03*
X486299Y135548D02*
D03*
Y130548D02*
D03*
Y125548D02*
D03*
Y120548D02*
D03*
Y115548D02*
D03*
Y110548D02*
D03*
Y105548D02*
D03*
X507756Y135548D02*
D03*
Y130548D02*
D03*
Y125548D02*
D03*
Y120548D02*
D03*
Y115548D02*
D03*
Y110548D02*
D03*
Y105548D02*
D03*
D83*
X579114Y112477D02*
D03*
Y105587D02*
D03*
Y98697D02*
D03*
X564547D02*
D03*
Y105587D02*
D03*
Y112477D02*
D03*
D84*
X503327Y58934D02*
D03*
X497028D02*
D03*
Y62477D02*
D03*
X503327D02*
D03*
D85*
X400000Y203250D02*
D03*
X405000D02*
D03*
X410000D02*
D03*
X415000D02*
D03*
X370000D02*
D03*
X375000D02*
D03*
X380000D02*
D03*
X385000D02*
D03*
D86*
X415000Y224750D02*
D03*
X410000D02*
D03*
X405000D02*
D03*
X400000D02*
D03*
X385000D02*
D03*
X380000D02*
D03*
X375000D02*
D03*
X370000D02*
D03*
D87*
X407500Y216450D02*
D03*
X377500D02*
D03*
D88*
X415276Y167500D02*
D03*
X429724D02*
D03*
D89*
X540000Y232500D02*
D03*
Y215039D02*
D03*
X522539D02*
D03*
X557461D02*
D03*
Y232500D02*
D03*
X522539D02*
D03*
Y249961D02*
D03*
X540000D02*
D03*
X557461D02*
D03*
X475000Y232500D02*
D03*
Y215039D02*
D03*
X457539D02*
D03*
X492461D02*
D03*
Y232500D02*
D03*
X457539D02*
D03*
Y249961D02*
D03*
X475000D02*
D03*
X492461D02*
D03*
X402461Y382461D02*
D03*
X385000D02*
D03*
X367539D02*
D03*
Y365000D02*
D03*
X402461D02*
D03*
Y347539D02*
D03*
X367539D02*
D03*
X385000D02*
D03*
Y365000D02*
D03*
X402461Y282539D02*
D03*
Y300000D02*
D03*
Y317461D02*
D03*
X385000D02*
D03*
Y282539D02*
D03*
X367539D02*
D03*
Y317461D02*
D03*
Y300000D02*
D03*
X385000D02*
D03*
D90*
X175000Y440000D02*
D03*
X185000D02*
D03*
X195000D02*
D03*
X384000Y45000D02*
D03*
X404000D02*
D03*
X414000D02*
D03*
X424000D02*
D03*
X394000Y35000D02*
D03*
X414000D02*
D03*
X424000D02*
D03*
X394000Y45000D02*
D03*
X404000Y35000D02*
D03*
X175000Y220000D02*
D03*
X185000D02*
D03*
X195000D02*
D03*
Y110000D02*
D03*
X185000D02*
D03*
X175000D02*
D03*
Y330000D02*
D03*
X185000D02*
D03*
X195000D02*
D03*
D91*
X205000Y440000D02*
D03*
X384000Y35000D02*
D03*
X205000Y220000D02*
D03*
Y110000D02*
D03*
Y330000D02*
D03*
D92*
X283177Y8799D02*
D03*
X267429D02*
D03*
Y338799D02*
D03*
X283177D02*
D03*
X267429Y228799D02*
D03*
X283177D02*
D03*
X267429Y118799D02*
D03*
X283177D02*
D03*
D93*
X612136Y127155D02*
D03*
Y115344D02*
D03*
Y103533D02*
D03*
X600325Y127155D02*
D03*
Y115344D02*
D03*
Y103533D02*
D03*
D94*
X529547Y86788D02*
D03*
X549547D02*
D03*
Y99288D02*
D03*
X529547D02*
D03*
D95*
X535547Y79288D02*
D03*
X543547D02*
D03*
X539547Y99288D02*
D03*
D96*
X77754Y257677D02*
D03*
Y241142D02*
D03*
X56100Y257677D02*
D03*
Y241142D02*
D03*
D97*
X77754Y224606D02*
D03*
Y208071D02*
D03*
X56100Y208071D02*
D03*
Y224606D02*
D03*
X77754Y191535D02*
D03*
X56100D02*
D03*
X77754Y175000D02*
D03*
X56100D02*
D03*
D98*
X27360D02*
D03*
Y257677D02*
D03*
D99*
X470500Y68000D02*
D03*
X456870Y85115D02*
D03*
X558740Y63855D02*
D03*
X542402D02*
D03*
X535118D02*
D03*
X515925Y128934D02*
D03*
X567894Y132359D02*
D03*
X474980Y85115D02*
D03*
X518780Y63855D02*
D03*
X512776Y62418D02*
D03*
X456870Y92989D02*
D03*
X534035Y107162D02*
D03*
X517697Y89482D02*
D03*
X516713Y81965D02*
D03*
X511201Y98697D02*
D03*
X551226Y107162D02*
D03*
X527736Y126059D02*
D03*
X552933Y111099D02*
D03*
X560745Y117336D02*
D03*
X567106Y77890D02*
D03*
X474193Y88648D02*
D03*
X430098Y96138D02*
D03*
X453721Y68579D02*
D03*
X479705Y64642D02*
D03*
X447126Y104800D02*
D03*
D100*
X465669Y144731D02*
D03*
X579000Y151000D02*
D03*
X585000Y156000D02*
D03*
X535069Y149931D02*
D03*
X539556Y75634D02*
D03*
X469862Y90233D02*
D03*
X461201D02*
D03*
Y81571D02*
D03*
X469862D02*
D03*
X528524Y131571D02*
D03*
X493038Y108002D02*
D03*
D101*
X547421Y118185D02*
D03*
X554728Y80721D02*
D03*
X475728Y127721D02*
D03*
X442697Y109524D02*
D03*
X423386Y80390D02*
D03*
X451728Y127721D02*
D03*
M02*
