M48
;Layer_Color=9474304
;FILE_FORMAT=4:4
METRIC,LZ
;TYPE=PLATED
T01F00S00C0.3000
T02F00S00C0.3048
T03F00S00C0.3810
T04F00S00C0.4000
T05F00S00C0.5080
T06F00S00C0.7000
T07F00S00C1.0000
T08F00S00C1.0160
T09F00S00C1.0200
T10F00S00C1.3000
T11F00S00C1.8000
T12F00S00C1.8005
T13F00S00C1.8500
%
T01
X0115245Y00174191
X0116045Y00216191
Y00236191
X011367Y00220191
X011357Y00266191
X0109245Y00244191
X0120045Y00242191
X0120445Y00225165
X0120645Y00216191
X01201612Y00197691
X0119507Y0017272
X0121845Y00164191
X0124245Y00194191
X0124445Y00204191
X0131245Y00208191
X0131495Y00227285
X0129845Y00250691
X0130245Y00272191
X0135645
X01400114
X0140445Y00282191
X01424292Y00298034
X0144245Y00336191
X0134045Y00320191
X0131045Y00327491
X01220755Y00287886
X0121645Y00251591
X0130245Y00158541
X013177Y00162191
X013592
X013777
X014192
X0144045Y00197841
X0147045Y00240191
T02
X0075057Y0016383
X0078867Y0038735
X00794845Y0013335
X0080518Y0010935
X009017Y0008255
X0093472Y0008128
X009525Y0008382
X0098425Y0005715
X0099695Y000508
X0100965Y0004445
X0102235Y000381
X0103505Y0003175
X0104775Y000254
X0106045Y0001905
X0107315Y000127
X0101854Y00255016
X01436878Y00134366
X0143129Y0008509
X0078867Y0041148
X0075057Y0044323
X0077724Y0067564
X0076962Y0069977
X0075057Y0072263
X0076327Y0095504
X0076073Y0097917
X0075057Y0100203
T03
X0109855Y0053213
X0112395
X008636Y0110998
T04
X011135Y00165716
X0117145Y00207191
Y00229191
X01182799Y00367617
X0119245Y00280191
X0119345Y00229191
Y00207191
X0122845Y00250191
X01252316Y00274325
X0134245Y00334191
X01359075Y00380825
X0147066Y0038354
X014859Y0039624
X01370472Y00192109
T05
X008128Y0018415
Y0019685
Y0020955
Y0022225
X008255
X008382
Y0020955
Y0019685
Y0018415
X008255
Y0019685
Y0020955
Y0046355
Y0047625
Y0048895
Y0050165
X008128
X008001
Y0048895
Y0047625
Y0046355
X008128
Y0047625
Y0048895
Y0074295
X008001
Y0075565
Y0076835
Y0078105
X008128
X008255
Y0076835
X008128
Y0075565
X008255
Y0074295
Y0102235
X008128
Y0103505
X008255
X008382
Y0102235
Y0104775
X008255
X008128
Y0106045
X008255
X008382
T06
X010754Y00204191
X0112445Y00278191
X0114739Y00324411
X0120835
X0139045Y00300191
X0140901Y00205031
T07
X0107696Y000889
Y001143
T08
X01524826Y00262973
Y00292973
Y00322973
X01554826
Y00292973
Y00262973
T09
X004445Y002794
X004699
X004953
X005207
X0097536Y001143
Y000889
X0100076
Y001143
X0102616
X0105156
Y000889
X0102616
X005207Y005588
X004953
X004699
X004445
Y008382
X004699
X004953
X005207
Y011176
X004953
X004699
X004445
T10
X0067927Y0002235
X0071927
Y0030175
X0067927
Y0058115
X0071927
Y0086055
X0067927
T11
X00142494Y006125
Y006545
X00197494
Y006125
T12
X00142494Y004445
Y004865
Y005285
Y005705
X00197494Y005705
Y005285
Y004865
X00197494Y004445
T13
X012065Y005462
X0125085
Y0059055
Y006349
X012065
X0132725
Y0059055
Y005462
X013716
X0141595
Y0059055
Y006349
X013716
X0116215
Y0059055
Y005462
X0102225Y0071765
Y00762
X009779Y0071765
X0093355
Y00762
Y0080635
X009779
X0102225
Y0088275
Y009271
Y0097145
X009779
X0093355
Y009271
Y0088275
X009779
M30
