G04*
G04 #@! TF.GenerationSoftware,Altium Limited,Altium Designer,24.9.1 (31)*
G04*
G04 Layer_Physical_Order=2*
G04 Layer_Color=16711680*
%FSLAX44Y44*%
%MOMM*%
G71*
G04*
G04 #@! TF.SameCoordinates,34C4A6F0-6EE0-490D-AD1B-27E8E2669A39*
G04*
G04*
G04 #@! TF.FilePolarity,Positive*
G04*
G01*
G75*
%ADD10C,0.5080*%
%ADD12C,0.6000*%
%ADD13C,0.2500*%
%ADD17C,0.2032*%
%ADD19C,0.2000*%
%ADD36R,0.5600X0.6000*%
%ADD37R,0.6000X0.5600*%
%ADD98C,3.0000*%
%ADD99C,0.8000*%
%ADD106C,0.4000*%
%ADD108C,4.4958*%
%ADD109C,3.2000*%
%ADD110C,1.6200*%
G04:AMPARAMS|DCode=111|XSize=1.62mm|YSize=1.62mm|CornerRadius=0.405mm|HoleSize=0mm|Usage=FLASHONLY|Rotation=180.000|XOffset=0mm|YOffset=0mm|HoleType=Round|Shape=RoundedRectangle|*
%AMROUNDEDRECTD111*
21,1,1.6200,0.8100,0,0,180.0*
21,1,0.8100,1.6200,0,0,180.0*
1,1,0.8100,-0.4050,0.4050*
1,1,0.8100,0.4050,0.4050*
1,1,0.8100,0.4050,-0.4050*
1,1,0.8100,-0.4050,-0.4050*
%
%ADD111ROUNDEDRECTD111*%
%ADD112O,2.0000X3.0000*%
%ADD113C,3.0480*%
%ADD114C,2.3368*%
%ADD115C,0.8636*%
%ADD116C,3.0000*%
%ADD117C,0.6350*%
%ADD118C,0.7000*%
%ADD119C,1.0160*%
%ADD120C,1.1500*%
%ADD121C,0.7620*%
%ADD122C,1.2000*%
%ADD123C,1.1500*%
%ADD124O,1.7000X1.7780*%
G36*
X908050Y704088D02*
X951738Y660400D01*
X1101420D01*
X1101579Y660352D01*
X1101680Y660342D01*
X1101773Y660303D01*
X1107885Y659087D01*
X1107986D01*
X1108083Y659058D01*
X1114284Y658447D01*
X1114360Y658455D01*
X1114434Y658438D01*
X1117550Y658362D01*
X1117575Y658366D01*
X1117600Y658361D01*
X1508760D01*
Y518160D01*
X1228090D01*
X908050Y198120D01*
Y198120D01*
X882861Y172931D01*
X874933Y165003D01*
X874700Y165100D01*
X792480D01*
Y309880D01*
Y383841D01*
X793057Y384419D01*
X793845Y386321D01*
Y388379D01*
X793057Y390281D01*
X792480Y390859D01*
Y407971D01*
X793057Y408549D01*
X793845Y410451D01*
Y412509D01*
X793057Y414411D01*
X792480Y414989D01*
Y980440D01*
X792480Y1140460D01*
X908050D01*
Y704088D01*
D02*
G37*
G36*
X1648961Y78740D02*
X1628820D01*
X1628522Y83273D01*
X1627140Y90224D01*
X1624861Y96936D01*
X1621727Y103293D01*
X1617789Y109186D01*
X1613115Y114515D01*
X1607786Y119189D01*
X1601893Y123126D01*
X1595536Y126261D01*
X1588824Y128540D01*
X1581873Y129922D01*
X1574800Y130386D01*
X1567727Y129922D01*
X1560776Y128540D01*
X1554064Y126261D01*
X1547707Y123126D01*
X1541814Y119189D01*
X1536485Y114515D01*
X1531811Y109186D01*
X1527874Y103293D01*
X1524739Y96936D01*
X1522460Y90224D01*
X1521078Y83273D01*
X1520780Y78740D01*
X1082102D01*
X1081762Y80010D01*
X1083161Y80818D01*
X1085042Y82698D01*
X1086372Y85002D01*
X1087060Y87570D01*
Y90230D01*
X1086372Y92798D01*
X1085042Y95101D01*
X1083161Y96982D01*
X1080858Y98312D01*
X1078290Y99000D01*
X1075630D01*
X1073062Y98312D01*
X1070759Y96982D01*
X1070092Y96316D01*
X1068919Y96802D01*
Y101933D01*
X1072309Y105323D01*
X1073062Y104888D01*
X1075630Y104200D01*
X1078290D01*
X1080858Y104888D01*
X1083161Y106218D01*
X1085042Y108098D01*
X1086372Y110402D01*
X1087060Y112970D01*
Y115630D01*
X1086372Y118198D01*
X1085042Y120501D01*
X1083161Y122382D01*
X1080858Y123712D01*
X1078290Y124400D01*
X1075630D01*
X1073062Y123712D01*
X1070759Y122382D01*
X1068878Y120501D01*
X1067548Y118198D01*
X1066860Y115630D01*
Y112970D01*
X1067548Y110402D01*
X1067983Y109649D01*
X1063697Y105363D01*
X1063034Y104370D01*
X1062801Y103200D01*
X1062801Y103200D01*
Y90877D01*
X1061531Y90710D01*
X1060972Y92798D01*
X1059642Y95101D01*
X1057762Y96982D01*
X1055458Y98312D01*
X1052890Y99000D01*
X1050230D01*
X1047662Y98312D01*
X1045359Y96982D01*
X1044692Y96316D01*
X1043519Y96802D01*
Y101933D01*
X1046909Y105323D01*
X1047662Y104888D01*
X1050230Y104200D01*
X1052890D01*
X1055458Y104888D01*
X1057762Y106218D01*
X1059642Y108098D01*
X1060972Y110402D01*
X1061660Y112970D01*
Y115630D01*
X1060972Y118198D01*
X1059642Y120501D01*
X1057762Y122382D01*
X1055458Y123712D01*
X1052890Y124400D01*
X1050230D01*
X1047662Y123712D01*
X1045359Y122382D01*
X1043478Y120501D01*
X1042148Y118198D01*
X1041460Y115630D01*
Y112970D01*
X1042148Y110402D01*
X1042583Y109649D01*
X1038297Y105363D01*
X1037634Y104370D01*
X1037401Y103200D01*
X1037401Y103200D01*
Y90877D01*
X1036131Y90710D01*
X1035572Y92798D01*
X1034242Y95101D01*
X1032362Y96982D01*
X1030058Y98312D01*
X1027490Y99000D01*
X1024830D01*
X1022262Y98312D01*
X1019958Y96982D01*
X1019292Y96316D01*
X1018119Y96802D01*
Y101933D01*
X1021509Y105323D01*
X1022262Y104888D01*
X1024830Y104200D01*
X1027490D01*
X1030058Y104888D01*
X1032362Y106218D01*
X1034242Y108098D01*
X1035572Y110402D01*
X1036260Y112970D01*
Y115630D01*
X1035572Y118198D01*
X1034242Y120501D01*
X1032362Y122382D01*
X1030058Y123712D01*
X1027490Y124400D01*
X1024830D01*
X1022262Y123712D01*
X1019958Y122382D01*
X1018078Y120501D01*
X1016748Y118198D01*
X1016060Y115630D01*
Y112970D01*
X1016748Y110402D01*
X1017183Y109649D01*
X1012897Y105363D01*
X1012234Y104370D01*
X1012001Y103200D01*
X1012001Y103200D01*
Y90877D01*
X1010731Y90710D01*
X1010172Y92798D01*
X1008842Y95101D01*
X1006962Y96982D01*
X1004658Y98312D01*
X1002090Y99000D01*
X999430D01*
X996862Y98312D01*
X994558Y96982D01*
X993892Y96316D01*
X992719Y96802D01*
Y101933D01*
X996109Y105323D01*
X996862Y104888D01*
X999430Y104200D01*
X1002090D01*
X1004658Y104888D01*
X1006962Y106218D01*
X1008842Y108098D01*
X1010172Y110402D01*
X1010860Y112970D01*
Y115630D01*
X1010172Y118198D01*
X1008842Y120501D01*
X1006962Y122382D01*
X1004658Y123712D01*
X1002090Y124400D01*
X999430D01*
X996862Y123712D01*
X994558Y122382D01*
X992678Y120501D01*
X991348Y118198D01*
X990660Y115630D01*
Y112970D01*
X991348Y110402D01*
X991783Y109649D01*
X987497Y105363D01*
X986834Y104370D01*
X986601Y103200D01*
X986601Y103200D01*
Y78740D01*
X893961D01*
X893475Y79913D01*
X960882Y147320D01*
Y228092D01*
X1226566Y493776D01*
X1648961D01*
Y78740D01*
D02*
G37*
%LPC*%
G36*
X1373869Y613590D02*
X1369331D01*
X1364879Y612705D01*
X1360686Y610968D01*
X1356913Y608446D01*
X1353704Y605237D01*
X1351182Y601464D01*
X1349445Y597271D01*
X1348560Y592819D01*
Y588281D01*
X1349445Y583829D01*
X1351182Y579636D01*
X1353704Y575863D01*
X1356913Y572654D01*
X1360686Y570132D01*
X1364879Y568395D01*
X1369331Y567510D01*
X1373869D01*
X1378320Y568395D01*
X1382513Y570132D01*
X1386287Y572654D01*
X1389496Y575863D01*
X1392018Y579636D01*
X1393755Y583829D01*
X1394640Y588281D01*
Y592819D01*
X1393755Y597271D01*
X1392018Y601464D01*
X1389496Y605237D01*
X1386287Y608446D01*
X1382513Y610968D01*
X1378320Y612705D01*
X1373869Y613590D01*
D02*
G37*
G36*
X1208769D02*
X1204231D01*
X1199780Y612705D01*
X1195586Y610968D01*
X1191813Y608446D01*
X1188604Y605237D01*
X1186082Y601464D01*
X1184345Y597271D01*
X1183460Y592819D01*
Y588281D01*
X1184345Y583829D01*
X1186082Y579636D01*
X1188604Y575863D01*
X1191813Y572654D01*
X1195586Y570132D01*
X1199780Y568395D01*
X1204231Y567510D01*
X1208769D01*
X1213221Y568395D01*
X1217413Y570132D01*
X1221187Y572654D01*
X1224396Y575863D01*
X1226918Y579636D01*
X1228655Y583829D01*
X1229540Y588281D01*
Y592819D01*
X1228655Y597271D01*
X1226918Y601464D01*
X1224396Y605237D01*
X1221187Y608446D01*
X1217413Y610968D01*
X1213221Y612705D01*
X1208769Y613590D01*
D02*
G37*
G36*
X1208350Y332228D02*
X1147390D01*
X1146882Y332161D01*
X1146370D01*
X1145875Y332028D01*
X1145367Y331962D01*
X1144893Y331766D01*
X1144399Y331633D01*
X1143955Y331377D01*
X1143482Y331181D01*
X1143075Y330869D01*
X1142631Y330613D01*
X1142269Y330250D01*
X1141863Y329938D01*
X1141551Y329532D01*
X1141189Y329170D01*
X1140932Y328726D01*
X1140620Y328320D01*
X1140424Y327846D01*
X1140168Y327402D01*
X1140036Y326908D01*
X1139839Y326434D01*
X1139773Y325926D01*
X1139640Y325431D01*
Y324919D01*
X1139573Y324411D01*
X1139640Y323903D01*
Y323391D01*
X1139773Y322896D01*
X1139839Y322388D01*
X1140036Y321914D01*
X1140168Y321420D01*
X1140424Y320976D01*
X1140620Y320503D01*
X1140932Y320096D01*
X1141189Y319652D01*
X1141551Y319290D01*
X1141863Y318884D01*
X1142269Y318572D01*
X1142631Y318209D01*
X1143075Y317953D01*
X1143482Y317641D01*
X1143955Y317445D01*
X1144399Y317189D01*
X1144893Y317057D01*
X1145367Y316861D01*
X1145875Y316794D01*
X1146370Y316661D01*
X1146882D01*
X1147390Y316594D01*
X1208350D01*
X1208858Y316661D01*
X1209370D01*
X1209865Y316794D01*
X1210373Y316861D01*
X1210846Y317057D01*
X1211341Y317189D01*
X1211785Y317445D01*
X1212258Y317641D01*
X1212665Y317953D01*
X1213109Y318209D01*
X1213471Y318572D01*
X1213877Y318884D01*
X1214189Y319290D01*
X1214551Y319652D01*
X1214808Y320096D01*
X1215120Y320503D01*
X1215316Y320976D01*
X1215572Y321420D01*
X1215704Y321914D01*
X1215900Y322388D01*
X1215967Y322896D01*
X1216100Y323391D01*
Y323903D01*
X1216167Y324411D01*
X1216100Y324919D01*
Y325431D01*
X1215967Y325926D01*
X1215900Y326434D01*
X1215704Y326908D01*
X1215572Y327402D01*
X1215316Y327846D01*
X1215120Y328320D01*
X1214808Y328726D01*
X1214551Y329170D01*
X1214189Y329532D01*
X1213877Y329938D01*
X1213471Y330250D01*
X1213109Y330613D01*
X1212665Y330869D01*
X1212258Y331181D01*
X1211785Y331377D01*
X1211341Y331633D01*
X1210846Y331766D01*
X1210373Y331962D01*
X1209865Y332028D01*
X1209370Y332161D01*
X1208858D01*
X1208350Y332228D01*
D02*
G37*
G36*
X1341544Y325691D02*
X1339356D01*
X1337334Y324854D01*
X1335787Y323307D01*
X1334950Y321285D01*
Y319097D01*
X1335787Y317076D01*
X1337334Y315528D01*
X1339356Y314691D01*
X1341544D01*
X1343566Y315528D01*
X1345113Y317076D01*
X1345950Y319097D01*
Y321285D01*
X1345113Y323307D01*
X1343566Y324854D01*
X1341544Y325691D01*
D02*
G37*
G36*
X1524826Y333954D02*
X1522085Y333593D01*
X1519531Y332535D01*
X1517337Y330852D01*
X1515654Y328658D01*
X1514596Y326104D01*
X1514235Y323363D01*
Y322583D01*
X1514596Y319842D01*
X1515654Y317288D01*
X1517337Y315094D01*
X1519531Y313411D01*
X1522085Y312353D01*
X1524826Y311992D01*
X1527567Y312353D01*
X1530121Y313411D01*
X1532315Y315094D01*
X1533998Y317288D01*
X1535056Y319842D01*
X1535417Y322583D01*
Y323363D01*
X1535056Y326104D01*
X1533998Y328658D01*
X1532315Y330852D01*
X1530121Y332535D01*
X1527567Y333593D01*
X1524826Y333954D01*
D02*
G37*
G36*
X1390450Y308008D02*
X1389942Y307941D01*
X1389430D01*
X1388935Y307808D01*
X1388427Y307742D01*
X1387953Y307546D01*
X1387459Y307413D01*
X1387015Y307157D01*
X1386542Y306961D01*
X1386135Y306649D01*
X1385691Y306393D01*
X1385329Y306030D01*
X1384923Y305718D01*
X1384611Y305312D01*
X1384249Y304950D01*
X1383992Y304506D01*
X1383680Y304100D01*
X1383484Y303626D01*
X1383228Y303182D01*
X1383096Y302687D01*
X1382899Y302214D01*
X1382833Y301706D01*
X1382700Y301211D01*
Y300699D01*
X1382633Y300191D01*
X1382700Y299683D01*
Y299171D01*
X1382833Y298676D01*
X1382899Y298168D01*
X1383096Y297694D01*
X1383228Y297200D01*
X1383484Y296756D01*
X1383680Y296283D01*
X1383992Y295876D01*
X1384249Y295432D01*
X1384611Y295070D01*
X1384923Y294664D01*
X1390973Y288614D01*
X1392592Y287371D01*
X1394477Y286590D01*
X1395014Y286520D01*
X1394931Y285250D01*
X1352450D01*
X1351279Y285017D01*
X1350287Y284354D01*
X1350287Y284354D01*
X1341183Y275250D01*
X1307136D01*
X1307113Y275306D01*
X1305565Y276854D01*
X1303544Y277691D01*
X1301356D01*
X1299335Y276854D01*
X1297787Y275306D01*
X1296950Y273285D01*
Y271097D01*
X1297787Y269076D01*
X1299335Y267528D01*
X1301356Y266691D01*
X1303544D01*
X1305565Y267528D01*
X1307113Y269076D01*
X1307136Y269132D01*
X1342450D01*
X1342450Y269132D01*
X1343620Y269365D01*
X1344613Y270028D01*
X1353717Y279132D01*
X1398735D01*
X1398886Y278906D01*
X1398896Y278818D01*
X1398354Y277416D01*
X1396998Y276854D01*
X1395451Y275306D01*
X1395427Y275250D01*
X1361136D01*
X1361113Y275306D01*
X1359565Y276854D01*
X1357544Y277691D01*
X1355356D01*
X1353335Y276854D01*
X1351787Y275306D01*
X1350950Y273285D01*
Y271097D01*
X1351787Y269076D01*
X1353335Y267528D01*
X1355356Y266691D01*
X1357544D01*
X1359565Y267528D01*
X1361113Y269076D01*
X1361136Y269132D01*
X1395427D01*
X1395451Y269076D01*
X1396714Y267812D01*
X1396313Y266542D01*
X1393961D01*
X1390311Y265564D01*
X1387038Y263675D01*
X1384366Y261003D01*
X1382477Y257730D01*
X1381499Y254080D01*
Y250302D01*
X1382477Y246652D01*
X1384366Y243379D01*
X1387038Y240707D01*
X1390311Y238818D01*
X1393961Y237840D01*
X1397739D01*
X1401389Y238818D01*
X1404662Y240707D01*
X1406864Y242910D01*
X1408134Y242384D01*
Y230248D01*
X1406864Y229722D01*
X1404662Y231925D01*
X1401389Y233814D01*
X1397739Y234792D01*
X1393961D01*
X1390311Y233814D01*
X1387038Y231925D01*
X1384366Y229253D01*
X1382477Y225980D01*
X1381499Y222330D01*
Y218552D01*
X1382477Y214902D01*
X1384366Y211629D01*
X1387038Y208957D01*
X1390311Y207068D01*
X1393961Y206090D01*
X1397739D01*
X1400117Y206727D01*
X1400143Y206720D01*
X1400577Y206460D01*
X1401260Y205719D01*
Y205682D01*
X1401193Y205174D01*
Y205031D01*
X1401260Y204523D01*
Y204011D01*
X1401393Y203516D01*
X1401460Y203008D01*
X1401656Y202535D01*
X1401788Y202040D01*
X1402044Y201596D01*
X1402240Y201123D01*
X1402552Y200716D01*
X1402809Y200272D01*
X1403171Y199910D01*
X1403483Y199504D01*
X1403889Y199192D01*
X1404251Y198829D01*
X1404695Y198573D01*
X1405102Y198261D01*
X1405575Y198065D01*
X1406019Y197809D01*
X1406514Y197677D01*
X1406987Y197481D01*
X1407495Y197414D01*
X1407990Y197281D01*
X1408502D01*
X1409010Y197214D01*
X1409518Y197281D01*
X1410030D01*
X1410525Y197414D01*
X1411033Y197481D01*
X1411507Y197677D01*
X1412001Y197809D01*
X1412445Y198065D01*
X1412919Y198261D01*
X1413325Y198573D01*
X1413769Y198829D01*
X1414131Y199192D01*
X1414537Y199504D01*
X1414849Y199910D01*
X1415211Y200272D01*
X1415278Y200387D01*
X1421478Y206588D01*
X1422721Y208207D01*
X1423501Y210092D01*
X1423768Y212115D01*
Y287300D01*
X1423768Y287300D01*
X1423501Y289323D01*
X1422721Y291208D01*
X1421478Y292827D01*
X1414637Y299668D01*
X1413018Y300911D01*
X1411914Y301368D01*
X1411133Y301692D01*
X1409110Y301958D01*
X1399738D01*
X1395977Y305718D01*
X1395571Y306030D01*
X1395209Y306393D01*
X1394765Y306649D01*
X1394359Y306961D01*
X1393885Y307157D01*
X1393441Y307413D01*
X1392946Y307546D01*
X1392473Y307742D01*
X1391965Y307808D01*
X1391470Y307941D01*
X1390958D01*
X1390450Y308008D01*
D02*
G37*
G36*
X1599578Y310753D02*
X1596076D01*
X1592641Y310070D01*
X1589405Y308729D01*
X1586493Y306784D01*
X1584016Y304307D01*
X1582070Y301395D01*
X1580730Y298159D01*
X1580047Y294724D01*
Y291222D01*
X1580730Y287787D01*
X1582070Y284551D01*
X1584016Y281639D01*
X1586493Y279162D01*
X1589405Y277217D01*
X1592641Y275876D01*
X1596076Y275193D01*
X1599578D01*
X1603013Y275876D01*
X1606249Y277217D01*
X1609161Y279162D01*
X1611638Y281639D01*
X1613583Y284551D01*
X1614924Y287787D01*
X1615607Y291222D01*
Y294724D01*
X1614924Y298159D01*
X1613583Y301395D01*
X1611638Y304307D01*
X1609161Y306784D01*
X1606249Y308729D01*
X1603013Y310070D01*
X1599578Y310753D01*
D02*
G37*
G36*
X1554826Y303954D02*
X1552085Y303593D01*
X1549531Y302535D01*
X1547337Y300852D01*
X1545654Y298658D01*
X1544596Y296104D01*
X1544235Y293363D01*
Y292583D01*
X1544596Y289842D01*
X1545654Y287288D01*
X1547337Y285094D01*
X1549531Y283411D01*
X1551751Y282492D01*
Y273454D01*
X1549531Y272535D01*
X1547337Y270852D01*
X1545654Y268658D01*
X1544596Y266104D01*
X1544235Y263363D01*
Y262583D01*
X1544596Y259842D01*
X1545654Y257288D01*
X1547337Y255094D01*
X1549531Y253411D01*
X1552085Y252353D01*
X1554826Y251992D01*
X1557567Y252353D01*
X1560121Y253411D01*
X1562315Y255094D01*
X1563998Y257288D01*
X1565056Y259842D01*
X1565417Y262583D01*
Y263363D01*
X1565056Y266104D01*
X1563998Y268658D01*
X1562315Y270852D01*
X1560121Y272535D01*
X1557901Y273454D01*
Y282492D01*
X1560121Y283411D01*
X1562315Y285094D01*
X1563998Y287288D01*
X1565056Y289842D01*
X1565417Y292583D01*
Y293363D01*
X1565056Y296104D01*
X1563998Y298658D01*
X1562315Y300852D01*
X1560121Y302535D01*
X1557567Y303593D01*
X1554826Y303954D01*
D02*
G37*
G36*
X1524826D02*
X1522085Y303593D01*
X1519531Y302535D01*
X1517337Y300852D01*
X1515654Y298658D01*
X1514596Y296104D01*
X1514235Y293363D01*
Y292583D01*
X1514596Y289842D01*
X1515654Y287288D01*
X1517337Y285094D01*
X1519531Y283411D01*
X1521767Y282485D01*
Y273461D01*
X1519531Y272535D01*
X1517337Y270852D01*
X1515654Y268658D01*
X1514596Y266104D01*
X1514235Y263363D01*
Y262583D01*
X1514596Y259842D01*
X1515654Y257288D01*
X1517337Y255094D01*
X1519531Y253411D01*
X1522085Y252353D01*
X1524826Y251992D01*
X1527567Y252353D01*
X1530121Y253411D01*
X1532315Y255094D01*
X1533998Y257288D01*
X1535056Y259842D01*
X1535417Y262583D01*
Y263363D01*
X1535056Y266104D01*
X1533998Y268658D01*
X1532315Y270852D01*
X1530121Y272535D01*
X1527885Y273461D01*
Y282485D01*
X1530121Y283411D01*
X1532315Y285094D01*
X1533998Y287288D01*
X1535056Y289842D01*
X1535417Y292583D01*
Y293363D01*
X1535056Y296104D01*
X1533998Y298658D01*
X1532315Y300852D01*
X1530121Y302535D01*
X1527567Y303593D01*
X1524826Y303954D01*
D02*
G37*
G36*
X1221849Y293386D02*
X1219661D01*
X1217639Y292549D01*
X1216092Y291001D01*
X1215255Y288980D01*
Y286792D01*
X1215449Y286324D01*
X1214287Y285161D01*
X1213624Y284169D01*
X1213391Y282999D01*
X1213391Y282999D01*
Y256277D01*
X1213335Y256254D01*
X1211787Y254706D01*
X1210950Y252685D01*
Y250497D01*
X1211347Y249539D01*
X1210498Y248269D01*
X1205600D01*
Y258191D01*
X1204878D01*
Y271841D01*
X1204878Y271841D01*
X1204568Y273402D01*
X1203684Y274725D01*
X1203684Y274725D01*
X1198450Y279959D01*
Y281385D01*
X1197537Y283590D01*
X1195849Y285278D01*
X1193643Y286191D01*
X1191256D01*
X1189051Y285278D01*
X1187364Y283590D01*
X1186450Y281385D01*
Y278998D01*
X1187364Y276792D01*
X1189051Y275105D01*
X1191256Y274191D01*
X1192682D01*
X1196722Y270152D01*
Y258191D01*
X1196000D01*
Y248191D01*
X1196547D01*
Y246066D01*
X1195787Y245306D01*
X1194950Y243285D01*
Y241097D01*
X1195787Y239076D01*
X1197335Y237528D01*
X1199356Y236691D01*
X1201544D01*
X1203566Y237528D01*
X1205113Y239076D01*
X1205542Y240113D01*
X1212841D01*
X1213343Y240013D01*
X1213344Y240013D01*
X1222350D01*
X1222350Y240013D01*
X1223911Y240323D01*
X1225234Y241207D01*
X1228218Y244191D01*
X1229643D01*
X1231849Y245105D01*
X1233537Y246792D01*
X1234450Y248998D01*
Y251385D01*
X1233537Y253590D01*
X1231849Y255278D01*
X1229643Y256191D01*
X1227256D01*
X1225051Y255278D01*
X1223363Y253590D01*
X1223123Y253010D01*
X1221782Y253091D01*
X1221113Y254706D01*
X1219566Y256254D01*
X1219509Y256277D01*
Y281732D01*
X1220163Y282386D01*
X1221849D01*
X1223870Y283223D01*
X1225418Y284771D01*
X1226255Y286792D01*
Y288980D01*
X1225418Y291001D01*
X1223870Y292549D01*
X1221849Y293386D01*
D02*
G37*
G36*
X1371370Y259176D02*
X1369530D01*
X1367754Y258700D01*
X1366161Y257780D01*
X1364861Y256480D01*
X1363941Y254887D01*
X1363465Y253111D01*
Y251271D01*
X1363941Y249495D01*
X1364861Y247902D01*
X1366161Y246602D01*
X1367754Y245682D01*
X1369530Y245206D01*
X1371370D01*
X1373146Y245682D01*
X1374739Y246602D01*
X1376039Y247902D01*
X1376959Y249495D01*
X1377435Y251271D01*
Y253111D01*
X1376959Y254887D01*
X1376039Y256480D01*
X1374739Y257780D01*
X1373146Y258700D01*
X1371370Y259176D01*
D02*
G37*
G36*
X1161544Y241691D02*
X1159356D01*
X1157335Y240854D01*
X1156750Y240269D01*
X1153600D01*
Y241191D01*
X1144000D01*
Y231191D01*
X1153600D01*
Y232113D01*
X1156750D01*
X1157335Y231528D01*
X1159356Y230691D01*
X1161544D01*
X1163566Y231528D01*
X1165113Y233076D01*
X1165950Y235097D01*
Y237285D01*
X1165113Y239307D01*
X1163566Y240854D01*
X1161544Y241691D01*
D02*
G37*
G36*
X1346939Y266542D02*
X1343161D01*
X1339511Y265564D01*
X1336238Y263675D01*
X1333566Y261003D01*
X1331677Y257730D01*
X1330699Y254080D01*
Y250302D01*
X1331677Y246652D01*
X1333566Y243379D01*
X1336238Y240707D01*
X1339511Y238818D01*
X1343161Y237840D01*
X1346939D01*
X1350589Y238818D01*
X1353862Y240707D01*
X1356534Y243379D01*
X1358423Y246652D01*
X1359401Y250302D01*
Y254080D01*
X1358423Y257730D01*
X1356534Y261003D01*
X1353862Y263675D01*
X1350589Y265564D01*
X1346939Y266542D01*
D02*
G37*
G36*
X1222900Y233191D02*
X1213300D01*
Y229243D01*
X1208150D01*
X1207566Y229827D01*
X1205544Y230665D01*
X1203356D01*
X1201335Y229827D01*
X1199787Y228280D01*
X1198950Y226259D01*
Y225432D01*
X1193787Y220269D01*
X1164150D01*
X1163566Y220854D01*
X1161544Y221691D01*
X1159356D01*
X1157335Y220854D01*
X1155787Y219307D01*
X1154950Y217285D01*
Y215097D01*
X1155787Y213076D01*
X1156372Y212491D01*
Y209341D01*
X1155450D01*
Y199741D01*
X1165450D01*
Y209341D01*
X1164528D01*
Y212113D01*
X1195476D01*
X1195477Y212113D01*
X1197037Y212423D01*
X1198360Y213307D01*
X1199777Y214723D01*
X1201242Y214393D01*
X1201787Y213076D01*
X1203335Y211528D01*
X1205356Y210691D01*
X1207535D01*
X1207946Y210281D01*
X1207946Y210281D01*
X1209269Y209397D01*
X1210829Y209086D01*
X1213300D01*
Y208165D01*
X1222900D01*
Y218165D01*
X1213300D01*
Y218165D01*
X1212030Y217732D01*
X1211578Y218184D01*
X1211113Y219307D01*
X1210603Y219816D01*
X1211129Y221086D01*
X1215073D01*
X1215073Y221086D01*
X1216634Y221397D01*
X1217957Y222281D01*
X1218581Y222904D01*
X1219010Y223191D01*
X1222900D01*
Y233191D01*
D02*
G37*
G36*
X1299544Y256191D02*
X1297356D01*
X1295334Y255354D01*
X1293787Y253806D01*
X1292950Y251785D01*
Y249597D01*
X1293787Y247576D01*
X1295334Y246028D01*
X1296338Y245613D01*
Y242838D01*
X1296338Y242838D01*
X1296571Y241667D01*
X1297234Y240675D01*
X1309474Y228436D01*
X1309450Y228379D01*
Y226191D01*
X1310287Y224170D01*
X1311835Y222622D01*
X1313856Y221785D01*
X1316044D01*
X1318065Y222622D01*
X1319613Y224170D01*
X1320450Y226191D01*
Y228379D01*
X1319613Y230401D01*
X1318065Y231948D01*
X1316044Y232785D01*
X1313856D01*
X1313799Y232761D01*
X1302456Y244105D01*
Y246919D01*
X1303113Y247576D01*
X1303950Y249597D01*
Y251785D01*
X1303113Y253806D01*
X1301566Y255354D01*
X1299544Y256191D01*
D02*
G37*
G36*
X1124450Y286008D02*
X1123942Y285941D01*
X1123430D01*
X1122935Y285808D01*
X1122427Y285742D01*
X1121954Y285546D01*
X1121459Y285413D01*
X1121015Y285157D01*
X1120542Y284961D01*
X1120135Y284649D01*
X1119691Y284393D01*
X1119329Y284030D01*
X1118923Y283718D01*
X1118611Y283312D01*
X1118249Y282950D01*
X1117992Y282506D01*
X1117680Y282099D01*
X1117484Y281626D01*
X1117228Y281182D01*
X1117096Y280688D01*
X1116899Y280214D01*
X1116833Y279706D01*
X1116700Y279211D01*
Y278699D01*
X1116633Y278191D01*
Y256479D01*
X1109398Y249243D01*
X1069873Y209718D01*
X1069561Y209312D01*
X1069199Y208950D01*
X1068942Y208506D01*
X1068630Y208099D01*
X1068434Y207626D01*
X1068178Y207182D01*
X1068046Y206688D01*
X1067850Y206214D01*
X1067783Y205706D01*
X1067650Y205211D01*
Y204699D01*
X1067583Y204191D01*
X1067650Y203683D01*
Y203171D01*
X1067783Y202676D01*
X1067850Y202168D01*
X1068046Y201695D01*
X1068178Y201200D01*
X1068434Y200756D01*
X1068630Y200283D01*
X1068942Y199876D01*
X1069199Y199432D01*
X1069561Y199070D01*
X1069873Y198664D01*
X1070279Y198352D01*
X1070641Y197990D01*
X1071085Y197733D01*
X1071492Y197421D01*
X1071965Y197225D01*
X1072409Y196969D01*
X1072904Y196837D01*
X1073377Y196640D01*
X1073885Y196574D01*
X1074380Y196441D01*
X1074892D01*
X1075400Y196374D01*
X1075908Y196441D01*
X1076420D01*
X1076915Y196574D01*
X1077423Y196640D01*
X1077896Y196837D01*
X1078391Y196969D01*
X1078835Y197225D01*
X1079308Y197421D01*
X1079715Y197733D01*
X1080159Y197990D01*
X1080521Y198352D01*
X1080927Y198664D01*
X1116848Y234584D01*
X1119702Y231729D01*
Y220191D01*
X1120000Y218693D01*
Y215191D01*
X1124307D01*
X1124800Y215093D01*
X1134635D01*
X1135606Y214691D01*
X1137794D01*
X1139816Y215528D01*
X1141363Y217076D01*
X1142200Y219097D01*
Y221285D01*
X1141363Y223307D01*
X1139816Y224854D01*
X1137794Y225691D01*
X1135606D01*
X1134635Y225289D01*
X1129898D01*
Y233841D01*
X1129510Y235792D01*
X1128405Y237446D01*
X1124057Y241793D01*
X1129977Y247714D01*
X1131220Y249333D01*
X1131677Y250437D01*
X1132001Y251218D01*
X1132267Y253241D01*
Y278191D01*
X1132200Y278699D01*
Y279211D01*
X1132067Y279706D01*
X1132001Y280214D01*
X1131804Y280688D01*
X1131672Y281182D01*
X1131416Y281626D01*
X1131220Y282099D01*
X1130908Y282506D01*
X1130651Y282950D01*
X1130289Y283312D01*
X1129977Y283718D01*
X1129571Y284030D01*
X1129209Y284393D01*
X1128765Y284649D01*
X1128358Y284961D01*
X1127885Y285157D01*
X1127441Y285413D01*
X1126946Y285546D01*
X1126473Y285742D01*
X1125965Y285808D01*
X1125470Y285941D01*
X1124958D01*
X1124450Y286008D01*
D02*
G37*
G36*
X1346939Y234792D02*
X1343161D01*
X1339511Y233814D01*
X1336238Y231925D01*
X1333566Y229253D01*
X1331677Y225980D01*
X1330699Y222330D01*
Y218552D01*
X1331677Y214902D01*
X1333566Y211629D01*
X1336238Y208957D01*
X1339511Y207068D01*
X1343161Y206090D01*
X1346939D01*
X1350589Y207068D01*
X1353862Y208957D01*
X1356534Y211629D01*
X1358423Y214902D01*
X1359401Y218552D01*
Y222330D01*
X1358423Y225980D01*
X1356534Y229253D01*
X1353862Y231925D01*
X1350589Y233814D01*
X1346939Y234792D01*
D02*
G37*
G36*
X1381530Y208376D02*
X1379690D01*
X1377914Y207900D01*
X1376321Y206980D01*
X1375021Y205680D01*
X1374101Y204087D01*
X1373625Y202311D01*
Y200471D01*
X1374101Y198695D01*
X1375021Y197102D01*
X1376321Y195802D01*
X1377914Y194882D01*
X1379690Y194406D01*
X1381530D01*
X1383306Y194882D01*
X1384899Y195802D01*
X1386199Y197102D01*
X1387119Y198695D01*
X1387595Y200471D01*
Y202311D01*
X1387119Y204087D01*
X1386199Y205680D01*
X1384899Y206980D01*
X1383306Y207900D01*
X1381530Y208376D01*
D02*
G37*
G36*
X1361210D02*
X1359370D01*
X1357594Y207900D01*
X1356001Y206980D01*
X1354701Y205680D01*
X1353781Y204087D01*
X1353305Y202311D01*
Y200471D01*
X1353781Y198695D01*
X1354701Y197102D01*
X1356001Y195802D01*
X1357594Y194882D01*
X1359370Y194406D01*
X1361210D01*
X1362986Y194882D01*
X1364579Y195802D01*
X1365879Y197102D01*
X1366799Y198695D01*
X1367275Y200471D01*
Y202311D01*
X1366799Y204087D01*
X1365879Y205680D01*
X1364579Y206980D01*
X1362986Y207900D01*
X1361210Y208376D01*
D02*
G37*
G36*
X1202706Y203191D02*
X1200518D01*
X1198497Y202354D01*
X1196950Y200806D01*
X1196112Y198785D01*
Y196597D01*
X1196950Y194576D01*
X1198497Y193028D01*
X1200518Y192191D01*
X1202706D01*
X1202884Y192265D01*
X1203121Y192028D01*
X1203121Y192028D01*
X1204113Y191365D01*
X1205284Y191132D01*
X1237764D01*
X1237787Y191075D01*
X1239334Y189528D01*
X1241356Y188691D01*
X1243544D01*
X1245565Y189528D01*
X1247113Y191075D01*
X1247950Y193097D01*
Y195285D01*
X1247113Y197306D01*
X1245565Y198854D01*
X1243544Y199691D01*
X1241356D01*
X1239334Y198854D01*
X1237787Y197306D01*
X1237764Y197250D01*
X1207112D01*
Y198785D01*
X1206275Y200806D01*
X1204728Y202354D01*
X1202706Y203191D01*
D02*
G37*
G36*
X1153544Y179691D02*
X1151356D01*
X1149334Y178854D01*
X1147787Y177306D01*
X1146950Y175285D01*
Y173097D01*
X1147787Y171076D01*
X1148252Y170611D01*
X1148083Y169341D01*
X1147450D01*
Y159741D01*
X1157450D01*
Y169341D01*
X1156818D01*
X1156648Y170611D01*
X1157113Y171076D01*
X1157950Y173097D01*
Y175285D01*
X1157113Y177306D01*
X1155565Y178854D01*
X1153544Y179691D01*
D02*
G37*
G36*
X1196164Y178220D02*
X1193976D01*
X1191954Y177383D01*
X1190407Y175835D01*
X1189570Y173814D01*
Y171626D01*
X1190407Y169604D01*
X1190992Y169020D01*
Y165341D01*
X1187450D01*
Y155741D01*
X1197450D01*
Y159773D01*
X1197954Y160277D01*
X1197954Y160277D01*
X1198838Y161600D01*
X1199148Y163161D01*
X1199148Y163161D01*
Y168642D01*
X1208232D01*
X1212950Y163923D01*
Y163097D01*
X1213787Y161075D01*
X1215334Y159528D01*
X1217356Y158691D01*
X1219544D01*
X1221565Y159528D01*
X1223113Y161075D01*
X1223950Y163097D01*
Y165285D01*
X1223113Y167306D01*
X1221565Y168854D01*
X1219544Y169691D01*
X1218718D01*
X1212805Y175604D01*
X1211482Y176488D01*
X1209921Y176798D01*
X1209921Y176798D01*
X1198770D01*
X1198186Y177383D01*
X1196164Y178220D01*
D02*
G37*
G36*
X976690Y124400D02*
X974030D01*
X971462Y123712D01*
X969158Y122382D01*
X967278Y120501D01*
X965948Y118198D01*
X965260Y115630D01*
Y112970D01*
X965948Y110402D01*
X967278Y108098D01*
X969158Y106218D01*
X971462Y104888D01*
X974030Y104200D01*
X976690D01*
X979258Y104888D01*
X981562Y106218D01*
X983442Y108098D01*
X984772Y110402D01*
X985460Y112970D01*
Y115630D01*
X984772Y118198D01*
X983442Y120501D01*
X981562Y122382D01*
X979258Y123712D01*
X976690Y124400D01*
D02*
G37*
%LPD*%
D10*
X1113504Y4540D02*
X1127760Y18796D01*
X782860Y4540D02*
X1113504D01*
X750570Y36830D02*
X782860Y4540D01*
X750570Y36830D02*
Y163830D01*
Y443230D02*
Y722630D01*
Y1002030D01*
Y163830D02*
Y443230D01*
D12*
X1124800Y220191D02*
X1136700D01*
X1124800D02*
Y233841D01*
X1114925Y243716D02*
X1124800Y233841D01*
D13*
X1498600Y526288D02*
X1499232Y525656D01*
D17*
X1554826Y262973D02*
Y292973D01*
D19*
X1127760Y18796D02*
X1184656D01*
X1229106Y63246D01*
Y87376D01*
X1076960Y17623D02*
Y88900D01*
X1073150Y13813D02*
X1076960Y17623D01*
X1073150Y12700D02*
Y13813D01*
X1060450Y19050D02*
X1065860Y24460D01*
Y103200D02*
X1076960Y114300D01*
X1065860Y24460D02*
Y103200D01*
X1051560Y30323D02*
Y88900D01*
X1047750Y25400D02*
Y26513D01*
X1051560Y30323D01*
X1040460Y103200D02*
X1051560Y114300D01*
X1035050Y31750D02*
X1040460Y37160D01*
Y103200D01*
X1022350Y38100D02*
Y39213D01*
X1026160Y43023D02*
Y88900D01*
X1022350Y39213D02*
X1026160Y43023D01*
X1015060Y49860D02*
Y103200D01*
X1009650Y44450D02*
X1015060Y49860D01*
Y103200D02*
X1026160Y114300D01*
X1000760Y55723D02*
Y88900D01*
X996950Y51913D02*
X1000760Y55723D01*
X996950Y50800D02*
Y51913D01*
X989660Y62560D02*
Y103200D01*
X984250Y57150D02*
X989660Y62560D01*
Y103200D02*
X1000760Y114300D01*
X805180Y72390D02*
X820420Y57150D01*
X805180Y72390D02*
Y109350D01*
X795020Y72390D02*
Y133175D01*
X815340Y44450D02*
X1009650D01*
X816610Y50800D02*
X996950D01*
X795020Y72390D02*
X816610Y50800D01*
X762000Y955040D02*
X763270Y953770D01*
X820420Y57150D02*
X984250D01*
X788670Y71120D02*
X815340Y44450D01*
X812800Y38100D02*
X1022350D01*
X782320Y68580D02*
X812800Y38100D01*
X775970Y67310D02*
X811530Y31750D01*
X1031901D01*
X769620Y64770D02*
X808990Y25400D01*
X1047750D01*
X763270Y62230D02*
X806450Y19050D01*
X1060450D01*
X756920Y58420D02*
X802640Y12700D01*
X1073150D01*
X756920Y58420D02*
X756920Y974247D01*
X769620Y64770D02*
X769620Y699770D01*
X775970Y67310D02*
X775970Y664210D01*
X782320Y68580D02*
X782320Y393700D01*
X788670Y71120D02*
X788670Y387350D01*
X763270Y62230D02*
X763270Y953770D01*
X760730Y978057D02*
Y979170D01*
X756920Y974247D02*
X760730Y978057D01*
X762000Y955040D02*
X763270D01*
X769620Y699770D02*
X769620Y699770D01*
X775970Y664210D02*
X777240Y665480D01*
Y675640D01*
X788670Y400050D02*
Y411480D01*
X782320Y393700D02*
X788670Y400050D01*
X794845Y133350D02*
X795020Y133175D01*
X1205284Y194191D02*
X1242450D01*
X1201784Y197691D02*
X1205284Y194191D01*
X1201612Y197691D02*
X1201784D01*
X1524826Y262973D02*
Y292973D01*
X1299397Y242838D02*
Y249744D01*
X1298450Y250691D02*
X1299397Y249744D01*
Y242838D02*
X1314950Y227285D01*
X1356450Y272191D02*
X1400114D01*
X1352450Y282191D02*
X1404450D01*
X1302450Y272191D02*
X1342450D01*
X1352450Y282191D01*
X1220755Y287304D02*
Y287886D01*
X1216450Y282999D02*
X1220755Y287304D01*
X1216450Y251591D02*
Y282999D01*
D36*
X1124800Y220191D02*
D03*
X1116100D02*
D03*
X1226800Y213165D02*
D03*
X1218100D02*
D03*
X1192100Y253191D02*
D03*
X1200800D02*
D03*
X1148800Y236191D02*
D03*
X1140100D02*
D03*
X1226800Y228191D02*
D03*
X1218100D02*
D03*
D37*
X1192450Y160541D02*
D03*
Y151841D02*
D03*
X1152450Y164541D02*
D03*
Y155841D02*
D03*
X1160450Y195841D02*
D03*
Y204541D02*
D03*
D98*
X197494Y654500D02*
D03*
Y612500D02*
D03*
X142494Y654500D02*
D03*
Y612500D02*
D03*
X69494Y444500D02*
D03*
Y654500D02*
D03*
D99*
X1182799Y367617D02*
D03*
X1470660Y383540D02*
D03*
X1485900Y396240D02*
D03*
X1359075Y380825D02*
D03*
X1370472Y192109D02*
D03*
X1193450Y229191D02*
D03*
X1171450D02*
D03*
Y207191D02*
D03*
X1193450D02*
D03*
X1342450Y334191D02*
D03*
X1192450Y280191D02*
D03*
X1113500Y165716D02*
D03*
X1228450Y250191D02*
D03*
X1252316Y274325D02*
D03*
D106*
X1195070Y172720D02*
X1209921D01*
X1195070Y163161D02*
Y172720D01*
X1192450Y160541D02*
X1195070Y163161D01*
X1209921Y172720D02*
X1218450Y164191D01*
X1148800Y236191D02*
X1160450D01*
X1192450Y280191D02*
X1200800Y271841D01*
X1160450Y204541D02*
Y216191D01*
X1195477D01*
X1204450Y225165D01*
X1215073D02*
X1216100Y226191D01*
X1216300D01*
X1218100Y227991D01*
Y228191D01*
X1204450Y225165D02*
X1215073D01*
X1207803Y216191D02*
X1210829Y213165D01*
X1218100D01*
X1206450Y216191D02*
X1207803D01*
X1200450Y242191D02*
X1202450Y244191D01*
X1222350Y244091D02*
X1228450Y250191D01*
X1213343Y244091D02*
X1222350D01*
X1213243Y244191D02*
X1213343Y244091D01*
X1202450Y244191D02*
X1213243D01*
X1200625D02*
Y253016D01*
X1200800Y253191D02*
Y271841D01*
X1200625Y253016D02*
X1200800Y253191D01*
X1152450Y164541D02*
Y174191D01*
D108*
X190500Y1066800D02*
D03*
X1574800Y76200D02*
D03*
Y584200D02*
D03*
X977900Y1066800D02*
D03*
X76200Y76200D02*
D03*
D109*
X1371600Y590550D02*
D03*
Y546200D02*
D03*
X1327250D02*
D03*
X1415950D02*
D03*
Y590550D02*
D03*
X1327250D02*
D03*
Y634900D02*
D03*
X1371600D02*
D03*
X1415950D02*
D03*
X1206500Y590550D02*
D03*
Y546200D02*
D03*
X1162150D02*
D03*
X1250850D02*
D03*
Y590550D02*
D03*
X1162150D02*
D03*
Y634900D02*
D03*
X1206500D02*
D03*
X1250850D02*
D03*
X1022250Y971450D02*
D03*
X977900D02*
D03*
X933550D02*
D03*
Y927100D02*
D03*
X1022250D02*
D03*
Y882750D02*
D03*
X933550D02*
D03*
X977900D02*
D03*
Y927100D02*
D03*
X1022250Y717650D02*
D03*
Y762000D02*
D03*
Y806350D02*
D03*
X977900D02*
D03*
Y717650D02*
D03*
X933550D02*
D03*
Y806350D02*
D03*
Y762000D02*
D03*
X977900D02*
D03*
D110*
X444500Y1117600D02*
D03*
X469900D02*
D03*
X495300D02*
D03*
X975360Y114300D02*
D03*
X1026160D02*
D03*
X1051560D02*
D03*
X1076960D02*
D03*
X1000760Y88900D02*
D03*
X1051560D02*
D03*
X1076960D02*
D03*
X1000760Y114300D02*
D03*
X1026160Y88900D02*
D03*
X444500Y558800D02*
D03*
X469900D02*
D03*
X495300D02*
D03*
Y279400D02*
D03*
X469900D02*
D03*
X444500D02*
D03*
Y838200D02*
D03*
X469900D02*
D03*
X495300D02*
D03*
D111*
X520700Y1117600D02*
D03*
X975360Y88900D02*
D03*
X520700Y558800D02*
D03*
Y279400D02*
D03*
Y838200D02*
D03*
D112*
X719270Y22350D02*
D03*
X679270D02*
D03*
Y860550D02*
D03*
X719270D02*
D03*
X679270Y581150D02*
D03*
X719270D02*
D03*
X679270Y301750D02*
D03*
X719270D02*
D03*
D113*
X1597827Y292973D02*
D03*
D114*
X1345050Y220441D02*
D03*
X1395850D02*
D03*
Y252191D02*
D03*
X1345050D02*
D03*
D115*
X1360290Y201391D02*
D03*
X1380610D02*
D03*
X1370450Y252191D02*
D03*
D116*
X197494Y570500D02*
D03*
Y528500D02*
D03*
X142494Y528500D02*
D03*
Y570500D02*
D03*
X197494Y486500D02*
D03*
X142494D02*
D03*
X197494Y444500D02*
D03*
X142494D02*
D03*
D117*
X901700Y82550D02*
D03*
X952500Y83820D02*
D03*
X934720Y81280D02*
D03*
X1431290Y85090D02*
D03*
X805180Y109350D02*
D03*
X1436878Y134366D02*
D03*
X996950Y50800D02*
D03*
X1009650Y44450D02*
D03*
X1073150Y12700D02*
D03*
X1060450Y19050D02*
D03*
X1047750Y25400D02*
D03*
X1035050Y31750D02*
D03*
X1022350Y38100D02*
D03*
X984250Y57150D02*
D03*
X760730Y979170D02*
D03*
X763270Y955040D02*
D03*
X769620Y699770D02*
D03*
X777240Y675640D02*
D03*
X788670Y411480D02*
D03*
Y387350D02*
D03*
X794845Y133350D02*
D03*
X1018540Y255016D02*
D03*
X750570Y1002030D02*
D03*
Y163830D02*
D03*
Y443230D02*
D03*
Y722630D02*
D03*
D118*
X1195070Y172720D02*
D03*
X1201612Y197691D02*
D03*
X1160450Y216191D02*
D03*
X1419200Y162191D02*
D03*
X1377700D02*
D03*
X1359200D02*
D03*
X1310450Y327491D02*
D03*
X1442450Y336191D02*
D03*
X1206450Y216191D02*
D03*
X1317700Y162191D02*
D03*
X1302450Y158541D02*
D03*
X1136700Y220191D02*
D03*
X1160450Y236191D02*
D03*
X1356450Y272191D02*
D03*
X1314950Y227285D02*
D03*
X1312450Y208191D02*
D03*
X1298450Y250691D02*
D03*
X1400114Y272191D02*
D03*
X1340450Y320191D02*
D03*
X1404450Y282191D02*
D03*
X1424292Y298034D02*
D03*
X1440450Y197841D02*
D03*
X1200450Y242191D02*
D03*
X1302450Y272191D02*
D03*
X1220755Y287886D02*
D03*
X1204450Y225165D02*
D03*
X1242450Y194191D02*
D03*
X1244450Y204191D02*
D03*
X1092450Y244191D02*
D03*
X1216450Y251591D02*
D03*
X1152450Y174191D02*
D03*
X1218450Y164191D02*
D03*
X1470450Y240191D02*
D03*
X1135700Y266191D02*
D03*
D119*
X838200Y184150D02*
D03*
Y196850D02*
D03*
Y209550D02*
D03*
Y222250D02*
D03*
X800100Y463550D02*
D03*
Y476250D02*
D03*
Y488950D02*
D03*
Y501650D02*
D03*
Y742950D02*
D03*
Y755650D02*
D03*
Y768350D02*
D03*
Y781050D02*
D03*
X812800Y222250D02*
D03*
X825500D02*
D03*
Y209550D02*
D03*
X812800D02*
D03*
Y196850D02*
D03*
X825500D02*
D03*
Y184150D02*
D03*
X812800D02*
D03*
Y501650D02*
D03*
X825500D02*
D03*
Y488950D02*
D03*
X812800D02*
D03*
Y476250D02*
D03*
X825500D02*
D03*
Y463550D02*
D03*
X812800D02*
D03*
Y781050D02*
D03*
X825500D02*
D03*
Y768350D02*
D03*
X812800D02*
D03*
Y755650D02*
D03*
X825500D02*
D03*
Y742950D02*
D03*
X812800D02*
D03*
Y1022350D02*
D03*
X825500D02*
D03*
X838200D02*
D03*
Y1035050D02*
D03*
X825500D02*
D03*
X812800D02*
D03*
Y1047750D02*
D03*
X825500D02*
D03*
X838200D02*
D03*
Y1060450D02*
D03*
X825500D02*
D03*
X812800D02*
D03*
D120*
X1390450Y300191D02*
D03*
X1409010Y205031D02*
D03*
X1208350Y324411D02*
D03*
X1124450Y278191D02*
D03*
X1075400Y204191D02*
D03*
X1147390Y324411D02*
D03*
D121*
X863600Y1109980D02*
D03*
X1123950Y532130D02*
D03*
X1098550D02*
D03*
D122*
X1127760Y18796D02*
D03*
X1229106Y87376D02*
D03*
D123*
X1147390Y324411D02*
X1208350D01*
X1124450Y253241D02*
Y278191D01*
X1075400Y204191D02*
X1114925Y243716D01*
X1124450Y253241D01*
X1409010Y205031D02*
Y205174D01*
X1415951Y212115D01*
Y287300D01*
X1390450Y300191D02*
X1396500Y294141D01*
X1409110D01*
X1415951Y287300D01*
D124*
X1554826Y322973D02*
D03*
Y292973D02*
D03*
Y262973D02*
D03*
X1524826Y322973D02*
D03*
Y292973D02*
D03*
Y262973D02*
D03*
M02*
