G04*
G04 #@! TF.GenerationSoftware,Altium Limited,Altium Designer,24.9.1 (31)*
G04*
G04 Layer_Color=8388736*
%FSLAX25Y25*%
%MOIN*%
G70*
G04*
G04 #@! TF.SameCoordinates,4BBB15B1-EA9B-4C66-A1CB-66718B52E77B*
G04*
G04*
G04 #@! TF.FilePolarity,Negative*
G04*
G01*
G75*
%ADD17C,0.01000*%
%ADD30R,0.09756X0.03697*%
%ADD31R,0.27300X0.26700*%
%ADD32R,0.04166X0.06741*%
%ADD34R,0.14600X0.04310*%
%ADD36R,0.04134X0.06299*%
%ADD39R,0.03543X0.02559*%
%ADD40R,0.04558X0.05363*%
%ADD41R,0.03248X0.05217*%
%ADD42R,0.07087X0.07087*%
%ADD43R,0.00902X0.04547*%
%ADD44R,0.04547X0.00902*%
%ADD48R,0.02465X0.03252*%
G04:AMPARAMS|DCode=49|XSize=38.42mil|YSize=65.98mil|CornerRadius=3.45mil|HoleSize=0mil|Usage=FLASHONLY|Rotation=0.000|XOffset=0mil|YOffset=0mil|HoleType=Round|Shape=RoundedRectangle|*
%AMROUNDEDRECTD49*
21,1,0.03842,0.05909,0,0,0.0*
21,1,0.03154,0.06598,0,0,0.0*
1,1,0.00689,0.01577,-0.02955*
1,1,0.00689,-0.01577,-0.02955*
1,1,0.00689,-0.01577,0.02955*
1,1,0.00689,0.01577,0.02955*
%
%ADD49ROUNDEDRECTD49*%
G04:AMPARAMS|DCode=50|XSize=12.84mil|YSize=22.68mil|CornerRadius=3.47mil|HoleSize=0mil|Usage=FLASHONLY|Rotation=90.000|XOffset=0mil|YOffset=0mil|HoleType=Round|Shape=RoundedRectangle|*
%AMROUNDEDRECTD50*
21,1,0.01284,0.01575,0,0,90.0*
21,1,0.00591,0.02268,0,0,90.0*
1,1,0.00693,0.00787,0.00295*
1,1,0.00693,0.00787,-0.00295*
1,1,0.00693,-0.00787,-0.00295*
1,1,0.00693,-0.00787,0.00295*
%
%ADD50ROUNDEDRECTD50*%
%ADD51C,0.05024*%
%ADD52R,0.06008X0.05614*%
%ADD53R,0.04299X0.03299*%
%ADD54R,0.03299X0.04299*%
%ADD55R,0.03000X0.05800*%
%ADD56R,0.04299X0.04799*%
%ADD57R,0.03499X0.03499*%
%ADD58R,0.07465X0.05024*%
G04:AMPARAMS|DCode=59|XSize=20.71mil|YSize=64.02mil|CornerRadius=3.45mil|HoleSize=0mil|Usage=FLASHONLY|Rotation=90.000|XOffset=0mil|YOffset=0mil|HoleType=Round|Shape=RoundedRectangle|*
%AMROUNDEDRECTD59*
21,1,0.02071,0.05713,0,0,90.0*
21,1,0.01382,0.06402,0,0,90.0*
1,1,0.00689,0.02856,0.00691*
1,1,0.00689,0.02856,-0.00691*
1,1,0.00689,-0.02856,-0.00691*
1,1,0.00689,-0.02856,0.00691*
%
%ADD59ROUNDEDRECTD59*%
%ADD60R,0.03252X0.02465*%
%ADD61R,0.02661X0.02858*%
%ADD62R,0.02504X0.02661*%
%ADD63O,0.06008X0.02661*%
%ADD64C,0.06677*%
G04:AMPARAMS|DCode=65|XSize=66.77mil|YSize=66.77mil|CornerRadius=17.44mil|HoleSize=0mil|Usage=FLASHONLY|Rotation=0.000|XOffset=0mil|YOffset=0mil|HoleType=Round|Shape=RoundedRectangle|*
%AMROUNDEDRECTD65*
21,1,0.06677,0.03189,0,0,0.0*
21,1,0.03189,0.06677,0,0,0.0*
1,1,0.03488,0.01595,-0.01595*
1,1,0.03488,-0.01595,-0.01595*
1,1,0.03488,-0.01595,0.01595*
1,1,0.03488,0.01595,0.01595*
%
%ADD65ROUNDEDRECTD65*%
%ADD66C,0.05512*%
%ADD67R,0.05512X0.05512*%
%ADD68C,0.07000*%
%ADD69C,0.06400*%
%ADD70C,0.12000*%
%ADD71C,0.06300*%
%ADD72C,0.02851*%
D17*
X298517Y286001D02*
Y291999D01*
X301516D01*
X302515Y290999D01*
Y289000D01*
X301516Y288000D01*
X298517D01*
X304515Y286001D02*
X306514D01*
X305514D01*
Y289999D01*
X304515D01*
X309513Y286001D02*
Y289999D01*
X312512D01*
X313512Y289000D01*
Y286001D01*
X317511Y284001D02*
X318510D01*
X319510Y285001D01*
Y289999D01*
X316511D01*
X315511Y289000D01*
Y287000D01*
X316511Y286001D01*
X319510D01*
X324508D02*
X322509D01*
X321509Y287000D01*
Y289000D01*
X322509Y289999D01*
X324508D01*
X325508Y289000D01*
Y288000D01*
X321509D01*
X327507Y289999D02*
Y286001D01*
Y288000D01*
X328507Y289000D01*
X329507Y289999D01*
X330506D01*
X343502Y291999D02*
X339503D01*
Y289000D01*
X341503D01*
X339503D01*
Y286001D01*
X345501D02*
X347501D01*
X346501D01*
Y289999D01*
X345501D01*
X350500Y286001D02*
Y289999D01*
X353499D01*
X354499Y289000D01*
Y286001D01*
X360497Y291999D02*
Y286001D01*
X357498D01*
X356498Y287000D01*
Y289000D01*
X357498Y289999D01*
X360497D01*
X362496Y286001D02*
X364495D01*
X363496D01*
Y289999D01*
X362496D01*
X367494Y286001D02*
Y289999D01*
X370493D01*
X371493Y289000D01*
Y286001D01*
X375492Y284001D02*
X376491D01*
X377491Y285001D01*
Y289999D01*
X374492D01*
X373492Y289000D01*
Y287000D01*
X374492Y286001D01*
X377491D01*
X385489D02*
Y291999D01*
X388488D01*
X389487Y290999D01*
Y289000D01*
X388488Y288000D01*
X385489D01*
X395485Y290999D02*
X394486Y291999D01*
X392486D01*
X391487Y290999D01*
Y287000D01*
X392486Y286001D01*
X394486D01*
X395485Y287000D01*
X397485Y291999D02*
Y286001D01*
X400484D01*
X401483Y287000D01*
Y288000D01*
X400484Y289000D01*
X397485D01*
X400484D01*
X401483Y289999D01*
Y290999D01*
X400484Y291999D01*
X397485D01*
D30*
X138000Y87500D02*
D03*
Y105532D02*
D03*
D31*
X163250Y96516D02*
D03*
D32*
X106882Y105500D02*
D03*
X118118D02*
D03*
D34*
X95000Y93395D02*
D03*
Y81605D02*
D03*
D36*
X69693Y93000D02*
D03*
X81307D02*
D03*
D39*
X351150Y107854D02*
D03*
Y102146D02*
D03*
X352150Y161854D02*
D03*
Y156146D02*
D03*
X351000Y234854D02*
D03*
Y229146D02*
D03*
X352000Y180854D02*
D03*
Y175146D02*
D03*
X343150Y162000D02*
D03*
Y156291D02*
D03*
X342150Y107854D02*
D03*
Y102146D02*
D03*
X343000Y180854D02*
D03*
Y175146D02*
D03*
X342000Y235000D02*
D03*
Y229291D02*
D03*
D40*
X350406Y116000D02*
D03*
X343893D02*
D03*
X350406Y148000D02*
D03*
X343893D02*
D03*
X350257Y221000D02*
D03*
X343743D02*
D03*
X350257Y189000D02*
D03*
X343743D02*
D03*
D41*
X336299Y116000D02*
D03*
X330000D02*
D03*
X336299Y148000D02*
D03*
X330000D02*
D03*
X336150Y221000D02*
D03*
X329850D02*
D03*
X336150Y189000D02*
D03*
X329850D02*
D03*
D42*
X350150Y132000D02*
D03*
X350000Y205000D02*
D03*
D43*
X347197Y138407D02*
D03*
X349165D02*
D03*
X351134D02*
D03*
X353102D02*
D03*
Y125593D02*
D03*
X351134D02*
D03*
X349165D02*
D03*
X347197D02*
D03*
X347047Y211407D02*
D03*
X349016D02*
D03*
X350984D02*
D03*
X352953D02*
D03*
Y198593D02*
D03*
X350984D02*
D03*
X349016D02*
D03*
X347047D02*
D03*
D44*
X356557Y134953D02*
D03*
Y132984D02*
D03*
Y131016D02*
D03*
Y129047D02*
D03*
X343742D02*
D03*
Y131016D02*
D03*
Y132984D02*
D03*
Y134953D02*
D03*
X356407Y207953D02*
D03*
Y205984D02*
D03*
Y204016D02*
D03*
Y202047D02*
D03*
X343593D02*
D03*
Y204016D02*
D03*
Y205984D02*
D03*
Y207953D02*
D03*
D48*
X79870Y72000D02*
D03*
X76130D02*
D03*
X241130Y103000D02*
D03*
X244870D02*
D03*
X220870Y106000D02*
D03*
X217130D02*
D03*
X244740Y110000D02*
D03*
X241000D02*
D03*
X234630Y83500D02*
D03*
X238370D02*
D03*
X234630Y123500D02*
D03*
X238370D02*
D03*
X244740Y150000D02*
D03*
X241000D02*
D03*
X220870Y146000D02*
D03*
X217130D02*
D03*
X241130Y143000D02*
D03*
X244870D02*
D03*
X241130Y183000D02*
D03*
X244870D02*
D03*
X220870Y186000D02*
D03*
X217130D02*
D03*
X244740Y190000D02*
D03*
X241000D02*
D03*
X234630Y163500D02*
D03*
X238370D02*
D03*
X220870Y226000D02*
D03*
X217130D02*
D03*
X244740Y230000D02*
D03*
X241000D02*
D03*
X241130Y223000D02*
D03*
X244870D02*
D03*
X234630Y203500D02*
D03*
X238370D02*
D03*
X375500Y214200D02*
D03*
X371760D02*
D03*
X375650Y147200D02*
D03*
X371909D02*
D03*
X375650Y141200D02*
D03*
X375500Y220200D02*
D03*
X375650Y135200D02*
D03*
X371909D02*
D03*
Y123200D02*
D03*
X375650D02*
D03*
X375650Y129200D02*
D03*
X371909D02*
D03*
X328410Y132000D02*
D03*
X332150D02*
D03*
X371909Y141200D02*
D03*
X328260Y205000D02*
D03*
X332000D02*
D03*
X371760Y196200D02*
D03*
X375500D02*
D03*
X375500Y202200D02*
D03*
X371760D02*
D03*
X375500Y208200D02*
D03*
X371760D02*
D03*
Y220200D02*
D03*
X255240Y277000D02*
D03*
X251500D02*
D03*
X132370Y247500D02*
D03*
X128630D02*
D03*
X164370D02*
D03*
X160630D02*
D03*
X228870D02*
D03*
X225130D02*
D03*
X196370D02*
D03*
X192630D02*
D03*
D49*
X72500Y82000D02*
D03*
D50*
X76240Y84953D02*
D03*
Y82984D02*
D03*
Y81016D02*
D03*
Y79047D02*
D03*
X68760D02*
D03*
Y81016D02*
D03*
Y82984D02*
D03*
Y84953D02*
D03*
D51*
X123500Y80500D02*
D03*
X228000Y71000D02*
D03*
X303000Y172000D02*
D03*
X288000Y165000D02*
D03*
X303500Y239000D02*
D03*
X289500Y103000D02*
D03*
D52*
X127000Y103650D02*
D03*
Y97350D02*
D03*
D53*
X252000Y64500D02*
D03*
Y57500D02*
D03*
X193000Y93000D02*
D03*
Y100000D02*
D03*
X252000Y103000D02*
D03*
Y96000D02*
D03*
Y143000D02*
D03*
Y136000D02*
D03*
X193000Y133000D02*
D03*
Y140000D02*
D03*
Y173000D02*
D03*
Y180000D02*
D03*
X252000Y183000D02*
D03*
Y176000D02*
D03*
Y223000D02*
D03*
Y216000D02*
D03*
X193000Y213000D02*
D03*
Y220000D02*
D03*
D54*
X237000Y72000D02*
D03*
X244000D02*
D03*
X143500Y77500D02*
D03*
X150500D02*
D03*
X197000Y60500D02*
D03*
X204000D02*
D03*
X212000D02*
D03*
X219000D02*
D03*
X234500Y106500D02*
D03*
X227500D02*
D03*
X214500Y83000D02*
D03*
X221500D02*
D03*
X214500Y123000D02*
D03*
X221500D02*
D03*
X234500Y146500D02*
D03*
X227500D02*
D03*
X214500Y163000D02*
D03*
X221500D02*
D03*
X234500Y186500D02*
D03*
X227500D02*
D03*
X214500Y203000D02*
D03*
X221500D02*
D03*
X234500Y226500D02*
D03*
X227500D02*
D03*
X365650Y148000D02*
D03*
X358650D02*
D03*
X365650Y116000D02*
D03*
X358650D02*
D03*
X365500Y221000D02*
D03*
X358500D02*
D03*
X365500Y189000D02*
D03*
X358500D02*
D03*
D55*
X240500Y56400D02*
D03*
X244250Y64600D02*
D03*
X236750D02*
D03*
D56*
X149850Y66500D02*
D03*
X143150D02*
D03*
X212650Y69000D02*
D03*
X219350D02*
D03*
X203850Y52000D02*
D03*
X197150D02*
D03*
X218850D02*
D03*
X212150D02*
D03*
D57*
X142500Y46000D02*
D03*
X149500D02*
D03*
D58*
X59000Y89248D02*
D03*
Y77752D02*
D03*
D59*
X215846Y97839D02*
D03*
Y95280D02*
D03*
Y92721D02*
D03*
Y90161D02*
D03*
X234154Y97839D02*
D03*
Y95280D02*
D03*
Y92721D02*
D03*
Y90161D02*
D03*
X215846Y137839D02*
D03*
Y135280D02*
D03*
Y132720D02*
D03*
Y130161D02*
D03*
X234154Y137839D02*
D03*
Y135280D02*
D03*
Y132720D02*
D03*
Y130161D02*
D03*
X215846Y177839D02*
D03*
Y175279D02*
D03*
Y172721D02*
D03*
Y170161D02*
D03*
X234154Y177839D02*
D03*
Y175279D02*
D03*
Y172721D02*
D03*
Y170161D02*
D03*
X215846Y217839D02*
D03*
Y215280D02*
D03*
Y212720D02*
D03*
Y210161D02*
D03*
X234154Y217839D02*
D03*
Y215280D02*
D03*
Y212720D02*
D03*
Y210161D02*
D03*
D60*
X200500Y172630D02*
D03*
Y176370D02*
D03*
X207500D02*
D03*
Y172630D02*
D03*
X244000Y92130D02*
D03*
Y95870D02*
D03*
X207500Y96370D02*
D03*
Y92630D02*
D03*
X200500D02*
D03*
Y96370D02*
D03*
Y132630D02*
D03*
Y136370D02*
D03*
X207500D02*
D03*
Y132630D02*
D03*
X244000Y132130D02*
D03*
Y135870D02*
D03*
Y172130D02*
D03*
Y175870D02*
D03*
X207500Y216370D02*
D03*
Y212630D02*
D03*
X200500D02*
D03*
Y216370D02*
D03*
X244000Y212130D02*
D03*
Y215870D02*
D03*
X334150Y103130D02*
D03*
Y106870D02*
D03*
X335150Y160870D02*
D03*
Y157130D02*
D03*
X335000Y176260D02*
D03*
Y180000D02*
D03*
X334000Y233870D02*
D03*
Y230130D02*
D03*
D61*
X337150Y127673D02*
D03*
Y124327D02*
D03*
Y136327D02*
D03*
Y139673D02*
D03*
X337000Y200673D02*
D03*
Y197327D02*
D03*
Y209327D02*
D03*
Y212673D02*
D03*
D62*
X278713Y298500D02*
D03*
X275287D02*
D03*
X265287D02*
D03*
X268713D02*
D03*
D63*
X262543Y292000D02*
D03*
Y287000D02*
D03*
Y282000D02*
D03*
Y277000D02*
D03*
X284000Y292000D02*
D03*
Y287000D02*
D03*
Y282000D02*
D03*
Y277000D02*
D03*
D64*
X351600Y70100D02*
D03*
X371600D02*
D03*
X381600D02*
D03*
X391600D02*
D03*
X361600Y80100D02*
D03*
X381600D02*
D03*
X391600D02*
D03*
X361600Y70100D02*
D03*
X371600Y80100D02*
D03*
X401600Y70100D02*
D03*
Y80100D02*
D03*
X331800Y80000D02*
D03*
X311800D02*
D03*
X301800D02*
D03*
X321800Y70000D02*
D03*
X301800D02*
D03*
X321800Y80000D02*
D03*
X311800Y70000D02*
D03*
X271800D02*
D03*
X281800D02*
D03*
X291800D02*
D03*
D65*
X351600Y80100D02*
D03*
X331800Y70000D02*
D03*
X261800D02*
D03*
D66*
X122579Y269417D02*
D03*
X154579D02*
D03*
X186579D02*
D03*
X218579D02*
D03*
D67*
X132421D02*
D03*
X164421D02*
D03*
X196421D02*
D03*
X228421D02*
D03*
D68*
X36930Y228095D02*
D03*
Y239906D02*
D03*
X48741Y228095D02*
D03*
Y239906D02*
D03*
X36930Y264094D02*
D03*
Y275905D02*
D03*
X48741Y264094D02*
D03*
Y275905D02*
D03*
D69*
X38000Y92000D02*
D03*
Y103811D02*
D03*
D70*
X21071Y97905D02*
D03*
D71*
X401600Y260200D02*
D03*
Y250200D02*
D03*
X391600Y260200D02*
D03*
Y250200D02*
D03*
X381600Y260200D02*
D03*
Y250200D02*
D03*
X371600Y260200D02*
D03*
Y250200D02*
D03*
X361600Y260200D02*
D03*
Y250200D02*
D03*
X351600Y260200D02*
D03*
Y250200D02*
D03*
X341600Y260200D02*
D03*
Y250200D02*
D03*
X331600Y260200D02*
D03*
Y250200D02*
D03*
X315700Y260200D02*
D03*
Y250200D02*
D03*
X305700Y260200D02*
D03*
Y250200D02*
D03*
X295700Y260200D02*
D03*
Y250200D02*
D03*
X285700Y260200D02*
D03*
Y250200D02*
D03*
X275700Y260200D02*
D03*
Y250200D02*
D03*
X265700Y260200D02*
D03*
Y250200D02*
D03*
X255700Y260200D02*
D03*
Y250200D02*
D03*
X245700Y260200D02*
D03*
Y250200D02*
D03*
D72*
X72500Y80425D02*
D03*
Y83575D02*
D03*
M02*
