G04*
G04 #@! TF.GenerationSoftware,Altium Limited,Altium Designer,24.9.1 (31)*
G04*
G04 Layer_Color=16711935*
%FSLAX25Y25*%
%MOIN*%
G70*
G04*
G04 #@! TF.SameCoordinates,4BBB15B1-EA9B-4C66-A1CB-66718B52E77B*
G04*
G04*
G04 #@! TF.FilePolarity,Negative*
G04*
G01*
G75*
%ADD64C,0.06677*%
G04:AMPARAMS|DCode=65|XSize=66.77mil|YSize=66.77mil|CornerRadius=17.44mil|HoleSize=0mil|Usage=FLASHONLY|Rotation=0.000|XOffset=0mil|YOffset=0mil|HoleType=Round|Shape=RoundedRectangle|*
%AMROUNDEDRECTD65*
21,1,0.06677,0.03189,0,0,0.0*
21,1,0.03189,0.06677,0,0,0.0*
1,1,0.03488,0.01595,-0.01595*
1,1,0.03488,-0.01595,-0.01595*
1,1,0.03488,-0.01595,0.01595*
1,1,0.03488,0.01595,0.01595*
%
%ADD65ROUNDEDRECTD65*%
%ADD66C,0.05512*%
%ADD67R,0.05512X0.05512*%
%ADD68C,0.07000*%
%ADD69C,0.06400*%
%ADD70C,0.12000*%
%ADD71C,0.06300*%
%ADD72C,0.02851*%
D64*
X351600Y70100D02*
D03*
X371600D02*
D03*
X381600D02*
D03*
X391600D02*
D03*
X361600Y80100D02*
D03*
X381600D02*
D03*
X391600D02*
D03*
X361600Y70100D02*
D03*
X371600Y80100D02*
D03*
X401600Y70100D02*
D03*
Y80100D02*
D03*
X331800Y80000D02*
D03*
X311800D02*
D03*
X301800D02*
D03*
X321800Y70000D02*
D03*
X301800D02*
D03*
X321800Y80000D02*
D03*
X311800Y70000D02*
D03*
X271800D02*
D03*
X281800D02*
D03*
X291800D02*
D03*
D65*
X351600Y80100D02*
D03*
X331800Y70000D02*
D03*
X261800D02*
D03*
D66*
X122579Y269417D02*
D03*
X154579D02*
D03*
X186579D02*
D03*
X218579D02*
D03*
D67*
X132421D02*
D03*
X164421D02*
D03*
X196421D02*
D03*
X228421D02*
D03*
D68*
X36930Y228095D02*
D03*
Y239906D02*
D03*
X48741Y228095D02*
D03*
Y239906D02*
D03*
X36930Y264094D02*
D03*
Y275905D02*
D03*
X48741Y264094D02*
D03*
Y275905D02*
D03*
D69*
X38000Y92000D02*
D03*
Y103811D02*
D03*
D70*
X21071Y97905D02*
D03*
D71*
X401600Y260200D02*
D03*
Y250200D02*
D03*
X391600Y260200D02*
D03*
Y250200D02*
D03*
X381600Y260200D02*
D03*
Y250200D02*
D03*
X371600Y260200D02*
D03*
Y250200D02*
D03*
X361600Y260200D02*
D03*
Y250200D02*
D03*
X351600Y260200D02*
D03*
Y250200D02*
D03*
X341600Y260200D02*
D03*
Y250200D02*
D03*
X331600Y260200D02*
D03*
Y250200D02*
D03*
X315700Y260200D02*
D03*
Y250200D02*
D03*
X305700Y260200D02*
D03*
Y250200D02*
D03*
X295700Y260200D02*
D03*
Y250200D02*
D03*
X285700Y260200D02*
D03*
Y250200D02*
D03*
X275700Y260200D02*
D03*
Y250200D02*
D03*
X265700Y260200D02*
D03*
Y250200D02*
D03*
X255700Y260200D02*
D03*
Y250200D02*
D03*
X245700Y260200D02*
D03*
Y250200D02*
D03*
D72*
X72500Y80425D02*
D03*
Y83575D02*
D03*
M02*
