G04*
G04 #@! TF.GenerationSoftware,Altium Limited,Altium Designer,24.9.1 (31)*
G04*
G04 Layer_Physical_Order=4*
G04 Layer_Color=16711680*
%FSLAX25Y25*%
%MOIN*%
G70*
G04*
G04 #@! TF.SameCoordinates,4BBB15B1-EA9B-4C66-A1CB-66718B52E77B*
G04*
G04*
G04 #@! TF.FilePolarity,Positive*
G04*
G01*
G75*
%ADD17C,0.01000*%
%ADD66C,0.05512*%
%ADD67R,0.05512X0.05512*%
%ADD68C,0.07000*%
%ADD69C,0.06400*%
%ADD70C,0.12000*%
%ADD71C,0.06300*%
%ADD75C,0.00902*%
%ADD78C,0.06378*%
G04:AMPARAMS|DCode=79|XSize=63.78mil|YSize=63.78mil|CornerRadius=15.95mil|HoleSize=0mil|Usage=FLASHONLY|Rotation=0.000|XOffset=0mil|YOffset=0mil|HoleType=Round|Shape=RoundedRectangle|*
%AMROUNDEDRECTD79*
21,1,0.06378,0.03189,0,0,0.0*
21,1,0.03189,0.06378,0,0,0.0*
1,1,0.03189,0.01595,-0.01595*
1,1,0.03189,-0.01595,-0.01595*
1,1,0.03189,-0.01595,0.01595*
1,1,0.03189,0.01595,0.01595*
%
%ADD79ROUNDEDRECTD79*%
%ADD80C,0.03000*%
%ADD81C,0.02500*%
%ADD82C,0.02300*%
%ADD83C,0.02600*%
G36*
X394296Y305567D02*
X396589Y305111D01*
X398826Y304432D01*
X400986Y303537D01*
X403048Y302435D01*
X404992Y301136D01*
X406800Y299653D01*
X408453Y298000D01*
X409936Y296192D01*
X411235Y294248D01*
X412337Y292186D01*
X413232Y290026D01*
X413910Y287789D01*
X414367Y285496D01*
X414596Y283169D01*
Y282000D01*
Y191204D01*
X390800D01*
X390339Y191113D01*
X389949Y190851D01*
X389687Y190461D01*
X389596Y190000D01*
Y145000D01*
X389687Y144539D01*
X389949Y144149D01*
X390339Y143887D01*
X390800Y143796D01*
X414596D01*
Y65000D01*
Y63831D01*
X414367Y61504D01*
X413910Y59211D01*
X413232Y56974D01*
X412337Y54814D01*
X411235Y52752D01*
X409936Y50808D01*
X408453Y49000D01*
X406800Y47347D01*
X404992Y45864D01*
X403048Y44565D01*
X400986Y43463D01*
X398826Y42568D01*
X396589Y41890D01*
X394296Y41433D01*
X391969Y41204D01*
X23831D01*
X21504Y41433D01*
X19211Y41890D01*
X16974Y42568D01*
X14814Y43463D01*
X12752Y44565D01*
X10808Y45864D01*
X9001Y47347D01*
X7347Y49000D01*
X5864Y50808D01*
X4565Y52752D01*
X3463Y54814D01*
X2568Y56974D01*
X1890Y59211D01*
X1433Y61504D01*
X1204Y63831D01*
Y65000D01*
Y126796D01*
X82000D01*
X82000Y126796D01*
X82985D01*
X83101Y126819D01*
X83220D01*
X85152Y127203D01*
X85261Y127249D01*
X85378Y127272D01*
X87198Y128025D01*
X87296Y128091D01*
X87406Y128137D01*
X89044Y129231D01*
X89127Y129315D01*
X89226Y129381D01*
X90619Y130774D01*
X90685Y130872D01*
X90769Y130956D01*
X91863Y132594D01*
X91909Y132704D01*
X91974Y132802D01*
X92728Y134622D01*
X92751Y134739D01*
X92797Y134848D01*
X93181Y136780D01*
Y136899D01*
X93204Y137015D01*
Y138000D01*
X93204Y198000D01*
X93204Y198000D01*
X93204Y198985D01*
X93181Y199101D01*
Y199220D01*
X92797Y201152D01*
X92751Y201261D01*
X92728Y201378D01*
X91975Y203198D01*
X91909Y203296D01*
X91863Y203406D01*
X90769Y205044D01*
X90685Y205128D01*
X90619Y205226D01*
X89226Y206619D01*
X89127Y206685D01*
X89044Y206769D01*
X87406Y207863D01*
X87296Y207909D01*
X87198Y207974D01*
X85378Y208728D01*
X85261Y208751D01*
X85152Y208797D01*
X83220Y209181D01*
X83101D01*
X82985Y209204D01*
X82000Y209204D01*
X1204Y209204D01*
Y283000D01*
Y284120D01*
X1424Y286349D01*
X1861Y288546D01*
X2511Y290689D01*
X3368Y292758D01*
X4424Y294734D01*
X5668Y296596D01*
X7089Y298327D01*
X8673Y299911D01*
X10404Y301332D01*
X12267Y302576D01*
X14242Y303632D01*
X16311Y304489D01*
X18454Y305139D01*
X20651Y305576D01*
X22880Y305796D01*
X391969D01*
X394296Y305567D01*
D02*
G37*
%LPC*%
G36*
X272405Y300537D02*
X271595D01*
X270846Y300227D01*
X270273Y299654D01*
X269963Y298905D01*
Y298095D01*
X270273Y297346D01*
X270846Y296773D01*
X271595Y296463D01*
X272405D01*
X273154Y296773D01*
X273727Y297346D01*
X274037Y298095D01*
Y298905D01*
X273727Y299654D01*
X273154Y300227D01*
X272405Y300537D01*
D02*
G37*
G36*
X278405Y284037D02*
X277595D01*
X276846Y283727D01*
X276273Y283154D01*
X275963Y282405D01*
Y281595D01*
X276273Y280846D01*
X276846Y280273D01*
X277595Y279963D01*
X278405D01*
X279154Y280273D01*
X279727Y280846D01*
X280037Y281595D01*
Y282405D01*
X279727Y283154D01*
X279154Y283727D01*
X278405Y284037D01*
D02*
G37*
G36*
X248405Y279037D02*
X247595D01*
X246846Y278727D01*
X246273Y278154D01*
X245963Y277405D01*
Y276595D01*
X246273Y275846D01*
X246846Y275273D01*
X247595Y274963D01*
X248405D01*
X249154Y275273D01*
X249727Y275846D01*
X250037Y276595D01*
Y277405D01*
X249727Y278154D01*
X249154Y278727D01*
X248405Y279037D01*
D02*
G37*
G36*
X49305Y280193D02*
X48176D01*
X47086Y279901D01*
X46108Y279336D01*
X45310Y278538D01*
X44745Y277560D01*
X44453Y276470D01*
Y275341D01*
X44745Y274251D01*
X45310Y273273D01*
X46108Y272475D01*
X47086Y271910D01*
X48176Y271618D01*
X49305D01*
X50395Y271910D01*
X51373Y272475D01*
X52171Y273273D01*
X52736Y274251D01*
X53028Y275341D01*
Y276470D01*
X52736Y277560D01*
X52171Y278538D01*
X51373Y279336D01*
X50395Y279901D01*
X49305Y280193D01*
D02*
G37*
G36*
X37494D02*
X36365D01*
X35275Y279901D01*
X34297Y279336D01*
X33499Y278538D01*
X32934Y277560D01*
X32642Y276470D01*
Y275341D01*
X32934Y274251D01*
X33499Y273273D01*
X34297Y272475D01*
X35275Y271910D01*
X36365Y271618D01*
X37494D01*
X38584Y271910D01*
X39562Y272475D01*
X40360Y273273D01*
X40925Y274251D01*
X41217Y275341D01*
Y276470D01*
X40925Y277560D01*
X40360Y278538D01*
X39562Y279336D01*
X38584Y279901D01*
X37494Y280193D01*
D02*
G37*
G36*
X231965Y272961D02*
X224878D01*
Y265874D01*
X231965D01*
Y272961D01*
D02*
G37*
G36*
X219045D02*
X218112D01*
X217211Y272719D01*
X216403Y272253D01*
X215743Y271593D01*
X215277Y270785D01*
X215035Y269884D01*
Y268951D01*
X215277Y268050D01*
X215743Y267242D01*
X216403Y266582D01*
X217211Y266115D01*
X218112Y265874D01*
X219045D01*
X219946Y266115D01*
X220754Y266582D01*
X221414Y267242D01*
X221881Y268050D01*
X222122Y268951D01*
Y269884D01*
X221881Y270785D01*
X221414Y271593D01*
X220754Y272253D01*
X219946Y272719D01*
X219045Y272961D01*
D02*
G37*
G36*
X199965D02*
X192878D01*
Y265874D01*
X199965D01*
Y272961D01*
D02*
G37*
G36*
X187045D02*
X186112D01*
X185211Y272719D01*
X184403Y272253D01*
X183743Y271593D01*
X183277Y270785D01*
X183035Y269884D01*
Y268951D01*
X183277Y268050D01*
X183743Y267242D01*
X184403Y266582D01*
X185211Y266115D01*
X186112Y265874D01*
X187045D01*
X187946Y266115D01*
X188754Y266582D01*
X189414Y267242D01*
X189881Y268050D01*
X190122Y268951D01*
Y269884D01*
X189881Y270785D01*
X189414Y271593D01*
X188754Y272253D01*
X187946Y272719D01*
X187045Y272961D01*
D02*
G37*
G36*
X167965D02*
X160878D01*
Y265874D01*
X167965D01*
Y272961D01*
D02*
G37*
G36*
X155045D02*
X154112D01*
X153211Y272719D01*
X152403Y272253D01*
X151743Y271593D01*
X151277Y270785D01*
X151035Y269884D01*
Y268951D01*
X151277Y268050D01*
X151743Y267242D01*
X152403Y266582D01*
X153211Y266115D01*
X154112Y265874D01*
X155045D01*
X155946Y266115D01*
X156754Y266582D01*
X157414Y267242D01*
X157881Y268050D01*
X158122Y268951D01*
Y269884D01*
X157881Y270785D01*
X157414Y271593D01*
X156754Y272253D01*
X155946Y272719D01*
X155045Y272961D01*
D02*
G37*
G36*
X135965D02*
X128878D01*
Y265874D01*
X135965D01*
Y272961D01*
D02*
G37*
G36*
X123045D02*
X122112D01*
X121211Y272719D01*
X120403Y272253D01*
X119743Y271593D01*
X119277Y270785D01*
X119035Y269884D01*
Y268951D01*
X119277Y268050D01*
X119743Y267242D01*
X120403Y266582D01*
X121211Y266115D01*
X122112Y265874D01*
X123045D01*
X123946Y266115D01*
X124754Y266582D01*
X125414Y267242D01*
X125881Y268050D01*
X126122Y268951D01*
Y269884D01*
X125881Y270785D01*
X125414Y271593D01*
X124754Y272253D01*
X123946Y272719D01*
X123045Y272961D01*
D02*
G37*
G36*
X20689Y277000D02*
X19311D01*
X17958Y276731D01*
X16684Y276203D01*
X15538Y275437D01*
X14563Y274462D01*
X13797Y273316D01*
X13269Y272042D01*
X13000Y270689D01*
Y269311D01*
X13269Y267958D01*
X13797Y266684D01*
X14563Y265538D01*
X15538Y264563D01*
X16684Y263797D01*
X17958Y263269D01*
X19311Y263000D01*
X20689D01*
X22042Y263269D01*
X23316Y263797D01*
X24462Y264563D01*
X25437Y265538D01*
X26203Y266684D01*
X26731Y267958D01*
X27000Y269311D01*
Y270689D01*
X26731Y272042D01*
X26203Y273316D01*
X25437Y274462D01*
X24462Y275437D01*
X23316Y276203D01*
X22042Y276731D01*
X20689Y277000D01*
D02*
G37*
G36*
X49305Y268382D02*
X48176D01*
X47086Y268090D01*
X46108Y267525D01*
X45310Y266727D01*
X44745Y265749D01*
X44453Y264659D01*
Y263530D01*
X44745Y262440D01*
X45310Y261462D01*
X46108Y260664D01*
X47086Y260099D01*
X48176Y259807D01*
X49305D01*
X50395Y260099D01*
X51373Y260664D01*
X52171Y261462D01*
X52736Y262440D01*
X53028Y263530D01*
Y264659D01*
X52736Y265749D01*
X52171Y266727D01*
X51373Y267525D01*
X50395Y268090D01*
X49305Y268382D01*
D02*
G37*
G36*
X37494D02*
X36365D01*
X35275Y268090D01*
X34297Y267525D01*
X33499Y266727D01*
X32934Y265749D01*
X32642Y264659D01*
Y263530D01*
X32934Y262440D01*
X33499Y261462D01*
X34297Y260664D01*
X35275Y260099D01*
X36365Y259807D01*
X37494D01*
X38584Y260099D01*
X39562Y260664D01*
X40360Y261462D01*
X40925Y262440D01*
X41217Y263530D01*
Y264659D01*
X40925Y265749D01*
X40360Y266727D01*
X39562Y267525D01*
X38584Y268090D01*
X37494Y268382D01*
D02*
G37*
G36*
X402118Y264137D02*
X401082D01*
X400080Y263869D01*
X399182Y263351D01*
X398449Y262618D01*
X397931Y261720D01*
X397663Y260718D01*
Y259682D01*
X397931Y258680D01*
X398449Y257782D01*
X399182Y257049D01*
X400080Y256531D01*
X401082Y256263D01*
X402118D01*
X403120Y256531D01*
X404018Y257049D01*
X404751Y257782D01*
X405269Y258680D01*
X405537Y259682D01*
Y260718D01*
X405269Y261720D01*
X404751Y262618D01*
X404018Y263351D01*
X403120Y263869D01*
X402118Y264137D01*
D02*
G37*
G36*
X392118D02*
X391082D01*
X390080Y263869D01*
X389182Y263351D01*
X388449Y262618D01*
X387931Y261720D01*
X387663Y260718D01*
Y259682D01*
X387931Y258680D01*
X388449Y257782D01*
X389182Y257049D01*
X390080Y256531D01*
X391082Y256263D01*
X392118D01*
X393120Y256531D01*
X394018Y257049D01*
X394751Y257782D01*
X395269Y258680D01*
X395537Y259682D01*
Y260718D01*
X395269Y261720D01*
X394751Y262618D01*
X394018Y263351D01*
X393120Y263869D01*
X392118Y264137D01*
D02*
G37*
G36*
X382118D02*
X381082D01*
X380080Y263869D01*
X379182Y263351D01*
X378449Y262618D01*
X377931Y261720D01*
X377663Y260718D01*
Y259682D01*
X377931Y258680D01*
X378449Y257782D01*
X379182Y257049D01*
X380080Y256531D01*
X381082Y256263D01*
X382118D01*
X383120Y256531D01*
X384018Y257049D01*
X384751Y257782D01*
X385269Y258680D01*
X385537Y259682D01*
Y260718D01*
X385269Y261720D01*
X384751Y262618D01*
X384018Y263351D01*
X383120Y263869D01*
X382118Y264137D01*
D02*
G37*
G36*
X372118D02*
X371082D01*
X370080Y263869D01*
X369182Y263351D01*
X368449Y262618D01*
X367931Y261720D01*
X367663Y260718D01*
Y259682D01*
X367931Y258680D01*
X368449Y257782D01*
X369182Y257049D01*
X370080Y256531D01*
X371082Y256263D01*
X372118D01*
X373120Y256531D01*
X374018Y257049D01*
X374751Y257782D01*
X375269Y258680D01*
X375537Y259682D01*
Y260718D01*
X375269Y261720D01*
X374751Y262618D01*
X374018Y263351D01*
X373120Y263869D01*
X372118Y264137D01*
D02*
G37*
G36*
X362118D02*
X361082D01*
X360080Y263869D01*
X359182Y263351D01*
X358449Y262618D01*
X357931Y261720D01*
X357663Y260718D01*
Y259682D01*
X357931Y258680D01*
X358449Y257782D01*
X359182Y257049D01*
X360080Y256531D01*
X361082Y256263D01*
X362118D01*
X363120Y256531D01*
X364018Y257049D01*
X364751Y257782D01*
X365269Y258680D01*
X365537Y259682D01*
Y260718D01*
X365269Y261720D01*
X364751Y262618D01*
X364018Y263351D01*
X363120Y263869D01*
X362118Y264137D01*
D02*
G37*
G36*
X352118D02*
X351082D01*
X350080Y263869D01*
X349182Y263351D01*
X348449Y262618D01*
X347931Y261720D01*
X347663Y260718D01*
Y259682D01*
X347931Y258680D01*
X348449Y257782D01*
X349182Y257049D01*
X350080Y256531D01*
X351082Y256263D01*
X352118D01*
X353120Y256531D01*
X354018Y257049D01*
X354751Y257782D01*
X355269Y258680D01*
X355537Y259682D01*
Y260718D01*
X355269Y261720D01*
X354751Y262618D01*
X354018Y263351D01*
X353120Y263869D01*
X352118Y264137D01*
D02*
G37*
G36*
X342118D02*
X341082D01*
X340080Y263869D01*
X339182Y263351D01*
X338449Y262618D01*
X337931Y261720D01*
X337663Y260718D01*
Y259682D01*
X337931Y258680D01*
X338449Y257782D01*
X339182Y257049D01*
X340080Y256531D01*
X341082Y256263D01*
X342118D01*
X343120Y256531D01*
X344018Y257049D01*
X344751Y257782D01*
X345269Y258680D01*
X345537Y259682D01*
Y260718D01*
X345269Y261720D01*
X344751Y262618D01*
X344018Y263351D01*
X343120Y263869D01*
X342118Y264137D01*
D02*
G37*
G36*
X332118D02*
X331082D01*
X330080Y263869D01*
X329182Y263351D01*
X328449Y262618D01*
X327931Y261720D01*
X327663Y260718D01*
Y259682D01*
X327931Y258680D01*
X328449Y257782D01*
X329182Y257049D01*
X330080Y256531D01*
X331082Y256263D01*
X332118D01*
X333120Y256531D01*
X334018Y257049D01*
X334751Y257782D01*
X335269Y258680D01*
X335537Y259682D01*
Y260718D01*
X335269Y261720D01*
X334751Y262618D01*
X334018Y263351D01*
X333120Y263869D01*
X332118Y264137D01*
D02*
G37*
G36*
X316218D02*
X315182D01*
X314180Y263869D01*
X313282Y263351D01*
X312549Y262618D01*
X312031Y261720D01*
X311763Y260718D01*
Y259682D01*
X312031Y258680D01*
X312549Y257782D01*
X313282Y257049D01*
X314180Y256531D01*
X315182Y256263D01*
X316218D01*
X317220Y256531D01*
X318118Y257049D01*
X318851Y257782D01*
X319369Y258680D01*
X319637Y259682D01*
Y260718D01*
X319369Y261720D01*
X318851Y262618D01*
X318118Y263351D01*
X317220Y263869D01*
X316218Y264137D01*
D02*
G37*
G36*
X306218D02*
X305182D01*
X304180Y263869D01*
X303282Y263351D01*
X302549Y262618D01*
X302031Y261720D01*
X301763Y260718D01*
Y259682D01*
X302031Y258680D01*
X302549Y257782D01*
X303282Y257049D01*
X304180Y256531D01*
X305182Y256263D01*
X306218D01*
X307220Y256531D01*
X308118Y257049D01*
X308851Y257782D01*
X309369Y258680D01*
X309637Y259682D01*
Y260718D01*
X309369Y261720D01*
X308851Y262618D01*
X308118Y263351D01*
X307220Y263869D01*
X306218Y264137D01*
D02*
G37*
G36*
X296218D02*
X295182D01*
X294180Y263869D01*
X293282Y263351D01*
X292549Y262618D01*
X292031Y261720D01*
X291763Y260718D01*
Y259682D01*
X292031Y258680D01*
X292549Y257782D01*
X293282Y257049D01*
X294180Y256531D01*
X295182Y256263D01*
X296218D01*
X297220Y256531D01*
X298118Y257049D01*
X298851Y257782D01*
X299369Y258680D01*
X299637Y259682D01*
Y260718D01*
X299369Y261720D01*
X298851Y262618D01*
X298118Y263351D01*
X297220Y263869D01*
X296218Y264137D01*
D02*
G37*
G36*
X286218D02*
X285182D01*
X284180Y263869D01*
X283282Y263351D01*
X282549Y262618D01*
X282031Y261720D01*
X281763Y260718D01*
Y259682D01*
X282031Y258680D01*
X282549Y257782D01*
X283282Y257049D01*
X284180Y256531D01*
X285182Y256263D01*
X286218D01*
X287220Y256531D01*
X288118Y257049D01*
X288851Y257782D01*
X289369Y258680D01*
X289637Y259682D01*
Y260718D01*
X289369Y261720D01*
X288851Y262618D01*
X288118Y263351D01*
X287220Y263869D01*
X286218Y264137D01*
D02*
G37*
G36*
X276218D02*
X275182D01*
X274180Y263869D01*
X273282Y263351D01*
X272549Y262618D01*
X272031Y261720D01*
X271763Y260718D01*
Y259682D01*
X272031Y258680D01*
X272549Y257782D01*
X273282Y257049D01*
X274180Y256531D01*
X275182Y256263D01*
X276218D01*
X277220Y256531D01*
X278118Y257049D01*
X278851Y257782D01*
X279369Y258680D01*
X279637Y259682D01*
Y260718D01*
X279369Y261720D01*
X278851Y262618D01*
X278118Y263351D01*
X277220Y263869D01*
X276218Y264137D01*
D02*
G37*
G36*
X266218D02*
X265182D01*
X264180Y263869D01*
X263282Y263351D01*
X262549Y262618D01*
X262031Y261720D01*
X261763Y260718D01*
Y259682D01*
X262031Y258680D01*
X262549Y257782D01*
X263282Y257049D01*
X264180Y256531D01*
X265182Y256263D01*
X266218D01*
X267220Y256531D01*
X268118Y257049D01*
X268851Y257782D01*
X269369Y258680D01*
X269637Y259682D01*
Y260718D01*
X269369Y261720D01*
X268851Y262618D01*
X268118Y263351D01*
X267220Y263869D01*
X266218Y264137D01*
D02*
G37*
G36*
X256218D02*
X255182D01*
X254180Y263869D01*
X253282Y263351D01*
X252549Y262618D01*
X252031Y261720D01*
X251763Y260718D01*
Y259682D01*
X252031Y258680D01*
X252549Y257782D01*
X253282Y257049D01*
X254180Y256531D01*
X255182Y256263D01*
X256218D01*
X257220Y256531D01*
X258118Y257049D01*
X258851Y257782D01*
X259369Y258680D01*
X259637Y259682D01*
Y260718D01*
X259369Y261720D01*
X258851Y262618D01*
X258118Y263351D01*
X257220Y263869D01*
X256218Y264137D01*
D02*
G37*
G36*
X246218D02*
X245182D01*
X244180Y263869D01*
X243282Y263351D01*
X242549Y262618D01*
X242031Y261720D01*
X241763Y260718D01*
Y259682D01*
X242031Y258680D01*
X242549Y257782D01*
X243282Y257049D01*
X244180Y256531D01*
X245182Y256263D01*
X246218D01*
X247220Y256531D01*
X248118Y257049D01*
X248851Y257782D01*
X249369Y258680D01*
X249637Y259682D01*
Y260718D01*
X249369Y261720D01*
X248851Y262618D01*
X248118Y263351D01*
X247220Y263869D01*
X246218Y264137D01*
D02*
G37*
G36*
X225480Y254022D02*
X224650D01*
X223883Y253705D01*
X223295Y253117D01*
X222978Y252350D01*
Y251520D01*
X223295Y250753D01*
X223883Y250165D01*
X224650Y249848D01*
X225480D01*
X226247Y250165D01*
X226835Y250753D01*
X227152Y251520D01*
Y252350D01*
X226835Y253117D01*
X226247Y253705D01*
X225480Y254022D01*
D02*
G37*
G36*
X192980D02*
X192150D01*
X191383Y253705D01*
X190795Y253117D01*
X190478Y252350D01*
Y251520D01*
X190795Y250753D01*
X191383Y250165D01*
X192150Y249848D01*
X192980D01*
X193747Y250165D01*
X194335Y250753D01*
X194652Y251520D01*
Y252350D01*
X194335Y253117D01*
X193747Y253705D01*
X192980Y254022D01*
D02*
G37*
G36*
X160980D02*
X160150D01*
X159382Y253705D01*
X158795Y253117D01*
X158478Y252350D01*
Y251520D01*
X158795Y250753D01*
X159382Y250165D01*
X160150Y249848D01*
X160980D01*
X161747Y250165D01*
X162335Y250753D01*
X162652Y251520D01*
Y252350D01*
X162335Y253117D01*
X161747Y253705D01*
X160980Y254022D01*
D02*
G37*
G36*
X128980D02*
X128150D01*
X127383Y253705D01*
X126795Y253117D01*
X126478Y252350D01*
Y251520D01*
X126795Y250753D01*
X127383Y250165D01*
X128150Y249848D01*
X128980D01*
X129747Y250165D01*
X130335Y250753D01*
X130652Y251520D01*
Y252350D01*
X130335Y253117D01*
X129747Y253705D01*
X128980Y254022D01*
D02*
G37*
G36*
X402118Y254137D02*
X401082D01*
X400080Y253869D01*
X399182Y253351D01*
X398449Y252618D01*
X397931Y251720D01*
X397663Y250718D01*
Y249682D01*
X397931Y248680D01*
X398449Y247782D01*
X399182Y247049D01*
X400080Y246531D01*
X401082Y246263D01*
X402118D01*
X403120Y246531D01*
X404018Y247049D01*
X404751Y247782D01*
X405269Y248680D01*
X405537Y249682D01*
Y250718D01*
X405269Y251720D01*
X404751Y252618D01*
X404018Y253351D01*
X403120Y253869D01*
X402118Y254137D01*
D02*
G37*
G36*
X392118D02*
X391082D01*
X390080Y253869D01*
X389182Y253351D01*
X388449Y252618D01*
X387931Y251720D01*
X387663Y250718D01*
Y249682D01*
X387931Y248680D01*
X388449Y247782D01*
X389182Y247049D01*
X390080Y246531D01*
X391082Y246263D01*
X392118D01*
X393120Y246531D01*
X394018Y247049D01*
X394751Y247782D01*
X395269Y248680D01*
X395537Y249682D01*
Y250718D01*
X395269Y251720D01*
X394751Y252618D01*
X394018Y253351D01*
X393120Y253869D01*
X392118Y254137D01*
D02*
G37*
G36*
X382118D02*
X381082D01*
X380080Y253869D01*
X379182Y253351D01*
X378449Y252618D01*
X377931Y251720D01*
X377663Y250718D01*
Y249682D01*
X377931Y248680D01*
X378449Y247782D01*
X379182Y247049D01*
X380080Y246531D01*
X381082Y246263D01*
X382118D01*
X383120Y246531D01*
X384018Y247049D01*
X384751Y247782D01*
X385269Y248680D01*
X385537Y249682D01*
Y250718D01*
X385269Y251720D01*
X384751Y252618D01*
X384018Y253351D01*
X383120Y253869D01*
X382118Y254137D01*
D02*
G37*
G36*
X372118D02*
X371082D01*
X370080Y253869D01*
X369182Y253351D01*
X368449Y252618D01*
X367931Y251720D01*
X367663Y250718D01*
Y249682D01*
X367931Y248680D01*
X368449Y247782D01*
X369182Y247049D01*
X370080Y246531D01*
X371082Y246263D01*
X372118D01*
X373120Y246531D01*
X374018Y247049D01*
X374751Y247782D01*
X375269Y248680D01*
X375537Y249682D01*
Y250718D01*
X375269Y251720D01*
X374751Y252618D01*
X374018Y253351D01*
X373120Y253869D01*
X372118Y254137D01*
D02*
G37*
G36*
X362118D02*
X361082D01*
X360080Y253869D01*
X359182Y253351D01*
X358449Y252618D01*
X357931Y251720D01*
X357663Y250718D01*
Y249682D01*
X357931Y248680D01*
X358449Y247782D01*
X359182Y247049D01*
X360080Y246531D01*
X361082Y246263D01*
X362118D01*
X363120Y246531D01*
X364018Y247049D01*
X364751Y247782D01*
X365269Y248680D01*
X365537Y249682D01*
Y250718D01*
X365269Y251720D01*
X364751Y252618D01*
X364018Y253351D01*
X363120Y253869D01*
X362118Y254137D01*
D02*
G37*
G36*
X352118D02*
X351082D01*
X350080Y253869D01*
X349182Y253351D01*
X348449Y252618D01*
X347931Y251720D01*
X347663Y250718D01*
Y249682D01*
X347931Y248680D01*
X348449Y247782D01*
X349182Y247049D01*
X350080Y246531D01*
X351082Y246263D01*
X352118D01*
X353120Y246531D01*
X354018Y247049D01*
X354751Y247782D01*
X355269Y248680D01*
X355537Y249682D01*
Y250718D01*
X355269Y251720D01*
X354751Y252618D01*
X354018Y253351D01*
X353120Y253869D01*
X352118Y254137D01*
D02*
G37*
G36*
X342118D02*
X341082D01*
X340080Y253869D01*
X339182Y253351D01*
X338449Y252618D01*
X337931Y251720D01*
X337663Y250718D01*
Y249682D01*
X337931Y248680D01*
X338449Y247782D01*
X339182Y247049D01*
X340080Y246531D01*
X341082Y246263D01*
X342118D01*
X343120Y246531D01*
X344018Y247049D01*
X344751Y247782D01*
X345269Y248680D01*
X345537Y249682D01*
Y250718D01*
X345269Y251720D01*
X344751Y252618D01*
X344018Y253351D01*
X343120Y253869D01*
X342118Y254137D01*
D02*
G37*
G36*
X332118D02*
X331082D01*
X330080Y253869D01*
X329182Y253351D01*
X328449Y252618D01*
X327931Y251720D01*
X327663Y250718D01*
Y249682D01*
X327931Y248680D01*
X328449Y247782D01*
X329182Y247049D01*
X330080Y246531D01*
X331082Y246263D01*
X332118D01*
X333120Y246531D01*
X334018Y247049D01*
X334751Y247782D01*
X335269Y248680D01*
X335537Y249682D01*
Y250718D01*
X335269Y251720D01*
X334751Y252618D01*
X334018Y253351D01*
X333120Y253869D01*
X332118Y254137D01*
D02*
G37*
G36*
X316218D02*
X315182D01*
X314180Y253869D01*
X313282Y253351D01*
X312549Y252618D01*
X312031Y251720D01*
X311763Y250718D01*
Y249682D01*
X312031Y248680D01*
X312549Y247782D01*
X313282Y247049D01*
X314180Y246531D01*
X315182Y246263D01*
X316218D01*
X317220Y246531D01*
X318118Y247049D01*
X318851Y247782D01*
X319369Y248680D01*
X319637Y249682D01*
Y250718D01*
X319369Y251720D01*
X318851Y252618D01*
X318118Y253351D01*
X317220Y253869D01*
X316218Y254137D01*
D02*
G37*
G36*
X306218D02*
X305182D01*
X304180Y253869D01*
X303282Y253351D01*
X302549Y252618D01*
X302031Y251720D01*
X301763Y250718D01*
Y249682D01*
X302031Y248680D01*
X302549Y247782D01*
X303282Y247049D01*
X304180Y246531D01*
X305182Y246263D01*
X306218D01*
X307220Y246531D01*
X308118Y247049D01*
X308851Y247782D01*
X309369Y248680D01*
X309637Y249682D01*
Y250718D01*
X309369Y251720D01*
X308851Y252618D01*
X308118Y253351D01*
X307220Y253869D01*
X306218Y254137D01*
D02*
G37*
G36*
X296218D02*
X295182D01*
X294180Y253869D01*
X293282Y253351D01*
X292549Y252618D01*
X292031Y251720D01*
X291763Y250718D01*
Y249682D01*
X292031Y248680D01*
X292549Y247782D01*
X293282Y247049D01*
X294180Y246531D01*
X295182Y246263D01*
X296218D01*
X297220Y246531D01*
X298118Y247049D01*
X298851Y247782D01*
X299369Y248680D01*
X299637Y249682D01*
Y250718D01*
X299369Y251720D01*
X298851Y252618D01*
X298118Y253351D01*
X297220Y253869D01*
X296218Y254137D01*
D02*
G37*
G36*
X286218D02*
X285182D01*
X284180Y253869D01*
X283282Y253351D01*
X282549Y252618D01*
X282031Y251720D01*
X281763Y250718D01*
Y249682D01*
X282031Y248680D01*
X282549Y247782D01*
X283282Y247049D01*
X284180Y246531D01*
X285182Y246263D01*
X286218D01*
X287220Y246531D01*
X288118Y247049D01*
X288851Y247782D01*
X289369Y248680D01*
X289637Y249682D01*
Y250718D01*
X289369Y251720D01*
X288851Y252618D01*
X288118Y253351D01*
X287220Y253869D01*
X286218Y254137D01*
D02*
G37*
G36*
X276218D02*
X275182D01*
X274180Y253869D01*
X273282Y253351D01*
X272549Y252618D01*
X272031Y251720D01*
X271763Y250718D01*
Y249682D01*
X272031Y248680D01*
X272549Y247782D01*
X273282Y247049D01*
X274180Y246531D01*
X275182Y246263D01*
X276218D01*
X277220Y246531D01*
X278118Y247049D01*
X278851Y247782D01*
X279369Y248680D01*
X279637Y249682D01*
Y250718D01*
X279369Y251720D01*
X278851Y252618D01*
X278118Y253351D01*
X277220Y253869D01*
X276218Y254137D01*
D02*
G37*
G36*
X266218D02*
X265182D01*
X264180Y253869D01*
X263282Y253351D01*
X262549Y252618D01*
X262031Y251720D01*
X261763Y250718D01*
Y249682D01*
X262031Y248680D01*
X262549Y247782D01*
X263282Y247049D01*
X264180Y246531D01*
X265182Y246263D01*
X266218D01*
X267220Y246531D01*
X268118Y247049D01*
X268851Y247782D01*
X269369Y248680D01*
X269637Y249682D01*
Y250718D01*
X269369Y251720D01*
X268851Y252618D01*
X268118Y253351D01*
X267220Y253869D01*
X266218Y254137D01*
D02*
G37*
G36*
X256218D02*
X255182D01*
X254180Y253869D01*
X253282Y253351D01*
X252549Y252618D01*
X252031Y251720D01*
X251763Y250718D01*
Y249682D01*
X252031Y248680D01*
X252549Y247782D01*
X253282Y247049D01*
X254180Y246531D01*
X255182Y246263D01*
X256218D01*
X257220Y246531D01*
X258118Y247049D01*
X258851Y247782D01*
X259369Y248680D01*
X259637Y249682D01*
Y250718D01*
X259369Y251720D01*
X258851Y252618D01*
X258118Y253351D01*
X257220Y253869D01*
X256218Y254137D01*
D02*
G37*
G36*
X246218D02*
X245182D01*
X244180Y253869D01*
X243282Y253351D01*
X242549Y252618D01*
X242031Y251720D01*
X241763Y250718D01*
Y249682D01*
X242031Y248680D01*
X242549Y247782D01*
X243282Y247049D01*
X244180Y246531D01*
X245182Y246263D01*
X246218D01*
X247220Y246531D01*
X248118Y247049D01*
X248851Y247782D01*
X249369Y248680D01*
X249637Y249682D01*
Y250718D01*
X249369Y251720D01*
X248851Y252618D01*
X248118Y253351D01*
X247220Y253869D01*
X246218Y254137D01*
D02*
G37*
G36*
X49305Y244193D02*
X48176D01*
X47086Y243901D01*
X46108Y243336D01*
X45310Y242538D01*
X44745Y241560D01*
X44453Y240470D01*
Y239341D01*
X44745Y238251D01*
X45310Y237273D01*
X46108Y236475D01*
X47086Y235910D01*
X48176Y235618D01*
X49305D01*
X50395Y235910D01*
X51373Y236475D01*
X52171Y237273D01*
X52736Y238251D01*
X53028Y239341D01*
Y240470D01*
X52736Y241560D01*
X52171Y242538D01*
X51373Y243336D01*
X50395Y243901D01*
X49305Y244193D01*
D02*
G37*
G36*
X37494D02*
X36365D01*
X35275Y243901D01*
X34297Y243336D01*
X33499Y242538D01*
X32934Y241560D01*
X32642Y240470D01*
Y239341D01*
X32934Y238251D01*
X33499Y237273D01*
X34297Y236475D01*
X35275Y235910D01*
X36365Y235618D01*
X37494D01*
X38584Y235910D01*
X39562Y236475D01*
X40360Y237273D01*
X40925Y238251D01*
X41217Y239341D01*
Y240470D01*
X40925Y241560D01*
X40360Y242538D01*
X39562Y243336D01*
X38584Y243901D01*
X37494Y244193D01*
D02*
G37*
G36*
X241405Y236537D02*
X240595D01*
X239846Y236227D01*
X239273Y235654D01*
X238963Y234905D01*
Y234095D01*
X239273Y233346D01*
X239846Y232773D01*
X240595Y232463D01*
X241405D01*
X242154Y232773D01*
X242727Y233346D01*
X243037Y234095D01*
Y234905D01*
X242727Y235654D01*
X242154Y236227D01*
X241405Y236537D01*
D02*
G37*
G36*
X229405Y233037D02*
X228595D01*
X227846Y232727D01*
X227273Y232154D01*
X226963Y231405D01*
Y230595D01*
X227273Y229846D01*
X227846Y229273D01*
X228595Y228963D01*
X229405D01*
X230154Y229273D01*
X230727Y229846D01*
X231037Y230595D01*
Y231405D01*
X230727Y232154D01*
X230154Y232727D01*
X229405Y233037D01*
D02*
G37*
G36*
X329405Y232037D02*
X328595D01*
X327846Y231727D01*
X327273Y231154D01*
X326963Y230405D01*
Y229595D01*
X327273Y228846D01*
X327846Y228273D01*
X328595Y227963D01*
X329405D01*
X330154Y228273D01*
X330727Y228846D01*
X331037Y229595D01*
Y230405D01*
X330727Y231154D01*
X330154Y231727D01*
X329405Y232037D01*
D02*
G37*
G36*
X20689Y241000D02*
X19311D01*
X17958Y240731D01*
X16684Y240203D01*
X15538Y239437D01*
X14563Y238462D01*
X13797Y237316D01*
X13269Y236042D01*
X13000Y234689D01*
Y233311D01*
X13269Y231958D01*
X13797Y230684D01*
X14563Y229538D01*
X15538Y228563D01*
X16684Y227797D01*
X17958Y227269D01*
X19311Y227000D01*
X20689D01*
X22042Y227269D01*
X23316Y227797D01*
X24462Y228563D01*
X25437Y229538D01*
X26203Y230684D01*
X26731Y231958D01*
X27000Y233311D01*
Y234689D01*
X26731Y236042D01*
X26203Y237316D01*
X25437Y238462D01*
X24462Y239437D01*
X23316Y240203D01*
X22042Y240731D01*
X20689Y241000D01*
D02*
G37*
G36*
X49305Y232382D02*
X48176D01*
X47086Y232090D01*
X46108Y231525D01*
X45310Y230727D01*
X44745Y229749D01*
X44453Y228659D01*
Y227530D01*
X44745Y226440D01*
X45310Y225462D01*
X46108Y224664D01*
X47086Y224099D01*
X48176Y223807D01*
X49305D01*
X50395Y224099D01*
X51373Y224664D01*
X52171Y225462D01*
X52736Y226440D01*
X53028Y227530D01*
Y228659D01*
X52736Y229749D01*
X52171Y230727D01*
X51373Y231525D01*
X50395Y232090D01*
X49305Y232382D01*
D02*
G37*
G36*
X37494D02*
X36365D01*
X35275Y232090D01*
X34297Y231525D01*
X33499Y230727D01*
X32934Y229749D01*
X32642Y228659D01*
Y227530D01*
X32934Y226440D01*
X33499Y225462D01*
X34297Y224664D01*
X35275Y224099D01*
X36365Y223807D01*
X37494D01*
X38584Y224099D01*
X39562Y224664D01*
X40360Y225462D01*
X40925Y226440D01*
X41217Y227530D01*
Y228659D01*
X40925Y229749D01*
X40360Y230727D01*
X39562Y231525D01*
X38584Y232090D01*
X37494Y232382D01*
D02*
G37*
G36*
X365350Y226537D02*
X364540D01*
X363791Y226227D01*
X363218Y225654D01*
X362908Y224905D01*
Y224095D01*
X363218Y223346D01*
X363791Y222773D01*
X364540Y222463D01*
X365350D01*
X366099Y222773D01*
X366672Y223346D01*
X366982Y224095D01*
Y224905D01*
X366672Y225654D01*
X366099Y226227D01*
X365350Y226537D01*
D02*
G37*
G36*
X200905Y223037D02*
X200095D01*
X199346Y222727D01*
X198773Y222154D01*
X198463Y221405D01*
Y220595D01*
X198773Y219846D01*
X199346Y219273D01*
X200095Y218963D01*
X200905D01*
X201654Y219273D01*
X202227Y219846D01*
X202537Y220595D01*
Y221405D01*
X202227Y222154D01*
X201654Y222727D01*
X200905Y223037D01*
D02*
G37*
G36*
X330405Y218037D02*
X329595D01*
X328846Y217727D01*
X328273Y217154D01*
X327963Y216405D01*
Y215595D01*
X328273Y214846D01*
X328846Y214273D01*
X329595Y213963D01*
X330405D01*
X331154Y214273D01*
X331727Y214846D01*
X332037Y215595D01*
Y216405D01*
X331727Y217154D01*
X331154Y217727D01*
X330405Y218037D01*
D02*
G37*
G36*
X116000Y258704D02*
X102000D01*
X101539Y258613D01*
X101148Y258351D01*
X100887Y257961D01*
X100796Y257500D01*
Y215000D01*
X100887Y214539D01*
X101148Y214148D01*
X101539Y213887D01*
X102000Y213796D01*
X116000D01*
X116461Y213887D01*
X116851Y214148D01*
X117113Y214539D01*
X117204Y215000D01*
Y257500D01*
X117113Y257961D01*
X116851Y258351D01*
X116461Y258613D01*
X116000Y258704D01*
D02*
G37*
G36*
X352405Y209037D02*
X351595D01*
X350846Y208727D01*
X350273Y208154D01*
X350250Y208099D01*
X349750D01*
X349727Y208154D01*
X349154Y208727D01*
X348405Y209037D01*
X347595D01*
X346846Y208727D01*
X346273Y208154D01*
X345963Y207405D01*
Y206595D01*
X346273Y205846D01*
X346846Y205273D01*
X346901Y205250D01*
Y204750D01*
X346846Y204727D01*
X346273Y204154D01*
X345963Y203405D01*
Y202595D01*
X346273Y201846D01*
X346846Y201273D01*
X347595Y200963D01*
X348405D01*
X349154Y201273D01*
X349727Y201846D01*
X349750Y201901D01*
X350250D01*
X350273Y201846D01*
X350846Y201273D01*
X351595Y200963D01*
X352405D01*
X353154Y201273D01*
X353727Y201846D01*
X354037Y202595D01*
Y203405D01*
X353727Y204154D01*
X353154Y204727D01*
X353099Y204750D01*
Y205250D01*
X353154Y205273D01*
X353727Y205846D01*
X354037Y206595D01*
Y207405D01*
X353727Y208154D01*
X353154Y208727D01*
X352405Y209037D01*
D02*
G37*
G36*
X379955Y210787D02*
X379045D01*
X378204Y210439D01*
X377561Y209796D01*
X377213Y208955D01*
Y208045D01*
X377561Y207204D01*
X378204Y206561D01*
X379045Y206213D01*
X379955D01*
X380796Y206561D01*
X381439Y207204D01*
X381787Y208045D01*
Y208955D01*
X381439Y209796D01*
X380796Y210439D01*
X379955Y210787D01*
D02*
G37*
G36*
X338405Y207037D02*
X337595D01*
X336846Y206727D01*
X336273Y206154D01*
X335963Y205405D01*
Y204595D01*
X336273Y203846D01*
X336846Y203273D01*
X337595Y202963D01*
X338405D01*
X339154Y203273D01*
X339727Y203846D01*
X340037Y204595D01*
Y205405D01*
X339727Y206154D01*
X339154Y206727D01*
X338405Y207037D01*
D02*
G37*
G36*
X220405Y201037D02*
X219595D01*
X218846Y200727D01*
X218577Y200458D01*
X218250Y200174D01*
X217923Y200458D01*
X217654Y200727D01*
X216905Y201037D01*
X216095D01*
X215346Y200727D01*
X214773Y200154D01*
X214463Y199405D01*
Y198595D01*
X214773Y197846D01*
X215346Y197273D01*
X216095Y196963D01*
X216905D01*
X217654Y197273D01*
X217923Y197542D01*
X218250Y197826D01*
X218577Y197542D01*
X218846Y197273D01*
X219595Y196963D01*
X220405D01*
X221154Y197273D01*
X221727Y197846D01*
X222037Y198595D01*
Y199405D01*
X221727Y200154D01*
X221154Y200727D01*
X220405Y201037D01*
D02*
G37*
G36*
X238840Y201102D02*
X238030D01*
X237281Y200792D01*
X236708Y200219D01*
X236398Y199470D01*
Y198660D01*
X236708Y197911D01*
X237122Y197496D01*
Y160634D01*
X236708Y160219D01*
X236398Y159470D01*
Y158660D01*
X236708Y157911D01*
X237122Y157496D01*
Y120634D01*
X236708Y120219D01*
X236398Y119470D01*
Y118660D01*
X236708Y117911D01*
X237122Y117496D01*
Y80634D01*
X236708Y80219D01*
X236398Y79470D01*
Y78660D01*
X236708Y77911D01*
X237281Y77338D01*
X238030Y77028D01*
X238840D01*
X239589Y77338D01*
X240162Y77911D01*
X240472Y78660D01*
Y79470D01*
X240162Y80219D01*
X239748Y80634D01*
Y112272D01*
X240248Y112606D01*
X240595Y112463D01*
X241405D01*
X242154Y112773D01*
X242727Y113346D01*
X243037Y114095D01*
Y114905D01*
X242727Y115654D01*
X242154Y116227D01*
X241405Y116537D01*
X240595D01*
X240248Y116394D01*
X239748Y116728D01*
Y117496D01*
X240162Y117911D01*
X240472Y118660D01*
Y119470D01*
X240162Y120219D01*
X239748Y120634D01*
Y152272D01*
X240248Y152606D01*
X240595Y152463D01*
X241405D01*
X242154Y152773D01*
X242727Y153346D01*
X243037Y154095D01*
Y154905D01*
X242727Y155654D01*
X242154Y156227D01*
X241405Y156537D01*
X240595D01*
X240248Y156394D01*
X239748Y156728D01*
Y157496D01*
X240162Y157911D01*
X240472Y158660D01*
Y159470D01*
X240162Y160219D01*
X239748Y160634D01*
Y192272D01*
X240248Y192606D01*
X240595Y192463D01*
X241405D01*
X242154Y192773D01*
X242727Y193346D01*
X243037Y194095D01*
Y194905D01*
X242727Y195654D01*
X242154Y196227D01*
X241405Y196537D01*
X240595D01*
X240248Y196394D01*
X239748Y196728D01*
Y197496D01*
X240162Y197911D01*
X240472Y198660D01*
Y199470D01*
X240162Y200219D01*
X239589Y200792D01*
X238840Y201102D01*
D02*
G37*
G36*
X330256Y195888D02*
X329445D01*
X328696Y195578D01*
X328123Y195004D01*
X327813Y194256D01*
Y193445D01*
X328123Y192696D01*
X328696Y192123D01*
X329445Y191813D01*
X330256D01*
X331005Y192123D01*
X331578Y192696D01*
X331888Y193445D01*
Y194256D01*
X331578Y195004D01*
X331005Y195578D01*
X330256Y195888D01*
D02*
G37*
G36*
X229405Y193037D02*
X228595D01*
X227846Y192727D01*
X227273Y192154D01*
X226963Y191405D01*
Y190595D01*
X227273Y189846D01*
X227846Y189273D01*
X228595Y188963D01*
X229405D01*
X230154Y189273D01*
X230727Y189846D01*
X231037Y190595D01*
Y191405D01*
X230727Y192154D01*
X230154Y192727D01*
X229405Y193037D01*
D02*
G37*
G36*
X266905Y304537D02*
X266095D01*
X265346Y304227D01*
X264773Y303654D01*
X264463Y302905D01*
Y302095D01*
X264773Y301346D01*
X265346Y300773D01*
X266095Y300463D01*
X266905D01*
X267654Y300773D01*
X268119Y301237D01*
X377477D01*
X411237Y267477D01*
Y218523D01*
X386607Y193893D01*
X386333Y193483D01*
X386237Y193000D01*
Y168763D01*
X373023D01*
X361452Y180334D01*
Y183570D01*
X361727Y183846D01*
X361750Y183901D01*
X362250D01*
X362273Y183846D01*
X362846Y183273D01*
X363595Y182963D01*
X364405D01*
X365154Y183273D01*
X365727Y183846D01*
X366037Y184595D01*
Y185405D01*
X365727Y186154D01*
X365154Y186727D01*
X364405Y187037D01*
X363595D01*
X362846Y186727D01*
X362273Y186154D01*
X362250Y186099D01*
X361750D01*
X361727Y186154D01*
X361154Y186727D01*
X360405Y187037D01*
X359595D01*
X358846Y186727D01*
X358273Y186154D01*
X357963Y185405D01*
Y184595D01*
X358273Y183846D01*
X358846Y183273D01*
X358926Y183240D01*
Y179811D01*
X359022Y179328D01*
X359296Y178918D01*
X371607Y166607D01*
X372017Y166333D01*
X372500Y166237D01*
X386237D01*
Y134500D01*
X386333Y134017D01*
X386607Y133607D01*
X406737Y113477D01*
Y108263D01*
X365523D01*
X364670Y109116D01*
X364667Y109133D01*
X364446Y109463D01*
X364510Y109756D01*
X364643Y109999D01*
X365304Y110273D01*
X365877Y110846D01*
X366187Y111595D01*
Y112405D01*
X365877Y113154D01*
X365304Y113727D01*
X364555Y114037D01*
X363744D01*
X362996Y113727D01*
X362422Y113154D01*
X362400Y113099D01*
X361900D01*
X361877Y113154D01*
X361304Y113727D01*
X360555Y114037D01*
X359744D01*
X358996Y113727D01*
X358422Y113154D01*
X358112Y112405D01*
Y111595D01*
X358422Y110846D01*
X358996Y110273D01*
X359744Y109963D01*
X360401D01*
X362330Y108034D01*
X362333Y108017D01*
X362607Y107607D01*
X364107Y106107D01*
X364517Y105833D01*
X365000Y105737D01*
X406737D01*
Y61023D01*
X392977Y47263D01*
X300023D01*
X293063Y54223D01*
Y66222D01*
X293335Y66295D01*
X294242Y66818D01*
X294982Y67558D01*
X295505Y68465D01*
X295776Y69476D01*
Y70524D01*
X295505Y71535D01*
X294982Y72442D01*
X294242Y73182D01*
X293335Y73705D01*
X292323Y73976D01*
X291277D01*
X290265Y73705D01*
X289358Y73182D01*
X288618Y72442D01*
X288095Y71535D01*
X287824Y70524D01*
Y69476D01*
X288095Y68465D01*
X288618Y67558D01*
X289358Y66818D01*
X290265Y66295D01*
X290537Y66222D01*
Y53700D01*
X290633Y53217D01*
X290907Y52807D01*
X298607Y45107D01*
X299017Y44833D01*
X299500Y44737D01*
X393500D01*
X393983Y44833D01*
X394393Y45107D01*
X408893Y59607D01*
X409167Y60017D01*
X409263Y60500D01*
Y107000D01*
Y114000D01*
X409167Y114483D01*
X408893Y114893D01*
X388763Y135023D01*
Y167500D01*
Y192477D01*
X413393Y217107D01*
X413667Y217517D01*
X413763Y218000D01*
Y268000D01*
X413667Y268483D01*
X413393Y268893D01*
X378893Y303393D01*
X378483Y303667D01*
X378000Y303763D01*
X268119D01*
X267654Y304227D01*
X266905Y304537D01*
D02*
G37*
G36*
X200905Y183037D02*
X200095D01*
X199346Y182727D01*
X198773Y182154D01*
X198463Y181405D01*
Y180595D01*
X198773Y179846D01*
X199346Y179273D01*
X200095Y178963D01*
X200905D01*
X201654Y179273D01*
X202227Y179846D01*
X202537Y180595D01*
Y181405D01*
X202227Y182154D01*
X201654Y182727D01*
X200905Y183037D01*
D02*
G37*
G36*
X331405Y182037D02*
X330595D01*
X329846Y181727D01*
X329273Y181154D01*
X328963Y180405D01*
Y179595D01*
X329273Y178846D01*
X329846Y178273D01*
X330595Y177963D01*
X331405D01*
X332154Y178273D01*
X332727Y178846D01*
X333037Y179595D01*
Y180405D01*
X332727Y181154D01*
X332154Y181727D01*
X331405Y182037D01*
D02*
G37*
G36*
X220405Y161037D02*
X219595D01*
X218846Y160727D01*
X218577Y160458D01*
X218250Y160174D01*
X217923Y160458D01*
X217654Y160727D01*
X216905Y161037D01*
X216095D01*
X215346Y160727D01*
X214773Y160154D01*
X214463Y159405D01*
Y158595D01*
X214773Y157846D01*
X215346Y157273D01*
X216095Y156963D01*
X216905D01*
X217654Y157273D01*
X217923Y157542D01*
X218250Y157826D01*
X218577Y157542D01*
X218846Y157273D01*
X219595Y156963D01*
X220405D01*
X221154Y157273D01*
X221727Y157846D01*
X222037Y158595D01*
Y159405D01*
X221727Y160154D01*
X221154Y160727D01*
X220405Y161037D01*
D02*
G37*
G36*
X330555Y159037D02*
X329744D01*
X328995Y158727D01*
X328422Y158154D01*
X328112Y157405D01*
Y156595D01*
X328422Y155846D01*
X328995Y155273D01*
X329744Y154963D01*
X330555D01*
X331304Y155273D01*
X331877Y155846D01*
X332187Y156595D01*
Y157405D01*
X331877Y158154D01*
X331304Y158727D01*
X330555Y159037D01*
D02*
G37*
G36*
X365500Y153537D02*
X364689D01*
X363940Y153227D01*
X363367Y152654D01*
X363057Y151905D01*
Y151095D01*
X363367Y150346D01*
X363940Y149773D01*
X364689Y149463D01*
X365500D01*
X366249Y149773D01*
X366822Y150346D01*
X367132Y151095D01*
Y151905D01*
X366822Y152654D01*
X366249Y153227D01*
X365500Y153537D01*
D02*
G37*
G36*
X229405Y153037D02*
X228595D01*
X227846Y152727D01*
X227273Y152154D01*
X226963Y151405D01*
Y150595D01*
X227273Y149846D01*
X227846Y149273D01*
X228595Y148963D01*
X229405D01*
X230154Y149273D01*
X230727Y149846D01*
X231037Y150595D01*
Y151405D01*
X230727Y152154D01*
X230154Y152727D01*
X229405Y153037D01*
D02*
G37*
G36*
X330555Y145037D02*
X329744D01*
X328995Y144727D01*
X328422Y144154D01*
X328112Y143405D01*
Y142595D01*
X328422Y141846D01*
X328995Y141273D01*
X329744Y140963D01*
X330555D01*
X331304Y141273D01*
X331877Y141846D01*
X332187Y142595D01*
Y143405D01*
X331877Y144154D01*
X331304Y144727D01*
X330555Y145037D01*
D02*
G37*
G36*
X200905Y143037D02*
X200095D01*
X199346Y142727D01*
X198773Y142154D01*
X198463Y141405D01*
Y140595D01*
X198773Y139846D01*
X199346Y139273D01*
X200095Y138963D01*
X200905D01*
X201654Y139273D01*
X202227Y139846D01*
X202537Y140595D01*
Y141405D01*
X202227Y142154D01*
X201654Y142727D01*
X200905Y143037D01*
D02*
G37*
G36*
X352555Y136037D02*
X351744D01*
X350995Y135727D01*
X350422Y135154D01*
X350400Y135099D01*
X349900D01*
X349877Y135154D01*
X349304Y135727D01*
X348555Y136037D01*
X347744D01*
X346995Y135727D01*
X346422Y135154D01*
X346112Y134405D01*
Y133595D01*
X346422Y132846D01*
X346995Y132273D01*
X347050Y132250D01*
Y131750D01*
X346995Y131727D01*
X346422Y131154D01*
X346112Y130405D01*
Y129595D01*
X346422Y128846D01*
X346995Y128273D01*
X347744Y127963D01*
X348555D01*
X349304Y128273D01*
X349877Y128846D01*
X349900Y128901D01*
X350400D01*
X350422Y128846D01*
X350995Y128273D01*
X351744Y127963D01*
X352555D01*
X353304Y128273D01*
X353877Y128846D01*
X354187Y129595D01*
Y130405D01*
X353877Y131154D01*
X353304Y131727D01*
X353249Y131750D01*
Y132250D01*
X353304Y132273D01*
X353877Y132846D01*
X354187Y133595D01*
Y134405D01*
X353877Y135154D01*
X353304Y135727D01*
X352555Y136037D01*
D02*
G37*
G36*
X380455Y137287D02*
X379545D01*
X378704Y136939D01*
X378061Y136296D01*
X377713Y135455D01*
Y134545D01*
X378061Y133704D01*
X378704Y133061D01*
X379545Y132713D01*
X380455D01*
X381296Y133061D01*
X381939Y133704D01*
X382287Y134545D01*
Y135455D01*
X381939Y136296D01*
X381296Y136939D01*
X380455Y137287D01*
D02*
G37*
G36*
X338555Y134037D02*
X337744D01*
X336996Y133727D01*
X336422Y133154D01*
X336112Y132405D01*
Y131595D01*
X336422Y130846D01*
X336996Y130273D01*
X337744Y129963D01*
X338555D01*
X339304Y130273D01*
X339877Y130846D01*
X340187Y131595D01*
Y132405D01*
X339877Y133154D01*
X339304Y133727D01*
X338555Y134037D01*
D02*
G37*
G36*
X380355Y125387D02*
X379445D01*
X378604Y125039D01*
X377961Y124396D01*
X377613Y123555D01*
Y122645D01*
X377961Y121804D01*
X378604Y121161D01*
X379445Y120813D01*
X380355D01*
X381196Y121161D01*
X381839Y121804D01*
X382187Y122645D01*
Y123555D01*
X381839Y124396D01*
X381196Y125039D01*
X380355Y125387D01*
D02*
G37*
G36*
X220405Y121037D02*
X219595D01*
X218846Y120727D01*
X218577Y120458D01*
X218250Y120174D01*
X217923Y120458D01*
X217654Y120727D01*
X216905Y121037D01*
X216095D01*
X215346Y120727D01*
X214773Y120154D01*
X214463Y119405D01*
Y118595D01*
X214773Y117846D01*
X215346Y117273D01*
X216095Y116963D01*
X216905D01*
X217654Y117273D01*
X217923Y117542D01*
X218250Y117826D01*
X218577Y117542D01*
X218846Y117273D01*
X219595Y116963D01*
X220405D01*
X221154Y117273D01*
X221727Y117846D01*
X222037Y118595D01*
Y119405D01*
X221727Y120154D01*
X221154Y120727D01*
X220405Y121037D01*
D02*
G37*
G36*
X330405Y122888D02*
X329595D01*
X328846Y122578D01*
X328273Y122004D01*
X327963Y121256D01*
Y120445D01*
X328273Y119696D01*
X328846Y119123D01*
X329595Y118813D01*
X330405D01*
X331154Y119123D01*
X331727Y119696D01*
X332037Y120445D01*
Y121256D01*
X331727Y122004D01*
X331154Y122578D01*
X330405Y122888D01*
D02*
G37*
G36*
X164000Y136204D02*
X130000D01*
X129539Y136113D01*
X129148Y135852D01*
X128887Y135461D01*
X128796Y135000D01*
Y116000D01*
X128887Y115539D01*
X129148Y115148D01*
X129539Y114887D01*
X130000Y114796D01*
X164000D01*
X164461Y114887D01*
X164851Y115148D01*
X165113Y115539D01*
X165204Y116000D01*
Y135000D01*
X165113Y135461D01*
X164851Y135852D01*
X164461Y136113D01*
X164000Y136204D01*
D02*
G37*
G36*
X229405Y113037D02*
X228595D01*
X227846Y112727D01*
X227273Y112154D01*
X226963Y111405D01*
Y110595D01*
X227273Y109846D01*
X227846Y109273D01*
X228595Y108963D01*
X229405D01*
X230154Y109273D01*
X230727Y109846D01*
X231037Y110595D01*
Y111405D01*
X230727Y112154D01*
X230154Y112727D01*
X229405Y113037D01*
D02*
G37*
G36*
X331405Y109037D02*
X330595D01*
X329846Y108727D01*
X329273Y108154D01*
X328963Y107405D01*
Y106595D01*
X329273Y105846D01*
X329846Y105273D01*
X330595Y104963D01*
X331405D01*
X332154Y105273D01*
X332727Y105846D01*
X333037Y106595D01*
Y107405D01*
X332727Y108154D01*
X332154Y108727D01*
X331405Y109037D01*
D02*
G37*
G36*
X38525Y107798D02*
X37475D01*
X36461Y107527D01*
X35552Y107002D01*
X34809Y106259D01*
X34284Y105350D01*
X34013Y104336D01*
Y103286D01*
X34284Y102272D01*
X34809Y101363D01*
X35552Y100620D01*
X36461Y100095D01*
X37475Y99824D01*
X38525D01*
X39539Y100095D01*
X40448Y100620D01*
X41191Y101363D01*
X41716Y102272D01*
X41987Y103286D01*
Y104336D01*
X41716Y105350D01*
X41191Y106259D01*
X40448Y107002D01*
X39539Y107527D01*
X38525Y107798D01*
D02*
G37*
G36*
X200905Y103037D02*
X200095D01*
X199346Y102727D01*
X198773Y102154D01*
X198463Y101405D01*
Y100595D01*
X198773Y99846D01*
X199346Y99273D01*
X200095Y98963D01*
X200905D01*
X201654Y99273D01*
X202227Y99846D01*
X202537Y100595D01*
Y101405D01*
X202227Y102154D01*
X201654Y102727D01*
X200905Y103037D01*
D02*
G37*
G36*
X122405Y100037D02*
X121595D01*
X120846Y99727D01*
X120273Y99154D01*
X119963Y98405D01*
Y97595D01*
X120273Y96846D01*
X120846Y96273D01*
X121595Y95963D01*
X122405D01*
X123154Y96273D01*
X123727Y96846D01*
X124037Y97595D01*
Y98405D01*
X123727Y99154D01*
X123154Y99727D01*
X122405Y100037D01*
D02*
G37*
G36*
X21760Y104905D02*
X20381D01*
X19029Y104637D01*
X17755Y104109D01*
X16609Y103343D01*
X15634Y102368D01*
X14867Y101221D01*
X14340Y99947D01*
X14071Y98595D01*
Y97216D01*
X14340Y95864D01*
X14867Y94590D01*
X15634Y93443D01*
X16609Y92468D01*
X17755Y91702D01*
X19029Y91175D01*
X20381Y90905D01*
X21760D01*
X23113Y91175D01*
X24387Y91702D01*
X25533Y92468D01*
X26508Y93443D01*
X27274Y94590D01*
X27802Y95864D01*
X28071Y97216D01*
Y98595D01*
X27802Y99947D01*
X27274Y101221D01*
X26508Y102368D01*
X25533Y103343D01*
X24387Y104109D01*
X23113Y104637D01*
X21760Y104905D01*
D02*
G37*
G36*
X38525Y95987D02*
X37475D01*
X36461Y95716D01*
X35552Y95191D01*
X34809Y94448D01*
X34284Y93539D01*
X34013Y92525D01*
Y91475D01*
X34284Y90461D01*
X34809Y89552D01*
X35552Y88809D01*
X36461Y88284D01*
X37475Y88013D01*
X38525D01*
X39539Y88284D01*
X40448Y88809D01*
X41191Y89552D01*
X41716Y90461D01*
X41987Y91475D01*
Y92525D01*
X41716Y93539D01*
X41191Y94448D01*
X40448Y95191D01*
X39539Y95716D01*
X38525Y95987D01*
D02*
G37*
G36*
X176455Y90287D02*
X175545D01*
X174704Y89939D01*
X174061Y89296D01*
X173713Y88455D01*
Y87545D01*
X174061Y86704D01*
X174704Y86061D01*
X175545Y85713D01*
X176455D01*
X177296Y86061D01*
X177939Y86704D01*
X178287Y87545D01*
Y88455D01*
X177939Y89296D01*
X177296Y89939D01*
X176455Y90287D01*
D02*
G37*
G36*
X168455D02*
X167545D01*
X166704Y89939D01*
X166061Y89296D01*
X165713Y88455D01*
Y87545D01*
X166061Y86704D01*
X166704Y86061D01*
X167545Y85713D01*
X168455D01*
X169296Y86061D01*
X169939Y86704D01*
X170287Y87545D01*
Y88455D01*
X169939Y89296D01*
X169296Y89939D01*
X168455Y90287D01*
D02*
G37*
G36*
X160455D02*
X159545D01*
X158704Y89939D01*
X158061Y89296D01*
X157713Y88455D01*
Y87545D01*
X158061Y86704D01*
X158704Y86061D01*
X159545Y85713D01*
X160455D01*
X161296Y86061D01*
X161939Y86704D01*
X162287Y87545D01*
Y88455D01*
X161939Y89296D01*
X161296Y89939D01*
X160455Y90287D01*
D02*
G37*
G36*
X75955Y95287D02*
X75045D01*
X74204Y94939D01*
X73561Y94296D01*
X73213Y93455D01*
Y92545D01*
X73561Y91704D01*
X74204Y91061D01*
X74878Y90782D01*
X74902Y90251D01*
X74846Y90227D01*
X74273Y89654D01*
X73963Y88905D01*
Y88095D01*
X74273Y87346D01*
X74687Y86931D01*
Y84663D01*
X74187Y84564D01*
X74142Y84672D01*
X73598Y85217D01*
X72885Y85512D01*
X72115D01*
X71403Y85217D01*
X70858Y84672D01*
X70563Y83960D01*
Y83189D01*
X70858Y82477D01*
X71335Y82000D01*
X70858Y81523D01*
X70563Y80811D01*
Y80040D01*
X70858Y79328D01*
X71403Y78783D01*
X72115Y78488D01*
X72885D01*
X73598Y78783D01*
X74142Y79328D01*
X74187Y79436D01*
X74687Y79337D01*
Y76569D01*
X74273Y76154D01*
X73963Y75405D01*
Y74595D01*
X74273Y73846D01*
X74846Y73273D01*
X75595Y72963D01*
X76405D01*
X77154Y73273D01*
X77727Y73846D01*
X78037Y74595D01*
Y75405D01*
X77727Y76154D01*
X77313Y76569D01*
Y86931D01*
X77727Y87346D01*
X78037Y88095D01*
Y88905D01*
X77727Y89654D01*
X77154Y90227D01*
X76622Y90448D01*
Y90989D01*
X76796Y91061D01*
X77439Y91704D01*
X77787Y92545D01*
Y93455D01*
X77439Y94296D01*
X76796Y94939D01*
X75955Y95287D01*
D02*
G37*
G36*
X172455Y86287D02*
X171545D01*
X170704Y85939D01*
X170061Y85296D01*
X169713Y84455D01*
Y83545D01*
X170061Y82704D01*
X170704Y82061D01*
X171545Y81713D01*
X172455D01*
X173296Y82061D01*
X173939Y82704D01*
X174287Y83545D01*
Y84455D01*
X173939Y85296D01*
X173296Y85939D01*
X172455Y86287D01*
D02*
G37*
G36*
X164455D02*
X163545D01*
X162704Y85939D01*
X162061Y85296D01*
X161713Y84455D01*
Y83545D01*
X162061Y82704D01*
X162704Y82061D01*
X163545Y81713D01*
X164455D01*
X165296Y82061D01*
X165939Y82704D01*
X166287Y83545D01*
Y84455D01*
X165939Y85296D01*
X165296Y85939D01*
X164455Y86287D01*
D02*
G37*
G36*
X156455D02*
X155545D01*
X154704Y85939D01*
X154061Y85296D01*
X153713Y84455D01*
Y83545D01*
X154061Y82704D01*
X154704Y82061D01*
X155545Y81713D01*
X156455D01*
X157296Y82061D01*
X157939Y82704D01*
X158287Y83545D01*
Y84455D01*
X157939Y85296D01*
X157296Y85939D01*
X156455Y86287D01*
D02*
G37*
G36*
X220405Y81037D02*
X219595D01*
X218846Y80727D01*
X218577Y80458D01*
X218250Y80174D01*
X217923Y80458D01*
X217654Y80727D01*
X216905Y81037D01*
X216095D01*
X215346Y80727D01*
X214773Y80154D01*
X214463Y79405D01*
Y78595D01*
X214773Y77846D01*
X215346Y77273D01*
X216095Y76963D01*
X216905D01*
X217654Y77273D01*
X217923Y77542D01*
X218250Y77826D01*
X218577Y77542D01*
X218846Y77273D01*
X219595Y76963D01*
X220405D01*
X221154Y77273D01*
X221727Y77846D01*
X222037Y78595D01*
Y79405D01*
X221727Y80154D01*
X221154Y80727D01*
X220405Y81037D01*
D02*
G37*
G36*
X176455Y82287D02*
X175545D01*
X174704Y81939D01*
X174061Y81296D01*
X173713Y80455D01*
Y79545D01*
X174061Y78704D01*
X174704Y78061D01*
X175545Y77713D01*
X176455D01*
X177296Y78061D01*
X177939Y78704D01*
X178287Y79545D01*
Y80455D01*
X177939Y81296D01*
X177296Y81939D01*
X176455Y82287D01*
D02*
G37*
G36*
X168455D02*
X167545D01*
X166704Y81939D01*
X166061Y81296D01*
X165713Y80455D01*
Y79545D01*
X166061Y78704D01*
X166704Y78061D01*
X167545Y77713D01*
X168455D01*
X169296Y78061D01*
X169939Y78704D01*
X170287Y79545D01*
Y80455D01*
X169939Y81296D01*
X169296Y81939D01*
X168455Y82287D01*
D02*
G37*
G36*
X160455D02*
X159545D01*
X158704Y81939D01*
X158061Y81296D01*
X157713Y80455D01*
Y79545D01*
X158061Y78704D01*
X158704Y78061D01*
X159545Y77713D01*
X160455D01*
X161296Y78061D01*
X161939Y78704D01*
X162287Y79545D01*
Y80455D01*
X161939Y81296D01*
X161296Y81939D01*
X160455Y82287D01*
D02*
G37*
G36*
X243905Y81240D02*
X243095D01*
X242346Y80930D01*
X241773Y80357D01*
X241463Y79608D01*
Y78798D01*
X241773Y78049D01*
X242346Y77476D01*
X243095Y77166D01*
X243905D01*
X244654Y77476D01*
X245227Y78049D01*
X245537Y78798D01*
Y79608D01*
X245227Y80357D01*
X244654Y80930D01*
X243905Y81240D01*
D02*
G37*
G36*
X402123Y84076D02*
X401077D01*
X400065Y83805D01*
X399158Y83282D01*
X398418Y82542D01*
X397895Y81635D01*
X397624Y80624D01*
Y79576D01*
X397895Y78565D01*
X398418Y77658D01*
X399158Y76918D01*
X400065Y76395D01*
X401077Y76124D01*
X402123D01*
X403135Y76395D01*
X404042Y76918D01*
X404782Y77658D01*
X405305Y78565D01*
X405576Y79576D01*
Y80624D01*
X405305Y81635D01*
X404782Y82542D01*
X404042Y83282D01*
X403135Y83805D01*
X402123Y84076D01*
D02*
G37*
G36*
X392124D02*
X391076D01*
X390065Y83805D01*
X389158Y83282D01*
X388418Y82542D01*
X387895Y81635D01*
X387624Y80624D01*
Y79576D01*
X387895Y78565D01*
X388418Y77658D01*
X389158Y76918D01*
X390065Y76395D01*
X391076Y76124D01*
X392124D01*
X393135Y76395D01*
X394042Y76918D01*
X394782Y77658D01*
X395305Y78565D01*
X395576Y79576D01*
Y80624D01*
X395305Y81635D01*
X394782Y82542D01*
X394042Y83282D01*
X393135Y83805D01*
X392124Y84076D01*
D02*
G37*
G36*
X382123D02*
X381077D01*
X380065Y83805D01*
X379158Y83282D01*
X378418Y82542D01*
X377895Y81635D01*
X377624Y80624D01*
Y79576D01*
X377895Y78565D01*
X378418Y77658D01*
X379158Y76918D01*
X380065Y76395D01*
X381077Y76124D01*
X382123D01*
X383135Y76395D01*
X384042Y76918D01*
X384782Y77658D01*
X385305Y78565D01*
X385576Y79576D01*
Y80624D01*
X385305Y81635D01*
X384782Y82542D01*
X384042Y83282D01*
X383135Y83805D01*
X382123Y84076D01*
D02*
G37*
G36*
X372124D02*
X371076D01*
X370065Y83805D01*
X369158Y83282D01*
X368418Y82542D01*
X367895Y81635D01*
X367624Y80624D01*
Y79576D01*
X367895Y78565D01*
X368418Y77658D01*
X369158Y76918D01*
X370065Y76395D01*
X371076Y76124D01*
X372124D01*
X373135Y76395D01*
X374042Y76918D01*
X374782Y77658D01*
X375305Y78565D01*
X375576Y79576D01*
Y80624D01*
X375305Y81635D01*
X374782Y82542D01*
X374042Y83282D01*
X373135Y83805D01*
X372124Y84076D01*
D02*
G37*
G36*
X362123D02*
X361076D01*
X360065Y83805D01*
X359158Y83282D01*
X358418Y82542D01*
X357895Y81635D01*
X357624Y80624D01*
Y79576D01*
X357895Y78565D01*
X358418Y77658D01*
X359158Y76918D01*
X360065Y76395D01*
X361076Y76124D01*
X362123D01*
X363135Y76395D01*
X364042Y76918D01*
X364782Y77658D01*
X365305Y78565D01*
X365576Y79576D01*
Y80624D01*
X365305Y81635D01*
X364782Y82542D01*
X364042Y83282D01*
X363135Y83805D01*
X362123Y84076D01*
D02*
G37*
G36*
X353194Y84123D02*
X350006D01*
X349076Y83938D01*
X348288Y83412D01*
X347762Y82624D01*
X347577Y81695D01*
Y78505D01*
X347762Y77576D01*
X348288Y76788D01*
X349076Y76262D01*
X350006Y76077D01*
X353194D01*
X354124Y76262D01*
X354912Y76788D01*
X355438Y77576D01*
X355623Y78505D01*
Y81695D01*
X355438Y82624D01*
X354912Y83412D01*
X354124Y83938D01*
X353194Y84123D01*
D02*
G37*
G36*
X332324Y83976D02*
X331276D01*
X330265Y83705D01*
X329358Y83182D01*
X328618Y82442D01*
X328095Y81535D01*
X327824Y80524D01*
Y79476D01*
X328095Y78465D01*
X328618Y77558D01*
X329358Y76818D01*
X330265Y76295D01*
X331276Y76024D01*
X332324D01*
X333335Y76295D01*
X334242Y76818D01*
X334982Y77558D01*
X335505Y78465D01*
X335776Y79476D01*
Y80524D01*
X335505Y81535D01*
X334982Y82442D01*
X334242Y83182D01*
X333335Y83705D01*
X332324Y83976D01*
D02*
G37*
G36*
X322323D02*
X321276D01*
X320265Y83705D01*
X319358Y83182D01*
X318618Y82442D01*
X318095Y81535D01*
X317824Y80524D01*
Y79476D01*
X318095Y78465D01*
X318618Y77558D01*
X319358Y76818D01*
X320265Y76295D01*
X321276Y76024D01*
X322323D01*
X323335Y76295D01*
X324242Y76818D01*
X324982Y77558D01*
X325505Y78465D01*
X325776Y79476D01*
Y80524D01*
X325505Y81535D01*
X324982Y82442D01*
X324242Y83182D01*
X323335Y83705D01*
X322323Y83976D01*
D02*
G37*
G36*
X312323D02*
X311277D01*
X310265Y83705D01*
X309358Y83182D01*
X308618Y82442D01*
X308095Y81535D01*
X307824Y80524D01*
Y79476D01*
X308095Y78465D01*
X308618Y77558D01*
X309358Y76818D01*
X310265Y76295D01*
X311277Y76024D01*
X312323D01*
X313335Y76295D01*
X314242Y76818D01*
X314982Y77558D01*
X315505Y78465D01*
X315776Y79476D01*
Y80524D01*
X315505Y81535D01*
X314982Y82442D01*
X314242Y83182D01*
X313335Y83705D01*
X312323Y83976D01*
D02*
G37*
G36*
X302324D02*
X301276D01*
X300265Y83705D01*
X299358Y83182D01*
X298618Y82442D01*
X298095Y81535D01*
X297824Y80524D01*
Y79476D01*
X298095Y78465D01*
X298618Y77558D01*
X299358Y76818D01*
X300265Y76295D01*
X301276Y76024D01*
X302324D01*
X303335Y76295D01*
X304242Y76818D01*
X304982Y77558D01*
X305505Y78465D01*
X305776Y79476D01*
Y80524D01*
X305505Y81535D01*
X304982Y82442D01*
X304242Y83182D01*
X303335Y83705D01*
X302324Y83976D01*
D02*
G37*
G36*
X65455Y79787D02*
X64545D01*
X63704Y79439D01*
X63061Y78796D01*
X62713Y77955D01*
Y77045D01*
X63061Y76204D01*
X63704Y75561D01*
X64545Y75213D01*
X65455D01*
X66296Y75561D01*
X66939Y76204D01*
X67287Y77045D01*
Y77955D01*
X66939Y78796D01*
X66296Y79439D01*
X65455Y79787D01*
D02*
G37*
G36*
X172455Y78287D02*
X171545D01*
X170704Y77939D01*
X170061Y77296D01*
X169713Y76455D01*
Y75545D01*
X170061Y74704D01*
X170704Y74061D01*
X171545Y73713D01*
X172455D01*
X173296Y74061D01*
X173939Y74704D01*
X174287Y75545D01*
Y76455D01*
X173939Y77296D01*
X173296Y77939D01*
X172455Y78287D01*
D02*
G37*
G36*
X164455D02*
X163545D01*
X162704Y77939D01*
X162061Y77296D01*
X161713Y76455D01*
Y75545D01*
X162061Y74704D01*
X162704Y74061D01*
X163545Y73713D01*
X164455D01*
X165296Y74061D01*
X165939Y74704D01*
X166287Y75545D01*
Y76455D01*
X165939Y77296D01*
X165296Y77939D01*
X164455Y78287D01*
D02*
G37*
G36*
X156455D02*
X155545D01*
X154704Y77939D01*
X154061Y77296D01*
X153713Y76455D01*
Y75545D01*
X154061Y74704D01*
X154704Y74061D01*
X155545Y73713D01*
X156455D01*
X157296Y74061D01*
X157939Y74704D01*
X158287Y75545D01*
Y76455D01*
X157939Y77296D01*
X157296Y77939D01*
X156455Y78287D01*
D02*
G37*
G36*
X402123Y74076D02*
X401077D01*
X400065Y73805D01*
X399158Y73282D01*
X398418Y72541D01*
X397895Y71635D01*
X397624Y70623D01*
Y69577D01*
X397895Y68565D01*
X398418Y67659D01*
X399158Y66918D01*
X400065Y66395D01*
X401077Y66124D01*
X402123D01*
X403135Y66395D01*
X404042Y66918D01*
X404782Y67659D01*
X405305Y68565D01*
X405576Y69577D01*
Y70623D01*
X405305Y71635D01*
X404782Y72541D01*
X404042Y73282D01*
X403135Y73805D01*
X402123Y74076D01*
D02*
G37*
G36*
X392124D02*
X391076D01*
X390065Y73805D01*
X389158Y73282D01*
X388418Y72541D01*
X387895Y71635D01*
X387624Y70623D01*
Y69577D01*
X387895Y68565D01*
X388418Y67659D01*
X389158Y66918D01*
X390065Y66395D01*
X391076Y66124D01*
X392124D01*
X393135Y66395D01*
X394042Y66918D01*
X394782Y67659D01*
X395305Y68565D01*
X395576Y69577D01*
Y70623D01*
X395305Y71635D01*
X394782Y72541D01*
X394042Y73282D01*
X393135Y73805D01*
X392124Y74076D01*
D02*
G37*
G36*
X382123D02*
X381077D01*
X380065Y73805D01*
X379158Y73282D01*
X378418Y72541D01*
X377895Y71635D01*
X377624Y70623D01*
Y69577D01*
X377895Y68565D01*
X378418Y67659D01*
X379158Y66918D01*
X380065Y66395D01*
X381077Y66124D01*
X382123D01*
X383135Y66395D01*
X384042Y66918D01*
X384782Y67659D01*
X385305Y68565D01*
X385576Y69577D01*
Y70623D01*
X385305Y71635D01*
X384782Y72541D01*
X384042Y73282D01*
X383135Y73805D01*
X382123Y74076D01*
D02*
G37*
G36*
X372124D02*
X371076D01*
X370065Y73805D01*
X369158Y73282D01*
X368418Y72541D01*
X367895Y71635D01*
X367624Y70623D01*
Y69577D01*
X367895Y68565D01*
X368418Y67659D01*
X369158Y66918D01*
X370065Y66395D01*
X371076Y66124D01*
X372124D01*
X373135Y66395D01*
X374042Y66918D01*
X374782Y67659D01*
X375305Y68565D01*
X375576Y69577D01*
Y70623D01*
X375305Y71635D01*
X374782Y72541D01*
X374042Y73282D01*
X373135Y73805D01*
X372124Y74076D01*
D02*
G37*
G36*
X362123D02*
X361076D01*
X360065Y73805D01*
X359158Y73282D01*
X358418Y72541D01*
X357895Y71635D01*
X357624Y70623D01*
Y69577D01*
X357895Y68565D01*
X358418Y67659D01*
X359158Y66918D01*
X360065Y66395D01*
X361076Y66124D01*
X362123D01*
X363135Y66395D01*
X364042Y66918D01*
X364782Y67659D01*
X365305Y68565D01*
X365576Y69577D01*
Y70623D01*
X365305Y71635D01*
X364782Y72541D01*
X364042Y73282D01*
X363135Y73805D01*
X362123Y74076D01*
D02*
G37*
G36*
X352123D02*
X351077D01*
X350065Y73805D01*
X349158Y73282D01*
X348418Y72541D01*
X347895Y71635D01*
X347624Y70623D01*
Y69577D01*
X347895Y68565D01*
X348418Y67659D01*
X349158Y66918D01*
X350065Y66395D01*
X351077Y66124D01*
X352123D01*
X353135Y66395D01*
X354042Y66918D01*
X354782Y67659D01*
X355305Y68565D01*
X355576Y69577D01*
Y70623D01*
X355305Y71635D01*
X354782Y72541D01*
X354042Y73282D01*
X353135Y73805D01*
X352123Y74076D01*
D02*
G37*
G36*
X322323Y73976D02*
X321276D01*
X320265Y73705D01*
X319358Y73182D01*
X318618Y72442D01*
X318095Y71535D01*
X317824Y70524D01*
Y69476D01*
X318095Y68465D01*
X318618Y67558D01*
X319358Y66818D01*
X320265Y66295D01*
X321276Y66024D01*
X322323D01*
X323335Y66295D01*
X324242Y66818D01*
X324982Y67558D01*
X325505Y68465D01*
X325776Y69476D01*
Y70524D01*
X325505Y71535D01*
X324982Y72442D01*
X324242Y73182D01*
X323335Y73705D01*
X322323Y73976D01*
D02*
G37*
G36*
X312323D02*
X311277D01*
X310265Y73705D01*
X309358Y73182D01*
X308618Y72442D01*
X308095Y71535D01*
X307824Y70524D01*
Y69476D01*
X308095Y68465D01*
X308618Y67558D01*
X309358Y66818D01*
X310265Y66295D01*
X311277Y66024D01*
X312323D01*
X313335Y66295D01*
X314242Y66818D01*
X314982Y67558D01*
X315505Y68465D01*
X315776Y69476D01*
Y70524D01*
X315505Y71535D01*
X314982Y72442D01*
X314242Y73182D01*
X313335Y73705D01*
X312323Y73976D01*
D02*
G37*
G36*
X302324D02*
X301276D01*
X300265Y73705D01*
X299358Y73182D01*
X298618Y72442D01*
X298095Y71535D01*
X297824Y70524D01*
Y69476D01*
X298095Y68465D01*
X298618Y67558D01*
X299358Y66818D01*
X300265Y66295D01*
X301276Y66024D01*
X302324D01*
X303335Y66295D01*
X304242Y66818D01*
X304982Y67558D01*
X305505Y68465D01*
X305776Y69476D01*
Y70524D01*
X305505Y71535D01*
X304982Y72442D01*
X304242Y73182D01*
X303335Y73705D01*
X302324Y73976D01*
D02*
G37*
G36*
X282324D02*
X281276D01*
X280265Y73705D01*
X279358Y73182D01*
X278618Y72442D01*
X278095Y71535D01*
X277824Y70524D01*
Y69476D01*
X278095Y68465D01*
X278618Y67558D01*
X279358Y66818D01*
X280265Y66295D01*
X281276Y66024D01*
X282324D01*
X283335Y66295D01*
X284242Y66818D01*
X284982Y67558D01*
X285505Y68465D01*
X285776Y69476D01*
Y70524D01*
X285505Y71535D01*
X284982Y72442D01*
X284242Y73182D01*
X283335Y73705D01*
X282324Y73976D01*
D02*
G37*
G36*
X272323D02*
X271276D01*
X270265Y73705D01*
X269358Y73182D01*
X268618Y72442D01*
X268095Y71535D01*
X267824Y70524D01*
Y69476D01*
X268095Y68465D01*
X268618Y67558D01*
X269358Y66818D01*
X270265Y66295D01*
X271276Y66024D01*
X272323D01*
X273335Y66295D01*
X274242Y66818D01*
X274982Y67558D01*
X275505Y68465D01*
X275776Y69476D01*
Y70524D01*
X275505Y71535D01*
X274982Y72442D01*
X274242Y73182D01*
X273335Y73705D01*
X272323Y73976D01*
D02*
G37*
G36*
X333395Y74023D02*
X330205D01*
X329276Y73838D01*
X328488Y73312D01*
X327962Y72524D01*
X327777Y71595D01*
Y68405D01*
X327962Y67476D01*
X328488Y66688D01*
X329276Y66162D01*
X330205Y65977D01*
X333395D01*
X334324Y66162D01*
X335112Y66688D01*
X335638Y67476D01*
X335823Y68405D01*
Y71595D01*
X335638Y72524D01*
X335112Y73312D01*
X334324Y73838D01*
X333395Y74023D01*
D02*
G37*
G36*
X263394D02*
X260206D01*
X259276Y73838D01*
X258488Y73312D01*
X257962Y72524D01*
X257777Y71595D01*
Y68405D01*
X257962Y67476D01*
X258488Y66688D01*
X259276Y66162D01*
X260206Y65977D01*
X263394D01*
X264324Y66162D01*
X265112Y66688D01*
X265638Y67476D01*
X265823Y68405D01*
Y71595D01*
X265638Y72524D01*
X265112Y73312D01*
X264324Y73838D01*
X263394Y74023D01*
D02*
G37*
G36*
X246218Y59541D02*
X245408D01*
X244659Y59231D01*
X244086Y58658D01*
X243775Y57909D01*
Y57099D01*
X244086Y56350D01*
X244659Y55777D01*
X245408Y55467D01*
X246218D01*
X246967Y55777D01*
X247540Y56350D01*
X247850Y57099D01*
Y57909D01*
X247540Y58658D01*
X246967Y59231D01*
X246218Y59541D01*
D02*
G37*
G36*
X219330Y58287D02*
X218520D01*
X217771Y57977D01*
X217198Y57404D01*
X216888Y56655D01*
Y55845D01*
X217198Y55096D01*
X217771Y54523D01*
X218520Y54213D01*
X219330D01*
X220079Y54523D01*
X220652Y55096D01*
X220962Y55845D01*
Y56655D01*
X220652Y57404D01*
X220079Y57977D01*
X219330Y58287D01*
D02*
G37*
G36*
X136455Y48287D02*
X135545D01*
X134704Y47939D01*
X134061Y47296D01*
X133713Y46455D01*
Y45545D01*
X134061Y44704D01*
X134704Y44061D01*
X135545Y43713D01*
X136455D01*
X137296Y44061D01*
X137939Y44704D01*
X138287Y45545D01*
Y46455D01*
X137939Y47296D01*
X137296Y47939D01*
X136455Y48287D01*
D02*
G37*
%LPD*%
D17*
X76000Y76000D02*
Y88500D01*
X238435Y79065D02*
Y119065D01*
Y159065D02*
Y199065D01*
Y119065D02*
Y159065D01*
D66*
X122579Y269417D02*
D03*
X154579D02*
D03*
X186579D02*
D03*
X218579D02*
D03*
D67*
X132421D02*
D03*
X164421D02*
D03*
X196421D02*
D03*
X228421D02*
D03*
D68*
X36930Y228095D02*
D03*
Y239906D02*
D03*
X48741Y228095D02*
D03*
Y239906D02*
D03*
X36930Y264094D02*
D03*
Y275905D02*
D03*
X48741Y264094D02*
D03*
Y275905D02*
D03*
D69*
X38000Y92000D02*
D03*
Y103811D02*
D03*
D70*
X20000Y234000D02*
D03*
Y270000D02*
D03*
X21071Y97905D02*
D03*
D71*
X401600Y260200D02*
D03*
Y250200D02*
D03*
X391600Y260200D02*
D03*
Y250200D02*
D03*
X381600Y260200D02*
D03*
Y250200D02*
D03*
X371600Y260200D02*
D03*
Y250200D02*
D03*
X361600Y260200D02*
D03*
Y250200D02*
D03*
X351600Y260200D02*
D03*
Y250200D02*
D03*
X341600Y260200D02*
D03*
Y250200D02*
D03*
X331600Y260200D02*
D03*
Y250200D02*
D03*
X315700Y260200D02*
D03*
Y250200D02*
D03*
X305700Y260200D02*
D03*
Y250200D02*
D03*
X295700Y260200D02*
D03*
Y250200D02*
D03*
X285700Y260200D02*
D03*
Y250200D02*
D03*
X275700Y260200D02*
D03*
Y250200D02*
D03*
X265700Y260200D02*
D03*
Y250200D02*
D03*
X255700Y260200D02*
D03*
Y250200D02*
D03*
X245700Y260200D02*
D03*
Y250200D02*
D03*
D75*
X387500Y134500D02*
Y167500D01*
Y193000D01*
X360189Y179811D02*
X372500Y167500D01*
X387500D01*
X266500Y302500D02*
X378000D01*
X412500Y268000D01*
Y218000D02*
Y268000D01*
X387500Y193000D02*
X412500Y218000D01*
X299500Y46000D02*
X393500D01*
X408000Y60500D02*
Y107000D01*
X393500Y46000D02*
X408000Y60500D01*
X387500Y134500D02*
X408000Y114000D01*
Y107000D02*
Y114000D01*
X365000Y107000D02*
X408000D01*
X360189Y179811D02*
Y184811D01*
X360000Y185000D02*
X360189Y184811D01*
X360150Y112000D02*
X363500Y108650D01*
Y108500D02*
Y108650D01*
Y108500D02*
X365000Y107000D01*
X291800Y53700D02*
X299500Y46000D01*
X291800Y53700D02*
Y70000D01*
D78*
X351600Y70100D02*
D03*
X371600D02*
D03*
X381600D02*
D03*
X391600D02*
D03*
X361600Y80100D02*
D03*
X381600D02*
D03*
X391600D02*
D03*
X361600Y70100D02*
D03*
X371600Y80100D02*
D03*
X401600Y70100D02*
D03*
Y80100D02*
D03*
X331800Y80000D02*
D03*
X311800D02*
D03*
X301800D02*
D03*
X321800Y70000D02*
D03*
X301800D02*
D03*
X321800Y80000D02*
D03*
X311800Y70000D02*
D03*
X271800D02*
D03*
X281800D02*
D03*
X291800D02*
D03*
D79*
X351600Y80100D02*
D03*
X331800Y70000D02*
D03*
X261800D02*
D03*
D80*
X380000Y135000D02*
D03*
X379900Y123100D02*
D03*
X379500Y208500D02*
D03*
X65000Y77500D02*
D03*
X75500Y93000D02*
D03*
X136000Y46000D02*
D03*
X130000Y76000D02*
D03*
X134000Y80000D02*
D03*
X138000Y76000D02*
D03*
Y84000D02*
D03*
X130000D02*
D03*
X156000D02*
D03*
X160000Y88000D02*
D03*
X164000Y84000D02*
D03*
X168000Y88000D02*
D03*
X172000Y84000D02*
D03*
X176000Y88000D02*
D03*
Y80000D02*
D03*
X172000Y76000D02*
D03*
X168000Y80000D02*
D03*
X164000Y76000D02*
D03*
X160000Y80000D02*
D03*
X156000Y76000D02*
D03*
D81*
X76000Y75000D02*
D03*
X88523Y89055D02*
D03*
X85523Y90555D02*
D03*
X88023Y93555D02*
D03*
X85523Y96555D02*
D03*
X80000Y79000D02*
D03*
X76000Y88500D02*
D03*
X122000Y98000D02*
D03*
X247500Y64500D02*
D03*
X243500Y79203D02*
D03*
X245813Y57504D02*
D03*
X331000Y107000D02*
D03*
X365094Y151500D02*
D03*
X361650D02*
D03*
X266500Y302500D02*
D03*
X278713Y294557D02*
D03*
X364000Y185000D02*
D03*
X364150Y112000D02*
D03*
X197000Y56325D02*
D03*
X218925Y56250D02*
D03*
X238435Y79065D02*
D03*
X241000Y194500D02*
D03*
Y154500D02*
D03*
X361500Y224500D02*
D03*
X364945D02*
D03*
X328410Y136260D02*
D03*
X328260Y209260D02*
D03*
X330000Y216000D02*
D03*
X229000Y111000D02*
D03*
X233000D02*
D03*
X241000Y114500D02*
D03*
X216500Y79000D02*
D03*
X220000D02*
D03*
X200500Y101000D02*
D03*
X207500D02*
D03*
X229000Y151000D02*
D03*
X233000D02*
D03*
X216500Y119000D02*
D03*
X220000D02*
D03*
X200500Y141000D02*
D03*
X207500D02*
D03*
X238435Y119065D02*
D03*
X229000Y231000D02*
D03*
X233000D02*
D03*
X241000Y234500D02*
D03*
X216500Y199000D02*
D03*
X220000D02*
D03*
X200500Y221000D02*
D03*
X207500D02*
D03*
X238435Y199065D02*
D03*
Y159065D02*
D03*
X207500Y181000D02*
D03*
X200500D02*
D03*
X220000Y159000D02*
D03*
X216500D02*
D03*
X233000Y191000D02*
D03*
X229000D02*
D03*
X330150Y157000D02*
D03*
Y143000D02*
D03*
X330000Y120850D02*
D03*
X360150Y112000D02*
D03*
X360000Y185000D02*
D03*
X331000Y180000D02*
D03*
X329850Y193850D02*
D03*
X329000Y230000D02*
D03*
X278000Y282000D02*
D03*
X248000Y277000D02*
D03*
X272000Y298500D02*
D03*
X352150Y134000D02*
D03*
X348150Y130000D02*
D03*
Y134000D02*
D03*
X338150Y132000D02*
D03*
X352150Y130000D02*
D03*
X348000Y203000D02*
D03*
Y207000D02*
D03*
X352000Y203000D02*
D03*
Y207000D02*
D03*
X338000Y205000D02*
D03*
D82*
X72500Y80425D02*
D03*
Y83575D02*
D03*
D83*
X128565Y251935D02*
D03*
X192565D02*
D03*
X225065D02*
D03*
X160565D02*
D03*
M02*
