G04*
G04 #@! TF.GenerationSoftware,Altium Limited,Altium Designer,24.9.1 (31)*
G04*
G04 Layer_Color=0*
%FSLAX25Y25*%
%MOIN*%
G70*
G04*
G04 #@! TF.SameCoordinates,4BBB15B1-EA9B-4C66-A1CB-66718B52E77B*
G04*
G04*
G04 #@! TF.FilePolarity,Positive*
G04*
G01*
G75*
%ADD85C,0.00100*%
G36*
X92000Y138000D02*
Y137015D01*
X91616Y135083D01*
X90862Y133263D01*
X89767Y131625D01*
X88375Y130233D01*
X86737Y129138D01*
X84917Y128384D01*
X82985Y128000D01*
X82000D01*
Y128000D01*
X0D01*
Y208000D01*
X82000Y208000D01*
X82985Y208000D01*
X84917Y207616D01*
X86737Y206862D01*
X88375Y205767D01*
X89767Y204375D01*
X90862Y202737D01*
X91616Y200917D01*
X92000Y198985D01*
X92000Y198000D01*
X92000Y198000D01*
D01*
X92000Y138000D01*
D02*
G37*
G36*
X190000Y38000D02*
X240000D01*
Y0D01*
X190000D01*
Y38000D01*
D02*
G37*
G36*
X102000Y215000D02*
Y257500D01*
X116000D01*
Y215000D01*
X102000D01*
D02*
G37*
G36*
X130000Y135000D02*
X164000D01*
Y116000D01*
X130000D01*
Y135000D01*
D02*
G37*
G36*
X75200Y27100D02*
X109000D01*
Y10800D01*
X75200D01*
Y27100D01*
D02*
G37*
G36*
X415800Y190000D02*
X390800D01*
Y145000D01*
X415800D01*
Y190000D01*
D02*
G37*
D85*
X390800Y307000D02*
G02*
X415800Y282000I0J-25000D01*
G01*
Y65000D01*
D02*
G02*
X390800Y40000I-25000J0D01*
G01*
X25000D01*
D02*
G02*
X0Y65000I0J25000D01*
G01*
Y283000D01*
D02*
G02*
X24000Y307000I24000J0D01*
G01*
D01*
X390800D01*
M02*
