M48
;Layer_Color=9474304
;FILE_FORMAT=2:5
INCH,LZ
;TYPE=PLATED
T01F00S00C0.01200
T02F00S00C0.01300
T03F00S00C0.03543
T04F00S00C0.03937
T05F00S00C0.04000
T06F00S00C0.04016
T07F00S00C0.04300
T08F00S00C0.04400
%
T01
X0065Y00775
X00725Y0080425
Y0083575
X0076Y00885
X00755Y0093
X0085523Y0090555
X0088523Y0089055
X0088023Y0093555
X0085523Y0096555
X008Y0079
X0076Y0075
X013Y0076
X0134Y008
X0138Y0076
Y0084
X013
X0122Y0098
X0156Y0084
Y0076
X0136Y0046
X0164Y0076
Y0084
X016Y0088
X0168
X0172Y0084
X0176Y0088
Y008
X0172Y0076
X0168Y008
X016
X02165Y0079
X022
X0238435Y0079065
X02435Y0079203
X02475Y00645
X0245813Y0057504
X0218925Y005625
X0197Y0056325
X02005Y0101
X02075
X02165Y0119
X022
X0229Y0111
X0233
X0241Y01145
X0238435Y0119065
X0233Y0151
X0229
X0241Y01545
X02075Y0141
X02005
X033015Y0143
X032841Y013626
X033815Y0132
X034815Y013
Y0134
X035215
Y013
X036015Y0112
X036415
X03799Y01231
X038Y0135
X0365094Y01515
X036165
X033Y012085
X0331Y0107
X033015Y0157
X0331Y018
X032985Y019385
X032826Y020926
X033Y0216
X0329Y023
X0338Y0205
X0348Y0203
Y0207
X0352
Y0203
X036Y0185
X0364
X03795Y02085
X0364945Y02245
X03615
X0241Y02345
X0233Y0231
X0229
X02075Y0221
X02005
X02165Y0199
X022
X0229Y0191
X0233
X0241Y01945
X0238435Y0199065
Y0159065
X022Y0159
X02165
X02075Y0181
X02005
X0248Y0277
X0278Y0282
X0278713Y0294557
X0272Y02985
X02665Y03025
T02
X0160565Y0251935
X0192565
X0225065
X0128565
T03
X0164421Y0269417
X0186579
X0196421
X0218579
X0228421
X0154579
X0132421
X0122579
T04
X03916Y00701
Y00801
X04016
Y00701
T05
X003693Y0228095
Y0239906
X0048741
Y0228095
Y0264094
Y0275905
X003693
Y0264094
T06
X02618Y007
X02718
X02818
X02918
X03018
Y008
X03118
Y007
X03218
X03318
Y008
X03218
X03516Y00801
Y00701
X03616
X03716
X03816
Y00801
X03716
X03616
T07
X03157Y02502
Y02602
X03316
X03416
X03516
X03616
X03716
X03816
X03916
X04016
Y02502
X03916
X03816
X03716
X03616
X03516
X03416
X03316
X03057
Y02602
X02957
Y02502
X02857
Y02602
X02757
Y02502
X02657
Y02602
X02557
Y02502
X02457
Y02602
T08
X0038Y0092
Y0103811
M30
