G04*
G04 #@! TF.GenerationSoftware,Altium Limited,Altium Designer,24.9.1 (31)*
G04*
G04 Layer_Physical_Order=1*
G04 Layer_Color=255*
%FSLAX25Y25*%
%MOIN*%
G70*
G04*
G04 #@! TF.SameCoordinates,4BBB15B1-EA9B-4C66-A1CB-66718B52E77B*
G04*
G04*
G04 #@! TF.FilePolarity,Positive*
G04*
G01*
G75*
%ADD12C,0.02000*%
%ADD17C,0.01000*%
%ADD22R,0.02165X0.02953*%
G04:AMPARAMS|DCode=23|XSize=9.84mil|YSize=19.68mil|CornerRadius=1.97mil|HoleSize=0mil|Usage=FLASHONLY|Rotation=90.000|XOffset=0mil|YOffset=0mil|HoleType=Round|Shape=RoundedRectangle|*
%AMROUNDEDRECTD23*
21,1,0.00984,0.01575,0,0,90.0*
21,1,0.00591,0.01968,0,0,90.0*
1,1,0.00394,0.00787,0.00295*
1,1,0.00394,0.00787,-0.00295*
1,1,0.00394,-0.00787,-0.00295*
1,1,0.00394,-0.00787,0.00295*
%
%ADD23ROUNDEDRECTD23*%
%ADD24C,0.04724*%
%ADD25R,0.05709X0.05315*%
%ADD26R,0.04000X0.03000*%
%ADD27R,0.03000X0.04000*%
%ADD28R,0.02200X0.05000*%
%ADD29R,0.04000X0.04500*%
%ADD30R,0.09756X0.03697*%
%ADD31R,0.27300X0.26700*%
%ADD32R,0.04166X0.06741*%
%ADD33R,0.03200X0.03200*%
%ADD34R,0.14600X0.04310*%
%ADD35R,0.07165X0.04724*%
%ADD36R,0.04134X0.06299*%
G04:AMPARAMS|DCode=37|XSize=17.72mil|YSize=61.02mil|CornerRadius=1.95mil|HoleSize=0mil|Usage=FLASHONLY|Rotation=90.000|XOffset=0mil|YOffset=0mil|HoleType=Round|Shape=RoundedRectangle|*
%AMROUNDEDRECTD37*
21,1,0.01772,0.05713,0,0,90.0*
21,1,0.01382,0.06102,0,0,90.0*
1,1,0.00390,0.02856,0.00691*
1,1,0.00390,0.02856,-0.00691*
1,1,0.00390,-0.02856,-0.00691*
1,1,0.00390,-0.02856,0.00691*
%
%ADD37ROUNDEDRECTD37*%
%ADD38R,0.02953X0.02165*%
%ADD39R,0.03543X0.02559*%
%ADD40R,0.04558X0.05363*%
%ADD41R,0.03248X0.05217*%
%ADD42R,0.07087X0.07087*%
%ADD43R,0.00902X0.04547*%
%ADD44R,0.04547X0.00902*%
%ADD45R,0.02362X0.02559*%
%ADD46R,0.02205X0.02362*%
%ADD47O,0.05709X0.02362*%
%ADD66C,0.05512*%
%ADD67R,0.05512X0.05512*%
%ADD68C,0.07000*%
%ADD69C,0.06400*%
%ADD70C,0.12000*%
%ADD71C,0.06300*%
G04:AMPARAMS|DCode=73|XSize=35.43mil|YSize=62.99mil|CornerRadius=1.95mil|HoleSize=0mil|Usage=FLASHONLY|Rotation=0.000|XOffset=0mil|YOffset=0mil|HoleType=Round|Shape=RoundedRectangle|*
%AMROUNDEDRECTD73*
21,1,0.03543,0.05909,0,0,0.0*
21,1,0.03154,0.06299,0,0,0.0*
1,1,0.00390,0.01577,-0.02955*
1,1,0.00390,-0.01577,-0.02955*
1,1,0.00390,-0.01577,0.02955*
1,1,0.00390,0.01577,0.02955*
%
%ADD73ROUNDEDRECTD73*%
%ADD74C,0.02500*%
%ADD75C,0.00902*%
%ADD76C,0.01500*%
%ADD77C,0.06000*%
%ADD78C,0.06378*%
G04:AMPARAMS|DCode=79|XSize=63.78mil|YSize=63.78mil|CornerRadius=15.95mil|HoleSize=0mil|Usage=FLASHONLY|Rotation=0.000|XOffset=0mil|YOffset=0mil|HoleType=Round|Shape=RoundedRectangle|*
%AMROUNDEDRECTD79*
21,1,0.06378,0.03189,0,0,0.0*
21,1,0.03189,0.06378,0,0,0.0*
1,1,0.03189,0.01595,-0.01595*
1,1,0.03189,-0.01595,-0.01595*
1,1,0.03189,-0.01595,0.01595*
1,1,0.03189,0.01595,0.01595*
%
%ADD79ROUNDEDRECTD79*%
%ADD80C,0.03000*%
%ADD81C,0.02500*%
%ADD82C,0.02300*%
%ADD83C,0.02600*%
G36*
X143500Y101000D02*
X116000D01*
Y111000D01*
X143500D01*
Y101000D01*
D02*
G37*
G36*
X130000Y94000D02*
X116000D01*
Y100000D01*
X130000D01*
Y94000D01*
D02*
G37*
G36*
X78500Y96937D02*
X78453D01*
Y89209D01*
X77953Y89110D01*
X77727Y89654D01*
X77154Y90227D01*
X76405Y90537D01*
X75595D01*
X74846Y90227D01*
X74273Y89654D01*
X73963Y88905D01*
Y88095D01*
X74273Y87346D01*
X74808Y86811D01*
Y86001D01*
X74743Y85958D01*
X74526Y85632D01*
X74449Y85248D01*
Y84658D01*
X74526Y84273D01*
X74511Y83914D01*
X74445Y83816D01*
X74370Y83725D01*
X74359Y83687D01*
X74337Y83654D01*
X74314Y83538D01*
X74279Y83425D01*
X74283Y83386D01*
X74275Y83347D01*
Y82622D01*
X74283Y82583D01*
X74279Y82543D01*
X74314Y82430D01*
X74337Y82315D01*
X74359Y82282D01*
X74370Y82243D01*
X74445Y82152D01*
X74511Y82054D01*
X74526Y81695D01*
X74449Y81311D01*
Y80721D01*
X74526Y80336D01*
X74743Y80011D01*
X75069Y79793D01*
X75453Y79717D01*
X76171D01*
X76240Y79703D01*
X77764D01*
X77963Y79405D01*
Y78595D01*
X78209Y78000D01*
X78010Y77591D01*
X77916Y77500D01*
X74000D01*
Y75496D01*
X73963Y75405D01*
Y74595D01*
X74000Y74504D01*
Y73000D01*
X55000D01*
Y80500D01*
X62365D01*
X62531Y80334D01*
X62694Y80225D01*
X62802Y80062D01*
X62802Y80062D01*
X63432Y79432D01*
X63693Y79258D01*
X64000Y79197D01*
X67228D01*
X67306Y79213D01*
X67385D01*
X67458Y79243D01*
X67535Y79258D01*
X67601Y79302D01*
X67674Y79333D01*
X67730Y79388D01*
X67796Y79432D01*
X67808Y79451D01*
X67902Y79513D01*
X68051Y79543D01*
X69547D01*
X69663Y79566D01*
X69780Y79578D01*
X69815Y79597D01*
X69854Y79604D01*
X69952Y79670D01*
X70056Y79725D01*
X70431Y80033D01*
X70456Y80063D01*
X70489Y80086D01*
X70555Y80184D01*
X70630Y80275D01*
X70641Y80313D01*
X70663Y80346D01*
X70686Y80462D01*
X70698Y80500D01*
X70721Y80575D01*
X70717Y80614D01*
X70724Y80653D01*
Y83347D01*
X70717Y83386D01*
X70721Y83425D01*
X70686Y83538D01*
X70663Y83654D01*
X70641Y83687D01*
X70630Y83725D01*
X70555Y83816D01*
X70489Y83914D01*
X70456Y83937D01*
X70431Y83967D01*
X70056Y84275D01*
X69953Y84330D01*
X69854Y84396D01*
X69815Y84403D01*
X69780Y84422D01*
X69663Y84434D01*
X69547Y84457D01*
X68051D01*
X67902Y84487D01*
X67808Y84549D01*
X67796Y84568D01*
X67730Y84612D01*
X67674Y84668D01*
X67601Y84698D01*
X67535Y84742D01*
X67500Y84749D01*
Y99000D01*
X78500D01*
Y96937D01*
D02*
G37*
G36*
X103000Y88000D02*
X102500Y87500D01*
X79000D01*
Y88628D01*
X79021Y88641D01*
X79064Y88707D01*
X79120Y88763D01*
X79150Y88836D01*
X79194Y88902D01*
X79210Y88979D01*
X79240Y89052D01*
Y89131D01*
X79256Y89209D01*
Y96700D01*
X79303Y96937D01*
Y98803D01*
X79500Y99000D01*
X103000D01*
Y88000D01*
D02*
G37*
G36*
X103050Y83960D02*
X103000Y83910D01*
Y76000D01*
X86000Y76000D01*
X80000Y82000D01*
X79569D01*
X79227Y82228D01*
X78724Y82328D01*
X76240D01*
X76171Y82314D01*
X75453D01*
X75078Y82622D01*
Y83347D01*
X75453Y83654D01*
X76059D01*
X76128Y83640D01*
X76240D01*
X76310Y83654D01*
X77028D01*
X77412Y83730D01*
X77737Y83948D01*
X77955Y84273D01*
X78000Y84500D01*
X102510D01*
X103050Y83960D01*
D02*
G37*
G36*
X100796Y215000D02*
X100887Y214539D01*
X101148Y214148D01*
X101539Y213887D01*
X102000Y213796D01*
X116000D01*
X116461Y213887D01*
X116851Y214148D01*
X117113Y214539D01*
X117204Y215000D01*
Y219000D01*
X131500D01*
Y136204D01*
X130000D01*
X129539Y136113D01*
X129148Y135852D01*
X128887Y135461D01*
X128796Y135000D01*
Y124796D01*
X115754Y111754D01*
X115693Y111742D01*
X115500Y111613D01*
D01*
X115432Y111568D01*
X115258Y111307D01*
X115197Y111000D01*
Y101000D01*
X115258Y100693D01*
X115387Y100500D01*
X115258Y100307D01*
X115197Y100000D01*
X66500D01*
Y84000D01*
X67228D01*
X67263Y83948D01*
X67588Y83730D01*
X67972Y83654D01*
X69547D01*
X69922Y83347D01*
Y80653D01*
X69547Y80346D01*
X67972D01*
X67588Y80270D01*
X67263Y80052D01*
X67228Y80000D01*
X64000D01*
X63370Y80630D01*
Y80902D01*
X63098D01*
X61500Y82500D01*
X52000D01*
Y99000D01*
X51000Y100000D01*
X36000D01*
X34000Y102000D01*
Y112000D01*
X36000Y114000D01*
X44000D01*
Y126796D01*
X82000D01*
X82000Y126796D01*
X82985D01*
X83101Y126819D01*
X83220D01*
X85152Y127203D01*
X85261Y127249D01*
X85378Y127272D01*
X87198Y128025D01*
X87296Y128091D01*
X87406Y128137D01*
X89044Y129231D01*
X89127Y129315D01*
X89226Y129381D01*
X90619Y130774D01*
X90685Y130872D01*
X90769Y130956D01*
X91863Y132594D01*
X91909Y132704D01*
X91974Y132802D01*
X92728Y134622D01*
X92751Y134739D01*
X92797Y134848D01*
X93181Y136780D01*
Y136899D01*
X93204Y137015D01*
Y138000D01*
X93204Y198000D01*
X93204Y198000D01*
X93204Y198985D01*
X93181Y199101D01*
Y199220D01*
X92797Y201152D01*
X92751Y201261D01*
X92728Y201378D01*
X91975Y203198D01*
X91909Y203296D01*
X91863Y203406D01*
X90769Y205044D01*
X90685Y205128D01*
X90619Y205226D01*
X89226Y206619D01*
X89127Y206685D01*
X89044Y206769D01*
X87406Y207863D01*
X87296Y207909D01*
X87198Y207974D01*
X85378Y208728D01*
X85261Y208751D01*
X85152Y208797D01*
X83220Y209181D01*
X83101D01*
X82985Y209204D01*
X82000Y209204D01*
X44000Y209204D01*
Y228000D01*
X48000Y232000D01*
X100796D01*
Y215000D01*
D02*
G37*
G36*
X146000Y74000D02*
X119000D01*
Y92000D01*
X146000D01*
Y74000D01*
D02*
G37*
G36*
X178000Y73000D02*
X148000D01*
Y110500D01*
X178000D01*
Y73000D01*
D02*
G37*
G36*
X246538Y81038D02*
X246500Y81000D01*
Y69500D01*
X241500D01*
Y81500D01*
X246347D01*
X246538Y81038D01*
D02*
G37*
G36*
X240000Y69500D02*
X234500D01*
Y73500D01*
X236500Y75500D01*
Y85000D01*
X240000D01*
Y69500D01*
D02*
G37*
D12*
X136000Y46000D02*
X142500D01*
X240600Y57500D02*
X252000D01*
X240500Y57400D02*
X240600Y57500D01*
X240500Y56400D02*
Y57400D01*
X365190Y148459D02*
Y151404D01*
Y148459D02*
X365650Y148000D01*
X358650Y148500D02*
X361650Y151500D01*
X365094D02*
X365190Y151404D01*
X218925Y52075D02*
Y60425D01*
X219000Y60500D01*
X218850Y52000D02*
X218925Y52075D01*
X364945Y224500D02*
X365040Y224404D01*
X358500Y221500D02*
X361500Y224500D01*
X365040Y221460D02*
X365500Y221000D01*
X365040Y221460D02*
Y224404D01*
D17*
X379900Y135100D02*
X380000Y135000D01*
X375750Y135100D02*
X379900D01*
X375650Y123200D02*
X379800D01*
X385000Y133000D02*
Y188000D01*
X408000Y211000D01*
Y253800D01*
X401600Y208100D02*
Y250200D01*
X379500Y145444D02*
Y186000D01*
X401600Y208100D01*
Y260200D02*
X408000Y253800D01*
X375650Y129200D02*
X381200D01*
X385000Y133000D01*
X375650Y186650D02*
X391600Y202600D01*
Y250200D01*
X375650Y141594D02*
X379500Y145444D01*
X375650Y141200D02*
Y141594D01*
Y147200D02*
Y186650D01*
X381600Y250200D02*
X386500Y245300D01*
Y202900D02*
Y245300D01*
X383500Y205900D02*
Y238300D01*
X371600Y250200D02*
X383500Y238300D01*
X379800Y196200D02*
X386500Y202900D01*
X375500Y196200D02*
X379800D01*
X375500Y202200D02*
X379800D01*
X383500Y205900D01*
X375250Y208600D02*
X379400D01*
X351600Y250200D02*
X351800D01*
X379500Y218594D02*
Y222500D01*
X351800Y250200D02*
X379500Y222500D01*
X375500Y214200D02*
Y214594D01*
X379500Y218594D01*
X341600Y249400D02*
X349000Y242000D01*
X341600Y249400D02*
Y250200D01*
X354094Y242000D02*
X375500Y220594D01*
X349000Y242000D02*
X354094D01*
X375500Y220200D02*
Y220594D01*
X375650Y135200D02*
X375750Y135100D01*
X76065Y72065D02*
X76130Y72000D01*
X76065Y72065D02*
Y74935D01*
X76000Y75000D02*
X76065Y74935D01*
X79713Y79287D02*
Y80027D01*
X78724Y81016D02*
X79713Y80027D01*
Y79287D02*
X80000Y79000D01*
X76240Y81016D02*
X78724D01*
X79935Y73065D02*
Y78935D01*
X79870Y73000D02*
X79935Y73065D01*
Y78935D02*
X80000Y79000D01*
X76120Y84961D02*
X76128Y84953D01*
X76000Y88500D02*
X76120Y88380D01*
X76128Y84953D02*
X76240D01*
X76120Y84961D02*
Y88380D01*
X219350Y69250D02*
X220850Y70750D01*
X221186D02*
X221436Y71000D01*
X230370D01*
X229185Y69815D02*
X230370Y71000D01*
X220850Y70750D02*
X221186D01*
X219350Y69000D02*
Y69250D01*
X236750Y71750D02*
X237000Y72000D01*
X236000Y71000D02*
X236750Y71750D01*
X230370Y71000D02*
X236000D01*
X252500Y143000D02*
X274500Y165000D01*
X348362Y172000D02*
X351508Y175146D01*
X288000Y165000D02*
X348512D01*
X252500Y183000D02*
X263500Y172000D01*
X348362D01*
X348512Y165000D02*
X351658Y161854D01*
X274500Y165000D02*
X288000D01*
X149500Y46000D02*
X149850Y46350D01*
Y66500D01*
X143150D02*
X143500Y66850D01*
Y77500D01*
X238000Y78224D02*
X238435Y78659D01*
Y79065D01*
X237000Y72000D02*
X238000Y73000D01*
Y78224D01*
X236750Y64600D02*
Y71750D01*
X329850Y120850D02*
X330000Y121000D01*
X331000Y107000D02*
X335000D01*
X358650Y148000D02*
Y148500D01*
X278713Y290614D02*
Y298500D01*
X364000Y185000D02*
Y185406D01*
X364500Y185906D01*
Y187500D01*
X364150Y112000D02*
Y112406D01*
X364650Y112906D01*
Y114500D01*
X365650Y115500D01*
X197000Y52150D02*
X197150Y52000D01*
X197000Y52150D02*
Y60500D01*
X238370Y79130D02*
X238435Y79065D01*
X238370Y79130D02*
Y83500D01*
X212000Y68350D02*
X212650Y69000D01*
X212000Y60500D02*
Y68350D01*
X212150Y52000D02*
Y60350D01*
X212000Y60500D02*
X212150Y60350D01*
X203850Y52000D02*
X212150D01*
X204000Y52150D02*
Y60500D01*
X203850Y52000D02*
X204000Y52150D01*
X238370Y199130D02*
X238435Y199065D01*
X241000Y190000D02*
Y194500D01*
X238370Y159130D02*
X238435Y159065D01*
X241000Y150000D02*
Y154500D01*
X238370Y119130D02*
X238435Y119065D01*
X193280Y92721D02*
X215846D01*
X193000Y93000D02*
X193280Y92721D01*
X358500Y221000D02*
Y221500D01*
X351150Y107854D02*
Y115257D01*
X350406Y116000D02*
X351150Y115257D01*
X334543Y103130D02*
X335528Y102146D01*
X334150Y103130D02*
X334543D01*
X335528Y102146D02*
X342150D01*
X300500Y98000D02*
X346512D01*
X295500Y103000D02*
X300500Y98000D01*
X328410Y132000D02*
Y136260D01*
X328260Y205000D02*
Y209260D01*
X330000Y216000D02*
Y220850D01*
X282327Y287000D02*
X284000D01*
X278713Y290614D02*
X282327Y287000D01*
X132370Y247106D02*
X170000Y209476D01*
Y140000D02*
Y209476D01*
Y140000D02*
X193000Y117000D01*
X164370Y247500D02*
X175000Y236870D01*
Y158000D02*
X191500Y141500D01*
X175000Y158000D02*
Y236870D01*
X180000Y224000D02*
X196370Y240370D01*
X180000Y193000D02*
X191500Y181500D01*
X180000Y193000D02*
Y224000D01*
X196370Y240370D02*
Y247500D01*
X244870Y223000D02*
X252500D01*
X253500Y224000D01*
Y224500D02*
X268000Y239000D01*
X346362D01*
X253500Y224000D02*
Y224500D01*
X346362Y239000D02*
X350508Y234854D01*
X351000D01*
X252000Y183000D02*
X252500D01*
X252000Y143000D02*
X252500D01*
X350658Y102146D02*
X351150D01*
X346512Y98000D02*
X350658Y102146D01*
X252000Y103000D02*
X295500D01*
X227500Y109500D02*
X229000Y111000D01*
X227500Y106500D02*
Y109500D01*
X241000Y110000D02*
Y114500D01*
X220500Y79500D02*
Y82000D01*
X221500Y83000D01*
X220000Y79000D02*
X220500Y79500D01*
X215500Y80000D02*
Y82000D01*
X214500Y83000D02*
X215500Y82000D01*
Y80000D02*
X216500Y79000D01*
X200500Y96370D02*
Y101000D01*
X214500Y129776D02*
X214886Y130161D01*
X214500Y123000D02*
Y129776D01*
X214886Y130161D02*
X215846D01*
X227500Y149500D02*
X229000Y151000D01*
X227500Y146500D02*
Y149500D01*
X220500Y119500D02*
Y122000D01*
X221500Y123000D01*
X220000Y119000D02*
X220500Y119500D01*
X215500Y120000D02*
Y122000D01*
X214500Y123000D02*
X215500Y122000D01*
Y120000D02*
X216500Y119000D01*
X200500Y136370D02*
Y141000D01*
X238370Y119130D02*
Y123500D01*
X227500Y229500D02*
X229000Y231000D01*
X227500Y226500D02*
Y229500D01*
X241000Y230000D02*
Y234500D01*
X220500Y199500D02*
Y202000D01*
X221500Y203000D01*
X220000Y199000D02*
X220500Y199500D01*
X215500Y200000D02*
Y202000D01*
X214500Y203000D02*
X215500Y202000D01*
Y200000D02*
X216500Y199000D01*
X200500Y216370D02*
Y221000D01*
X238370Y199130D02*
Y203500D01*
Y159130D02*
Y163500D01*
X200500Y176370D02*
Y181000D01*
X215500Y160000D02*
X216500Y159000D01*
X214500Y163000D02*
X215500Y162000D01*
Y160000D02*
Y162000D01*
X220000Y159000D02*
X220500Y159500D01*
Y162000D02*
X221500Y163000D01*
X220500Y159500D02*
Y162000D01*
X227500Y186500D02*
Y189500D01*
X229000Y191000D01*
X193000Y100000D02*
Y117000D01*
X192500Y140000D02*
X193000D01*
X191500Y141000D02*
X192500Y140000D01*
X191500Y141000D02*
Y141500D01*
Y181000D02*
X192500Y180000D01*
X191500Y181000D02*
Y181500D01*
X192500Y180000D02*
X193000D01*
Y225000D02*
X203000Y235000D01*
X193000Y220000D02*
Y225000D01*
X203000Y235000D02*
X216764D01*
X228870Y247106D02*
Y247500D01*
X216764Y235000D02*
X228870Y247106D01*
X244870Y103000D02*
X252000D01*
X244805Y103065D02*
Y109935D01*
Y103065D02*
X244870Y103000D01*
X244740Y110000D02*
X244805Y109935D01*
X214886Y90161D02*
X215846D01*
X214500Y83000D02*
Y89776D01*
X214886Y90161D01*
X193280Y132720D02*
X215846D01*
X193000Y133000D02*
X193280Y132720D01*
X244740Y150000D02*
X244805Y149935D01*
Y143065D02*
X244870Y143000D01*
X244805Y143065D02*
Y149935D01*
X244870Y143000D02*
X252000D01*
X244870Y183000D02*
X252000D01*
X244805Y183065D02*
Y189935D01*
Y183065D02*
X244870Y183000D01*
X244740Y190000D02*
X244805Y189935D01*
X214886Y170161D02*
X215846D01*
X214500Y163000D02*
Y169776D01*
X214886Y170161D01*
X193000Y173000D02*
X193280Y172721D01*
X215846D01*
X193280Y212720D02*
X215846D01*
X193000Y213000D02*
X193280Y212720D01*
X214500Y209776D02*
X214886Y210161D01*
X214500Y203000D02*
Y209776D01*
X214886Y210161D02*
X215846D01*
X244740Y230000D02*
X244805Y229935D01*
Y223065D02*
X244870Y223000D01*
X244805Y223065D02*
Y229935D01*
X351658Y161854D02*
X352150D01*
X351508Y175146D02*
X352000D01*
X330279Y157130D02*
X335150D01*
X330150Y157000D02*
X330279Y157130D01*
X330150Y143000D02*
Y147850D01*
X330000Y148000D02*
X330150Y147850D01*
X330000Y120850D02*
X330150Y121000D01*
X330000Y116000D02*
Y120850D01*
X365650Y115500D02*
Y116000D01*
X364500Y187500D02*
X365500Y188500D01*
Y189000D01*
X331000Y180000D02*
X335000D01*
X329850Y189000D02*
Y193850D01*
X330000Y194000D01*
X329850Y221000D02*
X330000Y220850D01*
X329000Y230000D02*
X329130Y230130D01*
X334000D01*
X278000Y282000D02*
X284000D01*
X248000Y277000D02*
X251500D01*
X268713Y298500D02*
X275287D01*
X164370Y247500D02*
Y269366D01*
X132370Y247106D02*
Y247500D01*
X196370Y269366D02*
X196421Y269417D01*
X196370Y247500D02*
Y269366D01*
X228421Y269417D02*
X228870Y268969D01*
Y247500D02*
Y268969D01*
X164370Y269366D02*
X164421Y269417D01*
X132370Y247500D02*
Y269366D01*
X132421Y269417D01*
X298517Y286001D02*
Y291999D01*
X301516D01*
X302515Y290999D01*
Y289000D01*
X301516Y288000D01*
X298517D01*
X304515Y286001D02*
X306514D01*
X305514D01*
Y289999D01*
X304515D01*
X309513Y286001D02*
Y289999D01*
X312512D01*
X313512Y289000D01*
Y286001D01*
X317511Y284001D02*
X318510D01*
X319510Y285001D01*
Y289999D01*
X316511D01*
X315511Y289000D01*
Y287000D01*
X316511Y286001D01*
X319510D01*
X324508D02*
X322509D01*
X321509Y287000D01*
Y289000D01*
X322509Y289999D01*
X324508D01*
X325508Y289000D01*
Y288000D01*
X321509D01*
X327507Y289999D02*
Y286001D01*
Y288000D01*
X328507Y289000D01*
X329507Y289999D01*
X330506D01*
X343502Y291999D02*
X339503D01*
Y289000D01*
X341503D01*
X339503D01*
Y286001D01*
X345501D02*
X347501D01*
X346501D01*
Y289999D01*
X345501D01*
X350500Y286001D02*
Y289999D01*
X353499D01*
X354499Y289000D01*
Y286001D01*
X360497Y291999D02*
Y286001D01*
X357498D01*
X356498Y287000D01*
Y289000D01*
X357498Y289999D01*
X360497D01*
X362496Y286001D02*
X364495D01*
X363496D01*
Y289999D01*
X362496D01*
X367494Y286001D02*
Y289999D01*
X370493D01*
X371493Y289000D01*
Y286001D01*
X375492Y284001D02*
X376491D01*
X377491Y285001D01*
Y289999D01*
X374492D01*
X373492Y289000D01*
Y287000D01*
X374492Y286001D01*
X377491D01*
X385489D02*
Y291999D01*
X388488D01*
X389487Y290999D01*
Y289000D01*
X388488Y288000D01*
X385489D01*
X395485Y290999D02*
X394486Y291999D01*
X392486D01*
X391487Y290999D01*
Y287000D01*
X392486Y286001D01*
X394486D01*
X395485Y287000D01*
X397485Y291999D02*
Y286001D01*
X400484D01*
X401483Y287000D01*
Y288000D01*
X400484Y289000D01*
X397485D01*
X400484D01*
X401483Y289999D01*
Y290999D01*
X400484Y291999D01*
X397485D01*
D22*
X79870Y72000D02*
D03*
X76130D02*
D03*
X241130Y103000D02*
D03*
X244870D02*
D03*
X220870Y106000D02*
D03*
X217130D02*
D03*
X244740Y110000D02*
D03*
X241000D02*
D03*
X234630Y83500D02*
D03*
X238370D02*
D03*
X234630Y123500D02*
D03*
X238370D02*
D03*
X244740Y150000D02*
D03*
X241000D02*
D03*
X220870Y146000D02*
D03*
X217130D02*
D03*
X241130Y143000D02*
D03*
X244870D02*
D03*
X241130Y183000D02*
D03*
X244870D02*
D03*
X220870Y186000D02*
D03*
X217130D02*
D03*
X244740Y190000D02*
D03*
X241000D02*
D03*
X234630Y163500D02*
D03*
X238370D02*
D03*
X220870Y226000D02*
D03*
X217130D02*
D03*
X244740Y230000D02*
D03*
X241000D02*
D03*
X241130Y223000D02*
D03*
X244870D02*
D03*
X234630Y203500D02*
D03*
X238370D02*
D03*
X375500Y214200D02*
D03*
X371760D02*
D03*
X375650Y147200D02*
D03*
X371909D02*
D03*
X375650Y141200D02*
D03*
X375500Y220200D02*
D03*
X375650Y135200D02*
D03*
X371909D02*
D03*
Y123200D02*
D03*
X375650D02*
D03*
X375650Y129200D02*
D03*
X371909D02*
D03*
X328410Y132000D02*
D03*
X332150D02*
D03*
X371909Y141200D02*
D03*
X328260Y205000D02*
D03*
X332000D02*
D03*
X371760Y196200D02*
D03*
X375500D02*
D03*
X375500Y202200D02*
D03*
X371760D02*
D03*
X375500Y208200D02*
D03*
X371760D02*
D03*
Y220200D02*
D03*
X255240Y277000D02*
D03*
X251500D02*
D03*
X132370Y247500D02*
D03*
X128630D02*
D03*
X164370D02*
D03*
X160630D02*
D03*
X228870D02*
D03*
X225130D02*
D03*
X196370D02*
D03*
X192630D02*
D03*
D23*
X76240Y84953D02*
D03*
Y82984D02*
D03*
Y81016D02*
D03*
Y79047D02*
D03*
X68760D02*
D03*
Y81016D02*
D03*
Y82984D02*
D03*
Y84953D02*
D03*
D24*
X123500Y80500D02*
D03*
X228000Y71000D02*
D03*
X303000Y172000D02*
D03*
X288000Y165000D02*
D03*
X303500Y239000D02*
D03*
X289500Y103000D02*
D03*
D25*
X127000Y103650D02*
D03*
Y97350D02*
D03*
D26*
X252000Y64500D02*
D03*
Y57500D02*
D03*
X193000Y93000D02*
D03*
Y100000D02*
D03*
X252000Y103000D02*
D03*
Y96000D02*
D03*
Y143000D02*
D03*
Y136000D02*
D03*
X193000Y133000D02*
D03*
Y140000D02*
D03*
Y173000D02*
D03*
Y180000D02*
D03*
X252000Y183000D02*
D03*
Y176000D02*
D03*
Y223000D02*
D03*
Y216000D02*
D03*
X193000Y213000D02*
D03*
Y220000D02*
D03*
D27*
X237000Y72000D02*
D03*
X244000D02*
D03*
X143500Y77500D02*
D03*
X150500D02*
D03*
X197000Y60500D02*
D03*
X204000D02*
D03*
X212000D02*
D03*
X219000D02*
D03*
X234500Y106500D02*
D03*
X227500D02*
D03*
X214500Y83000D02*
D03*
X221500D02*
D03*
X214500Y123000D02*
D03*
X221500D02*
D03*
X234500Y146500D02*
D03*
X227500D02*
D03*
X214500Y163000D02*
D03*
X221500D02*
D03*
X234500Y186500D02*
D03*
X227500D02*
D03*
X214500Y203000D02*
D03*
X221500D02*
D03*
X234500Y226500D02*
D03*
X227500D02*
D03*
X365650Y148000D02*
D03*
X358650D02*
D03*
X365650Y116000D02*
D03*
X358650D02*
D03*
X365500Y221000D02*
D03*
X358500D02*
D03*
X365500Y189000D02*
D03*
X358500D02*
D03*
D28*
X240500Y56400D02*
D03*
X244250Y64600D02*
D03*
X236750D02*
D03*
D29*
X149850Y66500D02*
D03*
X143150D02*
D03*
X212650Y69000D02*
D03*
X219350D02*
D03*
X203850Y52000D02*
D03*
X197150D02*
D03*
X218850D02*
D03*
X212150D02*
D03*
D30*
X138000Y87500D02*
D03*
Y105532D02*
D03*
D31*
X163250Y96516D02*
D03*
D32*
X106882Y105500D02*
D03*
X118118D02*
D03*
D33*
X142500Y46000D02*
D03*
X149500D02*
D03*
D34*
X95000Y93395D02*
D03*
Y81605D02*
D03*
D35*
X59000Y89248D02*
D03*
Y77752D02*
D03*
D36*
X69693Y93000D02*
D03*
X81307D02*
D03*
D37*
X215846Y97839D02*
D03*
Y95280D02*
D03*
Y92721D02*
D03*
Y90161D02*
D03*
X234154Y97839D02*
D03*
Y95280D02*
D03*
Y92721D02*
D03*
Y90161D02*
D03*
X215846Y137839D02*
D03*
Y135280D02*
D03*
Y132720D02*
D03*
Y130161D02*
D03*
X234154Y137839D02*
D03*
Y135280D02*
D03*
Y132720D02*
D03*
Y130161D02*
D03*
X215846Y177839D02*
D03*
Y175279D02*
D03*
Y172721D02*
D03*
Y170161D02*
D03*
X234154Y177839D02*
D03*
Y175279D02*
D03*
Y172721D02*
D03*
Y170161D02*
D03*
X215846Y217839D02*
D03*
Y215280D02*
D03*
Y212720D02*
D03*
Y210161D02*
D03*
X234154Y217839D02*
D03*
Y215280D02*
D03*
Y212720D02*
D03*
Y210161D02*
D03*
D38*
X200500Y172630D02*
D03*
Y176370D02*
D03*
X207500D02*
D03*
Y172630D02*
D03*
X244000Y92130D02*
D03*
Y95870D02*
D03*
X207500Y96370D02*
D03*
Y92630D02*
D03*
X200500D02*
D03*
Y96370D02*
D03*
Y132630D02*
D03*
Y136370D02*
D03*
X207500D02*
D03*
Y132630D02*
D03*
X244000Y132130D02*
D03*
Y135870D02*
D03*
Y172130D02*
D03*
Y175870D02*
D03*
X207500Y216370D02*
D03*
Y212630D02*
D03*
X200500D02*
D03*
Y216370D02*
D03*
X244000Y212130D02*
D03*
Y215870D02*
D03*
X334150Y103130D02*
D03*
Y106870D02*
D03*
X335150Y160870D02*
D03*
Y157130D02*
D03*
X335000Y176260D02*
D03*
Y180000D02*
D03*
X334000Y233870D02*
D03*
Y230130D02*
D03*
D39*
X351150Y107854D02*
D03*
Y102146D02*
D03*
X352150Y161854D02*
D03*
Y156146D02*
D03*
X351000Y234854D02*
D03*
Y229146D02*
D03*
X352000Y180854D02*
D03*
Y175146D02*
D03*
X343150Y162000D02*
D03*
Y156291D02*
D03*
X342150Y107854D02*
D03*
Y102146D02*
D03*
X343000Y180854D02*
D03*
Y175146D02*
D03*
X342000Y235000D02*
D03*
Y229291D02*
D03*
D40*
X350406Y116000D02*
D03*
X343893D02*
D03*
X350406Y148000D02*
D03*
X343893D02*
D03*
X350257Y221000D02*
D03*
X343743D02*
D03*
X350257Y189000D02*
D03*
X343743D02*
D03*
D41*
X336299Y116000D02*
D03*
X330000D02*
D03*
X336299Y148000D02*
D03*
X330000D02*
D03*
X336150Y221000D02*
D03*
X329850D02*
D03*
X336150Y189000D02*
D03*
X329850D02*
D03*
D42*
X350150Y132000D02*
D03*
X350000Y205000D02*
D03*
D43*
X347197Y138407D02*
D03*
X349165D02*
D03*
X351134D02*
D03*
X353102D02*
D03*
Y125593D02*
D03*
X351134D02*
D03*
X349165D02*
D03*
X347197D02*
D03*
X347047Y211407D02*
D03*
X349016D02*
D03*
X350984D02*
D03*
X352953D02*
D03*
Y198593D02*
D03*
X350984D02*
D03*
X349016D02*
D03*
X347047D02*
D03*
D44*
X356557Y134953D02*
D03*
Y132984D02*
D03*
Y131016D02*
D03*
Y129047D02*
D03*
X343742D02*
D03*
Y131016D02*
D03*
Y132984D02*
D03*
Y134953D02*
D03*
X356407Y207953D02*
D03*
Y205984D02*
D03*
Y204016D02*
D03*
Y202047D02*
D03*
X343593D02*
D03*
Y204016D02*
D03*
Y205984D02*
D03*
Y207953D02*
D03*
D45*
X337150Y127673D02*
D03*
Y124327D02*
D03*
Y136327D02*
D03*
Y139673D02*
D03*
X337000Y200673D02*
D03*
Y197327D02*
D03*
Y209327D02*
D03*
Y212673D02*
D03*
D46*
X278713Y298500D02*
D03*
X275287D02*
D03*
X265287D02*
D03*
X268713D02*
D03*
D47*
X262543Y292000D02*
D03*
Y287000D02*
D03*
Y282000D02*
D03*
Y277000D02*
D03*
X284000Y292000D02*
D03*
Y287000D02*
D03*
Y282000D02*
D03*
Y277000D02*
D03*
D66*
X122579Y269417D02*
D03*
X154579D02*
D03*
X186579D02*
D03*
X218579D02*
D03*
D67*
X132421D02*
D03*
X164421D02*
D03*
X196421D02*
D03*
X228421D02*
D03*
D68*
X36930Y228095D02*
D03*
Y239906D02*
D03*
X48741Y228095D02*
D03*
Y239906D02*
D03*
X36930Y264094D02*
D03*
Y275905D02*
D03*
X48741Y264094D02*
D03*
Y275905D02*
D03*
D69*
X38000Y92000D02*
D03*
Y103811D02*
D03*
D70*
X20000Y234000D02*
D03*
Y270000D02*
D03*
X21071Y97905D02*
D03*
D71*
X401600Y260200D02*
D03*
Y250200D02*
D03*
X391600Y260200D02*
D03*
Y250200D02*
D03*
X381600Y260200D02*
D03*
Y250200D02*
D03*
X371600Y260200D02*
D03*
Y250200D02*
D03*
X361600Y260200D02*
D03*
Y250200D02*
D03*
X351600Y260200D02*
D03*
Y250200D02*
D03*
X341600Y260200D02*
D03*
Y250200D02*
D03*
X331600Y260200D02*
D03*
Y250200D02*
D03*
X315700Y260200D02*
D03*
Y250200D02*
D03*
X305700Y260200D02*
D03*
Y250200D02*
D03*
X295700Y260200D02*
D03*
Y250200D02*
D03*
X285700Y260200D02*
D03*
Y250200D02*
D03*
X275700Y260200D02*
D03*
Y250200D02*
D03*
X265700Y260200D02*
D03*
Y250200D02*
D03*
X255700Y260200D02*
D03*
Y250200D02*
D03*
X245700Y260200D02*
D03*
Y250200D02*
D03*
D73*
X72500Y82000D02*
D03*
D74*
X244250Y64600D02*
X244350Y64500D01*
X252000D01*
D75*
X335394Y176260D02*
X336508Y175146D01*
X335000Y176260D02*
X335394D01*
X336508Y175146D02*
X343000D01*
X357830Y140180D02*
X364101Y146451D01*
X351134Y141984D02*
X355650Y146500D01*
X358650Y147500D02*
Y148000D01*
X357650Y146500D02*
X358650Y147500D01*
X355650Y146500D02*
X357650D01*
X364101Y146451D02*
X364601D01*
X351134Y138407D02*
Y141984D01*
X262543Y292000D02*
X263822D01*
X265287Y293466D02*
Y298500D01*
X263822Y292000D02*
X265287Y293466D01*
X265467Y298680D02*
Y301035D01*
X266500Y302068D01*
X265287Y298500D02*
X265467Y298680D01*
X266500Y302068D02*
Y302500D01*
X342150Y114257D02*
X343893Y116000D01*
X342150Y107854D02*
Y114257D01*
X341245Y235000D02*
X342000D01*
X334565Y234435D02*
X340680D01*
X334000Y233870D02*
X334565Y234435D01*
X340680D02*
X341245Y235000D01*
X237500Y103000D02*
X241130D01*
X234500Y106000D02*
Y106500D01*
Y109500D01*
X233000Y111000D02*
X234500Y109500D01*
X207500Y96370D02*
Y101000D01*
X234500Y146000D02*
X237500Y143000D01*
X234500Y146000D02*
Y146500D01*
Y149500D01*
X233000Y151000D02*
X234500Y149500D01*
X207500Y136370D02*
Y141000D01*
X234154Y217839D02*
Y226153D01*
X234500Y226500D02*
Y229500D01*
X233000Y231000D02*
X234500Y229500D01*
X207500Y216370D02*
Y221000D01*
Y176370D02*
Y181000D01*
X233000Y191000D02*
X234500Y189500D01*
Y186500D02*
Y189500D01*
X234154Y97839D02*
Y106154D01*
Y95280D02*
X234449Y95575D01*
X243705D01*
X234154Y92721D02*
X234449Y92425D01*
X243705D01*
X244000Y92130D01*
X234630Y83500D02*
Y89727D01*
X234154Y90161D02*
X234195D01*
X234630Y89727D01*
X228780Y92721D02*
X234154D01*
X220870Y100630D02*
X228780Y92721D01*
X220870Y100630D02*
Y106000D01*
X217130Y98273D02*
Y106000D01*
X215846Y97839D02*
X216695D01*
X217130Y98273D01*
X215846Y95280D02*
Y97839D01*
X243705Y95575D02*
X244000Y95870D01*
X251870D02*
X252000Y96000D01*
X244000Y95870D02*
X251870D01*
X234500Y106000D02*
X237500Y103000D01*
Y143000D02*
X241130D01*
X244000Y135870D02*
X251870D01*
X252000Y136000D01*
X243705Y135575D02*
X244000Y135870D01*
X215846Y135280D02*
Y137839D01*
X216695D02*
X217130Y138273D01*
X215846Y137839D02*
X216695D01*
X217130Y138273D02*
Y146000D01*
X220870Y140630D02*
Y146000D01*
Y140630D02*
X228780Y132720D01*
X234154D01*
X234195Y130161D02*
X234630Y129727D01*
X234154Y130161D02*
X234195D01*
X234630Y123500D02*
Y129727D01*
X243705Y132425D02*
X244000Y132130D01*
X234449Y132425D02*
X243705D01*
X234154Y132720D02*
X234449Y132425D01*
Y135575D02*
X243705D01*
X234154Y135280D02*
X234449Y135575D01*
X234154Y137839D02*
Y146153D01*
Y177839D02*
Y186153D01*
Y175279D02*
X234449Y175575D01*
X243705D01*
X234154Y172721D02*
X234449Y172425D01*
X243705D01*
X244000Y172130D01*
X234630Y163500D02*
Y169727D01*
X234154Y170161D02*
X234195D01*
X234630Y169727D01*
X228780Y172721D02*
X234154D01*
X220870Y180630D02*
X228780Y172721D01*
X220870Y180630D02*
Y186000D01*
X217130Y178273D02*
Y186000D01*
X215846Y177839D02*
X216695D01*
X217130Y178273D01*
X215846Y175279D02*
Y177839D01*
X243705Y175575D02*
X244000Y175870D01*
X251870D02*
X252000Y176000D01*
X244000Y175870D02*
X251870D01*
X234500Y186000D02*
Y186500D01*
X237500Y183000D02*
X241130D01*
X234500Y186000D02*
X237500Y183000D01*
X234500Y226000D02*
X237500Y223000D01*
X241130D01*
X234500Y226000D02*
Y226500D01*
X244000Y215870D02*
X251870D01*
X252000Y216000D01*
X243705Y215575D02*
X244000Y215870D01*
X215846Y215280D02*
Y217839D01*
X216695D02*
X217130Y218273D01*
X215846Y217839D02*
X216695D01*
X217130Y218273D02*
Y226000D01*
X220870Y220630D02*
Y226000D01*
Y220630D02*
X228780Y212720D01*
X234154D01*
X234195Y210161D02*
X234630Y209727D01*
X234154Y210161D02*
X234195D01*
X234630Y203500D02*
Y209727D01*
X243705Y212425D02*
X244000Y212130D01*
X234449Y212425D02*
X243705D01*
X234154Y212720D02*
X234449Y212425D01*
Y215575D02*
X243705D01*
X234154Y215280D02*
X234449Y215575D01*
X335543Y160870D02*
X336673Y162000D01*
X335150Y160870D02*
X335543D01*
X336673Y162000D02*
X343150D01*
X350406Y148000D02*
X352150Y149743D01*
Y156146D01*
X343150Y156291D02*
X343893Y155548D01*
Y148000D02*
Y155548D01*
Y147598D02*
Y148000D01*
X351134Y122816D02*
Y125593D01*
Y122816D02*
X352550Y121400D01*
X353750D02*
X358650Y116500D01*
Y116000D02*
X359698Y114951D01*
Y112451D02*
Y114951D01*
Y112451D02*
X360150Y112000D01*
X359549Y185451D02*
X360000Y185000D01*
X359549Y185451D02*
Y187951D01*
X358500Y189000D02*
X359549Y187951D01*
X343893Y120467D02*
X347197Y123771D01*
X358650Y116000D02*
Y116500D01*
X352550Y121400D02*
X353750D01*
X343893Y116000D02*
Y120467D01*
X337150Y116850D02*
Y124327D01*
X336299Y116000D02*
X337150Y116850D01*
X349165Y121621D02*
X350406Y120380D01*
X349165Y121621D02*
Y125593D01*
X350406Y116000D02*
Y120380D01*
X336299Y148000D02*
X337150Y147150D01*
Y139673D02*
Y147150D01*
X353104Y140180D02*
X357830D01*
X353102Y125593D02*
X369516D01*
X356557Y129047D02*
X371757D01*
X356557Y131016D02*
X368119D01*
X356557Y134953D02*
X360056D01*
X364087Y132984D02*
X371909Y140806D01*
X356557Y132984D02*
X364087D01*
X371909Y123200D02*
Y123594D01*
X370884Y124225D02*
X371278D01*
X371909Y123594D01*
Y134806D02*
Y135200D01*
X368119Y131016D02*
X371909Y134806D01*
X371757Y129047D02*
X371909Y129200D01*
X369516Y125593D02*
X370884Y124225D01*
X337150Y136228D02*
X337831Y135547D01*
X336469D02*
X337150Y136228D01*
Y136327D01*
X336469Y128453D02*
X337150Y127772D01*
X338425Y129047D01*
X337150Y127673D02*
Y127772D01*
X347197Y123771D02*
Y125593D01*
X351134D02*
X351134Y125593D01*
X371909Y146806D02*
Y147200D01*
X364601Y146451D02*
X365650Y147500D01*
X371909Y140806D02*
Y141200D01*
X365650Y147500D02*
Y148000D01*
X332150Y132394D02*
X335303Y135547D01*
X337929D02*
X338524Y134953D01*
X339540Y131016D02*
X343742D01*
X332150Y131606D02*
Y132000D01*
Y131606D02*
X335303Y128453D01*
X336469D01*
X338150Y132000D02*
X338556D01*
X338425Y129047D02*
X343742D01*
X338556Y132000D02*
X339540Y132984D01*
X338524Y134953D02*
X343742D01*
X338556Y132000D02*
X339540Y131016D01*
Y132984D02*
X343742D01*
X335303Y135547D02*
X336469D01*
X337831D02*
X337929D01*
X332150Y132000D02*
Y132394D01*
X360056Y134953D02*
X371909Y146806D01*
X343893Y147598D02*
X347197Y144294D01*
X349165Y146759D02*
X350406Y148000D01*
X349165Y138407D02*
Y146759D01*
X353102Y140179D02*
X353104Y140180D01*
X353102Y138407D02*
Y140179D01*
X347197Y138407D02*
Y144294D01*
X343000Y180854D02*
Y188257D01*
X352000Y180854D02*
Y187257D01*
X371760Y196200D02*
Y196594D01*
X371128Y197225D02*
X371760Y196594D01*
X369367Y198593D02*
X370735Y197225D01*
X336150Y221000D02*
X337000Y220150D01*
X342000Y229291D02*
X342743Y228548D01*
X342000Y222743D02*
Y229291D01*
X338000Y205000D02*
X338406D01*
X337000Y189850D02*
Y197327D01*
Y200772D02*
X338276Y202047D01*
X337000Y200673D02*
Y200772D01*
X336319Y201453D02*
X337000Y200772D01*
X336150Y189000D02*
X337000Y189850D01*
X370735Y197225D02*
X371128D01*
X371607Y202047D02*
X371760Y202200D01*
X371760Y213806D02*
Y214200D01*
Y219806D02*
Y220200D01*
Y207806D02*
Y208200D01*
X347047Y211407D02*
Y217294D01*
X338406Y205000D02*
X339390Y205984D01*
X343593D01*
X342000Y222743D02*
X343743Y221000D01*
Y220598D02*
X347047Y217294D01*
X349016Y219759D02*
X350257Y221000D01*
X343743Y220598D02*
Y221000D01*
X350984Y211407D02*
Y214984D01*
X347047Y196771D02*
Y198593D01*
X349016Y211407D02*
Y219759D01*
X350984Y198593D02*
X350984Y198593D01*
X338406Y205000D02*
X339390Y204016D01*
X338374Y207953D02*
X343593D01*
X343000Y188257D02*
X343743Y189000D01*
X338276Y202047D02*
X343593D01*
X339390Y204016D02*
X343593D01*
X343743Y189000D02*
Y193467D01*
X347047Y196771D01*
X337681Y208547D02*
X337779D01*
X332000Y205394D02*
X335154Y208547D01*
X336319D01*
X332000Y205000D02*
Y205394D01*
X335154Y201453D02*
X336319D01*
X332000Y204606D02*
Y205000D01*
X337779Y208547D02*
X338374Y207953D01*
X332000Y204606D02*
X335154Y201453D01*
X364451Y219451D02*
X365500Y220500D01*
X363951Y219451D02*
X364451D01*
X355500Y219500D02*
X357500D01*
X365500Y220500D02*
Y221000D01*
X357500Y219500D02*
X358500Y220500D01*
Y221000D01*
X350257Y228402D02*
X351000Y229146D01*
X350257Y221000D02*
Y228402D01*
X359906Y207953D02*
X371760Y219806D01*
X363938Y205984D02*
X371760Y213806D01*
X350984Y214984D02*
X355500Y219500D01*
X358500Y189000D02*
Y189500D01*
X353600Y194400D02*
X358500Y189500D01*
X350984Y195816D02*
X352400Y194400D01*
X350257Y189000D02*
X352000Y187257D01*
X349016Y194621D02*
X350257Y193380D01*
X349016Y194621D02*
Y198593D01*
X350257Y189000D02*
Y193380D01*
X350984Y195816D02*
Y198593D01*
X352400Y194400D02*
X353600D01*
X336319Y208547D02*
X337000Y209228D01*
Y212673D02*
Y220150D01*
Y209228D02*
Y209327D01*
Y209228D02*
X337681Y208547D01*
X352953Y213179D02*
X352954Y213180D01*
X352953Y211407D02*
Y213179D01*
X352954Y213180D02*
X357680D01*
X356407Y207953D02*
X359906D01*
X356407Y205984D02*
X363938D01*
X356407Y204016D02*
X367969D01*
X356407Y202047D02*
X371607D01*
X367969Y204016D02*
X371760Y207806D01*
X352953Y198593D02*
X369367D01*
X357680Y213180D02*
X363951Y219451D01*
D76*
X285673Y292000D02*
X289500Y288173D01*
Y266400D02*
X295700Y260200D01*
X289500Y266400D02*
Y288173D01*
X284452Y277000D02*
X284850Y276602D01*
Y261050D02*
X285700Y260200D01*
X284850Y261050D02*
Y276602D01*
X284000Y277000D02*
X284452D01*
X284000Y292000D02*
X285673D01*
X255240Y277000D02*
X262543D01*
X128630Y247535D02*
Y251870D01*
X192630Y247535D02*
Y251870D01*
X225130Y247535D02*
Y251870D01*
X160630Y247535D02*
Y251870D01*
X49177Y276342D02*
Y280601D01*
X52400Y283823D02*
X254439D01*
X49177Y280601D02*
X52400Y283823D01*
X42878Y270042D02*
X49177Y276342D01*
X38405Y275905D02*
X48178Y285678D01*
X254439D01*
X36930Y275905D02*
X38405D01*
X28500Y267476D02*
X36930Y275905D01*
X254439Y283823D02*
X256263Y282000D01*
X262543D01*
X255762Y287000D02*
X262543D01*
X254439Y285678D02*
X255762Y287000D01*
X35165Y270042D02*
X42878D01*
X30354Y265232D02*
X35165Y270042D01*
X30354Y259767D02*
Y265232D01*
X28500Y258999D02*
Y267476D01*
X29749Y257749D02*
X36930Y250569D01*
X29749Y257749D02*
Y257749D01*
X28500Y258999D02*
X29749Y257749D01*
X30354Y259767D02*
X48741Y241381D01*
Y239906D02*
Y241381D01*
X36930Y239906D02*
Y250569D01*
D77*
X58000Y228000D02*
Y254835D01*
X48741Y264094D02*
X58000Y254835D01*
D78*
X351600Y70100D02*
D03*
X371600D02*
D03*
X381600D02*
D03*
X391600D02*
D03*
X361600Y80100D02*
D03*
X381600D02*
D03*
X391600D02*
D03*
X361600Y70100D02*
D03*
X371600Y80100D02*
D03*
X401600Y70100D02*
D03*
Y80100D02*
D03*
X331800Y80000D02*
D03*
X311800D02*
D03*
X301800D02*
D03*
X321800Y70000D02*
D03*
X301800D02*
D03*
X321800Y80000D02*
D03*
X311800Y70000D02*
D03*
X271800D02*
D03*
X281800D02*
D03*
X291800D02*
D03*
D79*
X351600Y80100D02*
D03*
X331800Y70000D02*
D03*
X261800D02*
D03*
D80*
X380000Y135000D02*
D03*
X379900Y123100D02*
D03*
X379500Y208500D02*
D03*
X65000Y77500D02*
D03*
X75500Y93000D02*
D03*
X136000Y46000D02*
D03*
X130000Y76000D02*
D03*
X134000Y80000D02*
D03*
X138000Y76000D02*
D03*
Y84000D02*
D03*
X130000D02*
D03*
X156000D02*
D03*
X160000Y88000D02*
D03*
X164000Y84000D02*
D03*
X168000Y88000D02*
D03*
X172000Y84000D02*
D03*
X176000Y88000D02*
D03*
Y80000D02*
D03*
X172000Y76000D02*
D03*
X168000Y80000D02*
D03*
X164000Y76000D02*
D03*
X160000Y80000D02*
D03*
X156000Y76000D02*
D03*
D81*
X76000Y75000D02*
D03*
X88523Y89055D02*
D03*
X85523Y90555D02*
D03*
X88023Y93555D02*
D03*
X85523Y96555D02*
D03*
X80000Y79000D02*
D03*
X76000Y88500D02*
D03*
X122000Y98000D02*
D03*
X247500Y64500D02*
D03*
X243500Y79203D02*
D03*
X245813Y57504D02*
D03*
X331000Y107000D02*
D03*
X365094Y151500D02*
D03*
X361650D02*
D03*
X266500Y302500D02*
D03*
X278713Y294557D02*
D03*
X364000Y185000D02*
D03*
X364150Y112000D02*
D03*
X197000Y56325D02*
D03*
X218925Y56250D02*
D03*
X238435Y79065D02*
D03*
X241000Y194500D02*
D03*
Y154500D02*
D03*
X361500Y224500D02*
D03*
X364945D02*
D03*
X328410Y136260D02*
D03*
X328260Y209260D02*
D03*
X330000Y216000D02*
D03*
X229000Y111000D02*
D03*
X233000D02*
D03*
X241000Y114500D02*
D03*
X216500Y79000D02*
D03*
X220000D02*
D03*
X200500Y101000D02*
D03*
X207500D02*
D03*
X229000Y151000D02*
D03*
X233000D02*
D03*
X216500Y119000D02*
D03*
X220000D02*
D03*
X200500Y141000D02*
D03*
X207500D02*
D03*
X238435Y119065D02*
D03*
X229000Y231000D02*
D03*
X233000D02*
D03*
X241000Y234500D02*
D03*
X216500Y199000D02*
D03*
X220000D02*
D03*
X200500Y221000D02*
D03*
X207500D02*
D03*
X238435Y199065D02*
D03*
Y159065D02*
D03*
X207500Y181000D02*
D03*
X200500D02*
D03*
X220000Y159000D02*
D03*
X216500D02*
D03*
X233000Y191000D02*
D03*
X229000D02*
D03*
X330150Y157000D02*
D03*
Y143000D02*
D03*
X330000Y120850D02*
D03*
X360150Y112000D02*
D03*
X360000Y185000D02*
D03*
X331000Y180000D02*
D03*
X329850Y193850D02*
D03*
X329000Y230000D02*
D03*
X278000Y282000D02*
D03*
X248000Y277000D02*
D03*
X272000Y298500D02*
D03*
X352150Y134000D02*
D03*
X348150Y130000D02*
D03*
Y134000D02*
D03*
X338150Y132000D02*
D03*
X352150Y130000D02*
D03*
X348000Y203000D02*
D03*
Y207000D02*
D03*
X352000Y203000D02*
D03*
Y207000D02*
D03*
X338000Y205000D02*
D03*
D82*
X72500Y80425D02*
D03*
Y83575D02*
D03*
D83*
X128565Y251935D02*
D03*
X192565D02*
D03*
X225065D02*
D03*
X160565D02*
D03*
M02*
