M48
;Layer_Color=9474304
;FILE_FORMAT=2:4
INCH,TZ
;TYPE=PLATED
T1F00S00C0.0100
T2F00S00C0.0150
T3F00S00C0.0200
T4F00S00C0.0300
T5F00S00C0.0394
T6F00S00C0.0402
T7F00S00C0.1200
;TYPE=NON_PLATED
T8F00S00C0.1181
%
T01
X400Y3500
X2200
X3100
X4000
X4900
X400Y5300
X35100Y3500
X36000
X36900
X37800
X39600
Y5300
Y6200
Y7100
Y8000
Y8900
Y9800
Y10700
X33500Y9750
X30253Y9051
X30011Y8689
X28450Y9400
X29550Y13450
X30003Y13453
X28050Y14400
X25850Y14150
X25180Y13830
X24200Y14150
X23200
X21750Y15650
X21350Y15300
X21400Y17500
X21750Y11300
X21500Y6900
X24500Y7200
X31950Y14850
X33000Y16300
X35200Y17950
X36187Y18000
X30200Y18850
X29200Y18550
X20650Y18600
X20180Y18300
X17250Y19300
X13150Y18650
X12400Y17450
X12700Y15300
X11000Y14950
X9700Y15400
X9400Y17500
X10000Y18650
Y20500
X11750Y20150
X12700Y21050
X7050Y20050
Y18900
X6950Y17500
X8400Y13150
X11200
X13400Y13650
X13700Y9750
X15950Y11000
X20700Y11300
X20650Y14600
X20500Y6900
X13000Y6850
X400Y7100
Y8000
Y8900
Y9800
Y10700
Y11600
Y12500
Y13400
Y14300
Y15200
Y16100
Y17000
Y17900
Y18800
Y19700
Y20600
X4850Y20350
X4150Y17650
X4100Y15950
X3800Y15600
X3000Y15950
X2900Y12150
X4250Y13150
X400Y6200
Y21500
Y22400
Y23300
Y24200
Y25100
Y26000
Y26900
Y27800
Y28700
Y29600
Y30500
Y31400
Y32300
Y33200
Y34100
Y35000
Y35900
Y36800
X10000Y27400
X9750Y25150
X7750Y25060
X20180Y21450
X26600Y24600
Y25400
Y26300
Y27200
Y28100
Y29000
Y29900
Y30800
Y31700
Y32600
Y33500
Y34400
X39600Y35050
Y35950
Y36850
Y37750
Y39600
X38200
X37100
X36200
X35300
X34400
X33500
X32600
X31700
X30800
X29900
X29000
X28100
X27200
X26300
X25400
X24500
X23600
X22700
X21800
X20900
X20000
X19100
X18200
X17300
X16400
X15500
X14600
X13700
X12800
X11900
X11000
X10100
X9200
X8300
X7400
X6500
X5600
X4700
X3800
X2900
X2000
X400
Y37700
X3700Y38250
T02
X31500Y7000
X32500
X36800Y6800
X5410Y13150
T03
X39500Y13450
Y14950
Y17300
Y18650
X33400Y14300
X31805Y14305
X29300Y15050
X17250Y14550
X4350Y22550
X33600Y23650
X12800Y37500
X11650
T04
X7500Y3150
X10500
X14500
X17500
T05
X15241Y18150
Y19922
X17800
Y18150
X3750Y24100
Y25100
Y26100
Y27100
X7750Y34450
Y35450
X8750
X9750
Y34450
X8750
X10750
Y35450
X11750
X12750
Y34450
X11750
T06
X21500Y6000
X22500
X23500
X24500
X25500
X26500
X27500
X28500
X29500
X30500
X31500
X32500
X33500
X33500Y8000
X32500
X31500
X30500
X29500
X28500
X27500
X26500
X25500
X24500
X23500
X22500
X21500
X20500
X19500
X18500
X17500
X16500
X15500
X14500
X13500
X12500
X11500
X10500
X9500
X8500
X7500
X6500
X6500Y6000
X7500
X8500
X9500
X10500
X11500
X12500
X13500
X14500
X15500
X16500
X17500
X18500
X19500
X20500
X18300Y13650
X17300
X16300
X15300
X3750Y28100
Y29100
Y30100
Y31100
Y34450
X4750
Y35450
X3750
X5750
X6750
Y34450
X5750
X35850Y22750
X36850
X37850
X38850
T07
X1200Y4300
X38800
Y38800
X1200
T08
X13415Y24450
Y30750
M30
