G04*
G04 #@! TF.GenerationSoftware,Altium Limited,Altium Designer,21.6.4 (81)*
G04*
G04 Layer_Color=6684774*
%FSLAX25Y25*%
%MOIN*%
G70*
G04*
G04 #@! TF.SameCoordinates,0CBDA3DA-19B2-4F21-B402-8426C952BD09*
G04*
G04*
G04 #@! TF.FilePolarity,Positive*
G04*
G01*
G75*
%ADD10C,0.01000*%
D10*
X344300Y2500D02*
Y27500D01*
X55700Y2500D02*
Y27500D01*
X148000Y131579D02*
X188000D01*
X148000Y141421D02*
X188000D01*
Y131579D02*
Y141421D01*
X148000Y131579D02*
Y141421D01*
X32579Y316000D02*
X42421D01*
X32579Y236000D02*
X42421D01*
Y316000D01*
X32579Y236000D02*
Y316000D01*
X230413Y231512D02*
Y320488D01*
X31594D02*
X230413D01*
X31594Y231512D02*
X230413D01*
X31594D02*
Y320488D01*
X405680Y143476D02*
Y179476D01*
X399680Y143476D02*
X405680D01*
X399680Y115476D02*
Y143476D01*
X193802Y115476D02*
X399680D01*
Y179476D02*
Y207476D01*
X193802Y177626D02*
Y207476D01*
X399680D01*
X193802Y115476D02*
Y145626D01*
X399680Y179476D02*
X405680D01*
X353500Y222579D02*
X393500D01*
X353500Y232421D02*
X393500D01*
X353500Y222579D02*
Y232421D01*
X393500Y222579D02*
Y232421D01*
X32500Y339579D02*
Y359421D01*
X132500Y339579D02*
Y359421D01*
X32500Y339579D02*
X132500D01*
X32500Y359421D02*
X132500D01*
M02*
