G04*
G04 #@! TF.GenerationSoftware,Altium Limited,Altium Designer,21.6.4 (81)*
G04*
G04 Layer_Color=8421504*
%FSLAX25Y25*%
%MOIN*%
G70*
G04*
G04 #@! TF.SameCoordinates,0CBDA3DA-19B2-4F21-B402-8426C952BD09*
G04*
G04*
G04 #@! TF.FilePolarity,Positive*
G04*
G01*
G75*
%ADD13C,0.00600*%
%ADD14C,0.00500*%
D13*
X351500Y225000D02*
Y226500D01*
Y235500D02*
Y237000D01*
X345500D02*
X351500D01*
X345500Y235500D02*
Y237000D01*
Y225000D02*
X351500D01*
X345500D02*
Y226500D01*
X344500Y225000D02*
Y226500D01*
Y235500D02*
Y237000D01*
X338500D02*
X344500D01*
X338500Y235500D02*
Y237000D01*
Y225000D02*
X344500D01*
X338500D02*
Y226500D01*
X353500Y222579D02*
X393500D01*
X353500Y232421D02*
X393500D01*
X353500Y222579D02*
Y232421D01*
X393500Y222579D02*
Y232421D01*
X32500Y339579D02*
Y359421D01*
Y339579D02*
X132500D01*
X32500Y359421D02*
X132500D01*
Y339579D02*
Y359421D01*
D14*
X357500Y220500D02*
X357000Y220000D01*
Y219000D01*
X357500Y218500D01*
X358000D01*
X358500Y219000D01*
Y219500D01*
Y219000D01*
X359000Y218500D01*
X359500D01*
X359999Y219000D01*
Y220000D01*
X359500Y220500D01*
X357000Y217501D02*
X359000D01*
X359999Y216501D01*
X359000Y215501D01*
X357000D01*
X357500Y214502D02*
X357000Y214002D01*
Y213002D01*
X357500Y212502D01*
X358000D01*
X358500Y213002D01*
Y213502D01*
Y213002D01*
X359000Y212502D01*
X359500D01*
X359999Y213002D01*
Y214002D01*
X359500Y214502D01*
X387500Y218500D02*
X387000Y219000D01*
Y220000D01*
X387500Y220500D01*
X389499D01*
X389999Y220000D01*
Y219000D01*
X389499Y218500D01*
X388500D01*
Y219500D01*
X389999Y217501D02*
X387000D01*
X389999Y215501D01*
X387000D01*
Y214502D02*
X389999D01*
Y213002D01*
X389499Y212502D01*
X387500D01*
X387000Y213002D01*
Y214502D01*
X377500Y218500D02*
X377000Y219000D01*
Y220000D01*
X377500Y220500D01*
X378000D01*
X378500Y220000D01*
Y219000D01*
X379000Y218500D01*
X379500D01*
X379999Y219000D01*
Y220000D01*
X379500Y220500D01*
X377500Y215501D02*
X377000Y216001D01*
Y217001D01*
X377500Y217501D01*
X379500D01*
X379999Y217001D01*
Y216001D01*
X379500Y215501D01*
X377000Y214502D02*
X379999D01*
Y212502D01*
X367500Y218500D02*
X367000Y219000D01*
Y220000D01*
X367500Y220500D01*
X368000D01*
X368500Y220000D01*
Y219000D01*
X369000Y218500D01*
X369499D01*
X369999Y219000D01*
Y220000D01*
X369499Y220500D01*
X367000Y217501D02*
X369999D01*
Y216001D01*
X369499Y215501D01*
X367500D01*
X367000Y216001D01*
Y217501D01*
X369999Y214502D02*
X368000D01*
X367000Y213502D01*
X368000Y212502D01*
X369999D01*
X368500D01*
Y214502D01*
X352500Y229500D02*
X351500D01*
X352000D01*
Y232499D01*
X352500Y231999D01*
X133400Y358600D02*
X134400D01*
X133900D01*
Y355601D01*
X133400Y356101D01*
X340500Y222000D02*
X340001Y222500D01*
Y223499D01*
X340500Y223999D01*
X342500D01*
X343000Y223499D01*
Y222500D01*
X342500Y222000D01*
X340500Y221000D02*
X340001Y220500D01*
Y219501D01*
X340500Y219001D01*
X341000D01*
X341500Y219501D01*
X342000Y219001D01*
X342500D01*
X343000Y219501D01*
Y220500D01*
X342500Y221000D01*
X342000D01*
X341500Y220500D01*
X341000Y221000D01*
X340500D01*
X341500Y220500D02*
Y219501D01*
X347500Y222000D02*
X347001Y222500D01*
Y223499D01*
X347500Y223999D01*
X349500D01*
X349999Y223499D01*
Y222500D01*
X349500Y222000D01*
X347001Y221000D02*
Y219001D01*
X347500D01*
X349500Y221000D01*
X349999D01*
X391500Y237000D02*
X392499D01*
X392000D01*
Y234500D01*
X392499Y234000D01*
X392999D01*
X393499Y234500D01*
X390500Y236500D02*
X390000Y237000D01*
X389001D01*
X388501Y236500D01*
Y236000D01*
X389001Y235500D01*
X389500D01*
X389001D01*
X388501Y235000D01*
Y234500D01*
X389001Y234000D01*
X390000D01*
X390500Y234500D01*
X132401Y365399D02*
X133400D01*
X132901D01*
Y362900D01*
X133400Y362400D01*
X133900D01*
X134400Y362900D01*
X129402Y362400D02*
X131401D01*
X129402Y364399D01*
Y364899D01*
X129901Y365399D01*
X130901D01*
X131401Y364899D01*
M02*
